<svg xmlns="http://www.w3.org/2000/svg" width="892" height="516" viewBox="0 0 892 516">
  <defs>
    <linearGradient id="artwork-a" x1="49.972%" x2="49.972%" y1="99.913%" y2="-.087%">
      <stop offset="0%" stop-color="gray" stop-opacity=".25"/>
      <stop offset="54%" stop-color="gray" stop-opacity=".12"/>
      <stop offset="100%" stop-color="gray" stop-opacity=".1"/>
    </linearGradient>
    <linearGradient id="artwork-b" x1="50%" x2="48.01%" y1="0%" y2="100%">
      <stop offset="0%" stop-color="#2A415C"/>
      <stop offset="100%" stop-color="#1B2D48"/>
    </linearGradient>
    <linearGradient id="artwork-c" x1="50%" x2="47.963%" y1="0%" y2="100%">
      <stop offset="0%" stop-color="#2A415C"/>
      <stop offset="100%" stop-color="#1B2D48"/>
    </linearGradient>
  </defs>
  <g fill="none" fill-rule="evenodd">
    <g fill-rule="nonzero" transform="translate(168 108)">
      <path fill="url(#artwork-a)" d="M54.8332677,12.0740392 L54.8332677,12.0740392 C52.365153,8.83389534 49.2779316,6.11602747 45.7507505,4.07814948 L45.7507505,4.07814948 C34.6433961,-2.32468008 20.71672,-1.1016918 10.8960769,7.13895572 C1.07543378,15.3796032 -2.54342592,28.8793347 1.8390576,40.9251033 C6.22154113,52.970872 17.6701347,60.9920799 30.4917662,61 C31.1405174,61 31.7892686,61 32.4202458,60.9289254 C43.6223605,60.2223153 53.5310151,53.4219048 58.2159575,43.225066 C62.9008998,33.0282273 61.6049539,21.0829636 54.8421547,12.1273451 L54.8332677,12.0740392 Z"/>
      <path fill="#000" d="M22.795448,12.3025975 C21.3629882,12.958409 19.98116,13.732895 18.6627105,14.6189109 C17.7825344,15.1303996 17.0256019,15.8516898 16.4511837,16.7263018 C15.8687906,17.6268817 15.8486218,18.8105252 16.3999514,19.7329673 C17.0745098,20.7139941 18.3723943,20.8593314 19.5165819,20.9320001 C20.7181062,21.0948111 21.9387065,20.9643409 23.0857642,20.5504897 C23.8602741,20.1429726 24.5646335,19.599419 25.1692104,18.9426957 L27.5515115,16.6445496 C28.4053829,15.8451944 29.2592543,14.746081 28.9262444,13.6197169 C28.5260744,12.8024217 27.7647352,12.2556393 26.9025693,12.1663438 C24.848869,11.7406639 22.7197392,12.1386555 20.9254697,13.2836244" opacity=".1"/>
      <ellipse cx="1.739" cy="1.484" fill="#000" opacity=".1" rx="1.487" ry="1.394" transform="translate(11 40)"/>
      <circle cx="5.843" cy="6.087" r="5.443" fill="#000" opacity=".1" transform="translate(38 26)"/>
      <path fill="#000" d="M15.2956522,7.43726821 L15.2956522,7.43726821 C15.251494,11.3477583 12.1036411,14.5350227 8.14345223,14.6790145 C4.18326333,14.8230064 0.806269336,11.8729844 0.47062342,7.9763039 C0.134977504,4.0796234 2.95895793,0.609435565 6.88695652,0.0917304506 L6.88695652,0.0917304506 C10.1583189,1.96219729 13.0173419,4.4597382 15.2956522,7.43726821 L15.2956522,7.43726821 Z" opacity=".1" transform="translate(38 6)"/>
      <path fill="#000" d="M22.4732143,3.16647597 C17.4245105,10.0734893 9.38190309,14.3993635 0.616071429,14.9227689 C0.616071429,14.5366133 0.5625,14.1504577 0.5625,13.7557208 C0.567456897,8.77209033 3.49283397,4.21612758 8.12545527,1.9772247 C12.7580766,-0.261678177 18.307839,0.198328299 22.4732143,3.16647597 Z" opacity=".1" transform="translate(31 44)"/>
    </g>
    <path fill="#16253C" fill-rule="nonzero" d="M297.037109,223.347656 L325.235352,223.347656 L325.235352,263.166992 L297.037109,263.166992 L297.037109,317 L247.647461,317 L247.647461,263.166992 L145.621094,263.166992 L143.399414,232.063477 L247.134766,68.171875 L297.037109,68.171875 L297.037109,223.347656 Z M192.618164,223.347656 L247.647461,223.347656 L247.647461,135.505859 L244.400391,141.145508 L192.618164,223.347656 Z M519.205078,214.119141 C519.205078,248.526865 512.084381,274.844961 497.842773,293.074219 C483.601166,311.303477 462.751765,320.417969 435.293945,320.417969 C408.177924,320.417969 387.442455,311.474373 373.086914,293.586914 C358.731374,275.699455 351.382814,250.064946 351.041016,216.682617 L351.041016,170.881836 C351.041016,136.132313 358.247161,109.757251 372.659668,91.7558594 C387.072175,73.7544673 407.836127,64.7539062 434.952148,64.7539062 C462.068169,64.7539062 482.803639,73.6690189 497.15918,91.4995117 C511.51472,109.330005 518.86328,134.936031 519.205078,168.318359 L519.205078,214.119141 Z M469.81543,163.875 C469.81543,143.253152 466.995634,128.242723 461.355957,118.843262 C455.71628,109.443801 446.915099,104.744141 434.952148,104.744141 C423.330997,104.744141 414.757677,109.215938 409.231934,118.159668 C403.70619,127.103398 400.772463,141.088447 400.430664,160.115234 L400.430664,220.613281 C400.430664,240.893331 403.193495,255.960725 408.719238,265.815918 C414.244982,275.67111 423.103129,280.598633 435.293945,280.598633 C447.370829,280.598633 456.086562,275.87049 461.441406,266.414062 C466.796251,256.957635 469.587564,242.488379 469.81543,223.005859 L469.81543,163.875 Z M698.648438,223.347656 L726.84668,223.347656 L726.84668,263.166992 L698.648438,263.166992 L698.648438,317 L649.258789,317 L649.258789,263.166992 L547.232422,263.166992 L545.010742,232.063477 L648.746094,68.171875 L698.648438,68.171875 L698.648438,223.347656 Z M594.229492,223.347656 L649.258789,223.347656 L649.258789,135.505859 L646.011719,141.145508 L594.229492,223.347656 Z"/>
    <g fill-rule="nonzero" transform="translate(229 157)">
      <path fill="url(#artwork-b)" d="M172,203.546354 C172,265.402234 135.511203,287 90.5,287 C45.4887966,287 9,265.402234 9,203.546354 C9,141.690473 90.5,63 90.5,63 C90.5,63 172,141.690458 172,203.546354 Z"/>
      <polygon fill="#121F30" points="88.079 278.221 88.921 226.53 124 162.58 89.053 218.421 89.432 195.178 113.609 148.911 89.532 189.027 89.532 189.027 90.214 147.225 116.102 110.391 90.321 140.652 90.747 64 88.071 165.472 88.291 161.287 61.97 121.139 87.869 169.322 85.417 216.009 85.343 214.769 55 172.521 85.252 219.147 84.945 224.986 84.89 225.074 84.915 225.553 78.693 344 87.006 344 88.003 282.82 118.181 236.308"/>
      <path fill="url(#artwork-c)" d="M415,171.290845 C415,246.677702 370.00462,273 314.5,273 C258.995385,273 214,246.677702 214,171.290845 C214,95.9039872 314.5,0 314.5,0 C314.5,0 415,95.9039922 415,171.290845 Z"/>
      <polygon fill="#121F32" points="311.269 261.655 312.295 198.518 355 120.408 312.456 188.614 312.918 160.225 342.35 103.713 313.04 152.712 313.04 152.712 313.869 101.653 345.386 56.663 314 93.624 314.518 0 311.26 123.941 311.528 118.828 279.485 69.792 311.015 128.643 308.028 185.667 307.94 184.154 271 132.55 307.828 189.501 307.454 196.632 307.388 196.74 307.418 197.325 299.843 342 309.964 342 311.178 267.272 347.916 210.461"/>
      <ellipse cx="204" cy="347" fill="#121F32" rx="204" ry="12"/>
      <rect width="18" height="169" x="199" y="174" fill="#0C1420"/>
      <polygon fill="#155775" points="291.112 211 181 211 181 181 291.112 181 323 196"/>
      <polygon fill="#000" points="291.112 210.463 181 210.463 181 213 291.112 213 323 197.269 320.429 196" opacity=".1"/>
      <polygon fill="#155775" points="125.888 252 236 252 236 222 125.888 222 94 237"/>
      <polygon fill="#000" points="96.571 236 94 237.269 125.888 253 236 253 236 250.463 125.888 250.463" opacity=".1"/>
      <circle cx="207.5" cy="196.5" r="5.5" fill="#0C1420"/>
      <circle cx="207.5" cy="236.5" r="5.5" fill="#0C1420"/>
      <path fill="#1C2E49" d="M171,329.724948 C171,341.046821 164.284597,345 156,345 C155.808081,345 155.616468,344.997862 155.425162,344.993585 C155.041311,344.985342 154.661121,344.967025 154.285506,344.941376 C146.808817,344.411054 141,340.254541 141,329.724948 C141,318.828074 154.894171,305.078055 155.937851,304.060448 L155.939681,304.058619 C155.979904,304.019234 156.000015,304 156.000015,304 C156.000015,304 171,318.403076 171,329.724948 Z"/>
      <path fill="#0C1420" d="M156.752779,342.274106 L161.987555,334.590058 L156.739696,343.117819 L156.725755,344 C156.359495,343.991755 155.996727,343.973435 155.638326,343.947783 L156.202537,332.618656 L156.198172,332.530713 L156.207766,332.514222 L156.26096,331.444244 L151,322.895417 L156.277526,330.641757 L156.28975,330.868945 L156.71616,322.30912 L152.212143,313.47538 L156.7711,320.80673 L157.214959,303.060477 L157.216705,303 L157.216705,303.058628 L157.142584,317.052627 L161.626557,311.504851 L157.124273,318.258225 L157.00568,325.922125 L161.192289,318.566941 L156.988241,327.049824 L156.92197,331.310494 L163,321.073329 L156.899297,332.797291 L156.752779,342.274106 Z"/>
    </g>
    <circle cx="80" cy="89" r="3" fill="#FFF" fill-rule="nonzero"/>
    <circle cx="716" cy="194" r="3" fill="#FFF" fill-rule="nonzero" opacity=".448"/>
    <polygon fill="#FFF" fill-rule="nonzero" points="540.922 46 540.078 46 540.078 48.078 538 48.078 538 48.922 540.078 48.922 540.078 51 540.922 51 540.922 48.922 543 48.922 543 48.078 540.922 48.078"/>
    <polygon fill="#FFF" fill-rule="nonzero" points="892 169.078 889.922 169.078 889.922 167 889.078 167 889.078 169.078 887 169.078 887 169.922 889.078 169.922 889.078 172 889.922 172 889.922 169.922 892 169.922"/>
    <polygon fill="#FFFD86" fill-rule="nonzero" points="728 300.078 725.922 300.078 725.922 298 725.078 298 725.078 300.078 723 300.078 723 300.922 725.078 300.922 725.078 303 725.922 303 725.922 300.922 728 300.922"/>
    <polygon fill="#FFFD86" fill-rule="nonzero" points="5 359.078 2.922 359.078 2.922 357 2.078 357 2.078 359.078 0 359.078 0 359.922 2.078 359.922 2.078 362 2.922 362 2.922 359.922 5 359.922"/>
    <polygon fill="#FFFD86" fill-rule="nonzero" points="647 432.078 644.922 432.078 644.922 430 644.078 430 644.078 432.078 642 432.078 642 432.922 644.078 432.922 644.078 435 644.922 435 644.922 432.922 647 432.922" opacity=".398"/>
    <polygon fill="#FFFD86" fill-rule="nonzero" points="771 99.078 768.922 99.078 768.922 97 768.078 97 768.078 99.078 766 99.078 766 99.922 768.078 99.922 768.078 102 768.922 102 768.922 99.922 771 99.922"/>
    <polygon fill="#FFF" fill-rule="nonzero" points="305 2.078 302.922 2.078 302.922 0 302.078 0 302.078 2.078 300 2.078 300 2.922 302.078 2.922 302.078 5 302.922 5 302.922 2.922 305 2.922"/>
    <polygon fill="#FFF" fill-rule="nonzero" points="174 309.078 171.922 309.078 171.922 307 171.078 307 171.078 309.078 169 309.078 169 309.922 171.078 309.922 171.078 312 171.922 312 171.922 309.922 174 309.922"/>
    <polygon fill="#FFFD86" fill-rule="nonzero" points="227 207.078 224.922 207.078 224.922 205 224.078 205 224.078 207.078 222 207.078 222 207.922 224.078 207.922 224.078 210 224.922 210 224.922 207.922 227 207.922" opacity=".49"/>
    <circle cx="1.809" cy="1.819" r="1.116" fill="#000" fill-rule="nonzero" opacity=".1" transform="translate(162 375)"/>
    <polyline points="733 397 756 409.115 738.043 429"/>
    <circle cx="855" cy="283" r="2" fill="#FFF" fill-rule="nonzero"/>
  </g>
</svg>
