<svg width="875" height="496" xmlns="http://www.w3.org/2000/svg">
    <defs>
        <linearGradient x1="50%" y1="100%" x2="50%" y2="0%" id="a">
            <stop stop-color="#5C937A" offset="0%"/>
            <stop stop-color="#23395B" offset="100%"/>
        </linearGradient>
    </defs>
    <g fill="none" fill-rule="evenodd">
        <path fill="url(#a)" transform="matrix(-1 0 0 1 1680 -88)" d="M0 0h1680v584H0z"/>
        <path fill="#203454" d="M833.77 169.612h-34.817v58.676h-41.23v-90.765h-30.236V69.678h-24.738V0h-51.31v69.678h-24.737v67.845h-29.32V55.926H580.89V14.67h-10.078v41.257h-58.64v260.377h-44.895V288.8h-27.486v27.504h-44.896v-88.015h-80.628v-58.676h-36.65v171.446H240.97v-66.012h-43.98v66.011h-36.65V137.523h-28.403V69.678H27.487v67.845H0V496h875V228.288h-41.23z"/>
        <path fill="#155775" opacity=".4" d="M19 160h37v22H19zm121 22h-37v-22h37zM19 202h37v22H19zm121 22h-37v-22h37zM19 246h37v22H19zm121 22h-37v-22h37zM19 288h37v22H19zm121 22h-37v-22h37zM19 330h37v22H19zm121 22h-37v-22h37zM19 373h37v22H19zm121 22h-37v-22h37zM19 416h37v22H19zm121 22h-37v-22h37zm34-75h90v11h-90zm0 16h90v11h-90zm0 16h90v11h-90zm235-26h90v11h-90zm0 16h90v11h-90zm0 17h90v11h-90zm-235 12h90v11h-90zm0 15h90v11h-90zm0 17h90v11h-90zm123-197h26v34h-26zm79 34h-26v-34h26zm-79 18h26v34h-26zm79 34h-26v-34h26zm-79 17h26v34h-26zm79 34h-26v-34h26zm-79 18h26v34h-26zm79 34h-26v-34h26zM509 78h36v42h-36zm0 59h36v42h-36zm0 62h36v42h-36zm0 59h36v42h-36zm0 65h36v42h-36zm0 59h36v42h-36zm108-219h122v36H617zm3 77h122v36H620zm0 76h122v36H620zm0 78h122v36H620zM27 89h18v36H27zm808 161h40v54h-40zm0 77h40v54h-40zm0 76h40v54h-40z"/>
        <path d="M241.579 42.665h-6.312a4.444 4.444 0 0 0 3.997-2.106 4.262 4.262 0 0 0 0-4.448 4.444 4.444 0 0 0-3.997-2.106h-51.122a4.444 4.444 0 0 0-3.996 2.106 4.262 4.262 0 0 0 0 4.448 4.444 4.444 0 0 0 3.996 2.106h6.312c-2.442 0-4.422 1.94-4.422 4.335 0 2.394 1.98 4.335 4.422 4.335h-8.834a4.444 4.444 0 0 0-3.997 2.106 4.262 4.262 0 0 0 0 4.448 4.444 4.444 0 0 0 3.997 2.106h51.122a4.444 4.444 0 0 0 3.996-2.106 4.262 4.262 0 0 0 0-4.448 4.444 4.444 0 0 0-3.996-2.106h8.834c2.441 0 4.421-1.94 4.421-4.335 0-2.394-1.98-4.335-4.421-4.335Zm226 113h-6.312a4.444 4.444 0 0 0 3.997-2.106 4.262 4.262 0 0 0 0-4.448 4.444 4.444 0 0 0-3.997-2.106h-51.122a4.444 4.444 0 0 0-3.996 2.106 4.262 4.262 0 0 0 0 4.448 4.444 4.444 0 0 0 3.996 2.106h6.312c-2.442 0-4.422 1.94-4.422 4.335 0 2.394 1.98 4.335 4.422 4.335h-8.834a4.444 4.444 0 0 0-3.997 2.106 4.262 4.262 0 0 0 0 4.448 4.444 4.444 0 0 0 3.997 2.106h51.122a4.444 4.444 0 0 0 3.996-2.106 4.262 4.262 0 0 0 0-4.448 4.444 4.444 0 0 0-3.996-2.106h8.834c1.58 0 3.039-.826 3.829-2.168a4.261 4.261 0 0 0 0-4.334 4.438 4.438 0 0 0-3.83-2.168Zm385-146h-6.312a4.444 4.444 0 0 0 3.997-2.106 4.262 4.262 0 0 0 0-4.448 4.444 4.444 0 0 0-3.997-2.106h-51.122a4.444 4.444 0 0 0-3.996 2.106 4.262 4.262 0 0 0 0 4.448 4.444 4.444 0 0 0 3.996 2.106h6.312c-2.442 0-4.422 1.94-4.422 4.335 0 2.394 1.98 4.335 4.422 4.335h-8.834a4.444 4.444 0 0 0-3.997 2.106 4.262 4.262 0 0 0 0 4.448 4.444 4.444 0 0 0 3.997 2.106h51.122a4.444 4.444 0 0 0 3.996-2.106 4.262 4.262 0 0 0 0-4.448 4.444 4.444 0 0 0-3.996-2.106h8.834c2.441 0 4.421-1.94 4.421-4.335 0-2.394-1.98-4.335-4.421-4.335Z" fill="#252223" opacity=".1"/>
        <path d="M1642.974 194.617h-32.111V248.8h-38.026v-83.812h-27.886V102.34h-22.816V38h-47.321v64.34h-22.816v62.647h-27.04V89.641h-15.211V51.545h-9.296v38.096h-54.081v240.43h-41.407v-25.398h-25.35v25.397h-41.407V248.8h-74.362v-54.182h-33.801v158.311h-33.801v-60.954h-40.561v60.954h-33.801v-187.94h-26.196V102.34H899.35v62.647H874V496h807V248.799h-38.026z" fill="#203454"/>
    </g>
</svg>
