<?xml version="1.0" encoding="UTF-8"?>
<svg width="875px" height="496px" viewBox="0 0 875 496" version="1.1" xmlns="http://www.w3.org/2000/svg" xmlns:xlink="http://www.w3.org/1999/xlink">
    <!-- Generator: Sketch 62 (91390) - https://sketch.com -->
    <title>undraw_good_doggy_4wfq</title>
    <desc>Created with Sketch.</desc>
    <defs>
        <linearGradient x1="50%" y1="100%" x2="50%" y2="0%" id="linearGradient-1">
            <stop stop-color="#5C937A" offset="0%"></stop>
            <stop stop-color="#23395B" offset="100%"></stop>
        </linearGradient>
    </defs>
    <g id="Sign-in-page" stroke="none" stroke-width="1" fill="none" fill-rule="evenodd">
        <g id="v1-" transform="translate(0.000000, -188.000000)">
            <g id="cityscape" transform="translate(0.000000, 100.000000)">
                <polygon id="bg" fill="url(#linearGradient-1)" transform="translate(840.000000, 292.000000) scale(-1, 1) translate(-840.000000, -292.000000) " points="0 0 1680 0 1680 83.9576042 1680 584 0 584"></polygon>
                <g id="undraw_good_doggy_4wfq" transform="translate(0.000000, 88.000000)">
                    <polygon id="Path" fill="#203454" points="833.769634 169.61183 798.95288 169.61183 798.95288 228.288355 757.722513 228.288355 757.722513 137.523105 727.486911 137.523105 727.486911 69.6783734 702.748691 69.6783734 702.748691 0 651.439791 0 651.439791 69.6783734 626.701571 69.6783734 626.701571 137.523105 597.382199 137.523105 597.382199 55.9260628 580.890052 55.9260628 580.890052 14.6691312 570.811518 14.6691312 570.811518 55.9260628 512.172775 55.9260628 512.172775 316.303142 467.277487 316.303142 467.277487 288.798521 439.790576 288.798521 439.790576 316.303142 394.895288 316.303142 394.895288 228.288355 314.267016 228.288355 314.267016 169.61183 277.617801 169.61183 277.617801 228.288355 277.617801 341.057301 240.968586 341.057301 240.968586 275.046211 196.989529 275.046211 196.989529 341.057301 160.340314 341.057301 160.340314 137.523105 131.937173 137.523105 131.937173 69.6783734 27.486911 69.6783734 27.486911 137.523105 0 137.523105 0 496 160.340314 496 277.617801 496 394.895288 496 512.172775 496 597.382199 496 757.722513 496 875 496 875 228.288355 833.769634 228.288355"></polygon>
                    <rect id="Rectangle" fill="#155775" opacity="0.4" x="19" y="160" width="37" height="22"></rect>
                    <rect id="Rectangle" fill="#155775" opacity="0.4" transform="translate(121.500000, 171.000000) rotate(-180.000000) translate(-121.500000, -171.000000) " x="103" y="160" width="37" height="22"></rect>
                    <rect id="Rectangle" fill="#155775" opacity="0.4" x="19" y="202" width="37" height="22"></rect>
                    <rect id="Rectangle" fill="#155775" opacity="0.4" transform="translate(121.500000, 213.000000) rotate(-180.000000) translate(-121.500000, -213.000000) " x="103" y="202" width="37" height="22"></rect>
                    <rect id="Rectangle" fill="#155775" opacity="0.4" x="19" y="246" width="37" height="22"></rect>
                    <rect id="Rectangle" fill="#155775" opacity="0.4" transform="translate(121.500000, 257.000000) rotate(-180.000000) translate(-121.500000, -257.000000) " x="103" y="246" width="37" height="22"></rect>
                    <rect id="Rectangle" fill="#155775" opacity="0.4" x="19" y="288" width="37" height="22"></rect>
                    <rect id="Rectangle" fill="#155775" opacity="0.4" transform="translate(121.500000, 299.000000) rotate(-180.000000) translate(-121.500000, -299.000000) " x="103" y="288" width="37" height="22"></rect>
                    <rect id="Rectangle" fill="#155775" opacity="0.4" x="19" y="330" width="37" height="22"></rect>
                    <rect id="Rectangle" fill="#155775" opacity="0.4" transform="translate(121.500000, 341.000000) rotate(-180.000000) translate(-121.500000, -341.000000) " x="103" y="330" width="37" height="22"></rect>
                    <rect id="Rectangle" fill="#155775" opacity="0.4" x="19" y="373" width="37" height="22"></rect>
                    <rect id="Rectangle" fill="#155775" opacity="0.4" transform="translate(121.500000, 384.000000) rotate(-180.000000) translate(-121.500000, -384.000000) " x="103" y="373" width="37" height="22"></rect>
                    <rect id="Rectangle" fill="#155775" opacity="0.4" x="19" y="416" width="37" height="22"></rect>
                    <rect id="Rectangle" fill="#155775" opacity="0.4" transform="translate(121.500000, 427.000000) rotate(-180.000000) translate(-121.500000, -427.000000) " x="103" y="416" width="37" height="22"></rect>
                    <rect id="Rectangle" fill="#155775" opacity="0.4" x="174" y="363" width="90" height="11"></rect>
                    <rect id="Rectangle" fill="#155775" opacity="0.4" x="174" y="379" width="90" height="11"></rect>
                    <rect id="Rectangle" fill="#155775" opacity="0.4" x="174" y="395" width="90" height="11"></rect>
                    <rect id="Rectangle" fill="#155775" opacity="0.4" x="409" y="369" width="90" height="11"></rect>
                    <rect id="Rectangle" fill="#155775" opacity="0.4" x="409" y="385" width="90" height="11"></rect>
                    <rect id="Rectangle" fill="#155775" opacity="0.4" x="409" y="402" width="90" height="11"></rect>
                    <rect id="Rectangle" fill="#155775" opacity="0.4" x="174" y="414" width="90" height="11"></rect>
                    <rect id="Rectangle" fill="#155775" opacity="0.4" x="174" y="429" width="90" height="11"></rect>
                    <rect id="Rectangle" fill="#155775" opacity="0.4" x="174" y="446" width="90" height="11"></rect>
                    <rect id="Rectangle" fill="#155775" opacity="0.4" x="297" y="249" width="26" height="34"></rect>
                    <rect id="Rectangle" fill="#155775" opacity="0.4" transform="translate(363.000000, 266.000000) rotate(-180.000000) translate(-363.000000, -266.000000) " x="350" y="249" width="26" height="34"></rect>
                    <rect id="Rectangle" fill="#155775" opacity="0.4" x="297" y="301" width="26" height="34"></rect>
                    <rect id="Rectangle" fill="#155775" opacity="0.4" transform="translate(363.000000, 318.000000) rotate(-180.000000) translate(-363.000000, -318.000000) " x="350" y="301" width="26" height="34"></rect>
                    <rect id="Rectangle" fill="#155775" opacity="0.4" x="297" y="352" width="26" height="34"></rect>
                    <rect id="Rectangle" fill="#155775" opacity="0.4" transform="translate(363.000000, 369.000000) rotate(-180.000000) translate(-363.000000, -369.000000) " x="350" y="352" width="26" height="34"></rect>
                    <rect id="Rectangle" fill="#155775" opacity="0.4" x="297" y="404" width="26" height="34"></rect>
                    <rect id="Rectangle" fill="#155775" opacity="0.4" transform="translate(363.000000, 421.000000) rotate(-180.000000) translate(-363.000000, -421.000000) " x="350" y="404" width="26" height="34"></rect>
                    <rect id="Rectangle" fill="#155775" opacity="0.4" x="509" y="78" width="36" height="42"></rect>
                    <rect id="Rectangle" fill="#155775" opacity="0.4" x="509" y="137" width="36" height="42"></rect>
                    <rect id="Rectangle" fill="#155775" opacity="0.4" x="509" y="199" width="36" height="42"></rect>
                    <rect id="Rectangle" fill="#155775" opacity="0.4" x="509" y="258" width="36" height="42"></rect>
                    <rect id="Rectangle" fill="#155775" opacity="0.4" x="509" y="323" width="36" height="42"></rect>
                    <rect id="Rectangle" fill="#155775" opacity="0.4" x="509" y="382" width="36" height="42"></rect>
                    <rect id="Rectangle" fill="#155775" opacity="0.4" x="617" y="163" width="122" height="36"></rect>
                    <rect id="Rectangle" fill="#155775" opacity="0.4" x="620" y="240" width="122" height="36"></rect>
                    <rect id="Rectangle" fill="#155775" opacity="0.4" x="620" y="316" width="122" height="36"></rect>
                    <rect id="Rectangle" fill="#155775" opacity="0.4" x="620" y="394" width="122" height="36"></rect>
                    <rect id="Rectangle" fill="#155775" opacity="0.4" x="27" y="89" width="18" height="36"></rect>
                    <rect id="Rectangle" fill="#155775" opacity="0.4" x="835" y="250" width="40" height="54"></rect>
                    <rect id="Rectangle" fill="#155775" opacity="0.4" x="835" y="327" width="40" height="54"></rect>
                    <rect id="Rectangle" fill="#155775" opacity="0.4" x="835" y="403" width="40" height="54"></rect>
                    <path d="M241.578539,42.6651736 L235.267409,42.6651736 C236.893426,42.737842 238.428675,41.9287473 239.263838,40.5590078 C240.099,39.1892683 240.099,37.4804197 239.263838,36.1106802 C238.428675,34.7409407 236.893426,33.9318459 235.267409,34.0045143 L184.145418,34.0045143 C182.519401,33.9318459 180.984152,34.7409407 180.148989,36.1106802 C179.313827,37.4804197 179.313827,39.1892683 180.148989,40.5590078 C180.984152,41.9287473 182.519401,42.737842 184.145418,42.6651736 L190.456548,42.6651736 C188.014643,42.6651736 186.035088,44.6059415 186.035088,47 C186.035088,49.3940585 188.014643,51.3348264 190.456548,51.3348264 L181.6228,51.3348264 C179.996783,51.262158 178.461534,52.0712527 177.626372,53.4409922 C176.791209,54.8107317 176.791209,56.5195803 177.626372,57.8893198 C178.461534,59.2590593 179.996783,60.0681541 181.6228,59.9954857 L232.744791,59.9954857 C234.370809,60.0681541 235.906058,59.2590593 236.74122,57.8893198 C237.576382,56.5195803 237.576382,54.8107317 236.74122,53.4409922 C235.906058,52.0712527 234.370809,51.262158 232.744791,51.3348264 L241.578539,51.3348264 C244.020445,51.3348264 246,49.3940585 246,47 C246,44.6059415 244.020445,42.6651736 241.578539,42.6651736 L241.578539,42.6651736 Z" id="Path" fill="#252223" opacity="0.1"></path>
                    <path d="M467.578539,155.665174 L461.267409,155.665174 C462.893426,155.737842 464.428675,154.928747 465.263837,153.559008 C466.099,152.189268 466.099,150.48042 465.263837,149.11068 C464.428675,147.740941 462.893426,146.931846 461.267409,147.004514 L410.145418,147.004514 C408.519401,146.931846 406.984152,147.740941 406.148989,149.11068 C405.313827,150.48042 405.313827,152.189268 406.148989,153.559008 C406.984152,154.928747 408.519401,155.737842 410.145418,155.665174 L416.456548,155.665174 C414.014643,155.665174 412.035088,157.605942 412.035088,160 C412.035088,162.394058 414.014643,164.334826 416.456548,164.334826 L407.6228,164.334826 C405.996783,164.262158 404.461534,165.071253 403.626372,166.440992 C402.791209,167.810732 402.791209,169.51958 403.626372,170.88932 C404.461534,172.259059 405.996783,173.068154 407.6228,172.995486 L458.744791,172.995486 C460.370808,173.068154 461.906057,172.259059 462.74122,170.88932 C463.576382,169.51958 463.576382,167.810732 462.74122,166.440992 C461.906057,165.071253 460.370808,164.262158 458.744791,164.334826 L467.578539,164.334826 C469.158175,164.334826 470.617819,163.508613 471.407637,162.167413 C472.197454,160.826213 472.197454,159.173787 471.407637,157.832587 C470.617819,156.491387 469.158175,155.665174 467.578539,155.665174 L467.578539,155.665174 Z" id="Path" fill="#252223" opacity="0.1"></path>
                    <path d="M852.578539,9.66517363 L846.267409,9.66517363 C847.893426,9.73784204 849.428675,8.92874727 850.263838,7.55900777 C851.099,6.18926828 851.099,4.48041967 850.263838,3.11068018 C849.428675,1.74094069 847.893426,0.931845916 846.267409,1.00451432 L795.145418,1.00451432 C793.519401,0.931845916 791.984152,1.74094069 791.148989,3.11068018 C790.313827,4.48041967 790.313827,6.18926828 791.148989,7.55900777 C791.984152,8.92874727 793.519401,9.73784204 795.145418,9.66517363 L801.456548,9.66517363 C799.014643,9.66517363 797.035088,11.6059415 797.035088,14 C797.035088,16.3940585 799.014643,18.3348264 801.456548,18.3348264 L792.6228,18.3348264 C790.996783,18.262158 789.461534,19.0712527 788.626372,20.4409922 C787.791209,21.8107317 787.791209,23.5195803 788.626372,24.8893198 C789.461534,26.2590593 790.996783,27.0681541 792.6228,26.9954857 L843.744791,26.9954857 C845.370809,27.0681541 846.906058,26.2590593 847.74122,24.8893198 C848.576382,23.5195803 848.576382,21.8107317 847.74122,20.4409922 C846.906058,19.0712527 845.370809,18.262158 843.744791,18.3348264 L852.578539,18.3348264 C855.020445,18.3348264 857,16.3940585 857,14 C857,11.6059415 855.020445,9.66517363 852.578539,9.66517363 L852.578539,9.66517363 Z" id="Path" fill="#252223" opacity="0.1"></path>
                </g>
                <g id="undraw_good_doggy_4wfq" transform="translate(874.000000, 126.000000)" fill="#203454">
                    <polygon id="Path" points="768.973822 156.617375 736.862827 156.617375 736.862827 210.798521 698.836649 210.798521 698.836649 126.987061 670.950785 126.987061 670.950785 64.3401109 648.135079 64.3401109 648.135079 0 600.813613 0 600.813613 64.3401109 577.997906 64.3401109 577.997906 126.987061 550.957068 126.987061 550.957068 51.6414048 535.746597 51.6414048 535.746597 13.5452865 526.451309 13.5452865 526.451309 51.6414048 472.369634 51.6414048 472.369634 292.07024 430.963351 292.07024 430.963351 266.672828 405.612565 266.672828 405.612565 292.07024 364.206283 292.07024 364.206283 210.798521 289.843979 210.798521 289.843979 156.617375 256.042932 156.617375 256.042932 210.798521 256.042932 314.927911 222.241885 314.927911 222.241885 253.974122 181.680628 253.974122 181.680628 314.927911 147.879581 314.927911 147.879581 126.987061 121.68377 126.987061 121.68377 64.3401109 25.3507853 64.3401109 25.3507853 126.987061 0 126.987061 0 458 147.879581 458 256.042932 458 364.206283 458 472.369634 458 550.957068 458 698.836649 458 807 458 807 210.798521 768.973822 210.798521"></polygon>
                </g>
            </g>
        </g>
    </g>
</svg>
