<svg xmlns="http://www.w3.org/2000/svg" width="274" height="373" viewBox="0 0 274 373">
  <g fill="rgba(126, 188, 137, .15)" fill-rule="evenodd">
    <g transform="translate(55)">
      <path d="M81.5596855,29.5246074 C78.7897543,25.6862615 73.0677596,29.8393518 75.6555583,33.7851715 C76.3309662,34.8138482 77.0670848,35.8194948 77.7652593,36.7714046 C86.2951294,48.4092696 90.7118415,62.5497362 94.5138565,76.5213155 C95.4472854,79.9451201 96.3503588,83.6069022 95.2727418,87 C96.7905122,77.9184734 95.8039614,68.5759393 93.5045391,59.6402699 C91.2051169,50.7046005 87.6307674,42.2141792 83.9349963,33.8005248 C83.296524,32.2934642 82.5002056,30.859971 81.5596855,29.5246074 L81.5596855,29.5246074 Z" opacity=".5"/>
      <path d="M26.7003025,55.0027473 C20.9480104,54.8172793 20.2194879,64.0826128 25.9414249,64.5664423 C27.45918,64.6954634 28.9769352,64.7357826 30.4036251,64.7761017 C48.009585,65.2841226 64.6593591,72.0335431 80.6564986,79.3635589 C84.5798957,81.1537278 88.7006009,83.1696837 91,87 C83.790663,78.1297939 74.3046932,71.5980966 64.188855,66.8404406 C54.0730168,62.0827845 43.3273103,58.8895103 32.5664262,55.9623423 C30.6491114,55.4197826 28.6824121,55.0980651 26.7003025,55.0027473 Z"/>
      <path d="M29.3891879,77.0071764 C25.6895497,77.1435437 26.5254512,82.310348 30.2560488,82.310348 C31.2312672,82.310348 32.1987459,82.310348 33.1275253,82.2345884 C44.4586349,81.7876068 56.0606385,84.8482944 67.3143498,88.2120203 C70.0774688,89.0377999 72.9876445,89.9772189 75,92 C69.1409495,87.3862408 62.1518839,84.1816099 55.0235015,81.9618539 C47.895119,79.7420978 40.5732408,78.4466087 33.2823219,77.279911 C31.9969434,77.0638062 30.6929068,76.9724515 29.3891879,77.0071764 Z" opacity=".2"/>
      <path d="M102.640246,170.238636 C103.733241,173.661786 108.812451,171.625795 107.888228,168.135524 C107.639089,167.225667 107.349767,166.323267 107.084555,165.465615 C103.701094,155.024633 103.869865,143.427685 104.416362,132.099219 C104.552987,129.324901 104.769978,126.371595 106.329103,124 C103.114413,130.600192 101.611545,137.901422 101.161489,145.098242 C100.711432,152.295062 101.274003,159.447135 101.965161,166.539545 C102.062399,167.789749 102.28846,169.028436 102.640246,170.238636 L102.640246,170.238636 Z" opacity=".5"/>
      <path d="M34.820956,28.031945 C32.5138676,27.644573 32.3376317,30.898498 34.6447201,31.3943342 C35.2455243,31.5182932 35.8543393,31.61901 36.4311114,31.7119793 C43.4965694,32.8818428 50.2496092,36.2209896 56.7543166,39.7073378 C58.3564613,40.5673037 60.0307025,41.5124914 61,43 C57.9178115,39.4707619 54.1892524,36.5213409 50.0012768,34.2996244 C45.8774268,32.1230355 41.5934589,30.2430722 37.1841194,28.6749826 C36.4194864,28.3880042 35.6281364,28.1726709 34.820956,28.031945 L34.820956,28.031945 Z" opacity=".2"/>
      <path d="M2.51764927,110.722485 C-3.10634445,113.796638 1.64827678,122.242384 7.42614175,119.438036 C8.96485412,118.702202 10.4112438,117.884608 11.8191656,117.107894 C28.9988892,107.640156 48.9559887,104.14903 68.5899586,101.459146 C73.4061283,100.805071 78.5454277,100.224579 83,102.27674 C70.8518658,98.6384473 57.9189883,98.3359375 45.4169503,99.88119 C32.9149122,101.426443 20.7513909,104.786754 8.71096658,108.269704 C6.5746571,108.865544 4.49986607,109.687238 2.51764927,110.722485 L2.51764927,110.722485 Z"/>
      <path d="M17.272469,142.094291 C13.3075493,145.836575 19.5003763,150.258581 23.6616539,146.67668 C24.7491748,145.73729 25.78383,144.744439 26.7731719,143.805049 C38.8567367,132.349076 54.8372513,124.161874 70.7422435,116.639118 C74.6467454,114.790887 90.7103345,112.90447 95,113.003755 C83.8000458,114.019518 60.9092426,117.586145 50.7363915,122.23727 C40.5635403,126.888395 31.1308075,132.700392 21.8491192,138.604037 C20.2208406,139.622892 18.6888195,140.791245 17.272469,142.094291 L17.272469,142.094291 Z" opacity=".5"/>
      <path d="M47.1201482 188.930787C45.9577208 194.299826 53.5780781 194.384196 54.9912251 189.015158 55.3635058 187.603868 55.6598108 186.192577 55.9485182 184.842648 59.458593 168.382709 68.0666337 152.405984 76.9709793 137.012183 79.1590779 133.230845 91.406352 122.393057 95 120 86.3007886 127.309563 69.3582197 143.447359 63.5840706 153.188329 57.8099215 162.9293 53.2969682 173.130473 48.9511613 183.385337 48.1734344 185.173134 47.5605067 187.029461 47.1201482 188.930787L47.1201482 188.930787zM101.258263 2.47144339C98.2951642-2.97989993 89.8362607 1.50065622 92.5179483 7.08641622 93.2214775 8.57993494 94.0160516 9.98384253 94.7609648 11.3429446 103.86546 27.9807431 107.018926 47.2247317 109.361264 66.1476139 109.932364 70.7849895 110.428973 75.7360041 108.334939 80 112.158827 68.3580216 112.663713 55.9170107 111.339423 43.8717822 110.015132 31.8265538 106.90305 20.0874967 103.608879 8.46045344 103.055495 6.39655143 102.267794 4.38960948 101.258263 2.47144339zM57.4670246 10.7869193C57.6034854 10.8706389 57.7619935 10.9154435 57.9240409 10.9161016 58.2237237 10.9161016 58.4335017 10.6290299 58.5533749 10.3706655 59.2276612 8.9783681 58.8380735 7.16981687 59.8719793 6 60.918783 7.20450524 61.7630479 8.55804966 62.3743309 10.0118259L66.3076681 8.84918587C66.6765612 10.3225208 66.406244 11.8761713 65.558461 13.1552602 66.2500833 13.4440356 66.8800135 13.852805 67.4164945 14.3609611 67.9520818 14.8883935 68.1369051 15.6574353 67.895987 16.3561088 66.9872154 16.5699605 66.0513913 16.6593632 65.1164288 16.6216501 65.262874 18.2772576 65.1645058 19.9443803 64.8242381 21.5736356 64.8011372 21.8159088 64.6801597 22.0399561 64.4870949 22.1980164 64.1949041 22.3774362 63.8203006 22.1980164 63.5281098 22.0473038 62.1653679 21.2444196 61.0487082 20.1103728 60.2915353 18.7603337L58.8305815 22.1047181C58.7255779 22.4504882 58.4942197 22.7485319 58.1787713 22.9444026 57.7214522 23.0957965 57.2152202 22.930211 56.9500717 22.5425023 56.7028927 22.157726 56.55401 21.7224967 56.5155316 21.2722104L55.9686105 18.0857154C55.9616367 17.9202743 55.8985059 17.7615297 55.7888008 17.6335776 55.620159 17.5153568 55.4126944 17.4593036 55.2044192 17.4756882 53.8158888 17.437412 52.4298557 17.4230584 51.04632 17.4326274 50.8065737 16.7149484 51.5407967 16.0690372 52.2525434 15.7747888 52.9642901 15.4805404 53.803402 15.2508831 54.1630214 14.5906184 54.9122285 13.2485585 53.0092425 11.3754162 53.8108941 10.2127761 54.7399109 8.87071624 56.2533091 10.2127761 57.4670246 10.7869193z"/>
      <path d="M136.442684,29.5246074 C139.211615,25.6862615 144.931542,29.8393518 142.344679,33.7851715 C141.669515,34.8138482 140.926076,35.8194948 140.228154,36.7714046 C131.708951,48.4092696 127.331765,62.5497362 123.485607,76.5213155 C122.552515,79.9451201 121.649768,83.6069022 122.726996,87 C121.209773,77.9184734 122.195968,68.5759393 124.494559,59.6402699 C126.793151,50.7046005 130.366209,42.2141792 134.060645,33.8005248 C134.701288,32.2931298 135.499869,30.8596239 136.442684,29.5246074 L136.442684,29.5246074 Z" opacity=".5"/>
      <path d="M192.299698,55.0027473 C198.05199,54.8172793 198.780512,64.0826128 193.058575,64.5664423 C191.54082,64.6954634 190.023065,64.7357826 188.596375,64.7761017 C170.990415,65.2841226 154.340641,72.0335431 138.343501,79.3635589 C134.412516,81.1537278 130.29181,83.1696837 128,87 C135.209337,78.1297939 144.695307,71.5980966 154.811145,66.8404406 C164.926983,62.0827845 175.665101,58.9217656 186.425985,55.9865338 C188.345155,55.4363908 190.314322,55.1065755 192.299698,55.0027473 Z"/>
      <path d="M188.604339,77.0070692 C192.31182,77.1434374 191.475895,82.3102787 187.745194,82.3102787 C186.769949,82.3102787 185.794703,82.3102787 184.865898,82.2345185 C173.542214,81.7875337 161.939888,84.8482432 150.685864,88.2119932 C147.922668,89.0377787 145.004671,89.9772044 143,92 C148.859213,87.3862078 155.840733,84.181554 162.977053,81.9617821 C170.113374,79.7420101 177.427716,78.4465118 184.718837,77.2798057 C186.001684,77.0640008 187.303159,76.9726459 188.604339,77.0070692 Z" opacity=".5"/>
      <path d="M184.177474 28.031945C186.48513 27.644573 186.661409 30.898498 184.361766 31.3943342 183.760814 31.5182932 183.151849 31.61901 182.574935 31.7119793 175.507738 32.8818428 168.745024 36.2209896 162.238716 39.7073378 160.636177 40.5673037 158.969536 41.5124914 158 43 161.082947 39.4707619 164.812424 36.5213409 169.00143 34.2996244 173.126295 32.1230355 177.411317 30.2430722 181.821742 28.6749826 182.583772 28.3878892 183.37267 28.1725459 184.177474 28.031945L184.177474 28.031945zM127.493017 180.730804C126.686046 183.060133 121.769727 181.899555 122.415304 179.537533 122.589113 178.916379 122.812582 178.303397 123.011221 177.723108 125.494211 170.596177 124.600335 162.872611 123.33401 155.337025 123.023636 153.481735 122.626358 151.520194 121 150 124.345578 154.341713 126.449733 159.051463 127.207473 163.894246 127.953103 168.658749 128.17301 173.452572 127.865466 178.238013 127.864626 179.074935 127.739887 179.909812 127.493017 180.730804z" opacity=".2"/>
      <path d="M183.608158,163.995463 C185.28018,166.788458 181.17072,166.60519 179.372367,163.804864 C178.896769,163.071795 178.465759,162.338725 178.04218,161.605656 C172.9518,153.065395 165.208477,144.613102 157.405705,136.446707 C155.488452,134.445427 153.415144,132.334187 151,131 C157.101597,135.095646 162.72858,139.840191 167.779676,145.148243 C172.788313,150.27973 177.209884,155.697115 181.542281,161.070515 C182.297151,161.998301 182.98736,162.975526 183.608158,163.995463 L183.608158,163.995463 Z" opacity=".5"/>
      <path d="M31.3918423 163.995463C29.7198196 166.788458 33.8292798 166.60519 35.627633 163.804864 36.1032306 163.071795 36.5416721 162.338725 36.95782 161.605656 42.0482001 153.065395 49.7989541 144.613102 57.5942954 136.446707 59.511548 134.445427 61.5848561 132.334187 64 131 57.8984032 135.095646 52.27142 139.840191 47.2203236 145.148243 42.2116868 150.27973 37.7901157 155.697115 33.4577192 161.070515 32.7028494 161.998301 32.0126398 162.975526 31.3918423 163.995463zM85.5229711 180.730804C86.3294977 183.060133 91.2431058 181.899555 90.5978846 179.537533 90.4241711 178.916379 90.2008253 178.303397 90.0022957 177.723108 87.5206754 170.596177 88.4140587 162.872611 89.6796851 155.337025 89.9898876 153.481735 90.3869468 151.520194 92 150 88.6612515 154.343015 86.5585334 159.052145 85.7959493 163.894246 85.0445283 168.658476 84.8247287 173.452597 85.13832 178.238013 85.1432451 179.075202 85.2720715 179.910082 85.5229711 180.730804zM166.179044 48.031945C168.486132 47.644573 168.662368 50.898498 166.35528 51.3943342 165.754476 51.5182932 165.145661 51.61901 164.568889 51.7119793 157.503431 52.8818428 150.750391 56.2209896 144.245683 59.7073378 142.643539 60.5673037 140.969298 61.5124914 140 63 143.085047 59.4818812 146.813426 56.5431081 150.998723 54.3306141 155.124213 52.1572053 159.407936 50.2773495 163.815881 48.7059724 164.579394 48.4084261 165.370771 48.1827078 166.179044 48.031945L166.179044 48.031945zM145.712308 4.28268115C147.614712 3.07044514 148.972477 6.06954852 147.116098 7.37624448 146.625155 7.72259763 146.126541 8.03746412 145.643269 8.3365873 139.805648 12.0362686 135.034295 17.6645073 130.546767 23.3399759 129.449816 24.7332601 128.306839 26.2367476 128 28 129.442853 23.5661402 131.665851 19.4413897 134.558693 15.8304099 137.418458 12.2671632 140.525644 8.92084732 143.855929 5.81765532 144.424715 5.24539336 145.04644 4.73131075 145.712308 4.28268115z" opacity=".2"/>
      <path d="M216.482351,110.722485 C222.106344,113.796638 217.351723,122.242384 211.573858,119.438036 C210.035146,118.702202 208.588756,117.884608 207.180834,117.107894 C190.001111,107.640156 170.036318,104.14903 150.410041,101.459146 C145.586178,100.805071 140.454572,100.224579 136,102.27674 C148.148134,98.6384473 161.073318,98.3359375 173.58305,99.88119 C186.092781,101.426443 198.202448,104.786754 210.289033,108.269704 C212.425343,108.865544 214.500134,109.687238 216.482351,110.722485 Z"/>
      <path d="M201.732038,142.094291 C205.696802,145.836575 199.466458,150.258581 195.343103,146.67668 C194.255625,145.73729 193.22101,144.744439 192.231707,143.805049 C180.148615,132.349076 164.168727,124.161874 148.264358,116.639118 C144.360009,114.790887 128.289497,112.90447 124,113.003755 C135.207067,114.019518 158.096974,117.586145 168.269426,122.23727 C178.441879,126.888395 187.859138,132.723304 197.132911,138.619312 C198.769402,139.630584 200.309107,140.793944 201.732038,142.094291 Z" opacity=".5"/>
      <path d="M155.977561 196.359137C156.464115 201.762081 148.884511 200.893076 148.15468 195.459905 147.957017 194.039271 147.842981 192.618637 147.721343 191.266012 146.276884 174.739803 139.716004 158.017124 132.782605 141.891413 131.087267 137.931773 120.284242 125.811042 117 123 124.731652 131.221543 139.541148 149.107933 144.072185 159.339523 148.603222 169.571112 151.803837 180.150304 154.844802 190.684156 155.395965 192.53746 155.775137 194.43706 155.977561 196.359137zM157.502549 10.7869193C157.364068 10.8715837 157.203231 10.9164111 157.039053 10.9161016 156.747499 10.9161016 156.538178 10.6290299 156.41109 10.3706655 155.745749 8.9783681 156.127012 7.16981687 155.102835 6 154.055581 7.20264568 153.212887 8.55662202 152.605935 10.0118259L148.681169 8.84918587C148.316554 10.3226362 148.586055 11.8749804 149.428743 13.1552602 148.741945 13.4459454 148.116186 13.8545422 147.582234 14.3609611 147.047814 14.8883935 146.863393 15.6574353 147.103786 16.3561088 148.010578 16.5699605 148.944363 16.6593632 149.877288 16.6216501 149.727399 18.2772049 149.825583 19.9448397 150.168842 21.5736356 150.188675 21.8168004 150.309989 22.041962 150.505251 22.1980164 150.796805 22.3774362 151.170592 22.1980164 151.462146 22.0473038 152.82012 21.2422991 153.933835 20.1087726 154.691669 18.7603337L156.186818 22.1047181C156.285833 22.4532073 156.518076 22.7530443 156.837208 22.9444026 157.29353 23.0957965 157.798659 22.930211 158.06323 22.5425023 158.3027 22.1545692 158.450703 21.7209675 158.496823 21.2722104L159.042553 18.0857154C159.049511 17.9202743 159.112504 17.7615297 159.221971 17.6335776 159.387337 17.5152527 159.592082 17.4590935 159.797603 17.4756882 161.188092 17.4398042 162.571105 17.4254506 163.954118 17.4326274 164.193342 16.7149484 163.453243 16.0690372 162.750523 15.7747888 162.047803 15.4805404 161.195568 15.2508831 160.844208 14.5906184 160.096633 13.2485585 161.987997 11.3754162 161.195568 10.2127761 160.186342 8.87071624 158.676241 10.2127761 157.502549 10.7869193z"/>
      <path d="M170.511586,176.798916 C170.369346,176.875646 170.210612,176.919894 170.047691,176.928228 C169.748403,176.928228 169.538902,176.640867 169.419188,176.382243 C168.745792,174.988546 169.134865,173.178177 168.102324,172 C167.060942,173.211098 166.218219,174.567739 165.603277,176.023043 L161.690097,174.837682 C161.323435,176.312557 161.593281,177.867112 162.438315,179.148085 C161.747606,179.437151 161.118508,179.846331 160.582735,180.354998 C160.047855,180.882961 159.863276,181.652776 160.103876,182.352152 C161.012075,182.562691 161.946146,182.652134 162.879764,182.61796 C162.733317,184.272842 162.83156,185.939296 163.171569,187.567739 C163.194296,187.812385 163.314999,188.03902 163.508267,188.199932 C163.832199,188.321768 164.19958,188.263897 164.465986,188.049068 C165.825128,187.243254 166.939801,186.108588 167.698287,184.758793 L169.194722,188.10654 C169.301382,188.451798 169.532014,188.749598 169.845672,188.947068 C170.304091,189.094526 170.808395,188.926235 171.072749,188.53758 C171.319602,188.152417 171.468288,187.71675 171.506715,187.266011 L172.052914,184.083497 C172.044171,183.899249 172.124724,183.721487 172.271088,183.602035 C172.417453,183.482583 172.613152,183.434889 172.801132,183.472856 C174.185335,183.429752 175.569538,183.422568 176.953741,183.429752 C177.193171,182.711352 176.459917,182.064791 175.74911,181.770247 C175.038304,181.475703 174.2003,181.245815 173.841155,180.584886 C173.092937,179.234293 174.99341,177.359268 174.192817,176.202643 C173.227616,174.873602 171.716216,176.217011 170.511586,176.798916 Z" opacity=".2"/>
      <path d="M205.502036 66.7885311C205.364896 66.8711678 205.207752 66.9181715 205.046003 66.924936 204.750008 66.8642269 204.510452 66.656089 204.418024 66.3793163 203.745188 64.9793709 204.133938 63.17739 203.102257 62 202.054915 63.2056563 201.212231 64.5624583 200.60529 66.0203559L196.680417 64.8501452C196.317514 66.3241476 196.586911 67.8763693 197.428012 69.1576694 196.739696 69.4458501 196.113449 69.854892 195.581452 70.3637762 195.048318 70.8891312 194.863879 71.6557184 195.102992 72.3524165 196.009808 72.5663402 196.943618 72.655773 197.876569 72.6180472 197.726469 74.2741564 197.824657 75.9423811 198.168131 77.5717001 198.190839 77.8161818 198.311441 78.0426655 198.504548 78.2034703 198.829715 78.3216742 199.196061 78.2612077 199.46147 78.0455277 200.817403 77.2409258 201.930746 76.1099022 202.691079 74.7646301L204.186269 78.1101406C204.290809 78.4542577 204.521941 78.7502007 204.836677 78.9429286 205.293002 79.0971111 205.799905 78.9308927 206.062732 78.540893 206.305424 78.1542365 206.453674 77.7197743 206.496337 77.2701734L207.042081 74.0826054C207.050636 73.919597 207.113538 73.7635486 207.221504 73.6374946 207.387129 73.5135991 207.595501 73.4545951 207.804628 73.4723728 209.187679 73.4723728 210.570729 73.4221184 211.95378 73.4723728 212.19301 72.7544521 211.460367 72.1083235 210.750152 71.8067968 210.039937 71.5052701 209.202631 71.2898939 208.843785 70.6294069 208.09619 69.2797159 209.995081 67.4059429 209.195155 66.2500906 208.223281 64.8716828 206.71314 66.1926569 205.502036 66.7885311zM69.8837073 193.040408C69.6855749 193.157951 69.4605642 193.223099 69.2300418 193.229666 68.8043991 193.229666 68.5155702 192.805728 68.3407527 192.427211 67.3906574 190.375651 67.9379123 187.726036 66.478566 186 64.9970508 187.771655 63.8043743 189.764264 62.9442118 191.904858L57.3880549 190.186393C56.8590418 192.356135 57.2405406 194.646898 58.4445608 196.530331 57.4689205 196.955874 56.5800787 197.556327 55.822298 198.301788 55.0679846 199.077426 54.8074923 200.205593 55.1458302 201.231506 56.4284077 201.543815 57.7484712 201.676312 59.0678233 201.625164 58.8606859 204.057676 59.0014385 206.507161 59.4858652 208.900252 59.4566587 209.347507 59.7234452 209.761527 60.1438552 209.921373 60.5642652 210.081219 61.0401878 209.949587 61.3176488 209.596722 63.2370524 208.413313 64.8098963 206.747552 65.8781059 204.766851L67.9455131 209.687566C68.0925548 210.19395 68.4194203 210.629819 68.8652052 210.91396 69.5104293 211.144609 70.2300055 210.899424 70.5981789 210.323474 70.9455098 209.755847 71.1562285 209.115858 71.2138406 208.453602L71.9739168 203.775138C71.9878297 203.535194 72.0753843 203.305293 72.2247419 203.116519 72.4582306 202.936736 72.7519455 202.852766 73.0456242 202.881839 75.0066208 202.821276 76.9752181 202.806135 78.9362146 202.821276 79.2706481 201.784141 78.2293437 200.815138 77.2260432 200.376059 76.2227426 199.93698 75.029423 199.619026 74.5277728 198.642453 73.5016699 196.659026 76.1543358 193.910996 75.029423 192.207672 73.7372935 190.216674 71.5938787 192.192531 69.8837073 193.040408zM14.8993101 70.0416207C14.7011864 70.1591837 14.4761856 70.2243431 14.2456734 70.2309116 13.8276499 70.2309116 13.5312333 69.8144716 13.3564235 69.4283182 12.4063702 67.3839767 12.9536009 64.7263328 11.494319 63 10.0144086 64.7730457 8.82193561 66.7657456 7.96012055 68.9058754L2.39660823 67.1871142C1.8689532 69.3563411 2.24744654 71.6460216 3.44546711 73.5321445 2.46902119 73.9595755 1.58009886 74.5627796.823319914 75.3114787.0674791736 76.0864043-.193215629 77.2156932.14688194 78.2417015 1.42974573 78.5516149 2.74975992 78.6815872 4.0687021 78.6278549 3.86534184 81.0608363 4.00605785 83.5102149 4.48672557 85.9041963 4.5175477 86.2630418 4.68969582 86.5951452 4.96555245 86.8279358 5.42275164 87.0079649 5.94223449 86.9236506 6.31842839 86.6083584 8.23593055 85.422532 9.80819314 83.757026 10.8786844 81.7776551L12.9460004 86.6916463C13.0951296 87.1990679 13.4212684 87.6367477 13.8656521 87.9258229 14.5125642 88.1351218 15.2203055 87.8908246 15.5985494 87.3276637 15.9480792 86.7637239 16.1590129 86.1255371 16.2141839 85.4650415L16.9742266 80.7781993C16.9872644 80.5367048 17.0778557 80.3057758 17.2326411 80.119467 17.4668178 79.9410312 17.759963 79.8572064 18.0534872 79.8847464 20.0143972 79.8342688 21.9753073 79.8140778 23.9362174 79.8241733 24.2706362 78.7868593 23.2293777 77.81769 22.2261214 77.3785351 21.2228651 76.9393803 20.0295981 76.6213716 19.5355704 75.6446307 18.5095128 73.6684339 21.1544612 70.9123587 20.0295981 69.2087408 18.7527264 67.2174008 16.6170065 69.163311 14.8993101 70.0416207z"/>
      <path d="M184.036708 146.65831C183.930731 146.723822 183.807845 146.759721 183.681813 146.761986 183.45036 146.761986 183.296058 146.539822 183.203476 146.347279 182.686564 145.280889 182.987453 143.903469 182.200512 143 181.399912 143.921203 180.756701 144.958531 180.29488 146.073276L177.293703 145.177213C177.011156 146.306066 177.214163 147.496576 177.856906 148.480059 177.331212 148.695794 176.854293 149.007687 176.452756 149.398339 176.036354 149.797465 175.892714 150.38918 176.082431 150.923869 176.774298 151.082644 177.485525 151.149916 178.196371 151.123817 178.087935 152.386931 178.165855 153.658415 178.427824 154.900615 178.438165 155.088352 178.530627 155.263167 178.682422 155.381971 178.898446 155.51527 179.19162 155.381971 179.453933 155.270889 180.486955 154.652764 181.335013 153.787705 181.915053 152.760429L183.033744 155.315322C183.112292 155.578127 183.287805 155.804507 183.527511 155.952194 183.876108 156.078498 184.268936 155.947617 184.461039 155.641163 184.648589 155.346898 184.762171 155.014754 184.792789 154.671045L185.209405 152.242046C185.21803 152.11523 185.266443 151.993891 185.348277 151.893988 185.476747 151.802163 185.636405 151.759887 185.795753 151.7755 186.852723 151.7755 187.909693 151.738473 188.966663 151.7755 189.14411 151.2349 188.580907 150.731327 188.04085 150.501756 187.500792 150.272186 186.860438 150.109266 186.590409 149.605693 186.034921 148.57633 187.462216 147.147072 186.860438 146.258413 186.081212 145.192024 184.923946 146.191764 184.036708 146.65831zM108.058239 190.660508C107.94935 190.7205 107.827633 190.755975 107.702307 190.764247 107.477915 190.764247 107.323161 190.541949 107.222572 190.341881 106.711887 189.27485 107.005918 187.896602 106.216677 187 105.416542 187.920928 104.771687 188.955999 104.305475 190.067713L101.303264 189.178521C101.015766 190.305498 101.219699 191.495995 101.868113 192.475943 101.340153 192.69781 100.859967 193.011915 100.452122 193.402185 100.037508 193.800097 99.8936667 194.388398 100.080715 194.921221 100.776883 195.082525 101.49274 195.152325 102.20857 195.1287 102.093574 196.392173 102.169147 197.664921 102.432962 198.907767 102.451762 199.093364 102.54294 199.26535 102.688305 199.389413 102.937462 199.482278 103.219734 199.436751 103.423382 199.270854 104.464785 198.656318 105.318784 197.78993 105.899433 196.758885L107.013655 199.315313C107.095267 199.580953 107.273738 199.809712 107.516603 199.959978 107.866275 200.071638 108.250627 199.943877 108.452859 199.64876 108.637968 199.353003 108.75165 199.021339 108.785579 198.678059L109.203412 196.24019C109.210052 196.115122 109.25893 195.995502 109.34269 195.899333 109.468465 195.807256 109.626299 195.764828 109.783736 195.780774 110.843795 195.780774 111.903854 195.736314 112.963913 195.743724 113.149617 195.210209 112.584768 194.706333 112.043132 194.476625 111.501496 194.246917 110.859271 194.076489 110.580715 193.572613 110.031341 192.542632 111.462808 191.112514 110.851533 190.230732 110.139669 189.193341 108.986758 190.223322 108.058239 190.660508z" opacity=".2"/>
      <path d="M35.0598831 34.6583097C34.9517932 34.72006 34.8295925 34.7556477 34.7038782 34.7619865 34.4717012 34.7619865 34.3169164 34.5398219 34.2240456 34.3472793 33.7055168 33.2808894 34.007347 31.9034692 33.217945 31 32.4148417 31.9212028 31.769619 32.9585311 31.3063538 34.0732764L28.2957912 33.1772126C28.0110487 34.3069336 28.2177257 35.4988637 28.8684946 36.480059 28.3377207 36.6937626 27.8563838 37.0058493 27.4522145 37.3983392 27.0375152 37.7960128 26.8936451 38.3839607 27.0807312 38.9164637 27.7737664 39.0812479 28.4877387 39.1510621 29.2012817 39.1238172 29.0925066 40.3869312 29.1706706 41.6584148 29.4334588 42.9006147 29.4474583 43.087407 29.5395213 43.2609233 29.6888536 43.3819712 29.9055522 43.51527 30.1996431 43.3819712 30.424081 43.2708889 31.460333 42.6527642 32.3110431 41.7877045 32.8928971 40.7604295L34.0150863 43.3153219C34.09388 43.5781267 34.2699417 43.8045071 34.5103973 43.9521936 34.8600841 44.0784983 35.2541415 43.9476167 35.4468448 43.6411632 35.634981 43.3468983 35.7489188 43.0147544 35.779632 42.6710446L36.1975507 40.2420455C36.2062026 40.1152303 36.2547674 39.9938908 36.3368569 39.8939877 36.4657292 39.8021628 36.6258865 39.7598868 36.7857326 39.7754999 37.8460079 39.7754999 38.9062831 39.7384725 39.9665584 39.7754999 40.1445608 39.2348995 39.5795966 38.7313265 39.0378501 38.5017565 38.4961037 38.2721864 37.8537471 38.1092658 37.5828739 37.6056928 37.0256489 36.5763303 38.4574075 35.1470717 37.8537471 34.2584135 37.1417374 33.1920236 35.9808521 34.2436025 35.0598831 34.6583097zM74.0879761 123.668759C73.9833549 123.732162 73.8631682 123.768022 73.7395073 123.772732 73.5071948 123.772732 73.3523198 123.549933 73.251651 123.35684 72.7405635 122.287405 73.034826 120.90605 72.2527072 120 71.4494489 120.9254 70.8015199 121.965236 70.3322571 123.082055L67.2889631 122.183432C67.0053675 123.31551 67.2091276 124.50942 67.8542569 125.495712 67.3253396 125.713839 66.8444454 126.026347 66.4371506 126.416615 66.0396835 126.809563 65.8998233 127.380341 66.0731943 127.901943 66.7665614 128.067596 67.4810096 128.137615 68.1949819 128.109889 68.087454 129.376309 68.1630259 130.650907 68.4195507 131.897474 68.4328068 132.086685 68.5283432 132.261849 68.6828382 132.380206 68.8996632 132.513885 69.1939258 132.380206 69.4107508 132.268806 70.4518185 131.651526 71.3061632 130.783517 71.8887509 129.751176L73.0115948 132.313366C73.0904345 132.576922 73.2665989 132.803949 73.5071948 132.952057 73.8570856 133.078723 74.2513728 132.947467 74.4441886 132.640138 74.630414 132.34414 74.74426 132.011511 74.7771699 131.667249L75.1953324 129.231311C75.2039894 129.104134 75.2525825 128.982448 75.3347199 128.882259 75.4605936 128.789975 75.6185519 128.747451 75.7761137 128.763433 76.8370075 128.763433 77.8979013 128.763433 78.9665389 128.763433 79.1446452 128.221288 78.5793514 127.716277 78.0372888 127.486051 77.4952263 127.255826 76.852495 127.092439 76.5814637 126.587428 76.0239137 125.555125 77.4565076 124.121784 76.852495 123.230588 76.14007 122.183432 74.9785074 123.238014 74.0879761 123.668759zM46.0567936 87.6600036C45.9516105 87.7209726 45.8314418 87.7542034 45.7084972 87.7563195 45.4762996 87.7563195 45.3215012 87.541461 45.2208822 87.3414203 44.7100475 86.2745367 45.0041645 84.8964786 44.2146926 84 43.4143241 84.9208008 42.7692807 85.9557295 42.3029324 87.0672905L39.2998435 86.1782208C39.0158829 87.3051734 39.2196413 88.4941431 39.8648577 89.4751876 39.3382125 89.6962952 38.8581973 90.0076415 38.4484523 90.393893 38.0334355 90.7948033 37.8923853 91.3865842 38.0846761 91.9201293 38.7780565 92.0829942 39.4921609 92.1503528 40.2054141 92.12017 40.0940758 93.3859824 40.1696379 94.6604982 40.4298718 95.9061252 40.4506955 96.0927654 40.5447485 96.264883 40.6930291 96.3877046 40.9097468 96.5210651 41.1961239 96.3877046 41.4205816 96.269162 42.4611343 95.6533543 43.3150564 94.7874178 43.8973559 93.7575401L45.0196443 96.3136155C45.0964631 96.5774765 45.273018 96.8045761 45.5149992 96.9507821 45.8628648 97.0784906 46.2564183 96.9508407 46.4515295 96.6470166 46.635515 96.3507863 46.7491412 96.019427 46.784346 95.6764488L47.2023017 93.2389161C47.2110419 93.1143056 47.2596892 92.9953013 47.3416203 92.898106 47.4666707 92.8040852 47.6243722 92.7590629 47.7827957 92.7721545 48.8431647 92.7721545 49.9035337 92.7351099 50.9639028 92.7721545 51.1496608 92.2313037 50.5846467 91.7349065 50.0428523 91.5052301 49.5010579 91.2755538 48.8586446 91.1051488 48.5877474 90.6013426 48.0304731 89.5715035 49.4623583 88.1415831 48.8509046 87.2525134 48.1465719 86.1930386 46.9855839 87.2154688 46.0567936 87.6600036zM168.068368 95.6583097C167.963824 95.721532 167.843725 95.7572901 167.720155 95.7619865 167.488013 95.7619865 167.333252 95.5398219 167.240395 95.3398738 166.721945 94.2808894 167.015991 92.8960637 166.234447 92 165.431465 92.9212028 164.78634 93.9585311 164.323145 95.0732764L161.297561 94.1772126C161.013669 95.3036437 161.217378 96.4920631 161.86244 97.4726536 161.335061 97.6954377 160.85504 98.0092285 160.446374 98.3983392 160.034463 98.7976036 159.893661 99.3853452 160.082685 99.9164637 160.776202 100.078005 161.48959 100.147772 162.202915 100.123817 162.095466 101.386631 162.170982 102.657598 162.427319 103.900615 162.44328 104.088545 162.538216 104.26224 162.690413 104.381971 162.907079 104.51527 163.201125 104.381971 163.417791 104.263483 164.461358 103.6518 165.316005 102.785322 165.893972 101.753024L167.015991 104.307916C167.09502 104.572552 167.270776 104.801202 167.511228 104.952194 167.860861 105.078498 168.254859 104.947617 168.447533 104.641163 168.632652 104.345584 168.74634 104.014118 168.78027 103.671045L169.198126 101.242046C169.206776 101.11523 169.255334 100.993891 169.337411 100.893988 169.463192 100.801966 169.621035 100.759564 169.778481 100.7755 170.838596 100.7755 171.906449 100.738473 172.966563 100.7755 173.144539 100.2349 172.57966 99.7313265 172.037996 99.5017565 171.496331 99.2721864 170.854072 99.1018603 170.583239 98.5982873 170.026099 97.5689249 171.457641 96.1396662 170.854072 95.2584135 170.157646 94.1920236 169.035626 95.2213861 168.068368 95.6583097z" opacity=".5"/>
      <path d="M108.058239,91.6583097 C107.950171,91.72006 107.827995,91.7556477 107.702307,91.7619865 C107.477915,91.7619865 107.323161,91.5398219 107.222572,91.3472793 C106.711887,90.2808894 107.005918,88.9034692 106.216677,88 C105.416474,88.923055 104.771652,89.9599507 104.305475,91.0732764 L101.303264,90.1772126 C101.016296,91.305937 101.220127,92.497796 101.868113,93.480059 C101.338503,93.6956213 100.857622,94.0074765 100.452122,94.3983392 C100.037508,94.7960128 99.8936667,95.3839607 100.080715,95.9164637 C100.776237,96.081256 101.492618,96.1510653 102.20857,96.1238172 C102.093358,97.3865289 102.168933,98.658542 102.432962,99.9006147 C102.446959,100.087407 102.539003,100.260923 102.688305,100.381971 C102.93707,100.467549 103.214269,100.42566 103.423382,100.270889 C104.46181,99.6532315 105.314972,98.788214 105.899433,97.7604295 L107.013655,100.315322 C107.095659,100.578672 107.274258,100.804829 107.516603,100.952194 C107.866218,101.078498 108.260195,100.947617 108.452859,100.641163 C108.638938,100.346009 108.752695,100.014326 108.785579,99.6710446 L109.203412,97.2420455 C109.208379,97.1144845 109.257356,96.9920911 109.34269,96.8939877 C109.468465,96.8019662 109.626299,96.7595638 109.783736,96.7754999 C110.843795,96.7754999 111.903854,96.7384725 112.963913,96.7754999 C113.149617,96.2348995 112.584768,95.7313265 112.043132,95.5017565 C111.501496,95.2721864 110.859271,95.1092658 110.580715,94.6056928 C110.031341,93.5763303 111.462808,92.1470717 110.851533,91.2584135 C110.139669,90.1920236 108.986758,91.2213861 108.058239,91.6583097 Z" opacity=".2"/>
      <path d="M90.0814519,95.6618315 C89.973384,95.7236413 89.8512083,95.7592632 89.7255197,95.7656081 C89.5011276,95.7656081 89.3386368,95.5432297 89.2457849,95.3505017 C88.7350996,94.2830852 89.0291305,92.8969263 88.2398895,92 C87.4328585,92.9179143 86.7802102,93.9507974 86.3054753,95.0614098 L83.2955268,94.1644834 C83.0108425,95.295292 83.2174773,96.4883695 83.8681134,97.4705094 C83.3385034,97.6862792 82.8576215,97.9984347 82.4521222,98.3896736 C82.0375076,98.7877301 81.8936667,99.376244 82.0807147,99.9092596 C82.776237,100.074211 83.4926178,100.144087 84.2085703,100.116813 C84.0933583,101.38074 84.1689328,102.653978 84.4329624,103.897246 C84.446959,104.084218 84.5390033,104.257902 84.6883051,104.379066 C84.9370703,104.464727 85.2142693,104.422797 85.4233825,104.267877 C86.4618103,103.649625 87.3149716,102.783775 87.8994326,101.755001 L89.0136552,104.312353 C89.0949367,104.574216 89.2703719,104.800054 89.5088653,104.949837 C89.8606782,105.080423 90.2595114,104.948888 90.4528594,104.638508 C90.6398243,104.344 90.7512002,104.011206 90.777841,103.667455 L91.1956744,101.236118 C91.2077933,101.109931 91.255984,100.989385 91.3349523,100.887725 C91.4637983,100.795811 91.6239228,100.753495 91.7837364,100.769123 C92.8437953,100.769123 93.9038543,100.73206 94.9639133,100.769123 C95.1496171,100.228002 94.5847681,99.7239442 94.0431322,99.4941532 C93.5014962,99.2643621 92.851533,99.1012846 92.580715,98.5972268 C92.0313414,97.5668734 93.4628079,96.1362388 92.851533,95.2467251 C92.1628815,94.1941339 91.0099707,95.2244873 90.0814519,95.6618315 Z" opacity=".3"/>
      <path d="M74.0596747,49.6583097 C73.9515876,49.72006 73.8293901,49.7556477 73.7036791,49.7619865 C73.471508,49.7619865 73.3167273,49.5398219 73.2238589,49.3398738 C72.7130825,48.2808894 73.0071659,46.8960637 72.2177843,46 C71.4164614,46.919666 70.771389,47.9542804 70.3062425,49.0658709 L67.2957577,48.1772126 C67.0104906,49.3045125 67.2172658,50.4943659 67.8684463,51.4726536 C67.3388551,51.6917282 66.8580894,52.0059664 66.4522028,52.3983392 C66.0375143,52.7960128 65.8936478,53.3839607 66.0807291,53.9164637 C66.7743994,54.0776376 67.4878239,54.1474001 68.2012248,54.1238172 C68.0926596,55.3869335 68.1708198,56.6583893 68.4333959,57.9006147 C68.447395,58.087407 68.5394557,58.2609233 68.6887841,58.3819712 C68.9054771,58.51527 69.1995604,58.3819712 69.4239924,58.2634835 C70.4627381,57.648306 71.3141332,56.7825274 71.8927448,55.753024 L73.0149049,58.3079164 C73.0939436,58.5725519 73.2697218,58.8012019 73.5102032,58.9521936 C73.8598809,59.0784983 74.2539281,58.9476167 74.4466265,58.6411632 C74.6347578,58.3468983 74.7486927,58.0147544 74.779405,57.6710446 L75.1973129,55.2420455 C75.2059647,55.1152303 75.2545282,54.9938908 75.3366156,54.8939877 C75.4654845,54.8021628 75.6256376,54.7598868 75.7854796,54.7754999 C76.8457275,54.7754999 77.9059754,54.731067 78.9662232,54.7384725 C79.1442211,54.2052776 78.5870105,53.7017046 78.037539,53.4721345 C77.4880675,53.2425645 76.8534665,53.0722383 76.5826003,52.5686654 C76.0253897,51.5393029 77.4571113,50.1100443 76.8534665,49.2287915 C76.1259972,48.1920236 74.9651419,49.2213861 74.0596747,49.6583097 Z" opacity=".2"/>
      <path d="M107.032881,111.660508 C106.925608,111.722419 106.803053,111.755676 106.677901,111.756837 C106.454109,111.756837 106.299771,111.541949 106.19945,111.341881 C105.690132,110.27485 105.983376,108.896602 105.196247,108 C104.398254,108.920928 103.755125,109.955999 103.290161,111.067713 L100.295986,110.178521 C100.009257,111.305498 100.212643,112.495995 100.859323,113.475943 C100.334241,113.697081 99.8556501,114.00847 99.4471213,114.394775 C99.0333362,114.79574 98.8927048,115.387603 99.0844248,115.921221 C99.7757471,116.084109 100.487732,116.151477 101.198868,116.12129 C101.08786,117.387277 101.163198,118.661968 101.42266,119.907767 C101.441409,120.093364 101.532343,120.26535 101.677319,120.389413 C101.936629,120.497697 102.237835,120.451421 102.449014,120.270854 C103.486249,119.654692 104.337573,118.788701 104.918437,117.758885 L106.029677,120.315313 C106.114076,120.579498 106.291369,120.807357 106.531279,120.959978 C106.880015,121.071638 107.263339,120.943877 107.46503,120.64876 C107.649643,120.353003 107.763021,120.021339 107.796858,119.678059 L108.213573,117.24019 C108.223714,117.115873 108.272058,116.997243 108.352479,116.899333 C108.477158,116.805299 108.634391,116.760271 108.792345,116.773364 C109.849566,116.773364 110.906788,116.736314 111.96401,116.773364 C112.149217,116.232439 111.585879,115.735973 111.045693,115.506265 C110.505507,115.276557 109.865,115.106128 109.594907,114.602253 C109.039287,113.572272 110.466922,112.142154 109.857283,111.260372 C109.116456,110.193341 107.958914,111.215912 107.032881,111.660508 Z" opacity=".3"/>
    </g>
    <g transform="translate(0 267)">
      <path d="M40.4360257,14.7752241 C38.9851094,12.8235228 35.9878741,14.9352636 37.3433877,16.9416126 C37.6971727,17.4646686 38.0827587,17.9760143 38.4484691,18.4600362 C42.9164963,24.3775947 45.2300122,31.5676625 47.2215439,38.6718553 C47.7104828,40.4127729 48.1835213,42.274696 47.6190552,44 C48.4140778,39.3822746 47.8973131,34.6318336 46.6928538,30.0882728 C45.4883946,25.5447121 43.6161163,21.2275487 41.6802361,16.9494194 C41.3457983,16.1831174 40.9286791,15.4542225 40.4360257,14.7752241 L40.4360257,14.7752241 Z" opacity=".5"/>
      <path d="M13.3842114,28.0013736 C10.4663821,27.9086397 10.0968417,32.5413064 12.9992735,32.7832211 C13.7691493,32.8477317 14.5390251,32.8678913 15.2627084,32.8880508 C24.1932677,33.1420613 32.6388054,36.5167715 40.7532964,40.1817794 C42.7434253,41.0768639 44.8336382,42.0848419 46,44 C42.3430899,39.5648969 37.5313661,36.2990483 32.4001439,33.9202203 C27.2689216,31.5413923 21.8182009,29.9447552 16.3597814,28.4811711 C15.3872304,28.2098913 14.3896293,28.0490326 13.3842114,28.0013736 Z"/>
      <path d="M15.194594,38.0038274 C13.3447748,38.0765566 13.7627256,40.8321856 15.6280244,40.8321856 C16.1156336,40.8321856 16.5993729,40.8321856 17.0637627,40.7917805 C22.7293175,40.5533903 28.5303193,42.185757 34.1571749,43.9797442 C35.5387344,44.4201599 36.9938222,44.9211834 38,46 C35.0704747,43.5393284 31.575942,41.830192 28.0117507,40.6463221 C24.4475595,39.4624521 20.7866204,38.7715246 17.141161,38.1492859 C16.4984717,38.03403 15.8464534,37.9853075 15.194594,38.0038274 Z" opacity=".2"/>
      <path d="M50.9372836,85.1193179 C51.5618519,86.8308932 54.4642577,85.8128974 53.9361301,84.0677618 C53.7937652,83.6128333 53.6284383,83.1616337 53.4768886,82.7328077 C51.5434823,77.5123165 51.639923,71.7138424 51.9522071,66.0496096 C52.0302782,64.6624505 52.1542733,63.1857973 53.0452017,62 C51.208236,65.3000962 50.3494546,68.9507111 50.0922794,72.549121 C49.8351042,76.147531 50.1565732,79.7235674 50.5515208,83.2697725 C50.6070853,83.8948745 50.7362628,84.5142179 50.9372836,85.1193179 L50.9372836,85.1193179 Z" opacity=".5"/>
      <path d="M17.910478,14.0170374 C16.7569338,13.8104389 16.6688159,15.5458656 17.82236,15.8103116 C18.1227622,15.8764231 18.4271696,15.9301387 18.7155557,15.9797223 C22.2482847,16.6036495 25.6248046,18.3845278 28.8771583,20.2439135 C29.6782306,20.702562 30.5153512,21.2066621 31,22 C29.4589058,20.1177397 27.5946262,18.5447152 25.5006384,17.3597997 C23.4387134,16.1989523 21.2967294,15.1963052 19.0920597,14.3599907 C18.7097432,14.2069356 18.3140682,14.0920912 17.910478,14.0170374 L17.910478,14.0170374 Z" opacity=".2"/>
      <path d="M1.2739912,56.1403495 C-1.57188515,57.7506201 0.834067769,62.1745819 3.75780667,60.7056382 C4.53643221,60.320201 5.26834021,59.8919375 5.98078258,59.4850872 C14.6741367,54.5257961 24.77291,52.6971111 34.7081718,51.2881242 C37.1452698,50.9455135 39.7458791,50.6414464 42,51.7163877 C35.8527514,49.8106152 29.3084037,49.6521577 22.9820712,50.4615757 C16.6557387,51.2709937 10.5007038,53.0311566 4.40795899,54.855559 C3.32693492,55.167666 2.27704066,55.598077 1.2739912,56.1403495 L1.2739912,56.1403495 Z"/>
      <path d="M8.64428811,71.962778 C6.63673382,73.8873815 9.77234242,76.1615559 11.8793184,74.3194354 C12.4299619,73.8363206 12.953838,73.3257115 13.4547706,72.8425967 C19.5730313,66.9509533 27.664431,62.7403921 35.7175917,58.8715462 C37.6945546,57.9210277 45.8280175,56.9508705 48,57.0019314 C42.3291371,57.5243238 30.738857,59.3585887 25.5880463,61.750596 C20.4372356,64.1426032 15.6611683,67.1316303 10.9615793,70.1677906 C10.1371345,70.691773 9.3614276,71.2926401 8.64428811,71.962778 L8.64428811,71.962778 Z" opacity=".5"/>
      <path d="M24.0600741 94.9375222C23.4788604 97.6588158 27.289039 97.701579 27.9956125 94.9802854 28.1817529 94.2649739 28.3299054 93.5496625 28.4742591 92.8654515 30.2292965 84.5227429 34.5333168 76.4249506 38.9854897 68.6226131 40.079539 66.7060449 46.203176 61.2129194 48 60 43.6503943 63.7048469 35.1791098 71.8842779 32.2920353 76.821482 29.4049608 81.7586861 27.1484841 86.9291439 24.9755806 92.1268147 24.5867172 93.0329582 24.2802533 93.9738366 24.0600741 94.9375222L24.0600741 94.9375222zM50.6291317 1.23572169C49.1475821-1.48994997 44.9181303.75032811 46.2589741 3.54320811 46.6107387 4.28996747 47.0080258 4.99192127 47.3804824 5.67147228 51.9327299 13.9903715 53.5094629 23.6123659 54.680632 33.0738069 54.9661821 35.3924948 55.2144865 37.868002 54.1674696 40 56.0794135 34.1790108 56.3318563 27.9585053 55.6697113 21.9358911 55.0075662 15.9132769 53.4515252 10.0437483 51.8044393 4.23022672 51.5277475 3.19827572 51.1338971 2.19480474 50.6291317 1.23572169zM28.4237189 5.53425141C28.4959628 5.57857351 28.5798789 5.6022936 28.6656687 5.602642 28.8243243 5.602642 28.9353833 5.45066291 28.9988455 5.31388172 29.3558206 4.57678311 29.1495683 3.61931481 29.6969302 3 30.2511204 3.63767924 30.6980842 4.35426158 31.0217046 5.12390785L33.1040596 4.50839252C33.2993559 5.28839339 33.1562468 6.11091422 32.7074205 6.78807895 33.0735735 6.94096003 33.407066 7.15736737 33.6910853 7.42639114 33.9746316 7.7056201 34.0724792 8.11275984 33.9449343 8.48264586 33.4638199 8.59586144 32.9683836 8.64319226 32.4734035 8.62322652 32.5509333 9.49972459 32.498856 10.382319 32.3187143 11.2448659 32.3064844 11.3731282 32.2424375 11.4917415 32.1402267 11.5754204 31.9855375 11.6704074 31.787218 11.5754204 31.6325287 11.4956314 30.9110771 11.0705751 30.3199043 10.4701973 29.9190481 9.75547078L29.145602 11.5260272C29.0900118 11.709082 28.9675281 11.8668698 28.800526 11.9705661 28.5584159 12.0507158 28.2904107 11.9630529 28.150038 11.7577954 28.0191785 11.5540902 27.9403582 11.3236747 27.9199873 11.0852879L27.6304408 9.3983199C27.6267488 9.31073347 27.5933267 9.22669221 27.5352475 9.15895283 27.4459665 9.09636538 27.3361323 9.06669015 27.225869 9.07536433 26.4907647 9.05510045 25.7569824 9.04750149 25.0245224 9.05256746 24.8975979 8.67261972 25.2863041 8.33066676 25.6631112 8.17488819 26.0399183 8.01910962 26.484154 7.89752634 26.6745407 7.54797442 27.0711798 6.83747215 26.0637166 5.84580856 26.4881204 5.23029322 26.9799528 4.51979095 27.7811637 5.23029322 28.4237189 5.53425141z"/>
      <path d="M68.5652155,14.7752241 C70.0156077,12.8235228 73.0117603,14.9352636 71.6567364,16.9416126 C71.3030791,17.4646686 70.9136587,17.9760143 70.5480804,18.4600362 C66.085641,24.3775947 63.7928292,31.5676625 61.7781749,38.6718553 C61.2894126,40.4127729 60.816545,42.274696 61.3808072,44 C60.5860717,39.3822746 61.1026498,34.6318336 62.306674,30.0882728 C63.5106981,25.5447121 65.3823001,21.2275487 67.3174809,16.9494194 C67.6530558,16.1829473 68.0713601,15.454046 68.5652155,14.7752241 L68.5652155,14.7752241 Z" opacity=".5"/>
      <path d="M96.6157886,28.0013736 C99.5336179,27.9086397 99.9031583,32.5413064 97.0007265,32.7832211 C96.2308507,32.8477317 95.4609749,32.8678913 94.7372916,32.8880508 C85.8067323,33.1420613 77.3611946,36.5167715 69.2467036,40.1817794 C67.2527253,41.0768639 65.1625125,42.0848419 64,44 C67.6569101,39.5648969 72.4686339,36.2990483 77.5998561,33.9202203 C82.7310784,31.5413923 88.1779498,29.9608828 93.6363692,28.4932669 C94.6098613,28.2181954 95.6087143,28.0532877 96.6157886,28.0013736 Z"/>
      <path d="M94.8021695,38.0037702 C96.6559101,38.0765 96.2379477,40.8321486 94.3725971,40.8321486 C93.8849743,40.8321486 93.3973516,40.8321486 92.9329489,40.7917432 C87.2711068,40.5533513 81.4699438,42.1857297 75.8429318,43.9797297 C74.461334,44.4201486 73.0023357,44.9211757 72,46 C74.9296066,43.5393108 78.4203665,41.8301621 81.9885267,40.6462838 C85.556687,39.4624054 89.2138578,38.7714729 92.8594185,38.1492297 C93.500842,38.0341338 94.1515795,37.9854111 94.8021695,38.0037702 Z" opacity=".5"/>
      <path d="M92.0887369 14.0170374C93.2425649 13.8104389 93.3307046 15.5458656 92.1808829 15.8103116 91.8804068 15.8764231 91.5759244 15.9301387 91.2874674 15.9797223 87.753869 16.6036495 84.3725118 18.3845278 81.1193578 20.2439135 80.3180883 20.702562 79.484768 21.2066621 79 22 80.5414735 20.1177397 82.4062118 18.5447152 84.500715 17.3597997 86.5631474 16.1989523 88.7056584 15.1963052 90.9108708 14.3599907 91.2918861 14.2068742 91.6863352 14.0920245 92.0887369 14.0170374L92.0887369 14.0170374zM64.7102955 90.3654019C64.2491689 91.5300667 61.4398438 90.9497776 61.8087451 89.7687666 61.9080647 89.4581894 62.0357613 89.1516986 62.1492694 88.8615541 63.5681204 85.2980885 63.057334 81.4363053 62.33372 77.6685126 62.1563636 76.7408673 61.9293474 75.760097 61 75 62.9117591 77.1708563 64.1141334 79.5257313 64.5471277 81.9471232 64.9732018 84.3293745 65.098863 86.7262859 64.9231232 89.1190063 64.9226434 89.5374677 64.8513639 89.9549061 64.7102955 90.3654019z" opacity=".2"/>
      <path d="M92.7981419,82.969095 C93.6594869,84.4054925 91.5424922,84.3112407 90.6160678,82.8710731 C90.371063,82.4940659 90.1490274,82.1170587 89.93082,81.7400515 C87.308503,77.3479174 83.3195185,73.0010241 79.2999085,68.8011637 C78.3122328,67.7719339 77.244165,66.6861531 76,66 C79.1432468,68.1063321 82.0419958,70.5463837 84.6440757,73.2762394 C87.2242826,75.9152899 89.5020616,78.7013733 91.7339022,81.4648362 C92.1227745,81.9419834 92.4783371,82.4445563 92.7981419,82.969095 L92.7981419,82.969095 Z" opacity=".5"/>
      <path d="M15.2018581 82.969095C14.3405131 84.4054925 16.4575078 84.3112407 17.3839322 82.8710731 17.628937 82.4940659 17.8548008 82.1170587 18.06918 81.7400515 20.691497 77.3479174 24.6843097 73.0010241 28.7000915 68.8011637 29.6877672 67.7719339 30.755835 66.6861531 32 66 28.8567532 68.1063321 25.9580042 70.5463837 23.3559243 73.2762394 20.7757174 75.9152899 18.4979384 78.7013733 16.2660978 81.4648362 15.8772255 81.9419834 15.5216629 82.4445563 15.2018581 82.969095zM42.2988406 90.3654019C42.759713 91.5300667 45.567489 90.9497776 45.1987912 89.7687666 45.0995264 89.4581894 44.9719002 89.1516986 44.8584547 88.8615541 43.440386 85.2980885 43.9508907 81.4363053 44.6741057 77.6685126 44.8513643 76.7408673 45.0782553 75.760097 46 75 44.0921437 77.1715075 42.8905905 79.5260727 42.4548282 81.9471232 42.0254448 84.3292381 41.899845 86.7262987 42.07904 89.1190063 42.0818543 89.5376012 42.1554694 89.9550409 42.2988406 90.3654019zM83.089522 24.0170374C84.2430662 23.8104389 84.3311841 25.5458656 83.17764 25.8103116 82.8772378 25.8764231 82.5728304 25.9301387 82.2844443 25.9797223 78.7517153 26.6036495 75.3751954 28.3845278 72.1228417 30.2439135 71.3217694 30.702562 70.4846488 31.2066621 70 32 71.5425237 30.12367 73.4067129 28.5563243 75.4993616 27.3763275 77.5621064 26.2171762 79.7039679 25.2145864 81.9079403 24.3765186 82.2896971 24.2178273 82.6853853 24.0974441 83.089522 24.0170374L83.089522 24.0170374zM72.8561538 2.14134058C73.8073561 1.53522257 74.4862384 3.03477426 73.5580491 3.68812224 73.3125775 3.86129881 73.0632704 4.01873206 72.8216344 4.16829365 69.902824 6.01813431 67.5171473 8.83225363 65.2733837 11.6699879 64.7249082 12.36663 64.1534197 13.1183738 64 14 64.7214267 11.7830701 65.8329256 9.72069484 67.2793467 7.91520496 68.709229 6.13358161 70.2628218 4.46042366 71.9279644 2.90882766 72.2123575 2.62269668 72.5232201 2.36565537 72.8561538 2.14134058z" opacity=".2"/>
      <path d="M108.726009,56.1403495 C111.571885,57.7506201 109.165932,62.1745819 106.242193,60.7056382 C105.463568,60.320201 104.73166,59.8919375 104.019217,59.4850872 C95.3258633,54.5257961 85.2231969,52.6971111 75.2918282,51.2881242 C72.8508371,50.9455135 70.2541209,50.6414464 68,51.7163877 C74.1472486,49.8106152 80.6877032,49.6521577 87.0179288,50.4615757 C93.3481544,51.2709937 99.4759374,53.0311566 105.592041,54.855559 C106.673065,55.167666 107.722959,55.598077 108.726009,56.1403495 Z"/>
      <path d="M101.357994,71.962778 C103.365469,73.8873815 100.210865,76.1615559 98.1230901,74.3194354 C97.5724682,73.8363206 97.0486127,73.3257115 96.5476997,72.8425967 C90.4296787,66.9509533 82.338596,62.7403921 74.2857509,58.8715462 C72.3088653,57.9210277 64.1718974,56.9508705 62,57.0019314 C67.6744645,57.5243238 79.2642904,59.3585887 84.4148994,61.750596 C89.5655083,64.1426032 94.3337409,67.1434136 99.029322,70.1756461 C99.8579252,70.695729 100.637522,71.2940283 101.357994,71.962778 Z" opacity=".5"/>
      <path d="M78.9884927 99.1559264C79.2380077 101.892483 75.3510315 101.452337 74.9767589 98.7004716 74.8753935 97.9809296 74.8169134 97.2613875 74.7545346 96.5762916 74.0137869 88.2058743 70.6492327 79.7359459 67.0936436 71.5683782 66.2242397 69.5628462 60.6842264 63.4237747 59 62 62.9649497 66.1641582 70.5595633 75.2234987 72.8831719 80.4057324 75.2067806 85.5879661 76.8481216 90.9462579 78.4075905 96.2815856 78.6902386 97.2202718 78.8846854 98.1824069 78.9884927 99.1559264zM79.560173 5.53425141C79.4868597 5.57907372 79.4017105 5.60280589 79.3147926 5.602642 79.1604405 5.602642 79.0496235 5.45066291 78.9823418 5.31388172 78.6301023 4.57678311 78.8319474 3.61931481 78.2897359 3 77.7353075 3.63669477 77.2891753 4.35350577 76.9678481 5.12390785L74.8900305 4.50839252C74.696999 5.28845448 74.8396762 6.11028373 75.2858053 6.78807895 74.9222062 6.94197108 74.5909221 7.15828706 74.3082416 7.42639114 74.0253132 7.7056201 73.9276788 8.11275984 74.0549457 8.48264586 74.5350118 8.59586144 75.0293685 8.64319226 75.5232702 8.62322652 75.4439173 9.49969671 75.495897 10.3825622 75.6776223 11.2448659 75.688122 11.3736002 75.7523472 11.4928034 75.855721 11.5754204 76.0100732 11.6704074 76.2079606 11.5754204 76.3623127 11.4956314 77.08124 11.0694525 77.670854 10.4693502 78.0720598 9.75547078L78.8636094 11.5260272C78.9160292 11.7105215 79.0389814 11.8692588 79.2079335 11.9705661 79.449516 12.0507158 79.7169373 11.9630529 79.8570041 11.7577954 79.9837824 11.552419 80.0621369 11.3228651 80.0865535 11.0852879L80.3754691 9.3983199C80.379153 9.31073347 80.4125024 9.22669221 80.470455 9.15895283 80.5580021 9.09631023 80.6663964 9.06657893 80.7752016 9.07536433 81.5113427 9.05636694 82.2435261 9.04876799 82.9757094 9.05256746 83.1023574 8.67261972 82.7105403 8.33066676 82.338512 8.17488819 81.9664837 8.01910962 81.5153005 7.89752634 81.3292863 7.54797442 80.9335115 6.83747215 81.9348218 5.84580856 81.5153005 5.23029322 80.9810045 4.51979095 80.1815394 5.23029322 79.560173 5.53425141z"/>
      <path d="M85.5649571,88.5406023 C85.4896536,88.5812244 85.405618,88.6046496 85.3193656,88.6090617 C85.1609195,88.6090617 85.0500072,88.4569298 84.9866287,88.3200111 C84.6301249,87.5821715 84.8361049,86.6237407 84.2894658,86 C83.7381458,86.6411697 83.2919983,87.3593915 82.9664406,88.1298463 L80.8947575,87.5023023 C80.7006421,88.2831182 80.8435019,89.1061182 81.2908728,89.7842804 C80.9252032,89.9373152 80.5921511,90.1539401 80.3085068,90.4232343 C80.025335,90.702744 79.9276165,91.110293 80.054993,91.4805508 C80.5358043,91.5920128 81.0303127,91.639365 81.5245808,91.6212728 C81.4470501,92.4973867 81.499061,93.3796271 81.6790658,94.2417444 C81.6910979,94.3712624 81.7549995,94.4912457 81.8573177,94.5764345 C82.0288114,94.6409362 82.2233069,94.6102984 82.3643453,94.4965653 C83.0838912,94.0699579 83.6740125,93.4692524 84.0755635,92.7546553 L84.8677941,94.5269917 C84.9242611,94.7097755 85.0463602,94.8674341 85.2124145,94.9719774 C85.4551071,95.0500431 85.7220914,94.9609477 85.8620436,94.7551895 C85.9927303,94.5512796 86.0714465,94.3206324 86.0917905,94.0820059 L86.3809547,92.3971454 C86.376326,92.2996022 86.4189716,92.2054929 86.4964586,92.1422537 C86.5739456,92.0790145 86.677551,92.0537645 86.77707,92.0738652 C87.5098833,92.0510454 88.2426967,92.0472421 88.97551,92.0510454 C89.1022669,91.6707157 88.7140739,91.328419 88.3377644,91.1724838 C87.9614548,91.0165486 87.5178056,90.8948431 87.3276703,90.5449398 C86.931555,89.82992 87.9376879,88.8372595 87.5138445,88.2249287 C87.0028557,87.5213188 86.2027028,88.2325353 85.5649571,88.5406023 Z" opacity=".2"/>
      <path d="M103.559901 33.5351047C103.487298 33.5788536 103.404104 33.6037379 103.318472 33.6073191 103.161769 33.575179 103.034945 33.4649883 102.986012 33.3184616 102.629806 32.577314 102.835614 31.6233241 102.28943 31 101.734955 31.6382886 101.288828 32.3565956 100.967506 33.1284237L98.8896324 32.5089004C98.6975074 33.2892546 98.8401292 34.1110191 99.285418 34.7893544 98.9210154 34.9419206 98.5894732 35.1584722 98.3078277 35.4278815 98.02558 35.7060107 97.9279361 36.1118509 98.054525 36.4806911 98.5346041 36.5939448 99.0289742 36.6412916 99.5228893 36.6213191 99.4434248 37.4980828 99.4954068 38.3812606 99.6772456 39.2438412 99.6892676 39.3732727 99.7531161 39.4931759 99.8553491 39.5783078 100.027496 39.6408863 100.221444 39.6088747 100.361955 39.4946911 101.079802 39.0687254 101.669219 38.4699482 102.071748 37.7577453L102.863319 39.528898C102.918664 39.7110776 103.041028 39.8677533 103.207652 39.9697857 103.449237 40.0514118 103.717597 39.9634138 103.856741 39.7569434 103.985224 39.5522429 104.06371 39.3222335 104.086296 39.0842094L104.37522 37.3966735C104.379748 37.3103749 104.41305 37.227761 104.470208 37.1610266 104.557892 37.0954348 104.668206 37.0641974 104.778921 37.0736091 105.511124 37.0736091 106.243327 37.0470039 106.97553 37.0736091 107.102182 36.6935335 106.714312 36.3514654 106.338316 36.1918336 105.96232 36.0322018 105.51904 35.9181791 105.329063 35.5685095 104.933277 34.8539673 105.938572 33.8619698 105.515082 33.2500479 105.000561 32.5203027 104.201074 33.2196419 103.559901 33.5351047zM35.4418537 96.6610122C35.3427874 96.7221344 35.2302821 96.7560115 35.1150209 96.7594265 34.9021996 96.7594265 34.7577851 96.5389784 34.6703763 96.3421498 34.1953287 95.2753388 34.4689561 93.8975385 33.739283 93 32.9985254 93.9212608 32.4021871 94.9574174 31.9721059 96.0705263L29.1940275 95.1769244C28.9295209 96.3051902 29.1202703 97.496387 29.7222804 98.475772 29.2344602 98.6970547 28.7900393 99.0092902 28.411149 99.3969299 28.0339923 99.8002614 27.9037462 100.386909 28.0729151 100.920383 28.7142038 101.082784 29.3742356 101.151682 30.0339116 101.125085 29.930343 102.389992 30.0007192 103.663724 30.2429326 104.908131 30.2283293 105.140703 30.3617226 105.355994 30.5719276 105.439114 30.7821326 105.522234 31.0200939 105.453785 31.1588244 105.270296 32.1185262 104.654923 32.9049482 103.788727 33.4390529 102.758763L34.4727565 105.317535C34.5462774 105.580854 34.7097101 105.807506 34.9326026 105.955259 35.2552147 106.075197 35.6150027 105.9477 35.7990895 105.648207 35.9727549 105.353041 36.0781143 105.020246 36.1069203 104.675873L36.4869584 102.243072C36.4939149 102.118301 36.5376921 101.998752 36.612371 101.90059 36.7291153 101.807103 36.8759727 101.763439 37.0228121 101.778556 38.0033104 101.747064 38.987609 101.73919 39.9681073 101.747064 40.1353241 101.207753 39.6146719 100.703872 39.1130216 100.475551 38.6113713 100.247229 38.0147115 100.081893 37.7638864 99.5740756 37.250835 98.5426937 38.5771679 97.113718 38.0147115 96.2279892 37.3686468 95.1926707 36.2969394 96.2201161 35.4418537 96.6610122zM7.44965505 34.6616428C7.35059321 34.7227755 7.23809282 34.7566584 7.1228367 34.760074 6.91382497 34.760074 6.76561665 34.5435252 6.67821174 34.3427255 6.20318508 33.2796679 6.47680044 31.8976931 5.74715948 31 5.00720428 31.9219838 4.41096781 32.9581877 3.98006028 34.0710552L1.19830412 33.1772994C.934476599 34.3052974 1.12372327 35.4959312 1.72273356 36.4767151 1.23451059 36.6989792.790049429 37.0126454.411659957 37.4019689.0337395868 37.8049303-.0966078144 38.3921605.0734409702 38.9256848.714872865 39.0868397 1.37487996 39.1544253 2.03435105 39.1264846 1.93267092 40.3916349 2.00302893 41.6653118 2.24336278 42.9101821 2.25877385 43.0967817 2.34484791 43.2694755 2.48277622 43.3905266 2.71137582 43.4841417 2.97111724 43.4402983 3.1592142 43.2763463 4.11796528 42.6597166 4.90409657 41.7936535 5.4393422 40.7643807L6.47300022 43.3196561C6.54756481 43.5835153 6.71063422 43.8111088 6.93282604 43.9614279 7.25628211 44.0702633 7.61015274 43.9432288 7.79927468 43.6503851 7.97403959 43.3571364 8.07950645 43.0252793 8.10709196 42.6818216L8.48711329 40.2446636C8.49363219 40.1190865 8.53892784 39.9990034 8.61632054 39.9021229 8.73340888 39.8093362 8.87998149 39.7657473 9.02674358 39.7800681 10.0071986 39.7538198 10.9876537 39.7433204 11.9681087 39.7485701 12.1353181 39.2091668 11.6146889 38.7051988 11.1130607 38.4768383 10.6114325 38.2484777 10.0147991 38.0831132 9.76778518 37.575208 9.25475638 36.5475856 10.5772306 35.1144265 10.0147991 34.2285452 9.37636321 33.1930484 8.30850326 34.2049217 7.44965505 34.6616428z"/>
      <path d="M92.3274582 73.9698591C92.2703934 74.005135 92.204224 74.0244653 92.1363609 74.025685 92.0117322 74.025685 91.9286464 73.906058 91.8787949 73.8023812 91.6004575 73.2281712 91.7624748 72.4864834 91.3387373 72 90.9076452 72.4960323 90.5613007 73.0545936 90.3126278 73.6548411L88.6966092 73.1723453C88.5444687 73.7801894 88.6537798 74.4212335 88.9998724 74.950801 88.7168062 75.0669658 88.4600039 75.2349084 88.2437917 75.4452596 88.0195751 75.6601734 87.9422305 75.9787891 88.0443858 76.2666988 88.4169294 76.3521929 88.7998979 76.3884162 89.1826611 76.3743631 89.1242725 77.0545014 89.1662295 77.7391465 89.3072898 78.4080233 89.3128578 78.5091128 89.3626454 78.6032437 89.4443813 78.6672153 89.5607014 78.7389915 89.7185644 78.6672153 89.8598103 78.6074017 90.4160526 78.2745653 90.8726993 77.808764 91.1850286 77.2556159L91.7874006 78.6313272C91.8296957 78.7728375 91.9242026 78.8947346 92.0532751 78.9742581 92.240981 79.0422683 92.4525042 78.9717936 92.5559441 78.8067802 92.6569324 78.6483299 92.7180923 78.4694831 92.7345785 78.2844087L92.9589102 76.976486C92.9635544 76.9082009 92.9896231 76.8428643 93.0336874 76.7890703 93.1028638 76.7396261 93.1888335 76.7168621 93.2746362 76.7252692 93.8437738 76.7252692 94.4129115 76.7053314 94.9820491 76.7252692 95.0775978 76.4341767 94.7743347 76.163022 94.4835344 76.0394073 94.1927341 75.9157927 93.8479281 75.8280662 93.702528 75.5569115 93.4034191 75.0026394 94.1719627 74.2330386 93.8479281 73.7545303 93.4283449 73.1803204 92.8052015 73.7186422 92.3274582 73.9698591zM54.3390517 95.9710429C54.280419 96.003346 54.2148791 96.0224481 54.1473959 96.0269024 54.0265694 96.0269024 53.9432408 95.9072035 53.8890772 95.7994744 53.6140928 95.2249194 53.7724172 94.4827858 53.3474412 94 52.9165996 94.4958842 52.56937 95.0532303 52.3183329 95.6518457L50.7017578 95.1730498C50.546951 95.7798836 50.6567608 96.4209202 51.0059072 96.9485845 50.7216209 97.0680518 50.4630589 97.2371849 50.2434504 97.4473301 50.0201964 97.6615908 49.9427436 97.9783684 50.0434618 98.265273 50.4183216 98.3521288 50.8037831 98.3897135 51.1892302 98.3769921 51.1273091 99.0573241 51.1680021 99.7426498 51.3100567 100.411874 51.3201797 100.511811 51.3692755 100.604419 51.4475489 100.671222 51.5817101 100.721227 51.7337031 100.696712 51.8433598 100.607383 52.404115 100.276479 52.8639607 99.8099625 53.1766176 99.2547845L53.7765836 100.631323C53.8205281 100.774359 53.9166281 100.897537 54.0474016 100.97845 54.2356865 101.038574 54.4426454 100.96978 54.5515397 100.810871 54.6512138 100.651617 54.7124271 100.473028 54.7306962 100.288186L54.9556834 98.9754869C54.9592589 98.9081424 54.9855777 98.8437318 55.0306792 98.7919485 55.098404 98.7423686 55.1833915 98.7195229 55.2681657 98.728109 55.8389667 98.728109 56.4097677 98.7041692 56.9805687 98.7081592 57.080563 98.4208817 56.7764136 98.1495641 56.4847635 98.0258751 56.1931133 97.9021862 55.8472996 97.810417 55.6973081 97.5390993 55.4014915 96.9844941 56.1722812 96.2144308 55.8431332 95.7396249 55.4598215 95.1810298 54.8390234 95.735635 54.3390517 95.9710429z" opacity=".2"/>
      <path d="M17.339937 16.9698591C17.2817348 17.0031092 17.2159344 17.0222718 17.1482421 17.025685 17.0232237 17.025685 16.9398781 16.906058 16.8898707 16.8023812 16.6106629 16.2281712 16.7731869 15.4864834 16.3481242 15 15.915684 15.4960323 15.5682564 16.0545936 15.3188059 16.6548411L13.6977337 16.1723453C13.5444109 16.7806566 13.6556985 17.4224651 14.0061125 17.950801 13.7203112 18.0658722 13.4611297 18.2339189 13.2435001 18.4452596 13.0202005 18.6593915 12.942732 18.9759788 13.0434706 19.2627112 13.4166435 19.3514412 13.8010901 19.3890335 14.1853055 19.3743631 14.1267343 20.0545014 14.1688226 20.7391465 14.310324 21.4080233 14.3178621 21.5086038 14.3674346 21.6020356 14.4478442 21.6672153 14.5645281 21.7389915 14.7228848 21.6672153 14.8437359 21.6074017 15.4017178 21.2745653 15.8597924 20.808764 16.1730984 20.2556159L16.7773541 21.6313272C16.8197815 21.7728375 16.914584 21.8947346 17.0440601 21.9742581 17.232353 22.0422683 17.4445377 21.9717936 17.5483011 21.8067802 17.6496051 21.6483299 17.7109563 21.4694831 17.7274941 21.2844087L17.9525273 19.976486C17.957186 19.9082009 17.9833363 19.8428643 18.0275383 19.7890703 18.0969311 19.7396261 18.1831696 19.7168621 18.2692406 19.7252692 18.8401581 19.7252692 19.4110755 19.7053314 19.981993 19.7252692 20.0778404 19.4341767 19.773629 19.163022 19.4819193 19.0394073 19.1902097 18.9157927 18.8443254 18.8280662 18.6984705 18.5569115 18.3984263 18.0026394 19.1693733 17.2330386 18.8443254 16.7545303 18.4609355 16.1803204 17.8358434 16.7465552 17.339937 16.9698591zM37.355064 61.9754858C37.2987296 62.0096258 37.2340136 62.0289351 37.167427 62.0314712 37.0423357 62.0314712 36.9589414 61.9115024 36.9047352 61.8075295 36.6295342 61.2316794 36.7879832 60.487873 36.3668423 60 35.9343186 60.4982924 35.5854338 61.0582039 35.3327538 61.659568L33.6940571 61.175694C33.5413517 61.7852744 33.6510687 62.4281495 33.998446 62.9592297 33.7136444 63.0766827 33.4547013 63.2449562 33.2353888 63.4551006 33.0213681 63.666688 32.9460587 63.97403 33.0394123 64.2548924 33.4127639 64.34409 33.7974667 64.3817928 34.1819133 64.3668633 34.1240137 65.048782 34.1647062 65.7351039 34.302835 66.4063324 34.3099729 66.508215 34.3614156 66.602534 34.4446052 66.6662647 34.5613571 66.738246 34.7198062 66.6662647 34.8365581 66.6062803 35.397133 66.2738984 35.8571648 65.8065094 36.1708659 65.2506332L36.7754741 66.6302741C36.8179262 66.7721886 36.912784 66.8944339 37.0423357 66.9741846 37.2307384 67.0423891 37.4430469 66.971713 37.5468708 66.8062283 37.647146 66.6468449 37.7084477 66.4677364 37.7261684 66.2823646L37.9513328 64.9707061C37.9559943 64.9022259 37.9821598 64.8367026 38.0263876 64.782755 38.0941658 64.7330634 38.1792202 64.7101662 38.2640612 64.7187717 38.8353117 64.7187717 39.4065623 64.7187717 39.9819825 64.7187717 40.0778859 64.4268477 39.7734969 64.1549184 39.4816171 64.0309507 39.1897372 63.906983 38.8436512 63.8190059 38.6977112 63.5470767 38.397492 62.9912214 39.1688887 62.2194223 38.8436512 61.7395472 38.4600377 61.175694 37.8345809 61.7435461 37.355064 61.9754858zM23.3382735 43.9707712C23.2816364 44.0036007 23.2169302 44.0214941 23.1507292 44.0226336 23.0256998 44.0226336 22.9423468 43.9069405 22.8881673 43.7992263 22.6131025 43.2247505 22.7714732 42.4827193 22.346373 42 21.9154053 42.4958158 21.5680742 43.0530851 21.3169636 43.651618L19.6999157 43.1728881C19.5470139 43.7797087 19.6567299 44.4199232 20.0041541 44.948178 19.720576 45.0672359 19.4621062 45.2348839 19.2414743 45.4428655 19.0180037 45.6587403 18.9420536 45.9773915 19.0455948 46.264685 19.4189535 46.3523815 19.8034713 46.3886515 20.1875307 46.3723992 20.1275793 47.0539905 20.1682666 47.7402683 20.3083925 48.4109905 20.3196053 48.511489 20.3702492 48.6041678 20.4500926 48.6703025 20.5667868 48.742112 20.7209898 48.6703025 20.8418516 48.6064718 21.4021492 48.2748831 21.8619534 47.8086096 22.1754993 47.25406L22.7798085 48.6304083C22.8211724 48.7724873 22.9162405 48.8947718 23.046538 48.973498 23.2338503 49.0422641 23.4457637 48.9735296 23.5508236 48.809932 23.6498927 48.6504234 23.711076 48.4719992 23.7300325 48.2873186L23.9550855 46.974801C23.9597918 46.907703 23.9859865 46.8436238 24.0301032 46.7912878 24.0974381 46.7406612 24.1823543 46.7164185 24.2676592 46.7234678 24.8386272 46.7234678 25.4095951 46.7035207 25.980563 46.7234678 26.0805866 46.4322405 25.7763482 46.1649496 25.4846128 46.0412778 25.1928773 45.9176059 24.8469625 45.8258493 24.7010947 45.5545691 24.401024 45.0000403 25.1720391 44.2300832 24.8427948 43.7513533 24.4635387 43.1808669 23.8383914 43.7314063 23.3382735 43.9707712zM84.344506 47.9698591C84.2882129 48.0039018 84.2235445 48.0231562 84.1570067 48.025685 84.0320072 48.025685 83.9486742 47.906058 83.8986744 47.7983936 83.6195088 47.2281712 83.7778415 46.4824958 83.3570098 46 82.924635 46.4960323 82.57726 47.0545936 82.3278472 47.6548411L80.6986869 47.1723453C80.5458216 47.778885 80.6555114 48.4188032 81.0028524 48.9468135 80.718879 49.0667742 80.4604062 49.2357384 80.2403553 49.4452596 80.0185569 49.6602481 79.9427403 49.9767243 80.0445228 50.2627112 80.4179552 50.3496948 80.8020872 50.387262 81.186185 50.3743631 81.1283278 51.0543396 81.1689905 51.7387066 81.3070178 52.4080233 81.3156123 52.5092164 81.3667319 52.6027446 81.448684 52.6672153 81.5653502 52.7389915 81.7236829 52.6672153 81.8403491 52.6034142 82.4022697 52.2740461 82.8624641 51.807481 83.1736772 51.2516283L83.7778415 52.6273396C83.8203955 52.7698357 83.9150334 52.8929548 84.0445072 52.9742581 84.2327716 53.0422683 84.4449242 52.9717936 84.5486719 52.8067802 84.6483512 52.6476219 84.7095678 52.4691405 84.7278378 52.2844087L84.952837 50.976486C84.957495 50.9082009 84.9836413 50.8428643 85.0278367 50.7890703 85.0955651 50.7395202 85.180557 50.7166882 85.2653357 50.7252692 85.8361668 50.7252692 86.4111646 50.7053314 86.9819957 50.7252692 87.0778287 50.4341767 86.7736632 50.163022 86.4819977 50.0394073 86.1903321 49.9157927 85.8445001 49.8240786 85.6986674 49.5529239 85.3986686 48.9986518 86.1694989 48.229051 85.8445001 47.7545303 85.4695016 47.1803204 84.8653373 47.7345925 84.344506 47.9698591z" opacity=".5"/>
      <path d="M54.3390517,45.9698591 C54.2808613,46.0031092 54.2150744,46.0222718 54.1473959,46.025685 C54.0265694,46.025685 53.9432408,45.906058 53.8890772,45.8023812 C53.6140928,45.2281712 53.7724172,44.4864834 53.3474412,44 C52.9165632,44.4970296 52.5693513,45.0553581 52.3183329,45.6548411 L50.7017578,45.1723453 C50.5472364,45.7801199 50.6569912,46.4218901 51.0059072,46.950801 C50.7207326,47.066873 50.4617962,47.2347951 50.2434504,47.4452596 C50.0201964,47.6593915 49.9427436,47.9759788 50.0434618,48.2627112 C50.4179738,48.3514455 50.8037173,48.3890352 51.1892302,48.3743631 C51.1271929,49.0542848 51.1678869,49.7392149 51.3100567,50.4080233 C51.3175933,50.5086038 51.3671556,50.6020356 51.4475489,50.6672153 C51.5814994,50.7132958 51.7307604,50.69074 51.8433598,50.6074017 C52.4025132,50.274817 52.8619078,49.8090383 53.1766176,49.2556159 L53.7765836,50.6313272 C53.8207394,50.7731311 53.9169084,50.8949078 54.0474016,50.9742581 C54.235656,51.0422683 54.4477975,50.9717936 54.5515397,50.8067802 C54.651736,50.6478507 54.7129894,50.4692525 54.7306962,50.2844087 L54.9556834,48.976486 C54.958358,48.9077994 54.98473,48.8418952 55.0306792,48.7890703 C55.098404,48.7395202 55.1833915,48.7166882 55.2681657,48.7252692 C55.8389667,48.7252692 56.4097677,48.7053314 56.9805687,48.7252692 C57.080563,48.4341767 56.7764136,48.163022 56.4847635,48.0394073 C56.1931133,47.9157927 55.8472996,47.8280662 55.6973081,47.5569115 C55.4014915,47.0026394 56.1722812,46.2330386 55.8431332,45.7545303 C55.4598215,45.1803204 54.8390234,45.7345925 54.3390517,45.9698591 Z" opacity=".2"/>
      <path d="M45.351551,47.9717554 C45.2933606,48.0050376 45.2275737,48.0242187 45.1598952,48.0276351 C45.0390687,48.0276351 44.9515737,47.9078929 44.9015765,47.8041163 C44.6265921,47.2293536 44.7849164,46.4829603 44.3599405,46 C43.9253853,46.4942615 43.5739593,47.0504294 43.3183329,47.6484514 L41.6975914,47.1654911 C41.5442998,47.774388 41.6555647,48.4168143 42.0059072,48.9456589 C41.7207326,49.0618427 41.4617962,49.2299264 41.2434504,49.4405935 C41.0201964,49.6549316 40.9427436,49.9718237 41.0434618,50.2588321 C41.4179738,50.3476518 41.8037173,50.3852777 42.1892302,50.3705915 C42.1271929,51.0511677 42.1678869,51.7367572 42.3100567,52.4062095 C42.3175933,52.5068868 42.3671556,52.6004086 42.4475489,52.665651 C42.5814994,52.7117758 42.7307604,52.6891983 42.8433598,52.6057799 C43.4025132,52.2728749 43.8619078,51.8066478 44.1766176,51.2526926 L44.7765836,52.6297283 C44.8203505,52.7707317 44.9148156,52.8923368 45.0432351,52.9729894 C45.2326729,53.043305 45.4474292,52.9724782 45.5515397,52.8053502 C45.6522131,52.646769 45.7121847,52.4675722 45.7265298,52.2824758 L45.951517,50.9732941 C45.9580425,50.9053473 45.9839914,50.8404382 46.0265128,50.7856979 C46.0958914,50.7362061 46.1821123,50.7134202 46.2681657,50.7218354 C46.8389667,50.7218354 47.4097677,50.7018783 47.9805687,50.7218354 C48.080563,50.4304626 47.7764136,50.1590469 47.4847635,50.0353133 C47.1931133,49.9115796 46.8431332,49.8237686 46.6973081,49.5523529 C46.4014915,48.9975472 47.1722812,48.2272055 46.8431332,47.7482366 C46.4723208,47.1814567 45.8515227,47.7362624 45.351551,47.9717554 Z" opacity=".3"/>
      <path d="M37.3398248,24.9698591 C37.2816241,25.0031092 37.2158255,25.0222718 37.1481349,25.025685 C37.0231197,25.025685 36.9397762,24.906058 36.8897702,24.7983936 C36.6147368,24.2281712 36.7730893,23.4824958 36.3480377,23 C35.9165561,23.4952048 35.5692095,24.0523048 35.318746,24.6508535 L33.6977157,24.1723453 C33.5441103,24.7793529 33.6554508,25.4200432 34.0060865,25.9468135 C33.720922,26.0647767 33.4620481,26.2339819 33.2434938,26.4452596 C33.0202,26.6593915 32.9427334,26.9759788 33.0434695,27.2627112 C33.4169843,27.3494972 33.801136,27.3870616 34.1852749,27.3743631 C34.1268167,28.0545027 34.168903,28.7391327 34.3102901,29.4080233 C34.3178281,29.5086038 34.3673992,29.6020356 34.4478068,29.6672153 C34.5644877,29.7389915 34.7228402,29.6672153 34.8436882,29.6034142 C35.4030128,29.2721648 35.8614564,28.8059763 36.1730164,28.2516283 L36.7772565,29.6273396 C36.8198158,29.7698357 36.9144656,29.8929548 37.0439556,29.9742581 C37.2322436,30.0422683 37.4444228,29.9717936 37.5481835,29.8067802 C37.649485,29.6483299 37.7108345,29.4694831 37.7273719,29.2844087 L37.9523993,27.976486 C37.9570579,27.9082009 37.9832075,27.8428643 38.0274084,27.7890703 C38.0967994,27.7396261 38.1830357,27.7168621 38.2691044,27.7252692 C38.8400071,27.7252692 39.4109098,27.7013438 39.9818125,27.7053314 C40.0776575,27.4182264 39.777621,27.1470717 39.4817518,27.0234571 C39.1858825,26.8998424 38.8441743,26.8081283 38.6983232,26.5369737 C38.3982868,25.9827016 39.1692138,25.2131008 38.8441743,24.7385801 C38.45246,24.1803204 37.8273841,24.7345925 37.3398248,24.9698591 Z" opacity=".2"/>
      <path d="M53.3253972,55.9710429 C53.2676351,56.0043795 53.201644,56.0222872 53.1342544,56.0229125 C53.0137513,56.0229125 52.9306457,55.9072035 52.876627,55.7994744 C52.6023786,55.2249194 52.7602792,54.4827858 52.3364407,54 C51.9067522,54.4958842 51.560452,55.0532303 51.3100867,55.6518457 L49.6978383,55.1730498 C49.5434459,55.7798836 49.6529617,56.4209202 50.0011737,56.9485845 C49.7184373,57.0676588 49.4607347,57.2353299 49.2407576,57.4433402 C49.0179503,57.6592447 48.9422256,57.9779399 49.0454595,58.265273 C49.41771,58.3529816 49.8010865,58.3892566 50.184006,58.3730021 C50.1242326,59.0546874 50.1647991,59.7410598 50.3045091,60.4118745 C50.3146051,60.5118113 50.3635695,60.6044193 50.4416333,60.6712222 C50.5812618,60.729529 50.7434495,60.7046113 50.8571613,60.6073828 C51.4156728,60.2756033 51.8740775,59.8093008 52.1868507,59.2547845 L52.7852109,60.6313225 C52.8306565,60.773576 52.9261218,60.8962691 53.0553041,60.9784495 C53.2430851,61.0385743 53.4494901,60.9697799 53.5580929,60.810871 C53.6575002,60.6516171 53.7185497,60.4730284 53.7367699,60.2881855 L53.961155,58.9754869 C53.9666155,58.9085468 53.9926466,58.8446696 54.03595,58.7919485 C54.103085,58.7413149 54.1877491,58.7170688 54.2728009,58.7241191 C54.8420742,58.7241191 55.4113474,58.7041692 55.9806207,58.7241191 C56.0803474,58.4328516 55.777012,58.1655239 55.4861425,58.041835 C55.1952729,57.9181461 54.8503847,57.8263769 54.70495,57.5550592 C54.4057698,57.000454 55.1744965,56.2303907 54.8462295,55.7555848 C54.4473226,55.1810298 53.8240307,55.731645 53.3253972,55.9710429 Z" opacity=".3"/>
    </g>
  </g>
</svg>
