<svg xmlns="http://www.w3.org/2000/svg" width="1680" height="700" viewBox="0 0 1680 700">
  <defs>
    <linearGradient id="bg-a" x1="50%" x2="50%" y1="100%" y2="0%">
      <stop offset="0%" stop-color="#5C937A"/>
      <stop offset="100%" stop-color="#23395B"/>
    </linearGradient>
    <linearGradient id="bg-b" x1="50%" x2="50%" y1="0%" y2="154.844%">
      <stop offset="0%" stop-color="#496B94"/>
      <stop offset="100%" stop-color="#23395B"/>
    </linearGradient>
  </defs>
  <g fill="none" fill-rule="evenodd">
    <polygon fill="url(#bg-a)" points="0 0 1680 0 1680 100.635 1680 700.001 0 700.001" transform="matrix(-1 0 0 1 1680 0)"/>
    <g transform="translate(1205 218)">
      <polygon fill="#23395B" points="452.618 123.633 452.618 91.856 433.717 91.856 433.717 123.633 411.335 123.633 411.335 74.478 394.921 74.478 394.921 37.735 381.492 37.735 381.492 0 353.639 0 353.639 37.735 340.209 37.735 340.209 74.478 324.293 74.478 324.293 30.288 315.34 30.288 315.34 7.944 309.869 7.944 309.869 30.288 278.037 30.288 278.037 171.299 253.665 171.299 253.665 156.403 238.743 156.403 238.743 171.299 214.372 171.299 214.372 123.633 170.602 123.633 170.602 91.856 151.702 91.856 151.702 123.633 150.707 123.633 150.707 184.705 130.812 184.705 130.812 148.955 106.937 148.955 106.937 184.705 87.042 184.705 87.042 74.478 71.623 74.478 71.623 37.735 14.921 37.735 14.921 74.478 0 74.478 0 268.616 87.042 268.616 150.707 268.616 214.372 268.616 278.037 268.616 324.293 268.616 411.335 268.616 475 268.616 475 123.633"/>
      <rect width="20" height="11.983" x="10" y="85.877" fill="#155775" opacity=".4"/>
      <rect width="20" height="11.983" x="56" y="85.878" fill="#155775" opacity=".4" transform="rotate(-180 66 91.87)"/>
      <rect width="20" height="11.983" x="10" y="109.843" fill="#155775" opacity=".4"/>
      <rect width="20" height="11.983" x="56" y="109.844" fill="#155775" opacity=".4" transform="rotate(-180 66 115.835)"/>
      <rect width="20" height="11.983" x="10" y="132.81" fill="#155775" opacity=".4"/>
      <rect width="20" height="11.983" x="56" y="132.811" fill="#155775" opacity=".4" transform="rotate(-180 66 138.803)"/>
      <rect width="20" height="11.983" x="10" y="155.777" fill="#155775" opacity=".4"/>
      <rect width="20" height="11.983" x="56" y="155.778" fill="#155775" opacity=".4" transform="rotate(-180 66 161.77)"/>
      <rect width="20" height="11.983" x="10" y="179.743" fill="#155775" opacity=".4"/>
      <rect width="20" height="11.983" x="56" y="179.744" fill="#155775" opacity=".4" transform="rotate(-180 66 185.736)"/>
      <rect width="20" height="11.983" x="10" y="202.71" fill="#155775" opacity=".4"/>
      <rect width="20" height="11.983" x="56" y="202.711" fill="#155775" opacity=".4" transform="rotate(-180 66 208.702)"/>
      <rect width="20" height="11.983" x="10" y="225.678" fill="#FFF" opacity=".4"/>
      <rect width="20" height="11.983" x="56" y="225.677" fill="#FFF" opacity=".4" transform="rotate(-180 66 231.668)"/>
      <rect width="49" height="5.991" x="94" y="196.719" fill="#155775" opacity=".4"/>
      <rect width="49" height="5.991" x="94" y="205.706" fill="#155775" opacity=".4"/>
      <rect width="49" height="5.991" x="94" y="213.695" fill="#155775" opacity=".4"/>
      <rect width="49" height="5.991" x="222" y="199.715" fill="#155775" opacity=".4"/>
      <rect width="49" height="5.991" x="222" y="208.702" fill="#155775" opacity=".4"/>
      <rect width="49" height="5.991" x="222" y="217.689" fill="#155775" opacity=".4"/>
      <rect width="49" height="5.991" x="94" y="223.68" fill="#155775" opacity=".4"/>
      <rect width="49" height="5.991" x="94" y="232.668" fill="#FFF" opacity=".4"/>
      <rect width="49" height="5.991" x="94" y="241.655" fill="#FFF" opacity=".4"/>
      <rect width="14" height="17.974" x="161" y="134.807" fill="#155775" opacity=".4"/>
      <rect width="14" height="17.974" x="190" y="134.809" fill="#155775" opacity=".4" transform="rotate(-180 197 143.796)"/>
      <rect width="14" height="17.974" x="161" y="162.767" fill="#155775" opacity=".4"/>
      <rect width="14" height="17.974" x="190" y="162.769" fill="#155775" opacity=".4" transform="rotate(-180 197 171.756)"/>
      <rect width="14" height="17.974" x="161" y="190.728" fill="#155775" opacity=".4"/>
      <rect width="14" height="17.974" x="190" y="190.728" fill="#155775" opacity=".4" transform="rotate(-180 197 199.715)"/>
      <rect width="14" height="17.974" x="161" y="218.688" fill="#155775" opacity=".4"/>
      <rect width="14" height="17.974" x="190" y="218.688" fill="#155775" opacity=".4" transform="rotate(-180 197 227.675)"/>
      <rect width="19" height="22.967" x="277" y="41.94" fill="#155775" opacity=".4"/>
      <rect width="19" height="22.967" x="277" y="74.893" fill="#155775" opacity=".4"/>
      <rect width="19" height="22.967" x="277" y="107.846" fill="#155775" opacity=".4"/>
      <rect width="19" height="22.967" x="277" y="139.8" fill="#155775" opacity=".4"/>
      <rect width="19" height="22.967" x="277" y="173.752" fill="#155775" opacity=".4"/>
      <rect width="19" height="22.967" x="277" y="205.706" fill="#155775" opacity=".4"/>
      <rect width="66" height="18.973" x="335" y="87.874" fill="#155775" opacity=".4"/>
      <rect width="66" height="18.973" x="336" y="129.815" fill="#155775" opacity=".4"/>
      <rect width="66" height="18.973" x="336" y="171.755" fill="#155775" opacity=".4"/>
      <rect width="66" height="18.973" x="336" y="213.695" fill="#155775" opacity=".4"/>
      <rect width="9" height="18.973" x="15" y="47.932" fill="#155775" opacity=".4"/>
      <rect width="22" height="28.959" x="453" y="134.807" fill="#155775" opacity=".4"/>
      <rect width="22" height="28.959" x="453" y="176.748" fill="#155775" opacity=".4"/>
      <rect width="22" height="28.959" x="453" y="218.688" fill="#155775" opacity=".4"/>
      <path fill="#252223" fill-rule="nonzero" d="M130.629072,23.6321026 L127.244843,23.6321026 C128.116765,23.6711759 128.940014,23.236131 129.387855,22.4996311 C129.835696,21.7631312 129.835696,20.8442946 129.387855,20.1077947 C128.940014,19.3712948 128.116765,18.9362499 127.244843,18.9753232 L99.8316009,18.9753232 C98.9596787,18.9362499 98.1364291,19.3712948 97.6885885,20.1077947 C97.2407478,20.8442946 97.2407478,21.7631312 97.6885885,22.4996311 C98.1364291,23.236131 98.9596787,23.6711759 99.8316009,23.6321026 L103.21583,23.6321026 C101.906403,23.6321026 100.844902,24.6756407 100.844902,25.9629101 C100.844902,27.2501796 101.906403,28.2937177 103.21583,28.2937177 L98.4788929,28.2937177 C97.6069708,28.2546444 96.7837212,28.6896893 96.3358805,29.4261892 C95.8880398,30.1626891 95.8880398,31.0815257 96.3358805,31.8180256 C96.7837212,32.5545255 97.6069708,32.9895704 98.4788929,32.9504971 L125.892135,32.9504971 C126.764057,32.9895704 127.587306,32.5545255 128.035147,31.8180256 C128.482988,31.0815257 128.482988,30.1626891 128.035147,29.4261892 C127.587306,28.6896893 126.764057,28.2546444 125.892135,28.2937177 L130.629072,28.2937177 C131.938499,28.2937177 133,27.2501796 133,25.9629101 C133,24.6756407 131.938499,23.6321026 130.629072,23.6321026 Z M253.629072,83.5465106 L250.244842,83.5465106 C251.116765,83.5855839 251.940014,83.150539 252.387855,82.4140391 C252.835695,81.6775392 252.835695,80.7587026 252.387855,80.0222027 C251.940014,79.2857028 251.116765,78.8506579 250.244842,78.8897312 L222.831601,78.8897312 C221.959679,78.8506579 221.136429,79.2857028 220.688588,80.0222027 C220.240748,80.7587026 220.240748,81.6775392 220.688588,82.4140391 C221.136429,83.150539 221.959679,83.5855839 222.831601,83.5465106 L226.21583,83.5465106 C224.906403,83.5465107 223.844902,84.5900487 223.844902,85.8773181 C223.844902,87.1645875 224.906403,88.2081256 226.21583,88.2081257 L221.478893,88.2081257 C220.606971,88.1690523 219.783721,88.6040973 219.335881,89.3405972 C218.88804,90.0770971 218.88804,90.9959337 219.335881,91.7324336 C219.783721,92.4689335 220.606971,92.9039784 221.478893,92.8649051 L248.892134,92.8649051 C249.764057,92.9039784 250.587306,92.4689335 251.035147,91.7324336 C251.482987,90.9959337 251.482987,90.0770971 251.035147,89.3405972 C250.587306,88.6040973 249.764057,88.1690523 248.892134,88.2081257 L253.629072,88.2081257 C254.476123,88.2081257 255.25883,87.7638763 255.682356,87.0427219 C256.105881,86.3215676 256.105881,85.4330687 255.682356,84.7119143 C255.25883,83.9907599 254.476123,83.5465105 253.629072,83.5465106 Z M462.629072,5.65778018 L459.244843,5.65778018 C460.116765,5.6968535 460.940014,5.26180858 461.387855,4.52530869 C461.835696,3.7888088 461.835696,2.86997217 461.387855,2.13347228 C460.940014,1.39697239 460.116765,0.961927465 459.244843,1.00100079 L431.831601,1.00100079 C430.959679,0.961927465 430.136429,1.39697239 429.688588,2.13347228 C429.240748,2.86997217 429.240748,3.7888088 429.688588,4.52530869 C430.136429,5.26180858 430.959679,5.6968535 431.831601,5.65778018 L435.21583,5.65778018 C433.906403,5.65778018 432.844902,6.70131827 432.844902,7.98858773 C432.844902,9.2758572 433.906403,10.3193953 435.21583,10.3193953 L430.478893,10.3193953 C429.606971,10.280322 428.783721,10.7153669 428.335881,11.4518668 C427.88804,12.1883667 427.88804,13.1072033 428.335881,13.8437032 C428.783721,14.5802031 429.606971,15.015248 430.478893,14.9761747 L457.892135,14.9761747 C458.764057,15.015248 459.587306,14.5802031 460.035147,13.8437032 C460.482988,13.1072033 460.482988,12.1883667 460.035147,11.4518668 C459.587306,10.7153669 458.764057,10.280322 457.892135,10.3193953 L462.629072,10.3193953 C463.938499,10.3193953 465,9.2758572 465,7.98858773 C465,6.70131827 463.938499,5.65778018 462.629072,5.65778018 Z" opacity=".1"/>
      <path fill="#535461" d="M350,262.624822 C350.552285,262.624822 351,262.177745 351,261.626248 C351,261.074751 350.552285,260.627675 350,260.627675 C349.447715,260.627675 349,261.074751 349,261.626248 C349,262.177745 349.447715,262.624822 350,262.624822 Z"/>
    </g>
    <g transform="matrix(-1 0 0 1 372 262)">
      <polygon fill="#23395B" points="354.471 96.976 354.471 72.05 339.669 72.05 339.669 96.976 322.14 96.976 322.14 58.419 309.286 58.419 309.286 29.599 298.769 29.599 298.769 0 276.955 0 276.955 29.599 266.438 29.599 266.438 58.419 253.973 58.419 253.973 23.757 246.961 23.757 246.961 6.231 242.676 6.231 242.676 23.757 217.747 23.757 217.747 134.364 198.66 134.364 198.66 122.681 186.974 122.681 186.974 134.364 167.887 134.364 167.887 96.976 133.608 96.976 133.608 72.05 118.806 72.05 118.806 96.976 118.027 96.976 118.027 144.88 102.446 144.88 102.446 116.839 83.749 116.839 83.749 144.88 68.168 144.88 68.168 58.419 56.092 58.419 56.092 29.599 11.686 29.599 11.686 58.419 0 58.419 0 210.699 68.168 210.699 118.027 210.699 167.887 210.699 217.747 210.699 253.973 210.699 322.14 210.699 372 210.699 372 96.976"/>
      <rect width="16" height="8.987" x="8" y="67.903" fill="#155775" opacity=".4"/>
      <rect width="16" height="8.987" x="44" y="67.904" fill="#155775" opacity=".4" transform="rotate(-180 52 72.397)"/>
      <rect width="16" height="8.987" x="8" y="85.877" fill="#155775" opacity=".4"/>
      <rect width="16" height="8.987" x="44" y="85.876" fill="#155775" opacity=".4" transform="rotate(-180 52 90.37)"/>
      <rect width="16" height="8.987" x="8" y="104.85" fill="#155775" opacity=".4"/>
      <rect width="16" height="8.987" x="44" y="104.851" fill="#155775" opacity=".4" transform="rotate(-180 52 109.344)"/>
      <rect width="16" height="8.987" x="8" y="122.825" fill="#155775" opacity=".4"/>
      <rect width="16" height="8.987" x="44" y="122.824" fill="#155775" opacity=".4" transform="rotate(-180 52 127.317)"/>
      <rect width="16" height="8.987" x="8" y="140.799" fill="#155775" opacity=".4"/>
      <rect width="16" height="8.987" x="44" y="140.798" fill="#155775" opacity=".4" transform="rotate(-180 52 145.292)"/>
      <rect width="16" height="8.987" x="8" y="158.773" fill="#155775" opacity=".4"/>
      <rect width="16" height="8.987" x="44" y="158.774" fill="#155775" opacity=".4" transform="rotate(-180 52 163.268)"/>
      <rect width="16" height="8.987" x="8" y="176.748" fill="#155775" opacity=".4"/>
      <rect width="16" height="8.987" x="44" y="176.747" fill="#155775" opacity=".4" transform="rotate(-180 52 181.24)"/>
      <rect width="38" height="4.993" x="74" y="153.78" fill="#155775" opacity=".4"/>
      <rect width="38" height="4.993" x="74" y="160.77" fill="#155775" opacity=".4"/>
      <rect width="38" height="4.993" x="74" y="167.76" fill="#155775" opacity=".4"/>
      <rect width="38" height="4.993" x="174" y="156.776" fill="#155775" opacity=".4"/>
      <rect width="38" height="4.993" x="174" y="163.766" fill="#155775" opacity=".4"/>
      <rect width="38" height="4.993" x="174" y="170.756" fill="#155775" opacity=".4"/>
      <rect width="38" height="4.993" x="74" y="175.749" fill="#155775" opacity=".4"/>
      <rect width="38" height="4.993" x="74" y="182.739" fill="#155775" opacity=".4"/>
      <rect width="38" height="4.993" x="74" y="189.729" fill="#155775" opacity=".4"/>
      <rect width="11" height="13.98" x="126" y="105.849" fill="#155775" opacity=".4"/>
      <rect width="11" height="13.98" x="149" y="105.849" fill="#155775" opacity=".4" transform="rotate(-180 154.5 112.839)"/>
      <rect width="11" height="13.98" x="126" y="127.817" fill="#155775" opacity=".4"/>
      <rect width="11" height="13.98" x="149" y="127.817" fill="#155775" opacity=".4" transform="rotate(-180 154.5 134.807)"/>
      <rect width="11" height="13.98" x="126" y="149.786" fill="#155775" opacity=".4"/>
      <rect width="11" height="13.98" x="149" y="149.786" fill="#155775" opacity=".4" transform="rotate(-180 154.5 156.776)"/>
      <rect width="11" height="13.98" x="126" y="171.755" fill="#155775" opacity=".4"/>
      <rect width="11" height="13.98" x="149" y="171.755" fill="#155775" opacity=".4" transform="rotate(-180 154.5 178.745)"/>
      <rect width="15" height="17.974" x="217" y="32.953" fill="#155775" opacity=".4"/>
      <rect width="15" height="17.974" x="217" y="58.916" fill="#155775" opacity=".4"/>
      <rect width="15" height="17.974" x="217" y="84.879" fill="#155775" opacity=".4"/>
      <rect width="15" height="17.974" x="217" y="109.843" fill="#155775" opacity=".4"/>
      <rect width="15" height="17.974" x="217" y="136.805" fill="#155775" opacity=".4"/>
      <rect width="15" height="17.974" x="217" y="161.769" fill="#155775" opacity=".4"/>
      <rect width="52" height="14.979" x="262" y="68.902" fill="#155775" opacity=".4"/>
      <rect width="52" height="14.979" x="263" y="101.854" fill="#155775" opacity=".4"/>
      <rect width="52" height="14.979" x="263" y="134.807" fill="#155775" opacity=".4"/>
      <rect width="52" height="14.979" x="263" y="167.76" fill="#155775" opacity=".4"/>
      <rect width="7" height="14.979" x="12" y="37.946" fill="#155775" opacity=".4"/>
      <rect width="17" height="22.967" x="355" y="105.849" fill="#155775" opacity=".4"/>
      <rect width="17" height="22.967" x="355" y="138.802" fill="#155775" opacity=".4"/>
      <rect width="17" height="22.967" x="355" y="171.755" fill="#155775" opacity=".4"/>
      <path fill="#252223" fill-rule="nonzero" d="M102.141705,18.6394073 L99.4892009,18.6394073 C100.172599,18.6701077 100.817849,18.3282867 101.168859,17.7496082 C101.51987,17.1709298 101.51987,16.4489867 101.168859,15.8703082 C100.817849,15.2916297 100.172599,14.9498087 99.4892009,14.9805092 L78.0031466,14.9805092 C77.3197482,14.9498087 76.6744985,15.2916297 76.3234883,15.8703082 C75.972478,16.4489867 75.972478,17.1709298 76.3234883,17.7496082 C76.6744985,18.3282867 77.3197482,18.6701077 78.0031466,18.6394073 L80.6556507,18.6394073 C79.6293427,18.6394073 78.7973557,19.4593301 78.7973557,20.4707561 C78.7973557,21.4821821 79.6293427,22.3021049 80.6556507,22.3021049 L76.9429161,22.3021049 C76.2595176,22.2714044 75.614268,22.6132254 75.2632577,23.1919039 C74.9122474,23.7705824 74.9122474,24.4925254 75.2632577,25.0712039 C75.614268,25.6498824 76.2595176,25.9917034 76.9429161,25.9610029 L98.4289703,25.9610029 C99.1123688,25.9917034 99.7576185,25.6498824 100.108629,25.0712039 C100.459639,24.4925254 100.459639,23.7705824 100.108629,23.1919039 C99.7576185,22.6132254 99.1123688,22.2714044 98.4289703,22.3021049 L102.141705,22.3021049 C103.168013,22.3021049 104,21.4821821 104,20.4707561 C104,19.4593301 103.168013,18.6394073 102.141705,18.6394073 Z M198.141705,65.5723602 L195.489201,65.5723602 C196.172599,65.6030607 196.817849,65.2612397 197.168859,64.6825612 C197.519869,64.1038827 197.519869,63.3819396 197.168859,62.8032611 C196.817849,62.2245826 196.172599,61.8827616 195.489201,61.9134621 L174.003147,61.9134621 C173.319748,61.8827616 172.674499,62.2245826 172.323488,62.8032611 C171.972478,63.3819396 171.972478,64.1038827 172.323488,64.6825612 C172.674499,65.2612397 173.319748,65.6030607 174.003147,65.5723602 L176.655651,65.5723602 C175.629343,65.5723603 174.797356,66.392283 174.797356,67.403709 C174.797356,68.4151349 175.629343,69.2350577 176.655651,69.2350578 L172.942916,69.2350578 C172.259518,69.2043573 171.614268,69.5461783 171.263258,70.1248568 C170.912247,70.7035353 170.912247,71.4254784 171.263258,72.0041568 C171.614268,72.5828353 172.259518,72.9246563 172.942916,72.8939559 L194.42897,72.8939559 C195.112369,72.9246563 195.757618,72.5828353 196.108629,72.0041568 C196.459639,71.4254784 196.459639,70.7035353 196.108629,70.1248568 C195.757618,69.5461783 195.112369,69.2043573 194.42897,69.2350578 L198.141705,69.2350578 C198.80561,69.2350578 199.419083,68.8860047 199.751036,68.3193834 C200.082988,67.7527621 200.082988,67.0546559 199.751036,66.4880345 C199.419083,65.9214132 198.80561,65.5723601 198.141705,65.5723602 Z M362.141705,4.65937874 L359.489201,4.65937874 C360.172599,4.69007921 360.817849,4.3482582 361.168859,3.76957971 C361.51987,3.19090123 361.51987,2.46895816 361.168859,1.89027968 C360.817849,1.31160119 360.172599,0.96978018 359.489201,1.00048065 L338.003147,1.00048065 C337.319748,0.96978018 336.674499,1.31160119 336.323488,1.89027968 C335.972478,2.46895816 335.972478,3.19090123 336.323488,3.76957971 C336.674499,4.3482582 337.319748,4.69007921 338.003147,4.65937874 L340.655651,4.65937874 C339.629343,4.65937874 338.797356,5.47930152 338.797356,6.49072753 C338.797356,7.50215354 339.629343,8.32207632 340.655651,8.32207632 L336.942916,8.32207632 C336.259518,8.29137585 335.614268,8.63319686 335.263258,9.21187535 C334.912247,9.79055384 334.912247,10.5124969 335.263258,11.0911754 C335.614268,11.6698539 336.259518,12.0116749 336.942916,11.9809744 L358.42897,11.9809744 C359.112369,12.0116749 359.757618,11.6698539 360.108629,11.0911754 C360.459639,10.5124969 360.459639,9.79055384 360.108629,9.21187535 C359.757618,8.63319686 359.112369,8.29137585 358.42897,8.32207632 L362.141705,8.32207632 C363.168013,8.32207632 364,7.50215354 364,6.49072753 C364,5.47930152 363.168013,4.65937874 362.141705,4.65937874 Z" opacity=".1"/>
      <path fill="#535461" d="M274,206.704708 C274.552285,206.704708 275,206.257631 275,205.706134 C275,205.154637 274.552285,204.707561 274,204.707561 C273.447715,204.707561 273,205.154637 273,205.706134 C273,206.257631 273.447715,206.704708 274,206.704708 Z"/>
    </g>
    <polygon fill="url(#bg-b)" points="0 455.443 830.742 370 1680 455.443 1680 700 0 700"/>
  </g>
</svg>
