<svg xmlns="http://www.w3.org/2000/svg" width="1680" height="700">
    <defs>
        <linearGradient id="a" x1="50%" x2="50%" y1="100%" y2="0%">
            <stop offset="0%" stop-color="#5C937A"/>
            <stop offset="100%" stop-color="#23395B"/>
        </linearGradient>
        <linearGradient id="b" x1="50%" x2="50%" y1="0%" y2="154.844%">
            <stop offset="0%" stop-color="#496B94"/>
            <stop offset="100%" stop-color="#23395B"/>
        </linearGradient>
    </defs>
    <g fill="none" fill-rule="evenodd">
        <path fill="url(#a)" transform="matrix(-1 0 0 1 1680 0)" d="M0 0h1680v700.001H0z"/>
        <path fill="#23395B" d="M1657.618 341.633v-31.777h-18.901v31.777h-22.382v-49.155h-16.414v-36.743h-13.429V218h-27.853v37.735h-13.43v36.743h-15.916v-44.19h-8.953v-22.344h-5.471v22.344h-31.832v141.011h-24.372v-14.896h-14.922v14.896h-24.371v-47.666h-43.77v-31.777h-18.9v31.777h-.995v61.072h-19.895v-35.75h-23.875v35.75h-19.895V292.478h-15.419v-36.743h-56.702v36.743H1205v194.138h475V341.633z"/>
        <path fill="#155775" opacity=".4" d="M1215 303.877h20v11.983h-20zm66 11.985h-20v-11.983h20zm-66 11.981h20v11.983h-20zm66 11.983h-20v-11.983h20zm-66 10.984h20v11.983h-20zm66 11.985h-20v-11.983h20zm-66 10.982h20v11.983h-20zm66 11.985h-20v-11.983h20zm-66 11.981h20v11.983h-20zm66 11.985h-20v-11.983h20zm-66 10.982h20v11.983h-20zm66 11.983h-20V420.71h20z"/>
        <path fill="#FFF" opacity=".4" d="M1215 443.678h20v11.983h-20zm66 11.981h-20v-11.983h20z"/>
        <path fill="#155775" opacity=".4" d="M1299 414.719h49v5.991h-49zm0 8.987h49v5.991h-49zm0 7.989h49v5.991h-49zm128-13.98h49v5.991h-49zm0 8.987h49v5.991h-49zm0 8.987h49v5.991h-49zm-128 5.991h49v5.991h-49z"/>
        <path fill="#FFF" opacity=".4" d="M1299 450.668h49v5.991h-49zm0 8.987h49v5.991h-49z"/>
        <path fill="#155775" opacity=".4" d="M1366 352.807h14v17.974h-14zm43 17.976h-14v-17.974h14zm-43 9.984h14v17.974h-14zm43 17.976h-14v-17.974h14zm-43 9.985h14v17.974h-14zm43 17.974h-14v-17.974h14zm-43 9.986h14v17.974h-14zm43 17.974h-14v-17.974h14zm73-194.722h19v22.967h-19zm0 32.953h19v22.967h-19zm0 32.953h19v22.967h-19zm0 31.954h19v22.967h-19zm0 33.952h19v22.967h-19zm0 31.954h19v22.967h-19zm58-117.832h66v18.973h-66zm1 41.941h66v18.973h-66zm0 41.94h66v18.973h-66zm0 41.94h66v18.973h-66zm-321-165.763h9v18.973h-9zm438 86.875h22v28.959h-22zm0 41.941h22v28.959h-22zm0 41.94h22v28.959h-22z"/>
        <path fill="#252223" fill-rule="nonzero" d="M1335.63 241.632h-3.385a2.381 2.381 0 0 0 2.143-1.132 2.297 2.297 0 0 0 0-2.392 2.381 2.381 0 0 0-2.143-1.133h-27.413a2.381 2.381 0 0 0-2.143 1.133 2.297 2.297 0 0 0 0 2.392 2.381 2.381 0 0 0 2.143 1.132h3.384c-1.31 0-2.371 1.044-2.371 2.33 0 1.288 1.061 2.332 2.37 2.332h-4.736a2.381 2.381 0 0 0-2.143 1.132 2.297 2.297 0 0 0 0 2.392 2.381 2.381 0 0 0 2.143 1.132h27.413a2.381 2.381 0 0 0 2.143-1.132 2.297 2.297 0 0 0 0-2.392 2.381 2.381 0 0 0-2.143-1.132h4.737c1.31 0 2.371-1.044 2.371-2.331s-1.062-2.33-2.37-2.33Zm123 59.915h-3.385a2.381 2.381 0 0 0 2.143-1.133 2.297 2.297 0 0 0 0-2.392 2.381 2.381 0 0 0-2.143-1.132h-27.413a2.381 2.381 0 0 0-2.143 1.132 2.297 2.297 0 0 0 0 2.392 2.381 2.381 0 0 0 2.143 1.133h3.384c-1.31 0-2.371 1.043-2.371 2.33 0 1.288 1.061 2.331 2.37 2.331h-4.736a2.381 2.381 0 0 0-2.143 1.133 2.297 2.297 0 0 0 0 2.391 2.381 2.381 0 0 0 2.143 1.133h27.413a2.381 2.381 0 0 0 2.143-1.133 2.297 2.297 0 0 0 0-2.391 2.381 2.381 0 0 0-2.143-1.133h4.737c.847 0 1.63-.444 2.053-1.165a2.297 2.297 0 0 0 0-2.331 2.379 2.379 0 0 0-2.053-1.165Zm209-77.89h-3.385a2.381 2.381 0 0 0 2.143-1.132 2.297 2.297 0 0 0 0-2.392 2.381 2.381 0 0 0-2.143-1.132h-27.413a2.381 2.381 0 0 0-2.143 1.132 2.297 2.297 0 0 0 0 2.392 2.381 2.381 0 0 0 2.143 1.133h3.384c-1.31 0-2.371 1.043-2.371 2.33 0 1.288 1.061 2.331 2.37 2.331h-4.736a2.381 2.381 0 0 0-2.143 1.133 2.297 2.297 0 0 0 0 2.392 2.381 2.381 0 0 0 2.143 1.132h27.413a2.381 2.381 0 0 0 2.143-1.132 2.297 2.297 0 0 0 0-2.392 2.381 2.381 0 0 0-2.143-1.133h4.737c1.31 0 2.371-1.043 2.371-2.33 0-1.288-1.062-2.331-2.37-2.331Z" opacity=".1"/>
        <path fill="#535461" d="M1555 480.625a1 1 0 1 0 .001-1.999 1 1 0 0 0-.001 1.999Z"/>
        <path fill="#23395B" d="M17.529 358.976V334.05h14.802v24.926H49.86v-38.557h12.854v-28.82h10.517V262h21.814v29.599h10.517v28.82h12.465v-34.662h7.012v-17.526h4.285v17.526h24.929v110.607h19.087v-11.683h11.686v11.683h19.087v-37.388h34.279V334.05h14.802v24.926h.779v47.904h15.581v-28.041h18.697v28.041h15.581v-86.461h12.076v-28.82h44.406v28.82H372v152.28H0V358.976z"/>
        <path fill="#155775" opacity=".4" d="M364 329.903h-16v8.987h16zm-52 8.987h16v-8.987h-16zm52 8.987h-16v8.987h16zm-52 8.987h16v-8.987h-16zm52 9.986h-16v8.987h16zm-52 8.987h16v-8.987h-16zm52 8.988h-16v8.987h16zm-52 8.985h16v-8.987h-16zm52 8.989h-16v8.987h16zm-52 8.987h16v-8.987h-16zm52 8.987h-16v8.987h16zm-52 8.989h16v-8.987h-16zm52 8.986h-16v8.987h16zm-52 8.985h16v-8.987h-16zm-14-31.953h-38v4.993h38zm0 6.99h-38v4.993h38zm0 6.99h-38v4.993h38zm-100-10.984h-38v4.993h38zm0 6.99h-38v4.993h38zm0 6.99h-38v4.993h38zm100 4.993h-38v4.993h38zm0 6.99h-38v4.993h38zm0 6.99h-38v4.993h38zm-52-83.88h-11v13.98h11zm-34 13.98h11v-13.98h-11zm34 7.988h-11v13.98h11zm-34 13.98h11v-13.98h-11zm34 7.989h-11v13.98h11zm-34 13.98h11v-13.98h-11zm34 7.989h-11v13.98h11zm-34 13.98h11v-13.98h-11zm-57-152.782h-15v17.974h15zm0 25.963h-15v17.974h15zm0 25.963h-15v17.974h15zm0 24.964h-15v17.974h15zm0 26.962h-15v17.974h15zm0 24.964h-15v17.974h15zm-45-92.867H58v14.979h52zm-1 32.952H57v14.979h52zm0 32.953H57v14.979h52zm0 32.953H57v14.979h52zm251-129.814h-7v14.979h7zM17 367.849H0v22.967h17zm0 32.953H0v22.967h17zm0 32.953H0v22.967h17z"/>
        <path fill="#252223" fill-rule="nonzero" d="M269.858 280.64h2.653a1.865 1.865 0 0 1-1.68-.89 1.809 1.809 0 0 1 0-1.88c.351-.578.996-.92 1.68-.89h21.486a1.865 1.865 0 0 1 1.68.89c.35.579.35 1.3 0 1.88a1.87 1.87 0 0 1-1.68.89h-2.653c1.027 0 1.859.82 1.859 1.83 0 1.012-.832 1.832-1.859 1.832h3.713a1.865 1.865 0 0 1 1.68.89c.35.579.35 1.3 0 1.88-.351.578-.997.92-1.68.889h-21.486a1.865 1.865 0 0 1-1.68-.89 1.809 1.809 0 0 1 0-1.88c.351-.578.997-.92 1.68-.889h-3.713c-1.026 0-1.858-.82-1.858-1.831 0-1.012.832-1.832 1.858-1.832Zm-96 46.932h2.653a1.865 1.865 0 0 1-1.68-.89 1.809 1.809 0 0 1 0-1.879c.351-.578.996-.92 1.68-.89h21.486a1.865 1.865 0 0 1 1.68.89c.35.579.35 1.3 0 1.88a1.87 1.87 0 0 1-1.68.89h-2.653c1.027 0 1.859.82 1.859 1.83 0 1.012-.832 1.832-1.859 1.832h3.713a1.865 1.865 0 0 1 1.68.89c.35.579.35 1.3 0 1.88-.351.578-.997.92-1.68.889h-21.486a1.865 1.865 0 0 1-1.68-.89 1.809 1.809 0 0 1 0-1.88c.351-.578.997-.92 1.68-.889h-3.713a1.862 1.862 0 0 1-1.609-.916 1.808 1.808 0 0 1 0-1.831 1.863 1.863 0 0 1 1.61-.916Zm-164-60.913h2.653a1.865 1.865 0 0 1-1.68-.89 1.809 1.809 0 0 1 0-1.879c.351-.578.996-.92 1.68-.89h21.486a1.865 1.865 0 0 1 1.68.89c.35.579.35 1.3 0 1.88a1.87 1.87 0 0 1-1.68.89h-2.653c1.027 0 1.859.82 1.859 1.83 0 1.012-.832 1.832-1.859 1.832h3.713a1.865 1.865 0 0 1 1.68.89c.35.579.35 1.3 0 1.88-.351.578-.997.92-1.68.889H13.571a1.865 1.865 0 0 1-1.68-.89 1.809 1.809 0 0 1 0-1.88c.351-.578.997-.92 1.68-.889H9.858c-1.026 0-1.858-.82-1.858-1.831 0-1.012.832-1.832 1.858-1.832Z" opacity=".1"/>
        <path fill="#535461" d="M98 468.705a1 1 0 1 1-.001-1.999 1 1 0 0 1 .001 1.999Z"/>
        <path fill="url(#b)" d="M0 455.443 830.742 370 1680 455.443V700H0z"/>
    </g>
</svg>
