<svg width="152" height="105" xmlns="http://www.w3.org/2000/svg">
    <g fill="none" fill-rule="evenodd">
        <g opacity=".8">
            <path d="M151.946 41.86s-2.635-1.072-11.018 2.782c-8.384 3.854-9.43 3.365-11.6 2.775-2.171-.59-3.382-.728-5.709-3.945 0 0-1.635-8.914-3.229-10.303-1.593-1.388-8.336.79-8.336.79s-8.089 1.863-9.64-8.976c0 0 1.093-8.167-.398-10.674 0 0 3.01 1.3 7.972-.799 4.963-2.098 8.935 2.262 8.935 2.262s1.252 3.248 1.121 5.182c-.13 1.934.662 2.664 3.038 1.728 0 0 1.168-1.658-.484-4.398-1.652-2.739-2.822-4.78-2.362-6.91.46-2.128 1.78-5.075 6.026-6.555 4.245-1.48 10.014-1.756 12.782-2.899 2.77-1.143 3.437-1.908 3.437-1.908s-1.703 1.711 2.311 8.96c4.014 7.25 1.456 10.399 1.456 10.399s-2.136 5.1-11.561 4.683c0 0-9.082.332-4.13 4.191 0 0 3.17-.646 7.913-2.156 4.743-1.51 8.16 4.722 9.011 9.059.85 4.336 4.465 6.713 4.465 6.713Z" fill="#5B937A" fill-rule="nonzero"/>
            <path d="m139.74 5.5.05-.014c.364 1.384-3.694 6.942-7.164 11.363l-.04-.03c4.893-6.236 7.444-10.256 7.155-11.319Z" fill="#444053" fill-rule="nonzero"/>
            <path d="m132.657 16.727.02.057c-2.77 3.53-6.256 7.745-9.046 10.866-.267.298-.53.61-.783.937l-.082-.063c.257-.321.521-.635.788-.937a243.533 243.533 0 0 0 9.103-10.86Z" fill="#444053" fill-rule="nonzero"/>
            <path d="m122.834 28.43.056.094c-5.077 6.352-5.413 16.214-5.425 16.301l-1.07-1.227c.012-.098 1.327-8.773 6.44-15.168Z" fill="#444053" fill-rule="nonzero"/>
            <path d="M146.06 38.416s-5.985-3.118-10.651-2c-4.666 1.12-15.168-3.956-15.168-3.956s-4.46-1.815-5.358-3.885c0 0-3.058-3.243-3.233-4.917-.176-1.674-3.162-5.898-5.096-6.05" stroke="#444053"/>
            <path d="M145.194 41.418s-3.014-2.035-2.664-4.409m-1.96 7.039s-4.313-1.57-4.745-7.727m-2.213 9.319s-4.121-3.426-2.752-9.413m-5.61 7.739s-2.743-5.767-.301-9.518m21.181.166s-3.118.993-2.448 2.636m-1.315-8.307s-4.173 1.325-4.271 7.242m-1.546-8.607s-3.798 4.697-3.529 8.965M129.9 29.42s-3.774 3.613-3.293 5.62m1.017-6.896s-3.538.635-4.03-.529m-.566-3.751s1.787 2.372 2.248 1.84m15.467-3.341s-8.916.649-10.932-2.044m-8.659-8.406s4.184 8.999 7.222 10.146m-2.83-14.433s2.57 8.277 5.753 10.862" stroke="#444053"/>
            <path d="M144.495 15.533s-6.775 2.915-10.85-.035m-2.063-9.638s1.549 6.088 3.635 7.557m8.255-4.707s-3.81 1.445-5.234.337" stroke="#444053" stroke-width=".75"/>
            <path d="M119.764 25.852s0 5.304-1.442 5.68m-10.338 1.192s5.724.492 8.362-2.468m1.941-10.67s-1.383 5.386-5.203 6.828m-8.533.644s4.052 1.405 7.535-2.182m1.699-9.914s-.383 4.568-2.862 6.706m-6.217-1.571s3.362.02 4.15-1.075" stroke="#444053"/>
        </g>
        <path d="M62 63.96a16.039 16.039 0 1 1-16.039 16.037c.002-8.857 7.182-16.036 16.04-16.036ZM62 60a20 20 0 1 0 20 19.997C81.987 68.957 73.04 60.012 62 60Zm-3-5h5v5h-5z" fill="#1A688B" fill-rule="nonzero"/>
        <path fill="#1A688B" fill-rule="nonzero" d="m72.708 58.402 4.001 2.401-2.53 4.207-4.001-2.401zm9.943 8.036 2.263 4.078-4.297 2.379-2.263-4.077zm2.413 24.939L82.59 95.33l-4.167-2.6 2.474-3.954zM46.975 68.816l-2.263 4.077-4.297-2.379 2.263-4.077zm-2.542 19.958 2.473 3.954-4.166 2.6-2.474-3.953zm10.716-26.165-4.001 2.4-2.53-4.206 4-2.4zM59 100h5v5h-5zm11.178-.706 4.001-2.4 2.531 4.206-4.001 2.4zm-17.559 4.207-4.001-2.4 2.53-4.207 4.002 2.4zM38 78h6v5h-6zm50 5h-6v-5h6zm12-47.04a16.039 16.039 0 1 1-16.039 16.037c.002-8.857 7.182-16.036 16.04-16.036Zm0-3.96a20 20 0 1 0 20 19.997c-.013-11.04-8.96-19.985-20-19.997Zm-3-5h5v5h-5z"/>
        <path fill="#1A688B" fill-rule="nonzero" d="m109.81 29.691 4 2.401-2.53 4.206-4-2.4zm9.942 8.037 2.263 4.077-4.297 2.38-2.263-4.078zm2.411 24.939-2.474 3.954-4.167-2.6 2.474-3.954zM84.074 40.109l-2.263 4.077-4.298-2.379 2.263-4.077zm-2.542 19.957 2.474 3.954-4.167 2.6-2.474-3.953zm10.717-26.168-4.001 2.4-2.53-4.206 4-2.4zM97 71h5v5h-5zm10.278-.415 4.001-2.4 2.53 4.206-4 2.4zM89.717 74.79l-4-2.4 2.53-4.207 4.001 2.401zM74 50h6v5h-6zm52 5h-6v-5h6zM25.994 34.96h.566c8.743.3 15.632 7.553 15.484 16.303-.149 8.75-7.281 15.766-16.029 15.767h-.568c-8.743-.298-15.633-7.553-15.484-16.304.15-8.75 7.283-15.766 16.031-15.765Zm0-3.96C15.086 30.999 6.19 39.746 6.003 50.657c-.187 10.912 8.404 19.959 19.306 20.331.233 0 .466.012.7.012 10.907 0 19.802-8.748 19.988-19.659.186-10.91-8.405-19.957-19.306-20.33-.233 0-.466-.011-.7-.011h.003Z"/>
        <path fill="#1A688B" fill-rule="nonzero" d="m23.468 26.393 4.665.162-.171 4.904-4.665-.162zm12.914 2.437 3.915 2.537-2.675 4.117-3.915-2.539zm9.659 8.375 2.12 4.153-4.378 2.229-2.12-4.154zm1.547 25-2.61 3.866-4.073-2.744 2.61-3.865zM10.303 38.342 7.9 42.338l-4.212-2.526 2.403-3.997zM6.744 58.566l2.333 4.055-4.274 2.454-2.334-4.056zm11.949-26.148-4.082 2.261-2.382-4.292 4.082-2.26zm3.241 38.115 4.665.161-.17 4.905-4.666-.162zm10.504-.922 4.082-2.26 2.383 4.291-4.082 2.261zm-17.692 3.59-3.915-2.538 2.675-4.116 3.915 2.538zM.587 48.186l5.647.196-.145 4.168-5.647-.196zm49.949 5.9-5.648-.196.145-4.168 5.648.196z"/>
    </g>
</svg>
