<?xml version="1.0" encoding="UTF-8"?>
<svg width="152px" height="105px" viewBox="0 0 152 105" version="1.1" xmlns="http://www.w3.org/2000/svg" xmlns:xlink="http://www.w3.org/1999/xlink">
    <g id="Page-1" stroke="none" stroke-width="1" fill="none" fill-rule="evenodd">
        <g id="undraw_in_progress_ql66" transform="translate(0.000000, 0.000000)">
            <g id="Group" opacity="0.8" transform="translate(102.000000, 0.000000)">
                <path d="M49.9462617,41.8606829 C49.9462617,41.8606829 47.3107477,40.7882927 38.9275701,44.6423415 C30.5443925,48.4963902 29.4976636,48.0070244 27.3271028,47.4169756 C25.1565421,46.8269268 23.9462617,46.6887805 21.6191589,43.4716098 C21.6191589,43.4716098 19.9836449,34.5576585 18.3901869,33.1691707 C16.796729,31.7806829 10.0537383,33.9582439 10.0537383,33.9582439 C10.0537383,33.9582439 1.96495327,35.8220488 0.413551402,24.9834146 C0.413551402,24.9834146 1.50700935,16.8163902 0.0163551402,14.3086829 C0.0163551402,14.3086829 3.02570093,15.6081951 7.98831776,13.5102439 C12.9509346,11.4122927 16.9228972,15.7720976 16.9228972,15.7720976 C16.9228972,15.7720976 18.1752336,19.0197073 18.0443925,20.9537561 C17.9135514,22.8878049 18.7056075,23.6183415 21.0817757,22.6817561 C21.0817757,22.6817561 22.25,21.024 20.5981308,18.2844878 C18.9462617,15.5449756 17.7757009,13.5032195 18.2359813,11.3748293 C18.6962617,9.24643902 20.0163551,6.29853659 24.2616822,4.81873171 C28.5070093,3.33892683 34.2757009,3.06263415 37.0443925,1.92 C39.8130841,0.777365854 40.4813084,0.0117073171 40.4813084,0.0117073171 C40.4813084,0.0117073171 38.7780374,1.72331707 42.7920561,8.9724878 C46.8060748,16.2216585 44.2476636,19.3709268 44.2476636,19.3709268 C44.2476636,19.3709268 42.1121495,24.4706341 32.6869159,24.0538537 C32.6869159,24.0538537 23.6051402,24.3863415 28.5560748,28.2450732 C28.5560748,28.2450732 31.7266355,27.5988293 36.4696262,26.0885854 C41.2126168,24.5783415 44.6308411,30.8113171 45.4813084,35.1477073 C46.3317757,39.4840976 49.9462617,41.8606829 49.9462617,41.8606829 Z" id="Path" fill="#5B937A" fill-rule="nonzero"></path>
                <path d="M37.7406542,5.50009756 L37.7897196,5.48604878 C38.1542056,6.86985366 34.0957944,12.4284878 30.6261682,16.8491707 L30.5864486,16.8187317 C35.478972,10.5834146 38.0303738,6.56312195 37.7406542,5.50009756 Z" id="Path" fill="#444053" fill-rule="nonzero"></path>
                <path d="M30.6565421,16.7274146 L30.6775701,16.7836098 C27.9065421,20.3145366 24.4205607,24.5291707 21.6308411,27.6503415 C21.364486,27.9477073 21.1004673,28.259122 20.8481308,28.5869268 L20.7663551,28.5237073 C21.0233645,28.2029268 21.2873832,27.8891707 21.5537383,27.587122 C24.3434579,24.4612683 27.8878505,20.256 30.6565421,16.7274146 Z" id="Path" fill="#444053" fill-rule="nonzero"></path>
                <path d="M20.8341121,28.4300488 L20.8901869,28.5237073 C15.8130841,34.8760976 15.4766355,44.7383415 15.4649533,44.8249756 L14.3948598,43.5980488 C14.4065421,43.4997073 15.7219626,34.8245854 20.8341121,28.4300488 Z" id="Path" fill="#444053" fill-rule="nonzero"></path>
                <path d="M44.0607477,38.4163902 C44.0607477,38.4163902 38.0747664,35.297561 33.4088785,36.4167805 C28.7429907,37.536 18.2406542,32.4597073 18.2406542,32.4597073 C18.2406542,32.4597073 13.7803738,30.6450732 12.8831776,28.5752195 C12.8831776,28.5752195 9.82476636,25.3322927 9.64953271,23.6581463 C9.47429907,21.984 6.48831776,17.76 4.55373832,17.6078049" id="Path" stroke="#444053"></path>
                <path d="M43.1939252,41.4181463 C43.1939252,41.4181463 40.1799065,39.3834146 40.5303738,37.0091707" id="Path" stroke="#444053"></path>
                <path d="M38.5700935,44.0476098 C38.5700935,44.0476098 34.2570093,42.4788293 33.8247664,36.3207805" id="Path" stroke="#444053"></path>
                <path d="M31.6121495,45.6398049 C31.6121495,45.6398049 27.4906542,42.2142439 28.8598131,36.227122" id="Path" stroke="#444053"></path>
                <path d="M23.25,43.9656585 C23.25,43.9656585 20.5070093,38.1986341 22.9485981,34.4476098" id="Path" stroke="#444053"></path>
                <path d="M44.1308411,34.6138537 C44.1308411,34.6138537 41.0116822,35.6066341 41.682243,37.2503415" id="Path" stroke="#444053"></path>
                <path d="M40.3668224,28.9428293 C40.3668224,28.9428293 36.1939252,30.2680976 36.0957944,36.1849756" id="Path" stroke="#444053"></path>
                <path d="M34.5490654,27.5777561 C34.5490654,27.5777561 30.7523364,32.2747317 31.021028,36.5432195" id="Path" stroke="#444053"></path>
                <path d="M27.8995327,29.4204878 C27.8995327,29.4204878 24.1261682,33.0333659 24.6074766,35.04" id="Path" stroke="#444053"></path>
                <path d="M25.6238318,28.1443902 C25.6238318,28.1443902 22.0864486,28.7789268 21.5934579,27.6152195" id="Path" stroke="#444053"></path>
                <path d="M21.0280374,23.8641951 C21.0280374,23.8641951 22.8154206,26.2360976 23.2757009,25.7045854" id="Path" stroke="#444053"></path>
                <path d="M38.7429907,22.3633171 C38.7429907,22.3633171 29.8271028,23.0119024 27.8107477,20.3192195" id="Path" stroke="#444053"></path>
                <path d="M19.1518692,11.9133659 C19.1518692,11.9133659 23.3364486,20.9116098 26.3738318,22.0589268" id="Path" stroke="#444053"></path>
                <path d="M23.5443925,7.62614634 C23.5443925,7.62614634 26.114486,15.9032195 29.296729,18.4881951" id="Path" stroke="#444053"></path>
                <path d="M42.4953271,15.5332683 C42.4953271,15.5332683 35.7196262,18.4483902 31.6448598,15.4981463" id="Path" stroke="#444053" stroke-width="0.75"></path>
                <path d="M29.5817757,5.86068293 C29.5817757,5.86068293 31.1308411,11.9484878 33.2172897,13.4165854" id="Path" stroke="#444053" stroke-width="0.75"></path>
                <path d="M41.4719626,8.7102439 C41.4719626,8.7102439 37.661215,10.1549268 36.2383178,9.04741463" id="Path" stroke="#444053" stroke-width="0.75"></path>
                <path d="M17.7640187,25.8520976 C17.7640187,25.8520976 17.7640187,31.1555122 16.3224299,31.5324878" id="Path" stroke="#444053"></path>
                <path d="M5.98364486,32.7242927 C5.98364486,32.7242927 11.7079439,33.216 14.3457944,30.2563902" id="Path" stroke="#444053"></path>
                <path d="M16.2873832,19.5863415 C16.2873832,19.5863415 14.9042056,24.9717073 11.0841121,26.4140488" id="Path" stroke="#444053"></path>
                <path d="M2.55140187,27.0579512 C2.55140187,27.0579512 6.60280374,28.4628293 10.0864486,24.8757073" id="Path" stroke="#444053"></path>
                <path d="M11.7850467,14.9619512 C11.7850467,14.9619512 11.4018692,19.5301463 8.9228972,21.6679024" id="Path" stroke="#444053"></path>
                <path d="M2.70560748,20.0967805 C2.70560748,20.0967805 6.06775701,20.1178537 6.85514019,19.0220488" id="Path" stroke="#444053"></path>
            </g>
            <path d="M62.0002924,63.9607995 C68.4876372,63.9607995 74.3361524,67.8688063 76.8185341,73.8624216 C79.3009157,79.8560369 77.9282678,86.7548401 73.3406891,91.3417524 C68.7531104,95.9286647 61.8541079,97.3003105 55.8608534,94.8170581 C49.8675988,92.3338057 45.9604418,86.4847227 45.9613839,79.9973779 C45.9626708,71.1402434 53.1431578,63.9607995 62.0002924,63.9607995 L62.0002924,63.9607995 Z M62.0002924,60 C53.9109537,60 46.6181872,64.8730246 43.522749,72.3466892 C40.4273108,79.8203539 42.138828,88.4227676 47.8591874,94.1424606 C53.5795468,99.8621537 62.1821597,101.572669 69.6554637,98.4763598 C77.1287676,95.3800509 82.0009424,88.0867166 82,79.9973779 C81.9871586,68.9575451 73.0401266,60.0115553 62.0002924,60 L62.0002924,60 Z" id="Shape" fill="#1A688B" fill-rule="nonzero"></path>
            <rect id="Rectangle" fill="#1A688B" fill-rule="nonzero" x="59" y="55" width="5" height="5"></rect>
            <polygon id="Rectangle" fill="#1A688B" fill-rule="nonzero" transform="translate(73.443482, 61.706150) rotate(31.000000) translate(-73.443482, -61.706150) " points="71.1117972 59.2529302 75.7778883 59.2503452 75.7751671 64.1593704 71.109076 64.1619554"></polygon>
            <polygon id="Rectangle" fill="#1A688B" fill-rule="nonzero" transform="translate(81.634156, 69.666642) rotate(61.000000) translate(-81.634156, -69.666642) " points="79.3038799 67.211831 83.967045 67.2093481 83.9644314 72.1214534 79.3012662 72.1239362"></polygon>
            <polygon id="Rectangle" fill="#1A688B" fill-rule="nonzero" transform="translate(81.743476, 92.053073) rotate(122.000000) translate(-81.743476, -92.053073) " points="79.4103745 89.5958453 84.0738077 89.5984767 84.0765778 94.5102998 79.4131446 94.5076684"></polygon>
            <polygon id="Rectangle" fill="#1A688B" fill-rule="nonzero" transform="translate(43.694986, 69.665093) rotate(119.000000) translate(-43.694986, -69.665093) " points="41.3620969 67.2077993 46.0252621 67.2102821 46.0278758 72.1223874 41.3647106 72.1199045"></polygon>
            <polygon id="Rectangle" fill="#1A688B" fill-rule="nonzero" transform="translate(43.586276, 92.051270) rotate(58.000000) translate(-43.586276, -92.051270) " points="41.2559442 89.5966745 45.9193774 89.594043 45.9166073 94.5058662 41.2531741 94.5084976"></polygon>
            <polygon id="Rectangle" fill="#1A688B" fill-rule="nonzero" transform="translate(51.883190, 61.705812) rotate(149.000000) translate(-51.883190, -61.705812) " points="49.5487839 59.2500064 54.214875 59.2525914 54.2175963 64.1616166 49.5515052 64.1590316"></polygon>
            <rect id="Rectangle" fill="#1A688B" fill-rule="nonzero" x="59" y="100" width="5" height="5"></rect>
            <polygon id="Rectangle" fill="#1A688B" fill-rule="nonzero" transform="translate(73.444144, 100.197180) rotate(-31.000000) translate(-73.444144, -100.197180) " points="71.1097377 97.7413752 75.7758288 97.7439603 75.7785501 102.652985 71.112459 102.6504"></polygon>
            <polygon id="Rectangle" fill="#1A688B" fill-rule="nonzero" transform="translate(51.883851, 100.197506) rotate(-149.000000) translate(-51.883851, -100.197506) " points="49.5521662 97.744286 54.2182573 97.741701 54.2155361 102.650726 49.549445 102.653312"></polygon>
            <rect id="Rectangle" fill="#1A688B" fill-rule="nonzero" x="38" y="78" width="6" height="5"></rect>
            <rect id="Rectangle" fill="#1A688B" fill-rule="nonzero" transform="translate(85.000000, 80.500000) rotate(-180.000000) translate(-85.000000, -80.500000) " x="82" y="78" width="6" height="5"></rect>
            <path d="M100.000292,35.9607995 C106.487637,35.9607995 112.336152,39.8688063 114.818534,45.8624216 C117.300916,51.8560369 115.928268,58.7548401 111.340689,63.3417524 C106.75311,67.9286647 99.8541079,69.3003105 93.8608534,66.8170581 C87.8675988,64.3338057 83.9604418,58.4847227 83.9613839,51.9973779 C83.9626708,43.1402434 91.1431578,35.9607995 100.000292,35.9607995 L100.000292,35.9607995 Z M100.000292,32 C91.9109537,32 84.6181872,36.8730246 81.522749,44.3466892 C78.4273108,51.8203539 80.138828,60.4227676 85.8591874,66.1424606 C91.5795468,71.8621537 100.18216,73.5726687 107.655464,70.4763598 C115.128768,67.3800509 120.000942,60.0867166 120,51.9973779 C119.987159,40.9575451 111.040127,32.0115553 100.000292,32 Z" id="Shape" fill="#1A688B" fill-rule="nonzero"></path>
            <rect id="Rectangle" fill="#1A688B" fill-rule="nonzero" x="97" y="27" width="5" height="5"></rect>
            <polygon id="Rectangle" fill="#1A688B" fill-rule="nonzero" transform="translate(110.544889, 32.994741) rotate(31.000000) translate(-110.544889, -32.994741) " points="108.213205 30.541521 112.879296 30.538936 112.876575 35.4479611 108.210483 35.4505462"></polygon>
            <polygon id="Rectangle" fill="#1A688B" fill-rule="nonzero" transform="translate(118.735173, 40.955959) rotate(61.000000) translate(-118.735173, -40.955959) " points="116.404897 38.5011479 121.068062 38.498665 121.065449 43.4107703 116.402284 43.4132531"></polygon>
            <polygon id="Rectangle" fill="#1A688B" fill-rule="nonzero" transform="translate(118.842653, 63.343717) rotate(122.000000) translate(-118.842653, -63.343717) " points="116.509551 60.8864898 121.172985 60.8891212 121.175755 65.8009444 116.512322 65.7983129"></polygon>
            <polygon id="Rectangle" fill="#1A688B" fill-rule="nonzero" transform="translate(80.793334, 40.958006) rotate(119.000000) translate(-80.793334, -40.958006) " points="78.4604447 38.5007117 83.1236099 38.5031945 83.1262235 43.4152998 78.4630584 43.4128169"></polygon>
            <polygon id="Rectangle" fill="#1A688B" fill-rule="nonzero" transform="translate(80.685309, 63.343167) rotate(58.000000) translate(-80.685309, -63.343167) " points="78.3549774 60.8885715 83.0184106 60.88594 83.0156405 65.7977631 78.3522073 65.8003946"></polygon>
            <polygon id="Rectangle" fill="#1A688B" fill-rule="nonzero" transform="translate(88.983115, 32.995145) rotate(149.000000) translate(-88.983115, -32.995145) " points="86.648709 30.5393397 91.3148001 30.5419248 91.3175213 35.4509499 86.6514302 35.4483649"></polygon>
            <rect id="Rectangle" fill="#1A688B" fill-rule="nonzero" x="97" y="71" width="5" height="5"></rect>
            <polygon id="Rectangle" fill="#1A688B" fill-rule="nonzero" transform="translate(110.543988, 71.488140) rotate(-31.000000) translate(-110.543988, -71.488140) " points="108.209582 69.032335 112.875673 69.0349201 112.878395 73.9439452 108.212304 73.9413602"></polygon>
            <polygon id="Rectangle" fill="#1A688B" fill-rule="nonzero" transform="translate(88.982214, 71.486893) rotate(-149.000000) translate(-88.982214, -71.486893) " points="86.6505291 69.0336724 91.3166202 69.0310874 91.313899 73.9401125 86.6478079 73.9426976"></polygon>
            <rect id="Rectangle" fill="#1A688B" fill-rule="nonzero" x="74" y="50" width="6" height="5"></rect>
            <rect id="Rectangle" fill="#1A688B" fill-rule="nonzero" transform="translate(123.000000, 52.500000) rotate(-180.000000) translate(-123.000000, -52.500000) " x="120" y="50" width="6" height="5"></rect>
            <path d="M25.9941801,34.9608574 C26.1828245,34.9608574 26.371469,34.9608574 26.5601134,34.9608574 C35.3026815,35.2591432 42.1924806,42.5132818 42.0437844,51.2633204 C41.8950882,60.013359 34.7627914,67.0290102 26.0151406,67.0298229 C25.8264961,67.0298229 25.6378517,67.0298229 25.4468783,67.0298229 C16.7038579,66.7315209 9.81388927,59.4766757 9.96322847,50.7261952 C10.1125677,41.9757147 17.2460765,34.9603996 25.9941801,34.9608574 L25.9941801,34.9608574 Z M25.9941801,31 L25.9941801,31 C15.0856219,30.9986525 6.18982517,39.7459409 6.00299036,50.6574527 C5.81615556,61.5689644 14.4072662,70.6159264 25.3094706,70.9883504 C25.542365,70.9883504 25.7752593,71 26.0081537,71 C36.9162571,71 45.8108382,62.25245 45.9970299,51.3413824 C46.1832217,40.4303148 37.5922839,31.3840605 26.6905343,31.0116496 C26.4576399,31.0116496 26.2247455,31 25.9918511,31 L25.9941801,31 Z" id="Shape" fill="#1A688B" fill-rule="nonzero"></path>
            <polygon id="Rectangle" fill="#1A688B" fill-rule="nonzero" transform="translate(25.714827, 28.925777) rotate(1.990000) translate(-25.714827, -28.925777) " points="23.3811149 26.4721798 28.0487522 26.4719766 28.0485383 31.3793741 23.380901 31.3795773"></polygon>
            <polygon id="Rectangle" fill="#1A688B" fill-rule="nonzero" transform="translate(37.001873, 32.156359) rotate(32.990000) translate(-37.001873, -32.156359) " points="34.6703264 29.7030878 39.3362348 29.7004136 39.3334197 34.6096311 34.6675113 34.6123053"></polygon>
            <polygon id="Rectangle" fill="#1A688B" fill-rule="nonzero" transform="translate(44.912308, 40.395806) rotate(62.990000) translate(-44.912308, -40.395806) " points="42.5820566 37.9408488 47.2450531 37.9384796 47.2425591 42.8507624 42.5795625 42.8531316"></polygon>
            <polygon id="Rectangle" fill="#1A688B" fill-rule="nonzero" transform="translate(44.246351, 62.766141) rotate(123.990000) translate(-44.246351, -62.766141) " points="41.9131128 60.3089703 46.5767317 60.3116845 46.5795888 65.2233121 41.9159699 65.2205979"></polygon>
            <polygon id="Rectangle" fill="#1A688B" fill-rule="nonzero" transform="translate(6.995332, 39.076773) rotate(120.990000) translate(-6.995332, -39.076773) " points="4.66230127 36.6195204 9.32564249 36.6221049 9.32836321 41.5340249 4.66502199 41.5314403"></polygon>
            <polygon id="Rectangle" fill="#1A688B" fill-rule="nonzero" transform="translate(5.773178, 61.820418) rotate(60.113473) translate(-5.773178, -61.820418) " points="3.43486264 59.3572167 8.11416588 59.3546784 8.11149376 64.2836193 3.43219052 64.2861577"></polygon>
            <polygon id="Rectangle" fill="#1A688B" fill-rule="nonzero" transform="translate(15.460966, 31.402743) rotate(150.990000) translate(-15.460966, -31.402743) " points="13.1265252 28.9470817 17.7927924 28.9495651 17.7954066 33.8584049 13.1291394 33.8559215"></polygon>
            <polygon id="Rectangle" fill="#1A688B" fill-rule="nonzero" transform="translate(24.181026, 73.065775) rotate(1.990000) translate(-24.181026, -73.065775) " points="21.8473143 70.6121775 26.5149516 70.6119742 26.5147377 75.5193718 21.8471004 75.519575"></polygon>
            <polygon id="Rectangle" fill="#1A688B" fill-rule="nonzero" transform="translate(35.670264, 70.626924) rotate(-29.010000) translate(-35.670264, -70.626924) " points="33.3358231 68.1712621 38.0020903 68.1737455 38.0047045 73.0825853 33.3384373 73.0801019"></polygon>
            <polygon id="Rectangle" fill="#1A688B" fill-rule="nonzero" transform="translate(14.125886, 69.874193) rotate(-147.010000) translate(-14.125886, -69.874193) " points="11.7943394 67.4209209 16.4602477 67.4182467 16.4574326 72.3274642 11.7915243 72.3301384"></polygon>
            <polygon id="Rectangle" fill="#1A688B" fill-rule="nonzero" transform="translate(3.338058, 50.368292) rotate(1.990000) translate(-3.338058, -50.368292) " points="0.512511935 48.2831186 6.1637865 48.2828725 6.1636047 52.4534653 0.512330138 52.4537114"></polygon>
            <polygon id="Rectangle" fill="#1A688B" fill-rule="nonzero" transform="translate(47.784414, 51.904157) rotate(-178.010000) translate(-47.784414, -51.904157) " points="44.9588677 49.8189838 50.6101423 49.8187378 50.6099605 53.9893306 44.9586859 53.9895766"></polygon>
        </g>
    </g>
</svg>
