<svg xmlns="http://www.w3.org/2000/svg" width="1226" height="623" viewBox="0 0 1226 623">
  <g fill="none" opacity=".3">
    <path fill="#3F3D56" d="M284.814379 58.4623106C284.374059 54.990479 283.483545 51.5903734 282.165177 48.3472851 281.825248 47.1072584 280.97828 46.0668798 279.831261 45.4804041 279.072961 45.2837686 278.277974 45.2748905 277.51545 45.4545421L265.625716 47.268994C264.630562 47.3143227 263.677704 47.6835732 262.912935 48.3202476 261.364354 49.9444847 262.889243 52.5599168 262.841836 54.8007267 262.788524 57.3204931 260.543706 59.3657983 258.109413 60.0424765 255.624574 60.5432077 253.061401 60.5115123 250.589774 59.949491L233.964411 57.3727695C238.860793 55.8137304 243.219035 52.9131313 246.54166 49.002063 248.729513 46.4171597 249.893478 41.5912114 246.731547 40.3671177 245.792072 40.1099906 244.81246 40.0315442 243.843884 40.1358764 236.311434 40.1942892 230.384023 33.9219518 223.332393 31.2802463 214.07424 28.0361133 203.774251 31.0984175 197.808376 38.8688283L206.664904 39.2946925C207.498119 39.2488311 208.324351 39.468599 209.024008 39.9221861 210.96495 41.5126381 208.551862 44.5675473 208.825293 47.0580191 209.180549 50.29368 213.488245 50.9845353 216.735454 51.3117244 219.982663 51.6389135 224.102122 54.2701803 222.540152 57.1282094 206.219313 62.734848 189.611088 46.1684499 172.470756 48.2077245 168.132638 48.7238588 164.036269 50.4235423 159.80085 51.4922997 133.927824 58.0210584 107.179706 40.6015799 80.7489727 44.2907185 74.8731082 45.2897455 69.0981426 46.8087584 63.4925289 48.8297517 59.8952623 50.0077407 56.143081 51.2807606 53.5293333 54.0127244 50.9155857 56.7446882 49.9208102 61.4168518 52.3969345 64.2735056 45.5720963 64.8340162 38.701672 64.1826829 32.1049503 62.3497752 35.7385831 64.3642258 37.9799242 68.1961451 37.9496762 72.3422385 27.293508 74.0752793 16.9194999 77.230022 7.10669762 81.7216086 8.93813868 84.7590414 11.0772628 87.6010264 13.4904601 90.2029104L0 98.846684C4.55771879 99.9919576 6.91417108 106.190224 4.26369561 110.061372 8.98953037 107.96459 11.9183761 102.540372 16.9718737 101.440651 20.28259 100.720183 23.6513213 102.07093 26.7920358 103.339812 29.9327502 104.608694 33.3847085 105.839089 36.6360191 104.886769 39.8873296 103.934449 42.2854602 99.7298583 40.2194833 97.0510173 54.1164156 93.0071659 68.4786007 90.7692802 82.9500389 90.3928312 84.0664974 90.2530947 85.1987337 90.4673936 86.1862387 91.0053483 88.0700733 92.3088266 87.5744241 95.1242305 87.4729511 97.4086765 87.371478 99.6931226 89.1567156 102.695473 91.2039043 101.665779 88.7953776 103.748737 90.8543532 107.670045 93.1650843 109.860425 95.4758153 112.050804 98.2609085 115.073185 96.8462262 117.922433 96.4770029 118.666071 95.8507671 119.26106 95.4955112 120.011433 94.4468933 122.226346 96.1118342 124.808546 98.0756544 126.279433 100.039475 127.75032 102.444949 128.77831 103.809112 130.815116 105.173276 132.851922 104.553782 136.417146 102.114433 136.701569L95.1809788 127.921797C92.8121191 130.371605 91.1881154 133.440959 90.4973057 136.773901 97.8496532 142.768269 98.9555552 154.969238 92.8002221 162.181411 89.6546868 165.867011 85.1815033 168.10654 81.2773894 170.981308 77.3732755 173.856077 73.7607213 177.949732 73.7705397 182.789646 73.787501 191.151407 73.1024488 198.919823 76.2441769 206.672335 82.0375524 220.967131 88.7262097 234.884574 96.2705796 248.34233 98.2517619 251.876203 100.812245 255.749502 104.825717 256.357976 99.7534784 244.042814 95.1874577 231.536055 91.1276551 218.837697 93.7719071 218.848018 96.8276383 219.057406 98.3777516 221.193957 99.6613405 222.96315 99.3856105 225.36856 99.7844542 227.515855 100.291743 229.596225 101.137657 231.57955 102.288525 233.386886L126.50993 276.417455C128.517844 279.984619 130.821044 283.813612 134.658562 285.258215 137.112091 286.181816 139.950708 286.007824 142.208988 287.33754 143.979091 288.379812 145.171296 290.229942 146.975817 291.211733 152.078171 293.987756 159.173518 288.663765 163.941821 291.978187 165.305219 292.925887 166.172578 294.431441 167.428845 295.516468 171.832769 299.320081 179.057052 296.775558 184.140913 299.612956 187.417377 301.441621 189.115427 305.098831 190.863029 308.413077 195.240585 316.714885 202.323709 324.848156 211.705224 325.509211 214.652138 325.716859 217.662302 325.159604 220.542892 325.813312 223.423482 326.467021 226.259118 328.974279 225.796719 331.884361 225.003994 336.873369 227.475533 342.336262 226.811756 347.343938 225.602672 356.46557 212.629679 360.474045 211.515349 369.607668 211.271361 371.60748 211.653255 373.671664 211.175817 375.629144 210.590646 378.028253 208.784075 379.981572 208.142127 382.366186 206.925594 386.885223 210.171906 391.382607 213.738162 394.422869 217.304417 397.463131 221.558318 400.084758 223.508029 404.34065 225.568832 408.839045 224.556577 414.084145 225.226789 418.984399 226.689939 429.682306 235.954681 437.612972 245.489365 442.72654 248.39439 444.284535 251.513558 445.792876 253.393809 448.495662 255.847939 452.023364 255.603456 456.673921 256.422937 460.889092 258.429897 471.212188 267.143403 479.717988 267.390809 490.230454 267.566658 497.702363 263.402137 504.480842 260.914426 511.530978 256.194904 525.199558 257.679821 540.240525 264.981658 552.728616 266.842638 555.862616 269.068421 558.817416 270.384884 562.214961 272.734122 568.277875 271.971854 575.169995 274.137914 581.300385 277.001637 589.405289 284.870579 596.099706 284.117446 604.660227 287.689925 612.059171 295.578621 615.694646 303.511106 617.896851L317.72792 621.843739C320.450083 622.599473 323.294629 623.361202 326.066509 622.813998 328.838389 622.266794 331.483749 619.971262 331.412191 617.154036 324.440465 615.585943 317.245142 613.918446 311.498105 609.681422 305.751069 605.444397 301.814247 597.899287 303.994768 591.111356 305.005857 587.963826 307.156923 584.32915 305.111856 581.728412 303.940914 580.239327 301.799749 579.850281 300.479019 578.491623 298.418971 576.372529 299.126725 572.812571 300.607708 570.257174 302.088692 567.701777 304.229303 565.418153 304.826661 562.527338 305.444257 559.215335 303.93278 555.869384 301.036196 554.136401 303.672301 553.143847 306.069734 551.609659 308.07295 549.633374 309.923487 547.52573 310.778282 544.276421 309.322581 541.880487 313.645447 542.427267 318.749027 542.695056 321.586748 539.397033 323.852784 536.763427 323.697138 532.826095 322.801761 529.472575 321.906385 526.119054 320.392987 522.861822 320.34584 519.391769 330.317914 519.863156 340.311909 519.525179 350.229062 518.381178 348.795001 513.564296 345.536174 509.493878 341.143586 507.033018 345.635075 506.275087 349.726906 500.912232 351.145914 496.595106 352.564922 492.27798 352.20303 487.575535 351.325958 483.117344 350.98911 481.969538 350.942942 480.756331 351.191588 479.586363 351.697374 477.978795 353.280785 476.997815 354.745727 476.158783L377.03985 463.389191C378.370216 462.724403 379.576125 461.836522 380.604915 460.764319 382.940682 458.028006 382.594678 453.897392 381.398689 450.5075 380.202701 447.117608 378.286959 443.929944 377.826281 440.365813 376.448398 429.706487 387.889453 422.05847 391.750616 412.024498 393.265887 408.086802 393.574703 403.8066 393.867936 399.599 394.182881 395.07988 394.20629 389.830725 390.727139 386.918503 387.392071 384.126915 382.181066 384.749624 378.691283 382.152989 375.491764 379.772313 374.387901 375.148711 370.892603 373.225804 367.718343 371.479533 363.73844 372.590152 360.208063 371.768847 353.992099 370.322775 350.08037 363.177796 343.73211 362.516223 340.150308 362.142953 336.096501 363.889341 333.160842 361.808911 330.574086 359.975744 330.470421 356.291178 329.978025 353.164678 328.210674 343.21276 320.414458 335.412289 310.441673 333.617665 306.748626 333.027002 302.728789 333.251319 299.587049 331.227232 296.405776 329.177648 294.947129 325.340391 292.44822 322.502029 288.420757 317.927482 282.077647 316.302211 276.135633 314.909038L251.966079 309.242259C247.675521 308.236287 242.145021 307.702873 239.842588 311.4512 239.161018 312.878395 238.678505 314.391908 238.408481 315.949606 236.638572 321.730589 231.332635 325.71365 225.272781 325.810315 223.247256 322.364412 219.96551 319.831913 216.112577 318.741452 213.661748 318.06026 211.038429 317.984496 208.701001 316.98231 206.128223 315.729883 204.186105 313.476089 203.331439 310.751029 202.476774 308.025969 202.784994 305.070155 204.183605 302.578806 207.048273 297.492061 206.140896 291.121926 201.969102 287.032134 197.8588 283.351882 191.913132 282.462666 186.401774 282.830905 184.958308 279.689687 187.371832 276.145587 189.972673 273.862822 192.573514 271.580057 195.731732 269.335803 196.298079 265.926914 197.189024 260.564718 190.328872 256.491999 185.120153 258.090845 179.911434 259.68969 176.586927 264.7355 174.389315 269.70932 173.128404 272.563106 172.056436 275.568231 170.067498 277.974569 168.07856 280.380907 164.875611 282.103854 161.846082 281.331604 157.557127 280.238349 155.900673 275.15632 154.951442 270.84399 153.677872 265.058234 152.396888 259.192212 152.663742 253.274653 152.930597 247.357095 154.930838 241.281121 159.30605 237.27515 166.435661 230.747225 177.372946 231.387156 186.994936 232.428476 184.721663 229.87402 185.283484 225.568967 187.715773 223.164592 190.322521 220.854728 193.904495 219.977084 197.287692 220.819311 200.187108 221.421242 202.799068 222.978772 204.703052 225.241143 207.437355 228.56591 208.214899 233.054983 210.281642 236.828854 212.348385 240.602726 216.995625 243.821565 220.799386 241.796902 224.084831 240.048128 224.606294 235.50451 223.788604 231.88099 222.970914 228.257471 221.234227 224.733978 221.530419 221.031591 222.095598 213.967008 229.438363 209.714631 235.917918 206.80516 242.397472 203.895689 249.816969 199.982832 250.84351 192.970149 250.878608 191.597103 251.138328 190.238992 251.612414 188.949449 252.330898 187.810475 253.329623 186.873779 254.513584 186.228464 273.424349 173.764326 292.649622 161.148037 314.263738 154.337395 315.388205 153.983051 315.520218 154.376858 316.666218 154.099253 318.270103 153.174747 317.207365 150.617234 315.669616 149.586964 314.131867 148.556694 312.076475 147.766599 311.686341 145.96047 311.399555 144.632799 312.1839 143.329144 312.38766 141.986297 312.888318 138.686546 308.930303 135.639936 305.856561 136.959143 304.120357 134.665927 307.555802 132.001322 310.33367 131.238559 318.675152 128.949 327.237843 127.553956 335.87624 127.077134 336.873072 126.91906 337.894365 127.092312 338.782737 127.570192 340.233617 128.572531 340.048245 130.87153 339.019995 132.302226 337.991745 133.732922 336.392292 134.631202 335.110931 135.841788 332.257148 138.614445 331.189886 142.741799 332.343235 146.545115 336.852887 148.832923 341.755654 151.188066 346.750312 150.38209 351.74497 149.576113 356.178113 143.979196 353.83043 139.509203 351.644204 135.346602 345.077203 134.407742 343.947904 129.845621 342.625689 124.504186 350.207209 119.753578 348.499411 114.522079 347.751346 112.230509 345.461478 110.881866 343.704387 109.227429 339.456948 105.07546 338.20466 98.7469652 340.552051 93.2969534 334.744505 94.3159055 328.802261 92.4613295 324.613107 88.3224047 320.800671 84.4851358 317.759167 78.4319316 312.345439 78.6036315 307.377455 78.7611544 303.098378 84.541656 298.453047 82.7781169 297.310217 82.3442589 296.10527 81.4612139 294.997954 81.978606 294.262694 82.454754 293.787528 83.2413938 293.709155 84.112218 292.528654 89.7411803 294.559435 96.1546887 291.483336 101.018783 288.135951 106.311869 280.393317 107.045702 276.335255 111.818751 274.132397 114.409732 273.278923 117.901074 271.254117 120.632697 269.229312 123.364319 264.931729 125.101068 262.501797 122.720568 264.961144 117.678161 263.601788 111.609922 259.224567 108.090831 256.968548 106.622879 254.536694 105.44316 251.986034 104.579341 249.135893 103.376131 246.424571 101.869057 243.899353 100.084402 242.634373 99.3233895 241.606517 98.2265181 240.930668 96.9163823 240.396065 95.2758885 240.468083 93.4987064 241.133685 91.9065908 243.64492 84.7260568 249.938025 79.5239665 257.478686 78.3952664 260.714037 77.956283 264.47955 78.1109611 266.620656 75.6524053 267.753562 74.3515367 268.347997 72.3847579 269.992428 71.8564215 271.044279 71.645654 272.136268 71.7797707 273.10542 72.2387553L285.181445 76.4779779C286.528826 77.0846346 288.011873 77.3292652 289.483354 77.1875832 290.996817 76.9842239 292.096752 75.6509625 292.005329 74.1306285 291.619486 72.1305465 288.533687 71.170762 288.814473 69.153376 288.971744 68.4996187 289.324156 67.908818 289.825161 67.459006 298.649156 58.0920911 311.207328 53.1461396 324.067517 53.9728852 325.591711 56.4695052 323.181145 59.4259391 321.175387 61.5572353 319.169629 63.6885315 317.557788 67.4966351 319.983441 69.1372005 320.977492 69.6431745 322.083227 69.8915321 323.19879 69.8593959 326.171901 70.2607513 329.061287 71.1348093 331.756992 72.4483078 335.929941 74.259476 340.022805 76.2411489 344.035586 78.3933267 343.681132 75.7545718 343.342837 72.9746693 344.345687 70.5073556 345.348536 68.040042 348.198728 66.1047677 350.688254 67.0656455 353.087493 67.9916801 354.317958 71.1600646 356.87408 71.4503416 360.283794 71.837554 361.629005 66.8137147 360.20474 63.6998049 358.780475 60.5858952 355.960952 57.9785155 355.725604 54.5639839 355.566823 52.2604118 356.445781 49.4034759 354.600796 48.0085874 353.944247 47.5898102 353.19898 47.3291819 352.423975 47.2473287L306.356371 38.7926413C303.620783 38.2905783 299.668331 38.6753808 299.547021 41.4468546 299.479293 42.9938703 300.864874 44.5243343 300.251191 45.9466953 299.596207 47.4647926 297.444505 47.3259961 295.8773 47.8629375 293.445601 48.6960572 292.225378 51.5758221 292.458923 54.12955 292.886525 56.6670653 293.871892 59.0787576 295.344346 61.1916412 292.347914 59.9418382 287.810811 59.7121017 284.814379 58.4623106zM251.131875 21.6442582C244.591363 19.9664608 237.395391 21.6369472 233.121268 25.8252742 232.287565 26.6761648 231.587401 27.8491433 232.285337 28.7705089 233.286004 30.0914164 235.835695 29.5696831 237.715486 29.0971759 240.478435 28.3320083 243.485713 28.2763991 246.292589 28.9385722 248.057715 29.408338 249.636873 30.2385822 251.409707 30.6905937 253.168295 31.2607535 255.189281 31.0318272 256.66385 30.0954332 257.880554 29.1335481 257.956898 27.6381504 257.959048 26.2910131 258.129961 25.3781125 257.760401 24.4541664 256.953225 23.7763301 256.243589 23.4577284 255.446165 23.2749008 254.627123 23.2430184 252.792819 22.9798315 251.134483 22.2287454 249.938089 21.1192813M262.721167 14.0038229C261.491627 13.9549467 260.316084 14.377391 259.619335 15.118501 258.922585 15.859611 258.80538 16.8122212 259.310071 17.6320956 261.166852 18.0017258 263.106723 18.0940543 265.013537 17.9035531 266.958314 17.683158 268.530787 16.6307711 269 15.2355879 266.75501 15.533805 264.438339 15.2108356 262.501918 14.329684M322.113185 8.58439486C316.545339 9.63758633 311.136806 11.2722284 306 13.4543465 310.971647 15.1545838 314.110313 19.5460144 313.732276 24.2728749 313.514951 25.1567849 313.540117 26.0742634 313.805644 26.9476897 314.397419 28.2241192 316.112262 28.7030664 317.619851 29.0306919 320.328447 29.7640985 323.156801 30.085287 325.985616 29.9807101 328.860397 29.8468779 331.464932 28.4308297 332.9103 26.2158592 333.320263 25.1810836 333.801176 24.1696535 334.35033 23.1872656 337.964009 18.2907201 348.699301 24.2113706 352.579159 19.4788044 353.945893 17.811687 353.820884 15.3022269 355.602573 13.9811949 356.524257 13.4056494 357.592311 13.0430069 358.710635 12.9258972 366.513048 11.546705 374.394371 10.5480405 382.319326 9.93437387 386.074355 9.64364668 390.968757 8.4440438 391 5.09070444 376.856334 2.61932642 362.191184 4.37459173 349.284434 10.0836218 344.634267 12.1558468 338.483938 16.5148312 334.004661 13.767563 332.327522 12.7389344 332.410564 9.96910168 330.102255 8.81243577 327.742281 7.62988519 324.61835 8.11085242 322.113185 8.58439486z"/>
    <path fill="#3F3D56" d="M364.28368 13.7701809L370.749795 14.9808865C368.341927 14.8769737 366.004748 15.7884769 364.335346 17.4825306 362.665945 19.1765842 361.826014 21.4891079 362.030134 23.8293114 368.085387 25.8004673 374.68699 23.8823095 381.065524 24.1443318 387.444059 24.4063541 394.865526 28.846223 393.776674 34.9761421 393.447441 36.8296224 392.348638 38.6818648 392.920029 40.4785991 393.320516 41.737936 394.460275 42.6315121 395.103602 43.7913514 396.444186 46.2082352 395.372742 49.2652347 393.679989 51.4622633 391.987236 53.6592918 389.711954 55.4122773 388.226108 57.747108 384.530612 63.5541784 386.630216 71.0615684 388.831609 77.5491105 389.468131 80.0003965 390.643513 82.2876877 392.276454 84.2527714 395.537906 87.6318861 400.852877 87.9257715 405.612853 87.9934633 409.07733 88.042748 413.046036 87.8759482 415.236925 85.2602983 418.09723 81.8454351 416.097145 76.5175259 417.980315 72.5097228 419.690605 68.8698236 424.048059 67.3082688 427.995982 66.200763 435.22862 64.171795 442.599393 62.4468444 449.437096 59.3821198 457.927796 55.5765212 465.862925 49.6459069 475.195191 49.1560406 477.813338 49.0186167 480.496365 49.3197114 483.018298 48.6207064 485.540231 47.9217013 487.935887 45.797018 487.744965 43.2488537 487.581825 41.0716307 485.69148 39.4728602 484.214397 37.8315674 482.737314 36.1902747 481.577336 33.6664432 482.93487 31.9299279L507.395959 27.4777837C505.662051 22.8731666 504.311292 16.8087961 508.29563 13.8115915 509.733204 12.7301836 511.658 12.2979574 512.881998 10.9905966 514.968158 8.76235828 513.91912 4.92400256 511.510974 3.02900856 509.102827 1.13401456 505.846727.694109123 502.762037.444430897 492.036399-.423574582 481.249174.149995351 470.502776.724000824 449.495847 1.8460552 428.488915 2.96810575 407.481979 4.09015248 403.253108 4.31602508 398.370605 3.97095245 394.492056 5.37681369 391.208586 6.56701457 388.873988 8.75175635 385.118646 9.51934726 378.186117 10.9364064 370.556967 9.97749947 364.28368 13.7701809zM480.715849 65.5973558C480.037738 65.4958401 479.344318 65.6446268 478.778841 66.0129785 478.404935 66.4024792 478.182522 66.9009231 478.148291 67.4260914 477.718676 69.7438575 478.230421 72.1296159 479.58104 74.1055803 480.98219 76.0796446 483.405349 77.1787699 485.909544 76.9761387 488.905971 76.6146404 491.114205 74.1960894 493.868956 73.0159205 498.114706 71.1986259 516.14565 68.3656089 503.672809 61.990287 499.374402 59.7932045 496.596894 61.7327087 493.209051 63.1796408 489.35447 65.0452646 485.035141 65.8811516 480.715849 65.5973558zM585.75517 7.18719432C584.32208 7.77044099 583.123209 8.81002689 582.34576 10.1436211 581.601808 11.5500385 582.09575 13.29055 583.468763 14.1007588 584.004032 14.2940973 584.571456 14.3837629 585.14051 14.3649319L590.967477 14.5383459C593.442897 14.6120186 596.534978 15.1372085 597.200163 17.5136269 597.694094 19.27819 596.588589 21.5456714 597.922461 22.8066634 598.494915 23.2482745 599.183252 23.5157233 599.904677 23.5768399 601.824147 24.0680363 603.8286 24.1324785 605.775869 23.765596 610.015572 22.6327274 607.787826 20.0549518 609.12314 17.7596339 611.166244 14.2476416 610.812551 16.3736153 614.41257 14.3608145 617.071203 12.8743428 620.506721 10.177853 618.28767 6.38924077 614.428781-.199067181 591.449485 4.35687384 585.75517 7.18719432zM698.775091 7.5747929L695.295423 7.97807201C687.448682 8.88748194 679.557476 9.80526427 672 11.8517451 675.271401 12.9750857 678.703613 13.7065291 682.202153 14.0259395 684.128022 14.1079276 686.041069 14.3441044 687.916957 14.7314652 691.254987 15.5944919 694.618496 17.8231015 697.843429 16.6814774 699.842976 15.9736219 700.495479 14.1654404 702.151841 13.2071472 703.295573 12.5454409 707.633555 11.4744343 708.118501 10.8065577 712.038968 5.4072049 701.788664 7.2255354 698.775091 7.5747929zM712.908244 23.9042072C708.869609 26.242968 705.122567 29.0848934 701.750701 32.3665903 700.330133 33.7495941 698.879147 35.4696739 699.007994 37.4844583 699.179202 40.1623058 701.933521 41.7155892 704.319774 42.7619137L713.985173 47C715.15771 45.2884298 714.084539 42.9257781 712.872717 41.243804 711.660896 39.5618298 710.22084 37.6158275 710.756239 35.5918061 711.367227 33.2820416 714.086518 32.4949504 716.366797 32.0970397 720.082118 31.448714 730.104471 31.5007083 728.900227 25.2996447 727.481277 17.9929099 716.637753 21.7452562 712.908244 23.9042072zM712.689287 464.152824C711.727056 467.195018 711.635767 470.778758 713.30023 473.434878 715.16794 476.415337 718.905797 477.526337 722.13965 476.770513 725.36 475.834823 728.230404 473.819395 730.346524 471.008131 732.281815 468.652855 733.87391 465.986553 735.06698 463.10272 736.732112 458.608709 737.90649 453.91606 738.565819 449.121855L741.704064 431.127857C742.405339 427.106313 742.378192 414.776936 735.609874 418.793983 733.760873 419.891369 729.479811 428.5558 727.542104 431.012788 724.049721 435.441069 723.587655 439.73781 721.749139 445.102523 719.446297 451.822158 714.818076 457.422456 712.689287 464.152824zM1091.19025 549.75689C1088.86156 548.978644 1086.6016 548.057281 1084.42801 547 1082.24842 552.131593 1081.08967 557.540006 1081 563L1096.93398 555.278276C1099.33096 554.116727 1102.0477 552.502705 1101.99617 550.14449 1102.04021 549.551266 1101.70231 548.984829 1101.11524 548.66772 1100.76115 548.546013 1100.37559 548.50727 1099.99822 548.555473 1097.63549 548.724103 1095.4812 549.719748 1093.25233 550.412107 1091.02346 551.104467 1088.41722 551.47043 1086.37221 550.442945M1176.82676 558.822223C1175.0091 559.31978 1173.23328 559.960644 1171.51578 560.738859 1167.71526 562.683395 1165.12986 566.376815 1161.70983 568.937976 1158.43707 571.388849 1154.49737 572.734481 1150.62979 574.042833 1149.49208 575.054124 1150.01487 577.090859 1151.24984 577.979251 1152.57766 578.738846 1154.10054 579.083063 1155.62388 578.967915 1159.64189 579.057105 1163.87502 579.096013 1167.39442 577.144469 1169.37746 575.850928 1171.2331 574.369873 1172.93607 572.721479 1177.05096 569.268917 1181.99251 566.990933 1186.8841 564.789517 1188.66449 564.113524 1190.31076 563.123727 1191.74562 561.866592 1194.81941 558.821343 1195.03555 554.12337 1190.60335 553.086919 1187.02218 552.249385 1180.23668 557.71291 1176.82676 558.822223zM1215.29341 531.301536C1215.71457 527.459264 1214.08697 523.661343 1210.8787 521 1210.83139 524.794072 1210.69916 528.836012 1208.25022 531.973404 1206.50532 534.208814 1203.76949 535.718893 1201.8578 537.848218 1199.94611 539.977543 1199.09753 543.352719 1201.3399 545.221158 1202.77319 546.171507 1204.51899 546.695441 1206.31991 546.715719 1210.78355 547.173556 1215.95009 547.42873 1219.08076 544.618815 1220.78951 543.085126 1221.62069 540.813597 1223.70475 539.686018 1224.48112 539.401959 1225.1744 538.969664 1225.73347 538.421018 1226.59399 537.229062 1225.2267 535.658191 1223.68761 535.228713 1222.14851 534.799235 1220.45246 535.001134 1218.90565 534.593241 1217.35885 534.185348 1215.93975 532.669789 1216.73339 531.44312"/>
    <path fill="#36344C" d="M1149.0666 384.390082C1146.95659 384.897834 1144.77138 385.025313 1142.61568 384.76641 1139.0352 384.115112 1136.24847 381.445232 1133.35779 379.255688 1126.48615 374.078943 1118.13257 371.191148 1109.49777 371.007386 1101.64289 370.860626 1093.71463 372.966603 1086 371.49727 1086.50403 374.271056 1088.90296 376.351461 1091.46254 377.58801 1094.02212 378.824559 1096.84704 379.446831 1099.4189 380.658205 1103.53779 382.61747 1106.80475 385.980247 1108.62062 390.129817 1109.44896 392.042862 1109.97011 394.124716 1111.22488 395.795124 1113.78948 399.209393 1118.65061 399.959117 1122.94075 399.6799 1128.53412 399.315859 1134.37605 397.724194 1139.57973 399.78606 1143.56054 401.363377 1146.40967 404.810737 1149.73353 407.491286 1153.05738 410.171834 1157.739 412.161299 1161.55569 410.22719 1153.41876 407.620702 1147.93999 400.08213 1148.03291 391.620373 1151.77628 391.96096 1162.55818 391.829149 1161.97742 385.535873 1161.48533 380.202409 1152.28091 383.814423 1149.0666 384.390082zM1095.15577 430.718821C1095.8285 427.019589 1099.50808 423.752891 1098.36191 420.172574 1097.56925 417.696582 1094.70579 416.474156 1092.11277 416.413107 1089.51975 416.352058 1086.9724 417.126445 1084.3797 417.199365 1082.69211 417.109546 1081.0004 417.133636 1079.31603 417.271471 1074.16934 418.11966 1070.99704 423.528035 1066.14678 425.451069 1063.19756 426.620368 1059.88437 426.396837 1056.81713 427.205186 1049.85451 429.04012 1045.44903 435.636378 1040.5819 440.954632 1032.71783 449.509264 1022.47281 455.499356 1011.17391 458.148997 1007.21512 459.068015 1002.95946 459.655981 999.812772 462.233709 995.645786 465.647245 994.620054 471.499199 993.692969 476.81348 991.131588 491.490169 987.217146 505.896864 982 519.848235L998.532616 521.964498C1001.67585 522.366855 1004.93283 522.760582 1007.96172 521.827161 1010.16234 520.994862 1012.2468 519.881678 1014.16358 518.515118 1021.52669 513.931916 1029.76754 510.949605 1038.35289 509.761155 1042.68229 509.165245 1047.22138 509.056051 1051.28423 510.669452 1055.34708 512.282852 1058.83261 515.941663 1059.17311 520.30955 1062.75313 519.192916 1066.65557 520.144455 1069.32423 522.784718 1071.91311 525.429307 1073.60832 528.822165 1074.17066 532.484517 1074.60615 534.752171 1075.04187 537.469268 1077.14071 538.420576 1078.853 539.196693 1080.81723 538.360781 1082.69039 538.210506 1089.04661 537.700605 1094.32105 545.13116 1100.56857 543.851611 1107.26892 542.479316 1108.91391 532.418788 1115.45057 530.403542 1119.20482 529.246113 1124.47083 530.653544 1126.26855 527.152396 1127.85311 524.06645 1124.69172 520.50531 1125.01774 517.049879 1125.41917 512.795099 1130.42507 510.989145 1134.28415 509.173712 1147.58862 502.914883 1153.90205 484.962136 1147.45502 471.721476 1143.63518 463.876414 1136.11918 457.700947 1134.73112 449.082659 1133.66317 442.451905 1136.27032 434.719741 1132.05358 429.500483 1129.90849 426.845421 1126.27657 425.379881 1125.00013 422.211806 1124.19666 420.217617 1124.5196 417.955028 1124.08722 415.848441 1123.65483 413.741854 1121.82168 411.538328 1119.74678 412.084351 1113.72375 413.669341 1111.80181 432.323359 1108.57711 436.855773 1103.67524 443.745345 1093.61211 439.207147 1095.15577 430.718821zM982.072178 393.618726C979.891122 393.132591 977.509531 392.653697 975.419738 393.348412 973.329944 394.043128 972.109513 396.482117 973.786772 397.692331 986.90833 397.286011 1000.11023 396.882522 1013.12025 398.299014 1028.10991 399.931034 1042.94457 403.973645 1058 402.784325 1049.39993 400.767492 1040.65791 399.154966 1031.81935 397.95512L1017.08046 395.717022C1013.12657 395.058724 1009.13144 394.56801 1005.112 394.246956 996.703546 393.69494 990.339415 395.461415 982.072178 393.618726zM998.856736 346.122672C997.829061 346.029951 996.556272 345.950071 996.024617 346.904836 995.516669 347.817065 996.098079 349.022311 995.824937 350.045256 995.451777 351.442726 993.758029 351.799731 992.423545 351.609471 991.089061 351.419211 989.645802 350.963554 988.463501 351.658829 987.231851 352.567932 986.703172 354.246238 987.165777 355.778493 987.649168 357.259594 988.430942 358.606204 989.454635 359.721062 991.20314 362.101877 993.195419 364.261187 995.393428 366.157758 999.647994 369.551261 1005.412 371.186597 1008.09168 376.112741 1008.4697 377.067507 1009.05073 377.912509 1009.78761 378.57916 1011.07402 379.459651 1012.75172 378.789806 1014.13674 378.10597L1018.99177 375.708906C1019.86631 375.368505 1020.64703 374.79476 1021.26139 374.040982 1022.37059 372.414732 1021.6893 370.102505 1020.75831 368.350583 1019.82732 366.598661 1018.6356 364.78558 1018.8354 362.776958 1019.19161 359.195636 1023.45306 357.825747 1025.20531 354.761579 1026.97151 351.67297 1025.8217 347.693408 1026.02529 344.069085 1026.26351 339.830708 1028.72819 334.317566 1024.76274 331.15084 1021.3926 328.45952 1018.17142 330.946289 1015.75179 333.917561 1010.64929 340.183345 1008.2366 346.969061 998.856736 346.122672zM1028.9089 290.939324C1030.58994 293.979351 1034.09442 295.793526 1035.92753 298.754109 1037.91446 301.963107 1037.68808 306.10927 1039.84363 309.219676 1042.05514 312.41088 1046.50567 314.10513 1047.74594 317.73479 1049.09999 321.69748 1046.02776 326.513862 1048.47671 329.976292 1049.40011 331.12056 1050.78912 331.846795 1052.30602 331.978429 1053.82293 332.110062 1055.32879 331.635037 1056.45749 330.668844 1058.6046 328.460788 1058.49742 325.038841 1056.21586 322.954527 1054.76589 321.705889 1052.68385 321.166311 1051.47322 319.707842 1050.84273 318.866161 1050.42273 317.900298 1050.24487 316.883039 1049.58493 313.948781 1049.69064 310.906942 1050.55288 308.019874 1050.87683 307.287156 1050.95909 306.479149 1050.78889 305.701555 1050.24388 304.205277 1048.09876 304.099119 1046.59324 303.40498 1043.17379 301.82846 1043.25678 297.270534 1043.8542 293.721161 1043.45645 296.084177 1034.5445 292.065119 1033.61128 290.726609 1031.75741 288.067594 1032.76639 282.93835 1032.39938 280 1028.39704 281.821564 1026.85357 287.222355 1028.9089 290.939324zM938.404943 338.914674C936.698499 337.116191 934.128212 335.234729 931.840435 336.319379 930.094997 337.146879 929.614864 339.420506 930.29897 341.143949 931.132364 342.817997 932.41553 344.258208 934.021541 345.322119 938.789176 349.023976 943.923095 352.365055 948.082382 356.668249 955.525684 364.369172 959.46869 374.760299 967.563623 381.854641 969.19076 383.499405 971.345303 384.597186 973.697801 384.980124 976.056194 385.18668 978.704552 383.765437 978.975643 381.55017 979.198942 379.725358 977.847717 378.09204 976.527224 376.739779 973.382733 373.519639 969.940246 370.555617 966.971445 367.190916 965.60034 365.898479 964.73869 364.204275 964.528911 362.388327 964.51385 360.576639 966.268659 358.680424 968.133088 359.129079 965.865575 358.583427 964.183928 355.0269 960.855911 354.358347 958.074645 353.799652 957.401811 355.420672 954.091829 354.084162 947.778854 351.535054 942.825913 343.574114 938.404943 338.914674z"/>
    <path fill="#3F3D56" d="M1080.84919 159.122053C1079.07016 158.608173 1077.3211 158.000941 1075.6097 157.303031 1071.0049 155.959663 1064.91227 159.24916 1065.52606 163.883514 1065.93388 166.962671 1068.88246 169.038653 1070.51081 171.709542 1072.92566 175.670386 1072.28188 180.694136 1071.01289 185.129842 1070.70134 186.50327 1070.10884 187.8018 1069.27061 188.948232 1068.09869 190.158587 1066.69771 191.138057 1065.14433 191.833046 1058.92577 195.222127 1053.44177 199.750108 1048.99549 205.166668 1048.51209 205.666913 1048.17535 206.283845 1048.02026 206.953358 1047.80065 208.518073 1049.41897 209.657895 1050.33392 210.962939 1052.36633 213.861923 1050.89733 217.762849 1051.09826 221.265374 1051.03547 222.2723 1051.51322 223.239116 1052.3611 223.820988 1053.58608 224.425751 1055.03766 223.398493 1055.70162 222.229386 1057.90504 218.349647 1056.24519 212.122016 1060.37871 210.251383 1061.16061 209.897531 1062.10853 209.748353 1062.63016 209.080799 1063.45773 208.021814 1062.65929 206.453807 1063.07869 205.188029 1063.70836 203.287554 1066.38285 203.202238 1068.43535 203.28653 1071.97099 203.430225 1075.50529 202.972926 1078.87909 201.935228 1080.20256 201.62938 1081.40462 200.952871 1082.33633 199.989518 1083.57199 198.490759 1083.46248 196.359711 1083.21557 194.454233 1081.97888 184.954567 1078.88272 175.772756 1074.09421 167.404387 1077.7252 167.855178 1081.67557 168.245563 1084.80884 166.406471 1086.56334 165.376642 1088.66729 162.296985 1087.79711 160.200841 1086.421 156.886038 1083.93508 159.676182 1080.84919 159.122053zM620.625177 214.841954C621.049289 217.108446 621.466182 219.494957 620.72076 221.67758 619.975339 223.860203 617.630406 225.6839 615.41613 225.015132 613.697668 224.496117 612.705011 222.774357 611.484759 221.461689 604.698796 214.161777 589.388605 218.388179 585.196528 209.356972 583.485649 205.671089 584.648348 201.255247 583.481385 197.364334 581.967255 192.739022 577.506003 189.719081 572.632903 190.020706 570.471943 190.331698 568.368558 190.957349 566.39012 191.877618 553.136043 197.166947 539.221393 200.634833 525.02899 202.185868 522.331803 202.349618 519.663843 202.833336 517.081637 203.626774 511.254121 205.731965 507.27236 211.115428 504.438704 216.608931 501.605049 222.102434 499.5131 228.049734 495.714022 232.930364 491.721336 238.059749 486.126405 241.651623 480.907403 245.536749 478.896915 246.827873 477.222823 248.576235 476.022878 250.637972 474.891432 252.952582 474.955259 255.644825 475.043084 258.217935L476.109733 289.469583C476.246933 293.489315 476.419207 297.652733 478.224711 301.249997 480.479306 305.742014 484.933188 308.684085 488.023005 312.652254 491.176214 316.730236 492.81876 321.768483 492.672703 326.914458 492.606936 328.983326 492.400629 331.430341 494.01763 332.729679 495.00129 333.365183 496.152307 333.695036 497.324492 333.677344L539.74935 337.137278C547.212187 337.745903 555.482742 338.74661 560.355093 344.412148 562.654612 347.08602 564.50185 350.931203 568.024016 351.21811 569.534803 351.341155 571.004837 350.723182 572.515928 350.603932 576.328325 350.303066 579.67747 353.186356 581.791115 356.3622 584.990139 361.202737 586.442247 366.983343 585.90899 372.7548 585.562421 376.377572 584.435194 379.899547 584.192176 383.530713 583.267471 397.347269 595.021823 409.351189 595.249664 423.196583 595.383686 431.340581 591.503828 438.949835 587.721177 446.170325 593.8262 455.386094 588.827094 467.658002 591.257644 478.431703 593.563566 488.652998 602.116325 496.654846 604.247531 506.913722 605.223177 511.61022 605.27962 517.389746 609.435747 519.80868 611.259427 520.694404 613.281107 521.097763 615.306433 520.979978 627.522883 521.124172 639.60005 518.384424 650.54991 512.98487 655.689054 510.443683 661.015101 506.650087 661.912618 501.003711 662.636414 496.450271 660.319054 491.357023 662.677423 487.39074 665.456937 482.716082 672.577446 483.086662 676.667059 479.492587 683.301685 473.661953 678.128108 462.542087 680.816257 454.144011 683.232576 446.595168 691.550333 442.58475 695.673384 435.80957 697.295948 432.895806 698.46032 429.751253 699.12587 426.485635 701.014684 418.680685 702.190392 410.721348 702.638596 402.705108 702.748469 397.8346 703.108854 392.972908 703.71833 388.139173 708.163624 360.619908 735.46629 342.192527 744.330626 315.755684 745.17718 313.230947 745.574736 309.868026 743.320666 308.439415 741.983679 307.803812 740.467988 307.645739 739.0279 307.991718L719.471 310.448582C717.041875 310.753744 714.467045 311.038964 712.236249 310.0336 710.005452 309.028236 708.406654 306.216161 709.589927 304.080386 712.911557 298.08505 706.07886 290.508895 703.043348 284.364809 694.868267 267.820838 685.133131 252.088856 673.969353 237.381225 673.254716 236.624626 672.807199 235.656432 672.694679 234.623495L678.245154 234.807649C676.371523 228.108341 673.279498 220.777321 666.747804 218.326685 663.067221 216.94576 658.991255 217.42326 655.064265 217.637078 643.816336 218.24937 631.757673 216.55717 620.625177 214.841954z"/>
    <path fill="#35344A" d="M653.010269,60.7505284 C655.973381,63.8907803 659.293802,67.2202147 663.581081,67.7675494 C671.153531,68.7343794 676.598073,60.9197445 680.064509,54.1318977 C680.331329,57.7301207 683.419741,60.4626007 687.031327,60.2958071 C688.90051,59.9819575 690.684508,59.285914 692.271349,58.2513632 C707.27472,50.0689917 724.079671,45.7336536 741.176952,45.6347055 C740.83684,42.9576879 742.577684,40.4566941 745.210182,39.8403458 C748.68638,39.1525885 751.817702,42.1518779 753.494604,45.2674916 C755.171505,48.3831052 756.217121,51.9943591 758.881346,54.3264328 C761.545571,56.6585065 766.703705,56.5569135 767.75605,53.1798224 C768.766345,49.9376606 765.381808,47.1727806 762.569922,45.2613173 C759.758036,43.349854 756.794206,39.8120218 758.687789,36.9911864 C773.053224,33.8177862 787.50777,30.6323662 802.207367,30.0016091 C804.710008,30.0885517 807.203752,29.659842 809.532988,28.742231 C811.774718,27.6444041 813.556502,25.1523757 812.953682,22.7340858 C806.392423,24.2733042 799.550183,21.6977517 795.641978,16.2176233 C816.038661,14.5379048 837.732705,13.1061766 855.808853,22.6840464 C857.977999,27.3311501 846.922575,31.1975076 849.880512,35.388951 C850.823892,36.7257534 852.714252,36.8825271 854.35235,36.91287 C866.913677,37.1456126 879.547506,37.3738359 891.96704,35.4812592 C896.505664,34.7896401 901.089948,33.8132788 905.646662,34.3741358 C913.236437,35.3082635 919.727948,40.3620328 927.194857,42.0097533 C930.233964,42.6804082 933.641601,42.7031213 936.20346,40.9390883 C938.765319,39.1750552 939.866524,35.158333 937.767151,32.8651241 C944.797532,25.9888191 956.465797,27.6930702 965.740589,30.9851071 C975.015381,34.277144 983.801892,39.5860991 993.618365,40.3199048 C1000.65766,40.846111 1007.79477,38.9565157 1014.75045,40.1575673 C1019.12142,40.9123255 1023.1894,42.8528757 1027.4614,44.0451002 C1035.54118,46.2999843 1044.08821,45.8239937 1052.47726,45.9325122 C1073.88181,46.220289 1095.05249,50.4184441 1114.9412,58.3191389 C1117.52845,59.1597663 1119.899,60.5574695 1121.88517,62.4133793 C1123.73575,64.3910688 1124.67954,67.4642728 1123.43576,69.8687234 L1102.88414,66.871993 C1104.8205,70.67608 1109.82999,71.3243386 1113.89819,72.6366671 C1117.96638,73.9489956 1122.18448,78.4324471 1119.73961,81.9327526 C1115.33168,80.5321186 1111.33721,84.9301522 1109.11056,88.9767008 C1106.88391,93.0232494 1104.17047,97.8694661 1099.55111,98.1159657 C1095.4146,98.3367119 1090.41187,94.821722 1087.71561,97.9601192 C1091.4406,102.64969 1094.63036,107.738878 1097.22587,113.133482 C1099.88965,118.671647 1101.78692,125.64992 1098.18655,130.632709 C1097.62012,131.522222 1096.76096,132.18711 1095.75668,132.513149 C1092.81627,133.256005 1090.90577,129.666208 1088.79703,127.490427 C1086.13983,124.748612 1082.12133,123.972021 1078.52288,122.68615 C1074.92444,121.400279 1071.1338,118.870748 1070.85225,115.066743 C1070.67707,112.699983 1071.92922,110.499869 1072.85152,108.312432 C1074.40171,104.625385 1075.07968,100.631434 1074.83279,96.6405836 C1074.6309,93.4299267 1073.72878,90.0901393 1071.41825,87.8468524 C1069.10772,85.6035655 1065.11859,84.8919212 1062.63816,86.9465421 C1061.48077,87.9052258 1060.55322,89.4387114 1059.05021,89.4960519 C1056.39452,89.5974454 1054.3555,84.9768932 1052.2189,86.55415 C1052.46959,88.2347383 1052.12041,89.9497944 1051.23241,91.3994981 C1044.85661,96.9332725 1035.06186,94.5921722 1026.84222,96.5469959 C1022.93366,97.6632955 1019.19151,99.2941976 1015.71451,101.396675 C1014.41381,101.951714 1013.30702,102.878832 1012.53382,104.061019 C1011.5078,106.05081 1012.63902,108.599205 1014.44752,109.922227 C1016.3654,111.096084 1018.52059,111.8302 1020.75741,112.07155 C1030.77814,113.965512 1040.94505,116.897437 1048.85642,123.320675 C1056.7678,129.743914 1061.95589,140.361895 1059.45237,150.228521 L1039.69102,131.384662 C1040.44158,139.29679 1040.86752,147.230711 1040.96883,155.186426 C1041.09661,156.739807 1040.88283,158.302295 1040.34243,159.764627 C1038.93364,162.869876 1035.11541,163.914823 1031.76954,164.600315 C1029.88723,164.9572 1028.24731,166.099489 1027.26255,167.739671 C1026.27779,169.379854 1026.04198,171.361718 1026.61446,173.186434 C1027.80323,177.05332 1030.7673,180.068127 1033.48134,183.072159 C1036.19537,186.07619 1038.86621,189.490397 1039.22151,193.519597 C1039.57681,197.548796 1036.53074,202.09034 1032.48743,201.810199 C1029.42229,201.59781 1027.14825,198.859505 1025.84087,196.084706 C1024.53348,193.309908 1023.75556,190.21885 1021.79117,187.86114 C1015.84549,180.724908 1002.49072,183.782371 997.164313,176.174584 C994.403796,179.29956 993.461292,183.628067 994.673345,187.614512 C997.151281,186.066448 1000.54353,187.504796 1002.40528,189.754163 C1004.26702,192.00353 1005.14531,194.887376 1006.60737,197.413773 C1008.58028,200.822862 1011.7201,203.845064 1011.99548,207.772296 C1011.92247,209.257314 1011.94756,210.745519 1012.07057,212.227247 C1012.55975,214.606789 1014.57513,216.315384 1015.97246,218.304342 C1019.22388,222.932336 1019.06322,229.290088 1016.96754,234.541104 C1014.87186,239.79212 1011.10682,244.179847 1007.3776,248.433855 C1000.86405,255.864056 994.217551,263.250697 986.495511,269.421086 C984.292078,271.181797 981.940514,272.913069 980.568181,275.374637 C979.195848,277.836205 979.125475,281.291378 981.234317,283.163859 C979.72539,283.239276 977.019304,283.979914 975.510378,284.055331 C974.979875,278.014548 974.864575,271.944597 975.165289,265.88809 C969.210577,263.034705 962.79906,270.676203 963.567467,277.223548 C964.335875,283.770894 969.081147,289.025009 972.459626,294.689616 C974.930247,298.831982 976.76636,303.662094 975.94153,308.411918 C975.1167,313.161741 970.868118,317.543494 966.055896,317.124574 C958.4015,316.458251 955.19977,305.492072 947.619957,304.237037 C946.951437,304.080405 946.249712,304.14993 945.625102,304.434682 C944.499927,305.050931 944.304346,306.553405 944.241172,307.832702 C943.931064,314.111575 943.66257,320.640033 946.118641,326.429017 C949.711708,334.897956 958.993969,342.010865 957.046822,351 C946.557556,346.134146 941.103887,334.395155 938.627738,323.119256 C936.151589,311.843356 935.738904,300.005813 931.300234,289.346068 C927.929801,293.657205 920.845514,290.093314 917.766028,285.570611 C914.846518,281.282845 913.049008,276.322827 910.216491,271.977333 C907.383974,267.631839 903.0448,263.740726 897.855684,263.501786 C892.415165,263.251225 887.696746,266.97709 883.547272,270.497514 C880.135165,273.392358 876.63196,276.40112 874.63747,280.402771 C871.735086,286.225889 872.494307,293.090714 872.354443,299.592915 C872.203206,306.62239 870.710405,314.039069 865.909592,319.185181 C861.108779,324.331294 852.247531,326.123733 846.952239,321.485785 C844.187731,319.064443 842.849202,315.446816 841.656935,311.974306 C835.909838,295.235444 831.123493,278.183271 827.321187,260.900758 C826.431419,264.845326 822.960595,269.929485 819.64489,267.60591 C818.900888,266.981277 818.298127,266.206244 817.876409,265.331987 C811.691524,254.870815 800.237777,248.596075 788.665197,244.833787 C777.092617,241.071499 764.916793,239.316552 753.47255,235.181709 C747.059278,232.863654 740.933801,229.81867 735.216371,226.106534 C732.247121,230.460074 731.910189,236.088213 734.338918,240.763586 C736.877511,245.249362 742.622105,247.844779 747.539539,246.276831 C750.080685,245.466563 752.226671,243.706087 754.748092,242.836589 C757.269513,241.967091 760.653768,242.394063 761.756325,244.818351 C762.811681,247.138793 761.216514,249.945883 762.007811,252.368704 C763.213004,256.05879 768.789846,256.343087 770.739946,259.701045 C772.190897,262.199458 770.997042,265.517155 768.925357,267.533193 C766.853672,269.54923 764.089599,270.654957 761.560697,272.05835 C753.355199,276.611877 747.520108,284.3851 740.348994,290.432826 C733.177879,296.480552 723.060261,300.895993 714.513944,297.016712 C716.551142,286.722245 704.263261,279.164333 702.002712,268.916407 C701.258652,265.543389 701.644367,261.96033 700.582107,258.67327 C699.04414,253.914127 694.813189,250.641927 691.342295,247.035357 C682.837257,238.101919 678.31009,226.117976 678.788743,213.804633 C678.976302,209.569313 679.756012,205.265008 678.789155,201.136809 C677.822297,197.00861 674.397416,193.01297 670.15341,193.200063 C660.460169,193.627329 648.248765,194.346873 643.163144,186.100687 C641.348073,183.157588 640.5582,178.847086 643.182457,176.592248 C645.033708,175.00161 647.766365,175.151447 650.1975,175.390117 L672.037771,177.534194 C677.145893,178.035668 682.667653,178.449517 687.051041,175.784516 C691.434428,173.119516 693.333786,166.045436 689.274939,162.910067 C686.309286,160.619135 680.995916,160.743359 680.133835,157.100894 C679.415864,154.067294 682.780511,150.625303 680.963287,148.09009 C679.660292,146.272285 676.730879,146.7766 674.955752,148.13932 C673.180625,149.50204 671.892686,151.494907 669.906029,152.526684 C666.42102,154.336695 662.256938,152.614085 658.507481,151.443353 C654.758025,150.272621 649.731473,150.1732 647.912839,153.648503 C645.878934,157.535203 649.7169,162.62813 647.69838,166.522765 C645.029674,171.671964 635.992041,168.740662 632.244067,173.16979 C627.943309,178.252177 635.170611,185.830735 633.720212,192.323546 C629.953458,194.185242 625.483497,193.934622 621.949405,191.663584 C618.467932,189.300448 616.569705,185.218959 617.008564,181.039993 C617.367579,178.119208 618.893455,175.137713 617.871069,172.377575 C617.044451,170.145956 614.799228,168.817417 612.712546,167.66664 L591.488716,155.962512 C589.518232,159.6104 592.009366,164.132799 595.124903,166.872712 C598.24044,169.612625 602.14278,171.676225 604.189435,175.282103 C606.876929,180.468063 605.05292,186.845668 600.027364,189.834686 C599.41339,190.257616 598.644779,190.391416 597.92358,190.200914 C597.239462,189.799734 596.747263,189.139215 596.559175,188.369916 C592.814424,178.80646 587.192097,169.377288 578.203348,164.381493 C569.214599,159.385698 556.298691,160.41285 550.40426,168.828522 C549.004204,170.82741 548.064552,173.105876 546.844915,175.219211 C540.365166,186.447066 526.473673,191.763874 513.494968,191.41658 C512.225312,191.486656 510.962284,191.190471 509.856781,190.56341 C507.759231,189.11769 507.853693,186.04992 508.174798,183.526187 L509.537157,172.816039 C509.810732,170.665366 510.207151,168.288171 511.912846,166.94564 C514.317222,165.053181 517.785669,166.24746 520.847618,166.203454 C525.599607,165.981447 529.705816,162.818924 531.125354,158.287742 C532.385961,153.735402 531.018487,148.860691 527.572655,145.623228 C526.169258,144.307789 524.285591,142.655409 525.026839,140.882091 C525.625578,139.889131 526.633943,139.211496 527.781056,139.03122 C533.281115,137.437283 539.092682,137.019501 544.501043,135.13878 C549.909405,133.258059 555.154343,129.410166 556.435155,123.839357 C556.827669,122.13216 557.006371,120.064111 558.542985,119.217702 C559.314005,118.892834 560.141999,118.72401 560.978919,118.721029 C567.056603,117.85814 571.468446,112.507176 571.146385,106.389278 C573.738332,104.581861 577.36972,105.911397 579.877238,107.833788 C582.384756,109.75618 584.598551,112.295994 587.649644,113.124679 C593.335615,114.669057 598.830475,109.644997 604.723224,109.621709 C607.201301,109.611919 609.766607,110.486323 612.09794,109.647896 C614.461337,108.79793 615.872709,106.450093 617.686603,104.715557 C619.500498,102.981022 622.68322,101.923069 624.358145,103.791606 L622.93186,93.2484678 C628.743131,94.713542 634.905301,93.6017395 639.834665,90.1987987 L621.401079,83.9831243 C620.759235,83.8232074 620.16704,83.507219 619.677329,83.0633522 C618.337166,81.6232079 619.668296,79.3790054 620.758068,77.7419313 C623.365082,73.8256167 623.802715,67.3745 619.515553,65.4247471 C616.589269,64.0939077 613.230373,65.6913892 610.421651,67.2542786 L596.96745,74.7407639 C596.539897,77.2929382 599.66729,78.7393625 601.605252,80.4584739 C604.005209,82.5874181 604.847073,85.9695749 603.72433,88.9717859 C602.601586,91.973997 599.745168,93.9787469 596.534369,94.0179925 C598.329028,96.346441 598.96572,99.3627942 598.264776,102.215864 L589.212452,102.865578 C588.1965,103.06956 587.140944,102.86396 586.276417,102.293699 C585.308242,101.435587 585.439542,99.9318693 585.215145,98.6591803 C584.673546,95.58742 581.659575,93.4344928 578.583594,92.8824629 C575.507613,92.330433 572.360812,93.0380159 569.314906,93.7366896 C568.021552,94.2011568 566.601245,94.1684468 565.330737,93.644933 C564.602204,93.1726268 564.048612,92.4753195 563.754519,91.6595199 C562.419155,88.4283214 563.667339,84.6303265 565.812043,81.8670781 C567.956747,79.1038297 570.892712,77.0838127 573.529519,74.7833966 C579.835182,69.2620158 584.468044,62.0909387 586.904761,54.0802384 C591.888086,51.9965776 597.047232,49.1655066 602.030499,47.0817988 C609.713393,43.1999158 618.329131,41.5340149 626.908854,42.2714302 L643.78523,42.5931239 C648.781777,42.6883666 653.913482,42.8104073 658.533676,44.7113768 C663.15387,46.6123462 667.213516,50.7238768 667.532493,55.7009613 C667.728075,56.8463716 667.319231,58.0116104 666.450379,58.78507 C665.797903,59.1404206 665.058874,59.3066591 664.316731,59.2650164 C659.656852,59.4284456 657.670042,60.5871579 653.010269,60.7505284 Z"/>
    <path fill="#3F3D56" d="M518.379526 110.419728C519.656517 109.413047 520.150349 107.89621 519.658847 106.490216 516.54978 105.491055 513.029425 106.044647 510.571947 107.919172 509.622114 108.719266 508.803539 109.620479 508.13752 110.59936 506.030715 113.461851 504.167266 116.881029 505.388234 120.080774 505.589259 120.785697 506.122823 121.39345 506.868436 121.766786 507.415642 121.949694 508.005604 122.026653 508.593759 121.991849 510.914677 121.989337 513.233309 121.870491 515.537079 121.635955 516.951855 121.4919 518.595091 121.159177 519.141853 120.063009 519.860578 118.622085 518.120985 116.991378 518.628111 115.489324 518.961749 114.817629 519.467347 114.214643 520.109632 113.722434 520.755667 113.219934 521.079451 112.493212 520.983356 111.761395 520.778698 111.056614 519.48285 110.656787 519.016376 111.269114M534.324622 98.4665833C532.594537 98.0182552 530.811182 97.891864 529.044993 98.0924015 528.654377 98.0792719 528.267227 98.1785687 527.920004 98.3809402 527.583568 98.6609569 527.339585 99.0597127 527.226739 99.5139831 526.453204 102.316152 527.717181 105.318824 530.130564 106.412233 530.764861 106.576816 531.37244 106.852375 531.931266 107.228917 533.424501 108.536463 532.472574 111.209091 532.755249 113.318113 533.072664 115.686361 535.103851 117.674248 534.731452 120.032273 534.438069 121.889996 532.680002 123.360997 532.963033 125.220805 533.259492 127.168669 535.449593 127.753979 537.19532 127.909963 538.207054 128.10991 539.24844 127.975209 540.193857 127.522109 541.141471 126.790816 541.815441 125.689249 542.085662 124.430059 542.800362 122.029149 543.100682 119.495886 542.970368 116.967377 542.962675 115.817365 542.706748 114.686796 542.224744 113.673543 541.699048 112.870827 541.116317 112.117746 540.482327 111.421765 537.137672 107.030921 540.659385 100.481433 534.324622 98.4665833z"/>
  </g>
</svg>
