<svg width="162" height="147" xmlns="http://www.w3.org/2000/svg"><g fill="none" fill-rule="evenodd"><path d="M161.321 115.737c0 .158.131.29.289.29a.292.292 0 00.289-.29.292.292 0 00-.29-.289.292.292 0 00-.288.29M74.373.108c-.137 0-.273.002-.409.008-.393.015-.788.065-1.17.114-.17.022-.34.044-.511.063l-.195.022c-.526.058-1.07.119-1.609.152-.358.022-.722.037-1.075.05-.257.011-.514.022-.772.035l-.465.025-.44.023c-.216.012-.435.03-.646.048-.11.01-.221.019-.332.027l-.252.02c-.482.036-.982.073-1.471.125a75.26 75.26 0 00-1.848.218c-.645.084-1.222.173-1.765.272-.303.055-.598.116-.926.184-.223.047-.447.09-.67.132l-.285.054c-.198.038-.396.071-.595.104l-.25.042c-.21.036-.42.075-.63.114l-.32.058c-.597.108-1.191.246-1.744.379a30.73 30.73 0 01-1.763.353l-.094.017c-.303.054-.605.11-.907.167a69.207 69.207 0 01-1.413.256c-.306.053-.623.107-.933.168-.398.079-.798.182-1.185.282l-.265.068-.082.021c-.232.059-.471.12-.703.192-.195.061-.39.132-.578.2l-.177.065c-.41.148-.85.31-1.288.5-.123.05-.24.098-.348.162a.452.452 0 00-.218.367c-.505.197-.92.369-1.306.54-.501.225-.996.48-1.457.722l-.336.176c-.37.193-.751.393-1.12.6-.328.184-.65.39-.96.587l-.287.183c-.258.162-.512.338-.757.51-.121.084-.242.168-.364.25-.32.219-.663.462-1.049.745-.262.192-.52.4-.77.6l-.247.198-.033.026-.079.061c-.169.13-.316.25-.452.368-.12.105-.236.217-.348.325l-.18.173c-.149.14-.311.27-.469.397l-.092.075c-.221.179-.442.357-.664.534l-.205.157a90.269 90.269 0 00-2.606 2.047c-.151.126-.3.26-.442.389l-.13.118-.595.531-.289.26-.2.184c-.117.105-.236.205-.356.305l-.129.108c-.14.12-.276.24-.402.357-.139.128-.272.268-.4.402l-.132.137c-.174.18-.353.357-.532.534-.21.207-.426.422-.633.64l-.175.182c-.141.147-.282.294-.421.444-.196.212-.39.424-.583.638-.461.516-.85.938-1.224 1.328-.369.384-.768.792-1.22 1.248-.225.226-.45.453-.673.68-.24.243-.476.495-.705.74-.313.333-.622.68-.92 1.014l-.236.265c-.411.46-.814.94-1.202 1.403-.306.365-.604.746-.892 1.114l-.209.267c-.394.501-.8 1.02-1.187 1.54-.352.476-.685.976-1.007 1.46l-.03.044-.642.965-.407.61c-.398.597-.726 1.093-1.03 1.56l-.2.306c-.24.365-.487.742-.718 1.12-.245.4-.562.931-.846 1.483a14.762 14.762 0 00-.701 1.542 31.887 31.887 0 00-.606 1.617c-.15.446-.289.903-.424 1.345l-.07.226c-.153.5-.294 1.012-.43 1.508l-.065.235a50.042 50.042 0 00-.428 1.633c-.137.572-.263 1.089-.386 1.58-.108.432-.2.875-.29 1.303l-.058.28a63.05 63.05 0 00-.34 1.745l-.06.317a22.817 22.817 0 00-.224 1.388c-.093.687-.155 1.259-.196 1.8l-.048.6c-.033.391-.067.797-.09 1.197-.01.187-.022.374-.035.56l-.02.312c-.008.108-.014.217-.02.325-.013.217-.026.433-.043.649a54.735 54.735 0 00-.119 1.774 45.987 45.987 0 00-.039 1.712c-.006.601-.01 1.202-.012 1.803-.002.34-.002.678-.002 1.016 0 .278.015.558.031.83l.005.091c.014.234.036.472.058.701l.022.246c.025.275.057.554.088.824l.016.136.036.322a39.604 39.604 0 00.233 1.794 19.577 19.577 0 00.22 1.336c.122.612.238 1.153.355 1.654.084.362.18.726.274 1.08a47.23 47.23 0 01.343 1.355c.057.238.12.475.183.711l.047.18c.084.32.17.64.256.96.052.19.109.38.166.57l.077.26.071.244c.145.496.29.992.44 1.485.103.337.215.677.323 1.007.054.165.109.33.162.496.158.488.318.974.477 1.461l.087.263c.126.385.249.78.367 1.16l.157.504.055.175.188.597c.077.245.16.488.243.732l.054.16c.184.541.396 1.096.649 1.695l.008.015h-.002c.19.452.383.9.576 1.348l.077.189c.177.432.36.879.574 1.303.076.152.157.302.239.451l.11.205c.125.235.25.485.382.765.175.372.372.74.563 1.096.07.129.138.257.206.387l.025.045c.253.481.515.979.78 1.464.26.473.558.933.846 1.378l.079.122c.102.16.206.318.31.476.184.281.374.572.555.862.23.366.463.72.694 1.05.113.16.222.33.327.492l.064.099c.153.235.311.463.471.677.052.07.105.137.158.205l.044.057.099.13c.096.126.195.258.3.38.107.126.212.252.317.379l.283.337c.329.388.708.78 1.228 1.269.166.157.341.31.51.46.199.174.404.355.598.542.185.18.365.368.54.551.165.173.336.353.51.523.091.089.185.175.279.261l.226.21c.17.163.358.333.575.523.128.11.253.225.378.339.079.072.157.144.237.215l.286.254c.109.095.218.191.326.288.315.284.647.558.968.824l.27.223c.44.365.842.675 1.232.946l.178.124c.224.156.449.311.67.472.309.223.616.452.914.68l.098.076c.17.132.34.265.513.394.232.173.473.339.707.499a61.191 61.191 0 00.676.46c.193.133.373.27.589.438.25.198.505.405.759.61l.457.37c.167.134.338.28.509.433.121.109.246.213.37.318l.248.21c.47.406.867.732 1.252 1.025.424.323.877.621 1.316.91l.071.047c.502.33.927.603 1.368.862.184.107.376.208.561.306l.029.014c.222.117.423.218.612.31.49.236.998.442 1.473.63.247.097.5.19.745.28a28.967 28.967 0 01.993.38l.066.028c.09.038.181.077.273.114.5.21 1.02.392 1.523.566l.058.02c.477.165.995.336 1.63.538l.21.067c.171.055.342.11.514.162.236.07.474.137.711.203l.092.026c.234.066.468.133.701.201.305.088.61.177.915.26l.36.098c.412.113.838.229 1.254.354.219.065.438.139.651.21.277.092.564.188.851.268.486.135.983.267 1.464.393l.13.035.346.093c.459.124.933.253 1.41.34l.323.059c.645.118 1.312.24 1.973.328l.07.01a29.668 29.668 0 001.13.146c.145.016.289.032.433.05l.224.035.288.044c.14.022.281.038.422.055l.184.023c.24.034.497.07.756.098.27.03.546.04.784.05.109.004.217.006.326.008.16.003.32.007.48.015.158.008.316.022.473.035.117.01.233.02.35.027.503.034 1.017.037 1.513.04h.555a.48.48 0 00.382.19l.138-.014c.2-.018.408-.037.612-.037l.11.001c.148.006.297.021.436.036.058.01.115.022.172.034l.095.019c.164.034.323.056.515.08l.087.012c.172.023.349.047.524.047.037 0 .074 0 .111-.004.276-.017.542-.053.79-.104.183-.038.365-.096.54-.152l.24-.074.21-.062c.197-.058.395-.116.592-.177.176-.055.357-.101.533-.146l.207-.053c.341-.089.684-.162 1.034-.236.313-.066.727-.15 1.15-.209l-.016.002c.495-.069.992-.153 1.457-.235l.307-.053c.401-.07.815-.142 1.222-.22a13.6 13.6 0 00.324-.067c.101-.022.202-.044.303-.064.25-.049.47-.098.671-.15.152-.04.303-.08.455-.118.244-.062.488-.124.731-.191.457-.127.867-.236 1.253-.331l.5-.12a20.808 20.808 0 001.629-.435l.427-.125c.35-.102.707-.193 1.053-.282l.338-.087c.225-.058.452-.111.68-.164.268-.062.547-.126.818-.2.472-.13.95-.265 1.423-.403.493-.142.923-.285 1.314-.438a23.405 23.405 0 011.532-.513l.146-.045a16.78 16.78 0 001.552-.555c.38-.16.882-.375 1.38-.612l.144-.07c.27-.128.548-.261.818-.401.226-.117.447-.253.662-.384.109-.067.217-.134.327-.198.118-.07.239-.134.36-.198l.155-.082c.168-.091.334-.186.5-.28l.028-.016c.279-.16.548-.343.808-.52.132-.09.264-.18.397-.267.297-.194.61-.415.96-.678.173-.131.344-.27.509-.406.112-.091.223-.182.336-.272l.012-.008c.225-.168.458-.341.676-.526.18-.153.366-.299.507-.409l.181-.134c.233-.173.473-.352.718-.516.145-.098.29-.194.437-.291.265-.177.53-.353.793-.533l.899-.616c.676-.462 1.353-.925 2.027-1.391.407-.282.88-.611 1.329-.956.193-.148.388-.293.583-.437.253-.187.515-.38.766-.58.234-.185.466-.381.69-.572.193-.162.386-.325.582-.484l.222-.177c.145-.116.296-.235.44-.358l.041-.035a9.27 9.27 0 00.264-.23c.078-.071.154-.146.23-.22l.146-.145c.682-.653 1.359-1.39 2.193-2.39.335-.403.663-.823.98-1.23l.103-.131c.35-.449.762-.983 1.165-1.544.312-.435.629-.921.967-1.486.089-.147.176-.295.263-.443.215-.364.437-.74.67-1.1.233-.36.462-.729.684-1.085l.236-.38.27-.437c.22-.36.448-.733.693-1.087.669-.967 1.172-1.79 1.583-2.593.145-.284.283-.579.416-.864.085-.182.17-.363.258-.544.086-.178.164-.363.24-.542l.061-.146.057-.131.214-.502c.153-.364.304-.736.43-1.052.154-.382.28-.772.373-1.07a45.14 45.14 0 00.555-1.89c.045-.166.084-.336.12-.501l.037-.16c.173-.752.335-1.553.494-2.45.125-.707.295-1.536.61-2.322l.073-.164c.075-.164.151-.333.218-.502l.16-.416.16-.415c.241-.619.445-1.168.624-1.681l.13-.37c.146-.413.296-.839.427-1.264.207-.67.357-1.221.471-1.733.109-.483.156-.984.2-1.47l.025-.257c.058-.597.099-1.24.124-1.963.02-.61.026-1.21.03-1.766.002-.331.004-.662.004-.993 0-.356-.015-.71-.03-1.073a31.21 31.21 0 00-.056-.9l-.016-.225c-.026-.387-.08-.778-.134-1.156l-.033-.238c-.077-.562-.164-1.132-.247-1.683l-.12-.794a23.376 23.376 0 00-.035-.231l-.042-.269-.019-.13-.022-.152-.009-.083a2.266 2.266 0 00-.023-.188 1.963 1.963 0 00-.02-.142.613.613 0 00-.013-.085l-.046-.384c-.054-.457-.111-.93-.15-1.395a72.64 72.64 0 00-.171-1.836 33.576 33.576 0 00-.268-1.866 57.21 57.21 0 00-.112-.642c-.06-.339-.122-.689-.173-1.035l-.064-.478a66.775 66.775 0 01-.19-1.77c-.014-.146-.03-.293-.048-.439l-.044-.395-.03-.309-.066-.649a22.853 22.853 0 00-.384-2.542c-.062-.325-.125-.651-.184-.978l-.006-.033a97.982 97.982 0 00-.145-.788c-.04-.214-.092-.43-.141-.638l-.042-.177c-.119-.51-.284-1.011-.443-1.497l-.09-.276a53.782 53.782 0 01-.19-.596c-.104-.333-.211-.677-.328-1.012a16.88 16.88 0 00-.682-1.637c-.29-.623-.548-1.182-.785-1.71a17.476 17.476 0 00-.39-.819 66.698 66.698 0 00-.474-.89c-.141-.262-.286-.523-.43-.784-.16-.291-.321-.583-.478-.876a80.147 80.147 0 01-.227-.428c-.183-.348-.373-.708-.573-1.054-.206-.357-.478-.827-.755-1.294a20.804 20.804 0 00-.861-1.298 40.76 40.76 0 01-.41-.598c-.186-.275-.379-.56-.577-.833a50.922 50.922 0 00-1.19-1.578 59.535 59.535 0 00-2.485-2.931c-.373-.417-.766-.828-1.146-1.226l-.192-.2c-.334-.35-.662-.718-.98-1.074l-.289-.324a83.453 83.453 0 00-2.554-2.756c-.562-.573-1-1.007-1.418-1.404a36.1 36.1 0 00-1.33-1.189c-.25-.217-.502-.432-.756-.645l-.176-.148c-.192-.162-.39-.33-.594-.485l-.025-.02c-.484-.367-.985-.747-1.51-1.07a69.428 69.428 0 00-3.327-1.929 48.997 48.997 0 00-3.46-1.678c-.708-.311-1.424-.636-2.116-.95-.427-.193-.853-.387-1.28-.578-.277-.124-.549-.241-.808-.35l-.124-.051c-.226-.095-.46-.193-.695-.275-.436-.151-.895-.243-1.34-.332l-.234-.048c-.62-.128-1.22-.3-1.673-.436-.598-.18-1.223-.366-1.855-.55l-.939-.267c-.312-.089-.624-.177-.936-.268a145.406 145.406 0 01-3.667-1.116 62.852 62.852 0 01-.491-.16 29.59 29.59 0 00-1.315-.408 26.16 26.16 0 00-.9-.23c-.22-.052-.449-.092-.67-.13l-.257-.045c-.187-.034-.38-.06-.565-.086L78.778.53c-.38-.056-.76-.11-1.14-.16l-.23-.03C76.893.275 76.36.205 75.833.17c-.47-.031-.97-.062-1.46-.062" fill="#162E51"/><path d="M25.739 20.807a.936.936 0 00-.348.065c-.285.114-.507.34-.746.602-.092.1-.176.206-.276.335l-.026.033c-.05.064-.097.124-.146.182-.123.148-.261.287-.395.42a7.107 7.107 0 00-.403.425c-.074.09-.16.196-.233.313a1.03 1.03 0 00-.066.95c.117.26.355.437.585.608l.065.05.027.02.028.022c.019.014.035.03.052.045l-.02.025a1.627 1.627 0 01-.098.094 2.429 2.429 0 01-.312.178c-.099.033-.193.058-.286.074a2.038 2.038 0 01-.358-.003 3.588 3.588 0 01-.235-.057.55.55 0 00-.154-.29.582.582 0 00-.409-.17.544.544 0 00-.32.104.392.392 0 00-.243-.009.442.442 0 00-.262.202.442.442 0 00-.048.314l-.103.09c-.117.108-.235.213-.353.318l-.195.174-.439.389-.077.068-.055.048c-.174.154-.348.308-.52.463a5.346 5.346 0 00-.39.406l-.108.12a22.487 22.487 0 00-1.502 1.818c-.158.215-.3.418-.431.62a8.736 8.736 0 00-.308.524l-.022.04-.223.398c-.151.27-.301.538-.45.809a41.99 41.99 0 01-.759 1.32l-.027.047c-.261.434-.531.882-.77 1.346-.248.482-.499.965-.75 1.446-.12.225-.235.46-.353.7l-.01.02c-.11.224-.224.456-.343.682a43.93 43.93 0 00-1.333 2.77l-.192.433c-.147.328-.329.735-.486 1.131l-.105.268c-.164.411-.327.823-.486 1.235-.156.403-.35.903-.502 1.388a24.253 24.253 0 00-.404 1.489c-.085.342-.178.688-.268 1.023l-.007.027c-.163.606-.33 1.233-.458 1.858a23.255 23.255 0 00-.418 3.274c-.014.234-.034.47-.054.7l-.004.04-.003.033c-.021.235-.048.527-.063.812a50.6 50.6 0 00-.038.768 8.81 8.81 0 00.001.631l.004.152c.01.593.035 1.127.074 1.633.023.315.057.634.09.943l.006.051c.02.182.039.362.056.543.024.242.046.484.068.726l.015.167.001.017c.02.223.04.447.062.67.012.125.022.25.032.373a17.902 17.902 0 00.084.845l.01.09.003.023.03.257c.028.28.067.568.12.878l.024.145c.04.246.075.45.117.655.078.383.23.737.439 1.022.15.206.354.384.605.528.151.086.326.148.454.193.116.042.235.076.358.11l.03.009.031.009c.061.017.122.035.182.054.176.055.386.118.603.156a2.77 2.77 0 00.747.03c.137-.01.27-.032.385-.06l.117-.032c.072-.02.143-.04.216-.055h.061l.028.008c.027.015.054.03.08.048.098.088.18.172.253.259.044.05.086.103.128.156l.019.022.036.045.071.089c.221.265.479.485.765.653.243.142.525.26.89.37.292.088.526.169.738.253.066.03.131.064.197.097l.031.016.033.016.014.007a5.299 5.299 0 001.044.418c.356.101.822.24 1.272.422.063.028.158.071.244.119.122.067.232.14.313.197.3.24.546.48.75.73.35.477.607 1.013.812 1.474.115.298.213.545.328.788.072.153.17.303.306.473.21.26.516.38.734.433.143.036.295.053.467.053.234 0 .47-.033.668-.065.166-.027.332-.057.497-.086l.056-.01.249-.045c.286-.051.581-.103.858-.21a3.99 3.99 0 00-.322.953 6.486 6.486 0 00-.08.637l-.004.057c-.01.125-.021.25-.026.373-.007.19-.01.382-.011.572-.004.339-.007.689-.044 1.031a2.572 2.572 0 01-.047.243 2.597 2.597 0 01-.1.31 2.823 2.823 0 01-.332.542c-.078.1-.158.197-.238.295l-.212.262c-.11.137-.229.27-.344.4-.083.093-.167.186-.248.282l-.047.056c-.207.245-.42.499-.547.794-.14.327-.184.64-.13.929.04.223.13.42.226.628.028.072.058.15.077.231v.09c-.01.046-.023.09-.038.134l-.043.09c-.089.184-.18.375-.218.582-.023.123-.04.239-.05.353-.013.134.002.267.02.403.042.297.186.581.416.821.112.117.235.225.354.33l.142.127c.176.16.34.33.487.508.08.11.14.207.19.306.067.206.103.423.137.634l.003.02c.026.213.05.446.074.711.027.288.054.586.122.872.037.156.087.309.155.466.079.186.208.345.334.5l.017.02c.064.08.13.157.195.235.079.095.158.19.235.285.18.242.322.471.434.7.039.109.074.22.11.33.088.281.18.572.341.821.303.469.8.734 1.24.969l.493.26.493.261c.326.174.597.342.828.514.08.069.152.141.22.221.068.095.12.174.162.25.051.096.096.195.14.292l.01.022c.051.127.11.27.156.417.066.215.119.428.158.59.03.128.059.257.087.385.056.254.114.517.19.772.126.426.313.826.479 1.161.06.121.121.24.183.359.108.208.22.423.317.641.058.136.11.26.151.386.065.192.101.385.126.532.044.403.04.84-.01 1.334a9.154 9.154 0 01-.17.775l-.053.214-.025.101c-.035.14-.071.286-.099.43-.04.212-.066.418-.096.665-.045.373-.063.754-.081 1.123-.016.342-.033.695-.071 1.04-.047.305-.12.61-.189.904-.033.14-.066.28-.097.42-.126.578-.217 1.066-.252 1.571-.01.134-.011.24-.004.335.011.157.025.31.064.456.092.345.261.643.504.886.08.08.172.153.262.222l.03.023c.111.087.234.177.375.273.128.088.26.172.39.256l.158.102c.397.258.79.534 1.17.802l.08.057.247.176c.276.196.56.399.849.585l.437.285.724.47c.175.112.347.23.52.346.211.144.43.293.651.43.17.106.34.208.512.31.13.077.259.154.387.232a4.592 4.592 0 00.694.353l.15.057c.092.032.193.049.3.049a.741.741 0 00.736-.53c.046-.15.096-.38.068-.613l-.006-.055c-.011-.093-.022-.189-.045-.28a2.364 2.364 0 00-.13-.37c-.134-.303-.334-.548-.546-.807.042-.048.095-.097.157-.15.124-.087.262-.17.435-.263l.039-.02.064-.034a2.28 2.28 0 00.307-.215 1.154 1.154 0 00.36-.782c.01-.107-.005-.231-.02-.34l-.003-.03-.031-.239c.12.096.224.177.346.242.149.079.294.128.43.146a1.777 1.777 0 00.336.015c.08-.007.156-.02.232-.038a2.57 2.57 0 00.208-.084c.058-.036.118-.081.186-.141.088-.078.143-.197.197-.322.135-.322.209-.614.23-.918.016-.222-.036-.454-.085-.654a4.173 4.173 0 00-.13-.403l-.018-.051a4.56 4.56 0 01-.203-.728 1.467 1.467 0 01-.005-.213l.015-.057a.444.444 0 01.07-.043c.26-.09.532-.132.79-.168.225-.022.493-.047.761-.06a3.44 3.44 0 01.164-.004c.14 0 .281.007.418.014l.214.01c.285.01.505.014.71.014h.032c.23 0 .466-.017.693-.033l.076-.005.09-.006c.234-.016.475-.032.71-.066.15-.022.259-.053.365-.104a.933.933 0 00.398-.378c.092-.148.11-.318.122-.48a2.125 2.125 0 00-.07-.628 2.596 2.596 0 00-.173-.464l-.024-.054a1.848 1.848 0 00-.19-.326 4.455 4.455 0 00-.509-.59 3.418 3.418 0 01-.128-.13.565.565 0 01-.02-.034 1.568 1.568 0 01-.031-.117v-.08c.01-.041.021-.08.034-.12.1-.194.229-.377.354-.554l.078-.111.228-.329c.192-.277.346-.511.485-.738.088-.144.153-.293.222-.459.143-.34.099-.701.036-.944-.053-.208-.178-.394-.311-.583l-.063-.087c-.084-.116-.164-.225-.229-.351a1.273 1.273 0 01-.036-.129 1.917 1.917 0 01.004-.228c.02-.104.048-.204.085-.306.036-.07.072-.132.11-.188a3.52 3.52 0 01.31-.326c.094-.086.192-.166.3-.254.053-.037.109-.07.17-.101.15-.053.303-.083.446-.107.205-.022.43-.033.691-.033.224 0 .454.008.657.015.122.004.244.014.366.023.126.009.251.019.377.023a3.838 3.838 0 00.368-.005c.187-.011.337-.047.486-.116a.948.948 0 00.385-.345c.204-.313.286-.704.339-1.046.044-.283.079-.59.107-.94a9 9 0 00.022-.8 6.274 6.274 0 00-.088-.885c-.021-.138-.053-.277-.084-.411l-.025-.113a6.494 6.494 0 01-.082-.46 3.156 3.156 0 01-.005-.59c.016-.08.041-.163.078-.26.158-.353.35-.697.534-1.03a39.341 39.341 0 00.55-1.017l.086-.163c.084-.16.172-.324.249-.49.066-.143.128-.289.189-.434.048-.114.095-.227.129-.342.08-.269.134-.51.168-.737.028-.193.051-.386.074-.579.013-.104.025-.21.039-.314.038-.297.064-.56.078-.806a4.268 4.268 0 00-.3-1.806 6.165 6.165 0 00-.26-.592c-.096-.184-.266-.318-.42-.425a1.471 1.471 0 00-.287-.143l-.055-.023a18.15 18.15 0 00-.507-.201l-.276-.108a3.673 3.673 0 01-.629-.362c-.225-.184-.435-.389-.64-.587-.12-.118-.242-.237-.367-.351a1.598 1.598 0 00-.1-.082l-.033-.026a11.126 11.126 0 00-.169-.13 1.44 1.44 0 00-.317-.166 1.49 1.49 0 00-.57-.106h-.002c-.111 0-.214.018-.313.036l-.07.013c-.135.023-.269.063-.398.1-.105.03-.213.062-.32.085a1.95 1.95 0 01-.22.006 1.555 1.555 0 01-.135-.038 1.962 1.962 0 01-.26-.159l-.115-.098a4.5 4.5 0 00-.576-.44 6.044 6.044 0 00-.78-.395 3.502 3.502 0 00-.823-.242 4.658 4.658 0 00-.533-.051l-.052-.002a5.96 5.96 0 01-.283-.016 1.4 1.4 0 01-.163-.045 2.124 2.124 0 01-.214-.227 4.343 4.343 0 01-.365-.677c-.081-.204-.156-.41-.231-.616-.088-.24-.178-.49-.276-.73a8.33 8.33 0 00-.36-.783 6.436 6.436 0 00-.393-.633 8.104 8.104 0 00-.518-.677 2.894 2.894 0 00-.597-.512c-.236-.16-.508-.272-.771-.38l-.03-.013a3.24 3.24 0 00-.706-.194 21.267 21.267 0 00-.251-.041c-.205-.033-.416-.067-.622-.115a5 5 0 01-.847-.254 8.592 8.592 0 01-.87-.45 7.653 7.653 0 01-.729-.501c-.127-.101-.251-.21-.371-.313l-.15-.13a5.376 5.376 0 00-.678-.496c-.406-.25-.893-.526-1.426-.669a12.071 12.071 0 00-.525-.125 23.99 23.99 0 01-.23-.051 8.487 8.487 0 00-.763-.142 12.087 12.087 0 00-1.552-.097 2.08 2.08 0 01-.197-.01c-.081-.015-.161-.035-.242-.054-.055-.014-.11-.028-.167-.04-.08-.017-.16-.037-.24-.058a7.253 7.253 0 00-.23-.055c-.238-.053-.489-.07-.71-.087l-.07-.005c-.12-.009-.243-.018-.365-.018-.039 0-.078 0-.117.003-.359.02-.662.116-.9.284a2.483 2.483 0 00-.457.445c-.222.264-.428.548-.628.822l-.023.033c-.057.07-.114.14-.174.207-.084.094-.161.196-.236.294l-.063.082.02-.022a5.54 5.54 0 00-.215.297 1.66 1.66 0 00-.026-.396 1.505 1.505 0 00-.235-.564 2.017 2.017 0 00-.27-.305c-.154-.147-.362-.269-.638-.371a3.36 3.36 0 00-.328-.099l-.015-.004c-.103-.027-.21-.055-.311-.091l-.104-.039a8.638 8.638 0 01-1.437-.9 2.404 2.404 0 01-.275-.254 1.016 1.016 0 01-.033-.058 1.67 1.67 0 01-.06-.24c-.024-.263-.032-.541-.039-.764-.004-.155-.009-.308-.017-.462a31.005 31.005 0 00-.043-.693l-.004-.042-.001-.022a7.588 7.588 0 01-.029-.585c0-.109.01-.223.018-.33.009-.112.02-.24.018-.366a1.605 1.605 0 00-.052-.36 1.13 1.13 0 00-.226-.421 1.158 1.158 0 00-.736-.42c-.189-.029-.382-.046-.57-.063l-.028-.002-.027-.003-.133-.012a13.376 13.376 0 01-.56-.065 4.288 4.288 0 01-.262-.05c.115-.127.235-.258.353-.385.219-.238.444-.483.625-.763.081-.126.139-.258.196-.394.04-.103.087-.223.12-.346.029-.116.057-.244.083-.379l.012-.066c.049-.25.099-.509.044-.761-.061-.28-.198-.524-.375-.67-.074-.06-.17-.133-.252-.146l-.043-.006-.043-.007a.507.507 0 00-.22-.008 1.336 1.336 0 00-.387.104 8.369 8.369 0 00-.752.358c-.21.115-.426.251-.657.418a4.612 4.612 0 00-.632.537l-.08.083-.066.07c-.258.266-.55.568-.84.854-.209.202-.417.393-.555.519-.14.127-.293.244-.44.358l-.013.01-.03.023-.018.015c-.316.238-.686.507-1.079.687a1.577 1.577 0 01-.195.053l-.027.003c-.027-.05-.054-.102-.08-.155a3.364 3.364 0 01-.145-.625 22.749 22.749 0 01-.142-1.915 8.23 8.23 0 01.043-.972c.02-.252.051-.537.093-.87.031-.17.066-.352.111-.544.048-.204.102-.434.183-.65.06-.137.143-.316.256-.49a3.24 3.24 0 01.368-.365c.12-.088.222-.158.335-.215a5.929 5.929 0 011.204-.293c.244-.027.445-.04.633-.04l.068.001c.1.002.2.008.3.014l.016.001.016.001c.1.006.204.012.305.012h.044c.277-.005.548-.055.78-.145.085-.032.162-.067.235-.108.076-.043.144-.108.213-.175.13-.126.199-.291.26-.45a.949.949 0 00.039-.168l.002-.015.011-.06.021-.095.014-.06c.027-.117.066-.24.118-.377.024-.05.053-.102.089-.157a.839.839 0 01.056-.055l.025-.015a.891.891 0 01.074-.02 1.357 1.357 0 01.203.003c.116.022.22.05.317.083.113.058.226.127.343.21.106.094.208.205.33.357l.027.035c.2.267.447.598.695.903.081.098.16.198.24.298.184.23.373.47.576.69.098.106.206.193.308.271.047.04.099.076.153.11.072.048.156.081.236.114l.051.02c.042.019.084.035.126.05.066.024.137.031.206.038l.03.002.045.005a.4.4 0 00.06.004c.136 0 .277-.054.41-.112.226-.102.377-.282.505-.462.115-.159.205-.367.269-.62.071-.283.087-.59.047-.912a24.247 24.247 0 00-.094-.652l-.007-.048-.038-.236a2.595 2.595 0 01-.002-.409 1.97 1.97 0 01.062-.25 1.79 1.79 0 01.128-.217c.142-.158.306-.292.49-.438l.018-.013c.078-.058.155-.114.236-.159a5.01 5.01 0 01.273-.136 7.03 7.03 0 01.723-.246l.055-.016a6.99 6.99 0 00.374-.117c.5-.175.92-.392 1.278-.662l.102-.077c.298-.222.605-.452.83-.755a3.78 3.78 0 00.348-.557c.127-.252.216-.52.303-.779.063-.19.11-.327.164-.468.061-.138.124-.253.196-.36.123-.15.236-.277.347-.389.139-.14.287-.26.4-.349.382-.28.794-.535 1.146-.748.196-.12.395-.234.594-.348l.027-.016.04-.023.047-.027c.203-.117.412-.238.615-.363.511-.315.91-.558 1.295-.785.151-.09.3-.184.448-.28l.156-.099c.093-.06.187-.116.282-.174.108-.065.214-.13.32-.197l.09-.058.025-.016c.162-.105.346-.222.52-.346.08-.057.158-.115.237-.173l.038-.029c.109-.081.219-.162.332-.24.422-.289.878-.521 1.31-.735.124-.062.255-.117.381-.17l.037-.016.223-.096c.194-.085.42-.185.646-.295.23-.111.457-.247.675-.403.14-.1.301-.221.441-.359.039-.038.076-.08.112-.12l.033-.037c.05-.055.096-.116.14-.176l.041-.055a.88.88 0 00.16-.321.618.618 0 00-.055-.445c-.06-.1-.13-.153-.218-.219a1.464 1.464 0 00-.31-.183c-.117-.053-.24-.1-.36-.145l-.014-.006-.157-.06c.028-.119.044-.233.05-.347l-.006-.068a.82.82 0 00-.166-.456.711.711 0 00-.141-.165 1.23 1.23 0 00-.252-.174l-.015-.008c.094 0 .191-.004.295-.004.142 0 .284.006.424.012l.055.002.095.005.159.006.017.001c.157.007.352.016.538.016.114 0 .219-.003.32-.01.352-.023.719-.064 1.122-.125.184-.028.368-.072.53-.111a8.24 8.24 0 01.408-.09l.016-.002.019-.002a8.75 8.75 0 00-.157.484 5.245 5.245 0 00-.164.815c-.04.32.038.654.11.91.02.071.054.143.08.2l.022.046a.765.765 0 00.147.207c.067.055.127.104.192.141.077.045.167.075.239.1l.025.007c.185.065.382.085.601.104.12.01.248.015.405.015.3-.002.604-.054.872-.1a2.45 2.45 0 00.871-.322c.134-.083.258-.184.36-.29.122-.126.21-.292.254-.481.083-.342.031-.701-.023-.976a2.714 2.714 0 00-.287-.764 1.424 1.424 0 00-.282-.33 2.41 2.41 0 00-.297-.226 9.277 9.277 0 00-.358-.227 3.286 3.286 0 01-.197-.131 1.244 1.244 0 01-.093-.088l-.009-.015a.483.483 0 01-.017-.061 1.155 1.155 0 01.002-.218c.032-.19.068-.34.114-.475.063-.123.145-.236.224-.346l.028-.039c.087-.122.196-.273.281-.427.05-.088.09-.17.127-.25a1.28 1.28 0 00.115-.412 1.25 1.25 0 00-.023-.345 1.567 1.567 0 00-.074-.187.882.882 0 00-.115-.162 1.088 1.088 0 00-.271-.217c-.054-.032-.117-.054-.178-.076l-.073-.026a1.733 1.733 0 01-.134-.075.734.734 0 01-.04-.039 3.063 3.063 0 01-.072-.34 1.499 1.499 0 00-.221-.57 1.44 1.44 0 00-.554-.481 5.873 5.873 0 01-.238-.133c.135-.16.282-.352.323-.59a.824.824 0 00-.225-.733 1.357 1.357 0 00-.44-.29c-.339-.146-.706-.204-1.052-.25l-.019-.004c-.222-.031-.473-.066-.698-.146a1.705 1.705 0 01-.139-.083 1.76 1.76 0 01-.211-.216l-.013-.017c-.144-.197-.307-.421-.495-.617a1.801 1.801 0 00-.326-.25c-.1-.063-.221-.107-.319-.143l-.042-.015a1.705 1.705 0 00-.334-.077 2.445 2.445 0 00-.342-.025c-.264 0-.518.047-.755.138-.17.064-.329.152-.483.237a7.617 7.617 0 01-.27.145c-.06.022-.109.036-.156.046h-.041a1.64 1.64 0 01-.1-.027 3.757 3.757 0 01-.297-.197l-.025-.018a1.552 1.552 0 00-.612-.273 1.16 1.16 0 00-.202-.018c-.324 0-.654.145-.93.408-.19.183-.307.428-.388.62-.03.071-.064.155-.09.246a1.802 1.802 0 00-.048.28l-.006.043c-.018.147-.02.3-.006.467.014.19.055.376.096.55.012.053.029.107.045.16l.006.02c.04.132.067.228.086.321.003.043.003.085.001.126a.99.99 0 01-.028.105 1.497 1.497 0 01-.026.044c-.014.015-.029.03-.044.043-.212.141-.45.253-.68.36l-.13.062-.207.095-.021.009c-.222.1-.466.21-.675.357a1.975 1.975 0 00-.464.446c-.11.15-.17.317-.215.46a3.823 3.823 0 00-.098.41l-.033.175c-.05.269-.1.547-.195.805a3.266 3.266 0 01-.266.437c-.075.09-.157.172-.25.252a2.31 2.31 0 01-.248.145 1.984 1.984 0 01-.29.084 1.398 1.398 0 01-.224 0 1.629 1.629 0 01-.117-.031 1.593 1.593 0 01-.188-.106 1.13 1.13 0 01-.09-.088 1.174 1.174 0 01-.086-.15 3.727 3.727 0 01-.144-.663c-.01-.063-.018-.127-.026-.19-.018-.138-.036-.274-.065-.402-.068-.298-.165-.643-.368-.95a2.62 2.62 0 00-.429-.503c-.354-.317-.798-.505-1.225-.66a6.06 6.06 0 00-.3-.099l-.028-.009a8.743 8.743 0 01-.213-.066c-.179-.06-.357-.122-.533-.187a1.437 1.437 0 01-.317-.184 1.203 1.203 0 01-.104-.097l-.006-.02c0-.035 0-.072.003-.11.015-.078.039-.16.072-.251a3.87 3.87 0 01.381-.604c.238-.296.456-.558.717-.781.174-.12.343-.22.516-.303.312-.114.647-.187.943-.252l.015-.003.04-.009.178-.04c.12-.026.206-.046.29-.072l.016-.004a2.675 2.675 0 00.45-.169c.097-.044.162-.097.226-.148l.021-.016c.181-.146.293-.345.402-.537l.09-.159.211.12a3.993 3.993 0 00.708.33c.172.063.355.094.513.119.202.032.418.047.66.047h.028c.194-.001.39-.02.576-.04.246-.024.464-.056.669-.097.206-.04.406-.107.613-.204a.964.964 0 00.398-.342c.053-.086.087-.176.114-.252l.03-.21a1.673 1.673 0 00-.024-.215 2.164 2.164 0 00-.13-.337 9.98 9.98 0 00-.054-.113l-.039-.081.056-.015c.053-.014.106-.028.158-.045.185-.058.37-.137.528-.207.118-.05.233-.105.348-.16.11-.051.218-.103.328-.152.394-.166.717-.316 1.014-.51l.042-.027c.287-.188.613-.4.958-.56.236-.091.473-.158.723-.204a4.126 4.126 0 01.581-.03c-.02.042-.038.088-.056.134l-.013.035-.018.044c-.024.063-.049.126-.072.19-.09.244-.144.545-.16.892-.004.065 0 .13.01.193a.965.965 0 00.085.324c.072.17.203.264.341.364a1.986 1.986 0 00.315.132l.178.06c.178.058.413.138.644.23.077.032.157.068.234.111.079.045.156.091.234.138l.097.058c.232.139.49.26.788.37.298.11.598.184.892.22.064.009.138.018.212.018a.918.918 0 00.41-.09.812.812 0 00.275-.212c.118-.133.201-.307.242-.503.018-.088.028-.18.038-.273l.004-.03a1.5 1.5 0 01.047-.195.69.69 0 01.02-.037l.183.124.025.016.016.011c.064.042.129.084.196.123.094.054.198.106.317.16l.047.02c.106.048.21.095.312.128.117.038.23.067.346.088a3.185 3.185 0 00.427.047c.08 0 .162-.012.225-.022a.813.813 0 00.268-.093 1.1 1.1 0 00.28-.227.642.642 0 00.158-.268l.006-.032c.023-.105.046-.214.011-.325a2.783 2.783 0 00-.163-.384l-.028-.059a1.407 1.407 0 01-.049-.174 1.387 1.387 0 01.001-.145 2.14 2.14 0 01.069-.226l.01-.033c.018-.05.035-.099.05-.15.055-.196.052-.41-.011-.604-.067-.204-.222-.368-.35-.488a2.125 2.125 0 00-.161-.136l-.011-.01a1.841 1.841 0 01-.321-.31 1.011 1.011 0 01-.068-.117 4.607 4.607 0 01-.119-.403l-.004-.015-.005-.02c-.017-.064-.034-.129-.053-.192a1.684 1.684 0 00-.444-.732 2.216 2.216 0 00-.5-.344c-.465-.248-.993-.32-1.586-.382a5.756 5.756 0 00-.587-.027c-.18 0-.364.007-.542.013h-.027l-.028.002a20.066 20.066 0 01-1.194.014 8.664 8.664 0 01-.737-.055l-.023-.003a22.296 22.296 0 00-1.586-.127l-.08-.004c-.234-.01-.486-.022-.73-.045a5.885 5.885 0 01-.222-.026l-.027-.003a5.405 5.405 0 00-.32-.032l-.174-.01-.09-.004h-.015a1.946 1.946 0 00-.074-.002c-.157 0-.311.022-.46.044l-.02.003c-.243.035-.48.133-.706.292a.81.81 0 00-.279.305.961.961 0 00-.072.456c.004.109.019.225.046.365l-.028.004-.099.03a3.325 3.325 0 00-.407.161 1.124 1.124 0 00-.125.071 9.123 9.123 0 00-.142.11.843.843 0 00-.249.528c-.015.168.012.331.042.47.013.064.03.126.047.19l.008.03c.024.086.046.167.062.249a.78.78 0 010 .051 4.521 4.521 0 01-.78-.429 2.471 2.471 0 01-.227-.231.92.92 0 01-.06-.104 1.23 1.23 0 01-.05-.195 3.665 3.665 0 01-.004-.317v-.183a1.351 1.351 0 00-.094-.506.785.785 0 00-.155-.261.948.948 0 00-.265-.202c-.18-.093-.401-.138-.674-.138-.194 0-.384.022-.547.043l-.124.016c-.476.06-.969.123-1.391.377-.292.175-.517.52-.587.901-.025.138-.019.276-.013.41l.001.025c.004.073.007.147.005.22-.01.05-.023.099-.039.148l-.02.034-.021.004a1.358 1.358 0 01-.109.005c-.061 0-.13-.004-.222-.012a2.528 2.528 0 01-.615-.164 5.825 5.825 0 00-1.246-.32l-.026-.005-.133-.023-.296-.05-.05-.01-.1-.016c-.187-.032-.361-.061-.527-.12a2.036 2.036 0 01-.086-.046c.194-.215.419-.406.6-.56.298-.253.553-.485.705-.806.167-.354.182-.664.046-.921-.166-.314-.497-.546-.908-.636a3.912 3.912 0 00-.516-.065l-.059-.005a8.3 8.3 0 01-.333-.036 3.278 3.278 0 01-.575-.131 2.324 2.324 0 01-.332-.183c-.05-.032-.1-.064-.151-.092-.297-.161-.557-.24-.794-.24M103.426 11.737c-.354 0-.715.041-1.073.123-.176.04-.345.115-.51.187-.192.084-.36.19-.538.337a.712.712 0 00-.223.37c-.037.147 0 .278.07.43l.016.024.017.023a.5.5 0 00.13.138c.06.053.127.094.21.14.102.057.202.104.306.143.155.06.323.11.498.153.128.031.26.056.386.08l.212.041a1.2 1.2 0 01.093.024l-.128.071a3.433 3.433 0 01-.564.128l-.015.003a18.964 18.964 0 01-1.72.106c-.173.005-.346.01-.52.02a6.704 6.704 0 00-.821.101c-.237.043-.477.1-.688.15a7.715 7.715 0 00-.695.194c-.366.123-.724.284-1.07.44l-.327.146-.191.08c-.152.061-.304.118-.457.174l-.202.076a3.15 3.15 0 00-.755.38c-.245.181-.407.453-.455.766a.387.387 0 000 .207.52.52 0 00.06.21c.032.083.073.163.123.239.05.083.119.161.185.236l.025.029a2.286 2.286 0 00.323.292l.044.034c.07.056.135.117.197.187l.012.021.011.057c.002.04.001.081-.003.122l-.015.058-.013.051a.869.869 0 01-.066.11.603.603 0 01-.14.116l.079-.057c-.07.04-.142.078-.222.117a2.124 2.124 0 01-.301.081l-.04.001a.79.79 0 01-.055-.002l-.039-.01-.04-.01a.64.64 0 01-.06-.037 1.048 1.048 0 01-.105-.105 2.956 2.956 0 01-.266-.468c-.041-.114-.08-.229-.117-.343-.028-.085-.056-.17-.086-.255a3.049 3.049 0 00-.137-.338 1.66 1.66 0 00-.42-.542 1.318 1.318 0 00-.338-.207 1.063 1.063 0 00-.367-.08 4.103 4.103 0 00-.186.026c-.059.02-.117.044-.174.07a1.733 1.733 0 00-.3.226c-.098.09-.182.206-.262.318l-.05.07c-.039.053-.076.107-.113.16a7.43 7.43 0 01-.115.165.902.902 0 01-.072.076c-.057.04-.107.07-.162.097-.13.05-.254.084-.375.107-.277.028-.561.039-.835.05-.155.005-.31.011-.464.02-.136.008-.272.014-.409.02-.307.012-.625.025-.936.066a3.838 3.838 0 00-.707.162 6.908 6.908 0 00-.658.267c-.164.074-.325.158-.481.24l-.04.02c-.133.07-.278.14-.472.224a4.053 4.053 0 01-.504.15c-.186.042-.377.07-.562.096l-.128.019c-.183.027-.367.066-.545.103-.165.035-.335.07-.504.098a2.739 2.739 0 01-.454.015 1.767 1.767 0 01-.287-.075 2.183 2.183 0 01-.274-.152l-.062-.04c-.102-.067-.208-.135-.32-.185a.7.7 0 00-.295-.063h-.021c-.16.004-.296.111-.41.211-.213.186-.348.44-.478.684-.144.273-.273.532-.425.842-.13.265-.26.523-.432.765-.077.09-.162.174-.26.258-.14.099-.276.18-.42.247a2.47 2.47 0 01-.452.12 2.188 2.188 0 01-.31-.004 1.036 1.036 0 01-.128-.038 1.07 1.07 0 01-.13-.075 2 2 0 01-.18-.176 1.974 1.974 0 01-.138-.234 1.51 1.51 0 01-.044-.135 4.062 4.062 0 00-.008-.078c0-.036.002-.072.006-.108.012-.072.029-.139.052-.206.055-.115.122-.226.21-.35.06-.084.112-.174.16-.275.028-.06.052-.122.072-.186l.015-.054.014-.055c.011-.066.02-.131.029-.198a.683.683 0 00-.01-.212 1.296 1.296 0 00-.039-.186 3.24 3.24 0 00-.097-.302l-.02-.058c-.043-.121-.096-.242-.147-.358l-.018-.04a2.68 2.68 0 00-.508-.739 1.254 1.254 0 00-.14-.123l-.04-.032a2.21 2.21 0 00-.272-.185c-.09-.054-.193-.092-.293-.13l-.058-.021a3.518 3.518 0 00-.595-.156c-.1-.019-.204-.03-.304-.042a6.376 6.376 0 00-.412-.044l-.129-.011a4.187 4.187 0 00-.4-.017c-.11 0-.22.003-.328.005l-.125.003-.275.007c-.195.005-.39.01-.584.01-.269 0-.491-.01-.7-.031-.224-.04-.447-.1-.664-.158a7.411 7.411 0 00-1.96-.287c-.255 0-.506.02-.746.059a8.78 8.78 0 00-1.114.265c-.756.226-1.39.554-1.884.974-.214.181-.394.403-.568.619-.064.079-.127.158-.193.235-.105.125-.22.24-.35.365-.15.146-.276.26-.4.358l-.04.03c-.095.071-.192.144-.282.222-.087.075-.167.162-.245.246l-.074.08a3.447 3.447 0 00-.522.735c-.114.214-.198.45-.279.678l-.05.143-.032.086c-.073.201-.148.409-.229.611a5.94 5.94 0 01-.143.294 3.001 3.001 0 01-.21.337 4.1 4.1 0 01-.579.578c-.069.052-.142.098-.223.142-.159.06-.333.106-.564.148-.093.018-.187.032-.28.046a.702.702 0 00-.206.08l-.045.024c-.069.033-.134.093-.192.145l-.036.032c-.088.078-.166.19-.24.343-.089.19-.114.38-.127.54-.013.158.032.353.12.522.13.25.268.416.437.522a.916.916 0 00.467.166 1.405 1.405 0 00.302-.01c.116-.01.233-.032.346-.055l.04-.008a3.528 3.528 0 00.994-.362c.043-.024.085-.051.127-.078l.037-.024c.083-.053.17-.1.264-.143a1.07 1.07 0 01.134-.038 1.207 1.207 0 01.154-.002.93.93 0 01.075.02.598.598 0 01.076.047c.012.01.024.022.035.034.026.042.05.085.07.13.054.138.098.285.137.464.023.1.038.201.053.3.013.087.026.174.044.26.027.127.094.252.157.357.11.182.27.302.412.397.065.03.131.06.198.088l.017.005c.108.034.22.069.333.074.028.002.057.002.086.002.141 0 .289-.016.453-.048.175-.035.332-.076.48-.126.145-.048.281-.117.442-.206.315-.172.529-.46.736-.737l.056-.075c.085-.102.173-.2.262-.298l.06-.064.089-.098c.056-.063.104-.129.156-.203a.828.828 0 00.085-.174l.021-.055a.714.714 0 00.034-.17 1.062 1.062 0 00-.13-.664 1.545 1.545 0 00-.105-.144 1.393 1.393 0 00-.168-.163 7.682 7.682 0 01-.397-.308 2.247 2.247 0 01-.304-.322l-.017-.028-.006-.02-.008-.026-.002-.022-.002-.021a.755.755 0 01.03-.104c.046-.1.1-.191.168-.287a3.15 3.15 0 01.404-.423c.266-.194.562-.338.842-.464l.021-.009c.341-.142.693-.289 1.017-.485.145-.088.334-.205.52-.333.055-.036.108-.075.161-.113l.076-.055c.134-.095.274-.176.43-.25l.067-.018c.02.018.039.037.056.058l-.002-.003a2.118 2.118 0 01.104.196v.062a3.6 3.6 0 01-.137.522l-.023.073-.055.172a.998.998 0 00-.048.23l-.012.09c.003.066.01.132.02.197.048.132.09.24.177.336.097.107.206.194.331.266.05.029.101.056.152.083.085.045.172.092.256.145l.046.048c.072.11.132.22.184.336l.082.19a1.307 1.307 0 00.425.494l.05.036a3.846 3.846 0 00.407.26l.042.024c.29.16.588.325.859.525.034.03.066.06.098.092l-.057.012-.087.002c-.091 0-.179-.005-.267-.014a7.374 7.374 0 01-.52-.123 9.385 9.385 0 00-.251-.064c-.04-.01-.08-.02-.12-.028l-.044-.009-.043-.008-.202-.028c-.146.004-.356.025-.509.17a.86.86 0 00-.267.559c-.01.106-.015.213-.021.32-.007.127-.014.254-.027.38a.997.997 0 01-.048.198l-.016.027-.016.025a.95.95 0 01-.034.034l-.02.01-.04.023a.684.684 0 01-.08.021c-.065.007-.13.01-.194.014l-.085.006c-.147.01-.291.032-.4.051-.119.02-.246.08-.33.121l-.02.01c-.04.02-.081.04-.122.063-.085.048-.169.098-.252.15-.13.081-.252.179-.371.274l-.126.099-.256.192c-.123.091-.257.157-.383.216-.271.1-.557.169-.833.235l-.143.035c-.114.028-.228.058-.342.089l-.148.039a4.437 4.437 0 01-.48.088l-.206.024c-.153.018-.306.037-.458.057a4.25 4.25 0 01-.558.044 2.45 2.45 0 01-.156-.004 1.744 1.744 0 01-.2-.049c-.15-.076-.287-.183-.42-.286l-.055-.043a9.456 9.456 0 01-.48-.412 1.84 1.84 0 00-.394-.295 1.37 1.37 0 00-.627-.132 1.265 1.265 0 00-.79.25c-.167.124-.27.298-.356.467-.045.09-.086.181-.125.273-.067.15-.135.306-.227.45a.705.705 0 01-.05.05.528.528 0 01-.042.024.807.807 0 01-.072.02.74.74 0 01-.109-.001 1.54 1.54 0 01-.392-.126l-.039-.016a.966.966 0 00-.387-.102.431.431 0 00-.103.012.65.65 0 00-.18.06.432.432 0 00-.151.093c-.075.076-.13.147-.196.253-.063.1-.108.215-.152.326l-.03.074c-.033.083-.064.165-.095.248l-.057.15c-.102.231-.201.413-.312.573l.034-.04c-.037.046-.077.09-.123.13-.106.074-.218.141-.326.206a5.246 5.246 0 00-.527.351c-.162.119-.33.241-.505.346l-.138.082a7.052 7.052 0 00-.447.277l-.018.012c-.207.144-.403.281-.628.385a1.92 1.92 0 01-.21.072 2.219 2.219 0 01-.285.052 2.815 2.815 0 00-.752.215l-.021.009a2.334 2.334 0 00-.246.124l-.164.127c-.175.18-.312.369-.418.576-.085.168-.178.426-.134.705.005.067.022.13.05.188.02.057.047.112.081.162a1.2 1.2 0 00.118.158l.03.037c.144.197.267.407.366.626.039.114.068.224.09.336.011.127.011.246 0 .366-.016.08-.035.146-.058.21a.66.66 0 01-.046.078l-.042.042-.02.02c-.081.057-.164.106-.26.153-.152.054-.31.097-.462.14l-.155.042a4.641 4.641 0 00-.507.177c-.457.188-.817.428-1.072.713a3.507 3.507 0 00-.632.977 6.496 6.496 0 00-.37 1.15 6.896 6.896 0 00-.095.615c-.02.173-.044.379-.056.59-.02.34.023.625.126.847.06.128.11.225.166.316.08.132.187.25.28.35.136.149.305.261.464.31.092.028.18.038.269.047l.051-.004.054-.004c.067-.008.132-.019.197-.03.227-.038.443-.158.627-.269.1-.059.193-.13.284-.2l.035-.028c.114-.086.236-.184.383-.309.19-.16.373-.333.55-.5l.19-.18c.14-.13.279-.266.417-.4l.043-.041.058-.057c.277-.267.563-.542.867-.788.175-.125.36-.24.539-.352l.223-.14.191-.121c.163-.104.325-.206.485-.312l.503-.33a644.796 644.796 0 001.132-.748c.312-.209.634-.425.969-.61a15.536 15.536 0 011.491-.705c.168-.067.33-.115.492-.148a2.261 2.261 0 01.317-.005l.018.002c.238.047.456.124.637.193a3.224 3.224 0 01.73.424c.235.195.44.4.626.626.118.167.22.348.315.553.095.276.16.566.223.847.022.099.043.197.067.295.104.439.224.813.366 1.146.067.156.142.304.229.45.106.177.243.336.35.455.101.112.228.206.35.296l.063.048c.14.104.284.2.425.291.108.07.22.104.33.136l.049.007.049.007c.073-.004.146-.011.218-.023l.057-.017.057-.018a.804.804 0 00.193-.1c.085-.05.158-.124.23-.195l.03-.03a1.84 1.84 0 00.39-.595c.093-.224.164-.47.215-.75.04-.22.072-.433.098-.652.024-.21-.008-.42-.035-.606a1.123 1.123 0 00-.104-.307 1.62 1.62 0 00-.195-.32 2.822 2.822 0 00-.52-.485 6.817 6.817 0 00-.765-.519 6.255 6.255 0 01-.619-.402c-.05-.045-.099-.093-.148-.146a1.698 1.698 0 01-.113-.2l-.009-.026-.008-.025c.043-.002.087-.003.131-.003h.034c.198.037.396.09.588.142l.05.013.035.01c.149.04.303.08.452.129.271.088.548.19.846.314.224.102.514.243.77.427.105.085.196.174.28.273.052.077.095.15.13.22.117.3.21.633.301 1.081l.005.027c.076.37.154.752.208 1.133.028.219.06.437.093.655.022.14.056.274.084.376.018.067.051.133.084.197l.022.045c.036.073.08.142.124.208l.02.03c.137.213.273.387.414.532a2.256 2.256 0 00.513.386c.05.03.1.053.156.073.058.03.122.047.188.051.08.016.165.023.258.023.174 0 .348-.027.48-.05a3.42 3.42 0 00.303-.067c.126-.035.245-.094.36-.152.093-.046.172-.119.243-.183l.04-.036c.05-.063.097-.125.145-.189a2.157 2.157 0 00.263-.798c.03-.256.015-.499-.047-.742-.023-.091-.07-.18-.114-.268l-.017-.032a1.05 1.05 0 00-.071-.117 7.451 7.451 0 00-.311-.416l-.069-.086-.023-.03c-.128-.165-.261-.336-.364-.525a.742.742 0 01-.025-.087v-.045a.492.492 0 01.014-.05.626.626 0 01.06-.061c.205-.149.425-.299.693-.47l.022-.015c.197-.126.4-.257.609-.371.13-.049.264-.09.394-.131.08-.025.16-.05.24-.077.21-.07.36-.145.487-.243.092-.071.16-.135.228-.215.062-.073.113-.156.162-.236l.014-.025c.127-.207.225-.455.31-.78a2.82 2.82 0 00.084-.728c0-.046-.005-.094-.01-.14l-.006-.058.006-.027a.179.179 0 01.01-.017 1.29 1.29 0 01.129-.123l.024-.015h.024c.104 0 .21.011.3.021.305.053.59.128.875.227l.037.014.038.014c.092.034.16.055.233.072a.66.66 0 00.151.017c.12 0 .25-.029.364-.082a.88.88 0 00.352-.303c.052-.074.096-.155.14-.232.031-.058.063-.116.098-.172a.982.982 0 01.055-.052c.078-.052.16-.1.257-.149l.085-.03-.034.002-.075.01a.607.607 0 01.127-.015l.015.006a.639.639 0 01.08.081.635.635 0 01.024.04c.048.15.075.308.096.455l.007.057c.032.246.062.478.143.71a.922.922 0 00.359.457c.192.128.429.229.747.32a8.885 8.885 0 00.752.175c.167.033.34.067.505.124l.067.039.006.03v.023a1.41 1.41 0 01-.045.157 1.129 1.129 0 01-.06.101.762.762 0 01-.075.075 4.627 4.627 0 01-.812.445 3.274 3.274 0 01-.502.163l-.06.016c-.174.045-.357.072-.534.099l-.038.005c-.334.036-.698.063-1.147.086-.385.02-.795.045-1.2.102a3.777 3.777 0 00-.502.105c-.124.035-.246.081-.364.126l-.062.024c-.212.08-.427.169-.64.266-.173.079-.341.166-.498.26l-.083.048-.134.08-.064.036-.032.017-.11.061a2.48 2.48 0 00-.185.136 1.525 1.525 0 00-.298.46l-.025.055a2.207 2.207 0 00-.186.606c-.042.276-.02.494.072.687.06.129.122.232.2.334a.657.657 0 00.174.182c.05.04.1.078.153.113.076.053.164.09.25.126l.023.01c.1.042.202.077.323.111.168.048.342.078.52.106a5.182 5.182 0 00.881.085c.16-.004.323-.024.48-.044l.177-.02c.19-.022.377-.043.566-.06l.021-.001c.238-.021.484-.043.726-.043.131 0 .25.006.364.019.148.03.272.063.39.106.092.048.178.102.265.165.102.085.193.175.278.276.036.05.073.1.106.153.045.07.086.144.13.236.103.264.172.535.244.862l.044.196c.057.26.116.53.188.794.087.315.175.654.231.992.049.293.09.592.13.88l.006.048c.053.44.082.89.11 1.325.017.258.034.515.055.772.029.338.066.699.14 1.048.045.203.088.37.139.523.025.075.056.155.098.251.058.13.13.258.233.416.197.3.386.563.578.802.156.195.332.394.554.627l.116.121c.168.176.337.353.501.534.21.23.403.468.58.692.066.09.117.17.16.255.036.109.066.221.095.33l.044.162c.042.149.096.296.149.439l.047.13c.071.198.14.392.19.588.05.187.08.374.105.548l.016.13c.02.168.04.337.065.506.025.175.072.357.152.591a2.871 2.871 0 00.465.856l.028.037c.05.067.1.135.14.21.043.13.074.265.104.396.02.092.042.185.067.277.037.132.073.24.114.341.091.223.226.498.462.656.12.08.24.13.351.171.073.027.154.04.25.04a2.027 2.027 0 00.649-.126c.215-.083.439-.18.724-.319a6.594 6.594 0 001.4-.897c.16-.135.316-.277.468-.415.205-.187.417-.38.638-.556.09-.067.182-.132.273-.196l.2-.142c.149-.107.294-.225.435-.338l.19-.153c.13-.093.237-.166.34-.232.092-.057.187-.1.303-.15l.112-.043a6.152 6.152 0 00.93-.44c.303-.167.6-.329.905-.472.25-.094.51-.17.76-.243l.27-.08c.189-.057.408-.128.616-.222.073-.034.145-.069.215-.107.207-.112.379-.285.542-.544.07-.11.115-.238.159-.362l.011-.031c.033-.093.055-.211.061-.325a1.825 1.825 0 00-.03-.406.794.794 0 00-.086-.223l-.026-.053-.051-.072a1.862 1.862 0 00-.137-.169c-.054-.061-.124-.11-.192-.159l-.062-.044a1.247 1.247 0 00-.113-.072 2.463 2.463 0 00-.566-.233l-.08-.021c-.15-.041-.304-.083-.453-.136a2.141 2.141 0 01-.21-.114 2.005 2.005 0 01-.22-.222c-.109-.15-.207-.311-.302-.466a8.06 8.06 0 00-.198-.312c-.032-.05-.067-.096-.102-.143l-.011-.015a.907.907 0 00-.237-.229c-.285-.19-.607-.265-.968-.338a3.077 3.077 0 00-.58-.055h-.03c-.143 0-.288.013-.429.025l-.083.007-.124.011a7.912 7.912 0 01-.708.043c-.11 0-.212-.005-.31-.014a2.366 2.366 0 01-.305-.078 3.657 3.657 0 01-.552-.325 2.348 2.348 0 01-.28-.283l-.022-.03-.035-.054a1.572 1.572 0 01-.042-.08 3.875 3.875 0 01-.18-.636 3.515 3.515 0 01.003-.62 3.85 3.85 0 01.128-.57c.03-.059.06-.114.093-.167.054-.034.11-.063.179-.095.195-.073.357-.123.51-.156a2.445 2.445 0 01.617.058c.11.025.22.053.329.082a4.4 4.4 0 01.53.183c.229.103.457.216.698.346.18.098.36.204.535.306l.256.15c.164.094.325.198.48.299a9.488 9.488 0 001.023.591c.678.34 1.202.581 1.7.783.275.11.559.2.776.266.205.06.413.135.637.225l.31.139c.222.1.452.205.684.292.416.157.828.296 1.212.424.382.126.767.263 1.14.396l.037.014.048.017c.344.122.7.249 1.046.383.163.074.303.153.428.241.1.082.172.15.234.221.089.131.166.273.24.41.04.073.079.146.12.217.122.211.225.437.325.655l.086.19c.061.13.127.257.195.386.025.048.051.095.081.14.058.087.138.206.24.266a.666.666 0 00.143.068c.055.009.11.016.165.023.057-.004.113-.011.169-.02.073-.022.145-.052.233-.095.063-.03.12-.075.177-.118l.033-.026c.051-.038.1-.078.15-.118l.032-.026c.085-.063.161-.11.24-.15a.126.126 0 01.016-.004l.024.021c.039.062.075.125.11.19.094.245.153.506.21.758.025.107.049.214.076.32.095.372.216.72.366 1.136.1.278.205.554.31.83l.084.223c.146.388.277.776.386 1.105.201.606.457 1.408.65 2.233.041.174.08.35.12.524.13.581.264 1.183.462 1.756l.014.04c.11.318.222.646.39.939.034.06.08.113.123.166l.033.04c.043.052.1.092.155.13l.036.026c.051.038.118.06.182.082l.042.014c.064.023.136.03.205.036l.06.006a.51.51 0 00.049.003c.062 0 .125-.011.186-.021l.055-.01c.08-.012.157-.037.233-.06a2.15 2.15 0 00.64-.356c.133-.1.26-.212.383-.32l.086-.077c.18-.156.316-.343.465-.576.158-.246.279-.52.395-.784l.041-.094c.145-.327.31-.715.44-1.109l.053-.16c.04-.121.08-.242.116-.364l.053-.185.12-.428c.11-.396.217-.793.325-1.19.089-.329.19-.702.316-1.054.135-.375.267-.717.404-1.047.312-.69.666-1.418 1.144-2.066.121-.152.219-.256.325-.347.045-.03.089-.058.137-.083.288-.097.582-.14.866-.182.176-.02.351-.04.527-.054.081-.008.166-.011.258-.011.1 0 .2.004.299.01.13.023.249.054.363.095a1.972 1.972 0 01.369.221c.265.222.49.495.678.734.13.177.25.373.372.598.116.215.214.445.31.667l.025.058c.113.27.24.56.391.839.147.268.359.518.63.742.128.107.253.183.393.243.214.09.433.144.6.18.28.061.572.067.856.073l.128.002.255.005c.231.003.47.006.704.03l.09.027c.02.01.039.023.058.035l.01.011.006.019h-.001a.505.505 0 010 .066 3.561 3.561 0 01-.177.587c-.043.12-.088.242-.124.366a4.093 4.093 0 00-.099.484l-.008.046c-.039.24-.056.474-.05.694.024.798.351 1.552.64 2.218.116.28.227.564.338.847l.252.636c.04.097.078.194.117.292.145.364.295.741.468 1.1.062.128.125.255.188.381l.13.262.11.227c.075.159.152.317.232.472l.049.093c.095.184.195.375.305.556.056.09.121.178.185.262l.046.062.03.04c.029.04.059.082.091.12.03.04.067.073.109.098a.45.45 0 00.196.05h.016a.155.155 0 00.022.002c.115 0 .22-.086.273-.171.176-.28.14-.629.113-.91l-.015-.15c-.01-.107-.02-.214-.034-.322a26.47 26.47 0 00-.147-1.015c-.045-.273-.096-.546-.146-.818l-.013-.072-.018-.1c-.047-.253-.095-.514-.153-.77a13.69 13.69 0 00-.18-.683 16.896 16.896 0 00-.362-1.196 21.06 21.06 0 01-.274-.876 8.645 8.645 0 01-.216-.97 2.055 2.055 0 01-.02-.373c.013-.051.028-.1.05-.158l.014-.021.014-.022.022-.022a.435.435 0 01.02-.013.568.568 0 01.032-.01l.095.004c.124.025.25.062.386.113.276.121.53.255.756.397.225.142.44.303.65.46l.035.025c.11.087.227.181.328.296.074.103.14.213.199.316.082.141.175.274.285.405.05.06.11.109.173.158.11.086.21.138.32.165a.507.507 0 00.458-.109.588.588 0 00.172-.18c.12-.237.19-.492.214-.781.013-.172.019-.315.019-.449 0-.14-.018-.284-.034-.423a11.22 11.22 0 00-.523-2.31l-.097-.273c-.065-.18-.132-.368-.187-.555a8.053 8.053 0 01-.222-.922 2.892 2.892 0 01-.012-.428c.018-.09.042-.174.073-.258.063-.128.135-.255.205-.377.047-.083.095-.165.14-.249.11-.205.232-.45.312-.709.15-.483.142-1.015.113-1.47a10.916 10.916 0 00-.065-.707c-.02-.164-.047-.326-.075-.488l-.047-.297c-.034-.223-.071-.445-.108-.667a40.84 40.84 0 01-.136-.85v.017-.017l-.003-.01-.002-.008-.048-.37-.028-.201-.003-.028c-.048-.375-.097-.764-.182-1.139a48.553 48.553 0 00-.41-1.618c-.056-.21-.113-.421-.166-.633l-.062-.248a130.122 130.122 0 01-.504-2.082 21.385 21.385 0 00-.29-1.134c-.085-.295-.18-.59-.273-.877l-.069-.212a12.9 12.9 0 01-.22-.798l-.085-.332c-.063-.24-.13-.481-.195-.72l-.146-.537-.032-.117c-.099-.368-.2-.747-.311-1.118a40.312 40.312 0 00-.39-1.257 16.824 16.824 0 00-.484-1.246l-.137-.328c-.107-.258-.215-.515-.326-.772-.153-.352-.329-.707-.537-1.084a20.757 20.757 0 00-1.225-1.994c-.39-.551-.792-1.122-1.1-1.742-.092-.183-.181-.366-.27-.55l-.213-.432a8.547 8.547 0 00-.25-.474 8.09 8.09 0 00-.245-.394l-.074-.115a22.838 22.838 0 00-1.824-2.415 24.277 24.277 0 01-.508-.603l-.194-.266c-.2-.271-.406-.553-.616-.823l.004.006a66.323 66.323 0 00-.295-.377l-.192-.244c-.148-.198-.292-.399-.436-.6-.129-.18-.257-.36-.39-.538-.237-.321-.498-.635-.75-.938l-.195-.234a35.153 35.153 0 01-1.262-1.769l-.242-.367a47.038 47.038 0 00-.401-.604 41.47 41.47 0 00-.49-.701l-.08-.112-.111-.158a10.71 10.71 0 00-.623-.824c-.118-.136-.239-.268-.36-.4a17.475 17.475 0 01-.486-.552c-.06-.073-.121-.146-.185-.215a6.133 6.133 0 00-.35-.344c-.264-.242-.531-.494-.818-.771-.106-.103-.21-.208-.314-.313a38.786 38.786 0 00-.172-.173l-.207-.206a33.4 33.4 0 01-.259-.257 7.9 7.9 0 00-.475-.449c-.19-.163-.387-.331-.59-.49l-.012-.009a7.974 7.974 0 00-.716-.494 9.464 9.464 0 01-.33-.212.364.364 0 00-.1-.312.39.39 0 00-.255-.106 46.04 46.04 0 00-1.312-.114 33.103 33.103 0 00-.56-.034c-.21-.011-.421-.023-.631-.039a35.728 35.728 0 00-2.08-.108H103.427z" fill="#366ECC"/><path d="M20.118 11a.571.571 0 00-.155.021.69.69 0 00-.205.075 1.59 1.59 0 00-.402.324c-.095.106-.177.227-.256.344l-.071.104c-.2.288-.42.593-.694.96a4.125 4.125 0 01-.436.498c-.06.055-.121.108-.182.162l-.039.034-.022.02a9.058 9.058 0 00-1.457 1.62c-.155.219-.278.46-.381.668-.055.113-.118.24-.146.375a.929.929 0 00.083.606c.062.126.136.25.241.399.094.133.202.265.333.405l-.212.163c-.28.218-.569.443-.842.677a4.707 4.707 0 00-.456.426c-.169.189-.325.394-.475.592l-.03.039.136-.172c-.108.138-.212.278-.317.418l-.234.312c-.173.22-.344.44-.514.66v.002a.331.331 0 01-.007.008h.001l-.003.002-.001.002-.013.017-.009.014h.001l-.16.204a48.644 48.644 0 00-1.865 2.562c-.592.885-1.136 1.84-1.6 2.664-.207.37-.419.765-.668 1.247-.109.211-.226.423-.34.628-.127.23-.258.468-.38.707-.176.347-.34.708-.498 1.058l-.137.3c-.18.395-.357.791-.533 1.188l-.08.181c-.115.258-.234.514-.353.77a34.637 34.637 0 00-.813 1.878l-.029.068c-.403.954-.79 1.933-1.166 2.88l-.073.184c-.236.597-.44 1.217-.637 1.816-.133.403-.27.82-.417 1.227l-.178.49c-.117.319-.238.65-.349.978-.153.45-.296.912-.434 1.358l-.07.228c-.332 1.07-.604 2.176-.868 3.246l-.014.06a58.502 58.502 0 00-.724 3.47l-.086.478c-.065.363-.13.727-.2 1.09-.097.51-.169 1.031-.238 1.536l-.027.196c-.165 1.2-.244 2.392-.324 3.714a48.845 48.845 0 00-.077 1.831l-.003.147c-.011.532-.023 1.082.002 1.623.03.654.068 1.234.116 1.774.035.391.082.787.128 1.17l.057.484c.129 1.138.283 2.46.486 3.74.058.371.132.747.203 1.11.043.217.085.434.125.651.105.576.202 1.154.296 1.713l.23 1.372.312 1.86.012.067c.19 1.121.385 2.28.663 3.399.1.403.199.806.297 1.21.173.709.352 1.442.54 2.16.29 1.12.606 2.308.989 3.472a105.38 105.38 0 001.237 3.524c.266.72.552 1.447.83 2.149.144.369.29.737.433 1.107.46 1.188.943 2.344 1.398 3.416.475 1.122 1.078 2.214 1.606 3.15.422.749.91 1.473 1.38 2.175l.26.387c.133.198.269.394.404.59.175.253.356.515.527.777.307.474.634.938.917 1.335l.4.556c.208.287.416.575.62.865l.02.028c.28.4.57.812.868 1.21a80.4 80.4 0 002.093 2.693 20.586 20.586 0 001.476 1.666c.283.296.566.59.845.89.84.901 1.77 1.737 2.653 2.515.962.849 1.9 1.541 2.866 2.117.334.2.681.388 1.017.572l.438.24.086.048c.505.279 1.026.567 1.543.844 1.221.651 2.205 1.187 3.096 1.688.57.32 1.08.59 1.561.828.173.085.346.17.52.253.334.161.68.328 1.014.502.53.276 1.066.548 1.591.81.323.163.655.32.975.473l.518.248c.925.447 1.86.913 2.764 1.363 1.122.558 2.283 1.135 3.434 1.684l.157.075c.532.254 1.083.516 1.636.75.496.208 1.029.425 1.678.682l.333.132c.958.38 1.948.773 2.95 1.08.67.206 1.359.392 2.025.57.413.112.826.223 1.237.34 1.133.32 2.273.516 3.54.722 1.513.245 2.746.402 3.88.495l.212.018.156.013c.008.744.017 1.628.016 2.526 0 .507-.01 1.022-.018 1.52l-.012.759c-.005.36 0 .726.006 1.08.005.372.01.758.005 1.137-.008.449-.054.904-.098 1.343-.03.29-.06.59-.078.886a65.25 65.25 0 00-.055 1.023c-.02.41-.04.832-.07 1.247a28.74 28.74 0 00-.063 2.11c0 .234.024.489.074.779.023.134.052.238.099.348l.028.066c.081.197.183.442.35.577l.042.033c.122.1.248.202.386.284.13.076.279.136.424.193l.123.05c.31.128.56.205.813.25a16.296 16.296 0 002.812.245c.114 0 .227 0 .34-.004.367-.008.763-.023 1.21-.046.377-.019.758-.063 1.127-.105l.111-.013c.73-.083 1.47-.155 2.203-.216.942-.08 1.903-.135 2.832-.188.563-.032 1.127-.064 1.69-.102l.436-.033c.197-.016.394-.032.592-.043l.178-.01c.279-.015.567-.03.85-.059l.135-.013c.278-.027.565-.055.85-.073l.105-.005c.084-.004.169-.009.253-.016l.059-.005c.179-.016.364-.031.533-.094l.335-.142c.21-.124.38-.294.506-.505.114-.149.199-.34.268-.6a4.93 4.93 0 00.118-.787l.015-.158c.006-.062.01-.123.014-.185l.009-.115c.016-.215.022-.428.027-.627.007-.289-.001-.582-.01-.865l-.006-.237c-.021-.82-.041-1.643-.057-2.464-.014-.687-.024-1.388-.03-2.145-.003-.359-.004-.717-.004-1.076 0-.224-.012-.452-.023-.672-.007-.146-.015-.292-.019-.438-.008-.279-.012-.557-.016-.835-.007-.454-.014-.924-.038-1.385a14.345 14.345 0 00-.192-1.775 40.982 40.982 0 01-.106-.701l.011.095a15.596 15.596 0 00-.04-.272h.015c.442-.052.884-.104 1.326-.16.622-.078 1.29-.18 2.105-.322.554-.097 1.114-.213 1.656-.325.586-.12 1.191-.246 1.79-.347l.298-.05c.487-.081.991-.166 1.485-.258.55-.104 1.06-.242 1.557-.421a36.727 36.727 0 002.889-1.175c.252-.112.505-.224.758-.334l.155-.068.786-.32c.617-.25 1.233-.502 1.852-.748l.321-.127a128.275 128.275 0 003.007-1.222c.387-.16.786-.325 1.168-.509.397-.19.745-.434 1.003-.625a9.75 9.75 0 00.979-.803c.22-.212.446-.43.694-.635.408-.305.824-.601 1.215-.878l.448-.32c.328-.235.667-.479 1.01-.705.844-.556 1.727-1.08 2.58-1.586l.537-.32c.946-.563 1.866-1.123 2.733-1.774l.299-.223c.356-.265.725-.538 1.065-.838l.159-.14c.352-.31.715-.63 1.065-.954.197-.183.392-.376.58-.563.21-.206.426-.42.646-.622.096-.087.19-.175.285-.264.212-.09.406-.187.59-.295.464-.27.862-.531 1.218-.799l.028-.021.025-.02-.027.015.08-.055-.057.036a14.08 14.08 0 001.216-1.051c.265-.257.552-.502.805-.719l.339-.292.076-.065c.054-.047.108-.093.16-.143.103-.095.187-.196.257-.31a.875.875 0 00.071-.685 2.045 2.045 0 00-.174-.392l-.05-.093-.02-.043c-.052-.101-.104-.203-.16-.301-.147-.255-.315-.513-.438-.702a7.322 7.322 0 00-.557-.72 9.457 9.457 0 00-.397-.432l-.016-.017a15.94 15.94 0 01-.177-.184 44.502 44.502 0 00-.38-.396l-.054-.057-.145-.15c-.216-.225-.432-.45-.647-.677l-.09-.095a8.525 8.525 0 00-.463-.467l-.024-.023a7.531 7.531 0 00-.565-.482 1.463 1.463 0 00-.21-.131.844.844 0 00-.33-.088.987.987 0 00-.776.3l-.04.038-.067.06-.06.053c-.082.075-.162.153-.243.231l-.024.024-.024.023a13.77 13.77 0 00-.542.568c-.166.181-.353.385-.546.572l-.215.21c-.173.17-.369.364-.57.545a30.44 30.44 0 01-.827.712c-.533.446-1.087.887-1.622 1.313l-.31.247c-.103.082-.15.244-.15.36a.513.513 0 00.241.433c.073.135.171.243.266.348l.046.05.152.178.087.103.18.218.026.032c.088.108.187.23.289.344.113.127.22.259.328.393l.044.054c.04.05.08.1.122.149l.177.21.055.065.27.32.07.086c.153.185.307.37.456.558l.103.13.035.045c-.349.356-.686.666-1.023.957l-.256.223c-.202.176-.41.359-.622.53l-.513.38c-.15.112-.3.224-.452.335-.412.304-.848.584-1.27.855-.62.398-1.264.784-1.885 1.158-.368.22-.735.441-1.1.666-.827.508-1.635 1.08-2.416 1.633l-.442.313c-.161.114-.325.224-.488.334a17.02 17.02 0 00-.83.584 17.99 17.99 0 00-.655.533c-.108.092-.217.183-.327.273-.21.155-.422.3-.63.429-.37.232-.755.414-1.183.61-.938.433-1.897.86-2.848 1.272-.626.27-1.251.545-1.876.82-.379.166-.758.333-1.138.498-.545.239-1.093.496-1.623.745-.384.18-.768.36-1.154.535-.647.265-1.282.517-1.95.7-.33.09-.674.154-1.006.216l-.108.02c-.428.08-.855.16-1.284.236a54.41 54.41 0 00-1.58.314c-.293.061-.585.123-.878.181-.702.14-1.451.272-2.29.404-.469.057-.938.111-1.407.164-.54.062-1.072.134-1.52.197a2.882 2.882 0 00-.296-.098 3.17 3.17 0 00-.35-.067 13.616 13.616 0 01-.127-.019c-.43-.07-.932-.144-1.441-.144h-.076c-.407.006-.82.076-1.22.143l-.179.03-.23.038c-.665.11-1.353.223-2.022.372-.365.082-.73.168-1.093.255l-.238.057h-.026l-.027.002c-.28.015-.588.022-.969.022-.196 0-.392-.002-.589-.004l-.366-.002c-1.119-.007-2.253-.085-3.35-.16l-.103-.007c-.979-.067-2.27-.158-3.578-.274a74.894 74.894 0 01-2.98-.338l-.189-.029c-1.076-.165-2.188-.336-3.27-.562a30.371 30.371 0 01-1.792-.42c-.263-.072-.524-.145-.786-.219-.273-.076-.546-.153-.82-.227-.17-.047-.342-.092-.514-.138-.354-.093-.72-.19-1.078-.296a27.603 27.603 0 01-1.668-.556c-.33-.122-.663-.252-.985-.379-.24-.094-.48-.188-.72-.28a59.53 59.53 0 01-1.657-.664c-1.937-.892-3.88-1.856-5.758-2.79l-.275-.136c-.489-.243-.98-.48-1.472-.717-.55-.266-1.12-.541-1.675-.82-.276-.138-.55-.279-.824-.42a98.713 98.713 0 00-.741-.38 70.88 70.88 0 00-.877-.43c-.227-.111-.455-.222-.68-.334-.522-.258-1.036-.55-1.533-.83-.246-.14-.493-.28-.74-.416-.549-.3-1.11-.598-1.653-.886l-.663-.353c-.779-.415-1.591-.858-2.415-1.318-.77-.43-1.418-.844-1.981-1.265-1.694-1.34-3.202-2.831-4.327-3.982-1.138-1.164-2.292-2.487-3.629-4.164a178.91 178.91 0 01-.647-.858c-.3-.4-.6-.8-.904-1.196l-.023-.03c-.39-.525-.766-1.067-1.13-1.593l-.285-.41a91.355 91.355 0 01-1.445-2.13 33.413 33.413 0 01-1.329-2.237 28.04 28.04 0 01-1.18-2.452c-.879-2.14-1.731-4.241-2.488-6.423l-.098-.284c-.358-1.032-.728-2.098-1.03-3.167a62.26 62.26 0 01-.49-1.85c-.111-.442-.2-.896-.287-1.335l-.061-.312-.12-.606a61.99 61.99 0 00-.216-1.083c-.069-.327-.147-.659-.223-.98-.06-.25-.119-.5-.174-.75-.252-1.139-.446-2.312-.633-3.446l-.105-.64c-.143-.873-.29-1.776-.443-2.664-.073-.424-.153-.847-.232-1.27-.13-.696-.264-1.415-.368-2.126-.103-.813-.236-1.88-.355-2.953-.108-.97-.224-2.099-.238-3.227a46.624 46.624 0 01.103-3.36c.058-.975.125-2.079.257-3.166.069-.498.138-.985.23-1.46.067-.346.131-.692.195-1.038l.098-.528c.198-1.061.44-2.195.74-3.466.135-.57.28-1.135.43-1.677l.118-.43c.107-.393.218-.8.342-1.196l.074-.235c.139-.444.282-.903.436-1.35.132-.383.275-.77.413-1.143l.12-.323c.152-.414.295-.84.433-1.251.105-.314.21-.628.32-.94.205-.578.444-1.156.676-1.714l.143-.345-.034.077c.17-.408.335-.822.496-1.223l.066-.164c.118-.278.235-.556.35-.836l.01-.025c.126-.291.264-.583.397-.865.092-.195.184-.39.273-.585l.206-.455.421-.927c.132-.289.267-.576.402-.863l.218-.466c.143-.306.309-.605.47-.894.076-.138.153-.276.228-.415.16-.3.318-.602.476-.903.294-.563.598-1.146.917-1.708l.204-.362c.186-.328.377-.668.572-.997.278-.47.583-.93.851-1.334.505-.761.929-1.376 1.335-1.937l.097-.133c.158-.216.32-.44.47-.666.113-.169.243-.365.38-.555.161-.188.353-.373.587-.564.276-.227.555-.452.834-.676l.08-.066.18.144.217.174.051.041.458.37c.101.086.203.17.305.253.343.28.694.568 1.017.875.195.185.384.368.558.572.15.175.309.366.514.617.194.239.41.459.6.653.27.276.576.59.945.727.115.043.236.064.361.064.233 0 .472-.076.673-.216a2.7 2.7 0 00.411-.379l.024-.025c.162-.171.321-.345.481-.519l.112-.122c.211-.229.411-.441.594-.63.19-.198.395-.385.594-.566.174-.157.334-.332.49-.502l.057-.063c.212-.23.392-.433.552-.62.175-.207.348-.44.527-.714.178-.271.293-.521.351-.765a.458.458 0 01.019-.053.632.632 0 00.018-.05c.075-.235-.041-.522-.265-.654a.565.565 0 00-.172-.066.586.586 0 00-.123-.63c-.485-.486-.969-.988-1.437-1.473l-.042-.044-.339-.353-.034-.035c-.236-.245-.476-.492-.732-.714l-.14-.124-.024-.02a10.878 10.878 0 00-.25-.214c-.144-.12-.29-.232-.443-.35-.217-.172-.44-.358-.683-.571-.182-.16-.38-.304-.572-.444l-.204-.15c-.268-.213-.6-.479-.934-.718-.247-.178-.505-.35-.754-.517l-.023-.015-.2-.136a2.884 2.884 0 00-.196-.116l-.017-.01c-.143-.08-.285-.158-.44-.183a.572.572 0 00-.155-.021" fill="#000"/><g><path d="M101.338 27.863c-.156 0-.328.021-.513.064a3.379 3.379 0 00-.733.267c-.426.207-.847.432-1.251.669-.416.242-.856.506-1.263.825-.178.14-.364.293-.583.482a2.742 2.742 0 00-.21.21l-.04.044c-.096.104-.189.21-.282.318-.174.204-.33.43-.481.65-.117.169-.262.388-.368.622-.137.301-.23.546-.294.771a6.215 6.215 0 00-.162.785c-.04.271-.07.546-.09.84-.017.236-.008.474.003.697.013.238.055.492.135.8.024.09.055.18.086.268l.032.093a5.5 5.5 0 00.505 1.093c.121.195.269.397.466.635.635.765 1.565 1.336 2.618 1.607.246.063.504.096.753.129l.102.013c.233.03.48.056.733.077l.13.01c.215.019.438.037.657.048.124.005.247.008.37.01h.059c.18 0 .372-.015.607-.05.232-.034.488-.093.762-.177.265-.08.523-.19.773-.298l.028-.011c.2-.086.388-.206.57-.323l.085-.053c.199-.127.409-.284.66-.493.45-.375.81-.702 1.133-1.028.187-.19.345-.4.524-.657.186-.266.337-.57.436-.88.078-.242.112-.5.145-.748l.004-.03.015-.11a12.667 12.667 0 00.097-1.093c.012-.303-.01-.632-.06-.953a4.244 4.244 0 00-.224-.807 5.256 5.256 0 00-.322-.69 6.355 6.355 0 00-.253-.416l-.075-.117a7.017 7.017 0 00-.787-1.05 3.31 3.31 0 00-.592-.467l-.1-.067c-.114-.076-.232-.155-.352-.226a4.128 4.128 0 00-.89-.4 2.817 2.817 0 00-.23-.055c.018-.174-.094-.338-.277-.4-.275-.095-.55-.175-.843-.248a5.871 5.871 0 00-1.134-.178 1.191 1.191 0 00-.079-.002" fill="#162E51"/><path d="M119.88 21.724l-.025-.005a4.527 4.527 0 01-.78-.175c-.591-.205-1.044-.427-1.426-.7a10.173 10.173 0 01-1.21-1.031 3.779 3.779 0 01-.65-.796c-.075-.13-.154-.264-.217-.403a6.039 6.039 0 01-.243-.637c-.175-.532-.198-1.105-.198-1.595 0-.25.01-.51.03-.773l.004-.07c.017-.223.033-.454.063-.68l.013-.099c.033-.253.067-.514.143-.759.096-.312.194-.564.308-.793a6.38 6.38 0 01.327-.59c.127-.197.272-.394.446-.603.274-.33.608-.711 1.009-1.04a2.82 2.82 0 011.463-.649c.258-.04.527-.072.8-.094l.149-.011a7.37 7.37 0 01.827-.043c.275 0 .547.015.775.029a.481.481 0 01.228.074c.208.009.426.03.648.066.217.035.412.108.619.184l.055.02c.264.098.534.224.802.376.21.118.422.275.65.48.196.178.347.392.468.58.139.214.254.413.35.607.237.48.379 1.01.497 1.511.112.478.222 1.045.194 1.627-.01.21-.028.489-.063.765l-.022.173c-.028.229-.057.464-.105.692l-.015.068a5.354 5.354 0 01-.204.734 6.464 6.464 0 01-.326.77c-.244.482-.578.906-.903 1.295-.17.201-.348.38-.546.544a6.368 6.368 0 01-.715.528c-.237.156-.545.272-.913.344-.274.054-.56.093-.85.116l-.106.009a6.475 6.475 0 01-.445.027h-.057a5.3 5.3 0 01-.85-.073zm.917-17.602c-.48.003-.967.035-1.42.07a5.352 5.352 0 00-.229.023l-.124.013a4.8 4.8 0 00-.441.063 8.465 8.465 0 00-.676.17c-.736.211-1.494.555-2.32 1.05-.459.274-.83.5-1.17.714-.181.114-.363.23-.542.35-.165.11-.323.235-.477.355l-.097.076-.024.018c-.18.135-.36.271-.538.408a4.775 4.775 0 00-.49.442c-.278.282-.555.598-.898 1.024-.292.363-.58.75-.882 1.184l-.031.045c-.129.184-.261.374-.379.57-.125.207-.242.424-.342.611-.05.095-.101.189-.153.283-.167.31-.34.63-.49.954-.21.458-.39.915-.535 1.36a59.793 59.793 0 01-.909 2.558l-.058.153-.216.573c-.06.162-.116.326-.171.49l-.062.183c-.097.281-.182.572-.265.853l-.13.432c-.12.39-.257.782-.39 1.16l-.048.136c-.059.168-.12.335-.18.502-.1.27-.201.55-.292.826-.092.279-.172.565-.25.842-.044.16-.089.319-.136.478-.069.232-.143.478-.227.72-.077.221-.163.442-.244.648-.205.515-.354.934-.471 1.32-.057.188-.112.377-.166.566-.074.258-.15.524-.234.783a15.2 15.2 0 01-.44 1.188c-.157.378-.291.77-.41 1.116-.083.245-.172.487-.261.73l-.154.422c-.065.182-.128.365-.191.548-.077.223-.154.446-.235.668-.1.233-.2.466-.302.699a1.582 1.582 0 00-.096.088.578.578 0 00-.16.5.305.305 0 00-.013.198.326.326 0 00.355.237.59.59 0 00.228.047.609.609 0 00.412-.169l.022-.019.047-.04a5.682 5.682 0 011.076-.594l.293-.12c.318-.13.646-.266.98-.364a72.252 72.252 0 012.68-.734l.185-.045 1.157-.282c.382-.091.764-.214 1.132-.333l.215-.068c.218-.07.436-.143.653-.216.217-.073.434-.146.653-.216.48-.153.96-.304 1.442-.454.498-.154.994-.337 1.413-.495a54.281 54.281 0 002.178-.882c.923-.373 1.855-.69 2.646-.951l.24-.079c.412-.135.838-.274 1.245-.444.454-.19.913-.394 1.402-.623.283-.132.564-.28.836-.42.131-.069.261-.137.392-.204.548-.278.963-.5 1.345-.716l.016-.008c.433-.246.882-.499 1.312-.77.346-.218.685-.458 1.013-.691l.236-.167c.478-.338.851-.641 1.174-.953.224-.216.394-.386.55-.551l.033-.037a2.81 2.81 0 00.158-.177l.265-.33c.073-.091.143-.186.213-.28l.07-.093.053-.071c.042-.056.084-.113.123-.171l.106-.157c.101-.148.206-.302.297-.46l.12-.21.12-.209c.038-.066.07-.135.102-.203l.031-.066.033-.07c.056-.117.111-.234.163-.353.104-.247.178-.49.237-.697l.032-.112c.053-.182.107-.37.148-.556a19.8 19.8 0 00.231-1.417l.006-.049a6.79 6.79 0 00.076-.755c.005-.254.007-.468.001-.684l-.005-.195c-.012-.43-.025-.876-.07-1.31a13.84 13.84 0 00-.2-1.424l-.023-.135a16.284 16.284 0 00-.322-1.35c-.108-.394-.269-.902-.562-1.333-.129-.19-.282-.37-.43-.542l-.048-.056-.45-.527a6.686 6.686 0 00-1.087-1.013 8.399 8.399 0 00-.582-.41c-.206-.129-.411-.25-.61-.362l-.758-.419-.486-.267-.043-.024c-.413-.228-.84-.464-1.287-.634a7.204 7.204 0 00-.62-.21c-.225-.066-.455-.108-.677-.149-.491-.09-.993-.157-1.507-.225a10.508 10.508 0 00-1.354-.097h-.056z" fill="#7EBC89"/><path d="M120.713 10.178c-.098 0-.195.002-.293.006-.178.007-.359.022-.534.037l-.149.012a10.62 10.62 0 00-.8.094 4.452 4.452 0 00-.384.076 2.803 2.803 0 00-1.079.571c-.4.33-.735.712-1.01 1.042a6.065 6.065 0 00-.445.602 6.522 6.522 0 00-.327.59c-.114.23-.212.482-.308.793-.076.246-.11.506-.143.759l-.013.1c-.03.225-.046.456-.062.679l-.006.07c-.019.263-.029.523-.029.773 0 .49.023 1.064.198 1.595.067.204.143.422.242.637.064.139.143.273.219.403.153.262.352.506.649.796.428.42.824.757 1.21 1.032.382.272.835.494 1.426.7.252.088.52.132.78.174l.024.004c.304.05.582.074.85.074h.057c.148-.002.299-.015.445-.027l.107-.009a7.49 7.49 0 00.849-.116c.368-.072.675-.188.912-.344a6.58 6.58 0 00.715-.528 4.25 4.25 0 00.547-.545c.325-.387.66-.812.903-1.294a6.442 6.442 0 00.447-1.15c.033-.117.059-.238.083-.354l.015-.068c.048-.228.077-.464.105-.692l.022-.172c.035-.277.052-.555.063-.766.029-.582-.082-1.15-.194-1.627-.118-.5-.26-1.03-.497-1.51a5.95 5.95 0 00-.35-.608 2.886 2.886 0 00-.469-.58 3.69 3.69 0 00-.649-.48 5.494 5.494 0 00-.802-.375l-.056-.021a3.237 3.237 0 00-.618-.184 5.646 5.646 0 00-.648-.066.477.477 0 00-.228-.074c-.229-.014-.5-.029-.775-.029" fill="#FFF"/></g><g><path d="M39.044 57.926c-.13.031-.217.155-.291.255-.037.05-.068.106-.1.16a5.87 5.87 0 00-.145.262c-.104.199-.205.4-.337.58a2.122 2.122 0 01-.286.277c-.113.082-.23.155-.349.228-.175.108-.353.21-.542.295a2.304 2.304 0 01-.26.085c-.12.03-.247.043-.369.06-.083.012-.165.089-.205.158a.345.345 0 00.123.47l.082.035c.061.016.122.016.183 0 .123-.019.247-.036.37-.061.146-.03.287-.096.424-.154.182-.078.352-.18.52-.283.113-.07.226-.14.334-.217a3.02 3.02 0 00.298-.242c.11-.101.202-.218.288-.34.113-.158.197-.337.282-.511.031-.065.064-.128.096-.192a2.818 2.818 0 00.251.444c.05.074.104.148.163.216.111.129.238.237.384.328.197.123.411.224.64.27a5.76 5.76 0 00.766.117c.225.021.45-.01.667-.07.32-.087.601-.25.84-.477.125-.12.23-.261.333-.4.058-.077.117-.155.174-.233l.056-.067.067.139c.061.126.133.248.221.358.078.1.16.19.253.276.053.05.117.094.177.136.07.05.14.097.214.14.07.042.149.071.224.1.046.016.094.03.142.043.058.015.117.032.177.044.19.037.385.072.58.06.154-.008.306-.048.45-.102a1.224 1.224 0 00.765-.903c.023-.106-.013-.214-.11-.27-.117-.068-.256-.023-.327.086-.07.109-.14.22-.213.326a1.21 1.21 0 01-.14.14c-.044.03-.088.057-.136.081-.089.034-.18.06-.272.076-.108.008-.212 0-.318-.013a2.917 2.917 0 01-.48-.124 2.31 2.31 0 01-.296-.185 1.718 1.718 0 01-.256-.26 3.585 3.585 0 01-.242-.437 2.828 2.828 0 00-.056-.109c-.052-.098-.13-.21-.235-.257a.362.362 0 00-.17-.038.37.37 0 00-.199.07c-.06.043-.112.096-.165.149-.122.122-.228.259-.335.393a3.058 3.058 0 01-.406.435c-.085.06-.175.113-.27.158a2.147 2.147 0 01-.426.117 2.596 2.596 0 01-.546-.026c-.203-.034-.408-.066-.601-.137a2.33 2.33 0 01-.337-.19 1.758 1.758 0 01-.18-.18 2.837 2.837 0 01-.274-.444c-.046-.094-.088-.188-.13-.283a1.87 1.87 0 00-.072-.143.467.467 0 00-.168-.182.838.838 0 00-.103-.046.277.277 0 00-.073-.01.53.53 0 00-.124.019M45.52 62.837l-.03.037.03-.037m3.627-.99a3.173 3.173 0 01-.152.229 2.632 2.632 0 01-.133.157 3.16 3.16 0 01-.215.205c-.051.04-.104.08-.16.112a3.941 3.941 0 01-.232.123c-.177.07-.354.128-.542.161a1.2 1.2 0 01-.231 0 2.528 2.528 0 01-.458-.135 2.039 2.039 0 01-.278-.162c-.061-.05-.121-.1-.184-.15-.03-.024-.06-.049-.093-.072a.544.544 0 00-.046-.033l-.023-.014c-.032-.015-.065-.028-.098-.042a.446.446 0 00-.247.008.528.528 0 00-.168.106c-.057.048-.099.115-.144.174-.033.043-.064.087-.095.131-.057.08-.11.161-.167.24a1.473 1.473 0 01-.26.278 1.16 1.16 0 01-.128.076 1.11 1.11 0 01-.189.05c-.101.01-.202.01-.303 0a1.627 1.627 0 01-.322-.09 2.96 2.96 0 01-.457-.27 2.252 2.252 0 01-.263-.262 3.194 3.194 0 01-.196-.3c-.062-.11-.106-.231-.17-.34-.028-.048-.056-.103-.096-.14a.38.38 0 00-.142-.095.285.285 0 00-.135-.016l-.067.008a.418.418 0 00-.184.127 1.471 1.471 0 00-.12.174c-.033.052-.062.107-.093.16a1.79 1.79 0 01-.09.136 3.105 3.105 0 01-.21.223c-.068.067-.146.126-.22.184-.193.141-.388.277-.589.406-.097.062-.193.125-.294.18-.156.087-.312.174-.471.255-.13.065-.166.245-.096.364.077.131.236.161.365.096a7.77 7.77 0 00.682-.38c.198-.127.395-.256.586-.395.102-.074.206-.15.301-.232a2.9 2.9 0 00.263-.253 1.984 1.984 0 00.26-.373l.045.098c.055.119.127.23.201.337a2.044 2.044 0 00.642.61c.124.08.252.148.388.206.326.14.688.169 1.034.088.097-.023.193-.069.28-.118.089-.05.168-.12.242-.19.084-.08.152-.176.217-.269.08-.112.147-.23.215-.348.032-.053.062-.108.096-.16.08.067.155.137.233.205.16.137.352.243.548.317.078.03.155.058.235.082.174.051.358.073.539.054a2.42 2.42 0 00.615-.153c.133-.051.26-.11.383-.18.12-.067.232-.156.335-.246.215-.186.393-.416.545-.656.083-.13.028-.31-.101-.387a.277.277 0 00-.14-.038.29.29 0 00-.248.14M65.138 103.443l.012.015-.012-.015m4.532-1.567c-.154.006-.278.108-.37.223-.14.177-.241.377-.36.568-.056.089-.11.179-.168.266-.054.08-.11.158-.17.236a1.874 1.874 0 01-.338.347 2.825 2.825 0 01-.47.263c-.133.05-.265.093-.402.129a3.908 3.908 0 01-.852.118 3.185 3.185 0 01-.45-.02c-.153-.025-.3-.07-.444-.126a1.262 1.262 0 01-.2-.111 1.814 1.814 0 01-.267-.274 3.944 3.944 0 01-.201-.29l-.09-.15c-.023-.039-.047-.077-.072-.115a.588.588 0 00-.191-.184c-.083-.048-.178-.043-.267-.022-.083.018-.15.08-.215.13a1.08 1.08 0 00-.132.129c-.095.103-.18.215-.265.326a2.21 2.21 0 01-.153.183c-.07.073-.142.144-.219.21a1.868 1.868 0 01-.306.186 2.314 2.314 0 01-.427.114 2.512 2.512 0 01-.557-.017 4.076 4.076 0 01-1.025-.283c-.393-.17-.763-.39-1.133-.606a.29.29 0 00-.393.103.29.29 0 00.103.393c.264.153.528.306.798.449.289.151.594.277.905.374.315.098.649.15.977.176.165.014.33-.002.493-.028.141-.023.28-.06.414-.111.285-.109.532-.289.74-.509.157-.165.286-.354.423-.535l.063-.08.002-.004c.044.076.086.153.13.226.08.134.179.26.276.382.102.128.23.239.364.332.067.047.146.08.22.112.066.028.133.054.2.078.114.04.225.073.344.093.115.018.23.026.347.036.272.022.545-.007.816-.044.287-.038.565-.11.837-.214.208-.08.402-.19.587-.316.21-.143.37-.336.52-.54.125-.169.229-.347.333-.528.1-.172.184-.353.294-.518.067.062.13.127.196.19.076.073.156.14.236.21.174.147.352.295.561.39.292.133.59.248.915.263.136.007.278-.017.406-.062.135-.045.248-.123.356-.214.17-.144.29-.34.402-.53a.227.227 0 00-.08-.307c-.11-.064-.24-.021-.307.08-.054.083-.108.166-.166.246a1.547 1.547 0 01-.19.198.949.949 0 01-.128.077c-.05.018-.101.03-.153.04a1.17 1.17 0 01-.206 0 2.37 2.37 0 01-.63-.22 1.958 1.958 0 01-.234-.145 5.382 5.382 0 01-.426-.38c-.075-.075-.147-.152-.222-.226a.517.517 0 00-.38-.167M67.128 107.18c.018.001.036.004.053.006l-.053-.007zm2.169-.643zm-.05-.024a.4.4 0 01.043.007l-.043-.007zm.124-.015l-.02.009a.23.23 0 01.02-.009zm3.418-.16a.76.76 0 01.022.017l-.022-.017zm-.028-.01zm.014-.009l.015.007-.016-.006v-.001zm-.076-.017a1.812 1.812 0 000 0zm.077-.565a.918.918 0 00-.17.023l-.118.05a.541.541 0 00-.075.052 2.166 2.166 0 00-.233.211c-.055.057-.107.118-.164.173-.101.099-.21.19-.321.278-.114.08-.23.15-.354.212a1.716 1.716 0 01-.294.084 1.572 1.572 0 01-.28 0 1.308 1.308 0 01-.215-.062 2.08 2.08 0 01-.302-.183 8.312 8.312 0 01-.337-.301 2.24 2.24 0 00-.294-.24c-.05-.032-.114-.05-.17-.067a.591.591 0 00-.176-.018c-.145.002-.267.079-.376.165a1.338 1.338 0 00-.228.256c-.05.069-.1.138-.147.21-.083.121-.173.24-.262.357a1.61 1.61 0 01-.193.214.943.943 0 01-.071.042.968.968 0 01-.124.033 2.485 2.485 0 01-.576-.024l-.011-.002.042.006-.048-.007-.036-.004.033.004-.163-.022-.053-.007a99.25 99.25 0 01-1.667-.344c-.169-.035-.342.048-.39.221-.043.159.053.354.222.39l1.15.243c.161.033.323.062.484.092.158.03.319.044.477.065.081.01.164.013.245.02.18.014.368-.002.541-.047a.977.977 0 00.44-.275c.073-.075.135-.16.198-.243.081-.11.16-.221.236-.334.073-.105.14-.214.214-.317.034-.04.068-.08.106-.115a.688.688 0 01.061.036c.198.165.371.358.58.512.073.053.147.104.225.15.179.104.379.166.584.188.296.033.598-.02.867-.148.108-.05.213-.106.31-.175a4.77 4.77 0 00.331-.261c.089-.077.17-.158.25-.245.079-.088.156-.178.245-.258a.255.255 0 01.006.004c.137.114.254.249.38.375.189.19.42.347.67.441.114.043.247.053.367.051.074 0 .15-.016.223-.03a.78.78 0 00.144-.04c.11-.04.22-.086.324-.142.186-.1.368-.21.55-.316a.332.332 0 00.119-.45.333.333 0 00-.451-.118c-.227.133-.443.283-.68.4-.074.028-.148.05-.227.066a.977.977 0 01-.116.001.992.992 0 01-.139-.037 2.233 2.233 0 01-.273-.166c-.114-.095-.217-.199-.324-.3a2.309 2.309 0 00-.183-.16 1.19 1.19 0 00-.148-.101.51.51 0 00-.226-.066h-.01zM111.429 81.22a.419.419 0 01-.05.006l.05-.006zm.038-.027a.459.459 0 01-.021.009l.02-.009zm3.375-.537a1.291 1.291 0 01-.025.004l.025-.004zm-4.617-.068l.015.012-.015-.012zm2.705-.051l-.02.008a.211.211 0 01.02-.008zm.073-.015l-.044.006a.219.219 0 01.044-.006zm4.097-.822zm.057-.039l-.03.012a.318.318 0 01.03-.012zm2.727-1.02a1.623 1.623 0 00-.18.179c-.047.054-.091.108-.138.16-.143.157-.286.316-.448.453-.042.028-.085.05-.13.07a1.39 1.39 0 01-.24.065 1.716 1.716 0 01-.275-.006 1.837 1.837 0 01-.287-.075c-.19-.09-.37-.2-.552-.303a1.614 1.614 0 00-.458-.194.673.673 0 00-.606.171c-.05.047-.093.096-.137.15-.146.179-.282.367-.433.541a4.65 4.65 0 01-.507.505 2.354 2.354 0 01-.365.233 1.343 1.343 0 01-.237.059c-.11.009-.217.008-.326-.001a1.476 1.476 0 01-.246-.068c-.11-.05-.214-.112-.32-.17-.11-.063-.22-.128-.328-.192-.09-.053-.182-.107-.274-.156-.08-.042-.163-.074-.247-.108a.59.59 0 00-.516.07c-.126.082-.222.209-.323.319a6.947 6.947 0 00-.246.29c-.066.08-.132.159-.202.235a2.32 2.32 0 01-.238.22 1.674 1.674 0 01-.208.125.599.599 0 01-.051.014h-.027a1.258 1.258 0 01-.218-.063c-.311-.143-.593-.346-.865-.552a7.016 7.016 0 01-.751-.72c-.1-.107-.28-.101-.382 0a.274.274 0 000 .38c.205.22.414.435.64.632.119.103.246.197.373.29.132.097.265.192.403.281.12.078.244.147.375.205.148.066.294.105.456.117.045-.004.09-.01.135-.016a.48.48 0 00.115-.034c.08-.029.154-.069.227-.112.084-.05.159-.113.236-.173.163-.127.294-.29.424-.449.072-.086.144-.172.22-.254.071-.076.14-.153.217-.221.124.064.235.143.351.22.13.084.257.172.388.255.228.145.462.27.728.33.207.046.425.056.636.033a1.465 1.465 0 00.669-.229c.15-.087.285-.2.419-.309.125-.102.236-.225.345-.344.12-.132.228-.278.336-.42.082-.109.164-.217.243-.326l.035-.041a.988.988 0 01.082.027c.15.067.291.153.436.23.09.047.18.092.274.133.28.12.587.18.892.158a1.53 1.53 0 00.4-.084c.06-.02.118-.048.176-.074a.954.954 0 00.21-.133c.141-.112.265-.244.391-.375.163-.17.313-.356.437-.556a.325.325 0 00-.28-.487.338.338 0 00-.228.095zM121.809 83.469l.021.016-.021-.016m.017-.099l-.02.009a.176.176 0 01.02-.009m-.225-.533a.547.547 0 00-.2.109c-.064.053-.112.123-.159.191-.057.084-.11.172-.165.257-.057.086-.117.17-.178.253a3.64 3.64 0 01-.509.546 2.73 2.73 0 01-.395.24c-.09.034-.18.061-.276.079-.066.005-.13.005-.197-.001a1.875 1.875 0 01-.322-.085 2.429 2.429 0 01-.398-.222c-.153-.13-.284-.286-.425-.428a1.383 1.383 0 00-.178-.148.307.307 0 00-.065-.033.28.28 0 00-.144-.039.244.244 0 00-.118.005.552.552 0 00-.15.056c-.026.013-.053.037-.077.054a2.301 2.301 0 00-.102.08c-.038.031-.073.066-.11.099-.074.067-.15.13-.222.199-.068.064-.134.132-.203.196a7.192 7.192 0 01-.41.359c-.139.104-.281.198-.437.275-.1.04-.202.072-.308.091a1.402 1.402 0 01-.275 0 1.527 1.527 0 01-.324-.087 27.728 27.728 0 01-.132-.051c-.093-.044-.186-.087-.275-.138a7.683 7.683 0 01-.325-.192c-.213-.135-.42-.275-.629-.416-.179-.138-.358-.275-.53-.423-.082-.071-.201-.081-.283 0-.072.073-.082.212 0 .283.246.212.503.413.77.598.237.164.475.328.722.478.112.068.226.137.346.191.077.035.153.072.231.103.188.076.38.123.582.136.206.014.41-.035.603-.1.141-.05.274-.127.4-.206a4.71 4.71 0 00.62-.48c.1-.088.196-.18.295-.27.084-.074.174-.143.26-.214l.048-.033c.083.073.157.155.235.234.05.05.098.102.148.151.093.094.2.17.31.243.155.101.323.181.495.246.289.108.616.129.912.041a2.351 2.351 0 001.076-.713c.105-.116.198-.244.29-.369.067-.089.128-.183.185-.277.053-.088.102-.18.157-.268a.686.686 0 01.024.017l.194.155c.213.166.47.294.74.326.26.032.533-.053.746-.2.134-.093.251-.209.36-.33a.327.327 0 00.092-.223.318.318 0 00-.092-.223c-.118-.116-.33-.126-.446 0-.083.092-.167.185-.261.266a1.06 1.06 0 01-.134.08.992.992 0 01-.144.038.831.831 0 01-.106 0 1.467 1.467 0 01-.192-.059 1.573 1.573 0 01-.267-.16c-.085-.067-.169-.136-.256-.2a.547.547 0 00-.149-.077.7.7 0 00-.172-.024.338.338 0 00-.101.014M118.657 88.032l.016.007-.016-.007zm-.561-.287l-.017.022.017-.022zm.153-.203c-.042.045-.077.1-.114.15l-.087.115c-.145.186-.29.37-.47.524-.054.037-.108.07-.166.098-.05.018-.099.033-.15.043a1.483 1.483 0 01-.229 0 1.169 1.169 0 01-.182-.049 1.412 1.412 0 01-.19-.12 4.907 4.907 0 01-.506-.49c-.119-.127-.333-.12-.453 0a.323.323 0 000 .452c.148.158.297.313.461.454.094.081.195.156.3.223.098.063.216.103.327.135a1.497 1.497 0 00.72.002c.12-.029.24-.09.345-.154.087-.053.17-.122.245-.194.213-.207.38-.455.553-.697.087.045.17.097.258.14.096.049.192.098.29.14a1.611 1.611 0 00.955.114c.169-.027.331-.106.483-.18a.348.348 0 000-.598c-.071-.042-.186-.07-.267-.036l-.242.105c-.079.028-.156.05-.237.066a1.391 1.391 0 01-.219-.002 1.788 1.788 0 01-.294-.08 8.261 8.261 0 01-.41-.198.976.976 0 00-.329-.107.45.45 0 00-.392.144zM87.366 74.53a2.146 2.146 0 00-.204.12c-.064.043-.124.096-.185.144l-.224.18c-.111.08-.223.162-.343.226-.133.07-.266.136-.402.2-.11.042-.22.082-.334.115a3.97 3.97 0 01-.353.082 1.93 1.93 0 01-.358.003 1.658 1.658 0 01-.308-.086 1.989 1.989 0 01-.345-.2 2.163 2.163 0 01-.282-.278 6.797 6.797 0 01-.098-.132c-.021-.028-.042-.06-.065-.085a.399.399 0 00-.102-.08.254.254 0 00-.16-.035.272.272 0 00-.136.037.484.484 0 00-.08.065c-.084.082-.12.211-.162.319-.02.052-.042.104-.063.155a2.462 2.462 0 01-.21.411.78.78 0 01-.064.064.82.82 0 01-.095.055c-.094.033-.19.054-.288.07a4.47 4.47 0 01-.577.02c-.212-.006-.426-.01-.637-.034a3.27 3.27 0 01-.707-.18 4.33 4.33 0 01-.587-.345c-.11-.074-.27-.021-.335.088-.07.12-.022.26.088.334.213.143.434.283.672.38a3.3 3.3 0 00.729.196c.274.046.554.05.83.058.269.009.538-.003.802-.057a.963.963 0 00.59-.362c.076-.104.133-.218.188-.334l.083-.184c.073.093.153.179.238.261a2.005 2.005 0 00.783.455c.111.035.226.049.341.063.209.026.423-.005.628-.048a3.58 3.58 0 00.188-.046c.075-.021.152-.04.225-.067.167-.066.33-.137.492-.213.138-.064.266-.143.395-.222.06-.036.115-.08.173-.12.078-.055.153-.116.226-.176.135-.112.263-.232.4-.341a.304.304 0 00.048-.367.294.294 0 00-.26-.147.34.34 0 00-.155.038M86.226 78.634l.036.005a1.499 1.499 0 01-.036-.005m1.842-.968c-.098.11-.175.231-.248.36a3.33 3.33 0 01-.182.295c-.05.06-.103.116-.162.166-.047.033-.094.06-.145.085a1.455 1.455 0 01-.262.068c-.13.014-.258.016-.388.015a4.58 4.58 0 01-.47-.024c-.271-.042-.533-.129-.794-.209a7.825 7.825 0 01-.58-.204c-.084-.034-.168-.067-.253-.097a.66.66 0 00-.597.063c-.094.065-.176.148-.26.227-.069.065-.137.13-.21.191-.148.105-.31.178-.476.249-.2.077-.402.15-.605.224a.27.27 0 00-.153.117.258.258 0 00-.025.197c.034.126.183.225.314.178.31-.112.62-.221.919-.36.178-.084.342-.194.485-.328.097-.092.188-.193.29-.28a.489.489 0 01.035-.021l.004-.002h.044c.078.017.152.046.227.074.2.085.403.168.611.235a63.272 63.272 0 00.573.182c.173.055.352.081.532.103.185.022.377.028.565.03.313.001.638-.047.905-.219.223-.143.385-.359.517-.584.077-.131.14-.27.221-.398a.275.275 0 00-.244-.413c-.07 0-.14.025-.188.08" fill="#68E7C0"/><path d="M100.431 24.044c-.116.032-.226.154-.214.281.01.111.017.222.029.333l.029.272c.018.198.037.396.051.594l.108 1.483a.343.343 0 00.095.229c.061.06.144.094.23.094.166 0 .336-.147.323-.323l-.109-1.483c-.014-.198-.034-.396-.053-.594a9.353 9.353 0 00-.045-.357 1.01 1.01 0 00-.114-.395.297.297 0 00-.33-.134M96.68 25.412a.339.339 0 00-.203.498c.041.07.096.108.164.14h.002c.029.028.055.058.08.09.492.645.997 1.277 1.503 1.91.06.074.178.11.269.11a.38.38 0 00.38-.378c0-.109-.046-.186-.112-.268-.327-.408-.655-.817-.977-1.229l.06.077c-.113-.145-.224-.29-.334-.436-.066-.088-.13-.177-.2-.262a2.138 2.138 0 00-.09-.107c-.044-.047-.102-.083-.156-.117a.407.407 0 00-.219-.06c-.06 0-.118.011-.167.032M91.955 28.657a.337.337 0 00-.168.292c0 .122.065.23.168.293.079.048.16.058.247.076.053.01.104.023.155.039.063.02.127.038.189.06.146.054.291.108.436.165.284.113.567.232.849.35.436.188.873.374 1.31.561l.085.036a.358.358 0 00.402-.164.36.36 0 00.037-.274c-.022-.08-.084-.179-.164-.213-.598-.257-1.196-.514-1.795-.767-.231-.098-.464-.192-.696-.286a5.054 5.054 0 00-.308-.114c-.072-.024-.144-.05-.217-.07a1.499 1.499 0 00-.291-.046.497.497 0 00-.239.062M93.265 31.904a42.52 42.52 0 01-1.824.11.368.368 0 00-.362.362c0 .204.165.353.362.362.32.015.641-.004.962-.02.287-.014.574-.038.862-.063a.398.398 0 00.265-.11.376.376 0 00-.265-.64M92.505 35.548l-1.177.835c-.377.27-.758.535-1.127.816-.07.053-.125.104-.15.194a.33.33 0 00.033.25c.085.147.298.217.446.118.378-.252.748-.518 1.119-.78l1.199-.847a.364.364 0 00.156-.203.344.344 0 00-.034-.261.343.343 0 00-.465-.122M94.765 40.236c-.115.21-.237.418-.37.617a40.122 40.122 0 01-.843 1.211c-.153.213-.32.421-.41.67-.045.124.029.273.137.336.11.064.275.053.362-.046.172-.198.326-.412.481-.623.141-.19.272-.39.405-.585.139-.204.275-.409.41-.614a9.36 9.36 0 00.385-.641.326.326 0 00-.115-.441.322.322 0 00-.162-.043.317.317 0 00-.28.159M99.942 41.657c-.08.047-.166.141-.182.237-.082.527-.164 1.055-.25 1.582-.037.231-.075.462-.111.694-.043.277-.089.553-.09.834 0 .157.11.3.26.342.183.05.39-.06.437-.248.116-.466.192-.938.27-1.412.086-.526.166-1.054.248-1.582.017-.11.018-.205-.04-.305a.398.398 0 00-.542-.142M104.536 42.007v.003c0-.011-.002-.022-.004-.033l.004.03zm.001.006l.001.007.005.035-.006-.045v.003zm.01.063l-.004-.021a.892.892 0 01.003.021zm.122.834l.005.029-.005-.029zm-.787-1.59c-.057.053-.112.145-.1.222l.225 1.563c.069.487.145.976.182 1.466a.33.33 0 00.339.309c.185 0 .337-.141.338-.31.002-.296-.046-.59-.084-.884-.031-.244-.07-.489-.106-.733a549.521 549.521 0 00-.135-.913v-.001l.001.007-.002-.012-.002-.014v-.003-.004l-.001-.004v.006a.435.435 0 00-.002-.015V42l-.002-.015-.065-.444-.012-.083a.307.307 0 00-.089-.138.363.363 0 00-.242-.092.363.363 0 00-.243.092zM106.34 39.59a.417.417 0 00-.148.564c.197.34.39.684.594 1.02.09.149.179.296.277.44.12.176.25.344.388.507.096.112.28.122.4.052a.33.33 0 00.118-.118c.04-.069.064-.177.033-.254a8.209 8.209 0 00-.247-.551 13.653 13.653 0 00-.262-.489c-.193-.343-.392-.682-.588-1.023a.414.414 0 00-.564-.148M108.416 37.16a.325.325 0 00-.117.445c.038.066.116.14.194.15l1.434.204c.445.063.892.12 1.336.192.085.014.16.014.237-.03a.31.31 0 00.141-.184.31.31 0 00-.214-.379c-.425-.116-.868-.165-1.303-.226-.486-.07-.971-.136-1.457-.205l-.087-.011a.323.323 0 00-.164.044M110.161 33.17c-.744.292-1.45.671-2.16 1.036-.187.097-.24.355-.138.528.11.19.341.235.528.14.54-.277 1.08-.549 1.635-.795.116-.047.231-.094.348-.137a.427.427 0 00.24-.184.402.402 0 00-.354-.606.27.27 0 00-.099.017" fill="#2E5FB0"/></g></g></svg>