<svg xmlns="http://www.w3.org/2000/svg" viewBox="0 0 147 200">
    <defs>
        <linearGradient id="a" x1=".003%" x2="99.999%" y1="50.005%" y2="50.005%">
            <stop offset="0%"/>
            <stop offset="54%"/>
            <stop offset="100%"/>
        </linearGradient>
    </defs>
    <g fill="none">
        <path fill="#F2EFE9" d="m135.371 29.528-13.986-4.074-.861 18.432 14.718 4.276z"/>
        <path fill="#F2EFE9" d="m37.555 18.973 82.988 24.568.854-18.645L37.555 0z"/>
        <path fill="#000" opacity=".1" d="m121.385 25.454-.861 18.432 14.718 4.276.129-18.634z"/>
        <path fill="#568B77" d="m121.385 63.009-.861 18.432 14.718 4.275.129-18.633z"/>
        <path fill="#7BC0A6" d="m37.555 56.78 82.988 24.569.854-18.646-83.842-24.895z"/>
        <path fill="#7BC0A6" opacity=".1" d="m121.385 63.009-.861 18.432 14.718 4.275.129-18.633z"/>
        <path fill="#FFF" d="M131.133 70.358a.872.872 0 0 1 1.277-.15c.392.333.455.94.142 1.358l-5.388 7.163-2.994-4.777c-.278-.444-.165-1.044.252-1.34.417-.296.981-.176 1.26.268l1.615 2.578 3.836-5.1Z"/>
        <g fill="#FFF" opacity=".4">
            <path d="M123.894 34.124c-.252-.412-.1-.937.342-1.173.441-.235 1.003-.092 1.256.32l4.671 7.637c.252.412.099.937-.342 1.173-.441.235-1.004.092-1.256-.32l-4.671-7.637Z"/>
            <path d="M129.88 34.18a.966.966 0 0 1 1.302 0 .82.82 0 0 1 0 1.216l-5.839 5.456a.966.966 0 0 1-1.3 0 .82.82 0 0 1 0-1.216l5.838-5.456Z"/>
        </g>
        <path fill="#F2EFE9" d="m135.371 101.144-13.986-4.074-.861 18.432 14.718 4.275z"/>
        <path fill="#F2EFE9" d="m37.555 90.842 82.988 24.568.854-18.645-83.842-24.896z"/>
        <path fill="#000" opacity=".1" d="m135.371 101.144-13.986-4.074-.861 18.432 14.718 4.275z"/>
        <g fill="#FFF" opacity=".4">
            <path d="M123.894 105.209c-.252-.412-.1-.938.342-1.173.441-.236 1.003-.093 1.256.32l4.671 7.636c.252.413.099.938-.342 1.173-.441.236-1.004.093-1.256-.32l-4.671-7.636Z"/>
            <path d="M129.88 105.265a.966.966 0 0 1 1.302 0 .82.82 0 0 1 0 1.216l-5.839 5.455a.966.966 0 0 1-1.3 0 .82.82 0 0 1 0-1.216l5.838-5.455Z"/>
        </g>
        <ellipse cx="95.633" cy="62.135" fill="#000" opacity=".3" rx="3.057" ry="6.114"/>
        <ellipse cx="94.76" cy="62.135" fill="#7EBC89" opacity=".1" rx="24.017" ry="47.162"/>
        <ellipse cx="95.197" cy="63.009" fill="#FFF" opacity=".1" rx="13.1" ry="26.201"/>
        <path fill="url(#a)" d="M81.952 32.666c-1.17-3.47-8.125 1.22-8.125 1.22l-.572.761L60.892 51.17l-30.29-16.74v-7.486a10.546 10.546 0 0 0 7.249-4.086 10.31 10.31 0 0 0 1.958-8.02c1.524-.58 2.766-1.834 3.91-3.044 1.054-1.108 2.183-2.452 2.075-3.929a2.701 2.701 0 0 0-.04-.705c-.242-1.245-1.381-2.153-2.587-2.587-1.206-.434-2.509-.507-3.769-.76-3.001-.582-5.713-2.131-8.64-3.009a19.858 19.858 0 0 0-4.082-.76c-.993-.082-2.027-.082-2.935.321-.995.444-1.716 1.312-2.517 2.05a11.467 11.467 0 0 1-3.299 2.123c-1.814.76-3.848 1.073-5.482 2.148-.454.27-.834.646-1.106 1.096a2.949 2.949 0 0 0-.295 1.557c-.007.472.029.944.108 1.41.287 1.989.618 4.026 1.636 5.763.832 1.42 2.076 2.552 3.297 3.663l2.748 2.49c.556.508 1.172 1.132 1.89 1.383-.046-.33.144-.678.426-1.015l-.89 6.153a18.215 18.215 0 0 0-5.12-.798c-2.34-.028-4.708.39-5.732 1.965-.06.096-.112.196-.156.3-3.225 3.784-10.616 16.04-6.27 45.807a1255.99 1255.99 0 0 0-.596 5.948l.026.365-.026.277.052.04 2.419 32.865-4.68 32.39h1.04v3.599H.043v5.783s16.25-1.027 18.728-4.627c2.052-2.985-8.164-1.813-11.701-1.326v-2.214h.064v-1.22h1.234l4.68-21.978c4.81-8.221 2.344-28.799 2.344-28.799l5.85 3.47 4.669 24.177-3.505 35.86h1.04v2.506H22.08v5.783s16.25-1.027 18.728-4.627c2.053-2.985-8.158-1.813-11.696-1.326l-.392-2.336h.716l4.684-32.39c2.31-8.776-.839-34.526-1.254-37.823l5.793-37.884-.083-.11.083-.534 23.4 8.101s2.34 2.313 4.746-4.566c2.247-6.427 8.412-15.043 9.21-16.141l.084-.117s7.022-3.47 5.852-6.94Z" opacity=".5" transform="translate(16.594 30.568)"/>
        <path fill="#FDA57D" d="M18.341 176.421v6.238h6.113v-8.733zM39.301 188.273v7.487l6.114-1.247-1.223-7.487z"/>
        <path fill="#155775" d="M26.074 62.135s-13.566 10.31-6.883 50.655l6.883-50.655Z"/>
        <path fill="#155775" d="M25.074 62.135s-13.566 10.31-6.883 50.655l6.883-50.655Z" opacity=".05"/>
        <path fill="#000" opacity=".05" d="m44.541 192.266-.484-3.493-3.882 1.164v2.329zM18.341 180.039h6.113v-3.493l-6.113 2.33z"/>
        <path fill="#FDA57D" d="m36.875 54.275-1.067 8.153 9.607 5.821V56.604z"/>
        <path fill="#5B937A" d="m17.467 178.82 4.47-32.007-2.36-33.15 29.04 8.002s3.59 28.45 1.24 37.721l-4.466 32.007h-6.702l3.35-35.435-4.467-23.887-5.586-3.42s2.36 20.332-2.233 28.45l-4.457 21.72h-7.829Z"/>
        <path fill="#FDA57D" d="M95.94 65.221c-1.157-3.634-8.038 1.28-8.038 1.28l-.566.802 2.732 5.313.086-.123s6.943-3.637 5.786-7.272Z"/>
        <path fill="#000" d="M38.118 62.935s-9.015-2.413-11.269 1.143c-2.253 3.555-6.762 51.427-6.762 51.427s13.398 11.425 29.3 7.998L55.021 85.8 38.118 62.935Z" opacity=".05"/>
        <path fill="#155775" d="M75.986 82.89 40.018 62.705a17.897 17.897 0 0 0-8.53-2.316c-2.275-.028-4.578.386-5.572 1.94-2.276 3.556-6.829 51.426-6.829 51.426s13.529 11.427 29.586 8l5.69-37.727 22.76 8s2.276 2.285 4.612-4.508c2.186-6.35 8.181-14.86 8.968-15.953l-2.685-5.01-12.032 16.331Z"/>
        <path fill="#000" d="M38.428 56.627a9.675 9.675 0 0 0 8.734 3.7v-2.122l-8.649-2.183-.085.605Z" opacity=".05"/>
        <circle cx="46.288" cy="49.908" r="10.48" fill="#FDA57D"/>
        <path fill="#333" d="M17.467 182.537v5.363s15.694-.954 18.08-4.291c2.387-3.337-12.429-1.072-12.429-1.072h-5.65zm20.96 10.48v5.363s15.695-.954 18.081-4.29c2.387-3.338-12.429-1.073-12.429-1.073h-5.651z"/>
        <path fill="#000" d="m40.005 53.45 3.929-5.586c.58-.827 1.177-1.67 1.992-2.275.814-.604 1.896-.942 2.862-.632.583.188 1.069.587 1.564.945 1.466 1.06 3.27 1.847 5.063 1.527 1.869-.335 3.305-1.785 4.605-3.16 1.079-1.139 2.238-2.539 1.942-4.076-.232-1.194-1.318-2.064-2.47-2.482-1.152-.417-2.395-.485-3.597-.72-2.864-.557-5.455-2.044-8.25-2.886a18.87 18.87 0 0 0-3.897-.75c-.949-.078-1.937-.078-2.802.31-.95.425-1.64 1.25-2.402 1.967a10.94 10.94 0 0 1-3.149 2.034c-1.73.735-3.664 1.03-5.234 2.062-.432.26-.794.621-1.054 1.053-.402.75-.299 1.644-.178 2.479.274 1.907.588 3.862 1.562 5.529.794 1.362 1.98 2.449 3.149 3.514l2.623 2.392c.53.485 1.119 1.084 1.806 1.327-.124-.86 1.44-1.86 1.936-2.572Z" opacity=".05"/>
        <path fill="#000" d="m39.005 53.448 3.929-5.586c.58-.827 1.177-1.67 1.992-2.274.814-.605 1.896-.942 2.862-.632.583.187 1.069.587 1.564.944 1.466 1.06 3.27 1.847 5.063 1.527 1.869-.334 3.305-1.784 4.605-3.158 1.079-1.14 2.238-2.54 1.942-4.077-.232-1.194-1.318-2.064-2.47-2.481-1.152-.418-2.395-.485-3.597-.72-2.864-.557-5.455-2.044-8.25-2.886a18.871 18.871 0 0 0-3.897-.75c-.949-.078-1.937-.078-2.802.31-.95.425-1.64 1.25-2.402 1.967a10.94 10.94 0 0 1-3.149 2.036c-1.73.735-3.664 1.03-5.234 2.062-.432.26-.794.621-1.054 1.052-.402.75-.299 1.645-.178 2.48.274 1.906.588 3.86 1.562 5.527.794 1.362 1.98 2.45 3.149 3.514l2.623 2.392c.53.485 1.119 1.084 1.806 1.327-.124-.86 1.44-1.872 1.936-2.574Z"/>
        <g fill="#7EBC89" opacity=".5">
            <path d="M2.203 30.006h1v5.357h-1z"/>
            <path d="M5.357 32.208v.945H0v-.945z"/>
        </g>
        <g fill="#7EBC89" opacity=".5">
            <path d="M135.06 133.872h1v3.493h-1z"/>
            <path d="M137.116 135.308v.616h-3.492v-.616z"/>
        </g>
        <g fill="#7EBC89" opacity=".5">
            <path d="M126.551 88.436h1v3.493h-1z"/>
            <path d="M128.607 89.872v.616h-3.493v-.616z"/>
        </g>
        <g fill="#7EBC89" opacity=".5">
            <path d="M110.764 130.992h1v6.287h-1z"/>
            <path d="M112.821 133.577v1.109h-3.493v-1.109z"/>
        </g>
        <g fill="#7EBC89" opacity=".5">
            <path d="M99.371 158.223h1v2.561h-1z"/>
            <path d="M102.079 159.279v.452H97.47v-.452z"/>
        </g>
        <g fill="#7EBC89" opacity=".5">
            <path d="M18.101 62.164h1v3.493h-1z"/>
            <path d="M20.154 63.605v.616h-3.493v-.616z"/>
        </g>
        <path fill="#EFB96C" d="M24.404 29.97a1.026 1.026 0 0 1-.567-1.241.493.493 0 0 0 0-.113.516.516 0 0 0-.924-.34.493.493 0 0 0-.056.101c-.21.477-.744.72-1.242.567h-.113a.516.516 0 0 0-.34.924.493.493 0 0 0 .102.057c.477.21.72.744.567 1.241a.493.493 0 0 0 0 .114.516.516 0 0 0 .924.34.493.493 0 0 0 .056-.102c.21-.477.744-.72 1.242-.567h.113a.516.516 0 0 0 .34-.924.493.493 0 0 0-.102-.057zm85.59-18.34a1.026 1.026 0 0 1-.567-1.242.493.493 0 0 0 0-.113.516.516 0 0 0-.924-.34.493.493 0 0 0-.057.102c-.21.477-.743.72-1.241.567h-.113a.516.516 0 0 0-.34.924.493.493 0 0 0 .101.056c.477.21.72.744.567 1.242a.493.493 0 0 0 0 .113.516.516 0 0 0 .924.34.493.493 0 0 0 .057-.102c.21-.477.744-.72 1.241-.567h.114a.516.516 0 0 0 .34-.924.493.493 0 0 0-.102-.056zM6.109 79.385a1.3 1.3 0 0 1-.718-1.573.625.625 0 0 0 0-.144.653.653 0 0 0-1.17-.43.625.625 0 0 0-.072.129 1.3 1.3 0 0 1-1.573.718h-.143a.653.653 0 0 0-.431 1.17c.04.03.083.053.129.072a1.3 1.3 0 0 1 .718 1.573.625.625 0 0 0 0 .143.653.653 0 0 0 1.17.431.625.625 0 0 0 .072-.129 1.3 1.3 0 0 1 1.573-.718h.144a.653.653 0 0 0 .43-1.17.625.625 0 0 0-.129-.072zm2.575 45.782a1.026 1.026 0 0 1-.567-1.242.493.493 0 0 0 0-.113.516.516 0 0 0-.924-.34.493.493 0 0 0-.057.102c-.21.477-.743.72-1.241.567H5.78a.516.516 0 0 0-.34.924.493.493 0 0 0 .102.056c.477.21.72.744.567 1.242a.493.493 0 0 0 0 .113.516.516 0 0 0 .924.34.493.493 0 0 0 .057-.102c.21-.476.744-.72 1.241-.567h.114a.516.516 0 0 0 .34-.924.493.493 0 0 0-.102-.056z" opacity=".5"/>
        <circle cx="64.755" cy="36.061" r="1.873" fill="#155775" opacity=".5"/>
        <circle cx="85.716" cy="133.878" r="1.873" fill="#EFB96C" opacity=".5"/>
        <circle cx="131.131" cy="57.022" r="1.873" fill="#EFB96C" opacity=".5"/>
        <circle cx="145.105" cy="91.083" r="1.873" fill="#7EBC89" opacity=".5"/>
        <circle cx="94.45" cy="4.62" r="1.873" fill="#155775" opacity=".5"/>
    </g>
</svg>
