<svg width="1181" height="99" xmlns="http://www.w3.org/2000/svg"><g fill="#172E51" fill-rule="evenodd" opacity=".203"><path d="M86.144 25.588l-.234.182c.126-.096.25-.19.372-.288l-.138.106zm-1.075 1.055a2.03 2.03 0 01-.108.086c.093-.068.18-.138.27-.206-.054.04-.108.082-.162.12zM53.99 50.71c.071-.056.143-.114.215-.168a8.894 8.894 0 00-.216.168zm-1.233 1.18c.228-.174.452-.348.68-.528l-.68.528zm.59-.459l-.543.422c.198-.15.394-.304.586-.454l-.044.032zM32.818 67.838c.186-.14.37-.28.554-.424l-.554.424zm.266-.205c-.036.03-.074.056-.11.086.08-.062.16-.126.242-.186l-.132.1zM52.246 52.51l-.3.234.3-.234zm-6.93-3.055c-.146.114-.294.228-.44.344.148-.118.294-.23.44-.344zm60.607-44.457a235.748 235.748 0 00-5.834 3.51c-1.264.78-2.584 1.513-3.804 2.369-2.752 1.93-5.523 3.834-8.212 5.854-2.65 1.995-5.279 4.02-7.949 5.995-2.81 2.072-5.62 4.143-8.373 6.292-5.047 3.953-9.981 8.047-15.003 12.032-2.423 1.83-4.862 3.638-7.296 5.466-.657.494-1.314.99-1.972 1.492-.063.048-.124.094-.183.142-.223.156-.434.337-.687.533a135.035 135.035 0 01-.878.676c-2.198 1.69-4.383 3.397-6.568 5.095.213-.168.426-.334.645-.502-2.63 2.007-5.26 3.995-7.885 6.002-2.584 1.975-5.208 3.912-7.677 6.034-2.417 2.084-4.653 4.355-6.904 6.606a344.906 344.906 0 00-6.897 7.076c-1.715 1.815-3.424 3.635-5.068 5.514A279.22 279.22 0 003.116 87.8c-.877 1.023-1.824 2.008-2.578 3.12-.787 1.157-.459 2.85.49 3.795 1.198 1.198 3.254 1.229 4.44 0 2.032-2.096 3.889-4.36 5.841-6.53 2.134-2.366 4.377-4.643 6.588-6.94 2.27-2.354 4.63-4.638 6.956-6.94 2.198-2.183 4.518-4.195 6.918-6.151.422-.351.863-.684 1.302-1.017 1.581-1.215 3.167-2.438 4.75-3.667a645.5 645.5 0 007.381-5.731c1.819-1.441 3.623-2.903 5.448-4.338.228-.135.439-.3.629-.492l.283-.22c.11-.083.22-.169.329-.254l-.274.215.376-.293c.086-.066.17-.132.256-.196-.03.022-.058.045-.088.066l.522-.402c-.03.023-.058.043-.086.066.178-.138.355-.277.533-.413a3.903 3.903 0 00.036-.027l.746-.576a2.654 2.654 0 00-.07.054l.615-.474c-.04.031-.08.06-.12.092.089-.067.176-.135.264-.2-.029.02-.057.042-.085.064a23.469 23.469 0 01-.035.028l.428-.328c2.043-1.556 4.1-3.1 6.093-4.717a765.99 765.99 0 006.499-5.332c2.14-1.77 4.26-3.546 6.375-5.34 1.937-1.635 3.957-3.171 5.957-4.726l-.124.1c1.3-.987 2.611-1.972 3.91-2.967a8.866 8.866 0 00-.183.143l.52-.403.054-.041a133.97 133.97 0 01.845-.65l-.06.045c.032-.024.065-.049.096-.075a.094.094 0 01.022-.013c-.007.001-.012.006-.018.011l.252-.196-.287.222-.521.399a603.08 603.08 0 011.538-1.184c-.045.034-.09.067-.132.104.085-.068.173-.135.259-.201-.037.026-.073.056-.11.084.101-.08.202-.157.303-.234l1.259-.969c1.563-1.203 3.142-2.394 4.715-3.59 1.572-1.195 3.23-2.302 4.842-3.446.747-.53 1.495-1.063 2.242-1.59.684-.482 1.438-.887 2.147-1.325 2.431-1.506 4.854-3.004 7.323-4.439 1.308-.759 1.76-2.49 1-3.789a2.811 2.811 0 00-3.804-.996zM121.09 11.63c-.034.026-.066.05-.1.078.072-.054.142-.108.212-.164l-.112.086M44.207 77.482c-.076.094-.148.19-.222.288.072-.098.146-.194.222-.288m78.958-72.59a784.75 784.75 0 00-9.715 7.434c-.73.56-1.484 1.106-2.18 1.703-1.277 1.099-2.548 2.204-3.824 3.303-3.856 3.33-7.583 6.805-11.29 10.294-3.888 3.668-7.777 7.345-11.67 11.02-1.658 1.56-3.315 3.142-5.017 4.652-2.167 1.921-4.333 3.842-6.5 5.757-3.785 3.348-7.53 6.735-11.309 10.082-1.954 1.736-3.876 3.496-5.675 5.392a630.99 630.99 0 01-5.325 5.57c-1.051 1.086-2.116 2.178-3.083 3.336-1.124 1.35-2.174 2.759-3.247 4.149a644.898 644.898 0 00-4.632 6.043c-1.324 1.663-2.643 3.33-3.971 4.985-.66.816-1.31 1.638-1.968 2.46-.42.529-.825 1.075-1.231 1.614-.187.244-.367.489-.548.732-.271.379-.586.86-.684 1.311-.096.431-.142.86-.2 1.292 0 .468.123.913.355 1.317a2.613 2.613 0 003.572.931c.618-.36.953-.886 1.197-1.53l.005-.011c5.152-6.027 9.975-12.32 14.732-18.659 1.484-1.818 3.075-3.53 4.667-5.246 1.754-1.888 3.45-3.836 5.229-5.691 1.786-1.864 3.65-3.65 5.493-5.45a658.376 658.376 0 015.997-5.758c1.832-1.735 3.696-3.43 5.54-5.147 1.806-1.676 3.663-3.32 5.429-5.037 1.972-1.914 3.94-3.829 5.906-5.745 1.812-1.774 3.656-3.507 5.462-5.28 3.643-3.587 7.298-7.153 11.076-10.61a316.457 316.457 0 016.365-5.668c.767-.668 1.509-1.368 2.308-1.985 1.264-.984 2.528-1.96 3.784-2.936.98-.76 1.957-1.52 2.935-2.28l-.077.056.16-.12.233-.181-.14.11c1.264-.956 2.538-1.902 3.81-2.854.425-.323.747-.63.895-1.163a1.947 1.947 0 00-1.36-2.385 2.17 2.17 0 00-.56-.073c-.341 0-.694.08-.944.267M64.25 86.43c-.102.131-.206.261-.308.393l.308-.394M136.352 6.26a2544.848 2544.848 0 01-26.287 24.78c-4.204 3.896-8.42 7.785-12.612 11.7-1.713 1.599-3.465 3.158-5.134 4.808-1.014.994-2.067 1.97-3.04 3.003-1.08 1.129-2.165 2.266-3.243 3.395-3.639 3.824-7.155 7.76-10.794 11.584-3.524 3.704-6.854 7.6-10.134 11.515a171.002 171.002 0 00-5.237 6.545c-.873 1.162-1.758 2.31-2.58 3.505-.545.795-1.09 1.592-1.612 2.4a14.543 14.543 0 00-1.18 2.266c-.16.398-.25.751-.308 1.175a1.847 1.847 0 00-.058.95c.027.313.07.622.142.93.225 1.066 1.334 1.81 2.374 1.81 1.329 0 2.484-1.117 2.464-2.464l-.005-.125v-.004c.549-1.08 1.287-2.057 1.988-3.042.488-.687.983-1.374 1.47-2.067.719-1.01 1.49-1.982 2.233-2.97 1.617-2.066 3.25-4.11 4.916-6.138a368.557 368.557 0 014.955-5.859c3.383-3.935 6.976-7.676 10.423-11.552a406.757 406.757 0 015.314-5.86 269.675 269.675 0 015.77-6.027c1.804-1.835 3.71-3.58 5.565-5.364a1093.94 1093.94 0 016.333-6.04c8.036-7.612 16.09-15.204 24.12-22.823 2.43-2.297 4.844-4.607 7.264-6.925.866-.822.833-2.271 0-3.106a2.156 2.156 0 00-1.534-.634c-.567 0-1.136.215-1.573.634M160.24 4.657c-2.753 2.173-5.505 4.343-8.25 6.522-2.08 1.638-4.101 3.342-6.148 5.02-.872.714-1.75 1.417-2.616 2.146-.905.747-1.766 1.56-2.645 2.34-1.943 1.723-3.938 3.407-5.82 5.202-1.326 1.261-2.648 2.523-3.977 3.783-.718.684-1.455 1.347-2.149 2.056-1.931 1.956-3.907 3.875-5.788 5.877-1.777 1.9-3.618 3.745-5.318 5.71-1.79 2.06-3.612 4.096-5.338 6.215-1.835 2.25-3.663 4.499-5.453 6.781a532.352 532.352 0 00-5.53 7.192c-3.222 4.245-6.52 8.453-9.58 12.816a240.191 240.191 0 00-3.786 5.52c-.655.995-1.309 1.99-1.944 3.004-.776 1.221-1.54 2.568-1.835 3.998-.276 1.333.366 2.691 1.72 3.07a2.412 2.412 0 001.892-.247c.525-.308.798-.728 1.026-1.24l-.024.063c.616-1.392 1.558-2.66 2.4-3.922.647-.982 1.313-1.95 1.975-2.92 1.488-2.19 2.983-4.382 4.548-6.52 3.42-4.65 6.886-9.272 10.337-13.895.25-.34.5-.677.757-1.015-.135.177-.27.358-.41.533 1.39-1.81 2.787-3.61 4.161-5.428 3.215-4.023 6.383-8.096 9.845-11.906 3.6-3.96 7.198-7.932 11.035-11.659 1.905-1.859 3.773-3.79 5.748-5.57 2.4-2.166 4.8-4.332 7.2-6.49.615-.56 1.276-1.066 1.911-1.6l4.427-3.667c1.9-1.573 3.825-3.115 5.755-4.65 1.662-1.32 3.325-2.644 4.992-3.96.43-.344.642-1.051.642-1.579 0-.59-.232-1.163-.642-1.58A2.211 2.211 0 00161.799 4c-.64 0-1.077.275-1.559.657M189.843 4.054c-1.314.346-2.575 1.03-3.753 1.696-1.27.724-2.466 1.587-3.631 2.464-2.273 1.708-4.411 3.577-6.582 5.407-1.635 1.383-3.219 2.834-4.827 4.25-1.037.92-2.074 1.83-3.11 2.75-.413.36-.831.705-1.223 1.077a1128.367 1128.367 0 00-5.202 4.932c-1.378 1.306-2.634 2.753-3.934 4.142a175.857 175.857 0 00-3.465 3.768c-2.909 3.276-5.807 6.566-8.704 9.855-1.172 1.326-2.273 2.713-3.412 4.063-1.134 1.352-2.202 2.772-3.296 4.161-1.23 1.568-2.408 3.18-3.607 4.774-1.012 1.343-2.05 2.665-3.078 3.999.018-.023.036-.046.052-.07a1583.594 1583.594 0 00-3.972 4.716c-1.25 1.484-2.55 2.924-3.837 4.377-2.8 3.167-5.653 6.298-8.44 9.477-.638.723-1.27 1.46-1.894 2.196-.38.44-.76.89-1.132 1.336-.432.513-.864 1.044-1.192 1.625-.366.634-.67 1.383-.592 2.119 0 .334.084.64.25.929.246.41.645.709 1.102.838.992.269 1.964-.327 2.266-1.28l.01-.027a8.24 8.24 0 01.564-.868c1.265-1.576 2.622-3.082 3.952-4.609 1.469-1.682 2.962-3.346 4.455-5.017a344.152 344.152 0 003.549-4.019c1.293-1.49 2.614-2.955 3.881-4.472 1.088-1.3 2.17-2.599 3.259-3.898.83-.992 1.608-2.034 2.395-3.065 1.699-2.233 3.387-4.474 5.046-6.733l-.301.385c1.256-1.6 2.479-3.232 3.772-4.806 1.281-1.555 2.55-3.116 3.864-4.646a2979.18 2979.18 0 018.73-10.035c1.345-1.548 2.774-3.02 4.165-4.53.534-.582 1.05-1.216 1.622-1.76.683-.646 1.353-1.304 2.03-1.958 1.318-1.28 2.607-2.598 3.978-3.814 1.97-1.753 3.94-3.514 5.917-5.267 2.794-2.495 5.6-4.983 8.557-7.29 1.87-1.42 3.811-2.711 5.955-3.673.234-.091.469-.167.72-.229.896-.236 1.436-1.202 1.19-2.086-.209-.751-.91-1.238-1.664-1.238-.143 0-.288.018-.433.054M217.685.58c-8.09 6.515-16.172 13.037-24.198 19.637-3.602 2.959-7.217 5.91-10.792 8.914-3.909 3.28-7.798 6.567-11.687 9.88-1.695 1.447-3.352 2.945-5.03 4.43-1.695 1.506-3.288 3.128-4.913 4.716-1.582 1.537-3.023 3.228-4.514 4.856-.72.79-1.396 1.627-2.097 2.437-.6.708-1.211 1.41-1.81 2.116-3.157 3.738-6.293 7.487-9.353 11.314-2.703 3.377-5.495 6.696-8.19 10.08-2.036 2.552-4.12 5.081-5.816 7.879-.592.976-.223 2.302.746 2.875.478.283 1.064.36 1.601.212.553-.155.93-.502 1.242-.965a60.93 60.93 0 011.637-2.255c2.717-3.412 5.496-6.766 8.225-10.165a663.265 663.265 0 004.615-5.802 389.03 389.03 0 014.604-5.7 489.732 489.732 0 013.984-4.822c1.377-1.633 2.728-3.3 4.156-4.889 1.02-1.13 2.034-2.257 3.054-3.39.568-.629 1.19-1.215 1.792-1.813.962-.958 1.924-1.91 2.886-2.868.683-.67 1.428-1.288 2.137-1.923a446.284 446.284 0 019.886-8.627c3.354-2.842 6.688-5.699 10.08-8.49 3.576-2.945 7.132-5.929 10.728-8.85 4.417-3.576 8.83-7.16 13.241-10.74 2.174-1.764 4.354-3.52 6.535-5.275.382-.31.566-.92.566-1.39 0-.515-.204-1.022-.566-1.382a1.948 1.948 0 00-1.378-.58c-.561 0-.95.239-1.37.58M236.8 4.189c-7.354 7.726-14.727 15.43-22.087 23.157-3.705 3.894-7.411 7.789-11.122 11.683-1.212 1.273-2.385 2.578-3.579 3.87-1.409 1.541-2.844 3.058-4.196 4.646a596.123 596.123 0 00-8.763 10.43 1082.725 1082.725 0 00-9.063 11.241c-2.385 3.003-4.695 6.056-7.006 9.113-.527.675-1.058 1.348-1.533 2.057-.267.391-.504.81-.733 1.22-.14.277-.263.553-.37.836-.128.36-.275.85-.249 1.221.045.573.128 1.002.363 1.524.274.63.803 1.112 1.455 1.317.522.16.987.147 1.523.051.524-.09.983-.34 1.448-.59.76-.411 1.117-1.389.893-2.211a2.009 2.009 0 00-.708-1.029c.212-.319.432-.63.658-.936a372.02 372.02 0 003.743-4.973c1.26-1.637 2.518-3.281 3.775-4.926-.108.148-.217.29-.325.436 2.864-3.74 5.822-7.404 8.77-11.073a547.032 547.032 0 018.514-10.334c1.314-1.568 2.686-3.072 4.056-4.588 1.288-1.422 2.551-2.862 3.87-4.249 3.713-3.927 7.438-7.854 11.157-11.775 7.02-7.415 14.1-14.78 21.135-22.184.369-.392.74-.785 1.115-1.177.728-.765.753-1.992 0-2.757a1.95 1.95 0 00-1.383-.563 1.87 1.87 0 00-1.358.563zM277.534 3.046c-1.082.343-2.089.915-3.042 1.521-1.056.668-2.016 1.496-2.945 2.322-.87.784-1.687 1.612-2.506 2.438-.909.923-1.824 1.846-2.713 2.787-2.1 2.234-4.111 4.55-6.173 6.83-.858.949-1.72 1.903-2.585 2.852-.329.368-.657.744-.998 1.101-1.553 1.61-3.107 3.213-4.659 4.818a1815.198 1815.198 0 01-15.002 15.344c-2.261 2.285-4.614 4.475-6.838 6.796a3002.734 3002.734 0 01-4.53 4.737c-.405.42-.778.858-1.166 1.292-.856.954-1.72 1.91-2.577 2.864-2.19 2.437-4.336 4.919-6.527 7.37a624.448 624.448 0 00-7.457 8.476 105.23 105.23 0 00-2.15 2.591c-.388.477-.755.974-1.122 1.47-.18.242-.368.484-.542.731-.188.287-.374.56-.53.867-.199.394-.301.795-.405 1.215-.129.522-.077 1.05.2 1.516a1.995 1.995 0 001.715.972c.367.046.76.084 1.12-.037.426-.14.819-.313 1.187-.554.67-.44 1.288-.948 1.926-1.432a1.807 1.807 0 00.284-2.183 1.768 1.768 0 00-.353-.42l1.138-1.464c-.102.134-.206.274-.315.407 2.224-2.71 4.446-5.415 6.734-8.07 2.295-2.68 4.55-5.397 6.85-8.07 1.405-1.622 2.804-3.247 4.201-4.876 1.148-1.33 2.385-2.602 3.576-3.894 2.482-2.693 5.06-5.289 7.61-7.918a614.767 614.767 0 007.224-7.56c2.372-2.508 4.75-5.015 7.089-7.549 1.425-1.54 2.855-3.08 4.279-4.62.966-1.045 1.894-2.107 2.829-3.176 1.468-1.693 2.945-3.379 4.42-5.067 1.611-1.844 3.21-3.703 4.917-5.453 1.68-1.724 3.335-3.479 5.246-4.97a17.94 17.94 0 012.893-1.699c.104-.037.208-.072.315-.103.6-.192.98-.783.805-1.407A1.188 1.188 0 00277.842 3c-.102 0-.206.013-.308.046M234.194 77.5c-.064.083-.13.17-.196.253l.196-.254m68.144-71.225a1056.728 1056.728 0 00-28.432 23.745c-4.04 3.496-7.991 7.092-11.954 10.68-1.92 1.74-3.854 3.46-5.73 5.244-1.404 1.33-2.81 2.658-4.208 3.987-.625.59-1.262 1.168-1.856 1.784-2.21 2.278-4.42 4.564-6.637 6.843-.71.738-1.36 1.54-2.036 2.304a2248.638 2248.638 0 00-3.822 4.333c-1.734 1.95-3.313 4.031-4.95 6.065-.785.99-1.617 1.96-2.364 2.98-.935 1.257-1.862 2.515-2.798 3.78a211.057 211.057 0 00-3.016 4.166l-1.9 2.702c-.464.662-.98 1.283-1.444 1.952-.354.52-.567 1.11-.811 1.688-.104.36-.169.73-.195 1.11-.038.392-.051.783-.083 1.175-.13 1.823 1.9 3.203 3.577 2.715.954-.283 1.861-.565 2.757-1.007.594-.296 1.135-.7 1.69-1.06.81-.526 1.616-1.047 2.416-1.597.592-.411 1.038-.893 1.237-1.606a2.701 2.701 0 00-.27-2.067c-.454-.772-1.292-1.255-2.16-1.325a54.85 54.85 0 011.193-1.736c1.487-2.07 2.978-4.14 4.458-6.215 1.74-2.238 3.496-4.468 5.241-6.7.515-.662 1.076-1.285 1.623-1.92 1.282-1.483 2.566-2.972 3.848-4.454 1.663-1.926 3.415-3.75 5.168-5.599 1.012-1.07 2.023-2.142 3.036-3.209.728-.764 1.514-1.475 2.268-2.208 1.875-1.823 3.726-3.665 5.646-5.443 2.209-2.054 4.413-4.101 6.63-6.155 3.97-3.685 7.934-7.402 12.039-10.944 3.326-2.876 6.619-5.785 10-8.596 4.97-4.122 9.926-8.254 14.952-12.312.433-.346.645-1.02.645-1.552 0-.579-.232-1.144-.645-1.548a2.214 2.214 0 00-1.559-.648c-.632 0-1.084.263-1.554.648M323.329 1.791c-3.283 3.265-6.586 6.511-9.819 9.835-2.885 2.969-5.77 5.932-8.653 8.895l-7.597 7.81c-1.297 1.33-2.531 2.711-3.783 4.074-4.479 4.872-8.965 9.744-13.41 14.649-4.022 4.434-8.033 8.889-11.9 13.46-3.887 4.6-7.789 9.19-11.565 13.889-.83 1.028-1.658 2.057-2.45 3.111-.917 1.221-1.881 2.416-2.75 3.67-1.773 2.545-3.546 5.084-5.056 7.796-.7 1.273-.314 2.912.957 3.657.617.36 1.369.456 2.063.27.7-.192 1.19-.637 1.594-1.227 2.651-3.903 5.523-7.658 8.346-11.436 1.74-2.188 3.464-4.392 5.25-6.542 2.088-2.52 4.182-5.032 6.277-7.546a500.235 500.235 0 0111.72-13.524c4.46-4.961 8.95-9.89 13.456-14.814 1.534-1.685 3.031-3.408 4.619-5.046 2.204-2.263 4.401-4.532 6.606-6.794 3.212-3.31 6.425-6.62 9.637-9.924 3.4-3.51 6.876-6.942 10.338-10.388 1.055-1.053 1.055-2.82 0-3.875A2.732 2.732 0 00325.273 1c-.707 0-1.413.265-1.944.791M347.211 4.65c-8.433 8.823-16.828 17.69-25.129 26.643-3.65 3.934-7.3 7.867-10.939 11.808-3.676 3.991-7.405 7.945-11.017 11.994-3.683 4.147-7.39 8.275-11.003 12.48-4.18 4.872-8.378 9.745-12.273 14.861-.355.44-.704.885-1.04 1.343-.48.64-.741 1.467-.798 2.262-.104 1.414.48 2.894 1.782 3.552 1.369.69 3.032.426 4.367-.227 1.113-.542 2.13-1.207 3.16-1.891 1.093-.725 1.553-2.138.862-3.32a2.403 2.403 0 00-2.205-1.191c1.606-2.059 3.236-4.1 4.86-6.141.702-.885 1.45-1.73 2.174-2.596 1.234-1.472 2.461-2.952 3.694-4.425 3.48-4.159 7.097-8.197 10.653-12.284 1.368-1.564 2.782-3.082 4.175-4.618 2.225-2.456 4.444-4.91 6.669-7.359 3.792-4.178 7.623-8.319 11.433-12.472 2.942-3.21 5.934-6.374 8.906-9.553a2841.643 2841.643 0 0114.815-15.688c.845-.885.87-2.3 0-3.178a2.232 2.232 0 00-1.586-.65c-.571 0-1.14.213-1.56.65M315.182 83.511l-.172.23.172-.23m67.543-77.855c-.356.077-.706.14-1.055.23-.305.07-.614.25-.886.398-.57.313-1.08.754-1.571 1.183-.518.45-.997.941-1.488 1.415-.653.628-1.307 1.256-1.94 1.91-1.185 1.23-2.342 2.49-3.532 3.72-1.934 1.998-3.873 3.99-5.802 5.987-2.884 2.992-5.788 5.975-8.659 8.985-3.409 3.58-6.81 7.166-10.179 10.79a1572.77 1572.77 0 00-9.909 10.785c-6.015 6.595-12.164 13.077-18.38 19.48-2.814 2.896-5.522 5.886-8.226 8.883-1.268 1.402-2.464 2.869-3.667 4.328-.57.685-1.133 1.37-1.687 2.062-.42.52-.841 1.032-1.237 1.57-.174.224-.343.455-.51.685-.39.526-.614 1.114-.79 1.736-.374 1.3.227 2.728 1.398 3.413a3.08 3.08 0 002.354.3c.712-.192 1.493-.71 1.823-1.389.097-.188.188-.372.304-.549 1.082-1.336 2.1-2.74 3.105-4.133a225.57 225.57 0 012.813-3.797 275.157 275.157 0 018.434-9.99c3.175-3.592 6.317-7.217 9.448-10.855 6.067-7.044 12.082-14.126 18.212-21.113 5.815-6.628 11.746-13.147 17.727-19.627 1.727-1.87 3.448-3.748 5.174-5.617A134.75 134.75 0 00376.205 14c.879-.993 1.753-1.985 2.677-2.933.853-.882 1.687-1.793 2.639-2.577l.04-.028c.084.117.193.217.323.292a1.104 1.104 0 001.486-.384c.227-.365.401-.736.583-1.127.167-.358.214-.73 0-1.089a1.088 1.088 0 00-.955-.528c-.091 0-.182.01-.273.03"/><g><path d="M484.144 25.588l-.234.182c.126-.096.25-.19.372-.288l-.138.106zm-1.075 1.055a2.03 2.03 0 01-.108.086l.27-.206c-.054.04-.108.082-.162.12zM451.99 50.71c.071-.056.143-.114.215-.168a8.894 8.894 0 00-.216.168zm-1.233 1.18c.228-.174.452-.348.68-.528l-.68.528zm.59-.459l-.543.422c.198-.15.394-.304.586-.454l-.044.032zm-20.527 16.407c.186-.14.37-.28.554-.424l-.554.424zm.266-.205c-.036.03-.074.056-.11.086.08-.062.16-.126.242-.186l-.132.1zm19.161-15.124l-.3.234.3-.234zm-6.93-3.055c-.146.114-.294.228-.44.344.148-.118.294-.23.44-.344zm60.607-44.457a235.748 235.748 0 00-5.834 3.51c-1.264.78-2.584 1.513-3.804 2.369-2.752 1.93-5.523 3.834-8.212 5.854-2.65 1.995-5.279 4.02-7.949 5.995-2.81 2.072-5.62 4.143-8.373 6.292-5.047 3.953-9.981 8.047-15.003 12.032-2.423 1.83-4.862 3.638-7.296 5.466-.657.494-1.314.99-1.972 1.492-.063.048-.124.094-.183.142-.223.156-.434.337-.687.533a135.035 135.035 0 01-.878.676c-2.198 1.69-4.383 3.397-6.568 5.095.213-.168.426-.334.645-.502-2.63 2.007-5.26 3.995-7.885 6.002-2.584 1.975-5.208 3.912-7.677 6.034-2.417 2.084-4.653 4.355-6.904 6.606a344.906 344.906 0 00-6.897 7.076c-1.715 1.815-3.424 3.635-5.068 5.514a279.22 279.22 0 00-2.262 2.618c-.877 1.023-1.824 2.008-2.578 3.12-.787 1.157-.459 2.85.49 3.795 1.198 1.198 3.254 1.229 4.44 0 2.032-2.096 3.889-4.36 5.841-6.53 2.134-2.366 4.377-4.643 6.588-6.94 2.27-2.354 4.63-4.638 6.956-6.94 2.198-2.183 4.518-4.195 6.918-6.151.422-.351.863-.684 1.302-1.017 1.581-1.215 3.167-2.438 4.75-3.667a645.5 645.5 0 007.381-5.731c1.819-1.441 3.623-2.903 5.448-4.338.228-.135.439-.3.629-.492l.283-.22c.11-.083.22-.169.329-.254l-.274.215.376-.293c.086-.066.17-.132.256-.196-.03.022-.058.045-.088.066l.522-.402c-.03.023-.058.043-.086.066.178-.138.355-.277.533-.413a3.903 3.903 0 00.036-.027l.746-.576a2.654 2.654 0 00-.07.054l.615-.474c-.04.031-.08.06-.12.092.089-.067.176-.135.264-.2-.029.02-.057.042-.085.064a23.469 23.469 0 01-.035.028l.428-.328c2.043-1.556 4.1-3.1 6.093-4.717a765.99 765.99 0 006.499-5.332c2.14-1.77 4.26-3.546 6.375-5.34 1.937-1.635 3.957-3.171 5.957-4.726l-.124.1c1.3-.987 2.611-1.972 3.91-2.967a8.866 8.866 0 00-.183.143l.52-.403.054-.041a133.97 133.97 0 01.845-.65l-.06.045c.032-.024.065-.049.096-.075a.094.094 0 01.022-.013c-.007.001-.012.006-.018.011l.252-.196-.287.222-.521.399a603.08 603.08 0 011.538-1.184c-.045.034-.09.067-.132.104.085-.068.173-.135.259-.201-.037.026-.073.056-.11.084.101-.08.202-.157.303-.234l1.259-.969c1.563-1.203 3.142-2.394 4.715-3.59 1.572-1.195 3.23-2.302 4.842-3.446.747-.53 1.495-1.063 2.242-1.59.684-.482 1.438-.887 2.147-1.325 2.431-1.506 4.854-3.004 7.323-4.439 1.308-.759 1.76-2.49 1-3.789a2.811 2.811 0 00-3.804-.996zM519.09 11.63c-.034.026-.066.05-.1.078.072-.054.142-.108.212-.164l-.112.086m-76.883 65.852c-.076.094-.148.19-.222.288.072-.098.146-.194.222-.288m78.958-72.59a784.75 784.75 0 00-9.715 7.434c-.73.56-1.484 1.106-2.18 1.703-1.277 1.099-2.548 2.204-3.824 3.303-3.856 3.33-7.583 6.805-11.29 10.294-3.888 3.668-7.777 7.345-11.67 11.02-1.658 1.56-3.315 3.142-5.017 4.652-2.167 1.921-4.333 3.842-6.5 5.757-3.785 3.348-7.53 6.735-11.309 10.082-1.954 1.736-3.876 3.496-5.675 5.392a630.99 630.99 0 01-5.325 5.57c-1.051 1.086-2.116 2.178-3.083 3.336-1.124 1.35-2.174 2.759-3.247 4.149a644.898 644.898 0 00-4.632 6.043c-1.324 1.663-2.643 3.33-3.971 4.985-.66.816-1.31 1.638-1.968 2.46-.42.529-.825 1.075-1.231 1.614-.187.244-.367.489-.548.732-.271.379-.586.86-.684 1.311-.096.431-.142.86-.2 1.292 0 .468.123.913.355 1.317a2.613 2.613 0 003.572.931c.618-.36.953-.886 1.197-1.53l.005-.011c5.152-6.027 9.975-12.32 14.732-18.659 1.484-1.818 3.075-3.53 4.667-5.246 1.754-1.888 3.45-3.836 5.229-5.691 1.786-1.864 3.65-3.65 5.493-5.45a658.376 658.376 0 015.997-5.758c1.832-1.735 3.696-3.43 5.54-5.147 1.806-1.676 3.663-3.32 5.429-5.037 1.972-1.914 3.94-3.829 5.906-5.745 1.812-1.774 3.656-3.507 5.462-5.28 3.643-3.587 7.298-7.153 11.076-10.61a316.457 316.457 0 016.365-5.668c.767-.668 1.509-1.368 2.308-1.985 1.264-.984 2.528-1.96 3.784-2.936.98-.76 1.957-1.52 2.935-2.28l-.077.056.16-.12.233-.181-.14.11c1.264-.956 2.538-1.902 3.81-2.854.425-.323.747-.63.895-1.163a1.947 1.947 0 00-1.36-2.385 2.17 2.17 0 00-.56-.073c-.341 0-.694.08-.944.267M462.25 86.43c-.102.131-.206.261-.308.393l.308-.394M534.352 6.26a2544.848 2544.848 0 01-26.287 24.78c-4.204 3.896-8.42 7.785-12.612 11.7-1.713 1.599-3.465 3.158-5.134 4.808-1.014.994-2.067 1.97-3.04 3.003-1.08 1.129-2.165 2.266-3.243 3.395-3.639 3.824-7.155 7.76-10.794 11.584-3.524 3.704-6.854 7.6-10.134 11.515a171.002 171.002 0 00-5.237 6.545c-.873 1.162-1.758 2.31-2.58 3.505-.545.795-1.09 1.592-1.612 2.4a14.543 14.543 0 00-1.18 2.266c-.16.398-.25.751-.308 1.175a1.847 1.847 0 00-.058.95c.027.313.07.622.142.93.225 1.066 1.334 1.81 2.374 1.81 1.329 0 2.484-1.117 2.464-2.464l-.005-.125v-.004c.549-1.08 1.287-2.057 1.988-3.042.488-.687.983-1.374 1.47-2.067.719-1.01 1.49-1.982 2.233-2.97 1.617-2.066 3.25-4.11 4.916-6.138a368.557 368.557 0 014.955-5.859c3.383-3.935 6.976-7.676 10.423-11.552a406.757 406.757 0 015.314-5.86 269.675 269.675 0 015.77-6.027c1.804-1.835 3.71-3.58 5.565-5.364a1093.94 1093.94 0 016.333-6.04c8.036-7.612 16.09-15.204 24.12-22.823 2.43-2.297 4.844-4.607 7.264-6.925.866-.822.833-2.271 0-3.106a2.156 2.156 0 00-1.534-.634c-.567 0-1.136.215-1.573.634M558.24 4.657c-2.753 2.173-5.505 4.343-8.25 6.522-2.08 1.638-4.101 3.342-6.148 5.02-.872.714-1.75 1.417-2.616 2.146-.905.747-1.766 1.56-2.645 2.34-1.943 1.723-3.938 3.407-5.82 5.202-1.326 1.261-2.648 2.523-3.977 3.783-.718.684-1.455 1.347-2.149 2.056-1.931 1.956-3.907 3.875-5.788 5.877-1.777 1.9-3.618 3.745-5.318 5.71-1.79 2.06-3.612 4.096-5.338 6.215-1.835 2.25-3.663 4.499-5.453 6.781a532.352 532.352 0 00-5.53 7.192c-3.222 4.245-6.52 8.453-9.58 12.816a240.191 240.191 0 00-3.786 5.52c-.655.995-1.309 1.99-1.944 3.004-.776 1.221-1.54 2.568-1.835 3.998-.276 1.333.366 2.691 1.72 3.07a2.412 2.412 0 001.892-.247c.525-.308.798-.728 1.026-1.24l-.024.063c.616-1.392 1.558-2.66 2.4-3.922.647-.982 1.313-1.95 1.975-2.92 1.488-2.19 2.983-4.382 4.548-6.52 3.42-4.65 6.886-9.272 10.337-13.895.25-.34.5-.677.757-1.015-.135.177-.27.358-.41.533 1.39-1.81 2.787-3.61 4.161-5.428 3.215-4.023 6.383-8.096 9.845-11.906 3.6-3.96 7.198-7.932 11.035-11.659 1.905-1.859 3.773-3.79 5.748-5.57 2.4-2.166 4.8-4.332 7.2-6.49.615-.56 1.276-1.066 1.911-1.6l4.427-3.667c1.9-1.573 3.825-3.115 5.755-4.65 1.662-1.32 3.325-2.644 4.992-3.96.43-.344.642-1.051.642-1.579 0-.59-.232-1.163-.642-1.58A2.211 2.211 0 00559.799 4c-.64 0-1.077.275-1.559.657M587.843 4.054c-1.314.346-2.575 1.03-3.753 1.696-1.27.724-2.466 1.587-3.631 2.464-2.273 1.708-4.411 3.577-6.582 5.407-1.635 1.383-3.219 2.834-4.827 4.25-1.037.92-2.074 1.83-3.11 2.75-.413.36-.831.705-1.223 1.077a1128.367 1128.367 0 00-5.202 4.932c-1.378 1.306-2.634 2.753-3.934 4.142a175.857 175.857 0 00-3.465 3.768c-2.909 3.276-5.807 6.566-8.704 9.855-1.172 1.326-2.273 2.713-3.412 4.063-1.134 1.352-2.202 2.772-3.296 4.161-1.23 1.568-2.408 3.18-3.607 4.774-1.012 1.343-2.05 2.665-3.078 3.999.018-.023.036-.046.052-.07a1583.594 1583.594 0 00-3.972 4.716c-1.25 1.484-2.55 2.924-3.837 4.377-2.8 3.167-5.653 6.298-8.44 9.477-.638.723-1.27 1.46-1.894 2.196-.38.44-.76.89-1.132 1.336-.432.513-.864 1.044-1.192 1.625-.366.634-.67 1.383-.592 2.119 0 .334.084.64.25.929.246.41.645.709 1.102.838.992.269 1.964-.327 2.266-1.28l.01-.027a8.24 8.24 0 01.564-.868c1.265-1.576 2.622-3.082 3.952-4.609 1.469-1.682 2.962-3.346 4.455-5.017a344.152 344.152 0 003.549-4.019c1.293-1.49 2.614-2.955 3.881-4.472 1.088-1.3 2.17-2.599 3.259-3.898.83-.992 1.608-2.034 2.395-3.065 1.699-2.233 3.387-4.474 5.046-6.733l-.301.385c1.256-1.6 2.479-3.232 3.772-4.806 1.281-1.555 2.55-3.116 3.864-4.646a2979.18 2979.18 0 018.73-10.035c1.345-1.548 2.774-3.02 4.165-4.53.534-.582 1.05-1.216 1.622-1.76.683-.646 1.353-1.304 2.03-1.958 1.318-1.28 2.607-2.598 3.978-3.814 1.97-1.753 3.94-3.514 5.917-5.267 2.794-2.495 5.6-4.983 8.557-7.29 1.87-1.42 3.811-2.711 5.955-3.673.234-.091.469-.167.72-.229.896-.236 1.436-1.202 1.19-2.086-.209-.751-.91-1.238-1.664-1.238-.143 0-.288.018-.433.054M615.685.58c-8.09 6.515-16.172 13.037-24.198 19.637-3.602 2.959-7.217 5.91-10.792 8.914-3.909 3.28-7.798 6.567-11.687 9.88-1.695 1.447-3.352 2.945-5.03 4.43-1.695 1.506-3.288 3.128-4.913 4.716-1.582 1.537-3.023 3.228-4.514 4.856-.72.79-1.396 1.627-2.097 2.437-.6.708-1.211 1.41-1.81 2.116-3.157 3.738-6.293 7.487-9.353 11.314-2.703 3.377-5.495 6.696-8.19 10.08-2.036 2.552-4.12 5.081-5.816 7.879-.592.976-.223 2.302.746 2.875.478.283 1.064.36 1.601.212.553-.155.93-.502 1.242-.965a60.93 60.93 0 011.637-2.255c2.717-3.412 5.496-6.766 8.225-10.165a663.265 663.265 0 004.615-5.802 389.03 389.03 0 014.604-5.7 489.732 489.732 0 013.984-4.822c1.377-1.633 2.728-3.3 4.156-4.889 1.02-1.13 2.034-2.257 3.054-3.39.568-.629 1.19-1.215 1.792-1.813.962-.958 1.924-1.91 2.886-2.868.683-.67 1.428-1.288 2.137-1.923a446.284 446.284 0 019.886-8.627c3.354-2.842 6.688-5.699 10.08-8.49 3.576-2.945 7.132-5.929 10.728-8.85 4.417-3.576 8.83-7.16 13.241-10.74 2.174-1.764 4.354-3.52 6.535-5.275.382-.31.566-.92.566-1.39 0-.515-.204-1.022-.566-1.382a1.948 1.948 0 00-1.378-.58c-.561 0-.95.239-1.37.58M634.8 4.189c-7.354 7.726-14.727 15.43-22.087 23.157-3.705 3.894-7.411 7.789-11.122 11.683-1.212 1.273-2.385 2.578-3.579 3.87-1.409 1.541-2.844 3.058-4.196 4.646a596.123 596.123 0 00-8.763 10.43 1082.725 1082.725 0 00-9.063 11.241c-2.385 3.003-4.695 6.056-7.006 9.113-.527.675-1.058 1.348-1.533 2.057-.267.391-.504.81-.733 1.22-.14.277-.263.553-.37.836-.128.36-.275.85-.249 1.221.045.573.128 1.002.363 1.524.274.63.803 1.112 1.455 1.317.522.16.987.147 1.523.051.524-.09.983-.34 1.448-.59.76-.411 1.117-1.389.893-2.211a2.009 2.009 0 00-.708-1.029c.212-.319.432-.63.658-.936a372.02 372.02 0 003.743-4.973c1.26-1.637 2.518-3.281 3.775-4.926-.108.148-.217.29-.325.436 2.864-3.74 5.822-7.404 8.77-11.073a547.032 547.032 0 018.514-10.334c1.314-1.568 2.686-3.072 4.056-4.588 1.288-1.422 2.551-2.862 3.87-4.249 3.713-3.927 7.438-7.854 11.157-11.775 7.02-7.415 14.1-14.78 21.135-22.184.369-.392.74-.785 1.115-1.177.728-.765.753-1.992 0-2.757a1.95 1.95 0 00-1.383-.563 1.87 1.87 0 00-1.358.563zM675.534 3.046c-1.082.343-2.089.915-3.042 1.521-1.056.668-2.016 1.496-2.945 2.322-.87.784-1.687 1.612-2.506 2.438-.909.923-1.824 1.846-2.713 2.787-2.1 2.234-4.111 4.55-6.173 6.83-.858.949-1.72 1.903-2.585 2.852-.329.368-.657.744-.998 1.101-1.553 1.61-3.107 3.213-4.659 4.818a1815.198 1815.198 0 01-15.002 15.344c-2.261 2.285-4.614 4.475-6.838 6.796a3002.734 3002.734 0 01-4.53 4.737c-.405.42-.778.858-1.166 1.292-.856.954-1.72 1.91-2.577 2.864-2.19 2.437-4.336 4.919-6.527 7.37a624.448 624.448 0 00-7.457 8.476 105.23 105.23 0 00-2.15 2.591c-.388.477-.755.974-1.122 1.47-.18.242-.368.484-.542.731-.188.287-.374.56-.53.867-.199.394-.301.795-.405 1.215-.129.522-.077 1.05.2 1.516a1.995 1.995 0 001.715.972c.367.046.76.084 1.12-.037.426-.14.819-.313 1.187-.554.67-.44 1.288-.948 1.926-1.432a1.807 1.807 0 00.284-2.183 1.768 1.768 0 00-.353-.42l1.138-1.464c-.102.134-.206.274-.315.407 2.224-2.71 4.446-5.415 6.734-8.07 2.295-2.68 4.55-5.397 6.85-8.07 1.405-1.622 2.804-3.247 4.201-4.876 1.148-1.33 2.385-2.602 3.576-3.894 2.482-2.693 5.06-5.289 7.61-7.918a614.767 614.767 0 007.224-7.56c2.372-2.508 4.75-5.015 7.089-7.549 1.425-1.54 2.855-3.08 4.279-4.62.966-1.045 1.894-2.107 2.829-3.176 1.468-1.693 2.945-3.379 4.42-5.067 1.611-1.844 3.21-3.703 4.917-5.453 1.68-1.724 3.335-3.479 5.246-4.97a17.94 17.94 0 012.893-1.699c.104-.037.208-.072.315-.103.6-.192.98-.783.805-1.407A1.188 1.188 0 00675.842 3c-.102 0-.206.013-.308.046M632.194 77.5c-.064.083-.13.17-.196.253l.196-.254m68.144-71.225a1056.728 1056.728 0 00-28.432 23.745c-4.04 3.496-7.991 7.092-11.954 10.68-1.92 1.74-3.854 3.46-5.73 5.244-1.404 1.33-2.81 2.658-4.208 3.987-.625.59-1.262 1.168-1.856 1.784-2.21 2.278-4.42 4.564-6.637 6.843-.71.738-1.36 1.54-2.036 2.304a2248.638 2248.638 0 00-3.822 4.333c-1.734 1.95-3.313 4.031-4.95 6.065-.785.99-1.617 1.96-2.364 2.98-.935 1.257-1.862 2.515-2.798 3.78a211.057 211.057 0 00-3.016 4.166l-1.9 2.702c-.464.662-.98 1.283-1.444 1.952-.354.52-.567 1.11-.811 1.688-.104.36-.169.73-.195 1.11-.038.392-.051.783-.083 1.175-.13 1.823 1.9 3.203 3.577 2.715.954-.283 1.861-.565 2.757-1.007.594-.296 1.135-.7 1.69-1.06.81-.526 1.616-1.047 2.416-1.597.592-.411 1.038-.893 1.237-1.606a2.701 2.701 0 00-.27-2.067c-.454-.772-1.292-1.255-2.16-1.325a54.85 54.85 0 011.193-1.736c1.487-2.07 2.978-4.14 4.458-6.215 1.74-2.238 3.496-4.468 5.241-6.7.515-.662 1.076-1.285 1.623-1.92 1.282-1.483 2.566-2.972 3.848-4.454 1.663-1.926 3.415-3.75 5.168-5.599 1.012-1.07 2.023-2.142 3.036-3.209.728-.764 1.514-1.475 2.268-2.208 1.875-1.823 3.726-3.665 5.646-5.443 2.209-2.054 4.413-4.101 6.63-6.155 3.97-3.685 7.934-7.402 12.039-10.944 3.326-2.876 6.619-5.785 10-8.596 4.97-4.122 9.926-8.254 14.952-12.312.433-.346.645-1.02.645-1.552 0-.579-.232-1.144-.645-1.548a2.214 2.214 0 00-1.559-.648c-.632 0-1.084.263-1.554.648M721.329 1.791c-3.283 3.265-6.586 6.511-9.819 9.835-2.885 2.969-5.77 5.932-8.653 8.895l-7.597 7.81c-1.297 1.33-2.531 2.711-3.783 4.074-4.479 4.872-8.965 9.744-13.41 14.649-4.022 4.434-8.033 8.889-11.9 13.46-3.887 4.6-7.789 9.19-11.565 13.889-.83 1.028-1.658 2.057-2.45 3.111-.917 1.221-1.881 2.416-2.75 3.67-1.773 2.545-3.546 5.084-5.056 7.796-.7 1.273-.314 2.912.957 3.657.617.36 1.369.456 2.063.27.7-.192 1.19-.637 1.594-1.227 2.651-3.903 5.523-7.658 8.346-11.436 1.74-2.188 3.464-4.392 5.25-6.542 2.088-2.52 4.182-5.032 6.277-7.546a500.235 500.235 0 0111.72-13.524c4.46-4.961 8.95-9.89 13.456-14.814 1.534-1.685 3.031-3.408 4.619-5.046 2.204-2.263 4.401-4.532 6.606-6.794 3.212-3.31 6.425-6.62 9.637-9.924 3.4-3.51 6.876-6.942 10.338-10.388 1.055-1.053 1.055-2.82 0-3.875A2.732 2.732 0 00723.273 1c-.707 0-1.413.265-1.944.791M745.211 4.65c-8.433 8.823-16.828 17.69-25.129 26.643-3.65 3.934-7.3 7.867-10.939 11.808-3.676 3.991-7.405 7.945-11.017 11.994-3.683 4.147-7.39 8.275-11.003 12.48-4.18 4.872-8.378 9.745-12.273 14.861-.355.44-.704.885-1.04 1.343-.48.64-.741 1.467-.798 2.262-.104 1.414.48 2.894 1.782 3.552 1.369.69 3.032.426 4.367-.227 1.113-.542 2.13-1.207 3.16-1.891 1.093-.725 1.553-2.138.862-3.32a2.403 2.403 0 00-2.205-1.191c1.606-2.059 3.236-4.1 4.86-6.141.702-.885 1.45-1.73 2.174-2.596 1.234-1.472 2.461-2.952 3.694-4.425 3.48-4.159 7.097-8.197 10.653-12.284 1.368-1.564 2.782-3.082 4.175-4.618 2.225-2.456 4.444-4.91 6.669-7.359 3.792-4.178 7.623-8.319 11.433-12.472 2.942-3.21 5.934-6.374 8.906-9.553a2841.643 2841.643 0 0114.815-15.688c.845-.885.87-2.3 0-3.178a2.232 2.232 0 00-1.586-.65c-.571 0-1.14.213-1.56.65M713.182 83.511l-.172.23.172-.23m67.543-77.855c-.356.077-.706.14-1.055.23-.305.07-.614.25-.886.398-.57.313-1.08.754-1.571 1.183-.518.45-.997.941-1.488 1.415-.653.628-1.307 1.256-1.94 1.91-1.185 1.23-2.342 2.49-3.532 3.72-1.934 1.998-3.873 3.99-5.802 5.987-2.884 2.992-5.788 5.975-8.659 8.985-3.409 3.58-6.81 7.166-10.179 10.79a1572.77 1572.77 0 00-9.909 10.785c-6.015 6.595-12.164 13.077-18.38 19.48-2.814 2.896-5.522 5.886-8.226 8.883-1.268 1.402-2.464 2.869-3.667 4.328-.57.685-1.133 1.37-1.687 2.062-.42.52-.841 1.032-1.237 1.57-.174.224-.343.455-.51.685-.39.526-.614 1.114-.79 1.736-.374 1.3.227 2.728 1.398 3.413a3.08 3.08 0 002.354.3c.712-.192 1.493-.71 1.823-1.389.097-.188.188-.372.304-.549 1.082-1.336 2.1-2.74 3.105-4.133a225.57 225.57 0 012.813-3.797 275.157 275.157 0 018.434-9.99c3.175-3.592 6.317-7.217 9.448-10.855 6.067-7.044 12.082-14.126 18.212-21.113 5.815-6.628 11.746-13.147 17.727-19.627 1.727-1.87 3.448-3.748 5.174-5.617A134.75 134.75 0 00774.205 14c.879-.993 1.753-1.985 2.677-2.933.853-.882 1.687-1.793 2.639-2.577l.04-.028c.084.117.193.217.323.292a1.104 1.104 0 001.486-.384c.227-.365.401-.736.583-1.127.167-.358.214-.73 0-1.089a1.088 1.088 0 00-.955-.528c-.091 0-.182.01-.273.03"/></g><g><path d="M882.144 25.588l-.234.182c.126-.096.25-.19.372-.288l-.138.106zm-1.075 1.055a2.03 2.03 0 01-.108.086l.27-.206c-.054.04-.108.082-.162.12zM849.99 50.71c.071-.056.143-.114.215-.168a8.894 8.894 0 00-.216.168zm-1.233 1.18c.228-.174.452-.348.68-.528l-.68.528zm.59-.459l-.543.422c.198-.15.394-.304.586-.454l-.044.032zm-20.527 16.407c.186-.14.37-.28.554-.424l-.554.424zm.266-.205c-.036.03-.074.056-.11.086.08-.062.16-.126.242-.186l-.132.1zm19.161-15.124l-.3.234.3-.234zm-6.93-3.055c-.146.114-.294.228-.44.344.148-.118.294-.23.44-.344zm60.607-44.457a235.748 235.748 0 00-5.834 3.51c-1.264.78-2.584 1.513-3.804 2.369-2.752 1.93-5.523 3.834-8.212 5.854-2.65 1.995-5.279 4.02-7.949 5.995-2.81 2.072-5.62 4.143-8.373 6.292-5.047 3.953-9.981 8.047-15.003 12.032-2.423 1.83-4.862 3.638-7.296 5.466-.657.494-1.314.99-1.972 1.492-.063.048-.124.094-.183.142-.223.156-.434.337-.687.533a135.035 135.035 0 01-.878.676c-2.198 1.69-4.383 3.397-6.568 5.095.213-.168.426-.334.645-.502-2.63 2.007-5.26 3.995-7.885 6.002-2.584 1.975-5.208 3.912-7.677 6.034-2.417 2.084-4.653 4.355-6.904 6.606a344.906 344.906 0 00-6.897 7.076c-1.715 1.815-3.424 3.635-5.068 5.514a279.22 279.22 0 00-2.262 2.618c-.877 1.023-1.824 2.008-2.578 3.12-.787 1.157-.459 2.85.49 3.795 1.198 1.198 3.254 1.229 4.44 0 2.032-2.096 3.889-4.36 5.841-6.53 2.134-2.366 4.377-4.643 6.588-6.94 2.27-2.354 4.63-4.638 6.956-6.94 2.198-2.183 4.518-4.195 6.918-6.151.422-.351.863-.684 1.302-1.017 1.581-1.215 3.167-2.438 4.75-3.667a645.5 645.5 0 007.381-5.731c1.819-1.441 3.623-2.903 5.448-4.338.228-.135.439-.3.629-.492l.283-.22c.11-.083.22-.169.329-.254l-.274.215.376-.293c.086-.066.17-.132.256-.196-.03.022-.058.045-.088.066l.522-.402c-.03.023-.058.043-.086.066.178-.138.355-.277.533-.413a3.903 3.903 0 00.036-.027l.746-.576a2.654 2.654 0 00-.07.054l.615-.474c-.04.031-.08.06-.12.092.089-.067.176-.135.264-.2-.029.02-.057.042-.085.064a23.469 23.469 0 01-.035.028l.428-.328c2.043-1.556 4.1-3.1 6.093-4.717a765.99 765.99 0 006.499-5.332c2.14-1.77 4.26-3.546 6.375-5.34 1.937-1.635 3.957-3.171 5.957-4.726l-.124.1c1.3-.987 2.611-1.972 3.91-2.967a8.866 8.866 0 00-.183.143l.52-.403.054-.041a133.97 133.97 0 01.845-.65l-.06.045c.032-.024.065-.049.096-.075a.094.094 0 01.022-.013c-.007.001-.012.006-.018.011l.252-.196-.287.222-.521.399a603.08 603.08 0 011.538-1.184c-.045.034-.09.067-.132.104.085-.068.173-.135.259-.201-.037.026-.073.056-.11.084.101-.08.202-.157.303-.234l1.259-.969c1.563-1.203 3.142-2.394 4.715-3.59 1.572-1.195 3.23-2.302 4.842-3.446.747-.53 1.495-1.063 2.242-1.59.684-.482 1.438-.887 2.147-1.325 2.431-1.506 4.854-3.004 7.323-4.439 1.308-.759 1.76-2.49 1-3.789a2.811 2.811 0 00-3.804-.996zM917.09 11.63c-.034.026-.066.05-.1.078.072-.054.142-.108.212-.164l-.112.086m-76.883 65.852c-.076.094-.148.19-.222.288.072-.098.146-.194.222-.288m78.958-72.59a784.75 784.75 0 00-9.715 7.434c-.73.56-1.484 1.106-2.18 1.703-1.277 1.099-2.548 2.204-3.824 3.303-3.856 3.33-7.583 6.805-11.29 10.294-3.888 3.668-7.777 7.345-11.67 11.02-1.658 1.56-3.315 3.142-5.017 4.652-2.167 1.921-4.333 3.842-6.5 5.757-3.785 3.348-7.53 6.735-11.309 10.082-1.954 1.736-3.876 3.496-5.675 5.392a630.99 630.99 0 01-5.325 5.57c-1.051 1.086-2.116 2.178-3.083 3.336-1.124 1.35-2.174 2.759-3.247 4.149a644.898 644.898 0 00-4.632 6.043c-1.324 1.663-2.643 3.33-3.971 4.985-.66.816-1.31 1.638-1.968 2.46-.42.529-.825 1.075-1.231 1.614-.187.244-.367.489-.548.732-.271.379-.586.86-.684 1.311-.096.431-.142.86-.2 1.292 0 .468.123.913.355 1.317a2.613 2.613 0 003.572.931c.618-.36.953-.886 1.197-1.53l.005-.011c5.152-6.027 9.975-12.32 14.732-18.659 1.484-1.818 3.075-3.53 4.667-5.246 1.754-1.888 3.45-3.836 5.229-5.691 1.786-1.864 3.65-3.65 5.493-5.45a658.376 658.376 0 015.997-5.758c1.832-1.735 3.696-3.43 5.54-5.147 1.806-1.676 3.663-3.32 5.429-5.037 1.972-1.914 3.94-3.829 5.906-5.745 1.812-1.774 3.656-3.507 5.462-5.28 3.643-3.587 7.298-7.153 11.076-10.61a316.457 316.457 0 016.365-5.668c.767-.668 1.509-1.368 2.308-1.985 1.264-.984 2.528-1.96 3.784-2.936.98-.76 1.957-1.52 2.935-2.28l-.077.056.16-.12.233-.181-.14.11c1.264-.956 2.538-1.902 3.81-2.854.425-.323.747-.63.895-1.163a1.947 1.947 0 00-1.36-2.385 2.17 2.17 0 00-.56-.073c-.341 0-.694.08-.944.267M860.25 86.43c-.102.131-.206.261-.308.393l.308-.394M932.352 6.26a2544.848 2544.848 0 01-26.287 24.78c-4.204 3.896-8.42 7.785-12.612 11.7-1.713 1.599-3.465 3.158-5.134 4.808-1.014.994-2.067 1.97-3.04 3.003-1.08 1.129-2.165 2.266-3.243 3.395-3.639 3.824-7.155 7.76-10.794 11.584-3.524 3.704-6.854 7.6-10.134 11.515a171.002 171.002 0 00-5.237 6.545c-.873 1.162-1.758 2.31-2.58 3.505-.545.795-1.09 1.592-1.612 2.4a14.543 14.543 0 00-1.18 2.266c-.16.398-.25.751-.308 1.175a1.847 1.847 0 00-.058.95c.027.313.07.622.142.93.225 1.066 1.334 1.81 2.374 1.81 1.329 0 2.484-1.117 2.464-2.464l-.005-.125v-.004c.549-1.08 1.287-2.057 1.988-3.042.488-.687.983-1.374 1.47-2.067.719-1.01 1.49-1.982 2.233-2.97 1.617-2.066 3.25-4.11 4.916-6.138a368.557 368.557 0 014.955-5.859c3.383-3.935 6.976-7.676 10.423-11.552a406.757 406.757 0 015.314-5.86 269.675 269.675 0 015.77-6.027c1.804-1.835 3.71-3.58 5.565-5.364a1093.94 1093.94 0 016.333-6.04c8.036-7.612 16.09-15.204 24.12-22.823 2.43-2.297 4.844-4.607 7.264-6.925.866-.822.833-2.271 0-3.106a2.156 2.156 0 00-1.534-.634c-.567 0-1.136.215-1.573.634M956.24 4.657c-2.753 2.173-5.505 4.343-8.25 6.522-2.08 1.638-4.101 3.342-6.148 5.02-.872.714-1.75 1.417-2.616 2.146-.905.747-1.766 1.56-2.645 2.34-1.943 1.723-3.938 3.407-5.82 5.202-1.326 1.261-2.648 2.523-3.977 3.783-.718.684-1.455 1.347-2.149 2.056-1.931 1.956-3.907 3.875-5.788 5.877-1.777 1.9-3.618 3.745-5.318 5.71-1.79 2.06-3.612 4.096-5.338 6.215-1.835 2.25-3.663 4.499-5.453 6.781a532.352 532.352 0 00-5.53 7.192c-3.222 4.245-6.52 8.453-9.58 12.816a240.191 240.191 0 00-3.786 5.52c-.655.995-1.309 1.99-1.944 3.004-.776 1.221-1.54 2.568-1.835 3.998-.276 1.333.366 2.691 1.72 3.07a2.412 2.412 0 001.892-.247c.525-.308.798-.728 1.026-1.24l-.024.063c.616-1.392 1.558-2.66 2.4-3.922.647-.982 1.313-1.95 1.975-2.92 1.488-2.19 2.983-4.382 4.548-6.52 3.42-4.65 6.886-9.272 10.337-13.895.25-.34.5-.677.757-1.015-.135.177-.27.358-.41.533 1.39-1.81 2.787-3.61 4.161-5.428 3.215-4.023 6.383-8.096 9.845-11.906 3.6-3.96 7.198-7.932 11.035-11.659 1.905-1.859 3.773-3.79 5.748-5.57 2.4-2.166 4.8-4.332 7.2-6.49.615-.56 1.276-1.066 1.911-1.6l4.427-3.667c1.9-1.573 3.825-3.115 5.755-4.65 1.662-1.32 3.325-2.644 4.992-3.96.43-.344.642-1.051.642-1.579 0-.59-.232-1.163-.642-1.58A2.211 2.211 0 00957.799 4c-.64 0-1.077.275-1.559.657M985.843 4.054c-1.314.346-2.575 1.03-3.753 1.696-1.27.724-2.466 1.587-3.631 2.464-2.273 1.708-4.411 3.577-6.582 5.407-1.635 1.383-3.219 2.834-4.827 4.25-1.037.92-2.074 1.83-3.11 2.75-.413.36-.831.705-1.223 1.077a1128.367 1128.367 0 00-5.202 4.932c-1.378 1.306-2.634 2.753-3.934 4.142a175.857 175.857 0 00-3.465 3.768c-2.909 3.276-5.807 6.566-8.704 9.855-1.172 1.326-2.273 2.713-3.412 4.063-1.134 1.352-2.202 2.772-3.296 4.161-1.23 1.568-2.408 3.18-3.607 4.774-1.012 1.343-2.05 2.665-3.078 3.999.018-.023.036-.046.052-.07a1583.594 1583.594 0 00-3.972 4.716c-1.25 1.484-2.55 2.924-3.837 4.377-2.8 3.167-5.653 6.298-8.44 9.477-.638.723-1.27 1.46-1.894 2.196-.38.44-.76.89-1.132 1.336-.432.513-.864 1.044-1.192 1.625-.366.634-.67 1.383-.592 2.119 0 .334.084.64.25.929.246.41.645.709 1.102.838.992.269 1.964-.327 2.266-1.28l.01-.027a8.24 8.24 0 01.564-.868c1.265-1.576 2.622-3.082 3.952-4.609 1.469-1.682 2.962-3.346 4.455-5.017a344.152 344.152 0 003.549-4.019c1.293-1.49 2.614-2.955 3.881-4.472 1.088-1.3 2.17-2.599 3.259-3.898.83-.992 1.608-2.034 2.395-3.065 1.699-2.233 3.387-4.474 5.046-6.733l-.301.385c1.256-1.6 2.479-3.232 3.772-4.806 1.281-1.555 2.55-3.116 3.864-4.646a2979.18 2979.18 0 018.73-10.035c1.345-1.548 2.774-3.02 4.165-4.53.534-.582 1.05-1.216 1.622-1.76.683-.646 1.353-1.304 2.03-1.958 1.318-1.28 2.607-2.598 3.978-3.814 1.97-1.753 3.94-3.514 5.917-5.267 2.794-2.495 5.6-4.983 8.557-7.29 1.87-1.42 3.811-2.711 5.955-3.673.234-.091.469-.167.72-.229.896-.236 1.436-1.202 1.19-2.086-.209-.751-.91-1.238-1.664-1.238-.143 0-.288.018-.433.054M1013.685.58c-8.09 6.515-16.172 13.037-24.198 19.637-3.602 2.959-7.217 5.91-10.792 8.914-3.909 3.28-7.798 6.567-11.687 9.88-1.695 1.447-3.352 2.945-5.03 4.43-1.695 1.506-3.288 3.128-4.913 4.716-1.582 1.537-3.023 3.228-4.514 4.856-.72.79-1.396 1.627-2.097 2.437-.6.708-1.211 1.41-1.81 2.116-3.157 3.738-6.293 7.487-9.353 11.314-2.703 3.377-5.495 6.696-8.19 10.08-2.036 2.552-4.12 5.081-5.816 7.879-.592.976-.223 2.302.746 2.875.478.283 1.064.36 1.601.212.553-.155.93-.502 1.242-.965a60.93 60.93 0 011.637-2.255c2.717-3.412 5.496-6.766 8.225-10.165a663.265 663.265 0 004.615-5.802 389.03 389.03 0 014.604-5.7 489.732 489.732 0 013.984-4.822c1.377-1.633 2.728-3.3 4.156-4.889 1.02-1.13 2.034-2.257 3.054-3.39.568-.629 1.19-1.215 1.792-1.813.962-.958 1.924-1.91 2.886-2.868.683-.67 1.428-1.288 2.137-1.923a446.284 446.284 0 019.886-8.627c3.354-2.842 6.688-5.699 10.08-8.49 3.576-2.945 7.132-5.929 10.728-8.85 4.417-3.576 8.83-7.16 13.241-10.74 2.174-1.764 4.354-3.52 6.535-5.275.382-.31.566-.92.566-1.39 0-.515-.204-1.022-.566-1.382a1.948 1.948 0 00-1.378-.58c-.561 0-.95.239-1.37.58M1032.8 4.189c-7.354 7.726-14.727 15.43-22.087 23.157-3.705 3.894-7.411 7.789-11.122 11.683-1.212 1.273-2.385 2.578-3.579 3.87-1.409 1.541-2.844 3.058-4.196 4.646a596.123 596.123 0 00-8.763 10.43 1082.725 1082.725 0 00-9.063 11.241c-2.385 3.003-4.695 6.056-7.006 9.113-.527.675-1.058 1.348-1.533 2.057-.267.391-.504.81-.733 1.22-.14.277-.263.553-.37.836-.128.36-.275.85-.249 1.221.045.573.128 1.002.363 1.524.274.63.803 1.112 1.455 1.317.522.16.987.147 1.523.051.524-.09.983-.34 1.448-.59.76-.411 1.117-1.389.893-2.211a2.009 2.009 0 00-.708-1.029c.212-.319.432-.63.658-.936a372.02 372.02 0 003.743-4.973c1.26-1.637 2.518-3.281 3.775-4.926-.108.148-.217.29-.325.436 2.864-3.74 5.822-7.404 8.77-11.073a547.032 547.032 0 018.514-10.334c1.314-1.568 2.686-3.072 4.056-4.588 1.288-1.422 2.551-2.862 3.87-4.249 3.713-3.927 7.438-7.854 11.157-11.775 7.02-7.415 14.1-14.78 21.135-22.184.369-.392.74-.785 1.115-1.177.728-.765.753-1.992 0-2.757a1.95 1.95 0 00-1.383-.563 1.87 1.87 0 00-1.358.563zM1073.534 3.046c-1.082.343-2.089.915-3.042 1.521-1.056.668-2.016 1.496-2.945 2.322-.87.784-1.687 1.612-2.506 2.438-.909.923-1.824 1.846-2.713 2.787-2.1 2.234-4.111 4.55-6.173 6.83-.858.949-1.72 1.903-2.585 2.852-.329.368-.657.744-.998 1.101-1.553 1.61-3.107 3.213-4.659 4.818a1815.198 1815.198 0 01-15.002 15.344c-2.261 2.285-4.614 4.475-6.838 6.796a3002.734 3002.734 0 01-4.53 4.737c-.405.42-.778.858-1.166 1.292-.856.954-1.72 1.91-2.577 2.864-2.19 2.437-4.336 4.919-6.527 7.37a624.448 624.448 0 00-7.457 8.476 105.23 105.23 0 00-2.15 2.591c-.388.477-.755.974-1.122 1.47-.18.242-.368.484-.542.731-.188.287-.374.56-.53.867-.199.394-.301.795-.405 1.215-.129.522-.077 1.05.2 1.516a1.995 1.995 0 001.715.972c.367.046.76.084 1.12-.037.426-.14.819-.313 1.187-.554.67-.44 1.288-.948 1.926-1.432a1.807 1.807 0 00.284-2.183 1.768 1.768 0 00-.353-.42l1.138-1.464c-.102.134-.206.274-.315.407 2.224-2.71 4.446-5.415 6.734-8.07 2.295-2.68 4.55-5.397 6.85-8.07 1.405-1.622 2.804-3.247 4.201-4.876 1.148-1.33 2.385-2.602 3.576-3.894 2.482-2.693 5.06-5.289 7.61-7.918a614.767 614.767 0 007.224-7.56c2.372-2.508 4.75-5.015 7.089-7.549 1.425-1.54 2.855-3.08 4.279-4.62.966-1.045 1.894-2.107 2.829-3.176 1.468-1.693 2.945-3.379 4.42-5.067 1.611-1.844 3.21-3.703 4.917-5.453 1.68-1.724 3.335-3.479 5.246-4.97a17.94 17.94 0 012.893-1.699c.104-.037.208-.072.315-.103.6-.192.98-.783.805-1.407a1.188 1.188 0 00-1.115-.841c-.102 0-.206.013-.308.046M1030.194 77.5c-.064.083-.13.17-.196.253l.196-.254m68.144-71.225a1056.728 1056.728 0 00-28.432 23.745c-4.04 3.496-7.991 7.092-11.954 10.68-1.92 1.74-3.854 3.46-5.73 5.244-1.404 1.33-2.81 2.658-4.208 3.987-.625.59-1.262 1.168-1.856 1.784-2.21 2.278-4.42 4.564-6.637 6.843-.71.738-1.36 1.54-2.036 2.304a2248.638 2248.638 0 00-3.822 4.333c-1.734 1.95-3.313 4.031-4.95 6.065-.785.99-1.617 1.96-2.364 2.98-.935 1.257-1.862 2.515-2.798 3.78a211.057 211.057 0 00-3.016 4.166l-1.9 2.702c-.464.662-.98 1.283-1.444 1.952-.354.52-.567 1.11-.811 1.688-.104.36-.169.73-.195 1.11-.038.392-.051.783-.083 1.175-.13 1.823 1.9 3.203 3.577 2.715.954-.283 1.861-.565 2.757-1.007.594-.296 1.135-.7 1.69-1.06.81-.526 1.616-1.047 2.416-1.597.592-.411 1.038-.893 1.237-1.606a2.701 2.701 0 00-.27-2.067c-.454-.772-1.292-1.255-2.16-1.325a54.85 54.85 0 011.193-1.736c1.487-2.07 2.978-4.14 4.458-6.215 1.74-2.238 3.496-4.468 5.241-6.7.515-.662 1.076-1.285 1.623-1.92 1.282-1.483 2.566-2.972 3.848-4.454 1.663-1.926 3.415-3.75 5.168-5.599 1.012-1.07 2.023-2.142 3.036-3.209.728-.764 1.514-1.475 2.268-2.208 1.875-1.823 3.726-3.665 5.646-5.443 2.209-2.054 4.413-4.101 6.63-6.155 3.97-3.685 7.934-7.402 12.039-10.944 3.326-2.876 6.619-5.785 10-8.596 4.97-4.122 9.926-8.254 14.952-12.312.433-.346.645-1.02.645-1.552 0-.579-.232-1.144-.645-1.548a2.214 2.214 0 00-1.559-.648c-.632 0-1.084.263-1.554.648M1119.329 1.791c-3.283 3.265-6.586 6.511-9.819 9.835-2.885 2.969-5.77 5.932-8.653 8.895l-7.597 7.81c-1.297 1.33-2.531 2.711-3.783 4.074-4.479 4.872-8.965 9.744-13.41 14.649-4.022 4.434-8.033 8.889-11.9 13.46-3.887 4.6-7.789 9.19-11.565 13.889-.83 1.028-1.658 2.057-2.45 3.111-.917 1.221-1.881 2.416-2.75 3.67-1.773 2.545-3.546 5.084-5.056 7.796-.7 1.273-.314 2.912.957 3.657.617.36 1.369.456 2.063.27.7-.192 1.19-.637 1.594-1.227 2.651-3.903 5.523-7.658 8.346-11.436 1.74-2.188 3.464-4.392 5.25-6.542 2.088-2.52 4.182-5.032 6.277-7.546a500.235 500.235 0 0111.72-13.524c4.46-4.961 8.95-9.89 13.456-14.814 1.534-1.685 3.031-3.408 4.619-5.046 2.204-2.263 4.401-4.532 6.606-6.794 3.212-3.31 6.425-6.62 9.637-9.924 3.4-3.51 6.876-6.942 10.338-10.388 1.055-1.053 1.055-2.82 0-3.875a2.732 2.732 0 00-1.936-.791c-.707 0-1.413.265-1.944.791M1143.211 4.65c-8.433 8.823-16.828 17.69-25.129 26.643-3.65 3.934-7.3 7.867-10.939 11.808-3.676 3.991-7.405 7.945-11.017 11.994-3.683 4.147-7.39 8.275-11.003 12.48-4.18 4.872-8.378 9.745-12.273 14.861-.355.44-.704.885-1.04 1.343-.48.64-.741 1.467-.798 2.262-.104 1.414.48 2.894 1.782 3.552 1.369.69 3.032.426 4.367-.227 1.113-.542 2.13-1.207 3.16-1.891 1.093-.725 1.553-2.138.862-3.32a2.403 2.403 0 00-2.205-1.191c1.606-2.059 3.236-4.1 4.86-6.141.702-.885 1.45-1.73 2.174-2.596 1.234-1.472 2.461-2.952 3.694-4.425 3.48-4.159 7.097-8.197 10.653-12.284 1.368-1.564 2.782-3.082 4.175-4.618 2.225-2.456 4.444-4.91 6.669-7.359 3.792-4.178 7.623-8.319 11.433-12.472 2.942-3.21 5.934-6.374 8.906-9.553a2841.643 2841.643 0 0114.815-15.688c.845-.885.87-2.3 0-3.178a2.232 2.232 0 00-1.586-.65c-.571 0-1.14.213-1.56.65M1111.182 83.511l-.172.23.172-.23m67.543-77.855c-.356.077-.706.14-1.055.23-.305.07-.614.25-.886.398-.57.313-1.08.754-1.571 1.183-.518.45-.997.941-1.488 1.415-.653.628-1.307 1.256-1.94 1.91-1.185 1.23-2.342 2.49-3.532 3.72-1.934 1.998-3.873 3.99-5.802 5.987-2.884 2.992-5.788 5.975-8.659 8.985-3.409 3.58-6.81 7.166-10.179 10.79a1572.77 1572.77 0 00-9.909 10.785c-6.015 6.595-12.164 13.077-18.38 19.48-2.814 2.896-5.522 5.886-8.226 8.883-1.268 1.402-2.464 2.869-3.667 4.328-.57.685-1.133 1.37-1.687 2.062-.42.52-.841 1.032-1.237 1.57-.174.224-.343.455-.51.685-.39.526-.614 1.114-.79 1.736-.374 1.3.227 2.728 1.398 3.413a3.08 3.08 0 002.354.3c.712-.192 1.493-.71 1.823-1.389.097-.188.188-.372.304-.549 1.082-1.336 2.1-2.74 3.105-4.133a225.57 225.57 0 012.813-3.797 275.157 275.157 0 018.434-9.99c3.175-3.592 6.317-7.217 9.448-10.855 6.067-7.044 12.082-14.126 18.212-21.113 5.815-6.628 11.746-13.147 17.727-19.627 1.727-1.87 3.448-3.748 5.174-5.617a134.75 134.75 0 002.206-2.446c.879-.993 1.753-1.985 2.677-2.933.853-.882 1.687-1.793 2.639-2.577l.04-.028c.084.117.193.217.323.292a1.104 1.104 0 001.486-.384c.227-.365.401-.736.583-1.127.167-.358.214-.73 0-1.089a1.088 1.088 0 00-.955-.528c-.091 0-.182.01-.273.03"/></g></g></svg>