<svg xmlns="http://www.w3.org/2000/svg" width="115" height="116">
    <g fill="none" fill-rule="evenodd">
        <path fill="#FFF" d="m51.867 1.362.018-.001.389-.034.011-.001a81.513 81.513 0 0 1 3.652-.206 75.483 75.483 0 0 1 .877-.016l.601-.003c.117 0 .234-.001.354-.004l.076-.001c.135-.003.268-.003.401-.003l.145.003a.555.555 0 0 0 .054.004l.58.015.037.002.215.007.111.004h.009a.839.839 0 0 0 .038.003l.278.01.037.002.021.002c.17.007.338.015.507.024h.01l.01.001c.399.023.755.044 1.09.066h.008c1.28.1 2.504.225 3.64.37a64.75 64.75 0 0 1 4.447.786l.173.039.17.038.048.01a61.58 61.58 0 0 1 4.5 1.226c1.67.524 3.349 1.14 4.99 1.83a50.43 50.43 0 0 1 2.004.895c.261.115.539.248.848.406l.015.007.136.066.397.196.03.015c.099.05.185.092.236.116 3.06 1.554 6.067 3.461 8.942 5.668a60.147 60.147 0 0 1 5.402 4.765 59.131 59.131 0 0 1 4.83 5.484 59 59 0 0 1 3.934 5.84 55.13 55.13 0 0 1 3.399 6.753c.496 1.18.982 2.448 1.529 3.99a.58.58 0 0 0 .028.072c.206.599.418 1.257.629 1.957.225.712.423 1.424.653 2.276a1 1 0 0 0 .06.135c.029.081.056.186.083.32l.016.019.016.073.016.105c.078.288.134.53.198.809l.002.01.005.02.004.017.006.028v.013l.007.025.006.012.007.033.008.032.007.039v.014l.009.018.005.022.002.014c.11.527.218 1.088.342 1.765.005.072.02.165.046.285v.009l.01.07.012.068.006.035.006.036.004.03.007.04.016.099.009.058.008.047.009.06.01.063.007.04.03.192.003.022.012.082c.03.21.066.443.1.675.147 1.144.276 2.316.384 3.483.002.047.006.08.015.107.086.964.15 2.026.193 3.156a66.418 66.418 0 0 1 .014.666c-.002.014-.002.027-.002.04.002.553-.012 1.332-.037 2.316a55.498 55.498 0 0 1-.146 2.421c-.035.24-.067.537-.095.885l-.001.013-.001.012v.008l-.001.008-.001.01-.001.008-.001.012-.006.065-.037.395c-.045.401-.095.83-.177 1.527l-.002.012-.002.015c-.01.066-.017.13-.026.198l-.015.105-.025.164a.503.503 0 0 0-.006.082l-.01.071-.002.02-.014.109-.01.066-.01.075v.028l-.04.287-.01.074-.008.065v.042l-.045.298-.014.09-.014.09-.012.078-.005.028-.006.037-.011.08-.003.025-.01.064-.01.077a52.69 52.69 0 0 1-.348 1.89c-.077.35-.173.78-.323 1.438l-.008.038-.01.043-.008.028-.002.013-.003.018c-.111.44-.21.823-.295 1.136l-.008.03-.006.021-.003.01-.005.021-.01.04-.003.01-.006.022-.005.018-.003.009-.004.016-.05.182a56.496 56.496 0 0 1-2.14 6.495 2.817 2.817 0 0 0-.063.15l-.004.012-.006.014-.004.01-.004.011-.003.008-.004.01-.003.008-.004.01-.005.012-.028.072c-.091.238-.201.505-.334.815l-.014.03-.007.017-.003.007a57.66 57.66 0 0 1-3.06 6.153 56.543 56.543 0 0 1-3.4 5.246.362.362 0 0 0-.064.09c-.226.304-.486.649-.793 1.055-1.428 1.836-3 3.63-4.673 5.332a59.158 59.158 0 0 1-5.586 4.946 59.28 59.28 0 0 1-5.903 3.985 54.987 54.987 0 0 1-6.68 3.367 57.25 57.25 0 0 1-6.918 2.398 56.837 56.837 0 0 1-7.437 1.535 59.782 59.782 0 0 1-7.693.504h-.09a57.517 57.517 0 0 1-7.422-.502 62.832 62.832 0 0 1-4.77-.861 55.056 55.056 0 0 1-5.455-1.52 53.577 53.577 0 0 1-4.165-1.566 52.845 52.845 0 0 1-3.103-1.427 57.27 57.27 0 0 1-4.754-2.656 56.853 56.853 0 0 1-4.72-3.248 58.41 58.41 0 0 1-10.156-10.181A58.748 58.748 0 0 1 9.4 87.455a52.51 52.51 0 0 1-1.7-2.92 24.153 24.153 0 0 1-.461-.868 56.865 56.865 0 0 1-1.987-4.227 54.25 54.25 0 0 1-.647-1.598 18.72 18.72 0 0 1-.32-.834l-.156-.42c-.05-.13-.1-.257-.155-.39-.131-.36-.26-.721-.39-1.082-.123-.336-.261-.76-.399-1.225l-.003-.008-.003-.01-.005-.017-.002-.008-.004-.014a52.978 52.978 0 0 1-.739-2.602.158.158 0 0 0-.029-.055 61.104 61.104 0 0 1-.96-4.732l-.006-.035-.004-.026-.003-.017-.007-.04-.013-.07-.015-.096c-.079-.48-.14-.895-.24-1.583l-.001-.011-.006-.041-.005-.032-.01-.074-.002-.008-.004-.03a159 159 0 0 1-.186-1.63l-.005-.06-.003-.03-.003-.03-.003-.043-.006-.065c-.058-.64-.095-1.061-.13-1.513A64.61 64.61 0 0 1 .7 59.382a67.473 67.473 0 0 1-.024-.805v-.015l-.003-.071-.006-.206v-.014l-.001-.008-.002-.078-.003-.08-.004-.033-.005-.033a57.545 57.545 0 0 1-.01-1.891c.006-.682.042-1.446.076-2.108.067-1.2.164-2.293.296-3.343.045-.286.06-.389.084-.505a.148.148 0 0 0 .04-.095l.004-.021.002-.009.002-.008.001-.007c.008-.04.017-.085.031-.143a.372.372 0 0 0 .078-.132c.035-.112.055-.211.06-.304l.013-.056.021-.084a.291.291 0 0 0 .03-.095c.036-.195.05-.26.067-.325a.34.34 0 0 0 .032-.1.302.302 0 0 0 .006-.067l.051-.257.002-.022.013-.051.022-.118c.099-.507.194-.99.283-1.433.206-.966.407-1.831.596-2.573a.673.673 0 0 0 .02-.068l.016-.062.007-.025.02-.082c.029-.106.057-.214.084-.325l.008-.029.008-.032.005-.022.006-.02.005-.02a55.502 55.502 0 0 1 .341-1.26l.01-.035.009-.03.003-.008.005-.02.004-.012.01-.033.03-.11c.193-.696.42-1.423.712-2.29a52.46 52.46 0 0 1 1.523-4.052 57.182 57.182 0 0 1 3.316-6.61 57.457 57.457 0 0 1 4.098-6.083 61.645 61.645 0 0 1 4.616-5.252 58.825 58.825 0 0 1 5.514-4.883 59.557 59.557 0 0 1 4.414-3.083c.405-.261.857-.539 1.343-.824l.093-.056.013-.007.06-.037.054-.032.07-.041.037-.023.007-.004c.273-.166.458-.28.6-.37.096-.069.189-.124.277-.164.156-.092.313-.18.47-.27l.024-.013a.435.435 0 0 0 .1-.072c.208-.123.426-.243.666-.367a.809.809 0 0 0 .071-.048l.314-.167a.865.865 0 0 0 .075-.05c.505-.276 1.044-.55 1.695-.862a39.864 39.864 0 0 1 1.809-.841.44.44 0 0 0 .054-.033c.193-.091.398-.181.666-.291a55.534 55.534 0 0 1 3.791-1.442 49.318 49.318 0 0 1 2.097-.656 42.5 42.5 0 0 1 2.402-.641c.988-.21 1.687-.357 2.377-.484l.189-.033.076-.014.083-.015.031-.006.018-.003.032-.006.016-.003.01-.002.527-.094c.21-.035.428-.068.594-.094l.032-.005a.42.42 0 0 0 .168-.015l.568-.083c.643-.077 1.358-.16 2.185-.253a.467.467 0 0 0 .047.002c.165-.006.28-.016.361-.032a.371.371 0 0 0 .084.004l.391-.035h.027c.008 0 .018 0 .028-.002ZM57.415 0h-.01l-.404.001h-.018l-.027.001h-.014a48.93 48.93 0 0 0-.412.005h-.059l-.448.01H56a65.178 65.178 0 0 0-.445.014c-1.09.036-2.18.103-3.266.2-.01 0-.02.002-.028.003-.13.012-.26.024-.39.038l-.123.016c-.108.012-.216.023-.323.036a.786.786 0 0 0-.153.024l-.01.002a.595.595 0 0 0-.034.01 10.57 10.57 0 0 0-.393.052.625.625 0 0 0-.039.012c-.962.124-1.92.278-2.876.448a.512.512 0 0 0-.06.021c-.567.104-1.136.207-1.699.332-.784.173-1.568.348-2.345.553-.8.212-1.6.418-2.395.648-.705.203-1.405.421-2.102.65a.264.264 0 0 0-.043.011 63.306 63.306 0 0 0-4.553 1.703.46.46 0 0 0-.15.055c-.613.26-1.222.53-1.827.809-.567.261-1.127.536-1.685.814a.684.684 0 0 0-.114.046l-.293.15a.535.535 0 0 0-.105.045l-.66.346a.649.649 0 0 0-.13.053c-.26.138-.514.288-.78.413a54.3 54.3 0 0 0-.39.206c-.195.104-.383.221-.572.333a52.528 52.528 0 0 0-1.56.962 59.37 59.37 0 0 0-8.05 6.199 57.41 57.41 0 0 0-7.142 7.905 57.072 57.072 0 0 0-5.32 8.57 57.316 57.316 0 0 0-3.827 9.689 48.19 48.19 0 0 0-.362 1.302c-.111.418-.22.837-.316 1.26a.551.551 0 0 0-.017.09 45.869 45.869 0 0 0-.853 4.63c0 .013-.002.024-.004.035a.293.293 0 0 0 .006.1l-.027.2a.642.642 0 0 0-.012.092l-.004.026h.003c0 .033.002.066.009.098l-.018.15c-.02.106-.027.213-.02.32 0 .06.015.117.039.169l-.012.107a.342.342 0 0 0-.005.05l-.001.015h.001c0 .04.008.08.021.117a89.782 89.782 0 0 0-.325 3.217 68.138 68.138 0 0 0-.207 4.477c-.002.143-.01.28-.014.423-.002.373.005.746.013 1.12.016.729.05 1.457.087 2.186a53 53 0 0 0 .174 2.261c.067.726.151 1.45.248 2.171l-.003-.023.008.064-.005-.04.01.073-.003-.016.004.026c.102.76.223 1.517.365 2.27.19 1.014.412 2.023.651 3.026a.454.454 0 0 0 .015.082c.278 1.17.59 2.329.94 3.478.088.288.171.578.258.866.068.225.142.448.214.672.031.132.07.26.12.387a48.952 48.952 0 0 0 .45 1.26 49.816 49.816 0 0 0 1.308 3.166 56.31 56.31 0 0 0 1.364 2.821l.012.024.048.092.051.098a66.73 66.73 0 0 0 .517.965l.008.014a60.082 60.082 0 0 0 .163.293c.446.8.91 1.588 1.391 2.367l.003.005.035.055.016.027.012.018a59.82 59.82 0 0 0 4.791 6.592 56.883 56.883 0 0 0 5.47 5.676 54.475 54.475 0 0 0 3.022 2.538A67.12 67.12 0 0 0 25 105.275a55.915 55.915 0 0 0 6.686 3.937l.012.006.065.032.134.067.03.015a59.282 59.282 0 0 0 7.286 2.998l.02.007c.034.01.067.022.1.033l.01.003a56.635 56.635 0 0 0 9.686 2.285c3.243.474 6.52.667 9.797.593a58.15 58.15 0 0 0 10.077-1.131 56.725 56.725 0 0 0 10.041-3.018 57.978 57.978 0 0 0 7.308-3.567 58.222 58.222 0 0 0 6.646-4.502 57.243 57.243 0 0 0 5.97-5.376 58.052 58.052 0 0 0 5.014-5.949.632.632 0 0 0 .07-.094.177.177 0 0 1 .017-.024.684.684 0 0 0 6.562-11.607c.46-1.096.887-2.204 1.277-3.327.42-1.208.794-2.433 1.132-3.666.533-1.946.922-3.928 1.26-5.916a.349.349 0 0 0 .015-.054c.046-.278.09-.557.133-.835a.336.336 0 0 0 .019-.068l.063-.427.008-.025v-.001a.576.576 0 0 0 .019-.138 53.674 53.674 0 0 0 .297-2.753c.029-.359.063-.72.06-1.08l.007-.155c.005-.12.01-.24.019-.358l.029-.612a63.872 63.872 0 0 0 .038-3.642.312.312 0 0 0-.004-.053l-.011-.608a98.12 98.12 0 0 0-.052-1.76c-.02-.496-.052-.992-.085-1.487a.401.401 0 0 0 .002-.06 50.04 50.04 0 0 0-.215-2.187 56.714 56.714 0 0 0-.324-2.209c-.108-.671-.24-1.338-.368-2.005-.093-.476-.194-.95-.297-1.424l-.145-.665c-.035-.161-.075-.323-.111-.485a.39.39 0 0 0-.015-.184c-.082-.362-.164-.725-.256-1.086a63.451 63.451 0 0 0-.322-1.21 45.198 45.198 0 0 0-.597-1.97.41.41 0 0 0-.018-.071 43.395 43.395 0 0 0-.881-2.53 57.943 57.943 0 0 0-3.226-6.951 57.048 57.048 0 0 0-5.295-7.992 57.575 57.575 0 0 0-7.082-7.502 58.03 58.03 0 0 0-8.421-6.195A58.915 58.915 0 0 0 83.54 6.27c-.067-.044-.139-.074-.218-.114-.197-.101-.395-.2-.592-.299a55.22 55.22 0 0 0-3.567-1.602 56.224 56.224 0 0 0-4.397-1.592l-.025-.008-.079-.025-.136-.042a59.095 59.095 0 0 0-4.11-1.111l-.025-.007a45.854 45.854 0 0 0-.435-.098l-.007-.002a68.213 68.213 0 0 0-.367-.08A59.264 59.264 0 0 0 61.638.157h-.01a63.871 63.871 0 0 0-.928-.06h-.002c-.019 0-.037-.002-.055-.003h-.016a64.785 64.785 0 0 0-.363-.019 56.198 56.198 0 0 0-.493-.021h-.025a37.38 37.38 0 0 0-1.365-.03L58.3.02l-.297-.007C57.809.008 57.614 0 57.42 0h-.005Z"/>
        <path fill="#162E51" d="M58.246 1.093c-.133 0-.266 0-.4.003l-.077.002-.354.003a83.286 83.286 0 0 0-1.032.01l-.446.01a81.309 81.309 0 0 0-3.652.205h-.01l-.39.035-.018.001a.265.265 0 0 1-.027.002h-.027a230.288 230.288 0 0 1-.416.036.38.38 0 0 1-.059-.004 2.662 2.662 0 0 1-.361.031c-.014 0-.03 0-.047-.002-.827.093-1.542.176-2.185.253l-.568.083a.422.422 0 0 1-.167.015l-.033.005c-.166.026-.384.059-.594.094l-.526.094-.01.002-.017.003-.032.006-.018.004-.03.005-.085.015-.075.014-.189.033c-.69.127-1.389.274-2.377.484-.77.18-1.51.378-2.402.641a49.683 49.683 0 0 0-2.11.661 55.43 55.43 0 0 0-3.778 1.437c-.268.11-.473.2-.666.29a.444.444 0 0 1-.054.034c-.68.298-1.256.565-1.81.84-.65.313-1.189.587-1.694.862a.881.881 0 0 1-.075.05l-.314.168a.8.8 0 0 1-.071.048c-.24.124-.458.244-.666.366a.438.438 0 0 1-.1.073l-.023.013c-.158.09-.315.178-.47.27-.089.04-.182.095-.277.164-.143.09-.328.204-.6.37l-.008.004-.038.023-.069.04-.054.033-.06.037-.013.007-.093.056a59.514 59.514 0 0 0-5.757 3.907 58.777 58.777 0 0 0-5.514 4.883 61.58 61.58 0 0 0-4.616 5.252 57.462 57.462 0 0 0-4.098 6.083 57.224 57.224 0 0 0-3.317 6.61 52.512 52.512 0 0 0-1.522 4.053 42.772 42.772 0 0 0-.712 2.29l-.03.11-.01.032-.004.012-.006.02-.002.008-.008.03-.01.035c-.065.217-.16.551-.232.838l-.11.423-.005.019-.005.02-.006.022-.008.032-.008.029-.083.325-.021.082-.007.025-.016.062a.642.642 0 0 1-.02.068c-.19.741-.39 1.607-.596 2.573-.089.443-.184.926-.283 1.433l-.022.118-.013.051-.002.022-.05.257a.32.32 0 0 1-.007.068.353.353 0 0 1-.032.099c-.018.066-.03.13-.067.325a.296.296 0 0 1-.03.095l-.021.084-.012.056a1.288 1.288 0 0 1-.061.304.373.373 0 0 1-.078.132 2.573 2.573 0 0 0-.03.143l-.002.007-.002.008-.002.009-.004.02a.15.15 0 0 1-.04.096c-.023.116-.04.219-.083.505a48.213 48.213 0 0 0-.297 3.343 53.94 53.94 0 0 0-.076 2.108 57.55 57.55 0 0 0 .01 1.891l.005.034.004.033.003.079.002.078v.023l.007.205.002.071v.015c.007.22.014.51.025.805.022.545.052 1.093.087 1.629.036.452.074.873.131 1.513l.006.065.004.043.002.03.003.03.005.06c.063.579.125 1.127.186 1.63l.004.03.001.008.011.074.005.032.006.04.002.012c.1.688.16 1.103.24 1.583l.015.097.012.07.007.04.003.016.004.026.006.035c.083.48.15.868.212 1.217.21 1.157.462 2.34.748 3.515a.158.158 0 0 1 .03.055c.233.909.482 1.784.738 2.602l.004.014.002.008.005.016.003.01.003.009c.138.465.276.889.4 1.225.128.36.257.721.39 1.081a20.414 20.414 0 0 1 .31.81c.11.306.199.54.32.835a57.048 57.048 0 0 0 2.634 5.825c.158.31.313.603.462.869l.16.292a51.78 51.78 0 0 0 1.54 2.627 58.793 58.793 0 0 0 3.291 4.747 58.415 58.415 0 0 0 10.156 10.18 56.833 56.833 0 0 0 4.72 3.249 57.284 57.284 0 0 0 4.754 2.656c1.028.513 2.072.993 3.103 1.427a53.561 53.561 0 0 0 4.166 1.567 55.058 55.058 0 0 0 5.453 1.519c1.587.35 3.192.639 4.771.86 2.487.33 4.984.498 7.422.503h.09c2.54 0 5.13-.17 7.693-.504a56.834 56.834 0 0 0 7.437-1.535 57.235 57.235 0 0 0 6.918-2.398 54.973 54.973 0 0 0 6.68-3.367 59.303 59.303 0 0 0 5.903-3.985 59.135 59.135 0 0 0 5.586-4.946 61.553 61.553 0 0 0 4.673-5.332c.307-.406.567-.752.793-1.056a.365.365 0 0 1 .065-.09 56.337 56.337 0 0 0 3.399-5.245 57.689 57.689 0 0 0 3.06-6.153l.003-.007.008-.016.013-.031c.133-.31.243-.577.334-.815l.028-.072.005-.011.004-.011.003-.007.004-.011.003-.008.004-.011.004-.01.006-.014.005-.012c.015-.038.04-.103.062-.15a56.497 56.497 0 0 0 2.14-6.496l.05-.182.005-.015.002-.01.005-.018.006-.021.003-.01.01-.04.005-.02.004-.011.005-.021.008-.03c.085-.313.184-.695.295-1.136l.003-.018.002-.013.008-.029.01-.042.009-.038c.149-.658.245-1.088.322-1.439a52.4 52.4 0 0 0 .348-1.888l.01-.078.01-.063.003-.026.012-.08.006-.037.004-.028.012-.078.014-.09.014-.09.045-.298v-.044l.009-.064.01-.074.039-.287v-.028l.01-.075.01-.066.014-.11.003-.019.009-.07a.507.507 0 0 1 .006-.083l.026-.164.014-.105.026-.198.002-.015.002-.012c.082-.697.132-1.126.177-1.527l.037-.395.006-.065v-.012l.002-.007v-.011l.002-.008v-.02l.002-.013c.028-.348.06-.646.095-.884.062-.738.11-1.53.146-2.422a83.07 83.07 0 0 0 .037-2.317l.002-.038a66.397 66.397 0 0 0-.014-.667 61.659 61.659 0 0 0-.193-3.156.356.356 0 0 1-.015-.107 97.002 97.002 0 0 0-.384-3.483l-.1-.675-.012-.082-.003-.022-.03-.192-.007-.04-.01-.063-.01-.06-.007-.048-.01-.057-.015-.1-.006-.04-.005-.03-.006-.036-.006-.034-.01-.068-.012-.07v-.009a2.092 2.092 0 0 1-.046-.285 72.624 72.624 0 0 0-.341-1.765l-.003-.014-.005-.022-.007-.018-.002-.014-.007-.038-.008-.033-.007-.033-.005-.012-.007-.025-.001-.013-.006-.028-.004-.017-.005-.02-.002-.01c-.064-.28-.12-.52-.198-.81l-.016-.104-.016-.073-.016-.02a2.507 2.507 0 0 0-.082-.319.954.954 0 0 1-.061-.135 54.932 54.932 0 0 0-.652-2.275 54.515 54.515 0 0 0-.63-1.958.815.815 0 0 1-.028-.072 74.314 74.314 0 0 0-1.53-3.99 55.115 55.115 0 0 0-3.398-6.753 58.985 58.985 0 0 0-3.933-5.84 59.12 59.12 0 0 0-4.83-5.484 60.062 60.062 0 0 0-5.403-4.765c-2.874-2.207-5.883-4.114-8.941-5.668a8.752 8.752 0 0 1-.236-.116l-.03-.015a37.896 37.896 0 0 0-.398-.196l-.136-.066-.015-.007a17.58 17.58 0 0 0-.848-.406 50.437 50.437 0 0 0-2.004-.895 56.834 56.834 0 0 0-4.99-1.83 61.193 61.193 0 0 0-4.5-1.225l-.047-.011-.171-.038-.173-.039a65.298 65.298 0 0 0-4.447-.786 75.182 75.182 0 0 0-3.64-.37h-.009c-.334-.022-.69-.043-1.09-.066h-.01l-.009-.001a85.809 85.809 0 0 0-.528-.025l-.037-.002-.278-.011a.836.836 0 0 1-.038-.002h-.009l-.111-.004-.215-.008a.573.573 0 0 1-.67-.021c-.054 0-.1-.003-.146-.003Z"/>
        <path fill="#264E90" d="m17.561 87.441-.016-.022a49.614 49.614 0 0 0 .016.022ZM10.973 37.08l.004-.008a49.77 49.77 0 0 0-.004.008Zm2.806 11.325a44.592 44.592 0 0 1 1.446-5.378l.008-.004a.184.184 0 0 0 .08-.105c.323-.93.68-1.864 1.063-2.776a44.456 44.456 0 0 1 2.561-5.118 45.032 45.032 0 0 1 3.254-4.827 45.253 45.253 0 0 1 3.748-4.257 45.835 45.835 0 0 1 4.32-3.811 47.95 47.95 0 0 1 2.288-1.66 45.025 45.025 0 0 1 7.707-4.196 44.62 44.62 0 0 1 5.645-1.946 45.626 45.626 0 0 1 5.839-1.173l.037-.005a45.072 45.072 0 0 1 5.875-.38h.139a45.62 45.62 0 0 1 5.884.407 45.385 45.385 0 0 1 5.541 1.12 44.5 44.5 0 0 1 6.88 2.468 44.56 44.56 0 0 1 3.986 2.071 45.29 45.29 0 0 1 4.72 3.177 44.281 44.281 0 0 1 4.348 3.82 45.34 45.34 0 0 1 3.76 4.271 48.542 48.542 0 0 1 1.675 2.32 45.215 45.215 0 0 1 4.147 7.633 44.301 44.301 0 0 1 1.922 5.533c.51 1.84.909 3.798 1.185 5.822v.01l.003.015.002.015v.005-.01a45.691 45.691 0 0 1 .385 5.937 45.434 45.434 0 0 1-.401 5.992 46.92 46.92 0 0 1-.47 2.79 44.781 44.781 0 0 1-2.634 8.554 45.183 45.183 0 0 1-7.67 12.203 44.952 44.952 0 0 1-6.227 5.837 45.635 45.635 0 0 1-4.736 3.19 44.788 44.788 0 0 1-5.246 2.628 44.656 44.656 0 0 1-11.35 3.083 48.92 48.92 0 0 1-2.901.288 44.02 44.02 0 0 1-2.972.099h-.073c-.95 0-1.936-.032-2.932-.094a42.092 42.092 0 0 1-2.378-.221 49.747 49.747 0 0 1-.676-.085l.007.002.021.003-.015-.002.015.004a50.41 50.41 0 0 1-2.83-.475 44.837 44.837 0 0 1-2.92-.69 43.556 43.556 0 0 1-4.593-1.523c-.34-.134-.681-.272-1.021-.415l.008.004.023.01a.607.607 0 0 0-.016-.006l.015.008a48.451 48.451 0 0 1-2.564-1.183 45.105 45.105 0 0 1-7.402-4.647 45.229 45.229 0 0 1-4.235-3.725 44.229 44.229 0 0 1-3.134-3.468 48.544 48.544 0 0 1-.68-.854l.003.004.007.01-.005-.007.004.008a48.973 48.973 0 0 1-1.683-2.328 44.785 44.785 0 0 1-4.162-7.66 44.366 44.366 0 0 1-3.396-14.189c-.07-.953-.107-1.93-.113-2.99v-.013l-.003-.658c0-.245.007-.496.013-.74V56.1l.004-.117a42.666 42.666 0 0 1 .385-4.713l-.001.003v-.002s0 .002-.002.002c.134-.956.298-1.922.488-2.87ZM55.374 5.948c-3.132.11-6.315.53-9.46 1.247a50.043 50.043 0 0 0-4.665 1.314 50.292 50.292 0 0 0-4.366 1.696 50.605 50.605 0 0 0-14.87 10.049 51.217 51.217 0 0 0-5.742 6.657 50.604 50.604 0 0 0-4.465 7.455.248.248 0 0 0-.024.182.23.23 0 0 0 .021.051 50.299 50.299 0 0 0-2.967 7.6 50.202 50.202 0 0 0-1.83 9.135 50.946 50.946 0 0 0 .483 14.112 50.324 50.324 0 0 0 9.458 21.7 51.24 51.24 0 0 0 6.334 6.94 51.103 51.103 0 0 0 7.563 5.699 50.852 50.852 0 0 0 8.52 4.204c1.39.533 2.88 1.023 4.428 1.457a50.492 50.492 0 0 0 9.34 1.667c1.366.117 2.797.176 4.252.176.163 0 .325 0 .488-.003a51.302 51.302 0 0 0 9.479-.983 50.04 50.04 0 0 0 8.996-2.695 50.64 50.64 0 0 0 8.47-4.403 51.605 51.605 0 0 0 7.497-5.911 51.747 51.747 0 0 0 3.345-3.5 50.101 50.101 0 0 0 2.826-3.566 50.415 50.415 0 0 0 6.638-12.626 50.19 50.19 0 0 0 1.375-4.518 50.775 50.775 0 0 0 1.45-9.323c.2-3.128.098-6.34-.305-9.547a51.023 51.023 0 0 0-2.041-9.192 50.288 50.288 0 0 0-6.127-12.607 51.246 51.246 0 0 0-13.247-13.46 51.153 51.153 0 0 0-12.36-6.282 49.635 49.635 0 0 0-9.229-2.238 52.427 52.427 0 0 0-7.294-.523c-.646 0-1.31.012-1.971.036Z"/>
        <path fill="#264E90" d="M20.054 46.728a38.713 38.713 0 0 1 1.684-4.901l.006-.015.006-.014a37.997 37.997 0 0 1 2.323-4.612.265.265 0 0 0 .205-.125A40.742 40.742 0 0 1 26.79 33.4a38.934 38.934 0 0 1 3.248-3.683 39.56 39.56 0 0 1 3.714-3.274 41.555 41.555 0 0 1 1.99-1.439 39.314 39.314 0 0 1 6.644-3.612c.767-.322 1.55-.622 2.327-.893a38.633 38.633 0 0 1 7.494-1.788 39.562 39.562 0 0 1 5.017-.34h.178c1.66 0 3.37.114 5.083.337a38.147 38.147 0 0 1 4.978 1.007c1.57.424 3.172.974 4.762 1.637a38.165 38.165 0 0 1 4.49 2.243 37.77 37.77 0 0 1 3.157 2.058c.33.238.658.482.98.73l-.009-.009a39.324 39.324 0 0 1 3.717 3.271 39.32 39.32 0 0 1 3.285 3.732 38.6 38.6 0 0 1 4.98 8.521l.006.012a38.008 38.008 0 0 1 1.648 4.754 38.826 38.826 0 0 1 1.038 5.1c.107.828.191 1.672.249 2.509a39.819 39.819 0 0 1-.256 7.806l-.001.008a38.624 38.624 0 0 1-1.029 5.04c-.427 1.57-.98 3.17-1.644 4.758-.3.706-.628 1.42-.973 2.121a38.913 38.913 0 0 1-4.017 6.424 39.03 39.03 0 0 1-3.234 3.68 38.965 38.965 0 0 1-3.794 3.338c-.645.493-1.31.972-1.977 1.422a38.857 38.857 0 0 1-6.478 3.517l-.014.006-.013.005-.01.005a38.082 38.082 0 0 1-4.737 1.646 38.822 38.822 0 0 1-5.137 1.047l-.008.001h-.011l-.005.003h-.01l-.011.002a39.87 39.87 0 0 1-5.054.332h-.031a39.127 39.127 0 0 1-5.162-.342l.006.001h-.005l.005.002-.02-.003-.018-.003a38.329 38.329 0 0 1-4.946-1.003 38.747 38.747 0 0 1-4.846-1.67 41.131 41.131 0 0 1-2.172-1 38.966 38.966 0 0 1-6.42-4.024 39.323 39.323 0 0 1-3.685-3.245 39.334 39.334 0 0 1-3.274-3.711c-.508-.66-1-1.34-1.461-2.021a38.861 38.861 0 0 1-3.612-6.667 37.701 37.701 0 0 1-1.654-4.817 38.866 38.866 0 0 1-.997-4.95 39.461 39.461 0 0 1-.34-5.129c-.003-1.309.065-2.65.204-4.004.041-.407.089-.814.142-1.22l-.003.012c.227-1.657.56-3.31.989-4.912Zm33.69-28.837a39.204 39.204 0 0 0-7.246 1.362 38.96 38.96 0 0 0-6.81 2.686c-3.244 1.64-6.287 3.782-9.043 6.365a39.36 39.36 0 0 0-6.813 8.496.26.26 0 0 0-.013.236 38.785 38.785 0 0 0-4.298 10.454 38.937 38.937 0 0 0-1.072 7.03 39.042 39.042 0 0 0 1.807 14.336 39.07 39.07 0 0 0 2.89 6.714 39.146 39.146 0 0 0 4.094 6.05 39.146 39.146 0 0 0 5.182 5.217 38.961 38.961 0 0 0 12.796 7.105c1.136.375 2.354.71 3.62.997a38.94 38.94 0 0 0 3.564.623c1.616.211 3.287.318 4.965.318a39.139 39.139 0 0 0 9.639-1.194 38.855 38.855 0 0 0 13.024-6.05 39.408 39.408 0 0 0 11.957-13.687 39.11 39.11 0 0 0 1.54-3.286 38.45 38.45 0 0 0 2.143-7.004c.477-2.311.742-4.742.788-7.225a38.453 38.453 0 0 0-.121-3.764 39.69 39.69 0 0 0-.462-3.627 38.605 38.605 0 0 0-1.927-7.034 39.19 39.19 0 0 0-3.236-6.596 39.522 39.522 0 0 0-6.88-8.355 39.568 39.568 0 0 0-2.712-2.275 39.002 39.002 0 0 0-12.93-6.535 39.222 39.222 0 0 0-10.803-1.523c-1.2 0-2.426.056-3.642.166Z"/>
        <path fill="#264E90" d="m53.028 91.135-.011-.002-.011-.001a35.574 35.574 0 0 1-4.436-.898 34.458 34.458 0 0 1-4.285-1.474 34.695 34.695 0 0 1-7.678-4.486 36.128 36.128 0 0 1-3.267-2.876 34.83 34.83 0 0 1-2.896-3.283 34.533 34.533 0 0 1-4.473-7.649 35.346 35.346 0 0 1-1.481-4.295 34.49 34.49 0 0 1-.898-4.425 35.447 35.447 0 0 1 0-9.25l.004-.03c.203-1.466.497-2.92.873-4.323a34.46 34.46 0 0 1 1.508-4.385 35.487 35.487 0 0 1 1.99-3.957 34.956 34.956 0 0 1 2.683-3.933.146.146 0 0 0 .022-.022c.857-1.067 1.79-2.1 2.77-3.067a35.473 35.473 0 0 1 3.138-2.739 35.758 35.758 0 0 1 3.693-2.485 34.768 34.768 0 0 1 3.972-1.987 34.646 34.646 0 0 1 8.827-2.398 35.55 35.55 0 0 1 4.528-.293c1.503 0 3.04.101 4.57.3a34.326 34.326 0 0 1 8.735 2.382 35.538 35.538 0 0 1 3.9 1.951 35.1 35.1 0 0 1 3.748 2.523 36.049 36.049 0 0 1 3.269 2.882 34.951 34.951 0 0 1 2.916 3.31l.009.01.014.02.018.023a35.753 35.753 0 0 1 2.41 3.58 33.307 33.307 0 0 1 1.967 3.911l-.002-.006-.008-.02.008.019-.007-.02A35.362 35.362 0 0 1 90.628 48c.402 1.445.716 2.979.932 4.557.198 1.516.3 3.059.303 4.586a35.245 35.245 0 0 1-.3 4.58 35.62 35.62 0 0 1-.886 4.392 34.406 34.406 0 0 1-1.49 4.336 35.643 35.643 0 0 1-1.91 3.833 34.755 34.755 0 0 1-2.537 3.786 35.858 35.858 0 0 1-2.854 3.248 34.997 34.997 0 0 1-3.32 2.933 35.986 35.986 0 0 1-3.684 2.488 34.516 34.516 0 0 1-4.002 2.01 35.435 35.435 0 0 1-4.201 1.454c-1.44.4-2.963.71-4.528.924a34.759 34.759 0 0 1-4.557.3h-.07a35.22 35.22 0 0 1-4.496-.292ZM50.32 22.993a34.001 34.001 0 0 0-6.208 1.953c-.983.416-1.96.883-2.908 1.389a34.972 34.972 0 0 0-7.157 5.1 35.026 35.026 0 0 0-3.74 4.047l-.014.019-.026.033a.226.226 0 0 0-.009.017l-.03.038a34.95 34.95 0 0 0-3.452 5.281 34.935 34.935 0 0 0-2.504 6.021 34.636 34.636 0 0 0-1.325 6.344 34.861 34.861 0 0 0 .932 12.834 34.89 34.89 0 0 0 2.235 6.076c1.85 3.895 4.542 7.55 7.784 10.572a35.272 35.272 0 0 0 5.11 3.937 35.014 35.014 0 0 0 5.716 2.914 34.353 34.353 0 0 0 6.236 1.828 35.663 35.663 0 0 0 6.743.64 35.397 35.397 0 0 0 6.322-.59 34.365 34.365 0 0 0 6.245-1.782 35.055 35.055 0 0 0 5.694-2.846 35.15 35.15 0 0 0 5.15-3.901 35.462 35.462 0 0 0 4.292-4.705 34.77 34.77 0 0 0 5.774-11.543 34.98 34.98 0 0 0 1.186-6.467 35.016 35.016 0 0 0-1.304-12.995c-.59-1.998-1.395-4-2.39-5.952a34.523 34.523 0 0 0-3.44-5.417 34.846 34.846 0 0 0-4.508-4.828 35.23 35.23 0 0 0-5.264-3.856 35.04 35.04 0 0 0-5.812-2.778 34.454 34.454 0 0 0-6.343-1.674 34.857 34.857 0 0 0-5.693-.467c-2.444 0-4.898.255-7.292.758Z"/>
        <path fill="#264E90" d="m49.285 35.659.008-.004a25.68 25.68 0 0 1 3.054-1.052c1.016-.28 2.09-.499 3.19-.65 1.08-.14 2.186-.213 3.285-.215h.04c1.072 0 2.183.075 3.302.224a24.579 24.579 0 0 1 6.21 1.705 24.812 24.812 0 0 1 5.424 3.171 25.685 25.685 0 0 1 2.329 2.05 25.424 25.424 0 0 1 2.103 2.38l.007.008.01.014a24.318 24.318 0 0 1 3.155 5.394l.005.011.005.016a.416.416 0 0 1 .003.007l-.001-.007a24.773 24.773 0 0 1 1.692 6.201c.144 1.1.218 2.224.22 3.338a25.034 25.034 0 0 1-.22 3.268 24.754 24.754 0 0 1-1.7 6.25 25.19 25.19 0 0 1-1.397 2.8 24.927 24.927 0 0 1-1.795 2.672 25.554 25.554 0 0 1-2.113 2.388 25.432 25.432 0 0 1-2.364 2.07 24.874 24.874 0 0 1-5.457 3.176 25.29 25.29 0 0 1-2.989 1.03 24.795 24.795 0 0 1-3.21.657 25.552 25.552 0 0 1-3.26.217h-.05c-1.09 0-2.199-.073-3.3-.216a25.857 25.857 0 0 1-3.198-.65 24.556 24.556 0 0 1-3.057-1.052 24.742 24.742 0 0 1-5.434-3.161c-.82-.637-1.61-1.33-2.349-2.061a24.937 24.937 0 0 1-2.134-2.422 24.641 24.641 0 0 1-3.176-5.436 24.693 24.693 0 0 1-1.711-6.273 25.545 25.545 0 0 1-.216-3.257c-.002-1.09.072-2.21.218-3.331a24.673 24.673 0 0 1 1.722-6.298c.418-.978.903-1.94 1.441-2.86.286-.49.598-.98.927-1.458a.231.231 0 0 0 .03-.006.246.246 0 0 0 .141-.108c.215-.305.436-.604.655-.889a25.948 25.948 0 0 1 2.033-2.31 24.991 24.991 0 0 1 2.375-2.096 25.962 25.962 0 0 1 2.613-1.763 24.012 24.012 0 0 1 2.306-1.195 27.29 27.29 0 0 1 .6-.265l-.006.003.005-.003-.006.002.035-.014Zm6.978-2.374a25.204 25.204 0 0 0-4.611.91 24.674 24.674 0 0 0-8.11 4.188 25.232 25.232 0 0 0-5.272 5.569.231.231 0 0 0-.027.172c-.387.559-.75 1.132-1.089 1.719l-.003.006A25.016 25.016 0 0 0 33.871 57a25.175 25.175 0 0 0 1.258 9.22 25.144 25.144 0 0 0 1.913 4.303c1.516 2.707 3.617 5.195 6.076 7.195a25.468 25.468 0 0 0 3.936 2.632 25.082 25.082 0 0 0 4.29 1.818 24.84 24.84 0 0 0 4.583.984c.95.116 1.932.174 2.916.174a25.115 25.115 0 0 0 6.599-.874 25.021 25.021 0 0 0 6.207-2.631.31.31 0 0 0 .017-.01l.006-.004a25.12 25.12 0 0 0 5.551-4.503 25.683 25.683 0 0 0 2.86-3.72 25.31 25.31 0 0 0 2.091-4.113c1.14-2.842 1.745-6 1.751-9.132a25.712 25.712 0 0 0-.108-2.405c-.07-.76-.182-1.553-.333-2.36a24.645 24.645 0 0 0-1.321-4.54 25.204 25.204 0 0 0-4.867-7.755 25.512 25.512 0 0 0-3.39-3.073 25.05 25.05 0 0 0-8.231-4.105 25.144 25.144 0 0 0-9.412-.817Z"/>
        <path fill="#264E90" d="M42.77 45.09a22.122 22.122 0 0 1 2.677-2.461l.008-.006a21.687 21.687 0 0 1 4.689-2.74l.01-.005.008-.003a21.284 21.284 0 0 1 5.398-1.476c.91-.119 1.85-.182 2.797-.188h.101c.896 0 1.837.064 2.798.188a21.223 21.223 0 0 1 5.403 1.472 21.375 21.375 0 0 1 4.686 2.739c.711.554 1.398 1.16 2.042 1.804a22.02 22.02 0 0 1 1.809 2.058 21.49 21.49 0 0 1 2.73 4.677 21.42 21.42 0 0 1 1.472 5.382 22.1 22.1 0 0 1 .189 2.83c0 .943-.063 1.914-.19 2.884a21.18 21.18 0 0 1-1.473 5.38 22.094 22.094 0 0 1-1.228 2.44 20.603 20.603 0 0 1-1.508 2.235l.008-.007c-.554.712-1.159 1.4-1.798 2.042a21.794 21.794 0 0 1-2.019 1.784 21.351 21.351 0 0 1-4.75 2.783 21.387 21.387 0 0 1-5.437 1.48 22.013 22.013 0 0 1-5.706-.01 21.474 21.474 0 0 1-5.402-1.486 21.56 21.56 0 0 1-4.663-2.732 22.329 22.329 0 0 1-2.01-1.768 21.649 21.649 0 0 1-1.805-2.045 21.203 21.203 0 0 1-2.78-4.758 21.49 21.49 0 0 1-1.472-5.424 22.004 22.004 0 0 1 .004-5.693 21.15 21.15 0 0 1 1.461-5.373 21.56 21.56 0 0 1 2.782-4.766c.313-.403.642-.797.979-1.175a.23.23 0 0 0 .034.003.208.208 0 0 0 .156-.065Zm15.191-7.417c-1.31.026-2.663.184-4.021.47a21.247 21.247 0 0 0-3.818 1.196 21.042 21.042 0 0 0-3.43 1.816 21.868 21.868 0 0 0-4.241 3.616.231.231 0 0 0-.06.217 21.658 21.658 0 0 0-3.023 4.317 21.629 21.629 0 0 0-1.54 3.702 21.569 21.569 0 0 0-.905 8.026c.1 1.335.329 2.675.68 3.982a21.553 21.553 0 0 0 2.355 5.504l.01.016.003.004a21.81 21.81 0 0 0 2.221 3.033l.013.015.015.017c.485.552 1 1.083 1.545 1.59a22.062 22.062 0 0 0 3.178 2.453 21.834 21.834 0 0 0 5.445 2.475l.024.008a22.838 22.838 0 0 0 6.14.872c.597 0 1.235-.032 1.95-.097a22.124 22.124 0 0 0 1.998-.28 21.18 21.18 0 0 0 3.902-1.123 21.814 21.814 0 0 0 3.541-1.788 21.867 21.867 0 0 0 3.121-2.374 21.932 21.932 0 0 0 4.81-6.377 21.688 21.688 0 0 0 1.452-3.77 21.64 21.64 0 0 0 .725-4.03 21.872 21.872 0 0 0-.83-8.041 21.624 21.624 0 0 0-2.507-5.454 22.168 22.168 0 0 0-1.155-1.627 21.11 21.11 0 0 0-1.354-1.583 21.909 21.909 0 0 0-8.19-5.43 21.283 21.283 0 0 0-3.926-1.056 21.807 21.807 0 0 0-4.128-.3Z"/>
        <path fill="#366ECC" d="M57.367 95.88a38.53 38.53 0 0 1-4.965-.318 38.732 38.732 0 0 1-13.905-4.56 39.431 39.431 0 0 1-6.076-4.165 39.153 39.153 0 0 1-9.276-11.267 39.058 39.058 0 0 1-2.89-6.715 39.008 39.008 0 0 1-1.807-14.336 38.94 38.94 0 0 1 1.073-7.03 38.77 38.77 0 0 1 4.298-10.453.259.259 0 0 1 .013-.237 39.34 39.34 0 0 1 6.813-8.495c2.756-2.583 5.799-4.724 9.043-6.365a38.967 38.967 0 0 1 6.81-2.686 39.232 39.232 0 0 1 10.89-1.529 39.22 39.22 0 0 1 10.802 1.524 39.252 39.252 0 0 1 6.751 2.651 38.982 38.982 0 0 1 6.18 3.884 39.56 39.56 0 0 1 2.71 2.275 39.328 39.328 0 0 1 6.88 8.355 39.17 39.17 0 0 1 3.237 6.596 38.618 38.618 0 0 1 1.927 7.035 39.9 39.9 0 0 1 .462 3.626c.104 1.33.144 2.56.121 3.764a39.476 39.476 0 0 1-.788 7.226 38.452 38.452 0 0 1-2.144 7.003 39.125 39.125 0 0 1-3.442 6.513 39.409 39.409 0 0 1-10.054 10.46 38.86 38.86 0 0 1-13.024 6.05 39.15 39.15 0 0 1-9.639 1.194Zm.422-83.11h-.14a45.076 45.076 0 0 0-5.874.379l-.037.005a44.607 44.607 0 0 0-11.483 3.119 45.098 45.098 0 0 0-9.996 5.856 45.813 45.813 0 0 0-6.273 5.895 48.278 48.278 0 0 0-1.795 2.173 45.02 45.02 0 0 0-4.658 7.428 47.7 47.7 0 0 0-1.157 2.517 47.08 47.08 0 0 0-1.062 2.776.183.183 0 0 1-.082.105l-.007.004a44.933 44.933 0 0 0-1.934 8.247c.004-.003.004-.007.005-.01a43.302 43.302 0 0 0-.387 4.72l-.003.117v.026a29.39 29.39 0 0 0-.013.74l.002.658v.013c.006 1.06.043 2.037.113 2.99.071.975.17 1.94.294 2.867A44.379 44.379 0 0 0 19 79.892a44.673 44.673 0 0 0 1.566 2.485 49.21 49.21 0 0 0 1.683 2.328l-.011-.021a44.766 44.766 0 0 0 5.923 6.299 48.31 48.31 0 0 0 2.127 1.754 45.162 45.162 0 0 0 7.403 4.647c.828.412 1.691.81 2.565 1.183l-.045-.024a44.192 44.192 0 0 0 8.547 2.635c.921.183 1.873.343 2.831.476l-.043-.011c1.08.147 2.083.247 3.069.309a46.7 46.7 0 0 0 2.932.095h.073a44.02 44.02 0 0 0 2.972-.1 48.153 48.153 0 0 0 2.901-.288 44.699 44.699 0 0 0 8.735-2.08 47.22 47.22 0 0 0 2.615-1.002 44.823 44.823 0 0 0 7.742-4.2 47.9 47.9 0 0 0 2.24-1.618 44.92 44.92 0 0 0 8.043-8.034 45.531 45.531 0 0 0 4.617-7.33c.44-.88.857-1.78 1.238-2.675a44.81 44.81 0 0 0 2.634-8.555c.183-.92.34-1.86.469-2.79a45.23 45.23 0 0 0 .299-9.062c-.065-.945-.16-1.91-.282-2.867l-.001.026v-.021l-.002-.015-.002-.015-.001-.01a44.223 44.223 0 0 0-3.107-11.355 45.25 45.25 0 0 0-4.147-7.632 48.623 48.623 0 0 0-1.676-2.32 45.301 45.301 0 0 0-5.884-6.264 48.08 48.08 0 0 0-2.224-1.828 45.25 45.25 0 0 0-7.315-4.584 42.69 42.69 0 0 0-2.538-1.168 44.532 44.532 0 0 0-8.544-2.622 49.922 49.922 0 0 0-2.729-.462 45.692 45.692 0 0 0-5.884-.407Z"/>
        <path fill="#3975DA" d="m57.703 92.036-.243-.001a35.668 35.668 0 0 1-6.5-.64 34.353 34.353 0 0 1-6.236-1.828 34.989 34.989 0 0 1-5.716-2.913 35.264 35.264 0 0 1-5.11-3.937c-3.242-3.021-5.934-6.677-7.784-10.572-.95-2-1.702-4.044-2.235-6.076a34.924 34.924 0 0 1-1.064-6.372 34.876 34.876 0 0 1 .132-6.461 34.56 34.56 0 0 1 1.326-6.345 34.92 34.92 0 0 1 2.503-6.02 34.957 34.957 0 0 1 3.452-5.282l.03-.038a.52.52 0 0 1 .01-.017l.026-.033.014-.019a35.017 35.017 0 0 1 3.739-4.047 35 35 0 0 1 7.157-5.1 35.786 35.786 0 0 1 2.908-1.389 33.967 33.967 0 0 1 6.208-1.952 35.495 35.495 0 0 1 7.292-.76c1.912 0 3.827.158 5.693.467 2.202.366 4.336.93 6.343 1.675a35.014 35.014 0 0 1 5.812 2.778 35.224 35.224 0 0 1 7.641 6.172 36.297 36.297 0 0 1 2.131 2.512 34.539 34.539 0 0 1 3.44 5.417 35.095 35.095 0 0 1 2.39 5.951 35.007 35.007 0 0 1 1.304 12.995 34.993 34.993 0 0 1-1.186 6.468 34.755 34.755 0 0 1-5.774 11.543 35.5 35.5 0 0 1-4.292 4.705 35.133 35.133 0 0 1-5.15 3.901 35.03 35.03 0 0 1-5.694 2.846c-2.059.8-4.16 1.4-6.246 1.781a35.638 35.638 0 0 1-6.321.591Zm-.3-73.665h-.178a39.43 39.43 0 0 0-5.017.34 38.624 38.624 0 0 0-9.82 2.68 39.354 39.354 0 0 0-8.635 5.052 39.523 39.523 0 0 0-5.456 5.133 41.958 41.958 0 0 0-1.506 1.824 40.76 40.76 0 0 0-2.513 3.66.266.266 0 0 1-.205.127 38.12 38.12 0 0 0-1.314 2.419c-.354.712-.694 1.45-1.01 2.192l-.005.014-.006.015a38.742 38.742 0 0 0-1.684 4.9 39.979 39.979 0 0 0-.989 4.913l.006-.021a38.892 38.892 0 0 0-.255 7.916c.057.809.14 1.632.246 2.447a38.86 38.86 0 0 0 .997 4.949 37.821 37.821 0 0 0 1.654 4.817 38.942 38.942 0 0 0 5.073 8.687 39.272 39.272 0 0 0 5.123 5.443 42.383 42.383 0 0 0 1.836 1.514 38.99 38.99 0 0 0 6.42 4.025c.714.353 1.445.69 2.172.998a38.774 38.774 0 0 0 7.34 2.262c.812.162 1.637.3 2.452.412l.017.003.021.003-.01-.005-.01-.002c1.72.23 3.461.346 5.176.346h.031a39.853 39.853 0 0 0 5.054-.332l.011-.001.01-.002.007-.003.001.001h.008l.008-.001a38.83 38.83 0 0 0 7.633-1.829 40.766 40.766 0 0 0 2.24-.864l.01-.005.014-.005.014-.006a38.9 38.9 0 0 0 8.455-4.939 38.905 38.905 0 0 0 7.027-7.018 38.886 38.886 0 0 0 4.018-6.424c.345-.7.673-1.415.973-2.121a38.69 38.69 0 0 0 2.673-9.798v-.008a39.69 39.69 0 0 0 .256-7.806 42.122 42.122 0 0 0-.248-2.508 38.821 38.821 0 0 0-1.825-7.624 40.69 40.69 0 0 0-.86-2.23l-.006-.013a38.92 38.92 0 0 0-4.98-8.521 39.31 39.31 0 0 0-5.117-5.448 41.675 41.675 0 0 0-1.886-1.555l.02.018a38.52 38.52 0 0 0-8.638-5.04 38.507 38.507 0 0 0-9.74-2.644 39.389 39.389 0 0 0-5.083-.337Z"/>
        <path fill="#3C7CE8" d="M58.843 83.327a24.877 24.877 0 0 1-7.5-1.158 25.07 25.07 0 0 1-4.29-1.818 25.486 25.486 0 0 1-3.935-2.632c-2.459-2-4.56-4.488-6.076-7.195a25.143 25.143 0 0 1-1.912-4.302A25.183 25.183 0 0 1 33.87 57c.085-1.615.316-3.193.687-4.691a24.743 24.743 0 0 1 3.686-8.186.23.23 0 0 1 .026-.172 25.238 25.238 0 0 1 5.272-5.569 24.46 24.46 0 0 1 3.813-2.449 24.66 24.66 0 0 1 4.297-1.74 25.214 25.214 0 0 1 7.202-1.042 25.154 25.154 0 0 1 6.821.95 25.028 25.028 0 0 1 8.231 4.104 25.515 25.515 0 0 1 3.39 3.074 25.232 25.232 0 0 1 4.867 7.755 24.667 24.667 0 0 1 1.321 4.54c.151.807.263 1.6.333 2.36.073.79.11 1.6.108 2.405-.005 3.132-.61 6.29-1.75 9.131a25.288 25.288 0 0 1-2.092 4.114 25.679 25.679 0 0 1-2.86 3.72 24.906 24.906 0 0 1-7.404 5.501 25.015 25.015 0 0 1-4.377 1.647 25.105 25.105 0 0 1-6.599.874ZM57.6 22.877c-1.498 0-3.02.1-4.528.294a34.658 34.658 0 0 0-4.533.917 35.74 35.74 0 0 0-4.294 1.48 34.834 34.834 0 0 0-3.972 1.987 35.788 35.788 0 0 0-3.693 2.485 35.457 35.457 0 0 0-3.138 2.74 36 36 0 0 0-2.77 3.066.148.148 0 0 1-.022.022l-.217.277a34.995 34.995 0 0 0-2.466 3.656 35.489 35.489 0 0 0-1.99 3.957 34.5 34.5 0 0 0-1.508 4.385 35.507 35.507 0 0 0-.877 4.354 35.416 35.416 0 0 0 0 9.249c.211 1.535.513 3.024.898 4.425a35.467 35.467 0 0 0 1.48 4.295 34.533 34.533 0 0 0 4.474 7.649 34.777 34.777 0 0 0 2.896 3.282 36.104 36.104 0 0 0 3.267 2.877 34.739 34.739 0 0 0 3.72 2.505 35.577 35.577 0 0 0 3.958 1.98 34.321 34.321 0 0 0 4.285 1.476c1.45.39 2.942.693 4.436.897h.01l.011.003c1.505.194 3.018.293 4.498.293h.069a34.697 34.697 0 0 0 4.557-.3 34.588 34.588 0 0 0 4.528-.925 35.508 35.508 0 0 0 4.2-1.454c1.41-.6 2.757-1.276 4.004-2.01a35.928 35.928 0 0 0 3.683-2.488 35.011 35.011 0 0 0 3.32-2.933 35.835 35.835 0 0 0 2.855-3.248 34.734 34.734 0 0 0 2.536-3.786 35.708 35.708 0 0 0 1.91-3.833 34.413 34.413 0 0 0 1.49-4.336c.386-1.436.684-2.914.886-4.392a35.23 35.23 0 0 0 .3-4.58 36.055 36.055 0 0 0-.303-4.586A34.711 34.711 0 0 0 90.63 48a35.393 35.393 0 0 0-1.482-4.257l.016.045a33.88 33.88 0 0 0-1.974-3.93 35.784 35.784 0 0 0-2.41-3.58l-.018-.024-.014-.018-.009-.011a34.911 34.911 0 0 0-6.185-6.192 34.806 34.806 0 0 0-3.749-2.523 35.557 35.557 0 0 0-3.899-1.951 34.424 34.424 0 0 0-4.297-1.482 35.505 35.505 0 0 0-4.439-.9 35.534 35.534 0 0 0-4.569-.3Z"/>
        <path fill="#3F83F5" d="M58.552 81.002 58.436 81c-2.786-.02-5.456-.536-7.935-1.535a21.805 21.805 0 0 1-3.558-1.82 22.044 22.044 0 0 1-3.178-2.451 21.627 21.627 0 0 1-6.162-10.18 21.626 21.626 0 0 1 .225-12.008c.41-1.307.928-2.553 1.54-3.702a21.665 21.665 0 0 1 3.024-4.317.233.233 0 0 1 .06-.217 21.859 21.859 0 0 1 5.898-4.595 22.131 22.131 0 0 1 1.772-.837 21.238 21.238 0 0 1 3.818-1.196 21.708 21.708 0 0 1 8.15-.17c1.362.232 2.683.587 3.924 1.056a21.87 21.87 0 0 1 3.587 1.732c2.336 1.412 4.34 3.188 5.958 5.28a21.675 21.675 0 0 1 2.152 3.35 21.61 21.61 0 0 1 1.51 3.73 21.875 21.875 0 0 1 .83 8.042 21.673 21.673 0 0 1-.725 4.03 21.563 21.563 0 0 1-3.588 7.211 21.976 21.976 0 0 1-2.674 2.936c-.988.9-2.038 1.698-3.12 2.374a21.769 21.769 0 0 1-3.542 1.787 21.189 21.189 0 0 1-3.902 1.125 22.223 22.223 0 0 1-3.948.376Zm.311-47.264h-.041a25.896 25.896 0 0 0-3.284.215c-1.102.151-2.175.37-3.19.65-1.04.287-2.069.64-3.055 1.052l-.007.004-.036.014a.12.12 0 0 0 .028-.01 24.75 24.75 0 0 0-2.927 1.468 25.944 25.944 0 0 0-2.613 1.763A24.97 24.97 0 0 0 39.33 43.3c-.22.285-.44.584-.655.889a.245.245 0 0 1-.171.114c-.329.478-.64.968-.927 1.458a25.605 25.605 0 0 0-1.44 2.86 24.7 24.7 0 0 0-1.722 6.298 25.488 25.488 0 0 0-.219 3.33 25.49 25.49 0 0 0 .216 3.258 24.732 24.732 0 0 0 1.71 6.273 24.667 24.667 0 0 0 5.311 7.858 25.906 25.906 0 0 0 2.35 2.061 24.721 24.721 0 0 0 5.433 3.162c1.022.426 2.05.78 3.057 1.051 1.052.284 2.127.503 3.198.65 1.101.143 2.21.216 3.3.216h.05a25.482 25.482 0 0 0 3.26-.217 24.78 24.78 0 0 0 3.21-.656 25.358 25.358 0 0 0 2.989-1.031 24.889 24.889 0 0 0 2.893-1.45c.883-.52 1.745-1.1 2.564-1.726a25.404 25.404 0 0 0 2.364-2.07 25.53 25.53 0 0 0 2.113-2.388 24.926 24.926 0 0 0 1.795-2.671c.521-.9.992-1.842 1.399-2.8a24.733 24.733 0 0 0 1.698-12.857 24.785 24.785 0 0 0-1.692-6.201l.003.015-.01-.03-.004-.012a24.351 24.351 0 0 0-3.156-5.394l-.01-.014-.007-.008a25.415 25.415 0 0 0-2.103-2.38 25.687 25.687 0 0 0-2.329-2.05 24.791 24.791 0 0 0-5.424-3.171 24.59 24.59 0 0 0-6.21-1.705 25.18 25.18 0 0 0-3.3-.224Z"/>
        <path fill="#4188FF" d="M58.458 38.212h-.101c-.946.005-1.887.068-2.797.187a21.231 21.231 0 0 0-5.398 1.476l-.008.003-.01.004a21.703 21.703 0 0 0-4.689 2.74l-.008.007a22.128 22.128 0 0 0-2.677 2.46.208.208 0 0 1-.19.063c-.337.377-.666.773-.98 1.175a21.542 21.542 0 0 0-2.781 4.766 21.198 21.198 0 0 0-1.461 5.373 21.982 21.982 0 0 0-.003 5.693 21.437 21.437 0 0 0 1.472 5.424 21.235 21.235 0 0 0 4.584 6.802c.635.63 1.31 1.226 2.01 1.77a21.56 21.56 0 0 0 4.663 2.732 21.523 21.523 0 0 0 5.402 1.485 21.981 21.981 0 0 0 5.706.01 21.404 21.404 0 0 0 5.437-1.48 21.37 21.37 0 0 0 6.77-4.567 22.367 22.367 0 0 0 1.797-2.043l-.015.015a20.969 20.969 0 0 0 1.515-2.242 22 22 0 0 0 1.227-2.44 21.217 21.217 0 0 0 1.473-5.38c.128-.97.192-1.94.19-2.884a22.089 22.089 0 0 0-.188-2.83 21.4 21.4 0 0 0-1.473-5.382 21.517 21.517 0 0 0-2.73-4.677 21.938 21.938 0 0 0-1.808-2.058 22.257 22.257 0 0 0-2.043-1.804 21.403 21.403 0 0 0-4.685-2.739 21.24 21.24 0 0 0-8.2-1.66Z"/>
        <path fill="#F2E24D" d="m38.927 83.67-.006-.36a.243.243 0 0 0 .02.049c.03.064.07.14.142.273h-.01a1.703 1.703 0 0 0-.145.035l-.001.002Zm-.344-2.262a.29.29 0 0 0-.248.144.31.31 0 0 0-.03.22l.004.033c.022.294.03.594.039.884v.05l.001.018v.016c.008.3.013.6.018.901l.003.139v.016a29.23 29.23 0 0 0-.535.148l-.077.022-.11.03a4.745 4.745 0 0 0-.2.064l-.014.004-.05.017-.079.025-.677.217a25.86 25.86 0 0 0-.507.167c-.255.086-.467.164-.649.238-.196.08-.427.179-.651.309a1.766 1.766 0 0 0-.312.222.598.598 0 0 0-.098.142.318.318 0 0 0-.034.246.336.336 0 0 0 .143.188c.109.078.242.106.37.133l.037.008.14.03.118.025a72.257 72.257 0 0 1 1.91.442l.037.01.015.003c.126.032.251.064.376.094l.24.058.297.071c.024.007.049.012.073.018l.009.002.04.01.038.008c.06.013.12.028.179.043a12.06 12.06 0 0 0-.005.39c0 .428-.002.856-.004 1.284-.12.148-.228.276-.33.392a.336.336 0 0 0-.097.23c0 .085.035.17.096.231a.33.33 0 0 0 .344.075l.001.011a.267.267 0 0 0 .258.186.28.28 0 0 0 .278-.276v-.101c0-.133.002-.265.003-.397l.06-.076a54.275 54.275 0 0 0 .87-1.124l.257-.338.014.007.08.026c.368.118.745.257 1.121.413l.008.003.009.002.015.008.01.005c.142.06.332.14.502.226l.255.128.153.076a61.965 61.965 0 0 1 .695.353l.035.017.024.012.054.028.018.01c.112.057.236.12.352.183l.204.112.205.112c.052.029.106.061.162.098.05.033.102.055.157.079l.033.013c.038.01.08.018.126.022a.48.48 0 0 0 .137-.025.321.321 0 0 0 .19-.146.303.303 0 0 0 .032-.246 1.465 1.465 0 0 0-.07-.178 1.38 1.38 0 0 0-.126-.169 1.597 1.597 0 0 0-.236-.21l-.051-.042-.195-.153-.094-.073a29.51 29.51 0 0 0-.382-.295l-.106-.081a94.23 94.23 0 0 1-.879-.695 15.573 15.573 0 0 1-.954-.832 7.888 7.888 0 0 1-.313-.311l.176-.211.18-.224c.146-.18.308-.363.426-.497l.009-.01.01-.012.048-.054.138-.158c.186-.215.392-.434.528-.579l.011-.012.114-.12c.085-.092.17-.18.262-.271l.228-.23.101-.097.006-.006.01-.01c.052-.049.1-.095.143-.142a.864.864 0 0 0 .128-.186.33.33 0 0 0 0-.328.317.317 0 0 0-.275-.16.581.581 0 0 0-.092.01 5.686 5.686 0 0 0-.448.096l-.014.003-.057.014a44.882 44.882 0 0 0-1.485.386l-.036.01-.144.04-.048.012-.012.004-.033.009-.075.02c-.487.132-.965.262-1.445.387-.272-.49-.476-.895-.639-1.27a4.576 4.576 0 0 1-.109-.295 1.705 1.705 0 0 1-.05-.236l-.009-.049a.28.28 0 0 0-.134-.173.283.283 0 0 0-.145-.04Z"/>
        <path fill="#F2E24D" d="M38.918 83.3c-.068.06-.09.147-.103.234a.284.284 0 0 0-.011.04c-.008.04-.013.08-.017.121a.719.719 0 0 0-.007.052.258.258 0 0 0 .006.084h.001a.214.214 0 0 0 .122.14.207.207 0 0 0 .369-.01.193.193 0 0 0 .107-.026c.086-.05.128-.177.07-.264l-.11-.163c-.045-.07-.086-.156-.15-.209a.208.208 0 0 0-.138-.057.204.204 0 0 0-.139.057zm-6.035-63.814a.6.6 0 0 0-.067.004l-.087.012a.354.354 0 0 0-.148.086c-.054.055-.108.152-.096.235l.007.057a1.07 1.07 0 0 0 .061.277l.031.084.006.015.033.086.058.163.058.163.107.306.033.093.024.07c.098.281.195.57.29.849l.01.033.012.032.043.128c.076.226.158.478.25.77l-.11.059-.026.014-.01.005a132.244 132.244 0 0 1-2.026 1.137l-.05.027-.013.007-.031.017-.017.01c-.162.089-.33.181-.497.27l-.182.095-.343.182-.242.125c-.088.045-.175.09-.261.136-.101.053-.194.117-.269.168-.14.096-.202.238-.162.38a.33.33 0 0 0 .152.196l.077.033c.031.01.061.014.089.014a.317.317 0 0 0 .088-.014 2.35 2.35 0 0 0 .25-.055l.108-.028.141-.035.115-.029.213-.05.04-.009.05-.011.11-.025.14-.033.015-.003.013-.004.029-.006c.144-.034.341-.08.521-.113l.464-.09.079-.015.075-.015c.07-.014.14-.028.21-.039l.244-.038.651-.101a12.866 12.866 0 0 1 .99-.087l.087.324.092.331c.103.368.204.735.304 1.102l-.01.03a5.517 5.517 0 0 1-.185.572l-.006.016c-.026.07-.052.137-.075.206-.045.128.022.293.149.367a.324.324 0 0 0 .432-.097.157.157 0 0 0 .014.05.324.324 0 0 0 .385.185.333.333 0 0 0 .232-.408l-.048-.175-.2-.75c.026-.082.055-.162.098-.275a12.315 12.315 0 0 1 .74-1.407c.051.007.103.013.164.023l.068.01.33.043.33.042.042.007c.48.074.978.15 1.447.33l.221.1.03.014.138.063.032.015.03.014c.048.021.095.044.143.066.036.029.074.057.112.085l.069.05c.02.016.041.03.063.045l.027.018.04.027c.068.048.14.079.215.108.03.01.06.014.089.014a.33.33 0 0 0 .286-.166.338.338 0 0 0-.052-.401c-.153-.171-.354-.278-.53-.36l-.065-.053-.082-.064v.01l-.084-.069-.124-.102c-.568-.454-1.018-.815-1.433-1.15a5.974 5.974 0 0 1-.255-.22l-.029-.025-.043-.038-.05-.043-.05-.045.01-.005.024-.037.042-.064.015-.021.024-.037.006-.008.008-.012c.05-.073.116-.173.183-.265a44 44 0 0 1 .707-.947l.375-.489.435-.566.004-.006.005-.01c.062-.076.114-.144.164-.213.066-.09.118-.186.17-.279l.006-.013.012-.023a.335.335 0 0 0 .034-.255.33.33 0 0 0-.231-.23.38.38 0 0 0-.15-.031.467.467 0 0 0-.21.053 1.647 1.647 0 0 0-.077.042c-.025.014-.05.029-.077.042l-.064.03a38.847 38.847 0 0 0-1.517.793l-.271.149-.034.018c-.182.1-.397.219-.605.338l-.37.211-.371.212-.012-.018-.01-.009-.517-.504-.41-.398-.41-.398c-.11-.108-.221-.215-.33-.325l-.013-.012-.012-.012c-.1-.1-.251-.252-.4-.384a3.118 3.118 0 0 1-.062-.058 1.035 1.035 0 0 0-.148-.124.546.546 0 0 0-.159-.077.346.346 0 0 0-.102-.015zm46.41 10.725a.196.196 0 0 0-.056.01.204.204 0 0 0-.145.143c-.02.097-.03.195-.038.29l-.007.073a5.69 5.69 0 0 1-.013.13l-.004.029-.007.057a.22.22 0 0 0-.005.04l-.032.268-.014.103-.04.306-.04.294a37.234 37.234 0 0 1-.19 1.207c-.364.059-.75.134-1.058.195l-.026.005-.012.002-.018.003-.311.061c-.152.03-.303.066-.457.103l-.01.003-.011.002-.01.003-.086.02-.07.016-.077.017-.091.02-.02.006a5.851 5.851 0 0 0-.71.203c-.07.024-.156.058-.27.108a.767.767 0 0 0-.233.162.316.316 0 0 0-.092.221l.011.082c.016.053.043.1.081.14.082.097.212.13.327.16l.023.005a3.887 3.887 0 0 0 .187.045c.126.032.247.064.37.098l.02.006.011.003c.207.058.49.139.76.223l.975.31.361.116-.087.385-.085.393-.042.195-.043.2a14.1 14.1 0 0 1-.137.567l-.004.017-.024.092a13.22 13.22 0 0 1-.418.437.328.328 0 0 0 0 .458.326.326 0 0 0 .459 0c.11-.112.22-.233.3-.321l.007-.007.013-.015.005-.006c.072-.08.145-.16.219-.238.11-.118.242-.23.338-.31l.006-.005a8.52 8.52 0 0 0 .213-.184c.246-.224.504-.469.711-.665l.03-.028.032-.03.018-.018.016-.015.046-.043.3-.285.014-.014.013.006.063.017.077.022c.206.058.43.12.651.186.09.027.173.056.278.092l.11.038.14.05.074.025.032.011.114.04c.231.082.479.174.712.261l.02.007.01.004.083.03.354.16c.04.017.078.035.116.054l.048.023.044.021.045.021c.03.015.067.03.097.043a.461.461 0 0 0 .18.037.3.3 0 0 0 .285-.212c.02-.07.022-.124.005-.165l-.006-.016a.438.438 0 0 0-.047-.1c-.04-.065-.094-.121-.146-.176l-.015-.016-.037-.039c-.088-.095-.175-.19-.26-.288a64.847 64.847 0 0 1-1.393-1.637l.018-.012.236-.202c.12-.105.242-.207.363-.31l.021-.017.042-.035.162-.137c.124-.106.253-.21.39-.322l.024-.02.016-.013.213-.174a12.038 12.038 0 0 0 .393-.34l.02-.018c.064-.057.126-.112.186-.169a.728.728 0 0 1 .05-.043l.033-.027a.45.45 0 0 0 .074-.086l.007-.01.015-.019a.417.417 0 0 0 .056-.193 1.203 1.203 0 0 0-.015-.105.35.35 0 0 0-.085-.145.298.298 0 0 0-.155-.097.377.377 0 0 0-.196 0 .846.846 0 0 0-.092.033l-.013.005-.042.016a6.13 6.13 0 0 1-.222.077c-.107.034-.218.065-.336.098l-.012.004-.021.006-.034.009a21.446 21.446 0 0 1-.946.237l-.015.004-.034.008c-.151.036-.34.08-.515.115l-.23.047c-.13.028-.323.07-.511.102-.15-.279-.3-.577-.457-.91-.126-.27-.249-.559-.347-.79l-.009-.02-.008-.018-.032-.078-.067-.155c-.017-.04-.032-.081-.048-.122l-.007-.018-.01-.023a4.984 4.984 0 0 0-.043-.108 2.066 2.066 0 0 0-.077-.17.703.703 0 0 0-.097-.139.194.194 0 0 0-.15-.063zM65.135 13.72a5.326 5.326 0 0 0-.038-.262l-.004-.017-.002-.01.008.011.012.015.233.217h-.012l-.022.002-.119.03-.056.014zm-.664-1.499h-.012c-.109.008-.19.054-.235.134a.255.255 0 0 0 0 .268c.043.067.076.125.106.181.02.041.038.082.057.124.03.082.06.164.088.247.074.225.121.422.145.604l.01.081h-.006a.225.225 0 0 0-.067.011l-.019.004-.025.007-.02.006-.061.017-.078.021-.144.04-.335.09a5.176 5.176 0 0 0-.268.083 7.038 7.038 0 0 1-.228.072l-.016.005-.011.004a3.84 3.84 0 0 0-.22.071l-.492.176c-.083.03-.171.066-.242.096l-.01.005-.015.006-.01.004-.02.009-.018.007a4.385 4.385 0 0 1-.276.108l-.02.008a1.443 1.443 0 0 0-.23.097.509.509 0 0 0-.082.054l-.015.012-.032.025c-.074.06-.112.17-.13.25a.335.335 0 0 0 .153.367c.049.03.103.045.162.045.331.04.69.054.95.065h.02l.037.003c.184.007.363.015.544.027l.544.037.222.015c.075.005.155.016.224.025l.019.003a50.005 50.005 0 0 1 .408.05l.043.655.033.384-.048.047-.053.053-.06.059-.005.005-.005.006-.005.005-.006.005-.005.006c-.155.154-.385.384-.607.57a.325.325 0 0 0 0 .463.335.335 0 0 0 .232.096 5.72 5.72 0 0 0 .083-.012.35.35 0 0 0 .149-.084c.214-.171.406-.355.6-.544.007.005.014.006.025.006.07 0 .144-.034.195-.09a.223.223 0 0 0 .064-.168l-.002-.015v-.016a52.36 52.36 0 0 0 1.094-1.1l.03.013.036.009.262.06.26.06c.092.022.19.048.269.069l.03.008.144.039.126.031.01.003.023.006c.087.022.165.042.243.064l.514.15.17.048.057.016a3.498 3.498 0 0 1 .211.065.77.77 0 0 0 .122.013h.011c.087 0 .149-.047.21-.093a.292.292 0 0 0 .093-.215.3.3 0 0 0-.15-.255l-.094-.06-.008-.005a4.732 4.732 0 0 1-.417-.29l-.175-.134c-.187-.145-.374-.3-.548-.445l-.16-.132-.2-.166.016-.005.01-.005.036-.036.045-.048.175-.186.237-.252.238-.253.17-.183.027-.03.027-.029.027-.029c.102-.113.183-.21.248-.297a1.499 1.499 0 0 0 .169-.279l.01-.021.012-.024.015-.03a.327.327 0 0 0-.05-.402l-.018-.013-.007-.006c-.04-.03-.067-.051-.1-.068l-.076-.033a.333.333 0 0 0-.09-.013.337.337 0 0 0-.09.013.564.564 0 0 0-.093.023l-.017.006-.05.015-.158.05-.034.01c-.158.051-.304.096-.446.138-.306.089-.62.177-.899.256l-.01.003a59.39 59.39 0 0 1-.988.264l-.109-.111-.067-.063-.107-.098-.072-.067-.022-.02-.02-.02a24.285 24.285 0 0 1-.303-.281l-.318-.303-.01-.008a3.464 3.464 0 0 1-.086-.085 4.014 4.014 0 0 1-.055-.06.705.705 0 0 0-.107-.098.348.348 0 0 0-.203-.076z"/>
        <path fill="#F2E24D" d="M65.175 13.307a.042.042 0 0 0-.029.024h-.002a.085.085 0 0 0-.04.026.06.06 0 0 0-.017.013.08.08 0 0 0-.022.036.27.27 0 0 0-.004.035v.029c0 .019.003.038.005.057l.001.015a.956.956 0 0 0 .008.115.086.086 0 0 0 .105.083.9.9 0 0 0 .012.024.222.222 0 0 0 .031.046.073.073 0 0 0 .055.027c.033 0 .059-.029.06-.06v-.007a.1.1 0 0 0 .07.002.134.134 0 0 0 .037-.02.103.103 0 0 0 .06-.068.104.104 0 0 0-.01-.078.11.11 0 0 0-.06-.047.099.099 0 0 0-.024-.005.087.087 0 0 0-.053-.034.099.099 0 0 0-.027-.003.92.92 0 0 0-.044-.094.248.248 0 0 0-.053-.072l-.002-.011c-.003-.021-.025-.034-.046-.034l-.01.001zm23.472 64.69a.291.291 0 0 0-.283.21 1.23 1.23 0 0 0-.04.336c.003.047.01.097.015.137l.002.02.008.063.01.095.021.2.04.375.004.035.03.281-.197.034-.037.006c-.236.045-.483.098-.663.136l-.01.002-.207.044-.03.006-.037.008c-.141.03-.285.061-.426.094a3.15 3.15 0 0 0-.636.204 2.9 2.9 0 0 0-.18.092l-.007.004c-.025.014-.05.028-.075.04a1.84 1.84 0 0 0-.313.221c-.062.05-.09.144-.09.215l.011.08c.014.05.04.096.079.135.097.124.262.163.408.198l.019.004.133.033.082.02.432.101.853.203.115.027.022.005c.1.024.195.045.288.07l.512.138.176.047.053.575-.013.008-.017.014-.295.234-.14.11-.05.04c-.205.163-.41.325-.616.486a9.15 9.15 0 0 1-.376.275.336.336 0 0 0-.147.19.32.32 0 0 0 .033.246c.056.096.17.16.283.16a.273.273 0 0 0 .153-.046c.273-.181.531-.39.78-.59l.043-.034.218-.175.218-.175c.012.183.028.37.046.561l.013.148a.28.28 0 0 0 .079.188c.05.05.118.079.188.079a.27.27 0 0 0 .189-.079.256.256 0 0 0 .077-.188l-.1-1.102.394-.31.243-.194.008-.006c.093.035.185.071.289.114.262.112.517.23.756.349a12.146 12.146 0 0 1 1.051.61l.013.008.008.005.01.007c.097.062.197.127.298.185a.318.318 0 0 0 .465-.19.307.307 0 0 0-.032-.244 5.15 5.15 0 0 0-.215-.278l-.068-.083a65.524 65.524 0 0 1-.57-.727l-.062-.078-.063-.082.014.029-.064-.092a28.86 28.86 0 0 1-.415-.552l-.035-.048-.048-.065.073-.06.073-.066.464-.417.118-.105.007-.008c.085-.074.163-.144.24-.214.09-.083.174-.17.252-.26.064-.076.116-.16.161-.235l.039-.061a.298.298 0 0 0 .017-.272.293.293 0 0 0-.202-.18 1.265 1.265 0 0 0-.336-.04c-.035.002-.07.006-.104.01a167.671 167.671 0 0 0-.737.061l-.15.014c-.197.017-.396.038-.607.06l-.024.002-.015.001c-.084.01-.169.018-.254.027a5.761 5.761 0 0 0-.234.03 21.968 21.968 0 0 0-.255-.354l-.01-.014a94.749 94.749 0 0 1-.2-.273c-.088-.121-.179-.24-.294-.384a2.19 2.19 0 0 0-.198-.214 1.366 1.366 0 0 0-.232-.163 7.262 7.262 0 0 1-.077-.047.255.255 0 0 0-.14-.04z"/>
        <path fill="#FFF" d="M49.31 23.559a1.176 1.176 0 0 0-.51.108.94.94 0 0 0-.384.326l-.014.017c-.058.078-.092.164-.128.255a.205.205 0 0 0-.004.127.057.057 0 0 0-.017-.002.188.188 0 0 0-.18.137l-.021.077a8.809 8.809 0 0 0-.1.412 1.905 1.905 0 0 0-.034.241c-.007.083 0 .15.02.21a.62.62 0 0 0 .125.202c.024.027.056.05.09.075.036.025.074.048.12.073.13.07.264.124.413.181.162.064.326.11.487.14.112.02.212.029.306.029a1.191 1.191 0 0 0 .382-.062 2.14 2.14 0 0 0 .249-.106c.13-.064.25-.144.357-.239a.983.983 0 0 0 .15-.178 1.465 1.465 0 0 0 .19-.44c.019-.078.026-.16.032-.237a.962.962 0 0 0-.098-.465c-.092-.202-.253-.357-.382-.47a1.434 1.434 0 0 0-.447-.276 1.645 1.645 0 0 0-.342-.11 1.32 1.32 0 0 0-.26-.025zm43.96 15.665h-.004a2.52 2.52 0 0 0-.363.034c-.14.02-.273.06-.396.115-.12.055-.233.132-.345.238a1.325 1.325 0 0 0-.245.338c-.07.127-.13.27-.18.424a1.267 1.267 0 0 0-.06.417 1.044 1.044 0 0 0 .433.792c.055.041.126.07.189.095l.007.003a1.848 1.848 0 0 0 .84.142c.123-.009.244-.025.372-.05a2.302 2.302 0 0 0 .533-.179l.011-.005c.09-.043.165-.097.233-.15a1.112 1.112 0 0 0 .382-.83 1.344 1.344 0 0 0-.096-.541l-.007-.018c-.035-.1-.088-.192-.139-.282l-.018-.031a1.902 1.902 0 0 0-.206-.296.22.22 0 0 0-.187-.064.177.177 0 0 0-.17-.141l-.12-.004c-.09-.003-.178-.006-.267-.006h-.197zM51.65 89.507c-.09 0-.18.01-.273.029a.225.225 0 0 0-.165.167c-.037.014-.074.03-.11.045a3.208 3.208 0 0 0-.208.097.988.988 0 0 0-.229.162.945.945 0 0 0-.133.171.905.905 0 0 0-.092.188.73.73 0 0 0-.046.24c-.002.087.015.178.03.265l.006.029a.951.951 0 0 0 .112.299c.016.027.037.052.057.077l.02.025c.056.072.123.137.189.2l.036.035c.09.086.193.164.298.224.188.107.405.181.683.235a1.703 1.703 0 0 0 .217.026.704.704 0 0 0 .175-.022c.068-.018.134-.05.198-.082l.013-.007a1.2 1.2 0 0 0 .233-.158c.125-.104.19-.257.24-.393.025-.066.047-.143.065-.23.027-.127.055-.254.043-.383a1.278 1.278 0 0 0-.086-.345 1.34 1.34 0 0 0-.26-.423 1.294 1.294 0 0 0-.18-.16 1.653 1.653 0 0 0-.234-.154 1.66 1.66 0 0 0-.276-.109c-.1-.032-.21-.048-.324-.048zm44.207-11.486a.918.918 0 0 0-.316.054 1.209 1.209 0 0 0-.371.217l-.062.055a.635.635 0 0 0-.078.095l-.017.024a.217.217 0 0 0 .033.26.207.207 0 0 0 .118.06c-.026.032-.05.067-.074.101l-.008.012a1 1 0 0 0-.176.43.436.436 0 0 0 .02.196.586.586 0 0 0 .112.182.9.9 0 0 0 .214.175 1.236 1.236 0 0 0 .345.172c.067.025.14.033.21.041l.028.004c.038.004.075.006.112.008h.024a1.393 1.393 0 0 0 .377-.03.887.887 0 0 0 .428-.255.676.676 0 0 0 .114-.169 1.3 1.3 0 0 0 .095-.245 1.27 1.27 0 0 0 .036-.258 1.45 1.45 0 0 0-.045-.358 1.076 1.076 0 0 0-.077-.19l-.004-.01a.805.805 0 0 0-.17-.232c-.127-.121-.294-.19-.441-.252a1.121 1.121 0 0 0-.427-.087zM51.732 70.3h-.017a.864.864 0 0 0-.345.077.928.928 0 0 0-.39.371.19.19 0 0 0 .026.225c-.032.065-.061.13-.088.192a2.017 2.017 0 0 0-.134.399.813.813 0 0 0 .016.417c.009.026.02.05.032.075l.009.02c.012.027.032.05.052.073l.014.016c.025.028.062.054.092.076.039.027.08.05.117.07.146.082.275.127.407.142a.86.86 0 0 0 .451-.078 1.099 1.099 0 0 0 .429-.347c.022-.027.043-.056.063-.085.022-.031.036-.068.05-.104l.008-.022c.023-.06.04-.123.055-.184l.01-.04c.012-.047.02-.095.028-.142l.003-.018a1.377 1.377 0 0 0-.019-.579.746.746 0 0 0-.178-.321.619.619 0 0 0-.11-.088l-.01-.006a.769.769 0 0 0-.164-.076l-.012-.004a1.026 1.026 0 0 0-.231-.048 1.31 1.31 0 0 0-.164-.011zm2.951 1.23c0 .178.148.326.326.326a.328.328 0 0 0 .325-.325.328.328 0 0 0-.325-.326.329.329 0 0 0-.326.326zm-1.358 2.12c0 .177.148.325.326.325a.329.329 0 0 0 .325-.326.328.328 0 0 0-.325-.325.328.328 0 0 0-.326.325zm2.155.122c0 .134.111.246.245.246a.248.248 0 0 0 .246-.246.248.248 0 0 0-.246-.246.248.248 0 0 0-.245.246zm35.395-38.707c0 .177.148.325.326.325a.329.329 0 0 0 .325-.325.328.328 0 0 0-.325-.325.328.328 0 0 0-.326.325zm2.647-.43c0 .172.143.316.315.316a.318.318 0 0 0 .315-.315.318.318 0 0 0-.315-.316.318.318 0 0 0-.315.316zm2.472 1.608c0 .149.125.273.274.273a.276.276 0 0 0 .273-.273.276.276 0 0 0-.273-.273.276.276 0 0 0-.274.273zM58.645 17.922c0 .177.148.325.325.325a.329.329 0 0 0 .326-.325.329.329 0 0 0-.326-.326.329.329 0 0 0-.325.326zm3.246.227c0 .155.13.285.284.285.155 0 .285-.13.285-.285a.287.287 0 0 0-.285-.284.287.287 0 0 0-.284.284zm-1.447 2.742a.33.33 0 0 0 .325.326.329.329 0 0 0 .326-.326.328.328 0 0 0-.326-.325.329.329 0 0 0-.325.325zm3.321-.925c0 .15.125.274.274.274.15 0 .274-.125.274-.274a.277.277 0 0 0-.274-.274.277.277 0 0 0-.274.274zm-44.93 20.31c0 .128.107.234.235.234a.236.236 0 0 0 .234-.234.236.236 0 0 0-.234-.233.236.236 0 0 0-.234.233zm2.765-.127c0 .177.148.325.326.325a.328.328 0 0 0 .325-.325.328.328 0 0 0-.325-.326.329.329 0 0 0-.326.326zm-.79 2.328c0 .156.13.287.287.287a.29.29 0 0 0 .287-.287.29.29 0 0 0-.287-.288.29.29 0 0 0-.288.288zm-.291-4.115c0 .142.118.26.26.26.141 0 .26-.118.26-.26a.262.262 0 0 0-.26-.26.262.262 0 0 0-.26.26zM79.65 87.646c0 .178.148.326.325.326a.329.329 0 0 0 .326-.326.329.329 0 0 0-.326-.325.329.329 0 0 0-.325.325zm2.777-.26c0 .171.143.314.315.314a.317.317 0 0 0 .314-.314.317.317 0 0 0-.314-.315.317.317 0 0 0-.315.315zM76.86 74.568c0 .177.148.325.325.325a.329.329 0 0 0 .326-.325.329.329 0 0 0-.326-.326.328.328 0 0 0-.325.326zm3.063-.94c0 .157.131.289.29.289a.292.292 0 0 0 .288-.29.292.292 0 0 0-.289-.289.292.292 0 0 0-.29.29zm-57.839-.164c0 .145.121.266.266.266a.268.268 0 0 0 .266-.266.268.268 0 0 0-.266-.266.268.268 0 0 0-.266.266zM21.58 76.1c0 .132.11.242.242.242.131 0 .241-.11.241-.242a.244.244 0 0 0-.241-.242.244.244 0 0 0-.242.242zm2.738-.534c0 .177.148.325.325.325a.328.328 0 0 0 .326-.325.328.328 0 0 0-.326-.326.328.328 0 0 0-.325.326zm.668-1.794c0 .132.11.243.243.243s.243-.11.243-.243a.245.245 0 0 0-.243-.243.245.245 0 0 0-.243.243z"/>
        <path fill="#D76FDA" d="M29.742 13.2a.302.302 0 0 0-.139.181 7.306 7.306 0 0 0-.01.08.3.3 0 0 0 .04.152c.08.179.182.346.278.515.087.153.178.305.267.457l.539.917c.411.702.826 1.402 1.24 2.103.041.071.083.143.126.214.09.153.291.207.445.117a.329.329 0 0 0 .117-.446c-.45-.761-.9-1.522-1.348-2.284-.174-.297-.347-.594-.522-.89-.184-.311-.365-.622-.562-.924-.018-.029-.039-.056-.059-.083a.324.324 0 0 0-.18-.138.302.302 0 0 0-.232.03zm5.835-1.225c-.018.08-.035.158-.044.24l-.015.155a4.378 4.378 0 0 0-.017.217c-.008.16-.017.322-.024.484l-.04 1.036a1968.564 1968.564 0 0 1-.142 3.946c-.007.177.152.325.325.325a.33.33 0 0 0 .326-.325c.06-1.668.116-3.336.183-5.004.013-.331.024-.663.04-.994a.302.302 0 0 0-.298-.3c-.132 0-.264.086-.294.22zm5.586.564a.403.403 0 0 0-.232.155 3.21 3.21 0 0 0-.19.254l-.148.228-.218.34c-.161.255-.322.51-.482.767-.353.566-.704 1.134-1.056 1.701-.327.53-.655 1.058-.983 1.587a.276.276 0 0 0 .098.374.276.276 0 0 0 .374-.098l1.475-2.373c.284-.456.568-.911.859-1.363l.299-.464c.108-.17.22-.338.34-.5.02-.025.04-.05.064-.074a.277.277 0 0 0 .125-.112.29.29 0 0 0-.104-.393.309.309 0 0 0-.15-.041.208.208 0 0 0-.071.012zm4.855 4.264c-.708.282-1.404.596-2.103.9-.678.296-1.355.594-2.032.892l-1.436.632c-.073.032-.13.12-.15.194a.328.328 0 0 0 .227.4l.087.012a.324.324 0 0 0 .165-.044c1.484-.653 2.973-1.3 4.45-1.969.342-.155.684-.309 1.022-.471.12-.057.171-.216.138-.337a.303.303 0 0 0-.294-.222.2.2 0 0 0-.074.013zm-4.461 5.631a.327.327 0 0 0-.117.446c.038.065.116.138.194.15l2.349.33c.337.049.674.096 1.01.146.174.025.348.051.522.073.178.022.356.044.535.049a.305.305 0 0 0 .262-.457c-.036-.062-.107-.127-.181-.14-.656-.113-1.316-.204-1.976-.298-.782-.111-1.565-.22-2.348-.332a8.174 8.174 0 0 1-.086-.011.322.322 0 0 0-.164.044zM40.5 27.642a.329.329 0 0 0-.117.445c.36.632.72 1.262 1.075 1.895l.443.787.244.44.107.197c.046.083.095.166.137.252l.015.05a.307.307 0 0 0 .514.136c.052-.053.1-.142.09-.218a.67.67 0 0 0-.073-.29 2.915 2.915 0 0 0-.073-.152l-.134-.256c-.071-.135-.146-.267-.219-.4-.155-.281-.313-.56-.47-.841-.361-.645-.729-1.286-1.093-1.929a.325.325 0 0 0-.283-.16.32.32 0 0 0-.163.044zm-2.64 1.419a.312.312 0 0 0-.186.143.326.326 0 0 0-.031.24c.135.667.265 1.335.395 2.003.052.262.09.527.136.79.038.224.073.449.105.673.02.158.035.316.017.474a.28.28 0 0 0 .206.271c.154.042.297-.051.346-.196l.029-.093.006-.045a1.622 1.622 0 0 0 .013-.378 3.61 3.61 0 0 0-.036-.326l-.07-.472c-.043-.281-.098-.561-.146-.841-.046-.265-.103-.528-.154-.792-.08-.412-.163-.823-.247-1.234-.029-.14-.169-.228-.305-.228a.29.29 0 0 0-.078.01zm-4.26 1.48a.32.32 0 0 0-.14.181c-.263.744-.524 1.487-.784 2.231-.096.275-.187.551-.28.827l-.11.325c-.07.205-.133.414-.211.616l-.016.036a.322.322 0 0 0-.03.23.3.3 0 0 0 .137.178.3.3 0 0 0 .408-.107c.044-.077.08-.154.113-.237.035-.088.062-.18.092-.269l.059-.173.137-.406c.095-.283.187-.567.285-.849.261-.747.522-1.494.786-2.24a.306.306 0 0 0-.446-.343zm-2.871-2.32c-.78.81-1.559 1.619-2.33 2.435l-.654.69-.316.332c-.178.187-.355.375-.556.538a1.44 1.44 0 0 1-.16.107l-.047.016a.25.25 0 0 0-.173.304.25.25 0 0 0 .304.172.812.812 0 0 0 .224-.088c.08-.047.153-.108.226-.166.148-.117.274-.259.402-.396.095-.101.186-.205.278-.307l.519-.57c.38-.416.765-.826 1.15-1.238.477-.51.96-1.015 1.442-1.52a.22.22 0 0 0 0-.31.221.221 0 0 0-.31 0zm-4.347-2.74a11.36 11.36 0 0 1-.476.402l-.163.122c-.057.043-.12.081-.178.122-.198.134-.423.223-.642.316a16.36 16.36 0 0 1-.48.184c-.17.062-.342.12-.513.18a17.59 17.59 0 0 0-.456.165 9.068 9.068 0 0 0-.272.109c-.111.046-.22.098-.33.147-.06.023-.12.041-.183.056-.122.028-.192.165-.16.282a.232.232 0 0 0 .281.16 1.208 1.208 0 0 0 .264-.098c.056-.027.109-.059.163-.087.07-.036.14-.07.211-.104.122-.059.248-.11.373-.163l-.048.02a27.9 27.9 0 0 1 .59-.237 13.424 13.424 0 0 0 .904-.395 2.655 2.655 0 0 0 .498-.281c.187-.135.366-.278.544-.424.1-.082.197-.17.294-.255.063-.057.057-.163 0-.22a.149.149 0 0 0-.107-.045.175.175 0 0 0-.114.045zm-3.001-5.666a.325.325 0 0 0-.237.31c0 .086.034.169.094.229.054.054.15.105.229.095a2.98 2.98 0 0 1 .708.012 7.394 7.394 0 0 1 .794.178c.25.069.492.166.732.262.276.11.553.219.83.327.135.052.272.095.408.143.158.056.32.103.48.153.168.053.354-.061.4-.227a.33.33 0 0 0-.228-.4c-.34-.107-.678-.216-1.01-.345-.337-.131-.674-.266-1.011-.397a4.399 4.399 0 0 0-.428-.144c-.084-.023-.168-.05-.254-.07l-.285-.062a4.992 4.992 0 0 0-.53-.08 2.785 2.785 0 0 0-.303-.017c-.13 0-.26.01-.39.033zm3.162-4.633a.32.32 0 0 0 .222.39.278.278 0 0 1 .038.012c.025.012.048.026.072.04.05.044.094.091.136.142.124.17.224.355.328.538.077.135.147.275.22.412.06.113.117.226.175.338.07.139.149.275.214.416.127.276.26.55.383.829.147.33.294.662.443.992.031.07.115.123.185.143a.312.312 0 0 0 .382-.217c.024-.087.004-.16-.032-.239-.149-.332-.292-.668-.445-.999l-.228-.494c-.056-.122-.109-.246-.17-.365-.163-.32-.326-.638-.493-.956-.076-.145-.157-.288-.237-.43a3.282 3.282 0 0 0-.287-.421 1.057 1.057 0 0 0-.237-.222 1.086 1.086 0 0 0-.279-.13.279.279 0 0 0-.084-.013c-.138 0-.268.1-.306.234zm60.598 57.405a.323.323 0 0 0-.09.219c-.032.5-.036 1.003-.042 1.504-.007.587-.001 1.175.005 1.763.002.17.14.311.312.311a.315.315 0 0 0 .312-.311 71.91 71.91 0 0 1-.004-1.763c.007-.501.012-1.003.033-1.504.008-.169-.146-.309-.308-.309a.311.311 0 0 0-.218.09zm7.486-1.872a.776.776 0 0 0-.15.123c-.045.048-.082.105-.12.157l-.072.096-.217.292-.304.414-.637.866-1.369 1.86-.91 1.238c-.049.067-.054.174-.033.251a.327.327 0 0 0 .4.228.351.351 0 0 0 .195-.15c1.004-1.365 2.009-2.728 3.011-4.094.174-.236.345-.476.523-.71a.416.416 0 0 1 .072-.067c.11-.092.118-.273.05-.39a.337.337 0 0 0-.284-.16.277.277 0 0 0-.155.046zm1.622 3.58c-.316.117-.61.284-.903.45-.285.161-.566.33-.847.5-.242.145-.48.298-.718.448-.397.25-.792.5-1.188.753a.33.33 0 0 0-.117.445c.087.148.296.212.446.116.386-.246.774-.491 1.162-.735.241-.152.481-.308.725-.455.27-.163.538-.326.808-.487.283-.168.564-.346.863-.487.12-.056.17-.217.137-.338a.302.302 0 0 0-.368-.21zm1.678 4.118c-.298.016-.597.016-.895.02l-.91.012c-.686.01-1.371.023-2.057.036a.33.33 0 0 0-.326.325c0 .175.148.329.326.326.686-.013 1.372-.022 2.057-.039.304-.007.607-.013.91-.025.325-.012.65-.026.973-.077a.294.294 0 0 0 .216-.284c0-.15-.126-.295-.28-.295h-.014zm-3.628 3.576a.301.301 0 0 0 .03.23c.041.07.103.11.178.137.605.212 1.211.42 1.811.646.528.199 1.058.393 1.58.607a.294.294 0 0 0 .33-.134c.04-.068.05-.15.03-.226a.282.282 0 0 0-.135-.174c-.527-.244-1.076-.44-1.62-.642-.609-.227-1.224-.439-1.837-.653a.244.244 0 0 0-.08-.014.311.311 0 0 0-.287.223zm-3.416 2.6a.327.327 0 0 0-.194.15c-.04.067-.064.174-.033.25.254.614.508 1.228.764 1.841l.348.838c.107.257.21.512.289.779a.321.321 0 0 0 .39.222.32.32 0 0 0 .19-.146.336.336 0 0 0 .033-.245c-.05-.263-.164-.51-.266-.757l-.348-.835c-.26-.623-.517-1.246-.774-1.87l-.033-.077a.324.324 0 0 0-.366-.15zm-3.295 1.915c-.023.632-.047 1.263-.068 1.895l-.027.833c-.008.27-.01.54-.03.81-.01.129.096.25.215.283.147.04.326-.05.36-.205.061-.28.076-.572.092-.857.017-.28.028-.56.039-.84.026-.64.047-1.28.07-1.92.007-.176-.153-.324-.325-.324a.33.33 0 0 0-.326.325zm-2.962-2.335c-.332.305-.665.608-.999.909-.335.301-.666.607-1.02.885-.216.164-.435.32-.68.434-.058.02-.115.037-.175.05-.127.026-.216.158-.216.283 0 .077.031.153.086.207.05.05.134.093.208.086.06-.006.119-.014.178-.022.055-.008.11-.029.161-.047.131-.045.26-.11.38-.18.23-.134.444-.299.652-.466.215-.172.422-.354.627-.538.421-.378.841-.757 1.258-1.14.13-.12.121-.34 0-.46a.315.315 0 0 0-.225-.094.349.349 0 0 0-.235.093zm-.709-2.47c-.326.08-.65.173-.972.267-.35.102-.7.205-1.05.312-.308.094-.614.192-.918.295-.16.055-.32.107-.48.165-.187.068-.373.14-.56.209a.34.34 0 0 0-.193.147.324.324 0 0 0-.032.248c.045.165.229.278.396.225.19-.06.375-.134.563-.201.158-.058.319-.11.478-.165.305-.104.612-.202.92-.295.349-.107.699-.21 1.05-.312.322-.094.645-.187.971-.266a.328.328 0 0 0 .228-.4.326.326 0 0 0-.319-.238.35.35 0 0 0-.082.01zm-3.844-3.194a.31.31 0 0 0-.112.424.3.3 0 0 0 .186.143c.581.103 1.16.218 1.741.327.247.046.493.095.741.135.38.062.76.123 1.14.181l.087.012a.325.325 0 0 0 .281-.49c-.038-.066-.115-.137-.194-.15-.38-.058-.76-.12-1.141-.18-.248-.04-.494-.09-.74-.136-.61-.114-1.218-.23-1.833-.308a.305.305 0 0 0-.156.042zm2.101-4.349a.315.315 0 0 0-.143.187.335.335 0 0 0 .031.24c.136.302.293.593.447.886.132.25.268.5.402.75.356.663.722 1.32 1.092 1.976a.329.329 0 0 0 .445.116.33.33 0 0 0 .117-.445c-.37-.655-.736-1.312-1.092-1.976l-.871-1.622a.304.304 0 0 0-.27-.153.31.31 0 0 0-.158.041z"/>
    </g>
</svg>
