<svg xmlns="http://www.w3.org/2000/svg" width="115" height="122">
    <g fill="none" fill-rule="evenodd">
        <path fill="#FFF" d="m51.87 1.41.017-.002.382-.034h.018a65.15 65.15 0 0 1 4.095-.216 78.017 78.017 0 0 1 1.387-.013l.076-.002c.134-.002.267-.002.4-.002l.145.002a.563.563 0 0 0 .054.004l.58.015.037.003.215.007.111.004h.009a91.072 91.072 0 0 1 .351.015h.023l.507.025h.01l.01.001c.407.022.763.044 1.09.066h.007c1.227.09 2.452.214 3.64.37 1.474.205 2.966.47 4.435.787l.392.087c1.521.347 3.035.756 4.5 1.214a58.11 58.11 0 0 1 4.987 1.828 66.457 66.457 0 0 1 2.851 1.298l.015.008.136.066c.133.064.266.13.398.195l.03.016c.097.05.181.091.236.116a57.87 57.87 0 0 1 8.929 5.668 59.408 59.408 0 0 1 5.402 4.765 57.885 57.885 0 0 1 4.827 5.483 59.251 59.251 0 0 1 3.933 5.825 56.517 56.517 0 0 1 3.398 6.752 78.766 78.766 0 0 1 1.53 3.99.789.789 0 0 0 .028.073 70.563 70.563 0 0 1 1.281 4.233.5.5 0 0 0 .061.135c.028.1.056.208.083.33l.004.009.017.067.026.11c.091.357.173.727.257 1.105.111.516.22 1.072.34 1.751.011.09.026.177.045.287l.002.01c.037.216.071.428.104.646l.03.19.002.024c.04.258.077.51.111.756.15 1.128.28 2.299.385 3.48a.684.684 0 0 0 .015.108 52.08 52.08 0 0 1 .193 3.156l.002.036c.005.21.01.42.011.63 0 .014-.002.026 0 .04 0 .755-.012 1.534-.038 2.316a45.995 45.995 0 0 1-.144 2.422c-.045.31-.073.623-.1.925l-.002.01v.02l-.007.065a50.778 50.778 0 0 1-.215 1.922l-.002.012-.002.015-.025.198-.014.105-.019.15a.439.439 0 0 0-.013.096l-.01.071-.002.02-.015.109-.009.066-.01.075v.028l-.04.287-.01.074-.009.065.002.043a43.93 43.93 0 0 1-.112.727l-.008.063-.01.077a40.864 40.864 0 0 1-.348 1.88 51.85 51.85 0 0 1-.681 2.862l-.005.018-.002.009-.004.016-.049.182a57.986 57.986 0 0 1-2.14 6.496c-.03.064-.062.145-.085.204l-.004.01-.003.008-.004.01-.004.012-.028.073c-.108.27-.224.55-.335.814l-.013.03-.007.017-.004.007a59.222 59.222 0 0 1-3.059 6.153 57.265 57.265 0 0 1-3.396 5.23.512.512 0 0 0-.068.093c-.242.328-.508.683-.792 1.056a59.89 59.89 0 0 1-4.67 5.329 58.085 58.085 0 0 1-5.587 4.945 59.417 59.417 0 0 1-5.89 3.985 56.712 56.712 0 0 1-6.68 3.367 58.285 58.285 0 0 1-6.914 2.398 57.062 57.062 0 0 1-7.425 1.523 59.156 59.156 0 0 1-7.693.503h-.09a57.766 57.766 0 0 1-7.419-.502 59.303 59.303 0 0 1-4.759-.855 57.036 57.036 0 0 1-5.453-1.512 58.364 58.364 0 0 1-4.165-1.567 59.78 59.78 0 0 1-3.1-1.427 58.607 58.607 0 0 1-4.754-2.656 57.557 57.557 0 0 1-4.708-3.248 58.33 58.33 0 0 1-10.155-10.177 59.583 59.583 0 0 1-3.29-4.735 60.212 60.212 0 0 1-1.698-2.92 61.435 61.435 0 0 1-.463-.868 60.511 60.511 0 0 1-1.986-4.227 95.31 95.31 0 0 1-.647-1.598 45.605 45.605 0 0 1-.477-1.253 11.872 11.872 0 0 0-.154-.392c-.132-.36-.261-.72-.39-1.08a30.625 30.625 0 0 1-.412-1.269l-.004-.014a60.92 60.92 0 0 1-.739-2.602.314.314 0 0 0-.02-.054 54.066 54.066 0 0 1-.746-3.5c-.08-.442-.157-.893-.226-1.295l-.006-.04-.012-.07-.017-.096a64.145 64.145 0 0 1-.267-1.78 67.085 67.085 0 0 1-.336-3.37 58.118 58.118 0 0 1-.112-2.434v-.015l-.002-.071-.007-.206v-.022l-.003-.078-.002-.08-.004-.033-.005-.033a48.917 48.917 0 0 1 .065-4 44.17 44.17 0 0 1 .297-3.341c.021-.156.044-.313.068-.474a.236.236 0 0 0 .05-.106 4.65 4.65 0 0 1 .031-.177.468.468 0 0 0 .081-.149c.036-.103.06-.206.072-.315l.007-.048.015-.08a.3.3 0 0 0 .041-.108c.018-.103.036-.207.056-.313a.546.546 0 0 0 .05-.172l.05-.26.002-.014.012-.062.02-.101.003-.015a69.345 69.345 0 0 1 .868-3.996.547.547 0 0 0 .02-.068l.128-.494.007-.03.134-.515c.076-.29.162-.594.232-.838l.01-.036.008-.029.003-.008.006-.02.003-.012.01-.033.03-.11c.196-.69.422-1.417.711-2.29.438-1.325.95-2.69 1.523-4.053a58.807 58.807 0 0 1 3.316-6.61 57.497 57.497 0 0 1 4.095-6.067 59.57 59.57 0 0 1 4.616-5.252 57.89 57.89 0 0 1 5.514-4.882c1.42-1.093 2.9-2.13 4.402-3.083.417-.264.87-.542 1.343-.824l.093-.056.013-.008.06-.036.054-.032.07-.042c.19-.114.431-.259.654-.396.086-.062.176-.117.267-.165.156-.091.313-.18.47-.27l.024-.013a.434.434 0 0 0 .1-.072c.226-.129.462-.257.666-.366a.539.539 0 0 0 .071-.048l.314-.168a.451.451 0 0 0 .075-.05c.5-.268 1.038-.542 1.694-.862a49.85 49.85 0 0 1 1.81-.84.373.373 0 0 0 .05-.031c.253-.113.46-.203.667-.291a59.824 59.824 0 0 1 3.747-1.424 56.386 56.386 0 0 1 2.141-.672 37.69 37.69 0 0 1 2.4-.63 59.015 59.015 0 0 1 2.63-.53l.085-.016.03-.005.019-.004.032-.006.017-.003.009-.002c.175-.032.35-.063.527-.093.195-.034.392-.064.593-.095l.03-.004a.489.489 0 0 0 .171-.015c.188-.03.377-.057.567-.084.675-.087 1.389-.17 2.182-.253a.492.492 0 0 0 .05.003c.113-.007.227-.017.357-.032a.38.38 0 0 0 .088.003 119.13 119.13 0 0 0 .414-.035l.032-.001ZM57.414 0h-.01L57 .001h-.018l-.027.001h-.014c-.137.001-.275.002-.412.005h-.059l-.448.01H56a71.138 71.138 0 0 0-.445.014c-1.09.036-2.18.103-3.266.2-.01 0-.02.002-.028.003-.13.012-.26.024-.39.038l-.123.016c-.108.011-.216.023-.323.036a.781.781 0 0 0-.153.024l-.01.002a.538.538 0 0 0-.034.01 11.37 11.37 0 0 0-.393.052.58.58 0 0 0-.039.012c-.962.124-1.92.278-2.876.448a.526.526 0 0 0-.06.021c-.567.104-1.136.207-1.699.332-.784.173-1.568.348-2.345.553-.8.212-1.6.418-2.395.648-.705.203-1.405.421-2.102.65a.273.273 0 0 0-.043.011 63.352 63.352 0 0 0-4.552 1.703.462.462 0 0 0-.15.055c-.614.26-1.223.53-1.828.809a62.97 62.97 0 0 0-1.685.814.682.682 0 0 0-.114.046l-.293.15a.54.54 0 0 0-.105.045l-.66.346a.645.645 0 0 0-.13.053c-.26.138-.514.288-.78.413l-.39.206c-.195.103-.383.221-.572.333a52.526 52.526 0 0 0-1.56.962 59.38 59.38 0 0 0-8.05 6.199 57.387 57.387 0 0 0-3.703 3.73 58.983 58.983 0 0 0-3.439 4.175 57.075 57.075 0 0 0-5.32 8.57 57.32 57.32 0 0 0-3.827 9.689 48.19 48.19 0 0 0-.362 1.302c-.111.418-.22.838-.316 1.26a.549.549 0 0 0-.017.09 45.896 45.896 0 0 0-.853 4.63c0 .013-.002.024-.004.035a.293.293 0 0 0 .006.1l-.027.2a.642.642 0 0 0-.012.092l-.004.026h.003c0 .033.002.066.009.098l-.018.15c-.02.106-.027.213-.02.32 0 .06.015.117.039.169l-.012.107a.345.345 0 0 0-.005.05l-.001.015h.001c0 .04.008.08.021.117a89.805 89.805 0 0 0-.325 3.217 68.137 68.137 0 0 0-.207 4.477c-.002.143-.01.28-.014.423-.002.373.005.746.013 1.12.016.729.05 1.457.087 2.186.037.756.104 1.508.174 2.261.067.726.151 1.45.248 2.171l-.003-.023.008.064-.005-.04.01.073-.003-.016.004.026c.102.76.223 1.517.365 2.27a64.16 64.16 0 0 0 .651 3.026.453.453 0 0 0 .015.082c.278 1.17.59 2.329.94 3.478.088.288.171.578.258.866.068.225.142.448.214.672.031.132.07.26.12.387a48.952 48.952 0 0 0 .45 1.26 49.793 49.793 0 0 0 1.308 3.166 56.31 56.31 0 0 0 1.364 2.821l.012.024.048.092.051.098a65.427 65.427 0 0 0 .48.897l.038.068.007.014a54.316 54.316 0 0 0 .163.293 60.07 60.07 0 0 0 1.394 2.372l.035.055.016.027a59.81 59.81 0 0 0 4.803 6.61 56.942 56.942 0 0 0 5.47 5.676 54.916 54.916 0 0 0 3.022 2.538A67.15 67.15 0 0 0 25 105.274a55.657 55.657 0 0 0 6.686 3.937l.012.007c.022.01.044.02.065.032l.134.067.03.014a59.132 59.132 0 0 0 7.286 2.999l.02.007c.034.01.067.022.1.033l.01.003a56.63 56.63 0 0 0 9.686 2.284c3.243.475 6.52.668 9.797.594a58.15 58.15 0 0 0 10.077-1.132 56.725 56.725 0 0 0 10.041-3.018 57.836 57.836 0 0 0 7.308-3.566 58.23 58.23 0 0 0 6.646-4.502 57.379 57.379 0 0 0 5.97-5.376 58.177 58.177 0 0 0 5.014-5.949.569.569 0 0 0 .07-.094l.017-.024.008-.012a59.008 59.008 0 0 0 3.452-5.311 56.469 56.469 0 0 0 3.05-6.158.684.684 0 0 0 .052-.126 56.58 56.58 0 0 0 1.277-3.327c.42-1.208.794-2.433 1.132-3.666.533-1.946.922-3.928 1.261-5.916a.35.35 0 0 0 .014-.054c.046-.278.09-.557.133-.835a.333.333 0 0 0 .02-.068l.062-.427a.249.249 0 0 0 .007-.025h.001v-.001a.576.576 0 0 0 .02-.138 53.698 53.698 0 0 0 .296-2.753c.03-.359.063-.72.06-1.08l.007-.155c.005-.12.011-.24.02-.358a53.342 53.342 0 0 0 .068-1.937c.014-.772.011-1.545-.002-2.316a.907.907 0 0 0-.004-.054l-.01-.608v-.044a98.191 98.191 0 0 0-.053-1.716c-.02-.496-.052-.992-.085-1.487a.303.303 0 0 0 .001-.06 48.533 48.533 0 0 0-.214-2.187 54.87 54.87 0 0 0-.325-2.209c-.108-.671-.238-1.338-.367-2.005-.093-.476-.195-.95-.297-1.424l-.145-.665c-.035-.161-.075-.322-.11-.485a.379.379 0 0 0-.017-.184 37.006 37.006 0 0 0-.578-2.296 43.856 43.856 0 0 0-.597-1.97.336.336 0 0 0-.017-.071 43.392 43.392 0 0 0-.88-2.53 57.584 57.584 0 0 0-.903-2.198 56.712 56.712 0 0 0-4.851-8.929 58.908 58.908 0 0 0-2.769-3.816 57.503 57.503 0 0 0-7.08-7.502 58.037 58.037 0 0 0-8.422-6.195 58.994 58.994 0 0 0-3.645-2.022c-.067-.044-.139-.074-.218-.114-.197-.101-.395-.2-.592-.299a55.053 55.053 0 0 0-3.567-1.602 56.24 56.24 0 0 0-4.397-1.592l-.025-.008-.079-.025-.136-.042a59.086 59.086 0 0 0-4.11-1.111l-.025-.007a44.817 44.817 0 0 0-.428-.097l-.007-.001A59.28 59.28 0 0 0 61.637.156h-.01a65.827 65.827 0 0 0-.259-.018A67.497 67.497 0 0 0 60.7.096h-.002c-.019 0-.037-.002-.055-.003h-.016a64.785 64.785 0 0 0-.363-.019 59.148 59.148 0 0 0-.493-.021h-.025a40.79 40.79 0 0 0-1.365-.03L58.3.02l-.297-.007C57.808.008 57.613 0 57.419 0h-.005Z"/>
        <path fill="#162E51" d="M58.245 1.14c-.133 0-.266 0-.4.004l-.076.001a19.78 19.78 0 0 1-.355.004 87.523 87.523 0 0 0-1.032.01 65.015 65.015 0 0 0-4.113.216l-.382.033-.017.002a.293.293 0 0 1-.031.001h-.018a119.23 119.23 0 0 1-.425.037.388.388 0 0 1-.06-.005 7.7 7.7 0 0 1-.357.032c-.017 0-.033 0-.05-.003-.793.083-1.507.166-2.182.253-.19.028-.379.055-.568.084a.49.49 0 0 1-.17.015l-.03.004a38.2 38.2 0 0 0-1.12.189l-.009.001-.017.004-.032.006-.018.003-.03.006-.085.015-.265.046c-.78.138-1.564.308-2.365.484-.696.154-1.436.349-2.401.63-.7.203-1.405.424-2.097.655-.014.007-.03.012-.044.017a59.9 59.9 0 0 0-3.747 1.423 44.95 44.95 0 0 0-.666.292.373.373 0 0 1-.051.03 54.134 54.134 0 0 0-3.504 1.703.442.442 0 0 1-.075.05l-.314.168a.502.502 0 0 1-.071.048c-.204.11-.44.237-.666.366a.44.44 0 0 1-.1.072l-.023.013c-.158.09-.315.179-.47.27a2.142 2.142 0 0 0-.268.165c-.222.137-.463.282-.655.396l-.069.042-.054.032-.06.036-.013.008-.093.056c-.474.282-.926.56-1.343.824a59.932 59.932 0 0 0-4.402 3.083 57.851 57.851 0 0 0-5.514 4.882 59.541 59.541 0 0 0-4.616 5.252 57.49 57.49 0 0 0-4.095 6.068 58.825 58.825 0 0 0-3.316 6.61 55.465 55.465 0 0 0-1.522 4.053c-.29.872-.515 1.6-.711 2.29l-.031.109-.01.033-.003.012-.006.02-.003.008-.008.03-.01.035c-.07.244-.156.549-.232.838l-.134.516-.007.029-.127.494a.55.55 0 0 1-.022.068 69.332 69.332 0 0 0-.867 3.996l-.003.015-.02.1-.011.063-.004.013-.05.26a.51.51 0 0 1-.05.173l-.054.313a.305.305 0 0 1-.042.108l-.015.08-.008.048a1.4 1.4 0 0 1-.07.315.467.467 0 0 1-.082.149c-.012.062-.022.12-.03.177a.236.236 0 0 1-.05.106c-.025.161-.047.318-.069.473a43.853 43.853 0 0 0-.296 3.343 48.808 48.808 0 0 0-.066 4l.005.033.005.033.002.079.002.078v.022l.007.206.002.071v.015a57.886 57.886 0 0 0 .112 2.434 66.803 66.803 0 0 0 .336 3.37c.095.672.174 1.229.267 1.78l.017.097.012.07.007.04c.069.4.146.852.225 1.294.212 1.182.463 2.36.747 3.5a.297.297 0 0 1 .02.054c.23.886.479 1.762.738 2.602l.004.014c.113.368.254.825.412 1.268.129.36.258.722.39 1.081.057.136.107.264.155.392a55.915 55.915 0 0 0 .476 1.253c.175.441.406 1.022.647 1.598a60.653 60.653 0 0 0 1.986 4.227 63.78 63.78 0 0 0 .623 1.16c.492.892 1.01 1.775 1.539 2.628a59.564 59.564 0 0 0 3.29 4.734 58.339 58.339 0 0 0 10.154 10.178 57.784 57.784 0 0 0 4.708 3.248c1.53.952 3.13 1.845 4.754 2.656 1.011.5 2.055.982 3.1 1.427a58.385 58.385 0 0 0 4.165 1.567 57.024 57.024 0 0 0 5.454 1.512 59.21 59.21 0 0 0 4.758.855c2.498.329 4.994.498 7.419.502h.09c2.568 0 5.156-.17 7.693-.504a56.896 56.896 0 0 0 7.425-1.522 58.291 58.291 0 0 0 6.914-2.398 56.88 56.88 0 0 0 6.68-3.367 59.414 59.414 0 0 0 5.89-3.985 58.034 58.034 0 0 0 5.587-4.945 59.773 59.773 0 0 0 4.67-5.33c.284-.372.55-.727.792-1.055a.52.52 0 0 1 .068-.093 57.065 57.065 0 0 0 3.396-5.23 59.244 59.244 0 0 0 3.06-6.153l.003-.007.007-.016.013-.03c.111-.264.227-.544.335-.816.01-.022.018-.046.028-.072l.005-.011.004-.01.002-.008.005-.011c.022-.06.053-.14.084-.204a57.996 57.996 0 0 0 2.14-6.496l.05-.182.003-.016.002-.009.005-.017c.098-.37.22-.83.328-1.288.107-.46.233-1.005.353-1.574.127-.604.244-1.237.348-1.88l.01-.078.008-.064c.04-.241.077-.483.112-.726l-.002-.043.01-.065.01-.074.04-.287v-.028l.01-.075.008-.066a73.6 73.6 0 0 1 .015-.11l.002-.019.01-.07a.44.44 0 0 1 .013-.097l.02-.15.013-.105.025-.198.002-.015.002-.012a60.642 60.642 0 0 0 .215-1.922l.006-.065.001-.012v-.007l.001-.011c.028-.302.056-.615.101-.925.065-.734.112-1.527.144-2.422.027-.782.038-1.56.038-2.317-.002-.012 0-.025 0-.038-.002-.21-.006-.421-.01-.631l-.003-.036a52.064 52.064 0 0 0-.193-3.156.662.662 0 0 1-.015-.108 82.484 82.484 0 0 0-.385-3.48 62.403 62.403 0 0 0-.11-.756l-.004-.023-.029-.191c-.033-.218-.067-.43-.104-.646l-.002-.01c-.019-.11-.034-.196-.045-.287a45.427 45.427 0 0 0-.34-1.751 36.578 36.578 0 0 0-.257-1.104l-.026-.111-.017-.067-.004-.009a6.118 6.118 0 0 0-.083-.33.533.533 0 0 1-.06-.135 70.363 70.363 0 0 0-1.282-4.233 1.245 1.245 0 0 1-.029-.072 78.759 78.759 0 0 0-1.528-3.99 56.827 56.827 0 0 0-3.398-6.753 59.447 59.447 0 0 0-3.934-5.825 57.746 57.746 0 0 0-4.827-5.483 59.422 59.422 0 0 0-5.402-4.765 57.853 57.853 0 0 0-8.93-5.668 5.585 5.585 0 0 1-.235-.116l-.03-.016a36.95 36.95 0 0 0-.398-.195l-.136-.066-.015-.008c-.27-.131-.559-.272-.848-.404a67.411 67.411 0 0 0-2.003-.894 58.29 58.29 0 0 0-4.988-1.828 59.684 59.684 0 0 0-4.89-1.301 60.31 60.31 0 0 0-4.435-.786 62.362 62.362 0 0 0-3.64-.37h-.009a77.027 77.027 0 0 0-1.09-.066l-.01-.001h-.009a80.527 80.527 0 0 0-.506-.025l-.024-.001-.313-.013c-.013 0-.026 0-.038-.002h-.009l-.111-.004-.215-.007a140.713 140.713 0 0 0-.617-.017.579.579 0 0 1-.054-.004l-.145-.003Z"/>
        <path fill="#F2E24D" d="M79.004 17.033a7.363 7.363 0 0 0-2.063.325c-1.054.32-2.103.847-3.119 1.565-.528.373-1.023.799-1.395 1.128-.395.35-.792.737-1.214 1.184-.398.422-.776.878-1.153 1.393-.323.44-.663.916-.958 1.418a12.396 12.396 0 0 0-1.318 3.245 13.2 13.2 0 0 0-.313 1.802 7.8 7.8 0 0 0 .146 2.622c.07.287.173.569.264.811.117.309.23.577.346.82.134.28.301.536.447.75.376.55.746.997 1.13 1.364.22.21.465.398.703.58.214.164.443.326.701.494 1.088.712 2.111 1.23 3.128 1.582 1.005.348 2.153.59 3.51.74.504.055.947.081 1.355.081.14 0 .277-.003.41-.009a13.506 13.506 0 0 0 1.866-.23c.528-.1 1.077-.245 1.68-.446a10.83 10.83 0 0 0 1.717-.728c.582-.312 1.107-.704 1.5-1.01a6.45 6.45 0 0 0 .956-.926l.118-.139c.205-.24.416-.487.587-.755.165-.26.285-.551.4-.832l.01-.026a8.35 8.35 0 0 0 .283-.825c.129-.438.218-.892.304-1.331l.052-.263a5.28 5.28 0 0 0 .058-.374l.025-.182.021-.147c.045-.302.091-.615.127-.924.075-.635-.013-1.268-.119-1.858-.06-.335-.145-.69-.268-1.114-.121-.423-.26-.901-.443-1.347a5.95 5.95 0 0 0-.423-.839 11.38 11.38 0 0 0-.445-.661l-.027-.039-.32-.45-.09-.126c-.189-.266-.388-.531-.58-.788l-.082-.11a12.648 12.648 0 0 0-.908-1.048 15.565 15.565 0 0 0-.799-.798c-.279-.258-.58-.531-.896-.78l-.102-.08c-.214-.17-.435-.346-.672-.49a2.707 2.707 0 0 0-.36-.172l-.054-.023-.073-.03a6.353 6.353 0 0 0-.37-.15 28.75 28.75 0 0 1-.328-.123 7.352 7.352 0 0 1-.628-.308l-.14-.08c-.073-.041-.148-.084-.223-.124a4.298 4.298 0 0 0-.088-.045.643.643 0 0 0-.039-.564l-.05-.065-.05-.064a.64.64 0 0 0-.281-.164 4.576 4.576 0 0 0-.775-.253 3.206 3.206 0 0 0-.678-.064Z"/>
        <path fill="#FFF" d="M20.868 26.513h-.044c-.222.003-.44.03-.646.079a1.858 1.858 0 0 0-.255.08l-.052.02c-.102.04-.207.082-.304.135-.253.14-.574.338-.82.63-.15.176-.275.325-.396.48a6.61 6.61 0 0 0-.669 1c-.153.29-.241.612-.327.922a7.78 7.78 0 0 0-.137.586 20.616 20.616 0 0 0-.38 3.554l-.004.138c-.009.31-.018.63.008.945.03.357.078.64.154.888a.29.29 0 0 0-.053.167.3.3 0 0 0 .25.293.528.528 0 0 0 .828.01 175.826 175.826 0 0 0 1.98.004h.145c.295-.002.6-.004.9-.012l.409-.01c.277-.005.564-.012.845-.025l.588-.03c.611-.03 1.244-.061 1.866-.083a75.002 75.002 0 0 1 2.348-.045l.772-.002c1.414 0 2.812.014 4.112.028l1.159.013.251.004c.17.003.339.005.508.005.13 0 .246-.001.355-.005.202-.006.404-.012.607-.02l.607-.019.21-.005c.117-.003.235-.005.353-.01.251-.011.606-.059.776-.35.098-.167.1-.388.01-.674l-.08-.239a15.668 15.668 0 0 1-.232-.743l-.027-.089-.09-.306a9.724 9.724 0 0 0-.248-.783l-.004-.01a5.54 5.54 0 0 0-.26-.616l-.01-.02c-.084-.16-.17-.324-.267-.48-.205-.324-.457-.698-.775-1.006-.077-.075-.166-.141-.252-.205l-.02-.015a2.58 2.58 0 0 0-.163-.113 2.788 2.788 0 0 0-.43-.208c-.093-.04-.185-.069-.273-.098l-.073-.024a2.27 2.27 0 0 0-.252-.068 5.086 5.086 0 0 0-.767-.098c-.063 0-.129.004-.186.008a2.013 2.013 0 0 0-.627.123 2.816 2.816 0 0 0-.65.375c-.103.08-.197.153-.289.231a2.298 2.298 0 0 0-.193.192c-.179.193-.31.352-.414.506-.105.154-.21.31-.309.461a9.617 9.617 0 0 1-.378.532 9.797 9.797 0 0 1-.21-.596c-.045-.135-.09-.274-.14-.41l-.006-.02c-.138-.381-.28-.776-.48-1.137a2.001 2.001 0 0 0-.301-.412 1.464 1.464 0 0 0-.307-.232 2.585 2.585 0 0 0-.403-.182 1.607 1.607 0 0 0-.359-.089 1.93 1.93 0 0 0-.272-.022c-.048 0-.094.003-.14.008a1.546 1.546 0 0 0-.408.09c-.14.055-.275.122-.402.2-.118.072-.23.16-.333.246l-.036.03a5.437 5.437 0 0 0-.62.612 2.806 2.806 0 0 0-.028-.107c-.035-.122-.066-.245-.098-.368l-.053-.204c-.1-.38-.268-.742-.432-1.094l-.045-.098a5.718 5.718 0 0 0-.262-.482l-.008-.014a3.504 3.504 0 0 0-.37-.513 2.688 2.688 0 0 0-.634-.512c-.312-.195-.673-.35-1.17-.502a4.002 4.002 0 0 0-1.168-.19zm38.18-.717h-.012c-.142 0-.286.02-.424.04l-.019.003c-.21.03-.435.11-.685.245a1.11 1.11 0 0 0-.156.11l-.034.026-.016.012c-.03.023-.06.046-.087.071l-.024.023a2.84 2.84 0 0 0-.483.597 3.482 3.482 0 0 0-.268.591 5.684 5.684 0 0 0-.17.529c-.047.19-.098.392-.144.599a8.59 8.59 0 0 0-.09.503l-.008.054c-.04.253-.068.463-.088.66a4.95 4.95 0 0 0-.032.562 6.89 6.89 0 0 0 .248 1.826c.056.201.132.392.23.618.055.124.115.248.174.368l.065.134c.075.155.15.316.223.479.108.238.21.451.31.652a.312.312 0 0 0 .103.196 9.255 9.255 0 0 0 .103.192l.03.058a.54.54 0 0 0 .482.273.55.55 0 0 0 .533-.406l.017-.124c.638-.052 1.21-.102 1.749-.153l.34-.034c.267-.026.544-.053.817-.073l.36-.029c.281-.023.571-.046.856-.058l.8-.03c.13-.006.263-.006.391-.006h.131c.453 0 .903.007 1.246.014l.485.01c.582.01 1.164.022 1.746.03.37.005.766.012 1.285.024.286.006.577.02.859.034l.29.014a156.199 156.199 0 0 0 1.619.064c.235.007.478.014.716.027.229.013.457.028.685.043l.522.033c.175.01.35.018.524.026.213.01.433.02.649.035.215.014.434.032.645.05l.48.037.418.03.196.013c.077.006.156.015.232.023.12.014.243.028.366.029.054 0 .111-.01.161-.017l.029-.005a.484.484 0 0 0 .161-.057.515.515 0 0 0 .239-.411 1.114 1.114 0 0 0-.042-.35c-.012-.047-.03-.1-.053-.156l-.018-.044c-.04-.096-.08-.194-.127-.288a7.222 7.222 0 0 0-.145-.27c-.081-.146-.17-.292-.257-.432l-.038-.062-.018-.028a5.051 5.051 0 0 0-.327-.489 5.26 5.26 0 0 0-.763-.807c-.301-.25-.632-.5-.984-.742a7.92 7.92 0 0 0-.507-.322 3.736 3.736 0 0 0-.89-.372 6.072 6.072 0 0 0-.566-.117l-.05-.01a8.721 8.721 0 0 0-.666-.083c-.063-.007-.126-.011-.19-.016a2.2 2.2 0 0 0-.351.016 3.72 3.72 0 0 0-.422.072 2.973 2.973 0 0 0-.413.137c-.262.103-.539.24-.824.407a9.183 9.183 0 0 0-.772.494l-.218.152c-.039.026-.08.05-.126.075a.724.724 0 0 1-.026.008l-.008-.003a1.14 1.14 0 0 1-.075-.046 5.046 5.046 0 0 1-.519-.538c-.072-.082-.144-.165-.218-.245a4.072 4.072 0 0 0-.379-.353l-.13-.11-.129-.108a4.836 4.836 0 0 0-.717-.495 6.029 6.029 0 0 0-1.094-.46 6.37 6.37 0 0 0-.6-.174 2.978 2.978 0 0 0-.662-.085 1.653 1.653 0 0 0-.517.075 1.346 1.346 0 0 0-.505.294 4.497 4.497 0 0 0-.18-.487 4.829 4.829 0 0 0-.204-.4 9.356 9.356 0 0 0-.293-.49 2.663 2.663 0 0 0-.114-.162l-.057-.078c-.049-.07-.104-.136-.157-.202a10.527 10.527 0 0 1-.07-.086 1.718 1.718 0 0 0-.166-.178 4.04 4.04 0 0 0-.459-.378 1.626 1.626 0 0 0-.3-.152l-.033-.014a6.456 6.456 0 0 0-.391-.154 4.856 4.856 0 0 0-.856-.206 7.684 7.684 0 0 0-.704-.077l-.034-.002a4.59 4.59 0 0 0-.237-.011l-.087-.001h-.088zm27.468-9.187c-.2 0-.404.026-.596.053l-.06.009c-.18.025-.366.05-.548.084a7.4 7.4 0 0 0-.396.083 4.53 4.53 0 0 0-.831.321 3.63 3.63 0 0 0-.633.379c-.17.128-.334.265-.487.407l-.088.08a13.833 13.833 0 0 0-.805.794c-.105.11-.203.232-.297.349l-.066.08a8.47 8.47 0 0 0-.396.537c-.065.094-.128.19-.192.284-.106.16-.216.325-.332.482-.11.132-.204.24-.294.34l-.02.022a4.116 4.116 0 0 1-.304.316 1.767 1.767 0 0 1-.065-.04c-.113-.102-.217-.22-.318-.332a61.063 61.063 0 0 1-.488-.536c-.28-.31-.59-.63-.966-.874-.115-.075-.257-.13-.382-.179a4.61 4.61 0 0 0-.546-.178 2.239 2.239 0 0 0-1.297.05 4.25 4.25 0 0 0-.635.277c-.215.114-.418.28-.64.525-.08.09-.15.19-.22.288l-.035.052c-.056.08-.102.168-.146.253l-.02.039c-.04.078-.076.16-.11.239l-.016.035-.03.072a2.066 2.066 0 0 0-.543-.399 2.254 2.254 0 0 0-.977-.206c-.081 0-.165.003-.248.01-.242.02-.448.063-.63.129-.168.06-.343.141-.551.253a4.602 4.602 0 0 0-.743.48 2.533 2.533 0 0 0-.368.339c-.08.09-.151.19-.22.286l-.032.045a1.755 1.755 0 0 0-.082.125l-.005-.006a.823.823 0 0 0-.365-.247 1.18 1.18 0 0 0-.476-.045c-.162.014-.297.03-.428.066a1.07 1.07 0 0 0-.164.065l-.058.026c-.043.02-.086.043-.127.066l-.03.017a3.585 3.585 0 0 0-.415.285l-.034.026a3.586 3.586 0 0 0-.961 1.026c-.13.192-.238.425-.32.695a2.21 2.21 0 0 0-.072.378 1.018 1.018 0 0 0 .214.77 1.22 1.22 0 0 0 .365.352.864.864 0 0 0 .157.076l.04.017c.065.028.132.05.182.067l.1.03.05.013c.083.024.166.048.25.07.153.04.307.079.461.117.212.053.432.108.647.166.558.151 1.185.24 1.975.278.073.003.148.005.228.005.214 0 .43-.013.64-.025l.069-.004c.316-.019.63-.06.924-.102a.692.692 0 0 1 .064-.006l.015-.002.122-.017a.52.52 0 0 0 .379-.517l.176-.007.176-.009.33-.017c.258-.014.526-.029.789-.036l.335-.008.986-.025c.28-.007.564-.01.839-.011l.43-.004c.281-.003.563-.004.845-.005h.396c.176-.002.35-.002.526-.002.153 0 .306 0 .458.002l.23.002.458.005c.142 0 .286.007.426.014l.206.008.226.008c.676.024 1.376.05 2.064.063.893.019 1.709.032 2.495.04.428.004.855.005 1.282.007a269.956 269.956 0 0 1 1.614.01l.64.02c.231.008.467.02.696.031.177.009.354.017.532.024.766.03 1.546.044 2.3.058l1.224.02c.352.005.731.013 1.117.038.057.003.115.008.172.014.113.01.229.02.342.02.166 0 .3-.022.421-.07a.915.915 0 0 0 .372-.257.757.757 0 0 0 .178-.389c.013-.088.02-.16.022-.234a1.275 1.275 0 0 0-.014-.176l-.003-.027a5.78 5.78 0 0 0-.083-.514 7.475 7.475 0 0 0-.17-.67l-.03-.1a4.817 4.817 0 0 0-.154-.453l-.059-.14-.059-.142a6.755 6.755 0 0 0-.183-.41 4.726 4.726 0 0 0-.199-.347l-.02-.033a12.879 12.879 0 0 0-.293-.45l-.105-.157-.043-.065a7.873 7.873 0 0 0-.26-.376 5.674 5.674 0 0 0-.576-.665c-.206-.2-.43-.386-.647-.565l-.073-.06a23.471 23.471 0 0 0-.55-.443l-.007-.005-.01-.008-.011-.008-.018-.014-.006-.005-.007-.004.004.004-.057-.046-.01-.007-.004-.004-.017-.013-.04-.03-.042-.033.012.01-.012-.01-.014-.011-.013-.01-.011-.008-.006-.005c-.129-.098-.267-.189-.4-.277l-.123-.081a20.732 20.732 0 0 0-.351-.228l-.174-.112a7.706 7.706 0 0 0-2.06-1.002 20.29 20.29 0 0 0-1.333-.371 2.874 2.874 0 0 0-.18-.037 4.92 4.92 0 0 1-.094-.018l-.056-.011c-.063-.013-.13-.027-.195-.037a22.65 22.65 0 0 0-.74-.101 10.076 10.076 0 0 0-.435-.043 2.091 2.091 0 0 0-.146-.005z"/>
        <path fill="#366ECC" d="M31.491 85.185a3.486 3.486 0 0 1-.69-.092c-.282-.069-.47-.162-.61-.302a.55.55 0 0 1-.134-.255.42.42 0 0 1 .058-.317l.015-.023a.84.84 0 0 1 .09-.113 1.373 1.373 0 0 1 .21-.159l.05-.03.014-.01a2.379 2.379 0 0 1 .57-.265c.145-.043.302-.083.496-.124a11.615 11.615 0 0 1 1.095-.178l.016-.002.016-.002a5.1 5.1 0 0 1 .32-.035l.309-.02.308-.021c.1-.006.204-.007.306-.01h.049c.042 0 .084 0 .125-.002.16-.003.319-.007.474-.008.177-.185.355-.389.485-.538l.007-.007.054-.062.208-.233.03-.034.032-.035.009-.01c.094-.104.222-.246.345-.39.02-.021.038-.044.057-.066a4.7 4.7 0 0 1 .097-.113l.02-.022a.696.696 0 0 1 .138-.126.32.32 0 0 1 .178-.055c.057 0 .117.015.176.044.131.062.188.21.21.291.028.103.043.209.053.3l.016.144.017.144.035.332c.019.18.041.39.067.597l.012.087.023.163c.02.15.045.31.08.464l.015.063a4.636 4.636 0 0 0 .131.475l.003.009c.045.122.091.249.055.382a.433.433 0 0 1-.102.178.424.424 0 0 1-.166.096l-.013.005a.215.215 0 0 1-.084.015c-.04 0-.08-.008-.127-.016l-.007-.002a.473.473 0 0 1-.128-.06 6.43 6.43 0 0 1-.126-.081l-.008-.005-.013-.008-.015-.01c-.06-.038-.133-.087-.205-.127-.178-.1-.363-.186-.543-.27l-.007-.003-.013-.006c-.086-.04-.172-.079-.257-.12a2.966 2.966 0 0 1-.394-.224 4.802 4.802 0 0 1-.126-.088l-.01-.007-.023-.017a3.498 3.498 0 0 0-.253-.173 3.85 3.85 0 0 1-.153.133 4.175 4.175 0 0 1-.498.363 3.07 3.07 0 0 1-.742.308l-.075.023c-.25.074-.51.15-.772.197a4.076 4.076 0 0 1-.78.063Zm61.416-3.013c.276-.21.547-.415.827-.603.255-.172.506-.355.762-.543l.117-.095.036-.03.037-.031.006-.005a1.15 1.15 0 0 1 .123-.09l.127-.053a.25.25 0 0 1 .092-.016c.065 0 .138.02.195.054a.366.366 0 0 1 .134.133.57.57 0 0 1 .08.278c-.001.05-.002.104-.007.155a6.9 6.9 0 0 1-.024.22l-.022.165-.022.176c-.06.453-.1.824-.127 1.166a24.708 24.708 0 0 1-.115 1.172v.009c-.006.045-.012.092-.02.136a.874.874 0 0 1-.065.204.615.615 0 0 1-.108.154.472.472 0 0 1-.205.113.926.926 0 0 1-.165.018h-.02a.79.79 0 0 1-.324-.106 2.894 2.894 0 0 1-.507-.352c-.115-.093-.227-.196-.326-.286l-.027-.025-.088-.081-.012-.012c-.053-.048-.107-.098-.162-.145a1.683 1.683 0 0 0-.186-.103l-.207-.076a6.607 6.607 0 0 1-.286-.107.361.361 0 0 1-.077-.03l-.095.065c-.14.094-.307.201-.48.283-.204.097-.39.175-.568.24a2.99 2.99 0 0 1-.51.131 3.741 3.741 0 0 1-.614.066h-.01a4.92 4.92 0 0 1-.55-.03l-.109-.012a4.758 4.758 0 0 1-.388-.057c-.197-.04-.447-.104-.65-.245a.855.855 0 0 1-.177-.16.526.526 0 0 1-.117-.201.922.922 0 0 1-.025-.212.74.74 0 0 1 .045-.22.941.941 0 0 1 .253-.382l.104-.083c.166-.131.33-.247.492-.344a2.95 2.95 0 0 1 .229-.127c.12-.06.278-.133.447-.161a3.164 3.164 0 0 1 .774-.03l.152.014c.276.024.562.048.838.099a4.124 4.124 0 0 1 1.088.33c.147-.108.292-.218.437-.328ZM75.21 67.883c-.12.01-.245.03-.38.063a1.104 1.104 0 0 0-.418.193.781.781 0 0 0-.164.163.489.489 0 0 0-.082.158.373.373 0 0 0 .03.3c.02.027.04.053.062.079.04.05.108.075.169.098l.022.008c.03.012.065.016.099.02l.024.004c.2.03.41.067.616.143.129.058.258.116.387.176.108.05.215.115.327.197.123.102.225.201.312.304.067.091.124.174.173.256a3.713 3.713 0 0 1 .328.747c.025.082.045.172.063.283.005.062.01.123.013.184.004.063.001.128 0 .19l-.003.055a4.573 4.573 0 0 1-.038.424l-.007.059a8.278 8.278 0 0 1-.21 1.005c-.09.337-.18.685-.308 1.024a2.787 2.787 0 0 1-.337.567l-.035.041-.036.042c-.034.041-.072.08-.108.117l-.028.028c-.055.057-.112.112-.169.167l-.06.058a8.889 8.889 0 0 1-.69.608 5.455 5.455 0 0 1-.506.333 6.641 6.641 0 0 1-.69.352 4.413 4.413 0 0 1-.73.235l-.056.013a12.4 12.4 0 0 1-.46.104l-.135.028c-.121.025-.247.05-.37.07l-.296.048-.296.048-.298.038-.298.038c-.059.008-.119.012-.179.017a308.107 308.107 0 0 1-.51.042c-.054.004-.11.006-.163.007l-.064.002h-.034l-.436.016a6.339 6.339 0 0 1-.222.004c-.093 0-.185-.002-.278-.003l-.14-.002a26.248 26.248 0 0 1-.626-.016l-.152-.005c-.163-.006-.33-.012-.496-.024l-.438-.032-.03-.002-.069-.004c-.052-.004-.105-.007-.157-.013l-.714-.082-.202-.029c-.206-.029-.419-.06-.626-.098l-.282-.053-.272-.05a4.691 4.691 0 0 1-.284-.066l-.134-.033-.087-.02c-.096-.023-.196-.046-.293-.075l-.518-.157a1.475 1.475 0 0 1-.132-.047 3.524 3.524 0 0 0-.065-.025l-.067-.024a3.712 3.712 0 0 1-.153-.057l-.211-.085-.266-.106-.032-.014-.336-.145-.186-.08-.017-.008a3.795 3.795 0 0 1-.229-.111l-.068-.035c-.387-.194-.745-.447-1.092-.69l-.073-.052-.165-.131-.157-.125c-.07-.056-.138-.116-.204-.174a10.103 10.103 0 0 1-.336-.298l-.073-.067a7.609 7.609 0 0 1-.255-.242l-.052-.052c-.17-.171-.345-.347-.509-.528-.186-.206-.396-.44-.613-.658a11.84 11.84 0 0 0-.49-.462 8.61 8.61 0 0 0-.921-.726 2.843 2.843 0 0 0-.263-.153 7.362 7.362 0 0 0-1.02-.444 2.916 2.916 0 0 0-.495-.117 2.66 2.66 0 0 0-.423-.029c-.095 0-.191.003-.286.007l-.12.003c-.591.016-1.168.039-1.734.14-.16.03-.31.093-.444.15a2.486 2.486 0 0 0-.606.364 2.54 2.54 0 0 0-.25.222 3.665 3.665 0 0 0-.338.42.364.364 0 0 0-.05.114.27.27 0 0 0 .067.249c.06.068.138.083.195.083a.39.39 0 0 0 .124-.022c.068-.024.134-.054.2-.083l.02-.01c.067-.025.128-.046.186-.063a2.56 2.56 0 0 1 .226-.049c.066-.006.131-.012.198-.016.04-.002.081-.002.122-.002h.1c.21 0 .42.02.617.042l-.02-.004c.066.01.133.02.198.034.146.027.286.077.404.122l.039.018.066.03.108.052.06.03c.089.048.174.104.254.165l.14.124c.116.101.216.216.29.304.067.093.132.189.189.274.076.115.137.234.191.346l.024.061c.033.092.058.185.074.278.01.095.012.192.005.286l-.01.136-.001.019c-.006.08-.015.16-.024.238l-.009.08-.02.147-.018.132c-.012.094-.03.189-.046.28l-.025.135a1.457 1.457 0 0 1-.038.166l-.054.233a4.8 4.8 0 0 1-.24.728l-.031.06-.033.065a1.668 1.668 0 0 1-.125.2 8.77 8.77 0 0 1-.414.48l-.235.256a4.453 4.453 0 0 1-.267.26l-.064.059c-.111.103-.232.199-.337.283-.212.16-.434.312-.66.452a6.994 6.994 0 0 1-1.263.596c-.18.067-.367.123-.548.177l-.013.004a8.064 8.064 0 0 1-1.142.231c-.401.048-.756.076-1.085.085a191.706 191.706 0 0 0-.546.014l-.1.003-.05-.001-.222-.012-.201-.01a3.193 3.193 0 0 0-.083-.003c-.057-.003-.117-.005-.174-.011l-.673-.075-.696-.115a2.158 2.158 0 0 1-.166-.036l-.027-.006-.235-.058-.235-.057a2.367 2.367 0 0 1-.163-.049l-.072-.023-.383-.118c-.053-.016-.107-.037-.159-.057l-.066-.026-.155-.057-.219-.081c-.252-.11-.462-.2-.678-.3-.183-.085-.367-.175-.545-.262l-.12-.059-.129-.062a67.934 67.934 0 0 1-1.194-.591 19.99 19.99 0 0 1-.634-.335c-.2-.112-.403-.228-.598-.34l-.04-.024a10.95 10.95 0 0 1-.611-.385c-.076-.05-.15-.102-.224-.153l-.097-.068c-.131-.09-.23-.16-.32-.23l.001.001-.004-.003-.007-.006-.008-.004a7.4 7.4 0 0 0-.163-.127l-.008-.007-.017-.013-.05-.038-.045-.035-.06-.05a25.49 25.49 0 0 1-.67-.544 42.107 42.107 0 0 1-.82-.716c-.254-.23-.508-.46-.76-.692-.16-.147-.328-.292-.49-.432a46.05 46.05 0 0 1-.57-.502c-.125-.112-.25-.225-.377-.335a2.34 2.34 0 0 0-.273-.208.65.65 0 0 0-.352-.105.47.47 0 0 0-.202.05.837.837 0 0 0-.17.12c-.046.04-.086.089-.125.136a6.757 6.757 0 0 1-.248.273c-.071.074-.155.141-.223.196a4.004 4.004 0 0 1-.41.258 40.92 40.92 0 0 1-1.234.66l-.192.096-.19.096a6.126 6.126 0 0 1-.337.154c-.138.057-.276.113-.415.168a3.932 3.932 0 0 1-.384.122l-.012.004-.02.005a3.75 3.75 0 0 1-.412.1c-.154.024-.309.047-.464.069l-.114.016c-.103.014-.21.03-.315.039l-.207.02-.135.012c-.096.009-.194.012-.29.016h-.01c-.154.006-.315.01-.494.01a41.896 41.896 0 0 1-1.268-.027 23.476 23.476 0 0 1-.603-.033c-.338-.021-.68-.067-1.01-.11l-.09-.012-.03-.005a13.247 13.247 0 0 1-.544-.095l-.087-.017a5.282 5.282 0 0 1-.218-.045l-.226-.054-.19-.046c-.05-.012-.1-.026-.15-.041l-.063-.02c-.095-.027-.19-.054-.284-.085l-.09-.03a4.067 4.067 0 0 1-.212-.072l-.093-.036-.255-.097-.128-.055a44.486 44.486 0 0 1-.185-.08c-.1-.042-.198-.094-.294-.144l-.037-.02a17.328 17.328 0 0 1-.503-.273 25.01 25.01 0 0 1-.485-.281 4.594 4.594 0 0 1-.429-.287 6.253 6.253 0 0 1-.206-.168 5.861 5.861 0 0 1-.233-.216 3.755 3.755 0 0 1-.326-.364 3.414 3.414 0 0 1-.383-.706 3.79 3.79 0 0 1-.147-.441c-.01-.036-.018-.073-.027-.109a3.08 3.08 0 0 0-.022-.086l-.001-.007a.501.501 0 0 0-.017-.055.251.251 0 0 0-.055-.095.182.182 0 0 0-.144-.061c-.04 0-.079.01-.11.028a.213.213 0 0 0-.075.075.22.22 0 0 0-.021.159c.023.215.037.393.043.56.005.15-.003.303-.012.45v.025a7.97 7.97 0 0 1-.05.515c-.046.3-.11.623-.198.987a5.993 5.993 0 0 1-.275.866 2.762 2.762 0 0 1-.524.792c-.076.085-.16.166-.242.243l-.022.021c-.198.19-.41.364-.61.525-.546.413-1.143.78-1.706 1.115-.144.086-.289.166-.438.247l-.033.019c-.159.086-.323.176-.489.254-.298.14-.614.283-.94.422-.215.08-.381.141-.538.196-.112.04-.224.082-.335.124a13.12 13.12 0 0 1-.557.196l-.127.041c-.213.07-.406.13-.59.183a36.115 36.115 0 0 1-1.762.453l-.239.051-.228.049a6.063 6.063 0 0 1-.41.071c-.206.024-.416.035-.62.046l-.173.01-.322.018-.322.018c-.095.006-.166.077-.166.166 0 .086.075.165.157.165h.009a.213.213 0 0 0-.015.064l-.007.095c-.01.11-.02.225-.016.337.003.091.016.187.041.301.02.087.045.178.082.295.035.107.065.196.096.279.083.221.148.403.203.572.032.098.067.202.106.305.03.08.065.16.099.24l.023.053.068.17.114.279.127.286.108.246c.032.076.065.154.101.23.035.07.075.144.125.228a12.346 12.346 0 0 1 .469.878l.113.234c.033.066.067.13.101.194l.03.055c.088.167.172.32.256.47.024.043.047.087.069.132l.034.068.01.017c.03.06.062.12.091.18a7.798 7.798 0 0 0 .325.606l.029.048c.032.052.065.104.095.157l.055.098c.059.106.12.215.185.319l.082.13.175.28c.09.146.176.289.259.438.09.162.184.323.277.478.087.143.176.286.264.428.026.042.053.082.08.122l.042.06.126.194.108.172.209.328c.042.066.087.13.131.195l.019.027.1.151a38.122 38.122 0 0 1 .188.284c.117.178.239.36.365.536l.089.122.038.052.096.135.076.107.061.087.057.08c.045.064.094.127.14.187l.01.01-.011-.015c.051.068.104.135.156.202l.088.111-.001-.002c.128.166.259.323.37.455.041.048.08.097.119.147l.05.063.144.182.006.008c.045.058.088.116.134.171l.044.054.101.122c.115.145.237.288.354.426l.11.13.08.094c.035.043.073.084.11.125l.065.07a7.816 7.816 0 0 1 .167.192l.113.126.11.123c.134.15.31.348.484.555a14.363 14.363 0 0 0 .371.425c.083.095.192.218.31.337l.126.129.155.156.158.158.124.123.127.129c.056.057.113.115.17.17l.024.026c.044.043.088.086.13.13.076.08.149.162.222.243a11.359 11.359 0 0 0 .666.684l.186.175.099.094a14.515 14.515 0 0 0 .508.458c.06.053.117.109.175.164l.023.021.097.09.159.15.035.034.235.227.018.017a4.26 4.26 0 0 0 .2.182l.07.06c.062.055.126.108.191.16.048.04.096.079.143.12.07.06.138.12.206.183l.173.154c.098.085.202.166.29.234l.196.157c.112.089.227.182.343.27l-.014-.012c.063.05.129.1.194.149l.194.148-.037-.03c.148.119.297.234.447.35.106.083.211.168.316.252l.106.086c.066.053.132.107.2.159.087.067.177.133.266.198.076.055.151.11.226.167.123.098.25.195.373.288a9.734 9.734 0 0 0 .33.251l.08.06.261.195c.063.047.126.09.189.135a20.132 20.132 0 0 1 .505.367l-.023-.02.044.037.184.14c.044.033.087.064.132.095l.085.06c.032.025.066.049.099.072.054.039.108.077.16.118.085.063.17.127.254.192l-.013-.012c.062.05.126.097.19.144a42.27 42.27 0 0 1 .338.252l.016.012c.04.03.082.058.123.087l.128.09c.065.052.132.1.199.15.042.03.084.062.125.094.057.043.116.084.174.126l.027.019c.03.02.058.043.087.064.042.03.084.063.127.093.298.208.602.395.966.613.196.118.39.229.578.33l.079.044c.127.069.26.14.386.216l.165.1c.087.055.176.11.266.16.075.04.15.079.227.117l.015.008a8.599 8.599 0 0 1 .461.253c.092.052.186.107.281.157.098.052.2.098.299.143l.178.08.094.047c.045.023.09.045.136.066l.112.052.111.052c.068.03.135.063.202.096.059.028.12.054.178.079l.016.006c.082.037.156.07.232.1l.147.06c.062.027.117.053.172.078l.097.044.158.069.179.079c.237.107.482.208.72.306l.148.062.101.044.352.15.124.052.193.082.01.004.01.003.065.029.03.013v-.001l.145.065c.086.038.172.076.26.113l-.004-.002.003.002.006.002-.002-.001.058.024c.06.026.12.052.18.076l-.017-.007.059.025.172.078.269.12c.056.024.111.05.167.076l.128.059.013.006.273.12c.14.06.287.12.428.178l.113.046-.011-.006c.037.017.074.032.112.048l.111.046c.234.1.498.214.76.307a18.328 18.328 0 0 0 .385.13l.05.017.125.044.147.059.064.029c.147.065.3.133.452.19l.033.014c.079.03.158.06.238.087.11.038.22.075.328.116.135.049.26.092.384.13l.09.028.261.082.087.028c.064.02.127.04.19.063.08.027.165.055.27.088.07.022.149.044.245.068.08.02.159.045.236.069l.09.027.217.065c.136.04.272.08.408.122.197.059.406.119.64.183l.121.034c.187.05.38.104.572.149l.385.093.163.042c.087.022.174.045.262.065l.746.17c.243.054.482.095.749.139l.042.007c.115.019.234.039.35.063.117.024.236.053.35.08l.09.022a19.636 19.636 0 0 0 1.294.27l.284.053c.112.022.227.04.338.057l.031.005c.131.02.262.042.393.066.03.005.062.01.093.017a3.77 3.77 0 0 0 .252.044l.072.012.203.03.215.034.378.063.078.014c.09.016.18.032.271.045.12.016.241.037.358.058.095.016.187.027.277.037l.112.013c.297.037.556.063.794.08.065.004.13.008.194.01l.225.015.116.008.271.022c.14.014.281.023.419.03.117.009.234.016.352.027.082.007.165.01.247.016l.142.008c.124.008.248.018.371.029l.143.014.22.02c.11.008.22.019.33.03l.07.007.189.02c.067.009.134.016.202.023.122.01.249.025.387.043.129.017.253.03.38.042.048.003.096.009.144.014l.047.005c.075.008.151.013.224.018.23.014.462.016.687.019h.098l.36.003c.13 0 .26.003.39.01.122.007.251.014.381.014h.024c.08-.001.162-.004.242-.007l.155-.005c.504-.014 1.016-.016 1.513-.018h.065l.204-.001.601-.002h.208c.202 0 .418-.002.629-.025.28-.032.554-.097.762-.15l.315-.078c.113-.027.227-.054.34-.084a9.61 9.61 0 0 1 .29-.07l.082-.017c.095-.022.193-.04.287-.058l.189-.036c.115-.024.23-.045.345-.067l.132-.024c.083-.016.166-.03.25-.042.08-.013.16-.026.24-.041a.073.073 0 0 0 .045-.025 6.693 6.693 0 0 1 .325-.052c.055-.007.112-.015.167-.027l.014-.003c.07-.016.14-.032.21-.058a1.53 1.53 0 0 1 .092-.033l.045-.015.04-.015c.047-.011.095-.018.143-.026l.047-.007c.058-.01.117-.018.175-.03a7.19 7.19 0 0 1 .41-.07c.198-.027.396-.052.595-.078l.175-.022.775-.101c.08-.01.152-.022.22-.036l.106-.02.15-.03.071-.015c.133-.03.27-.058.405-.092l.28-.068c.154-.037.315-.075.472-.117h-.009c.094-.023.188-.05.282-.077l.236-.067.154-.041.022-.006c.066-.016.131-.033.197-.048a16.8 16.8 0 0 0 .22-.055c.086-.023.172-.043.26-.063l.23-.055c.157-.04.318-.084.48-.132.06-.017.12-.036.179-.054.085-.026.17-.052.256-.076l.052-.014.053-.014.157-.04a3.815 3.815 0 0 0 .227-.058c.056-.014.112-.03.168-.043l.099-.024c.169-.042.344-.085.514-.133.167-.046.343-.1.522-.161l.043-.014c.07-.024.143-.05.215-.07l.33-.093c.124-.034.248-.07.373-.106l.05-.014a100.961 100.961 0 0 1 .825-.257c.113-.04.227-.082.338-.123l.125-.047.425-.156.394-.144.093-.035a4.59 4.59 0 0 1 .11-.041c.061-.022.122-.041.183-.061l.032-.01.135-.044.095-.031a3.61 3.61 0 0 1 .148-.044l.083-.024c.074-.022.153-.045.23-.071a4.86 4.86 0 0 0 .247-.093c.082-.033.163-.065.244-.1.072-.03.142-.066.21-.1l.052-.025.13-.064c.123-.06.25-.12.37-.188l.197-.112c.108-.06.216-.121.323-.184l-.005.002.05-.028.061-.036c.135-.077.27-.161.4-.242l.039-.024.121-.077c.085-.054.17-.108.256-.16l.13-.072.151-.085.25-.145.025-.014.097-.053.292-.16.037-.021c.117-.065.239-.133.365-.187l.143-.06.032-.012c.076-.031.15-.065.23-.103l.141-.065a9.52 9.52 0 0 0 .29-.138 14.737 14.737 0 0 1 .552-.262c.066-.028.122-.052.177-.08l.064-.032c.091-.045.186-.093.28-.135a9.64 9.64 0 0 1 .166-.071 9.93 9.93 0 0 0 .258-.126 4.57 4.57 0 0 1 .193-.093l.086-.04c.064-.028.129-.058.193-.088.032-.015.065-.028.097-.042l.043-.018c.038-.015.075-.034.111-.053l.017-.01a3.27 3.27 0 0 0 .217-.12l.029-.017.098-.057.08-.047c.067-.038.129-.073.192-.104.064-.032.127-.066.19-.1l.065-.034a9.828 9.828 0 0 0 1-.607c.086-.058.173-.117.261-.173.077-.05.156-.098.234-.146l.019-.011a5.83 5.83 0 0 0 .243-.144l.096-.06.12-.077c.071-.046.143-.092.213-.14.073-.047.144-.101.212-.153l.072-.055c.096-.072.197-.152.318-.25.094-.076.193-.156.3-.228l.08-.052.058-.037c.045-.03.087-.061.13-.093.047-.037.095-.072.144-.108.038-.03.077-.057.116-.086a7.204 7.204 0 0 1 .452-.316 3.029 3.029 0 0 0 .3-.211 2.91 2.91 0 0 1 .139-.101l.09-.06.043-.026.136-.091a3.61 3.61 0 0 0 .166-.126l.086-.067.149-.115.098-.076c.049-.038.096-.078.143-.118a7.935 7.935 0 0 1 .259-.213c.05-.041.102-.081.152-.123.053-.043.105-.088.157-.133.062-.053.123-.106.187-.157.053-.043.107-.084.16-.125a17.794 17.794 0 0 0 .495-.396 7.18 7.18 0 0 0 .232-.207l.06-.055a6.57 6.57 0 0 1 .316-.27l.057-.046c.086-.07.174-.14.258-.214.088-.076.173-.157.255-.235.077-.074.155-.146.234-.218.03-.027.06-.053.091-.078l.025-.02.094-.083.026-.023.098-.089a2.04 2.04 0 0 1 .078-.068l.033-.029.016-.013c.028-.025.057-.05.084-.076.03-.028.058-.057.086-.086l.018-.018c.045-.045.093-.088.14-.131l.038-.035c.045-.04.088-.085.13-.128l.015-.016c.026-.024.05-.049.075-.074l-.017.015.038-.035.037-.036.032-.032.016-.016c.046-.046.088-.09.127-.136l.076-.091.07-.083c.031-.038.065-.073.1-.108l.05-.053a.61.61 0 0 0 .061-.072c.015-.022.028-.045.041-.067l.01-.017.007-.012.008-.013a1.06 1.06 0 0 1 .088-.127l.006.006a.203.203 0 0 0 .279-.036l.03-.04a1.24 1.24 0 0 1 .082-.1c.036-.034.076-.063.111-.089a1.32 1.32 0 0 0 .167-.154l.124-.135a2.616 2.616 0 0 1 .224-.232c.026-.023.054-.044.081-.065l.035-.028c.04-.031.077-.063.116-.095a3.71 3.71 0 0 1 .137-.112c.178-.14.368-.264.564-.39.088-.056.166-.113.237-.174.085-.07.164-.151.24-.228l.023-.024c.049-.049.095-.101.14-.152l.08-.089c.072-.078.146-.155.22-.231a3.38 3.38 0 0 0 .306-.34l.076-.095c.096-.116.204-.248.321-.37a2.908 2.908 0 0 1 .146-.131 1.217 1.217 0 0 0 .283-.328l.014-.021c.055-.09.117-.178.177-.263.066-.093.134-.19.194-.29.062-.102.128-.2.201-.309l.078-.12.112-.17c.05-.068.098-.137.147-.205.09-.123.181-.25.266-.379a3.65 3.65 0 0 0 .106-.168c.028-.044.055-.089.084-.133.072-.112.146-.218.202-.3.146-.21.28-.392.41-.56l.11-.145.111-.147c.08-.102.162-.208.24-.314l.075-.1a9 9 0 0 0 .148-.201 6.674 6.674 0 0 1 .334-.43c.036-.043.073-.085.108-.13.084-.104.167-.213.245-.316.04-.053.078-.106.115-.16a1.79 1.79 0 0 0 .113-.19l.15-.266c.086-.147.18-.289.283-.445.07-.106.14-.212.208-.319l.103-.159c.117-.18.211-.33.296-.47.074-.123.146-.25.215-.372l.06-.108c.067-.108.137-.215.206-.32.062-.094.124-.188.183-.284.052-.083.112-.173.19-.283a4.29 4.29 0 0 0 .204-.323c.086-.154.167-.313.245-.467l.058-.114c.085-.167.181-.343.303-.553l.03-.049c.042-.074.087-.15.128-.227.045-.086.091-.173.135-.26.033-.062.063-.125.094-.188l.043-.088c.04-.079.083-.16.137-.254l-.008.012.063-.107.037-.065c.125-.207.26-.414.39-.615l.102-.155c.04-.059.078-.118.116-.177.074-.114.138-.23.19-.328.044-.082.085-.164.126-.247l.03-.058a9.9 9.9 0 0 1 .176-.333c.062-.116.121-.236.177-.353.048-.098.097-.2.15-.297.035-.068.072-.136.11-.203.073-.136.15-.276.216-.42a7.34 7.34 0 0 0 .12-.296l.013-.038c.04-.103.084-.206.133-.308l.04-.083c.036-.076.072-.15.106-.227.04-.09.072-.182.102-.272l.033-.093c.047-.132.098-.266.148-.395.038-.097.075-.193.111-.29.023-.063.048-.124.072-.185a6.604 6.604 0 0 0 .19-.529c.072-.22.137-.456.194-.703l.006-.028c.026-.112.053-.228.075-.344l.041-.242.012-.073a15.004 15.004 0 0 1 .143-.744c.027-.094.058-.205.093-.314l.053-.155a5.69 5.69 0 0 0 .063-.184c.031-.098.07-.196.106-.29l.022-.057a6.01 6.01 0 0 1 .135-.318c.053-.114.098-.233.138-.344l.011-.03c.036-.099.074-.2.105-.302l.097-.312c.045-.144.091-.288.134-.433l.05-.172c.01-.037.021-.078.03-.12a.68.68 0 0 0 .01-.143.486.486 0 0 0-.028-.155.304.304 0 0 0-.15-.186.312.312 0 0 0-.133-.03.507.507 0 0 0-.238.069 1.43 1.43 0 0 0-.055.03.278.278 0 0 0-.109-.022.306.306 0 0 0-.2.083l-.123.1c-.115.095-.234.193-.343.298-.108.104-.2.227-.282.336-.126.15-.25.274-.38.38a3.779 3.779 0 0 1-.295.194 3.47 3.47 0 0 1-.337.167l-.022.01a70.359 70.359 0 0 1-.766.34l-.004.002h.001l-.025.01-.008.003.008-.003h.001c-.207.086-.424.175-.66.27a7.405 7.405 0 0 1-.703.24c-.084.025-.17.045-.254.065l-.125.03a31.309 31.309 0 0 0-.652.17l-.227.06c-.153.04-.31.066-.45.089a6.23 6.23 0 0 1-.24.023c-.102.007-.204.01-.317.01l-.043.001c-.206 0-.416-.021-.597-.042a4.78 4.78 0 0 1-.758-.168 7.312 7.312 0 0 1-.727-.25 10.217 10.217 0 0 1-.622-.293 4.07 4.07 0 0 1-.445-.277L101.5 74a.79.79 0 0 0-.15-.076.39.39 0 0 0-.084-.03 1.478 1.478 0 0 0-.116-.013 2.61 2.61 0 0 0-.114.014.68.68 0 0 0-.105.04.759.759 0 0 0-.168.137c-.059.061-.11.131-.16.199l-.026.036c-.269.337-.575.656-.846.936l-.157.164a9.002 9.002 0 0 1-.924.866l-.053.041-.107.082a3.119 3.119 0 0 1-.275.184 6.833 6.833 0 0 1-.258.15c-.078.044-.161.08-.242.116l-.037.017a6.646 6.646 0 0 1-.468.178c-.148.049-.3.094-.448.137l-.088.025a52.73 52.73 0 0 1-.985.277l-.095.026-.108.03c-.341.094-.694.191-1.045.267-.34.073-.713.142-1.173.218a5.01 5.01 0 0 1-.452.042 52.485 52.485 0 0 1-.775.02c-.093 0-.184-.002-.276-.004a16.293 16.293 0 0 0-.157-.002 2.703 2.703 0 0 1-.202-.013 11.417 11.417 0 0 1-.5-.046 7.79 7.79 0 0 1-.615-.115 4.957 4.957 0 0 1-.618-.196l-.21-.088-.184-.079c-.095-.04-.188-.089-.279-.135l-.067-.035a7.189 7.189 0 0 1-.609-.362l-.01-.006a8.189 8.189 0 0 1-.264-.18 23.023 23.023 0 0 0-.139-.095c-.088-.06-.174-.127-.258-.19l-.08-.062c-.293-.233-.59-.473-.875-.705-.243-.197-.485-.394-.73-.59-.224-.178-.454-.357-.676-.53l-.148-.115-.132-.103c-.211-.165-.422-.33-.634-.492l-.379-.298-.145-.114a47.626 47.626 0 0 0-.478-.37c-.328-.261-.682-.55-1.082-.885-.389-.325-.765-.68-1.096-.993-.63-.594-1.332-1.124-2.011-1.636l-.253-.191-.064-.05a16.84 16.84 0 0 0-.69-.525 10.273 10.273 0 0 0-.35-.24 6.06 6.06 0 0 0-.432-.245 4.93 4.93 0 0 0-.451-.217 3.934 3.934 0 0 0-1.735-.294Z"/>
        <path fill="#68E7C0" d="M83.701 87.123a.254.254 0 0 0-.112.032l-.007.005c-.024.018-.046.034-.066.055a.642.642 0 0 0-.065.086l-.06.09c-.097.146-.193.292-.287.439l-.066.102c-.087.136-.185.29-.275.442l-.034.06a16.54 16.54 0 0 0-.243.429l-.074.138-.021.04c-.056.103-.114.21-.173.314l-.11.19-.018.03c-.052.09-.105.181-.155.272-.04.07-.077.14-.111.21a.166.166 0 0 0-.051-.028 87.354 87.354 0 0 0-.438-.162 6.327 6.327 0 0 0-.473-.158 4.957 4.957 0 0 0-.47-.102 7.877 7.877 0 0 0-.512-.074 6.543 6.543 0 0 0-.75-.05h-.02c-.17.002-.323.005-.472.031-.123.021-.25.062-.353.094a9.032 9.032 0 0 0-.61.225c-.192.077-.395.162-.641.268-.21.09-.43.192-.61.347a.688.688 0 0 0-.198.317.444.444 0 0 0 .064.37c.128.182.36.232.564.275l.053.012c.225.049.464.086.657.116l.017.003c.443.069.894.084 1.356.095l.201.002a4.05 4.05 0 0 0 .79-.07c.084-.016.167-.032.25-.05l.027-.005.053-.01a4.534 4.534 0 0 0 1.085-.36c.162-.075.331-.164.466-.293a9.7 9.7 0 0 0 .18-.18c.118.103.222.23.31.34.136.182.246.338.344.492l.065.102.065.102.213.332c.118.184.249.363.373.53l.3.407.113.154c.103.14.208.276.325.427l.05.064.008.01.008.012c.042.053.085.111.127.172l.075.107.017.025.007.01c.034.05.07.102.12.135.03.019.067.029.105.029a.223.223 0 0 0 .155-.063.214.214 0 0 0 .055-.094c.013-.048.012-.12-.022-.165a.94.94 0 0 0-.053-.088c-.014-.026-.026-.053-.038-.079a9.777 9.777 0 0 1-.336-1.088 17.262 17.262 0 0 1-.251-1.26l-.002.014-.004-.058a5.333 5.333 0 0 1-.027-.215 10.24 10.24 0 0 1-.044-.668 7.067 7.067 0 0 1-.013-.33 68.653 68.653 0 0 1-.007-.786 99.818 99.818 0 0 0-.005-.575v-.012a29.137 29.137 0 0 0-.014-.712 7.501 7.501 0 0 0-.022-.367 1.939 1.939 0 0 0-.032-.223.43.43 0 0 0-.042-.108.273.273 0 0 0-.088-.091.253.253 0 0 0-.112-.029h-.01zm-6.5 6.69a.105.105 0 0 0-.038.006l-.008.003-.008.003a.157.157 0 0 0-.068.04.347.347 0 0 0-.067.078l-.011.016-.047.067-.054.08-.02.03-.068.104c-.045.067-.094.132-.142.196l-.018.024-.117.151a37.562 37.562 0 0 0-.262.347l-.007.01-.021.028-.078.104a1.148 1.148 0 0 0-.04.058l-.02.031a.537.537 0 0 1-.107.14c-.047.033-.1.061-.15.089a.09.09 0 0 0 .03-.033.138.138 0 0 0 .01-.108.116.116 0 0 0-.058-.072 2.35 2.35 0 0 0-.32-.132 2.524 2.524 0 0 0-.405-.083 4.973 4.973 0 0 0-.836-.041 16.83 16.83 0 0 0-.435.016l-.075.004a8.873 8.873 0 0 0-.805.074 3.281 3.281 0 0 0-.513.114c-.19.058-.376.126-.533.185a4.2 4.2 0 0 0-.266.112 1.106 1.106 0 0 0-.218.126l-.027.02a3.214 3.214 0 0 0-.112.088.868.868 0 0 0-.116.115.479.479 0 0 0-.093.17.229.229 0 0 0 .013.174.26.26 0 0 0 .046.067c.021.02.044.036.063.05.038.028.088.05.129.067a1.354 1.354 0 0 0 .466.108l.092.008.092.009a16.199 16.199 0 0 0 .563.028l.042.002a4.19 4.19 0 0 0 .201.003c.157-.003.365-.01.578-.03.211-.022.416-.055.571-.082a5.45 5.45 0 0 0 1.04-.273l.079-.028c.124-.045.278-.1.422-.16.058-.024.116-.05.174-.076l.018-.008.072-.032.052-.024.016-.006c.058-.025.114-.05.168-.078l.007.007c.068.057.145.121.212.192.058.063.112.13.162.193.096.13.191.273.268.386l.029.043c.054.08.106.163.154.242.044.071.088.142.134.211.108.163.23.322.335.458.05.062.106.127.173.199a.402.402 0 0 0 .177.12.13.13 0 0 0 .044.007.182.182 0 0 0 .156-.087c.036-.06.027-.127.015-.196a2.626 2.626 0 0 0-.029-.128 3.477 3.477 0 0 1-.062-.315c-.02-.127-.04-.261-.061-.413l-.118-.84a12.786 12.786 0 0 1-.096-.967l-.01-.135a11.914 11.914 0 0 1-.023-.394l-.003-.042a3.278 3.278 0 0 0-.008-.088.617.617 0 0 0-.046-.205.22.22 0 0 0-.185-.127zm-13.019-8.191h-.004l-.018.001c-.033.002-.067.004-.094.024a.394.394 0 0 0-.056.046.633.633 0 0 0-.056.07l-.019.025-.011.015a3.453 3.453 0 0 0-.252.375l-.006.01a6.394 6.394 0 0 1-.4.595 3.4 3.4 0 0 1-.246.252l-.106.098a.12.12 0 0 0-.047-.013 28.666 28.666 0 0 0-2.21-.095l-.1-.001-.344-.003h-.223a1.19 1.19 0 0 0-.088.006l-.046.004c-.08.005-.16.01-.239.018a3.163 3.163 0 0 1-.082.007h-.017c-.055.006-.11.01-.165.017l-.16.02-.161.02a9.288 9.288 0 0 0-.387.063l-.094.017c-.204.035-.387.07-.559.103a1.083 1.083 0 0 0-.076.019l-.045.012-.075.019-.06.015a2.923 2.923 0 0 0-.188.056l-.053.016a7.19 7.19 0 0 0-.51.176 1.225 1.225 0 0 0-.39.227.88.88 0 0 0-.129.143.636.636 0 0 0-.128.313.58.58 0 0 0 .086.355c.13.219.399.262.641.286.072.006.146.01.235.01a6.5 6.5 0 0 0 .177-.003l.024-.001h.024l.056-.002h.028c.057-.001.113-.002.17-.005l.098-.006c.16-.01.302-.018.447-.032l.087-.008h.007l.158-.015.083-.008.011-.001c.066-.007.134-.013.2-.023.341-.05.72-.107 1.083-.187.15-.033.314-.067.489-.102.156-.03.324-.07.514-.118.141-.037.29-.084.47-.15a9.105 9.105 0 0 0 .962-.409 3.19 3.19 0 0 0 .385-.22c.02.036.038.075.057.114l.028.059.037.077.038.078c.05.102.109.205.174.308.063.098.137.196.222.291.07.079.145.163.216.25.065.086.128.173.19.26.09.128.194.271.3.403.064.079.13.154.203.238l.076.088.054.061.017.02.07.082.107.133.032.04.043.057.018.024.019.025.017.024.015.02c.024.033.05.066.087.085a.216.216 0 0 0 .095.023.172.172 0 0 0 .125-.051.192.192 0 0 0 .058-.133.317.317 0 0 0-.004-.065l-.012-.09a6.828 6.828 0 0 1-.01-.077l-.004-.039-.005-.039-.04-.355c-.01-.081-.018-.162-.026-.243a14.125 14.125 0 0 0-.05-.453l-.001.015-.009-.082a12.849 12.849 0 0 0-.06-.43l-.094-.566c-.042-.247-.08-.5-.118-.744l-.004-.03a55.59 55.59 0 0 0-.049-.315l-.023-.133-.004-.025-.012-.063-.007-.041c-.012-.065-.023-.13-.037-.194l-.014-.063c-.023-.105-.046-.214-.08-.32a.634.634 0 0 0-.07-.156c-.03-.046-.09-.099-.156-.099zm-4.578 35.27c0 .079.066.144.145.144a.145.145 0 0 0 .145-.144.146.146 0 0 0-.145-.145.146.146 0 0 0-.145.145zM32.25 94.219a.2.2 0 0 0-.091.023.323.323 0 0 0-.111.099.827.827 0 0 0-.116.282 5.19 5.19 0 0 0-.074.363l-.017.096-.026.137-.056.312-.019.12-.01.073-.04.262c-.014.091-.026.178-.037.264l-.005.035-.018.138c-.038.279-.067.558-.096.842-.013.123-.023.26-.033.42-.01.17-.015.349.016.521a.61.61 0 0 0 .073.2.267.267 0 0 0 .131.102.44.44 0 0 0 .073.01.285.285 0 0 0 .054-.006l.021-.004a.359.359 0 0 0 .075-.023 2.183 2.183 0 0 0 .508-.287 4.937 4.937 0 0 0 .608-.547l.068-.072c.07-.075.14-.15.206-.225l.142-.164.132-.154.093-.105.025-.027.022-.025.038-.043a2.22 2.22 0 0 0 .091-.105c.07-.088.137-.18.201-.269l.007-.01.1-.137.05-.063a.162.162 0 0 0 .044-.107.153.153 0 0 0-.045-.107c.09.065.184.125.274.184l.035.022c.038.024.078.046.117.069l.052.028.056.03.033.016.08.039c.16.074.29.133.409.184.14.06.264.112.382.156l.1.038c.1.038.198.076.298.111l.42.15c.11.04.225.075.336.11l.017.005.04.012c.114.035.232.064.346.093l.033.008c.136.033.272.065.409.095a10.682 10.682 0 0 0 .628.118l.069.009.015.002.017.002.033.004.012.001.057.007.044.003a2.938 2.938 0 0 0 .272.009 5.218 5.218 0 0 0 .744-.054c.038-.005.075-.01.111-.017l.013-.003c.16-.032.342-.069.513-.121.142-.044.304-.093.403-.213.099-.12.115-.294.118-.415a1.226 1.226 0 0 0-.052-.345 1.28 1.28 0 0 0-.055-.16v.003l.001.004a1.616 1.616 0 0 0-.156-.324 1.527 1.527 0 0 0-.397-.419 4.649 4.649 0 0 0-.188-.133 1.577 1.577 0 0 0-.152-.092l-.073-.04-.035-.018c-.019-.01-.039-.018-.059-.027l-.006-.003-.033-.014a3.93 3.93 0 0 0-.162-.068l-.01-.004-.036-.014a.668.668 0 0 0-.056-.02l-.007-.002-.028-.008c-.032-.01-.057-.02-.083-.026l-.058-.014-.058-.014a2.278 2.278 0 0 0-.516-.064l-.048-.001h-.028a36.936 36.936 0 0 0-.573.001c-.234.003-.541.009-.85.03-.14.01-.287.026-.406.04l-.019.001a4.604 4.604 0 0 0-.44.078c-.05.01-.1.025-.147.038l-.01.003-.04.012a3.746 3.746 0 0 0-.17.053l-.166.057-.056.02c-.042.014-.083.03-.123.047l-.066.026-.1.038a14.133 14.133 0 0 0-.945.395l-.227-.187c-.112-.095-.225-.19-.338-.283a18.248 18.248 0 0 0-.915-.708l-.105-.076-.145-.102-.011-.008-.025-.017-.018-.013-.034-.023-.017-.012c-.044-.03-.089-.062-.136-.085a.204.204 0 0 0-.093-.023z"/>
        <path fill="#0E1F37" d="M38.843 96.463c0 .136.113.25.25.25s.25-.114.25-.25a.253.253 0 0 0-.25-.251.253.253 0 0 0-.25.25zm18.614-8.286c0 .136.114.25.25.25s.25-.114.25-.25a.252.252 0 0 0-.25-.25.252.252 0 0 0-.25.25zm20.682 2.56c0 .131.11.24.241.24a.243.243 0 0 0 .242-.24.243.243 0 0 0-.242-.242.243.243 0 0 0-.241.242zm-5.583 5.175c0 .127.105.232.232.232a.235.235 0 0 0 .232-.232.235.235 0 0 0-.232-.232.235.235 0 0 0-.232.232z"/>
        <path fill="#FFF" d="M95.034 80.706a.25.25 0 0 0-.092.016 2.901 2.901 0 0 0-.127.053 1.11 1.11 0 0 0-.122.09l-.007.005-.037.03-.036.03a8.915 8.915 0 0 1-.116.096c-.257.188-.508.371-.763.543-.28.188-.551.393-.827.603l-.436.329a4.133 4.133 0 0 0-1.088-.33 8.931 8.931 0 0 0-.84-.1l-.15-.013a3.107 3.107 0 0 0-.775.029c-.169.028-.328.1-.447.16a4.711 4.711 0 0 0-.825.555.96.96 0 0 0-.253.382.739.739 0 0 0-.044.22.922.922 0 0 0 .024.212.508.508 0 0 0 .117.201.854.854 0 0 0 .177.16c.203.141.454.205.65.245.128.026.26.041.388.056l.11.014c.194.023.386.028.549.029h.01c.211 0 .428-.034.615-.066.179-.03.35-.075.509-.132.178-.064.364-.142.569-.24a3.8 3.8 0 0 0 .48-.282l.095-.065a.358.358 0 0 0 .076.03c.094.039.193.074.287.107l.206.076c.071.034.132.068.186.103.056.047.11.097.162.146l.012.01.088.082.028.025c.098.09.21.193.325.286.179.146.333.262.507.352.1.05.206.101.325.106h.02c.055 0 .108-.009.164-.018a.472.472 0 0 0 .205-.113.616.616 0 0 0 .108-.154.869.869 0 0 0 .064-.203c.01-.045.015-.092.02-.137l.001-.009.008-.063c.046-.364.077-.732.107-1.108.028-.343.068-.714.127-1.167l.022-.176.021-.165a6.9 6.9 0 0 0 .025-.22c.005-.051.006-.104.008-.155a.566.566 0 0 0-.081-.278.369.369 0 0 0-.134-.133.402.402 0 0 0-.195-.054zm-58.796.82a.32.32 0 0 0-.179.055.692.692 0 0 0-.136.126l-.02.022a4.639 4.639 0 0 0-.155.18c-.123.143-.251.285-.345.389l-.009.01-.031.035-.03.034-.209.233-.054.062-.007.007c-.13.15-.308.353-.485.538a36.781 36.781 0 0 0-.598.01h-.051c-.1.003-.206.004-.305.01l-.308.02-.31.02c-.11.008-.226.024-.319.036l-.016.002-.016.002-.116.016c-.275.036-.635.086-.979.162a5.877 5.877 0 0 0-.496.125c-.139.041-.29.107-.46.2-.037.02-.074.043-.11.065l-.014.008-.05.031a1.29 1.29 0 0 0-.21.16.835.835 0 0 0-.09.112l-.015.023a.421.421 0 0 0-.058.316.551.551 0 0 0 .135.256c.14.14.327.233.609.302a3.493 3.493 0 0 0 .8.093c.193 0 .406-.02.67-.065.263-.045.521-.122.772-.196l.075-.023a3.07 3.07 0 0 0 .742-.308c.187-.111.345-.24.498-.363a3.71 3.71 0 0 0 .153-.133c.09.053.173.114.253.173l.024.017.01.007a2.944 2.944 0 0 0 .52.312c.084.041.17.08.256.12l.013.006.007.004c.18.083.366.169.543.269.072.04.146.089.205.127l.015.01.013.008.008.005c.042.027.083.055.126.081a.488.488 0 0 0 .128.06l.007.002c.047.008.087.016.127.016a.224.224 0 0 0 .084-.015l.013-.005a.422.422 0 0 0 .166-.096.433.433 0 0 0 .102-.178c.036-.133-.01-.26-.055-.382l-.003-.01a4.619 4.619 0 0 1-.131-.475l-.014-.062a5.134 5.134 0 0 1-.081-.464l-.023-.163-.012-.087a27.101 27.101 0 0 1-.067-.597l-.036-.332-.016-.144-.016-.145a2.13 2.13 0 0 0-.052-.299c-.023-.082-.08-.229-.21-.29a.4.4 0 0 0-.177-.045z"/>
        <path fill="#DA3ACB" d="M31.299 84.186c0 .154.129.283.283.283a.286.286 0 0 0 .284-.283.286.286 0 0 0-.284-.284.286.286 0 0 0-.283.284zm57.547-.83c0 .175.146.321.321.321.175 0 .32-.146.32-.32a.324.324 0 0 0-.32-.321.324.324 0 0 0-.32.32z"/>
        <path fill="#44B1E9" d="M17.506 70.523c-.1.161-.102.355-.122.537a9.23 9.23 0 0 1-.013.115c-.036.23-.09.456-.133.685-.042.225-.074.452-.117.677a7.667 7.667 0 0 1-.373 1.348c-.077.172-.16.34-.256.503-.1.166-.214.322-.331.476-.275.341-.607.633-.948.908-.213.16-.428.317-.64.48-.234.179-.47.354-.715.52-.254.172-.513.335-.764.511-.116.082-.233.165-.354.239a3.144 3.144 0 0 1-.33.175c-.308.119-.622.221-.931.334-.347.126-.692.25-1.047.351-.344.1-.699.171-1.05.24-.401.079-.804.146-1.206.219a.53.53 0 0 0-.126.962c.13.076.262.08.406.053.412-.075.826-.144 1.238-.221.37-.07.741-.14 1.106-.23.36-.088.711-.209 1.062-.328.377-.129.762-.238 1.126-.403.338-.153.634-.375.94-.58.31-.206.624-.401.922-.622.3-.223.599-.446.897-.67.342-.257.667-.532.975-.83.16-.154.291-.337.427-.513.11-.143.22-.287.313-.443.215-.36.38-.743.514-1.14.118-.348.196-.705.263-1.065a6.9 6.9 0 0 0 .166.305c.21.365.436.727.704 1.052.102.123.206.25.323.359.165.153.348.29.531.42.145.102.292.2.434.306.14.105.284.212.434.302.088.053.177.102.269.15.177.091.367.154.555.22.176.06.354.112.533.164.771.229 1.578.329 2.38.351.385.01.774.031 1.158.01a20.7 20.7 0 0 0 1.175-.113c.776-.09 1.562-.154 2.319-.359.356-.096.713-.192 1.059-.321a4.37 4.37 0 0 0 1.081-.583c.185-.138.364-.28.536-.434l.398-.36c.258-.233.521-.46.78-.69.062-.055.124-.109.183-.166a.583.583 0 0 0 0-.818.585.585 0 0 0-.818 0c-.147.142-.306.274-.461.407-.133.113-.261.23-.391.348-.256.229-.504.468-.771.684a4.618 4.618 0 0 1-.796.477 11.046 11.046 0 0 1-2.16.547c-.31.04-.623.072-.935.108-.356.041-.712.086-1.07.107-.352.02-.704.015-1.057.005-.37-.01-.739-.024-1.108-.063a6.945 6.945 0 0 1-.896-.168 11.97 11.97 0 0 1-1.077-.337 4.603 4.603 0 0 1-.72-.456c-.186-.135-.377-.263-.562-.4a2.457 2.457 0 0 1-.287-.263 6.446 6.446 0 0 1-.216-.249 9.415 9.415 0 0 1-.595-.942c-.165-.3-.304-.611-.44-.924a10.76 10.76 0 0 1-.162-.417l-.09-.254c-.03-.084-.066-.164-.101-.245-.027-.063-.076-.112-.119-.164-.103-.123-.27-.158-.42-.17a.364.364 0 0 0-.033-.001c-.19 0-.37.133-.466.287zm35.09-.474c-.226.005-.45.042-.67.09a2.555 2.555 0 0 0-.503.176c-.119.053-.23.129-.34.198a5.78 5.78 0 0 0-.556.409 1.842 1.842 0 0 0-.197.19 2.015 2.015 0 0 0-.252.337c-.2.34-.344.713-.506 1.072l-.059.138a.579.579 0 0 0 1.057.445c.099-.209.188-.422.285-.631.081-.175.161-.351.269-.511.085-.098.178-.185.278-.267.187-.138.382-.27.59-.372.138-.048.28-.078.422-.105.237-.021.473-.013.71.012.298.045.594.108.889.175.176.04.353.084.527.133.151.042.298.093.444.15.35.156.69.338 1.02.534.19.113.37.243.548.375.162.12.328.234.489.354.28.221.55.453.821.684.317.27.64.531.973.78.116.09.232.18.35.267l.285.219c.28.216.578.403.869.604.138.095.272.196.411.29.158.108.322.204.49.295.334.181.681.345 1.046.459.358.111.724.197 1.082.31.342.11.673.25 1.014.363.175.057.353.115.533.155.222.05.449.079.676.1.37.035.74.052 1.11.082.179.015.356.037.535.05.185.012.37.024.554.03.301.01.601.017.903.018.152.001.304.004.456.003.146 0 .291-.01.437-.024a8.73 8.73 0 0 0 1.034-.143c.186-.04.364-.114.542-.182.166-.062.333-.12.5-.177a.4.4 0 0 0 .23-.177.387.387 0 0 0 .038-.297c-.053-.192-.274-.337-.473-.269-.15.052-.298.103-.446.157-.181.066-.362.132-.551.169a6.2 6.2 0 0 1-.783.035 10.411 10.411 0 0 1-.43-.013c-.14-.007-.281-.026-.421-.04-.58-.054-1.158-.126-1.736-.195l.017.002a17.956 17.956 0 0 0-.808-.091 32.544 32.544 0 0 1-.746-.072 4.66 4.66 0 0 1-.754-.187c-.283-.096-.561-.205-.842-.307a11.972 11.972 0 0 0-.886-.277c-.256-.072-.512-.14-.76-.235a6.674 6.674 0 0 1-1.094-.62c-.17-.12-.339-.241-.512-.356-.165-.11-.332-.218-.49-.336-.082-.064-.165-.126-.247-.188-.11-.088-.224-.171-.336-.256a23.387 23.387 0 0 1-1.035-.836c-.303-.26-.608-.516-.926-.758a14.62 14.62 0 0 0-.428-.312c-.15-.106-.296-.219-.449-.321a7.904 7.904 0 0 0-.898-.509 7.652 7.652 0 0 0-.583-.265 5.073 5.073 0 0 0-.503-.169c-.175-.05-.355-.091-.532-.132a13.68 13.68 0 0 0-.527-.109 5.774 5.774 0 0 0-1.155-.121zm21.782-2.43a1.958 1.958 0 0 0-.28.068 2.21 2.21 0 0 0-.596.301c-.15.105-.295.219-.435.337-.146.12-.268.27-.38.422-.099.137-.165.29-.21.453-.026.094-.04.19-.056.286a2.803 2.803 0 0 0-.048.639c.01.156.055.293.168.406a.577.577 0 0 0 .406.168.58.58 0 0 0 .575-.574c0-.121.007-.24.02-.36.017-.107.036-.214.068-.317.015-.026.031-.05.048-.075a2.71 2.71 0 0 1 .335-.32c.119-.086.24-.168.37-.235.094-.032.189-.057.286-.076.084-.006.167-.01.251-.004.13.024.257.059.382.103.337.157.649.36.971.545.376.216.762.421 1.107.686l-.019-.014c.193.147.389.288.581.434.13.103.262.204.387.312l.45.388c.284.248.574.49.859.738.138.12.272.247.413.365.167.14.338.277.514.407.283.21.58.4.878.588.299.19.592.386.885.584.293.198.591.384.874.597.162.127.325.253.488.378l-.104-.08c.149.115.298.229.452.337.132.092.266.18.398.272.258.178.519.35.792.503.136.078.273.152.415.22.137.065.277.123.415.185.261.118.522.24.793.333.243.082.496.14.743.207a.404.404 0 0 0 .491-.28.403.403 0 0 0-.279-.491c-.305-.084-.616-.157-.91-.274a9.043 9.043 0 0 1-.844-.421 6.304 6.304 0 0 1-.648-.429c-.282-.23-.563-.464-.849-.69-.28-.223-.544-.468-.82-.694-.313-.255-.651-.472-.977-.708a23.087 23.087 0 0 0-.914-.62 13.241 13.241 0 0 1-.686-.479 15.566 15.566 0 0 1-.31-.255c-.134-.115-.263-.234-.394-.353-.244-.221-.498-.433-.748-.648-.262-.226-.515-.462-.785-.677-.263-.208-.533-.406-.8-.608a6.661 6.661 0 0 0-.973-.644c-.314-.177-.623-.365-.935-.546a3.833 3.833 0 0 0-.57-.271 2.865 2.865 0 0 0-.83-.163 2.55 2.55 0 0 0-.415.045zm25.527 6.034c-.237.047-.415.2-.574.372-.229.246-.43.518-.664.76-.249.256-.521.489-.777.738-.073.072-.143.147-.215.22a2.62 2.62 0 0 1-.194.176c-.194.14-.396.271-.599.4a8.398 8.398 0 0 1-1.038.584 2.36 2.36 0 0 1-.461.134 2.299 2.299 0 0 1-.145.011.528.528 0 0 0-.362.15.515.515 0 0 0-.15.363c0 .27.233.526.512.513.262-.012.523-.053.77-.137a5.36 5.36 0 0 0 .856-.396c.175-.097.348-.2.52-.303.171-.103.343-.207.511-.317.18-.117.361-.244.517-.393.258-.248.52-.49.788-.726.26-.23.485-.491.707-.755.084-.1.173-.194.267-.285h.011c.134.028.262.068.39.117.336.148.664.318.996.476.2.094.4.188.606.268.174.067.35.136.534.17.435.081.874.116 1.316.132.186.007.375-.004.562-.011.234-.01.464-.044.696-.077.32-.046.638-.109.952-.19a5.133 5.133 0 0 0 1.05-.404.562.562 0 0 0 .265-.346.583.583 0 0 0-.058-.445.584.584 0 0 0-.345-.266.606.606 0 0 0-.446.059 6.543 6.543 0 0 1-.24.111c-.248.098-.5.172-.76.231-.265.06-.53.106-.799.147a7.803 7.803 0 0 1-1.759-.027c-.118-.021-.237-.042-.352-.08a7.915 7.915 0 0 1-.333-.12c-.312-.139-.619-.291-.928-.436-.25-.117-.5-.238-.76-.331a1.89 1.89 0 0 0-.313-.08 1.796 1.796 0 0 0-.31-.03c-.08 0-.16.007-.244.023zm-28.203 7.37c-.143.085-.21.292-.114.437a8.45 8.45 0 0 0 .44.61c.07.087.16.151.247.218.092.07.205.11.31.154.086.037.178.061.268.085.333.088.67.166 1.016.156.216-.007.44-.043.64-.125.172-.07.342-.142.506-.227a3.47 3.47 0 0 0 .389-.232c.085-.06.17-.122.247-.192.04-.037.078-.075.118-.111.159.13.313.266.484.382.157.106.333.176.507.247.107.045.216.081.326.115.114.034.232.059.35.075.129.018.251.025.38.013.092-.008.183-.021.274-.036.1-.015.202-.041.294-.08.08-.033.158-.066.235-.105.108-.055.202-.131.297-.206.084-.065.125-.2.125-.302a.428.428 0 0 0-.427-.426.443.443 0 0 0-.302.124 1.085 1.085 0 0 1-.022.02c-.056.038-.114.07-.175.1a2.145 2.145 0 0 1-.295.075 1.687 1.687 0 0 1-.28.006 3.94 3.94 0 0 1-.355-.082 2.502 2.502 0 0 1-.29-.107 2.073 2.073 0 0 1-.35-.206l-.157-.124c-.173-.135-.349-.29-.582-.29a.704.704 0 0 0-.363.096l-.04.032a1.024 1.024 0 0 0-.17.146 3.295 3.295 0 0 1-.196.184 4.369 4.369 0 0 1-.774.437c-.112.041-.224.07-.34.09a2.145 2.145 0 0 1-.542-.006 3.816 3.816 0 0 1-.643-.157 1.185 1.185 0 0 1-.152-.087 1.648 1.648 0 0 1-.187-.207 13.62 13.62 0 0 1-.26-.379.331.331 0 0 0-.191-.146.321.321 0 0 0-.246.032zM60.484 98.388a.723.723 0 0 0-.265.145c-.096.077-.18.175-.268.262-.336.33-.68.656-1.05.949-.16.118-.329.222-.51.306a1.505 1.505 0 0 1-.194.062l-.07-.001a2.056 2.056 0 0 1-.289-.087 1.347 1.347 0 0 1-.184-.104 3.95 3.95 0 0 1-.387-.387c-.124-.14-.248-.28-.38-.414a2.32 2.32 0 0 0-.41-.335.543.543 0 0 0-.113-.053.312.312 0 0 0-.138-.03c-.05.005-.099.008-.146.025a.431.431 0 0 0-.168.102 1.43 1.43 0 0 0-.14.19c-.036.057-.074.11-.113.163-.108.13-.224.248-.351.36a7.198 7.198 0 0 1-.356.288 1.926 1.926 0 0 1-.253.16 1.189 1.189 0 0 1-.157.039 1.962 1.962 0 0 1-.368-.007 5.884 5.884 0 0 1-.401-.085c-.158-.04-.314-.1-.465-.162-.22-.1-.423-.233-.617-.378a1.618 1.618 0 0 1-.204-.194 1.198 1.198 0 0 1-.056-.097l-.002-.007a.912.912 0 0 0-.013-.093c-.033-.163-.22-.248-.37-.21-.093.024-.145.085-.2.156l-.108.14c-.508.649-1.023 1.294-1.536 1.94-.051.064-.087.124-.087.21a.3.3 0 0 0 .087.21.302.302 0 0 0 .21.088c.072 0 .165-.03.212-.087.475-.6.954-1.196 1.424-1.8.124.147.29.264.442.373.16.116.32.22.5.305.13.06.265.112.398.164.139.054.286.092.431.125.18.04.36.068.545.08.167.013.344-.013.506-.056.094-.025.188-.078.272-.128.085-.05.164-.113.242-.174.127-.1.256-.196.375-.305a2.865 2.865 0 0 0 .49-.566c.176.173.327.373.483.563.112.135.224.268.351.39.14.134.29.239.463.323.225.108.46.203.713.194a1.37 1.37 0 0 0 .347-.072 2.74 2.74 0 0 0 .382-.163 3.25 3.25 0 0 0 .62-.414c.154-.126.307-.253.459-.382.123-.106.243-.215.361-.327.043-.04.086-.083.129-.125l.027.045.084.142a3.486 3.486 0 0 0 .49.606c.237.225.524.384.838.475.07.02.143.029.215.038.066.014.133.02.2.02.067-.006.133-.014.2-.024a2.52 2.52 0 0 0 .38-.114c.192-.072.387-.144.565-.245.113-.065.213-.152.315-.233.051-.04.099-.083.147-.125.098-.086.196-.17.283-.266.09-.1.145-.214.145-.351a.498.498 0 0 0-.496-.497l-.132.018a.495.495 0 0 0-.22.128c-.154.13-.299.27-.453.4a1.735 1.735 0 0 1-.255.146c-.045.021-.092.04-.137.059l.119-.05c-.155.059-.31.12-.47.159-.02 0-.039 0-.058-.002a1.48 1.48 0 0 1-.219-.06 1.693 1.693 0 0 1-.225-.13 2.94 2.94 0 0 1-.322-.335c-.064-.092-.122-.189-.182-.283a3.194 3.194 0 0 0-.246-.336.75.75 0 0 0-.356-.246.696.696 0 0 0-.18-.026.444.444 0 0 0-.13.018zm-40.83-11.02c-.116.05-.156.166-.208.27a3.726 3.726 0 0 1-.1.18c-.07.118-.154.228-.233.339-.145.206-.3.405-.452.605a2.66 2.66 0 0 1-.354.374l-.137.105c-.071.055-.126.106-.15.196a.33.33 0 0 0 .228.403c.076.021.187.018.253-.033.084-.064.169-.127.251-.192a1.88 1.88 0 0 0 .224-.213c.094-.104.18-.216.266-.328.102-.134.205-.268.306-.403.085-.115.172-.23.253-.347l.026.042c.115.183.247.35.379.521.11.144.223.294.349.424.148.153.298.304.458.444.301.264.658.513 1.048.618.197.052.404.056.606.04a2.17 2.17 0 0 0 .474-.083c.261-.08.497-.246.675-.45.128-.147.245-.303.335-.476.084-.161.166-.323.247-.486l.095-.195.05.06c.105.123.21.246.322.363.152.16.315.312.496.438.16.112.35.187.53.257.086.033.17.066.258.095.136.045.27.078.413.098.06.012.12.018.182.02a3.87 3.87 0 0 0 .064-.008 1.44 1.44 0 0 0 .19-.03c.142-.028.28-.097.41-.155.226-.102.44-.24.645-.379.325-.219.64-.5.844-.837a.492.492 0 0 0-.175-.668.49.49 0 0 0-.376-.049.511.511 0 0 0-.29.224 3.175 3.175 0 0 1-.055.076c-.124.147-.26.278-.406.4-.227.158-.459.31-.71.427-.05.018-.101.034-.153.047a.89.89 0 0 1-.083-.003 3.225 3.225 0 0 1-.592-.183 1.805 1.805 0 0 1-.27-.15 4.285 4.285 0 0 1-.266-.24c-.095-.096-.186-.194-.279-.292-.079-.083-.156-.17-.24-.249a1.8 1.8 0 0 0-.225-.177.556.556 0 0 0-.193-.08.525.525 0 0 0-.55.196 1.331 1.331 0 0 0-.12.179c-.031.058-.058.12-.087.18-.052.11-.104.222-.158.332-.111.228-.216.459-.364.665a1.682 1.682 0 0 1-.2.213 1.16 1.16 0 0 1-.148.088c-.087.031-.175.05-.266.067a2.33 2.33 0 0 1-.364.009 1.514 1.514 0 0 1-.234-.065 2.976 2.976 0 0 1-.481-.298c-.123-.1-.239-.208-.356-.316a2.714 2.714 0 0 1-.226-.232c-.15-.175-.295-.354-.439-.534a6.71 6.71 0 0 1-.225-.325c-.046-.072-.09-.145-.135-.218-.02-.032-.039-.066-.058-.099a.892.892 0 0 0-.103-.149.342.342 0 0 0-.236-.1.44.44 0 0 0-.18.047zm36.319-5.93c-.108.03-.24.113-.287.22a1.166 1.166 0 0 1-.088.166 2.25 2.25 0 0 1-.24.228c-.14.101-.282.197-.439.273a2.55 2.55 0 0 1-.437.129c-.099.009-.197.01-.297.002a2.704 2.704 0 0 1-.497-.138 7.233 7.233 0 0 1-.276-.132 3.38 3.38 0 0 1-.3-.178 6.358 6.358 0 0 1-.265-.18c-.086-.06-.168-.128-.257-.186a.891.891 0 0 0-.307-.134.657.657 0 0 0-.561.156c-.144.121-.238.292-.324.456-.049.093-.096.187-.147.28a2.27 2.27 0 0 1-.155.24 3.173 3.173 0 0 1-.418.418 1.22 1.22 0 0 1-.146.087.965.965 0 0 1-.13.035 3.107 3.107 0 0 1-.564.004c-.1-.02-.195-.048-.29-.084a16.571 16.571 0 0 1-.323-.15c-.11-.052-.225-.105-.33-.168-.118-.07-.238-.139-.352-.216a12.08 12.08 0 0 1-.333-.232l-.094-.074a16.521 16.521 0 0 0-.187-.146.795.795 0 0 0-.172-.08c-.097-.036-.229-.006-.316.045a.603.603 0 0 0-.188.202 3.78 3.78 0 0 1-.086.126 3.84 3.84 0 0 1-.315.323 7.986 7.986 0 0 1-.48.404c-.18.136-.37.264-.575.359a3.678 3.678 0 0 1-.422.131.376.376 0 0 0-.26.459c.055.2.261.309.459.26a2.826 2.826 0 0 0 1.064-.486c.236-.166.454-.356.673-.545a3.958 3.958 0 0 0 .393-.396c.087.074.182.141.274.21.159.122.33.226.499.33.16.1.335.182.504.268.086.043.172.086.26.124.116.05.232.096.354.128.08.02.168.029.249.038a3.31 3.31 0 0 0 .543.016c.102-.006.203-.019.304-.035.078-.013.16-.055.23-.085.064-.027.122-.056.18-.093.153-.096.286-.224.419-.346a1.74 1.74 0 0 0 .173-.186 4.08 4.08 0 0 0 .218-.294c.048-.071.087-.148.125-.225.06-.118.108-.244.167-.363.18.142.362.277.553.404a3.718 3.718 0 0 0 .905.433c.172.056.35.081.528.105.185.025.376-.003.559-.032.169-.026.338-.084.497-.146.176-.068.34-.155.497-.258.306-.2.605-.434.774-.765a.502.502 0 0 0 .048-.37.485.485 0 0 0-.464-.353.482.482 0 0 0-.127.017z"/>
        <path fill="#FFF" d="M48.572 74.76c-.091.181-.183.361-.272.544-.093.193-.168.42-.084.631a.643.643 0 0 0 .138.223.74.74 0 0 0 .44.188.818.818 0 0 0 .185-.004c.264-.031.526-.137.693-.352a.784.784 0 0 0 .103-.145c.04-.068.066-.149.091-.224a.923.923 0 0 0 .006-.465 3.444 3.444 0 0 0-.065-.158.987.987 0 0 0-.135-.17.776.776 0 0 0-.56-.202l-.009-.005a.389.389 0 0 0-.196-.05.37.37 0 0 0-.335.19zm2.527-.338c0 .276.23.507.506.507s.507-.23.507-.507a.511.511 0 0 0-.507-.506.511.511 0 0 0-.506.506zm.04 1.794c0 .276.23.506.506.506s.506-.23.506-.506a.511.511 0 0 0-.506-.506.511.511 0 0 0-.507.506zm20.54-4.165a.41.41 0 0 0 .407.407.41.41 0 0 0 .408-.407.41.41 0 0 0-.408-.407.41.41 0 0 0-.407.407zm1.672.332c0 .276.23.506.506.506s.506-.23.506-.506a.511.511 0 0 0-.506-.506.511.511 0 0 0-.506.506zm-1.274 1.941c0 .245.204.45.45.45a.454.454 0 0 0 .448-.45.454.454 0 0 0-.449-.45.454.454 0 0 0-.449.45zm1.751-7.053a2.953 2.953 0 0 0-.851.28 1.757 1.757 0 0 0-.485.322 2.82 2.82 0 0 0-.285.346 4.89 4.89 0 0 0-.327.494c-.123.22-.177.46-.235.701-.049.2.06.408.263.464.193.053.415-.064.464-.263.035-.146.067-.292.117-.433.075-.156.174-.3.277-.439.096-.123.195-.242.313-.346.1-.063.205-.112.313-.16.197-.078.397-.13.605-.168.105-.01.21-.014.317-.008.107.006.213.018.319.032.226.034.449.076.67.135a4.5 4.5 0 0 1 .543.183c.238.106.47.225.7.35.117.063.238.124.35.197.119.079.233.163.347.248a11.7 11.7 0 0 1 1.507 1.404c.236.255.478.505.738.736.284.252.583.487.89.713.285.21.584.403.876.605l.414.288c.148.105.3.203.447.309.136.098.277.19.413.289.16.113.319.23.477.347.285.211.57.42.878.598.261.152.522.307.78.464.255.155.513.302.77.452.264.155.532.301.786.472.127.085.251.174.378.26.147.098.305.175.467.245l.121.05a.507.507 0 0 0 .623-.621c-.032-.115-.12-.253-.233-.303a3.317 3.317 0 0 1-.523-.283c-.143-.096-.282-.2-.427-.292-.298-.19-.606-.363-.913-.536-.287-.161-.567-.334-.849-.502-.156-.093-.312-.187-.47-.279a5.583 5.583 0 0 1-.428-.271c-.288-.204-.568-.418-.856-.622a45.14 45.14 0 0 0-.844-.584c-.282-.191-.56-.39-.843-.578a21.7 21.7 0 0 1-.782-.548 11.406 11.406 0 0 1-.713-.604c-.257-.238-.496-.498-.743-.747a8.42 8.42 0 0 0-.808-.705c-.167-.131-.331-.265-.502-.392a12.48 12.48 0 0 0-.448-.315c-.154-.104-.325-.184-.49-.269-.15-.077-.302-.154-.456-.224a5.4 5.4 0 0 0-1.083-.376 6.874 6.874 0 0 0-.567-.097 5.195 5.195 0 0 0-.655-.056h-.008c-.11 0-.23.017-.339.037zm-20.595 2.332c-.215.018-.43.045-.644.074-.184.025-.368.066-.55.103a3.918 3.918 0 0 0-1.097.406 3.751 3.751 0 0 0-.474.32c-.158.122-.31.25-.45.394-.222.23-.434.475-.587.758-.069.128-.137.258-.21.384-.087.149-.18.294-.275.438-.092.14-.029.339.11.42.15.088.328.03.42-.11.118-.18.235-.36.344-.546a5.51 5.51 0 0 1 .29-.459 4.7 4.7 0 0 1 .664-.644c.11-.084.223-.166.341-.24a3.67 3.67 0 0 1 .413-.208c.187-.074.376-.135.573-.18a10.4 10.4 0 0 1 .655-.123c.275-.032.55-.05.825-.064.153-.008.306-.009.459-.005.117.004.233.017.348.032.59.096 1.164.282 1.724.49.26.115.518.247.748.414.253.206.478.445.703.68.236.248.45.514.677.769.107.119.22.233.33.347.111.114.22.229.333.34l.361.355c.134.13.259.268.395.396.27.255.55.497.844.726a9.22 9.22 0 0 0 1 .71c.335.197.677.384 1.027.555.368.18.739.367 1.124.508.365.133.733.26 1.102.38.362.12.733.216 1.103.304.178.042.36.074.54.108.185.035.372.07.56.097.223.032.448.064.673.08.18.013.359.02.539.024l.189.003a.51.51 0 0 0 .506-.506.512.512 0 0 0-.506-.506 10.29 10.29 0 0 1-1.069-.062 14.335 14.335 0 0 1-1.676-.344c-.591-.16-1.17-.362-1.746-.572a19.51 19.51 0 0 1-1.332-.643 8.18 8.18 0 0 1-1.256-.796 11.583 11.583 0 0 1-.773-.646c-.27-.25-.526-.515-.79-.771-.226-.22-.452-.44-.671-.666-.236-.243-.454-.503-.691-.745-.123-.126-.256-.243-.385-.363a7.043 7.043 0 0 0-.47-.395 3.172 3.172 0 0 0-.436-.284c-.178-.096-.37-.17-.557-.248a4.396 4.396 0 0 0-.461-.157c-.169-.05-.337-.1-.507-.145a7.125 7.125 0 0 0-1.163-.214 3.766 3.766 0 0 0-.364-.017c-.26 0-.52.022-.78.044zm-35.609-.284c-.117.027-.204.13-.259.23a1.14 1.14 0 0 0-.079.188c-.027.08-.054.16-.078.241-.05.163-.093.328-.14.492-.126.438-.217.885-.309 1.331a6.472 6.472 0 0 1-.398 1.269c-.077.18-.156.358-.253.528-.128.224-.262.45-.415.658-.196.237-.411.46-.617.687-.089.097-.097.244 0 .34.089.09.252.098.34 0l.416-.456.188-.207c.108-.119.195-.257.285-.39.095-.14.193-.279.282-.423.04-.065.083-.13.118-.198.047-.09.092-.181.135-.272.15-.314.294-.632.392-.966.096-.324.166-.653.244-.982.06-.253.126-.503.201-.751.038-.127.075-.255.114-.382l.062.13c.072.15.145.3.213.453.14.315.273.633.417.945.066.142.132.284.205.422.083.155.179.3.284.44.117.158.24.31.372.453.059.063.12.124.18.185.067.067.142.126.213.188.07.062.148.117.222.174.062.048.123.096.187.141.064.044.126.09.192.13l.12.074c.106.065.224.108.34.15a.415.415 0 0 0 .464-.189.414.414 0 0 0 .04-.317.394.394 0 0 0-.188-.245c-.282-.13-.533-.314-.78-.5-.07-.06-.145-.118-.212-.182a5.163 5.163 0 0 1-.586-.643 7.383 7.383 0 0 1-.494-.834 13.73 13.73 0 0 1-.221-.443c-.079-.162-.162-.322-.243-.483a17.162 17.162 0 0 0-.236-.452 2.276 2.276 0 0 0-.114-.186 1.444 1.444 0 0 0-.18-.217.512.512 0 0 0-.148-.104.328.328 0 0 0-.164-.045.588.588 0 0 0-.112.018zm.68-.889c0 .199.166.365.365.365a.368.368 0 0 0 .364-.365.368.368 0 0 0-.364-.364.368.368 0 0 0-.364.364zm1.956-.761c0 .262.219.48.481.48s.481-.218.481-.48a.485.485 0 0 0-.48-.481.485.485 0 0 0-.482.48zm.562 2.742c0 .185.154.339.338.339a.341.341 0 0 0 .338-.339.341.341 0 0 0-.338-.338.342.342 0 0 0-.338.338zm79.234 2.313a.837.837 0 0 0-.344.195c-.033.028-.063.059-.096.087-.131.113-.257.23-.385.346a15.483 15.483 0 0 1-1.138.967l-.485.37-.088.067a.433.433 0 0 0-.068.528.44.44 0 0 0 .26.2c.102.028.248.023.336-.044.439-.333.879-.664 1.293-1.027.174-.152.345-.307.513-.466.118-.112.234-.23.357-.338.2.119.374.275.57.399.263.166.542.298.821.436.12.059.237.122.358.177.163.075.327.145.493.211.296.118.604.209.918.265a.523.523 0 0 0 .38-.05.496.496 0 0 0 .177-.675.477.477 0 0 0-.295-.227 6.321 6.321 0 0 1-.723-.183 7.114 7.114 0 0 1-.509-.19c-.138-.06-.274-.125-.41-.187-.168-.076-.337-.148-.5-.233a6.832 6.832 0 0 1-.477-.28c-.127-.08-.248-.17-.38-.24a.946.946 0 0 0-.435-.125.577.577 0 0 0-.143.017zm.786 5.19c0 .276.23.506.506.506s.507-.23.507-.506a.512.512 0 0 0-.507-.506.51.51 0 0 0-.506.506zm2.825-.021c0 .276.23.506.506.506s.507-.23.507-.506a.512.512 0 0 0-.507-.507.51.51 0 0 0-.506.507zm-1.359 1.827a.49.49 0 0 0 .486.486.49.49 0 0 0 .486-.486.49.49 0 0 0-.486-.486.49.49 0 0 0-.486.486zm4.165-1.582c0 .276.231.507.507.507a.51.51 0 0 0 .506-.507.51.51 0 0 0-.506-.506.512.512 0 0 0-.507.506zm-82.329-.107c0 .276.23.506.506.506s.507-.23.507-.506a.511.511 0 0 0-.507-.506.511.511 0 0 0-.506.506zm4.533-.838c0 .235.197.432.433.432a.437.437 0 0 0 .433-.432.437.437 0 0 0-.433-.433.437.437 0 0 0-.433.433zm4.208-1.748c0 .122.102.224.224.224a.226.226 0 0 0 .224-.224.226.226 0 0 0-.224-.224.226.226 0 0 0-.224.224zm.348-3.984a.745.745 0 0 0-.169.086l-.05.037c-.117.084-.24.163-.355.25a9.05 9.05 0 0 0-.445.359c-.54.46-1.07.929-1.614 1.383a.369.369 0 0 0 .26.627.389.389 0 0 0 .26-.108c.336-.28.67-.562 1.004-.845.262-.222.523-.444.792-.657.08-.06.161-.118.247-.172l.151-.097c.044.073.086.147.132.218.077.119.161.233.25.342.152.187.312.366.475.542.176.19.379.35.591.498.176.123.36.232.536.357.302.253.527.575.789.868.18.202.518.183.701 0a.499.499 0 0 0 .145-.35.51.51 0 0 0-.145-.352c-.256-.277-.479-.582-.77-.827a4.04 4.04 0 0 0-.536-.365 5.65 5.65 0 0 1-.434-.283 6.713 6.713 0 0 1-.781-.792 6.702 6.702 0 0 1-.219-.32 1.538 1.538 0 0 0-.191-.247l-.122-.095a.999.999 0 0 0-.174-.074.435.435 0 0 0-.132-.02.555.555 0 0 0-.196.037z"/>
    </g>
</svg>
