<svg xmlns="http://www.w3.org/2000/svg" width="115" height="116">
    <g fill="none" fill-rule="evenodd">
        <path fill="#FFF" d="m51.87 1.413.018-.002.381-.033.019-.002a64.285 64.285 0 0 1 4.094-.215 77.568 77.568 0 0 1 1.387-.013l.077-.001c.133-.003.266-.003.4-.003l.144.003a.556.556 0 0 0 .054.004l.58.015.037.002.215.007.111.004h.009a.934.934 0 0 0 .038.003l.313.012.023.001.507.025h.02c.39.022.747.043 1.09.067h.007c1.219.088 2.444.212 3.64.37a59.991 59.991 0 0 1 4.826.873c1.517.346 3.03.754 4.5 1.214 1.68.53 3.358 1.145 4.987 1.828a66.692 66.692 0 0 1 2.851 1.298l.015.007.136.066.397.196.03.015c.1.052.181.092.237.116a57.864 57.864 0 0 1 8.928 5.668 59.401 59.401 0 0 1 5.402 4.765 57.801 57.801 0 0 1 4.827 5.483 59.329 59.329 0 0 1 3.933 5.824 56.749 56.749 0 0 1 3.398 6.753 78.07 78.07 0 0 1 1.528 3.99l.03.072c.206.615.417 1.274.628 1.957.215.698.417 1.415.653 2.276a.495.495 0 0 0 .06.135c.027.094.054.202.084.33l.003.009.017.067.026.11c.093.364.178.746.257 1.105.113.522.221 1.078.34 1.75.011.09.025.177.045.288l.002.01c.041.242.075.453.104.645l.03.19.002.021c.04.26.077.512.111.758.15 1.128.28 2.3.385 3.482a.613.613 0 0 0 .015.107 50.49 50.49 0 0 1 .195 3.192c.005.21.008.42.011.63 0 .014-.002.026 0 .04 0 .76-.01 1.54-.038 2.316a45.51 45.51 0 0 1-.145 2.421c-.045.315-.073.631-.1.937v.007l-.002.012-.006.065a50.286 50.286 0 0 1-.215 1.922l-.002.012-.002.015-.025.198-.014.105-.019.15a.43.43 0 0 0-.013.096l-.01.071-.002.02a73.6 73.6 0 0 0-.015.108l-.009.067-.01.074v.028l-.04.287-.01.075-.009.065.002.043c-.035.243-.073.484-.112.726l-.008.064-.01.077c-.103.64-.22 1.271-.348 1.88a50.713 50.713 0 0 1-.681 2.861l-.004.018-.003.01-.004.014-.048.182a58.28 58.28 0 0 1-2.14 6.496c-.036.075-.072.17-.096.233l-.005.012-.028.072c-.108.272-.22.54-.334.815l-.013.03-.007.017-.004.006a59.452 59.452 0 0 1-3.059 6.154 57.392 57.392 0 0 1-3.396 5.229.52.52 0 0 0-.069.093c-.25.34-.516.695-.792 1.056a59.674 59.674 0 0 1-4.67 5.328 57.857 57.857 0 0 1-5.585 4.945 59.287 59.287 0 0 1-5.89 3.985 56.79 56.79 0 0 1-6.68 3.368 58.426 58.426 0 0 1-6.914 2.397 56.946 56.946 0 0 1-7.424 1.523 59.34 59.34 0 0 1-7.693.503h-.09a57.846 57.846 0 0 1-7.418-.502 59.126 59.126 0 0 1-4.758-.855 56.838 56.838 0 0 1-9.62-3.078 60.085 60.085 0 0 1-3.099-1.428 58.77 58.77 0 0 1-4.754-2.655 57.853 57.853 0 0 1-4.707-3.248 58.357 58.357 0 0 1-10.155-10.177 59.73 59.73 0 0 1-3.288-4.734 60.485 60.485 0 0 1-1.7-2.92 60.604 60.604 0 0 1-.462-.868 60.522 60.522 0 0 1-1.986-4.227c-.251-.603-.49-1.2-.647-1.598a49.503 49.503 0 0 1-.477-1.254 10.62 10.62 0 0 0-.154-.39c-.132-.36-.261-.721-.39-1.082a29.973 29.973 0 0 1-.412-1.268l-.004-.014c-.26-.844-.51-1.72-.739-2.602a.351.351 0 0 0-.019-.054 53.999 53.999 0 0 1-.747-3.5c-.092-.51-.177-1.01-.26-1.5a61.876 61.876 0 0 1-.267-1.78 63.781 63.781 0 0 1-.336-3.37 58.077 58.077 0 0 1-.112-2.434v-.015a117.7 117.7 0 0 1-.01-.277v-.022l-.002-.078-.002-.08-.005-.033-.004-.033a48.781 48.781 0 0 1 .065-4 43.34 43.34 0 0 1 .296-3.341 52.7 52.7 0 0 1 .067-.472.243.243 0 0 0 .052-.108c.009-.057.018-.115.03-.175a.471.471 0 0 0 .081-.15c.036-.103.06-.206.071-.315l.008-.048.015-.08a.313.313 0 0 0 .042-.108c.017-.104.035-.208.055-.313a.59.59 0 0 0 .05-.173l.05-.26.003-.014.011-.061.02-.102c.082-.422.183-.947.286-1.444.184-.883.38-1.746.584-2.566a.55.55 0 0 0 .021-.068l.128-.494.007-.029.134-.516c.082-.311.173-.63.253-.91l.005-.02.004-.013.01-.033.03-.11c.197-.692.423-1.42.711-2.29.438-1.324.95-2.688 1.523-4.052a58.805 58.805 0 0 1 3.316-6.61 57.442 57.442 0 0 1 4.095-6.067 59.472 59.472 0 0 1 4.615-5.252 57.852 57.852 0 0 1 5.514-4.882 59.75 59.75 0 0 1 4.402-3.083 61.08 61.08 0 0 1 1.343-.824L28.692 9l.013-.007.06-.037c.2-.12.504-.3.778-.47.084-.06.174-.116.267-.164.156-.092.313-.181.47-.27l.023-.013a.435.435 0 0 0 .1-.073c.224-.126.452-.25.667-.366a.502.502 0 0 0 .071-.048l.314-.168a.412.412 0 0 0 .075-.05 50.905 50.905 0 0 1 1.694-.861c.535-.263 1.11-.53 1.81-.841a.359.359 0 0 0 .05-.03c.249-.112.454-.202.666-.292a59.66 59.66 0 0 1 3.791-1.44c.695-.232 1.4-.453 2.097-.655a37.303 37.303 0 0 1 2.4-.63c.799-.176 1.58-.345 2.366-.484l.397-.07.033-.006.017-.004.009-.001c.175-.032.35-.064.526-.094.202-.034.41-.066.594-.094l.028-.005a.485.485 0 0 0 .172-.016l.567-.082a83.495 83.495 0 0 1 2.182-.253.491.491 0 0 0 .05.002 8.32 8.32 0 0 0 .357-.032.382.382 0 0 0 .088.004 107.987 107.987 0 0 0 .415-.035c.01 0 .02 0 .031-.002ZM57.414 0h-.01L57 .001h-.018l-.027.001h-.014a48.88 48.88 0 0 0-.412.005h-.059l-.448.01H56a71.43 71.43 0 0 0-.445.014c-1.09.036-2.18.103-3.266.2-.01 0-.02.002-.028.003-.13.012-.26.024-.39.038l-.123.016c-.108.011-.215.023-.323.036a.787.787 0 0 0-.153.024l-.01.002a.618.618 0 0 0-.033.01c-.132.015-.263.032-.394.052a.584.584 0 0 0-.039.012c-.962.124-1.92.278-2.876.448a.512.512 0 0 0-.06.021c-.567.104-1.136.207-1.699.332-.784.173-1.568.348-2.345.553-.8.212-1.6.418-2.395.648-.704.203-1.405.421-2.102.65a.278.278 0 0 0-.043.011 63.324 63.324 0 0 0-4.552 1.703.46.46 0 0 0-.15.055c-.614.26-1.223.53-1.828.809-.567.261-1.127.536-1.685.814a.678.678 0 0 0-.114.046l-.293.15a.535.535 0 0 0-.105.045l-.66.346a.654.654 0 0 0-.13.053c-.26.138-.514.288-.78.413l-.39.206c-.195.103-.383.221-.572.333a52.17 52.17 0 0 0-1.56.962 59.374 59.374 0 0 0-8.05 6.199 57.335 57.335 0 0 0-3.703 3.73 58.983 58.983 0 0 0-3.439 4.175 57.078 57.078 0 0 0-5.32 8.57 57.32 57.32 0 0 0-3.827 9.689 48.19 48.19 0 0 0-.362 1.302c-.111.418-.22.837-.316 1.26a.55.55 0 0 0-.017.09 45.873 45.873 0 0 0-.852 4.63l-.005.035a.295.295 0 0 0 .006.1c-.01.066-.018.133-.027.2a.654.654 0 0 0-.012.092l-.004.026h.003c0 .033.002.066.009.098l-.018.15c-.02.106-.027.212-.02.32 0 .06.015.117.039.169l-.012.107a.331.331 0 0 0-.006.065h.001c0 .04.008.08.022.117a89.645 89.645 0 0 0-.326 3.217 68.138 68.138 0 0 0-.207 4.477c-.002.143-.01.28-.014.423-.002.373.005.746.013 1.12.016.729.05 1.457.087 2.186.037.756.104 1.508.174 2.261.067.726.151 1.449.248 2.171l-.003-.023.008.064-.005-.04.01.073-.003-.017.004.026c.102.761.223 1.517.365 2.272a63.83 63.83 0 0 0 .651 3.025.453.453 0 0 0 .015.082c.278 1.17.59 2.329.94 3.478.088.288.171.577.258.866.068.225.142.448.214.672.031.132.07.26.12.386a51.834 51.834 0 0 0 .45 1.261 49.857 49.857 0 0 0 1.308 3.166c.427.953.885 1.893 1.364 2.82l.012.025.048.092.051.098a66.73 66.73 0 0 0 .314.592l.158.29.009.015.037.068.007.014a49.227 49.227 0 0 0 .163.293 60.247 60.247 0 0 0 1.394 2.372l.035.055.016.027.012.017a59.808 59.808 0 0 0 4.791 6.593 56.835 56.835 0 0 0 5.47 5.675 54.475 54.475 0 0 0 3.022 2.538A66.457 66.457 0 0 0 25 105.274a55.657 55.657 0 0 0 6.698 3.944l.066.032.133.066.03.015a59.113 59.113 0 0 0 7.286 2.998l.02.008.1.033.01.003a59.114 59.114 0 0 0 5.01 1.406c1.545.361 3.106.648 4.676.878 3.243.474 6.52.668 9.797.594a58.15 58.15 0 0 0 10.077-1.132 56.723 56.723 0 0 0 10.041-3.018 57.966 57.966 0 0 0 7.308-3.566 58.222 58.222 0 0 0 6.646-4.502 57.35 57.35 0 0 0 5.97-5.376 58.248 58.248 0 0 0 5.014-5.949.626.626 0 0 0 .07-.094l.016-.024a.762.762 0 0 0 6.563-11.607 57.295 57.295 0 0 0 1.277-3.327 56.61 56.61 0 0 0 1.131-3.666c.534-1.947.922-3.928 1.261-5.916a.27.27 0 0 0 .015-.054c.045-.279.09-.557.133-.835a.418.418 0 0 0 .02-.068l.062-.427.007-.026a.491.491 0 0 0 .02-.138 51.32 51.32 0 0 0 .297-2.753c.03-.36.063-.72.06-1.08a21.359 21.359 0 0 1 .025-.513 53.317 53.317 0 0 0 .068-1.937 61.67 61.67 0 0 0 0-2.317.907.907 0 0 0-.004-.053l-.01-.608v-.044a109.22 109.22 0 0 0-.053-1.716c-.02-.496-.052-.992-.085-1.487a.303.303 0 0 0 .001-.06 50.035 50.035 0 0 0-.214-2.187 56.721 56.721 0 0 0-.325-2.209 61.95 61.95 0 0 0-.368-2.005 69.01 69.01 0 0 0-.296-1.424l-.145-.665c-.035-.162-.076-.323-.11-.485a.404.404 0 0 0-.017-.184 36.931 36.931 0 0 0-.578-2.296 43.856 43.856 0 0 0-.597-1.97.412.412 0 0 0-.017-.071 44.147 44.147 0 0 0-.88-2.53 59.26 59.26 0 0 0-.903-2.198 57.06 57.06 0 0 0-4.851-8.929 59.289 59.289 0 0 0-2.769-3.816 57.51 57.51 0 0 0-7.08-7.502 58.046 58.046 0 0 0-8.422-6.195 59.052 59.052 0 0 0-3.645-2.022c-.067-.044-.139-.074-.218-.114-.197-.101-.395-.2-.592-.299a55.153 55.153 0 0 0-3.568-1.602 56.222 56.222 0 0 0-4.396-1.592l-.025-.008-.079-.025-.136-.042a59.065 59.065 0 0 0-4.57-1.216l-.007-.002a67.096 67.096 0 0 0-.367-.08A59.267 59.267 0 0 0 61.637.157h-.01L61.394.14A67.332 67.332 0 0 0 60.7.097h-.002l-.055-.004h-.016a64.824 64.824 0 0 0-.363-.019 59.128 59.128 0 0 0-.493-.021h-.025a37.246 37.246 0 0 0-1.365-.03L58.3.02l-.297-.007C57.808.008 57.613 0 57.419 0h-.005Z"/>
        <path fill="#264E90" d="M58.245 1.144c-.133 0-.266 0-.4.003l-.076.001c-.121.003-.238.004-.355.004a82.649 82.649 0 0 0-1.032.01c-.149.002-.297.006-.445.01a64.166 64.166 0 0 0-3.668.206l-.381.034-.018.001a.317.317 0 0 1-.031.002h-.019a126.402 126.402 0 0 1-.424.036.38.38 0 0 1-.06-.005 9.102 9.102 0 0 1-.357.032.51.51 0 0 1-.05-.002c-.79.082-1.503.164-2.182.253-.19.027-.378.054-.567.083a.495.495 0 0 1-.172.015l-.028.005c-.184.028-.393.06-.594.094-.176.03-.351.062-.527.094l-.008.002-.018.003-.032.006a56.547 56.547 0 0 0-2.762.554c-.694.154-1.435.348-2.401.63a56.507 56.507 0 0 0-2.142.672A59.768 59.768 0 0 0 35.75 5.31c-.212.09-.417.18-.666.291a.333.333 0 0 1-.05.03c-.7.312-1.275.579-1.81.842a50.98 50.98 0 0 0-1.694.861.404.404 0 0 1-.075.05l-.314.168a.497.497 0 0 1-.071.048c-.215.115-.443.24-.667.366a.44.44 0 0 1-.1.073l-.023.013c-.157.089-.314.178-.47.27a2.197 2.197 0 0 0-.267.164c-.274.17-.578.35-.778.47l-.06.036-.013.008-.093.056c-.47.28-.922.558-1.344.824a59.733 59.733 0 0 0-4.4 3.083 57.79 57.79 0 0 0-5.514 4.883 59.488 59.488 0 0 0-4.616 5.252 57.477 57.477 0 0 0-4.095 6.066 58.845 58.845 0 0 0-3.316 6.61 55.602 55.602 0 0 0-1.523 4.053 54.97 54.97 0 0 0-.71 2.29l-.032.109-.009.033-.004.012-.005.02c-.08.281-.171.6-.253.91l-.134.517-.007.029c-.043.17-.085.332-.128.494a.576.576 0 0 1-.02.068c-.205.82-.401 1.683-.585 2.566-.103.497-.204 1.022-.286 1.444l-.02.101-.011.062-.003.015-.05.26a.534.534 0 0 1-.05.172c-.02.105-.038.209-.055.313a.308.308 0 0 1-.042.108l-.015.08-.008.048a1.37 1.37 0 0 1-.071.316.47.47 0 0 1-.082.15l-.03.174a.241.241 0 0 1-.05.108l-.068.472a43.357 43.357 0 0 0-.296 3.342 48.674 48.674 0 0 0-.065 4l.004.032.005.034.002.078.002.08v.021l.01.277v.015a58.138 58.138 0 0 0 .112 2.434 63.56 63.56 0 0 0 .336 3.37c.089.639.17 1.213.266 1.78.084.49.17.99.26 1.5.214 1.187.465 2.365.748 3.5a.344.344 0 0 1 .019.054c.23.882.479 1.758.739 2.602l.004.014c.128.414.26.84.412 1.268.129.36.258.721.39 1.081.055.133.106.261.154.391a56.366 56.366 0 0 0 .477 1.254c.157.397.396.995.647 1.598a60.644 60.644 0 0 0 1.986 4.227 62.127 62.127 0 0 0 .622 1.16c.492.891 1.01 1.775 1.54 2.628a59.675 59.675 0 0 0 3.288 4.734 58.35 58.35 0 0 0 10.155 10.177 57.886 57.886 0 0 0 4.707 3.248 58.772 58.772 0 0 0 4.754 2.655c1.012.502 2.055.982 3.1 1.428a56.831 56.831 0 0 0 9.619 3.078c1.553.346 3.154.634 4.758.855 2.501.329 4.997.498 7.418.502h.09a59.17 59.17 0 0 0 7.693-.503 56.936 56.936 0 0 0 7.424-1.523 58.422 58.422 0 0 0 6.914-2.397 56.806 56.806 0 0 0 6.68-3.368 59.273 59.273 0 0 0 5.89-3.985 57.856 57.856 0 0 0 5.586-4.945 59.665 59.665 0 0 0 4.67-5.328c.275-.36.541-.716.791-1.056a.527.527 0 0 1 .07-.093 57.405 57.405 0 0 0 3.395-5.229 59.442 59.442 0 0 0 3.06-6.153l.003-.007.007-.016.013-.031a45.219 45.219 0 0 0 .362-.887l.005-.012c.024-.062.06-.157.095-.233a58.282 58.282 0 0 0 2.141-6.496l.048-.182.004-.015.003-.009.004-.018c.105-.396.223-.846.328-1.287a79.96 79.96 0 0 0 .353-1.574 40.56 40.56 0 0 0 .348-1.88l.01-.077.008-.064c.038-.241.077-.483.112-.726l-.002-.043.01-.065.01-.074c.012-.096.026-.192.04-.287v-.029l.01-.074.008-.066.015-.11.002-.019.01-.07a.59.59 0 0 1 .012-.098l.02-.149.013-.105c.01-.066.017-.132.026-.198l.002-.015.002-.012c.074-.584.132-1.083.177-1.527l.038-.395.005-.065.002-.012v-.007c.028-.306.056-.621.101-.936.065-.731.112-1.523.144-2.422a60.1 60.1 0 0 0 .037-2.317l.002-.038-.01-.631c-.003-.012-.003-.024-.004-.036a50.487 50.487 0 0 0-.192-3.156.613.613 0 0 1-.015-.107 84.057 84.057 0 0 0-.385-3.482 63.28 63.28 0 0 0-.11-.758l-.004-.02-.029-.19a37.847 37.847 0 0 0-.104-.647l-.002-.01a6.329 6.329 0 0 1-.046-.287 44.695 44.695 0 0 0-.339-1.75 33.65 33.65 0 0 0-.257-1.104l-.027-.111-.016-.067-.003-.008a6.943 6.943 0 0 0-.084-.33.498.498 0 0 1-.06-.136 74.656 74.656 0 0 0-.653-2.276 82.749 82.749 0 0 0-.629-1.957.808.808 0 0 1-.028-.072 79.81 79.81 0 0 0-1.529-3.99 56.932 56.932 0 0 0-3.398-6.753 59.313 59.313 0 0 0-3.933-5.823 57.766 57.766 0 0 0-4.827-5.484 59.389 59.389 0 0 0-5.402-4.765 57.878 57.878 0 0 0-8.928-5.668 4.247 4.247 0 0 1-.236-.116l-.03-.015a36.564 36.564 0 0 0-.398-.196l-.136-.066-.015-.007c-.271-.132-.56-.272-.848-.405a67.08 67.08 0 0 0-2.003-.893 58.252 58.252 0 0 0-4.987-1.828 59.527 59.527 0 0 0-4.891-1.3 59.879 59.879 0 0 0-4.434-.787 61.648 61.648 0 0 0-3.64-.37h-.009a73.005 73.005 0 0 0-1.09-.066h-.01l-.009-.001a74.933 74.933 0 0 0-.53-.026l-.313-.012a.234.234 0 0 1-.038-.003h-.009l-.111-.004-.215-.007a.605.605 0 0 1-.67-.021l-.146-.003Z"/>
        <path fill="#162E51" d="M39.201 41.898a.612.612 0 0 0-.286.074 1.11 1.11 0 0 0-.253.19 5.455 5.455 0 0 0-.263.264l-.016.017c-.187.197-.383.393-.573.581l-.052.052c-.2.2-.449.449-.691.683l-.358.345-.357.345c-.26.252-.517.507-.763.758a92.34 92.34 0 0 1-.277.283l-.425.433-.696.722-.1.105c-.382.397-.78.79-1.164 1.17l-.234.231c-.264.26-.527.521-.788.784-.117.116-.231.235-.346.353-.099.103-.198.205-.298.306-.433.438-.898.901-1.506 1.502-.483.477-.983.971-1.47 1.478-.218.227-.437.451-.657.676-.254.26-.517.53-.772.797a261.76 261.76 0 0 0-1.464 1.545c-.198.21-.394.43-.583.642l-.072.08c-.259.29-.514.573-.759.84l-.635.701c-.226.25-.452.501-.68.75-.435.475-.9.99-1.422 1.575-.428.48-.935 1.045-1.45 1.605a56.198 56.198 0 0 1-1.508 1.56l-.744.75c-.2.201-.398.41-.59.613l-.115.122a108.466 108.466 0 0 0-1.567 1.682 48.8 48.8 0 0 1-.497.54l-.244.26c-.168.178-.341.36-.509.544l-.187.204c-.17.183-.347.373-.51.568-.223.263-.46.549-.747.899-.484.59-.968 1.167-1.336 1.603l-.129.153c-.15.177-.304.36-.451.543l-.183.225c-.16.198-.328.403-.485.609l-.155.204a34.39 34.39 0 0 0-.523.696c-.272.376-.517.718-.75 1.044-.363.511-.749 1.018-1.122 1.508l-.151.2-.336.432-.11.144c-.076.1-.154.203-.235.301-.365.442-.741.899-1.116 1.346a.261.261 0 0 0-.073.176.25.25 0 0 0 .166.235l-.06.01-.046.008-.148.062-.095.055c-.05.038-.096.076-.14.113a.9.9 0 0 0-.087.087l-.012.014-.028.03a.24.24 0 0 0 0 .335.239.239 0 0 0 .335 0l.08-.082a.957.957 0 0 1 .093-.087l.018-.01.076-.043-.04.013a.67.67 0 0 1 .12-.035l.088-.002c.04 0 .08.002.119.006.324.049.645.145.955.237l.101.03c.127.038.256.079.381.118l.032.01.049.016.019.006c.153.049.311.1.47.146l.642.192.103.032.02.006c.369.112.788.239 1.193.352.59.165 1.221.33 1.984.519.049.012.099.022.15.032l.023.004.052.011.317.066c.106.023.215.043.322.063l.043.008.169.031.1.02.102.018c.224.044.457.089.689.12l.049.007.307.042.069.01c.046.006.092.013.139.018l.31.03.31.03c.35.033.714.06 1.006.08l.017.002c.214.015.427.032.64.049l.081.007.224.018.326.025.336.027c.12.01.242.016.365.022l.096.006c.334.017.692.034 1.162.053.139.005.277.012.416.02.168.008.333.016.499.022l.241.009c.285.01.542.02.802.023l.217.005c.286.005.573.01.86.013 1.145.01 2.273.011 3.225.011h1.389l.446-.001c.402 0 .875.001 1.339.013a110.328 110.328 0 0 1 2.71.093h.007a40.68 40.68 0 0 1 2.666.176l.091.01c.11.01.217.02.322.033l.36.046.32.041.732.096.011.001.058.008c.386.05.785.103 1.178.151l.288.036c.563.07 1.138.142 1.71.184 1.54.113 2.955.192 4.322.241.306.011.67.024 1.04.042.305.015.625.027.95.035.69.017 1.4.027 2.11.03h.064l.5.003h.038c.119 0 .24-.003.357-.006h.028l.184-.005.074-.001h.021a6.13 6.13 0 0 0 .277-.01l.057-.003.017-.001.322-.02.322-.019c.121-.007.242-.017.364-.028l.194-.015c.127-.01.252-.02.376-.034l.33-.035.031-.004c.234-.025.476-.051.71-.081l.23-.03.06-.008.062-.008c.2-.027.45-.06.693-.087l.094-.01h.01c.325-.036.647-.072.968-.104l1.17-.12.268-.03.038-.005.144-.017.072-.009c.138-.016.28-.033.42-.054.344-.052.749-.114 1.151-.181.356-.06.712-.117 1.068-.174l.524-.084.201-.032.24-.038a933.014 933.014 0 0 0 1.324-.214l.141-.024c.147-.024.294-.055.437-.086l.022-.005.07-.015.175-.038.011-.002c.235-.05.501-.107.756-.173.317-.082.634-.162.951-.242l.207-.052.065-.017.031-.008c.186-.048.418-.107.639-.157.32-.072.65-.136.942-.192l.051-.01c.202-.04.41-.08.614-.122a6.28 6.28 0 0 1 .355-.062l.008-.002.05-.007.218-.037.154-.025c.088-.015.177-.027.266-.04l.08-.01.175-.027.039-.006.008-.001.173-.027.354-.05.181-.026.314-.047.068-.011.204-.03c.398-.05.834-.08 1.333-.09.183-.003.35-.005.513-.005h.066l.163.001.034.002h.045a.393.393 0 0 0 .17-.047.229.229 0 0 0 .109-.14.235.235 0 0 0-.183-.293.202.202 0 0 0-.012-.073l-.003-.008a.433.433 0 0 0-.046-.097 1.373 1.373 0 0 1-.107-.172l-.015-.027a1.763 1.763 0 0 0-.134-.205 1.718 1.718 0 0 0-.208-.242 2.492 2.492 0 0 0-.24-.191 3.26 3.26 0 0 1-.436-.437c-.16-.196-.315-.393-.432-.544-.27-.358-.556-.714-.833-1.06l-.364-.456-.07-.09a16.091 16.091 0 0 1-.247-.326l-.383-.524a5.058 5.058 0 0 0-.068-.092c-.076-.1-.153-.198-.23-.297l-.122-.154a.325.325 0 0 0-.046-.06c-.09-.114-.184-.227-.276-.336l-.12-.144a26.613 26.613 0 0 0-.548-.64 54.415 54.415 0 0 1-.244-.28l-.101-.115c-.094-.108-.19-.218-.282-.33l-.462-.569-.118-.154a25.566 25.566 0 0 1-.427-.568l-.66-.912-.667-.921a19.377 19.377 0 0 1-.199-.282l-.036-.053-.076-.108c-.07-.1-.143-.202-.21-.304l-.352-.53a8.385 8.385 0 0 1-.193-.31 4.783 4.783 0 0 0-.085-.141l-.108-.177-.108-.176-.076-.125a10.419 10.419 0 0 0-.2-.32 36.03 36.03 0 0 0-1.2-1.728c-.377-.504-.78-1.038-1.27-1.678l-.293-.39a13.424 13.424 0 0 1-.326-.467 33.1 33.1 0 0 1-.525-.8 73.816 73.816 0 0 1-.796-1.29c-.11-.181-.22-.363-.332-.544-.18-.293-.362-.575-.542-.836a10.79 10.79 0 0 0-.356-.49 2.563 2.563 0 0 0-.12-.155l-.203-.243-.005-.006c-.325-.387-.668-.77-1-1.14l-.349-.39a672.17 672.17 0 0 1-.564-.634l-.193-.218a28.531 28.531 0 0 1-.245-.28 20.28 20.28 0 0 0-.368-.418c-.302-.33-.553-.6-.788-.848l-.19-.2-.446-.47-.022-.023-.395-.419c-.087-.092-.171-.19-.252-.284l-.125-.145c-.184-.21-.362-.432-.533-.646l-.06-.075a308.197 308.197 0 0 0-.808-1.008 17.884 17.884 0 0 0-.453-.552l-.3-.345a57.232 57.232 0 0 1-1.017-1.19c-.172-.209-.343-.423-.51-.63l-.114-.144c-.192-.24-.397-.477-.595-.706a44.163 44.163 0 0 1-.641-.76 21.781 21.781 0 0 0-.67-.756 14.927 14.927 0 0 0-.506-.512 38.199 38.199 0 0 1-.222-.218 45.693 45.693 0 0 0-.72-.705 25.533 25.533 0 0 0-1.45-1.297 36.464 36.464 0 0 0-.509-.409l-.241-.192a26.12 26.12 0 0 0-.749-.583 4.621 4.621 0 0 0-.346-.236 1.103 1.103 0 0 0-.218-.096.545.545 0 0 0-.128-.023 1.42 1.42 0 0 1-.05-.005.312.312 0 0 0-.04-.002Z"/>
        <path fill="#0E1F37" d="m78.304 42.537-.04.001c-.067 0-.12.028-.177.058l-.01.005-.026.02-.026.018a1.168 1.168 0 0 0-.109.09l-.04.037-.015.016a1.937 1.937 0 0 0-.133.146c-.29.341-.555.711-.811 1.069l-.147.205c-.105.145-.208.296-.308.442l-.125.183c-.094.137-.192.273-.288.405l-.134.185c-.278.388-.573.806-.845 1.228a35.77 35.77 0 0 0-.48.767c-.114.184-.227.367-.342.55a5.05 5.05 0 0 1-.143.21l-.031.045-.048.068a9.687 9.687 0 0 1-.165.232l-.154.212-.31.424c-.098.133-.198.265-.298.397a55.624 55.624 0 0 0-1.443 1.995l-.163.236c-.107.154-.211.314-.312.47l-.146.222c-.117.177-.232.355-.346.534l-.066.103-.087.135c-.24.371-.486.755-.735 1.13a154.56 154.56 0 0 1-.856 1.273l-.288.431c-.206.31-.42.629-.633.94-.159.231-.317.464-.474.696-.067.099-.131.2-.196.3-.054.085-.109.17-.165.254-.16.24-.322.478-.483.718l-.431.64-.966 1.436c-.132.196-.262.393-.393.59-.13.198-.26.395-.393.59l-.502.746c-.108.16-.222.32-.333.474l-.167.235-.94 1.332c-.61.863-1.185 1.662-1.758 2.44l-.516.703c-.035.047-.068.096-.101.145a8.69 8.69 0 0 1-.048.07l-.171.248-.166.24-.854 1.236-.097.141c-.22.32-.442.637-.664.955l-.194.278-.346.49c-.161.227-.328.462-.488.695l-.22.319c-.228.33-.463.67-.684 1.011l-.248.381c-.202.311-.41.632-.612.951l-.499.79-.498.79c-.02.03-.037.06-.054.09l-.026.045-.186.32-.068.117-.515.882-.005.009c-.1.17-.196.347-.29.517l-.096.174a.289.289 0 0 0-.016.247 1.97 1.97 0 0 0-.066.187c-.032.106-.046.218-.06.326l-.004.029c-.01.086-.01.178 0 .266l.002.01c.008.06.015.121.027.181a.66.66 0 0 0 .051.153.4.4 0 0 0 .286.232c.044.01.085.012.134.013a4.908 4.908 0 0 1 .525.038l.21.032c.142.023.29.047.436.06l.264.028.089.01c.112.011.227.017.337.023l.055.002c.111.007.224.017.333.027.117.01.238.022.358.027a2.549 2.549 0 0 0 .242.001l.105-.001.26-.001h.128c.504-.004.997-.009 1.492-.03.253-.01.51-.027.76-.043.249-.015.507-.031.76-.042a24.935 24.935 0 0 0 1.48-.11c.535-.044 1.06-.086 1.586-.138l.4-.043c.127-.014.254-.028.38-.04.163-.017.329-.029.489-.04.074-.005.149-.01.224-.017.268-.02.544-.04.82-.056l.298-.02c.146-.01.297-.021.446-.027.271-.011.542-.022.814-.035.239-.012.494-.024.745-.025h.05c.493-.001 1.004-.002 1.505-.012a31.21 31.21 0 0 0 1.576-.061c.257-.018.518-.04.77-.062.24-.021.488-.043.732-.06a65.79 65.79 0 0 1 1.55-.091c.157-.007.314-.018.47-.028l.286-.019.461-.026.346-.02c.494-.028.996-.063 1.482-.097l.12-.009.794-.054.793-.054a22.153 22.153 0 0 0 .96-.083c.178-.017.361-.034.54-.056l.175-.021c.47-.059.939-.117 1.409-.173l.272-.033.264-.031.074-.01a3.83 3.83 0 0 1 .157-.017l.975-.083c.182-.015.367-.025.546-.034l.077-.004.879-.045c.192-.01.387-.015.576-.02l.289-.009.102-.003c.168-.006.335-.011.502-.018l.141-.005c.503-.02 1.023-.04 1.535-.055l.898-.026c.144-.004.29-.005.413-.005h.391a118.072 118.072 0 0 1 1.674 0 210 210 0 0 1 1.374.012l.273.003c.172.002.344.005.516.01l.094.001.262.006c.191.003.382.006.573.013l.176.006a122.838 122.838 0 0 0 3.239.075c.143 0 .286-.003.43-.006l.249-.005c.207-.003.416-.014.62-.025l.167-.01c.195-.01.393-.029.584-.047l.201-.018c.09-.008.18-.022.268-.035l.123-.018.073-.01c.098-.013.196-.026.293-.043l.21-.034.207-.034c.301-.05.557-.123.784-.224l.03-.017.028-.016c.038-.026.075-.053.111-.083a.43.43 0 0 0 .093-.53c-.027-.055-.063-.105-.097-.153l-.02-.028a25.457 25.457 0 0 0-.865-1.26l-.114-.153c-.102-.138-.207-.28-.305-.424a14.84 14.84 0 0 0-.237-.337c-.063-.09-.127-.178-.189-.268l-.1-.146c-.104-.15-.21-.304-.312-.458l-.292-.446-.139-.212a47.024 47.024 0 0 1-.534-.844 91.661 91.661 0 0 0-.275-.44 35.136 35.136 0 0 0-.458-.71c-.133-.2-.27-.401-.404-.595l-.037-.053c-.088-.129-.179-.255-.27-.382l-.136-.192a36.636 36.636 0 0 1-.487-.705c-.228-.339-.447-.69-.66-1.031l-.2-.319-.304-.487-.116-.186a16.988 16.988 0 0 0-.294-.45 32.238 32.238 0 0 1-.144-.216c-.035-.054-.074-.106-.111-.156l-.034-.046-.246-.335-.068-.092a4.058 4.058 0 0 0-.16-.202l-.037-.047-.154-.19-.169-.209c-.465-.575-.935-1.162-1.39-1.73l-.068-.085-.235-.308-.233-.303a4.737 4.737 0 0 1-.126-.175l-.06-.085-.064-.088-.223-.311a23.877 23.877 0 0 1-.319-.461l-.153-.224c-.106-.153-.21-.307-.314-.462l-.138-.204a27.566 27.566 0 0 1-.335-.509l-.092-.142a77.988 77.988 0 0 0-.398-.602l-.025-.037c-.27-.406-.562-.83-.87-1.264-.176-.248-.35-.496-.525-.745l-.403-.574c-.102-.144-.206-.287-.31-.43l-.145-.2-.119-.164c-.1-.139-.203-.283-.308-.422l-.149-.195-.33-.437a16.178 16.178 0 0 1-.45-.646l-.42-.623c-.144-.214-.289-.428-.432-.644-.148-.222-.295-.45-.438-.672a70.52 70.52 0 0 0-.392-.602 191.76 191.76 0 0 0-1.105-1.658c-.483-.716-.982-1.456-1.421-2.218l-.282-.483a44.263 44.263 0 0 1-.951-1.695l-.24-.445-.187-.343c-.195-.36-.397-.733-.6-1.097l-.146-.261-.053-.094c-.048-.086-.101-.171-.152-.254l-.074-.119c-.106-.175-.221-.348-.332-.516l-.072-.108a50.04 50.04 0 0 1-.21-.319l-.087-.135-.063-.096a1.923 1.923 0 0 0-.144-.196.776.776 0 0 0-.285-.207l-.042-.016-.043-.015a.554.554 0 0 0-.104-.01Z"/>
        <path fill="#7EBC89" d="m96.187 77.75-.79.001c-1.06 0-2.122 0-3.183.003-.491 0-1.061.002-1.617.009h-.101c-.482.006-.98.011-1.469.039a54.75 54.75 0 0 0-.753.047c-.196.014-.397.022-.59.03l-.269.01c-.472.022-.95.068-1.413.112l-.198.019c-.26.024-.522.06-.777.093l-.35.046c-.283.035-.57.076-.849.116l-.242.035c-.3.038-.606.073-.902.107l-.357.042c-.458.053-.915.108-1.373.163-.887.106-1.787.233-2.628.354-.89.114-1.698.22-2.468.327-.628.077-1.195.144-1.733.207-.182.02-.367.037-.546.052l-.238.022c-.213.02-.431.036-.641.052l-.18.014c-.251.02-.503.035-.76.05l-.2.012-.193.012a7.24 7.24 0 0 1-.328.012l-.158.005c-.26.009-.495.016-.73.02l-.233.002-.63.008c-.633.005-1.213.011-1.773.02-.1.002-.2.007-.3.01l-.142.006-.051.001a9.527 9.527 0 0 0-.257.01c-.347.02-.638.038-.931.06l-.028.002c-.103.008-.207.016-.31.022l-.115.007c-.086.005-.175.01-.263.012-.301.004-.61.006-.942.007h-1.671l-.525-.001c-.912 0-1.824 0-2.736.002h-.164a97.542 97.542 0 0 0-3.18.041l-.243.008c-.193.006-.385.012-.576.021l-.238.011c-.2.01-.399.02-.598.026l-.15.006c-.506.018-1.03.037-1.546.07l-.301.02c-.435.028-.884.058-1.326.077l-.26.011c-.461.02-.938.041-1.407.05l-1.694.032c-.438.009-.883.026-1.313.044l-.403.016c-.302.011-.604.02-.907.03-.27.007-.54.016-.81.025-.169.006-.338.014-.506.023l-.226.01a41.02 41.02 0 0 1-.78.029l-.612.024c-.354.015-.72.03-1.08.04l-.875.026-.835.025c-.324.01-.649.01-.895.01h-.736l-.806-.001h-1.2c-.952-.001-1.937-.002-2.906-.01h-.031c-.519-.005-1.055-.009-1.581-.027-.294-.01-.587-.022-.88-.036a21.71 21.71 0 0 0-.804-.014h-.02l-.486-.002-1.154-.007a39.145 39.145 0 0 1-2.25-.073l-.449-.023a43.946 43.946 0 0 1-.415-.02c-.43-.025-.864-.059-1.285-.092a108.874 108.874 0 0 0-.768-.06 24.868 24.868 0 0 0-1.24-.077l-.348-.011a34.574 34.574 0 0 1-1.237-.06c-.17-.01-.345-.014-.514-.017a21.706 21.706 0 0 1-1.035-.045c-.284-.02-.5-.029-.702-.033-.26-.005-.538-.01-.81-.024-.201-.01-.412-.023-.643-.04a12.291 12.291 0 0 0-.573-.028l-.165-.005a19.826 19.826 0 0 1-.69-.04 9.192 9.192 0 0 0-.351-.022c-.106-.004-.213-.004-.317-.004h-.101c-.416-.003-.908-.01-1.402-.043-.144-.01-.29-.023-.43-.037l-.276-.024-.314-.024c-.133-.009-.267-.018-.4-.03-.104-.01-.208-.024-.31-.037l-.02-.002a9 9 0 0 0-.23-.027l-.13-.015a38.4 38.4 0 0 1-.453-.07 21.06 21.06 0 0 0-.781-.112 20.136 20.136 0 0 0-1.216-.108c-.1-.006-.2-.014-.299-.022l-.242-.018c-.166-.01-.336-.017-.5-.024l-.166-.006a7.868 7.868 0 0 1-.57-.05l-.06-.006-.256-.029c-.08-.008-.16-.013-.24-.019a13.847 13.847 0 0 1-.115-.007l-.014-.001a.284.284 0 0 0-.268.248.201.201 0 0 0-.162.144c-.015.054-.004.098.02.154a81 81 0 0 0 .51 1.17 64.576 64.576 0 0 0 1.322 2.777c.005.015.01.03.018.043a153.977 153.977 0 0 0 .39.746c.003.01.009.022.014.032a59.759 59.759 0 0 0 1.968 3.408 58.45 58.45 0 0 0 2.336 3.419 58.885 58.885 0 0 0 2.611 3.286c3.74 4.372 8.166 8.168 13.154 11.281a56.712 56.712 0 0 0 7.843 4.07 57.243 57.243 0 0 0 8.775 2.904 56.569 56.569 0 0 0 13.404 1.597c1.874 0 3.77-.092 5.639-.274 3.22-.315 6.464-.92 9.643-1.801a56.989 56.989 0 0 0 17.282-8.164 57.127 57.127 0 0 0 6.884-5.651 57.438 57.438 0 0 0 6.085-6.888 56.686 56.686 0 0 0 7.507-13.52 1.814 1.814 0 0 1-.618-.201l-.068.174c-.173-.018-.35-.02-.524-.023h-.086a29.034 29.034 0 0 0-1.39.016c-.13.004-.262.01-.393.017l-.336.017a6.064 6.064 0 0 1-.23.004c-.096 0-.192-.002-.288-.004l-.189-.002a97.197 97.197 0 0 1-1.417-.025 36.14 36.14 0 0 1-1.485-.067c-.267-.018-.507-.03-.737-.038a32.072 32.072 0 0 1-1.066-.056 18.769 18.769 0 0 0-.53-.03 41.008 41.008 0 0 1-.752-.036 19.148 19.148 0 0 0-.734-.031l-.051-.001c-.243-.005-.494-.01-.741-.019l-.393-.015-.436-.016a26.249 26.249 0 0 0-.896-.016h-.826Z"/>
        <path fill="#3C8076" d="M90.717 79.933a.305.305 0 0 0-.292.221.303.303 0 0 0 0 .16l.002.008.001.008a.249.249 0 0 0-.135.076c-.4.444-.823.928-1.195 1.452-.2.283-.39.58-.572.869l-.027.042a6.091 6.091 0 0 0-.282.489c-.066.129-.124.263-.181.394l-.045.104c-.087.198-.171.398-.257.602-.27.63-.559 1.25-.806 1.772l-.07.147a7.35 7.35 0 0 0-.338.786c-.051.151-.09.314-.116.496-.02.13-.033.263-.045.387l-.024.25c-.006.06-.008.122-.01.182l-.004.091a5.296 5.296 0 0 0 .043 1.05c.031.222.073.44.127.67.052.219.11.451.195.68.094.248.19.442.3.61.062.093.131.18.203.266a1.54 1.54 0 0 0 .527.437c.107.054.221.096.309.126.237.081.492.114.738.145.408.052.824.077 1.177.094a5.001 5.001 0 0 0 .385.004h.11c.148 0 .297-.01.436-.022h.017c.234-.02.476-.038.703-.107.103-.031.195-.071.274-.12.094-.057.18-.138.245-.201a3.26 3.26 0 0 0 .421-.532c.29-.431.406-.957.469-1.315.032-.184.055-.373.077-.556l.019-.16c.07-.568.095-1.187.079-1.95a11.146 11.146 0 0 0-.059-.947c-.036-.334-.082-.69-.14-1.09-.053-.36-.107-.659-.17-.938-.035-.157-.075-.315-.113-.468l-.04-.161a8.32 8.32 0 0 0-.07-.283c-.09-.322-.194-.64-.294-.938a28.586 28.586 0 0 0-.373-1.054c-.027-.071-.055-.143-.081-.215-.052-.139-.107-.287-.167-.433-.095-.23-.25-.567-.493-.836-.108-.12-.227-.24-.38-.281a.3.3 0 0 0-.078-.01zm-40.538 8.38a.324.324 0 0 0-.164.044.33.33 0 0 0-.149.363.317.317 0 0 0-.056.064l-.154.22c-.393.56-.8 1.139-1.1 1.767l-.036.077c-.134.28-.268.561-.4.843-.117.25-.262.56-.381.867-.049.126-.09.258-.128.418-.02.08-.036.16-.053.24-.012.056-.023.112-.036.167a16.05 16.05 0 0 1-.227.884c-.068.24-.157.554-.24.87a7.88 7.88 0 0 0-.166.885c-.028.199-.048.36-.065.507-.013.115-.022.232-.032.345l-.007.093c-.025.293-.034.592-.042.882l-.002.066c-.005.148-.002.298 0 .443.002.168.026.336.048.481.025.167.09.322.147.454.079.18.197.341.31.498l.014.018a5.14 5.14 0 0 0 .693.793c.145.137.305.273.49.415.189.144.375.268.555.368.164.091.348.169.563.237.224.07.442.12.65.15.102.015.207.022.313.022.117 0 .236-.009.363-.026.132-.018.262-.045.382-.071a2.08 2.08 0 0 0 .424-.13 2.26 2.26 0 0 0 .525-.359c.07-.059.14-.124.216-.197.07-.069.13-.155.183-.239a2.3 2.3 0 0 0 .162-.319c.168-.384.288-.812.357-1.271.045-.294.057-.587.067-.887l.009-.408v-.045c.003-.15-.012-.3-.027-.447l-.003-.024c-.043-.429-.12-.854-.195-1.253a25.41 25.41 0 0 1-.194-1.212 17.4 17.4 0 0 0-.134-.897c-.038-.21-.088-.42-.137-.623l-.06-.253a17.017 17.017 0 0 0-.218-.842c-.068-.238-.152-.476-.233-.706l-.052-.146c-.086-.247-.186-.51-.305-.802l-.028-.067a5.952 5.952 0 0 0-.344-.726c-.113-.21-.255-.471-.406-.712l-.09-.136c-.037-.056-.074-.11-.11-.167a4.721 4.721 0 0 1-.07-.12 2.07 2.07 0 0 0-.148-.236l-.025-.033-.026-.033a.331.331 0 0 0-.228-.095zm-13.804-10.01a.267.267 0 0 0-.07.01.28.28 0 0 0-.158.121 20.76 20.76 0 0 0-.368.537 8.286 8.286 0 0 0-.375.628c-.104.193-.208.4-.336.675l-.067.141c-.055.116-.113.235-.162.355l-.152.367-.064.153c-.108.262-.206.534-.3.797l-.02.053a164.48 164.48 0 0 0-.33.919l-.172.48-.133.377-.041.112a7.432 7.432 0 0 0-.113.323l-.056.181a22.91 22.91 0 0 1-.087.278l-.027.086a37.86 37.86 0 0 0-.52 1.703c-.082.3-.16.617-.235.942-.033.148-.066.31-.098.496a5.937 5.937 0 0 0-.102 1.055c0 .148.022.298.044.443l.006.04.012.084a10.5 10.5 0 0 0 .128.719c.044.195.132.383.194.507.038.077.075.152.119.226.08.137.162.26.252.375.07.09.146.177.22.262l.005.006c.087.1.181.205.306.338l.038.041a8.551 8.551 0 0 0 .826.79l.13.112.026.023c.104.09.209.181.315.27.176.149.314.26.447.36.122.092.26.163.39.225a3.415 3.415 0 0 0 .423.163c.117.036.242.054.37.07.136.018.285.026.454.026.066 0 .13-.001.196-.003.368-.011.701-.09.99-.236.3-.151.582-.393.837-.717a3.05 3.05 0 0 0 .28-.412c.083-.152.166-.305.247-.458.19-.358.324-.638.438-.909.051-.124.11-.27.159-.422l.081-.258c.056-.177.101-.363.139-.57.027-.15.045-.303.063-.45l.019-.162c.006-.05.01-.1.013-.15l.005-.075.006-.076.012-.152.008-.147c.006-.106.012-.212.016-.318.008-.203.01-.372.01-.534v-.06c-.001-.12-.002-.243-.012-.363a16.166 16.166 0 0 0-.053-.513l-.003-.022c-.038-.307-.076-.624-.145-.93a6.986 6.986 0 0 0-.208-.7l-.052-.155c-.08-.243-.186-.564-.287-.894-.04-.13-.087-.261-.132-.388l-.018-.05a20.93 20.93 0 0 1-.084-.247l-.068-.196-.158-.45-.15-.423a62.146 62.146 0 0 1-.423-1.277l-.146-.448a4.317 4.317 0 0 0-.502-1.211 3.69 3.69 0 0 0-.552-.674 3.832 3.832 0 0 0-.172-.152c-.037-.032-.075-.064-.111-.097l-.081-.071c-.061-.054-.122-.107-.181-.163-.105-.098-.22-.2-.352-.28a.314.314 0 0 0-.242-.034.264.264 0 0 0-.106-.022z"/>
        <path fill="#000" d="M36.52 81.27a2.004 2.004 0 0 0-.182.532 5.582 5.582 0 0 0-.08.528l-.062.556c-.033.3-.056.602-.081.903-.013.153-.023.306-.035.459-.012.153-.011.308-.017.46-.01.308-.009.617-.011.925-.006.597-.008 1.195-.013 1.792l-.006.903c-.002.306-.006.611.003.916l.028.918c.01.32.024.64.039.96.015.326.028.653.04.98.012.302.033.605.048.908.03.607.033 1.213.05 1.82.01.312.033.624.046.936.013.308.026.616.043.924.017.291.027.582.045.872.02.316.041.632.058.949.015.297.022.595.04.892.018.302.046.603.058.904.013.304.02.608.034.911.014.297.042.594.058.891.017.294.027.588.037.882.005.146.013.291.025.437.015.182.029.365.057.546l.005.037a.289.289 0 0 0 .28.213c.152 0 .3-.132.291-.29-.019-.314-.042-.628-.047-.943-.005-.294-.01-.588-.02-.882-.012-.297-.037-.594-.048-.891-.011-.303-.016-.607-.028-.911-.011-.301-.038-.602-.056-.904-.019-.297-.026-.595-.042-.892-.017-.317-.039-.633-.06-.949-.02-.29-.03-.581-.047-.871a67.84 67.84 0 0 1-.046-.925c-.015-.312-.04-.624-.052-.936-.023-.607-.031-1.213-.067-1.82-.018-.303-.041-.606-.057-.909a226.72 226.72 0 0 0-.052-.98c-.018-.32-.037-.639-.052-.96l-.04-.917c-.013-.305-.014-.61-.017-.916l-.007-.903c-.004-.597-.01-1.195-.013-1.792v-.886c0-.275.015-.548.033-.822.017-.27.04-.541.06-.812.01-.12.026-.24.038-.358l.045-.421a8.34 8.34 0 0 1 .053-.353c.025-.141.063-.276.115-.409a.898.898 0 0 1 .028-.057.246.246 0 0 0-.087-.331.24.24 0 0 0-.122-.032.235.235 0 0 0-.21.119Z"/>
        <path fill="#000" d="M34.937 82.847a.188.188 0 0 0-.055.134.2.2 0 0 0 .055.133c.158.19.316.378.476.566.128.152.26.304.403.442.044.043.088.085.136.123a.54.54 0 0 0 .158.091c.06.022.124.026.187.02.165-.017.32-.098.46-.186.175-.109.342-.23.51-.35.115-.08.236-.15.35-.232a.205.205 0 0 0 .087-.114.193.193 0 0 0-.019-.148.193.193 0 0 0-.261-.068c-.096.057-.192.113-.284.175-.089.06-.175.124-.262.186a3.448 3.448 0 0 1-.517.325.685.685 0 0 1-.096.029.435.435 0 0 1-.033 0l-.01-.002a.468.468 0 0 1-.033-.021c-.175-.15-.326-.329-.478-.502-.173-.197-.34-.4-.507-.6a.181.181 0 0 0-.133-.056.19.19 0 0 0-.134.055zm-.104 2.246a.196.196 0 0 0-.057.139c0 .046.019.108.057.138.21.165.42.329.629.495.172.138.347.273.512.418l.124.109c.04.036.081.07.126.103.061.043.159.06.231.04.106-.03.202-.09.297-.145l.152-.09c.181-.109.36-.224.54-.333a8.4 8.4 0 0 0 .142-.088.212.212 0 0 0 .075-.287.213.213 0 0 0-.286-.075 6.29 6.29 0 0 0-.485.297l-.21.136c-.096.06-.19.123-.29.176-.092-.076-.18-.155-.27-.231-.086-.072-.174-.141-.261-.21-.249-.2-.499-.396-.749-.592-.043-.034-.081-.057-.138-.057a.196.196 0 0 0-.139.057zm.042 3.094a.2.2 0 0 0-.12.092c-.05.088-.026.225.072.272.184.088.368.177.55.269.177.089.352.191.539.259.05.018.107.022.16.03.064.008.13-.006.192-.016.106-.017.213-.05.313-.087.099-.037.198-.074.295-.115.194-.082.388-.166.58-.254.05-.022.087-.081.101-.132a.222.222 0 0 0-.154-.272.232.232 0 0 0-.17.023c-.193.091-.388.18-.583.268-.167.067-.334.134-.512.17a.573.573 0 0 1-.068 0 .736.736 0 0 1-.104-.029c-.135-.06-.266-.128-.399-.194-.179-.09-.359-.177-.54-.264a.24.24 0 0 0-.103-.026.188.188 0 0 0-.05.006zm3.243 1.585c-.601.324-1.182.694-1.808.97-.063.026-.127.05-.193.065-.048-.03-.094-.065-.14-.096-.047-.03-.096-.058-.145-.086-.103-.06-.208-.116-.312-.173a90.56 90.56 0 0 0-.688-.366.211.211 0 0 0-.285.075c-.055.094-.025.231.075.284.239.127.477.253.715.381.112.06.224.123.334.188.048.029.095.058.141.09.025.016.05.035.074.053a.395.395 0 0 0 .23.075c.04.002.082-.01.122-.016.037-.005.073-.02.108-.032.08-.027.158-.06.236-.093a26.398 26.398 0 0 0 .565-.264c.212-.103.417-.22.625-.332.195-.105.389-.212.583-.318a.236.236 0 0 0 .084-.32.231.231 0 0 0-.202-.115.25.25 0 0 0-.119.03zm11.98 1.893-.035.045a.218.218 0 0 0-.03.111l.002-.018-.003.025-.003.022v.003l-.002.01.001-.008a8.331 8.331 0 0 0-.079 1.071c0 .172.006.342.015.514.011.25.021.5.04.75.019.265.035.53.06.795.026.284.054.567.083.85.026.244.043.488.065.732a20.983 20.983 0 0 1 .084 1.563c.007.233.01.466.014.7.01.51.04 1.018.056 1.527.017.519.025 1.039.029 1.559.002.251 0 .502.006.753.007.262.026.523.04.785.027.492.072.984.123 1.474.021.201.03.402.048.603.018.223.035.445.06.667.016.128.03.256.05.383.016.108.035.217.053.325.04.242.076.489.152.723.04.122.16.2.289.164.128-.035.192-.164.164-.288a15.713 15.713 0 0 1-.187-1.05 18.442 18.442 0 0 1-.073-.704c-.023-.256-.04-.513-.06-.769-.01-.118-.025-.235-.038-.353-.013-.117-.021-.234-.03-.351-.021-.256-.045-.512-.06-.769-.014-.24-.035-.48-.042-.72-.006-.246-.006-.493-.008-.74a62.43 62.43 0 0 0-.027-1.56c-.016-.508-.05-1.015-.063-1.523-.013-.525-.023-1.051-.053-1.577-.028-.507-.082-1.012-.131-1.518-.025-.252-.057-.504-.081-.756-.027-.267-.047-.534-.067-.801-.02-.255-.034-.509-.046-.763-.008-.148-.017-.295-.02-.442a7.992 7.992 0 0 1 .08-1.287c.008-.055-.028-.12-.064-.157a.222.222 0 0 0-.313 0z"/>
        <path fill="#000" d="M48.742 93.035a.185.185 0 0 0-.054.131c0 .054.022.091.054.131.143.18.286.358.43.536.12.145.24.29.372.424a.92.92 0 0 0 .315.237c.048.02.1.024.151.029a.408.408 0 0 0 .102-.01 2.3 2.3 0 0 0 .268-.074c.209-.072.412-.16.618-.24a.21.21 0 0 0 .116-.09.196.196 0 0 0-.07-.265.189.189 0 0 0-.15-.02c-.142.052-.282.112-.422.17a4.956 4.956 0 0 1-.18.07 1.68 1.68 0 0 1-.268.083l-.033-.001-.013-.004a.532.532 0 0 1-.048-.028 3.874 3.874 0 0 1-.418-.45 40.31 40.31 0 0 1-.508-.629.186.186 0 0 0-.262 0zm-.196 2.5a.212.212 0 0 0 .076.286c.435.27.869.543 1.309.805.058.035.116.07.177.1.063.03.128.052.197.064.069.011.137.016.206.015.186 0 .363-.051.534-.118.112-.044.22-.095.328-.149.103-.05.207-.098.307-.153.054-.03.107-.062.16-.095a.222.222 0 0 0 .078-.3.22.22 0 0 0-.13-.1.23.23 0 0 0-.17.022c-.234.116-.463.243-.7.353a1.674 1.674 0 0 1-.34.105 1.22 1.22 0 0 1-.197.003.626.626 0 0 1-.083-.022c-.112-.055-.22-.125-.326-.19l-.316-.194c-.275-.168-.55-.338-.823-.508a.193.193 0 0 0-.102-.029.216.216 0 0 0-.185.104zm.478 2.238a.216.216 0 0 0-.151.266c.016.06.052.093.1.13l.635.487.551.43.17.13c.112.084.243.182.39.145.108-.028.189-.107.274-.174l.107-.086c.19-.136.386-.267.582-.395.103-.069.207-.135.309-.207.132-.093.259-.195.381-.302.094-.082.084-.24 0-.323a.23.23 0 0 0-.161-.067c-.066 0-.112.028-.162.067l-.058.047c-.22.162-.453.31-.676.469-.115.081-.23.162-.342.246-.072.056-.145.11-.213.169l-.123.104c-.043-.029-.085-.062-.127-.094a151.16 151.16 0 0 0-1.32-1.02.175.175 0 0 0-.104-.03.239.239 0 0 0-.062.008zm40.704-14.605c-.008.259-.021.518-.021.777l-.001.436-.001 1.095c0 .233.018.467.028.7.012.255.02.511.037.766.034.55.066 1.1.133 1.648.067.56.143 1.12.22 1.678.03.265.06.529.087.794.03.298.056.596.08.895.02.253.04.508.048.762.005.142.01.283.013.425.003.137.002.274.01.41.012.273.026.547.055.82a46.45 46.45 0 0 0 .194 1.514c.025.213.042.427.058.641.016.219.042.438.067.656.024.21.05.419.077.628.016.12.03.243.059.362.03.13.067.254.114.379.022.058.05.105.106.137.053.031.117.04.177.023.125-.034.188-.16.16-.282a3.996 3.996 0 0 1-.05-.263c-.024-.204-.037-.408-.06-.612-.023-.213-.048-.425-.069-.639-.02-.223-.04-.445-.056-.669a10.09 10.09 0 0 0-.083-.71 45.288 45.288 0 0 1-.094-.772 14.18 14.18 0 0 1-.07-.784 36.88 36.88 0 0 1-.022-.432c-.007-.143-.006-.287-.01-.43a14.995 14.995 0 0 0-.037-.773 32.616 32.616 0 0 0-.269-2.505l-.11-.76c-.03-.238-.066-.476-.089-.715-.026-.278-.057-.555-.076-.833-.017-.267-.039-.534-.051-.8l-.051-1.078a5.124 5.124 0 0 1-.005-.248v-1.38c0-.287.013-.574.022-.86a.262.262 0 0 0-.26-.26.263.263 0 0 0-.26.26z"/>
        <path fill="#000" d="M90.88 84.471c-.211.092-.397.23-.582.366a17.95 17.95 0 0 0-.279.209c-.106.08-.21.17-.33.231l-.009.003h-.01a.288.288 0 0 1-.022-.014c-.278-.23-.531-.487-.784-.743a.228.228 0 0 0-.32 0 .228.228 0 0 0 0 .32c.169.17.337.34.513.504a8.91 8.91 0 0 0 .289.252c.027.022.055.043.084.063.036.026.082.039.123.055l.037.007c.033.006.065.01.098.01l.039-.005a.531.531 0 0 0 .1-.017c.041-.01.088-.037.124-.057.031-.017.06-.036.09-.056.089-.06.174-.127.26-.191.08-.06.16-.118.24-.174l.25-.172c.103-.071.205-.144.306-.218a.231.231 0 0 0 .1-.13.217.217 0 0 0-.151-.264.195.195 0 0 0-.052-.008.285.285 0 0 0-.114.03zm-2.551 2.43a.22.22 0 0 0 .078.297c.232.147.464.294.695.443.201.13.402.261.605.388.088.055.178.106.278.136.138.043.275 0 .398-.064.097-.051.19-.11.282-.168.1-.063.2-.127.3-.188.114-.071.23-.139.341-.216a.243.243 0 0 0 .106-.137.23.23 0 0 0-.16-.282.239.239 0 0 0-.177.023c-.18.092-.35.2-.519.31l-.23.15c-.073.046-.145.093-.222.13a.103.103 0 0 1-.008.003.47.47 0 0 1-.051-.015c-.111-.054-.216-.123-.32-.189l-.33-.21c-.255-.165-.512-.327-.768-.49a.197.197 0 0 0-.106-.03.226.226 0 0 0-.192.108zm-.233 1.368a.236.236 0 0 0-.068.166c0 .056.022.129.068.165.324.258.65.513.978.765.136.105.272.21.406.316.161.127.322.26.493.375.095.064.207.09.32.093a.768.768 0 0 0 .297-.074c.1-.04.199-.085.297-.13.163-.075.328-.147.493-.218l.522-.209c.206-.082.418-.158.61-.27a.288.288 0 0 0 .101-.39.287.287 0 0 0-.17-.13.302.302 0 0 0-.22.028c-.042.02-.085.04-.128.058-.307.128-.611.263-.917.394-.14.06-.277.126-.414.191-.146.07-.289.147-.436.215a.576.576 0 0 1-.066.02h-.02a.233.233 0 0 1-.01-.003c-.102-.05-.196-.123-.286-.19l-.318-.243-.62-.472a93.905 93.905 0 0 1-.581-.457c-.051-.04-.098-.068-.165-.068a.236.236 0 0 0-.166.068z"/>
        <path fill="#FFF" d="M30.623 20.282c-.12 0-.229.005-.334.015a7.473 7.473 0 0 0-.787.121 6.756 6.756 0 0 0-.574.158l-.139.042a7.893 7.893 0 0 0-.69.237 2.75 2.75 0 0 0-.63.335 7.28 7.28 0 0 0-.605.505c-.195.18-.354.346-.486.504-.09.107-.178.214-.266.322a5.578 5.578 0 0 0-.246.331c-.057.08-.11.17-.156.248l-.041.068a4.168 4.168 0 0 0-.345.663c-.047.11-.084.227-.12.34l-.008.028c-.073.23-.13.463-.17.693-.024.132-.043.262-.065.407l-.001.011-.017.115a29.03 29.03 0 0 0-.068.486l-.02.137a34.326 34.326 0 0 1-.1.647l-.002.01c-.02.122-.046.274-.063.418a11.011 11.011 0 0 0-.062.733l-.003.04-.002.045a9.63 9.63 0 0 1-.005.091l-.004.058v.008a1.925 1.925 0 0 0-.006.265.218.218 0 0 0 .06.145c.038.038.09.06.145.06.11 0 .196-.084.205-.2h.042l.05-.004c.2-.012.401-.025.601-.035l.118-.007.026-.001c.082-.004.16-.008.238-.01l.242-.006.243-.006c.42-.01.868-.015 1.45-.016h.875c.23 0 .465 0 .696.008l.661.026c.309.013.618.025.926.035.534.018 1.074.06 1.58.1.438.034.917.062 1.507.088.205.01.422.012.596.015l.182.003c.249.004.498.008.747.01l.295.003h.11l.332.004c.225.003.459.018.648.03l.131.008c.91.054 1.836.057 2.732.06l.306.002.383.001.388.002h.17l.231.002c.139 0 .252-.002.355-.006l.24-.01.12-.006h.008l.029-.001.033-.002c.357-.015.727-.03 1.09-.035l.105-.002a18.445 18.445 0 0 0 1.781-.088l.173-.016.106-.01c.303-.027.606-.054.908-.084l.245-.024.03-.003a12.384 12.384 0 0 1 1.404-.085.592.592 0 0 0 .127-.02.37.37 0 0 0 .14-.077.55.55 0 0 0 .167-.253 1.91 1.91 0 0 0 .084-.344 2 2 0 0 0 .022-.598 5.804 5.804 0 0 0-.038-.26 1.49 1.49 0 0 0-.034-.147l-.004-.015-.007-.026a2.522 2.522 0 0 0-.116-.333 2.642 2.642 0 0 0-.18-.37 7.493 7.493 0 0 0-.267-.4l-.013-.016-.027-.037a2.916 2.916 0 0 0-.42-.46 1.642 1.642 0 0 0-.409-.284 1.842 1.842 0 0 0-.517-.153 2.826 2.826 0 0 0-.398-.032h-.037c-.091.002-.19.013-.32.037a1.59 1.59 0 0 0-.307.093 2.408 2.408 0 0 0-.541.293 5.24 5.24 0 0 0-.484.405 6.32 6.32 0 0 0-.204.197l-.045.044c-.053.054-.108.11-.168.159l-.009.005h-.01a.84.84 0 0 1-.084-.024 1.305 1.305 0 0 1-.137-.084c-.1-.081-.197-.17-.29-.255l-.01-.008a5.103 5.103 0 0 0-.868-.66 2.701 2.701 0 0 0-.376-.182 1.846 1.846 0 0 0-.329-.098 6.25 6.25 0 0 0-.423-.068 1.522 1.522 0 0 0-.19-.012 2.821 2.821 0 0 0-.457.046 1.7 1.7 0 0 0-.29.08 2.118 2.118 0 0 0-.298.154 4.143 4.143 0 0 0-.652.491l-.015.013c-.044.04-.088.081-.135.12a.746.746 0 0 1-.095.056.356.356 0 0 1-.045.012h-.01a.509.509 0 0 1-.06-.017.45.45 0 0 1-.04-.025 3.913 3.913 0 0 1-.147-.13 1.19 1.19 0 0 1-.096-.102l-.026-.03-.147-.165a19.905 19.905 0 0 1-.216-.25l-.014-.016c-.17-.199-.341-.4-.543-.567a1.591 1.591 0 0 0-.39-.244.952.952 0 0 0-.369-.083.507.507 0 0 0-.082.008l-.036.006a.774.774 0 0 0-.18.062l-.037.016a1.024 1.024 0 0 0-.172.098 1.705 1.705 0 0 0-.19.15 2.84 2.84 0 0 0-.236.246l-.028.032-.02.023a2.028 2.028 0 0 1-.165.178.825.825 0 0 0-.033-.041l-.014-.017a1.502 1.502 0 0 1-.122-.234l-.012-.027-.032-.07a28.868 28.868 0 0 1-.215-.486 1.72 1.72 0 0 0-.06-.121l-.03-.06a1.815 1.815 0 0 0-.071-.129l-.02-.032a6.053 6.053 0 0 0-.177-.29l-.048-.072c-.046-.07-.103-.158-.164-.237l-.11-.144-.048-.062-.032-.041-.005-.007-.07-.09-.024-.026-.007-.009a12.972 12.972 0 0 0-.502-.551 2.779 2.779 0 0 0-.269-.244l-.046-.036-.006-.005a6.1 6.1 0 0 0-1.593-.909 2.953 2.953 0 0 0-.735-.195 9.245 9.245 0 0 0-.744-.058l-.046-.002h-.034a7.856 7.856 0 0 0-.346-.01zM88.09 18.25c-.063 0-.13.003-.202.007-.344.021-.666.16-.979.292l-.018.009a4.984 4.984 0 0 0-.584.303c-.228.134-.42.274-.59.429a2.182 2.182 0 0 0-.32.38 3.356 3.356 0 0 0-.175.28 6.247 6.247 0 0 0-.291.611c-.078.18-.17.39-.27.605l-.032.067c-.05.108-.101.22-.17.319l-.007.002a.393.393 0 0 1-.043-.025 2.717 2.717 0 0 1-.122-.112 2.382 2.382 0 0 0-.406-.325 1.631 1.631 0 0 0-.345-.153 1.043 1.043 0 0 0-.156-.038 2.597 2.597 0 0 0-.147-.023 1.009 1.009 0 0 0-.252 0c-.088.008-.18.024-.253.037l-.045.008a2.691 2.691 0 0 0-.807.3.934.934 0 0 0-.107.073l-.033.024c-.06.046-.113.097-.16.145a2.41 2.41 0 0 0-.2.239l-.005.007c-.036-.026-.07-.058-.1-.086l-.01-.008-.01-.009-.082-.072a.749.749 0 0 0-.156-.1 1.585 1.585 0 0 0-.178-.07 1.255 1.255 0 0 0-.407-.07c-.25 0-.494.078-.687.219a1.361 1.361 0 0 0-.204.192l-.03.032a1.207 1.207 0 0 1-.07.075.47.47 0 0 1-.02.012.179.179 0 0 1-.011.003l-.02.002h-.018a.841.841 0 0 1-.086-.025 1.894 1.894 0 0 0-.233-.059l-.02-.004a2.604 2.604 0 0 0-.177-.027l-.009-.001-.036-.005a1.233 1.233 0 0 0-.157-.01c-.127 0-.253.018-.372.036-.19.03-.362.096-.544.167a4.47 4.47 0 0 0-.353.159 1.982 1.982 0 0 0-.266.16 4.103 4.103 0 0 0-.38.297c-.049.047-.09.102-.124.146-.061.082-.11.184-.154.321a2.054 2.054 0 0 0-.077.326c-.033.218-.021.388.037.521.048.11.148.204.299.278.092.046.196.07.287.09l.016.004c.238.055.483.082.714.105.191.02.391.031.63.037h.024c.057.002.114.004.17.004.046 0 .092 0 .137-.004.07-.004.14-.01.209-.015l.048-.003.082-.006.048-.003c.086-.007.183-.014.276-.017a.227.227 0 0 0 .224-.224.219.219 0 0 0-.008-.057c.124-.003.25-.009.375-.015h.01l.134-.006c.135-.007.3-.016.457-.016a184.207 184.207 0 0 1 2.682.008l1.623.011.24.001 1.195.006h.181l.125-.001.115-.005a75.327 75.327 0 0 1 1.256-.047l.06-.002c.125-.003.248-.007.37-.012l.451-.023.016-.001.25-.014.219-.01c.14-.006.298-.013.45-.024l.141-.01.567-.04c.206-.013.423-.023.702-.03l.104-.002h.035l.027-.001.168-.004c.06-.003.117-.01.19-.02a.44.44 0 0 0 .218-.109c.118-.104.169-.259.215-.422.034-.118.06-.242.08-.368a2.03 2.03 0 0 0 .033-.364 10.252 10.252 0 0 0-.044-.71 3.635 3.635 0 0 0-.188-.881 2.383 2.383 0 0 0-.179-.39 3.271 3.271 0 0 0-.237-.36c-.051-.069-.108-.137-.154-.193l-.02-.024a5.412 5.412 0 0 0-1.011-.946 3.843 3.843 0 0 0-.8-.469l-.023-.01a.79.79 0 0 0-.076-.031l-.01-.004-.05-.021a.08.08 0 0 0 .022.013 1.431 1.431 0 0 0-.319-.1l-.193-.036a5.247 5.247 0 0 0-.32-.046l-.097-.012a3.757 3.757 0 0 0-.473-.032z"/>
        <path fill="#3C8076" d="M79.639 82.093a.174.174 0 0 0-.103.079c-.02.035-.033.091-.017.132.089.214.162.434.236.653.057.173.115.346.171.52.126.384.25.768.374 1.152l.422 1.317c.03.093.123.152.22.125.092-.025.156-.127.126-.22a480.68 480.68 0 0 0-.851-2.65l-.156-.468c-.022-.065-.046-.13-.069-.194a23.723 23.723 0 0 1-.039-.109c-.016-.046-.036-.091-.055-.136a1.01 1.01 0 0 0-.026-.06c-.01-.022-.027-.043-.04-.062a.18.18 0 0 0-.148-.085.167.167 0 0 0-.045.006zm1.725-.337a.126.126 0 0 0-.087.153c.128.56.273 1.117.408 1.675l.308 1.272c.016.069.093.11.16.091a.132.132 0 0 0 .09-.16l-.463-1.931c-.037-.153-.072-.307-.11-.46-.023-.086-.044-.173-.066-.26a4.357 4.357 0 0 0-.087-.293.129.129 0 0 0-.12-.092.122.122 0 0 0-.033.005zm1.471-.67c-.029.016-.061.05-.066.085-.054.358-.065.721-.085 1.082-.02.39-.043.78-.065 1.17l-.031.546c-.006.092.08.169.17.169a.17.17 0 0 0 .12-.05.177.177 0 0 0 .05-.12c.025-.439.052-.878.076-1.317.02-.36.043-.72.053-1.08a4.83 4.83 0 0 0-.004-.361.147.147 0 0 0-.106-.14.146.146 0 0 0-.112.015zm1.574-.313a.134.134 0 0 0-.056.074c-.03.074-.06.148-.08.225-.014.056-.03.113-.043.17-.027.115-.052.231-.076.348l-.045.225a1.411 1.411 0 0 0-.037.388c.01.126.02.251.046.374.018.086.035.171.056.256.038.16.093.312.158.462.01.022.036.039.058.045a.097.097 0 0 0 .12-.068c.008-.028.001-.05-.01-.075l-.015-.037a2.64 2.64 0 0 1-.145-.482l-.037-.188-.008-.068c-.004-.027-.009-.054-.01-.081-.004-.097-.01-.193 0-.29.019-.123.051-.244.08-.365l.06-.243.061-.22.034-.114c.022-.066.046-.131.071-.196.012-.03.003-.07-.012-.095a.124.124 0 0 0-.17-.045zm15.867 3.233a.25.25 0 0 0-.106.138c-.076.194-.123.397-.171.599-.04.16-.076.322-.111.484-.04.182-.084.363-.12.546-.05.262-.1.523-.147.786a.247.247 0 0 0 .024.179.231.231 0 0 0 .316.083.225.225 0 0 0 .106-.139c.045-.257.096-.514.146-.77.036-.184.08-.366.121-.549.036-.159.073-.317.114-.475.054-.208.113-.414.165-.622a.233.233 0 0 0-.22-.291.227.227 0 0 0-.117.031zm2.738-1.482a.206.206 0 0 0-.117.09c-.065.094-.117.197-.17.299-.047.092-.096.184-.142.278l-.29.594-.57 1.167-1.04 2.124a.227.227 0 0 0-.022.17.217.217 0 0 0 .101.13c.097.058.247.03.3-.078l1.52-3.1.335-.688c.05-.103.1-.207.147-.31.067-.144.137-.287.186-.437.027-.082-.017-.177-.089-.22a.196.196 0 0 0-.149-.019zm.654 1.81c-.117.181-.242.358-.366.536l-.364.52-.82 1.168-.503.718a.19.19 0 0 0-.02.154.2.2 0 0 0 .245.14.21.21 0 0 0 .12-.092c.574-.819 1.152-1.634 1.717-2.459.111-.161.22-.326.317-.495a.19.19 0 0 0-.067-.258.184.184 0 0 0-.093-.026.2.2 0 0 0-.166.094zM19.517 88.08a.244.244 0 0 0 .066.241c.245.51.474 1.028.707 1.543a1840.535 1840.535 0 0 0 1.315 2.905c.025.055.092.098.148.113a.248.248 0 0 0 .304-.172.265.265 0 0 0-.025-.19c-.521-1.151-1.04-2.303-1.56-3.454-.075-.164-.148-.329-.224-.492l-.138-.295a3.891 3.891 0 0 0-.094-.19.543.543 0 0 0-.08-.114c-.049-.053-.117-.07-.186-.072h-.008a.243.243 0 0 0-.225.177zm1.965-.549a.154.154 0 0 0-.07.09.147.147 0 0 0 .016.117c.056.079.109.159.155.244a11.372 11.372 0 0 1 .318.632c.065.143.132.284.194.428l.225.522.04.091c.129.325.26.647.39.97.038.096.067.195.099.292l.208.634.04.126c.03.088.05.18.072.27a.138.138 0 0 0 .169.095.138.138 0 0 0 .095-.168c-.026-.102-.05-.205-.083-.305l-.081-.249-.204-.622c-.012-.035-.021-.071-.035-.105l-.06-.152-.25-.625a37.255 37.255 0 0 0-.671-1.566l-.142-.298-.083-.161c-.013-.026-.03-.051-.046-.077a1.607 1.607 0 0 0-.088-.128.165.165 0 0 0-.09-.07.154.154 0 0 0-.117.015zm2.36-1.756c-.087.024-.15.123-.12.212.03.094.044.191.058.288l.023.165c.083.714.154 1.43.225 2.144.029.295.05.59.074.885.04.486.078.972.114 1.458a.15.15 0 0 0 .041.1.143.143 0 0 0 .1.04c.073 0 .147-.063.141-.14-.039-.528-.08-1.055-.12-1.582-.025-.311-.049-.623-.077-.933l-.098-1.096c-.031-.357-.06-.714-.096-1.07-.012-.118-.022-.236-.053-.35a.175.175 0 0 0-.212-.12zm1.712.939a.191.191 0 0 0-.053.128c-.034.397-.053.797-.076 1.196-.02.332-.043.664-.055.998-.011.342-.023.684-.029 1.027a.156.156 0 0 0 .155.154c.086 0 .154-.07.155-.154.004-.265.013-.53.022-.794.006-.16.009-.32.02-.481.027-.382.051-.764.086-1.145.025-.267.048-.535.083-.801.006-.045-.022-.099-.052-.128a.182.182 0 0 0-.256 0zm3.012 8.464a.207.207 0 0 0-.099.128c-.1.532-.201 1.064-.31 1.594a51.62 51.62 0 0 1-.313 1.417l-.049.199c-.032.131-.063.263-.11.39a.777.777 0 0 0-.018.041.206.206 0 0 0 .033.251.2.2 0 0 0 .146.061.2.2 0 0 0 .147-.06c.02-.026.05-.056.066-.084a1.31 1.31 0 0 0 .121-.319c.019-.067.034-.135.05-.204l.075-.33a61.946 61.946 0 0 0 .428-2.071c.05-.257.1-.514.147-.77a.227.227 0 0 0-.021-.166.216.216 0 0 0-.293-.077zm1.4.336c-.029.016-.06.05-.065.084-.12.758-.243 1.516-.37 2.273-.03.186-.063.371-.094.557-.041.25-.085.498-.115.75a.146.146 0 0 0 .218.125.138.138 0 0 0 .066-.087c.118-.675.22-1.352.328-2.029.08-.505.16-1.01.238-1.514.007-.04.007-.073-.014-.109a.14.14 0 0 0-.192-.05zm1.113.453a.162.162 0 0 0-.044.108 31.954 31.954 0 0 1-.16 1.572c-.038.278-.078.555-.133.83a.177.177 0 0 0 .017.13.169.169 0 0 0 .23.06c.035-.02.071-.06.078-.1.066-.386.109-.775.15-1.164a46.359 46.359 0 0 0 .122-1.328c.007-.083-.074-.153-.152-.153-.04 0-.08.017-.108.045zm31.097 7.352a.275.275 0 0 0-.098.374c.301.418.601.837.905 1.253.263.36.519.726.796 1.075a.271.271 0 0 0 .452-.119.263.263 0 0 0-.027-.209c-.124-.175-.254-.345-.381-.518l-.368-.505c-.304-.416-.605-.834-.905-1.253a.29.29 0 0 0-.163-.125.28.28 0 0 0-.21.027zm1.079-1.166c-.071.042-.103.143-.056.214.238.36.478.719.72 1.077.202.3.403.601.599.906l.065.101.055.084c.03.044.065.085.098.127a.173.173 0 0 0 .213.027.175.175 0 0 0 .08-.105c.012-.041.01-.099-.017-.135-.118-.161-.23-.327-.344-.491l-.335-.479a73.585 73.585 0 0 1-.865-1.27.166.166 0 0 0-.137-.077.156.156 0 0 0-.076.021zm1.424-.124a.247.247 0 0 0-.072.173c0 .071.03.121.072.174l.7.867.297.373.18.227.095.118c.033.04.068.078.109.11.043.035.09.066.135.097.087.059.214.034.285-.037a.235.235 0 0 0 0-.333c-.035-.03-.071-.059-.104-.092a1.114 1.114 0 0 1-.093-.107c-.41-.53-.835-1.049-1.257-1.57-.038-.048-.114-.072-.173-.072a.246.246 0 0 0-.174.072zm1.56-.86a.214.214 0 0 0-.098.128.222.222 0 0 0 .021.164c.159.309.317.619.477.927.138.264.27.532.433.781.06.094.18.133.28.074a.208.208 0 0 0 .074-.281c-.15-.257-.282-.525-.418-.789l-.477-.927a.203.203 0 0 0-.185-.105.213.213 0 0 0-.107.028zm4.587.952a375.5 375.5 0 0 1-.502 2.016c-.049.193-.105.384-.16.575-.027.094-.05.189-.08.283l-.126.389a5.254 5.254 0 0 1-.149.406.2.2 0 0 0 .092.226c.091.053.222.024.273-.072.032-.06.065-.12.09-.183l.031-.073c.024-.057.05-.114.071-.172l.134-.38c.03-.082.05-.167.075-.25l.13-.449c.052-.181.094-.365.14-.548l.206-.822c.07-.276.136-.552.204-.828a.225.225 0 0 0-.155-.273.219.219 0 0 0-.057-.007.221.221 0 0 0-.217.162zm1.619.087c-.275.92-.531 1.845-.79 2.771a7.15 7.15 0 0 1-.095.316.197.197 0 0 0 .289.222c.049-.028.07-.067.09-.117.096-.228.155-.47.222-.707l.168-.599a155.323 155.323 0 0 1 .513-1.777.207.207 0 0 0-.197-.261.211.211 0 0 0-.2.152zm1.044.261c-.04.024-.085.072-.092.12l-.178 1.234c-.02.146-.042.292-.066.437-.039.233-.072.469-.146.693-.034.103.038.217.139.245a.2.2 0 0 0 .153-.021.21.21 0 0 0 .091-.118c.018-.048.035-.095.048-.144.01-.039.018-.079.026-.119l.03-.162c.017-.086.03-.172.044-.259.024-.148.046-.297.068-.446l.177-1.234.007-.053a.202.202 0 0 0-.147-.193.202.202 0 0 0-.154.02zm1.068.034c-.041.024-.086.073-.094.122-.067.447-.135.894-.198 1.342-.057.403-.111.807-.174 1.209-.009.054-.01.102.02.151a.195.195 0 0 0 .117.09c.096.027.22-.032.24-.137.077-.399.132-.802.19-1.205.063-.447.13-.895.198-1.342.008-.056.01-.105-.02-.156a.204.204 0 0 0-.28-.074zM56.11 81.333a.232.232 0 0 0-.083.314c.275.446.529.905.788 1.36.297.521.593 1.044.888 1.566l.065.114a.23.23 0 0 0 .31.081.23.23 0 0 0 .082-.31l-.92-1.626c-.255-.448-.505-.901-.769-1.345a1.444 1.444 0 0 0-.046-.072.244.244 0 0 0-.202-.114.221.221 0 0 0-.113.031zm1.576-.996a.191.191 0 0 0-.113.087c-.023.04-.038.101-.02.146.126.304.24.613.355.922.054.149.105.298.158.448.038.107.074.216.11.324.036.11.069.22.097.331a2.896 2.896 0 0 1 .078.546c.003.112.09.205.205.205.108 0 .208-.093.204-.205a3.427 3.427 0 0 0-.035-.353 3.16 3.16 0 0 0-.075-.376 6.777 6.777 0 0 0-.16-.506c-.056-.16-.109-.319-.167-.477-.126-.341-.248-.686-.423-1.005a.188.188 0 0 0-.214-.087zm1.944-.832a.218.218 0 0 0-.129.099.227.227 0 0 0-.021.166c.044.22.08.444.117.666l.1.586.233 1.38c.01.06.063.118.113.147a.246.246 0 0 0 .336-.088.264.264 0 0 0 .025-.19l-.144-.843c-.03-.179-.059-.358-.092-.536-.036-.195-.067-.39-.109-.583-.047-.22-.091-.44-.164-.654a.223.223 0 0 0-.208-.158.213.213 0 0 0-.057.008zm1.738.273c-.012.285-.018.571-.026.857-.01.326-.017.653-.019.98 0 .113.096.209.21.209a.211.211 0 0 0 .209-.21 20.928 20.928 0 0 1 .089-1.837.233.233 0 0 0-.231-.231.234.234 0 0 0-.232.232z"/>
    </g>
</svg>
