<svg xmlns="http://www.w3.org/2000/svg" width="116" height="117">
    <g fill="none" fill-rule="evenodd">
        <path fill="#FFF" d="m51.926 1.364.017-.001.389-.034.011-.001c1.492-.098 2.719-.167 3.647-.205a75.611 75.611 0 0 1 .877-.016c.2-.002.399-.003.6-.003.116 0 .233-.002.354-.004l.076-.002c.134-.003.267-.003.4-.003.045.002.092.002.144.003a.55.55 0 0 0 .054.004l.58.015.036.002.215.008.112.003h.008a.841.841 0 0 0 .038.003l.278.011.036.002h.022l.506.025h.01l.01.001c.398.023.754.044 1.088.066h.008c1.22.108 2.444.233 3.636.372a82.16 82.16 0 0 1 4.47.784l.172.039.17.038.048.01c1.633.395 3.146.817 4.494 1.251a50.791 50.791 0 0 1 4.985 1.828c.748.308 1.403.6 2 .894a7.7 7.7 0 0 1 .847.405l.015.008.136.066c.133.064.265.13.397.195l.03.015c.098.05.184.092.236.116 3.035 1.532 6.05 3.436 8.959 5.66a61.698 61.698 0 0 1 5.395 4.76 61.148 61.148 0 0 1 4.824 5.476 58.435 58.435 0 0 1 3.928 5.862 52.092 52.092 0 0 1 3.394 6.744 60.991 60.991 0 0 1 1.527 3.985.745.745 0 0 0 .03.072c.22.619.432 1.277.628 1.955.268.815.454 1.498.651 2.273l.061.134c.029.054.056.153.082.303l.043.06.017.078-.011.075c.06.188.112.39.155.597l.018.03-.007.017v.004h-.001l.025.036-.001.024-.007.011.026.036v.028l-.01.03.03.046-.013.034v.003l.006.022.01.015.03.053-.003.055h-.004l-.003.001.033.046.005.024.003.018c.091.464.185.942.343 1.766a.874.874 0 0 0 .045.285v.009l.01.07.011.067.006.034.007.038.004.03.006.04.016.098.01.058.008.047.01.06.008.063.008.04.03.192.002.022.013.082.086.588.014.086c.147 1.2.276 2.371.384 3.478a.337.337 0 0 0 .015.107 100.163 100.163 0 0 1 .195 3.188 52.355 52.355 0 0 1 .01.669c0 .283-.012 1.039-.038 2.313-.05.896-.098 1.687-.146 2.419-.049.265-.08.563-.094.883l-.001.013v.012l-.002.008v.008l-.001.01-.001.008-.001.012-.006.065c-.012.132-.024.263-.038.395-.044.4-.094.828-.177 1.524l-.001.013-.002.015-.026.197-.015.105-.03.175v.071l-.01.07-.003.02-.014.109-.01.066-.01.075v.028l-.04.286-.01.075-.008.064v.044l-.015.093-.025.163-.005.041-.015.09-.013.09-.013.078-.004.028-.005.036-.012.08-.003.026-.009.063-.012.078c-.077.432-.188 1.04-.348 1.915l-.016.074-.005.02-.016.07-.018.08-.019.083-.017.073-.01.044-.02.088-.016.071-.019.079-.006.026-.013.057-.007.029-.006.024c-.043.192-.091.4-.144.619l-.01.038-.01.042-.005.02-.005.018-.005.022c-.133.53-.236.91-.307 1.134l-.008.03-.005.021-.003.01-.006.021-.01.04-.003.01-.006.022-.005.018-.002.009-.004.015-.05.182c-.523 2.053-1.243 4.235-2.14 6.488a3.184 3.184 0 0 0-.061.15l-.005.01-.005.015-.005.01-.004.011-.003.008-.004.01-.003.008-.004.01-.004.012a9.278 9.278 0 0 1-.362.886l-.014.03-.007.017-.003.006a52.611 52.611 0 0 1-3.056 6.146 56.045 56.045 0 0 1-3.395 5.267.367.367 0 0 0-.065.09c-.226.303-.485.648-.792 1.055a65.415 65.415 0 0 1-4.667 5.325 61.804 61.804 0 0 1-5.579 4.938 58.996 58.996 0 0 1-5.924 3.98 51.966 51.966 0 0 1-6.671 3.363 53.051 53.051 0 0 1-6.909 2.395c-2.308.657-4.816 1.182-7.456 1.562a61.795 61.795 0 0 1-7.683.503h-.09a58.122 58.122 0 0 1-7.413-.507 69.922 69.922 0 0 1-4.793-.864 54.354 54.354 0 0 1-5.446-1.536 47.162 47.162 0 0 1-4.16-1.565 38.392 38.392 0 0 1-3.1-1.425 52.22 52.22 0 0 1-4.748-2.653 56.34 56.34 0 0 1-4.742-3.243A59.297 59.297 0 0 1 12.745 92.23a57.141 57.141 0 0 1-3.289-4.77 39.32 39.32 0 0 1-1.537-2.623 80.952 80.952 0 0 1-.16-.292c-.14-.23-.295-.523-.462-.868a47.742 47.742 0 0 1-1.983-4.221 26.727 26.727 0 0 1-.647-1.596 7.659 7.659 0 0 1-.32-.833l-.155-.419c-.05-.13-.1-.258-.155-.39l-.39-1.08c-.122-.31-.26-.733-.398-1.224l-.003-.008-.003-.01-.005-.017-.002-.008-.005-.014a40.217 40.217 0 0 1-.744-2.607.234.234 0 0 0-.044-.047 78.009 78.009 0 0 1-.747-3.533l-.009-.044-.018-.114-.045-.262-.032-.185-.022-.131-.018-.091-.004-.022-.01-.065-.035-.195-.022-.112-.003-.035.002-.015-.013-.028-.001-.029-.019-.08-.008-.097-.008-.052c-.022-.13-.042-.262-.061-.392l-.001-.008-.006-.037-.013-.08-.006-.045-.016-.077-.007-.072-.015-.078-.016-.124-.02-.106.002-.015-.018-.08-.005-.079-.004-.02-.012-.05-.002-.052-.009-.046-.015-.067.003-.012-.005-.031-.01-.059-.012-.05.003-.033-.013-.069-.011-.043c-.057-.487-.12-1.035-.185-1.628L.97 62.7l-.002-.029-.003-.03-.004-.043-.005-.065-.007-.074-.008-.096-.002-.023a177.46 177.46 0 0 1-.114-1.318 90.886 90.886 0 0 1-.087-1.627 68.967 68.967 0 0 1-.024-.804v-.015l-.003-.071-.006-.205v-.014l-.002-.008-.001-.079-.002-.08.006-.02-.016-.045a242.45 242.45 0 0 1-.01-1.89c.006-.549.042-1.374.075-2.104.08-1.221.179-2.317.304-3.349l.004-.027.003-.014.002-.018.005-.024.003-.015.003-.012.001-.015.002-.008.003-.014c.03-.177.044-.257.082-.404.012-.009.016-.02.02-.059l.004-.018.005-.019.006-.022.004-.017.017-.063.006-.022.002-.01.004-.011.002-.009.002-.007.008-.025a.325.325 0 0 0 .072-.104c.028-.11.047-.21.058-.304l.014-.056.021-.083a.406.406 0 0 0 .012-.074l.003-.018.003-.013.004-.013.005-.02c.036-.176.044-.216.072-.282a.325.325 0 0 0 .01-.083l.001-.02.003-.025.003-.014.052-.261.01-.042.006-.023.022-.125.055-.29.005-.035.031-.154.045-.22.034-.182.02-.1.042-.216.048-.252a63.924 63.924 0 0 1 .638-2.641l.016-.062.006-.025.02-.081.003-.01.048-.193.008-.032.004-.02.004-.015.014-.055.007-.03.008-.031.006-.022.005-.02.004-.02.006-.023.005-.02.073-.293.021-.086a9.83 9.83 0 0 1 .241-.836l.01-.036.009-.03.003-.007.005-.02.004-.013.01-.032.03-.11c.19-.717.416-1.443.71-2.286a44.802 44.802 0 0 1 1.522-4.048A52.972 52.972 0 0 1 8.65 29.17c1.137-1.98 2.514-4.033 4.093-6.104a67.361 67.361 0 0 1 4.61-5.245 60.991 60.991 0 0 1 5.508-4.876 58.25 58.25 0 0 1 4.435-3.079 19.84 19.84 0 0 1 1.342-.823l.093-.056.013-.008.06-.036.054-.032.069-.041.037-.023.008-.004.028-.018.054-.033.01-.007.054-.032.043-.027.02-.013.007-.004.02-.013.025-.015.02-.013.021-.013.031-.02.013-.007.04-.026.014-.01.015-.009.015-.01.02-.012c.044-.029.095-.061.131-.087.116-.085.215-.14.295-.165l.47-.27.023-.012a.435.435 0 0 0 .1-.072c.157-.107.374-.227.665-.366a.798.798 0 0 0 .071-.048l.314-.168a.858.858 0 0 0 .074-.05c.477-.27 1.015-.544 1.692-.86.534-.273 1.108-.54 1.807-.84a.429.429 0 0 0 .054-.033c.187-.097.393-.187.666-.29a47.176 47.176 0 0 1 3.786-1.44c.617-.219 1.322-.44 2.095-.657.8-.246 1.54-.451 2.401-.667l.038-.007.028-.006.049-.01.052-.01.058-.012.007-.001.036-.008.041-.008.07-.015.077-.015.114-.023.035-.008.085-.017.045-.01.04-.007.139-.028.054-.011.136-.028.13-.026.02-.004c.465-.095.808-.163 1.146-.23l.188-.031.076-.014.08-.015.031-.005.018-.004.035-.006.014-.003.013-.002c.175-.032.35-.064.526-.094.151-.025.308-.05.446-.07l.094-.016.02-.003.03-.005.035-.006a.41.41 0 0 0 .041.002c.059 0 .1-.005.127-.016l.214-.032.352-.052c.574-.068 1.288-.151 2.183-.253a1.849 1.849 0 0 0 .407-.029.453.453 0 0 0 .084.003l.39-.035h.029c.008 0 .017 0 .028-.002ZM57.466.09h-.009c-.135 0-.27 0-.404.002h-.059l-.411.005h-.059l-.448.01h-.022l-.41.012c-.011 0-.023 0-.034.002a59.16 59.16 0 0 0-3.262.2c-.01 0-.019.002-.028.003l-.39.037-.122.017-.323.036a.78.78 0 0 0-.152.024l-.011.002a.526.526 0 0 0-.033.01 10.57 10.57 0 0 0-.393.052.56.56 0 0 0-.039.012c-.96.123-1.918.278-2.872.447a.526.526 0 0 0-.06.021c-.567.104-1.134.207-1.696.331-.784.173-1.567.348-2.342.553-.8.212-1.599.418-2.393.647-.703.203-1.403.42-2.099.65a.283.283 0 0 0-.043.01 63.284 63.284 0 0 0-4.547 1.7.461.461 0 0 0-.15.056c-.612.26-1.22.53-1.825.808a63.47 63.47 0 0 0-1.683.813.679.679 0 0 0-.114.046l-.292.15a.54.54 0 0 0-.105.045l-.66.345a.646.646 0 0 0-.128.053c-.26.138-.514.288-.78.413l-.39.206c-.194.103-.382.22-.57.332a52.295 52.295 0 0 0-1.558.96 59.292 59.292 0 0 0-8.04 6.191 57.294 57.294 0 0 0-3.698 3.727 58.91 58.91 0 0 0-3.435 4.169 57.006 57.006 0 0 0-5.314 8.558 57.24 57.24 0 0 0-3.822 9.677c-.127.432-.246.865-.361 1.3-.11.418-.22.837-.316 1.259a.548.548 0 0 0-.016.089 45.818 45.818 0 0 0-.852 4.626l-.004.034a.293.293 0 0 0 .005.099l-.027.201a.642.642 0 0 0-.012.091c0 .009-.002.017-.003.026h.002a.45.45 0 0 0 .01.098l-.019.15a1.32 1.32 0 0 0-.02.32c.001.06.015.117.04.168l-.012.107a.343.343 0 0 0-.005.05l-.002.015h.002c0 .04.007.08.021.117a89.706 89.706 0 0 0-.325 3.213 68.057 68.057 0 0 0-.207 4.472c-.002.142-.01.28-.013.422-.002.372.005.745.012 1.117.016.729.05 1.456.087 2.184.037.755.104 1.507.174 2.259.067.724.151 1.447.247 2.168l-.003-.024.009.065-.006-.041.01.073-.002-.016.003.026c.102.76.223 1.515.365 2.268.19 1.013.411 2.02.65 3.022a.454.454 0 0 0 .015.082c.277 1.167.589 2.326.94 3.473.087.288.17.577.257.865.067.225.141.448.214.671.03.132.07.26.119.386a52.762 52.762 0 0 0 .45 1.26c.393 1.07.84 2.12 1.306 3.161.426.952.884 1.89 1.363 2.817l.012.024.048.093.05.097a65.682 65.682 0 0 0 .48.896l.037.068.008.014.15.272.012.02a60.02 60.02 0 0 0 1.39 2.364c0 .002.002.004.003.005l.034.055c.005.01.011.018.017.027a59.73 59.73 0 0 0 4.797 6.602 56.818 56.818 0 0 0 5.462 5.668 54.56 54.56 0 0 0 3.018 2.535 66.812 66.812 0 0 0 3.239 2.395 55.724 55.724 0 0 0 6.677 3.932l.013.006.065.032.133.067.031.014a59.134 59.134 0 0 0 7.276 2.995l.02.007c.034.01.067.022.1.033l.01.003a56.5 56.5 0 0 0 9.673 2.281 58.47 58.47 0 0 0 9.785.593 58.06 58.06 0 0 0 10.064-1.13 56.632 56.632 0 0 0 10.028-3.014 57.869 57.869 0 0 0 7.299-3.562 58.188 58.188 0 0 0 6.637-4.496 57.243 57.243 0 0 0 5.962-5.369 58.087 58.087 0 0 0 5.008-5.941.627.627 0 0 0 .07-.094.846.846 0 0 1 .017-.024l.008-.012a58.926 58.926 0 0 0 3.447-5.305 56.395 56.395 0 0 0 3.047-6.15.724.724 0 0 0 .052-.125 57.282 57.282 0 0 0 1.275-3.323c.42-1.207.793-2.43 1.13-3.662.533-1.943.921-3.922 1.26-5.908a.29.29 0 0 0 .014-.054c.046-.278.09-.556.133-.834a.33.33 0 0 0 .019-.067l.063-.427a.466.466 0 0 0 .007-.025v-.001a.549.549 0 0 0 .02-.138 53.121 53.121 0 0 0 .296-2.75c.03-.358.063-.719.06-1.078l.007-.155c.005-.12.011-.238.019-.357l.03-.611a61.89 61.89 0 0 0 .038-3.637.477.477 0 0 0-.005-.053 89.88 89.88 0 0 0-.01-.652c-.013-.57-.03-1.142-.053-1.713-.02-.496-.052-.991-.085-1.486a.328.328 0 0 0 .002-.06 49.686 49.686 0 0 0-.214-2.184 55.555 55.555 0 0 0-.325-2.206 59.158 59.158 0 0 0-.367-2.002 69.829 69.829 0 0 0-.296-1.422l-.145-.664c-.035-.162-.075-.323-.11-.485a.392.392 0 0 0-.016-.183 38.9 38.9 0 0 0-.578-2.294 44.325 44.325 0 0 0-.596-1.968.372.372 0 0 0-.017-.07 43.34 43.34 0 0 0-.88-2.528 57.642 57.642 0 0 0-3.221-6.942 56.89 56.89 0 0 0-2.524-4.17 59.17 59.17 0 0 0-2.766-3.811 57.446 57.446 0 0 0-7.072-7.492 57.966 57.966 0 0 0-8.41-6.188 58.839 58.839 0 0 0-3.64-2.02c-.068-.042-.14-.073-.218-.113a50.795 50.795 0 0 0-1.79-.871c-.778-.364-1.57-.7-2.365-1.027a56.118 56.118 0 0 0-4.39-1.59l-.026-.008-.078-.025-.136-.042a58.984 58.984 0 0 0-4.105-1.11l-.025-.006a44.012 44.012 0 0 0-.434-.099l-.007-.001a70.264 70.264 0 0 0-.367-.08A59.202 59.202 0 0 0 61.685.245h-.011a67.207 67.207 0 0 0-.258-.018 65.26 65.26 0 0 0-.668-.041h-.003l-.054-.004h-.016a64.684 64.684 0 0 0-.363-.019 59.047 59.047 0 0 0-.492-.021h-.025A40.572 40.572 0 0 0 58.352.11l-.297-.007c-.195-.005-.389-.014-.583-.014h-.005Z"/>
        <path fill="#DA3ACB" d="M58.297 1.096c-.134 0-.266 0-.4.002l-.076.002c-.121.002-.238.004-.354.004a87.14 87.14 0 0 0-1.031.009l-.446.01c-.928.038-2.155.107-3.647.205h-.011l-.389.035-.017.001a.278.278 0 0 1-.028.002h-.027a224.595 224.595 0 0 1-.415.036.44.44 0 0 1-.058-.004 1.85 1.85 0 0 1-.408.029c-.895.102-1.609.185-2.183.253l-.352.052-.214.032a.36.36 0 0 1-.126.016c-.014 0-.028 0-.042-.002l-.035.007-.03.004-.02.003-.094.015-.446.071c-.176.03-.351.062-.526.094l-.014.002-.013.003-.035.006-.018.004-.03.005-.081.015-.076.014-.188.032c-.339.066-.68.135-1.145.23l-.02.003-.131.026-.136.027-.054.012-.14.028-.039.008-.045.01-.085.016-.035.008-.114.023-.077.015-.07.015-.04.008-.037.008-.007.001-.058.012-.052.01-.049.01-.028.006-.038.008c-.86.215-1.601.42-2.401.666a33.442 33.442 0 0 0-2.108.662 47.259 47.259 0 0 0-3.773 1.434 6.26 6.26 0 0 0-.666.29.44.44 0 0 1-.054.034c-.699.3-1.273.567-1.807.84a24.18 24.18 0 0 0-1.692.86.847.847 0 0 1-.075.05c-.104.056-.209.111-.313.168a.793.793 0 0 1-.071.048c-.29.139-.508.259-.666.366a.437.437 0 0 1-.1.072l-.022.013c-.158.089-.315.178-.47.27-.08.024-.18.08-.295.164a3.098 3.098 0 0 1-.132.087l-.019.012-.015.01-.015.01-.015.01-.04.025-.012.007-.03.02-.022.013-.02.013-.025.015-.02.012-.007.005-.02.013-.043.026-.054.033-.01.007-.054.033-.028.018-.008.004-.037.023-.07.04-.053.033-.06.036-.013.008-.093.056c-.487.274-.939.552-1.342.823a58.057 58.057 0 0 0-4.435 3.079 60.993 60.993 0 0 0-5.508 4.876 67.391 67.391 0 0 0-4.61 5.245c-1.579 2.071-2.956 4.125-4.093 6.104a53.014 53.014 0 0 0-3.312 6.602 44.904 44.904 0 0 0-1.521 4.048 30.82 30.82 0 0 0-.71 2.286l-.032.11-.01.032-.003.013-.006.02-.002.008-.009.03-.01.035c-.05.138-.14.43-.24.836l-.022.086-.073.294-.005.019-.006.023-.004.02-.006.02-.005.022-.008.032-.007.029-.014.055-.004.015-.005.02-.007.032-.048.193-.003.01-.02.082-.006.024-.017.062A64.34 64.34 0 0 0 1.9 46.87l-.048.251-.041.217-.021.099-.034.181-.044.221-.032.154-.005.035a91.48 91.48 0 0 0-.055.29l-.022.125-.006.023-.01.042-.052.261-.003.014-.003.024v.02c0 .03-.004.053-.011.084a1.371 1.371 0 0 0-.072.282l-.005.02-.003.013-.004.013-.003.018a.428.428 0 0 1-.012.074l-.02.083-.015.056c-.011.094-.03.193-.057.304a.325.325 0 0 1-.073.104l-.008.025-.002.007-.003.009-.003.011-.002.01-.006.022-.017.063-.004.017-.006.022-.005.02-.005.017c-.003.039-.007.05-.019.059a4.131 4.131 0 0 0-.082.403l-.003.015-.001.008-.002.014-.003.013-.003.015-.005.023-.003.018-.002.015-.004.027a59.067 59.067 0 0 0-.303 3.349 72.4 72.4 0 0 0-.076 2.105c0 .423.003 1.005.01 1.889l.016.044-.006.02.002.081.002.079v.022l.007.205.002.071v.015c.006.22.014.51.025.804.022.508.052 1.055.087 1.627.032.395.063.741.114 1.318l.002.023.008.096.007.074.005.065.004.043.003.03.002.03.006.059c.066.593.128 1.141.185 1.628l.01.043.014.07-.003.031.012.051.01.059.005.03-.003.013.015.067.01.046v.052l.013.05.004.02.005.08.018.08-.003.014.021.107.016.123.015.078.007.072.016.077.007.045.012.08.006.037v.008c.02.13.04.263.062.392l.008.052.008.097.019.08.002.03.012.027-.002.015.003.035.022.112.035.195.01.065.004.022.018.091.022.131.032.185.045.262.018.114.01.044c.218 1.172.47 2.36.745 3.533a.235.235 0 0 1 .045.047c.233.927.483 1.804.744 2.607l.004.014.003.008.005.017.003.01.003.008c.138.49.276.914.399 1.223.128.36.258.721.39 1.08a20.17 20.17 0 0 1 .309.81c.084.26.167.491.32.833.211.57.422 1.091.647 1.596a47.846 47.846 0 0 0 1.983 4.221c.166.345.322.638.462.868l.16.292a39.408 39.408 0 0 0 1.537 2.624 57.15 57.15 0 0 0 3.288 4.769 59.289 59.289 0 0 0 10.143 10.168 56.31 56.31 0 0 0 4.742 3.243 52.298 52.298 0 0 0 4.748 2.653 38.542 38.542 0 0 0 3.1 1.425 47.195 47.195 0 0 0 4.16 1.565c1.778.603 3.61 1.12 5.446 1.536 1.624.35 3.236.64 4.793.864 2.535.332 5.03.502 7.413.507h.09c2.45 0 5.036-.17 7.683-.503 2.64-.38 5.148-.905 7.456-1.562a53.086 53.086 0 0 0 6.909-2.395 52 52 0 0 0 6.672-3.363 58.997 58.997 0 0 0 5.923-3.98 61.755 61.755 0 0 0 5.58-4.938 65.422 65.422 0 0 0 4.667-5.326c.306-.406.565-.75.791-1.055a.367.367 0 0 1 .065-.089 56.012 56.012 0 0 0 3.395-5.267 52.648 52.648 0 0 0 3.056-6.146l.003-.006.007-.016.014-.031c.125-.268.234-.534.334-.814l.028-.072.004-.012.004-.01.003-.007.004-.011.003-.008.004-.01.005-.011.005-.014.005-.012c.015-.038.04-.102.062-.15.896-2.251 1.616-4.434 2.14-6.487l.049-.182.004-.016.002-.009.005-.018.006-.021.003-.01.01-.04.006-.02.003-.011.005-.021.008-.03c.07-.223.174-.605.307-1.134l.005-.022.005-.018.005-.02.01-.043.01-.037c.052-.219.1-.428.144-.619l.006-.024.007-.03.013-.056.006-.026.019-.079.016-.071.02-.089.01-.043.017-.073.019-.083.018-.08.016-.07.005-.02.016-.074c.16-.875.27-1.483.347-1.915l.013-.078.009-.063.003-.025.011-.08.006-.037.004-.028.013-.078.013-.09.014-.09.006-.04.025-.164.015-.093v-.043l.009-.065.01-.075.04-.286v-.028l.01-.075.008-.066.015-.109.003-.019.009-.07v-.072l.031-.175.015-.105.026-.197.002-.015.001-.012c.083-.697.132-1.125.177-1.525.014-.132.026-.263.038-.395l.006-.065v-.012l.001-.007.002-.01v-.017l.002-.012v-.013a6.62 6.62 0 0 1 .095-.883c.048-.732.096-1.523.146-2.419a147.094 147.094 0 0 0 .039-2.352 52.314 52.314 0 0 0-.014-.666 99.717 99.717 0 0 0-.192-3.152.339.339 0 0 1-.015-.107 142.696 142.696 0 0 0-.384-3.478l-.014-.086-.086-.588-.013-.082-.002-.022-.03-.192-.008-.04-.009-.063-.01-.06-.008-.047-.009-.058-.016-.099-.007-.04-.003-.03-.007-.038-.006-.033-.01-.068-.012-.07v-.008a.878.878 0 0 1-.045-.285c-.158-.824-.25-1.302-.342-1.766l-.003-.018-.005-.024-.034-.046.007-.001.005-.055-.03-.053-.01-.015-.008-.022.014-.037-.03-.046.01-.03v-.028l-.026-.036.007-.011v-.024l-.025-.035.01-.023-.02-.03a6.003 6.003 0 0 0-.154-.596l.01-.075-.016-.079-.043-.059a1.136 1.136 0 0 0-.082-.303 3.078 3.078 0 0 1-.06-.134 33.236 33.236 0 0 0-.651-2.273 35.058 35.058 0 0 0-.63-1.955.713.713 0 0 1-.029-.072 61.217 61.217 0 0 0-1.527-3.985 52.125 52.125 0 0 0-3.394-6.745 58.373 58.373 0 0 0-3.928-5.86 61.117 61.117 0 0 0-4.824-5.477 61.636 61.636 0 0 0-5.395-4.76c-2.91-2.224-5.924-4.128-8.96-5.66a8.84 8.84 0 0 1-.234-.116l-.03-.015a37.393 37.393 0 0 0-.398-.195l-.136-.066-.015-.008a7.726 7.726 0 0 0-.847-.405 32.825 32.825 0 0 0-2-.894 50.855 50.855 0 0 0-4.985-1.828 63.217 63.217 0 0 0-4.494-1.25l-.047-.011-.17-.038-.174-.039a81.907 81.907 0 0 0-4.469-.784 130.002 130.002 0 0 0-3.636-.371h-.008c-.334-.023-.69-.044-1.089-.067h-.019a74.978 74.978 0 0 0-.528-.026l-.036-.002-.278-.01a.746.746 0 0 1-.038-.003h-.008l-.112-.004-.215-.007a16.322 16.322 0 0 1-.815-.024"/>
        <path fill="#FFAFBE" d="M58.979 2.869a.603.603 0 0 0-.593.507l-.917 5.469-4.6 27.422L39.53 19.48l-7.356-9.258a.603.603 0 0 0-1.04.593l10.512 27.803 1.285 3.397-15.116-5.948-15.818-6.224a.603.603 0 0 0-.737.26.602.602 0 0 0 .133.768l13.535 11.105L37.28 52.11c-9.842 1.458-19.685 2.918-29.528 4.378l-4.014.595a.605.605 0 0 0 0 1.209l33.555 4.999-24.401 19.86-1.5 1.22a.603.603 0 0 0 .605 1.028L42.92 72.975 36.937 88.94l-5.803 15.488a.607.607 0 0 0 .541.872.603.603 0 0 0 .511-.28l10.689-13.195 10.067-12.427 2.823 17.158 2.621 15.926c.067.27.309.46.588.46h.053c.3-.004.55-.223.592-.52l4.64-31.968.19-1.31 21.093 25.743a.603.603 0 0 0 1.027-.592l-11.136-29.3-.769-2.021L86.201 77.6l19.542 7.834a.601.601 0 0 0 .736-.258.601.601 0 0 0-.132-.77l-3.937-3.224L80.64 63.35l33.133-4.116a.605.605 0 0 0 0-1.209l-28.51-5.09-4.623-.826L92.9 41.977l13.436-11.106a.604.604 0 0 0-.605-1.027l-30.934 12.17 10.96-29.307.753-2.013a.603.603 0 0 0-1.04-.592L74.875 23.519l-9.932 12.579-2.871-17.492-2.501-15.23a.603.603 0 0 0-.592-.507"/>
    </g>
</svg>
