<svg xmlns="http://www.w3.org/2000/svg" width="116" height="117" viewBox="0 0 116 117">
  <g fill="none" fill-rule="evenodd" transform="translate(.078 .019)">
    <path fill="#FFF" d="M51.8479993,1.34508295 L51.86548,1.34363826 L52.2540286,1.30983259 L52.2652971,1.30867684 C53.757153,1.21108824 54.9839811,1.14217668 55.9123369,1.1035313 C56.0607063,1.09984735 56.2088589,1.09674127 56.3575894,1.09392413 C56.5003245,1.09139593 56.6442153,1.08944561 56.788684,1.08771198 C56.9884842,1.08605059 57.1879232,1.08489484 57.3888792,1.08467814 C57.5053932,1.08467814 57.6219072,1.08294451 57.742683,1.08070525 L57.8186013,1.07926056 C57.952596,1.07644342 58.0855072,1.07644342 58.2187073,1.07644342 C58.2644316,1.07759917 58.3106616,1.07846598 58.3634649,1.07926056 C58.3812346,1.08157206 58.3990042,1.08265558 58.4173518,1.08323345 C58.6103619,1.08771198 58.8033721,1.09284062 58.996599,1.09818596 C59.0082287,1.09934171 59.0202918,1.09984735 59.033294,1.10042523 L59.2480467,1.10779313 L59.3595043,1.11147708 L59.3679557,1.11176602 C59.3800911,1.11284953 59.3928043,1.11342741 59.4063122,1.11400528 L59.683692,1.1249849 L59.7203871,1.12671853 C59.7274661,1.12722417 59.7347617,1.12780204 59.7421296,1.12780204 C59.9105801,1.13545888 60.0793195,1.14333243 60.248059,1.15207278 L60.2575939,1.15265066 L60.2672011,1.15322853 C60.6662236,1.17576565 61.0222667,1.19721925 61.3558449,1.21896178 L61.3642963,1.21953966 C62.5843344,1.32702436 63.8075508,1.45177308 64.9999953,1.59053525 C66.4432375,1.80160401 67.9469399,2.06547607 69.4694954,2.37528917 L69.6421355,2.41393454 L69.8128974,2.45171311 L69.8602832,2.46247602 C71.4934295,2.85745342 73.0055832,3.27850741 74.3543429,3.71328593 C75.9299184,4.19270527 77.6068387,4.80785295 79.3385127,5.54146495 C80.0870772,5.84925549 80.741737,6.14158788 81.3393318,6.43536496 C81.6167117,6.54682256 81.8938026,6.67915588 82.1864239,6.84023846 L82.2010875,6.84760637 L82.3373215,6.91362856 C82.4702327,6.97791712 82.6022771,7.04314474 82.7341047,7.10887799 L82.7645154,7.12440837 C82.8624652,7.17403337 82.9482073,7.21636269 82.9998549,7.2403445 C86.035431,8.7717126 89.0494812,10.6760266 91.9586472,12.9009167 C93.8798641,14.4090253 95.6950409,16.0103162 97.3536137,17.6598597 C99.0082136,19.3181436 100.631247,21.1606972 102.178073,23.1361621 C103.627889,25.0441601 104.949488,27.015941 106.106466,28.9975457 C107.357565,31.0773892 108.499229,33.3463422 109.500324,35.741633 C110.046922,37.029138 110.532264,38.2954783 111.027431,39.7269463 C111.036171,39.7517227 111.0452,39.7754155 111.05618,39.7986028 C111.276567,40.4176511 111.488502,41.0756337 111.685413,41.7536975 C111.952969,42.569151 112.139189,43.2519823 112.336389,44.0265512 C112.365427,44.0940181 112.38522,44.1380088 112.397066,44.1614127 C112.425815,44.2145049 112.452614,44.3138272 112.479196,44.4644358 L112.52232,44.5234512 L112.539007,44.6016088 L112.527955,44.6772382 C112.587837,44.8654086 112.639701,45.0663646 112.682608,45.2740383 L112.701245,45.3033654 L112.694383,45.3208462 L112.693877,45.3245301 L112.692649,45.3254692 L112.692504,45.3259026 L112.717859,45.3609362 L112.716775,45.3846291 L112.709696,45.3961866 L112.735917,45.4323038 L112.736495,45.4599695 L112.726599,45.4901635 L112.756287,45.5363934 L112.74343,45.5703436 L112.742996,45.5733774 L112.742491,45.5735219 L112.749208,45.59512 L112.759393,45.6097835 L112.789804,45.6633814 L112.785615,45.7178461 C112.785615,45.7179906 112.783881,45.7180628 112.782147,45.7182073 L112.778536,45.7190019 L112.778391,45.7190019 L112.812125,45.7652318 L112.816892,45.7892136 L112.820287,45.8067666 C112.911447,46.2708723 113.004557,46.7494248 113.162606,47.573402 C113.165134,47.6890491 113.179797,47.7821592 113.208041,47.8580775 L113.207174,47.8665289 L113.218443,47.936524 L113.229133,48.0044965 L113.23484,48.0375076 L113.242136,48.0756473 L113.245531,48.1055524 L113.252321,48.1453535 L113.268357,48.2443868 L113.277386,48.3018853 L113.285621,48.3490543 L113.295445,48.4088644 L113.304474,48.4720694 L113.311553,48.5124484 L113.342614,48.7043028 L113.343986,48.7260454 L113.356699,48.8081036 L113.443308,49.3964523 L113.456888,49.4816889 C113.603885,50.6828015 113.733112,51.8532869 113.840886,52.959917 C113.842042,53.0087474 113.84652,53.0414696 113.855839,53.0668238 C113.91536,53.7756595 113.980009,54.8362763 114.048271,56.2192029 C114.04856,56.2310493 114.049427,56.2428957 114.050582,56.2547422 C114.055639,56.4646552 114.059323,56.6749293 114.061851,56.8848423 C114.060695,56.8977723 114.060117,56.9107745 114.060406,56.9237767 C114.061851,57.2065019 114.048849,57.9630122 114.023495,59.2369371 C113.972642,60.1331486 113.924678,60.9242591 113.876714,61.6556319 C113.828173,61.9211653 113.796606,62.2186263 113.783026,62.5394191 L113.781943,62.5524212 L113.781076,62.5642677 L113.780498,62.5718523 L113.779704,62.580087 L113.778548,62.5907777 L113.77797,62.5981456 L113.776886,62.6097031 L113.770891,62.6751474 C113.758828,62.8069028 113.746693,62.9383693 113.733401,63.0696191 C113.688544,63.4703031 113.638847,63.8977859 113.556499,64.5944139 L113.554766,64.6065493 L113.552816,64.6215018 C113.544075,64.6870184 113.535624,64.7521737 113.5271,64.8187738 L113.512148,64.9243082 L113.481737,65.0989708 C113.481159,65.1043162 113.481159,65.1263476 113.481159,65.1700494 L113.471841,65.2408391 L113.469313,65.2603423 C113.464184,65.2964595 113.459417,65.3325767 113.454649,65.3689828 L113.44562,65.4352939 L113.435724,65.5097675 L113.435435,65.5377222 C113.422433,65.6333605 113.409214,65.7289988 113.395923,65.8244203 L113.385737,65.898605 L113.376997,65.9634715 C113.376997,65.9733676 113.376997,65.9829747 113.377286,65.992293 L113.376708,66.0069565 L113.362045,66.1000666 L113.337268,66.2634607 L113.331562,66.3043453 L113.316898,66.3943493 L113.303679,66.4843533 L113.290677,66.5622219 L113.286704,66.5901766 L113.281648,66.6262938 L113.270379,66.7066906 L113.266984,66.7321171 L113.257955,66.7953222 L113.245531,66.8729018 C113.168529,67.3049355 113.058155,67.9127152 112.898156,68.7879788 L112.881831,68.8621635 L112.876991,68.8816667 L112.861244,68.9521674 L112.843185,69.0317697 L112.82426,69.1146947 L112.807068,69.1877959 L112.797461,69.2315699 L112.777163,69.3201292 L112.760766,69.39128 L112.742418,69.4699432 L112.735917,69.4962365 L112.722987,69.5529405 L112.716197,69.5816898 L112.710274,69.6062494 C112.6665,69.7975982 112.618537,70.0060665 112.566094,70.2247921 L112.556487,70.2625707 L112.545797,70.305189 L112.540668,70.32462 L112.536189,70.3429675 L112.530555,70.364999 C112.397933,70.8943323 112.294927,71.2758018 112.223848,71.4992949 L112.216191,71.528622 L112.210557,71.5500756 L112.20774,71.5602607 L112.202394,71.5811364 L112.19192,71.6206486 L112.189103,71.6310503 L112.18318,71.6525039 L112.178413,71.6705625 L112.175812,71.6795918 L112.171623,71.6954111 L112.122503,71.8771528 C111.598804,73.9299084 110.8787,76.1123968 109.98285,78.3646637 C109.961396,78.4115438 109.935753,78.4758323 109.9208,78.5141888 L109.915961,78.5258185 L109.910615,78.5396153 L109.906354,78.5500893 L109.902164,78.5610689 L109.899347,78.5686535 L109.895085,78.5797053 L109.891979,78.587001 L109.888295,78.597475 L109.883528,78.6090325 C109.87392,78.6343867 109.864602,78.6589464 109.855573,78.6812668 C109.755962,78.960597 109.646527,79.2267084 109.521489,79.49477 L109.50827,79.5254696 L109.500902,79.5415779 L109.497507,79.5483679 C108.671363,81.545503 107.643107,83.6132112 106.441994,85.6939214 C105.482,87.3987964 104.339758,89.1707771 103.046619,90.9613943 C103.024299,90.9828479 103.002556,91.0127529 102.981969,91.0505315 C102.755948,91.3544214 102.496916,91.6992681 102.190498,92.1055863 C100.739888,93.9545688 99.1696573,95.7460528 97.5232199,97.4305577 C95.8301914,99.1295095 93.9529652,100.790899 91.9439836,102.369364 C90.0006631,103.848435 88.0077175,105.187587 86.0204785,106.34926 C83.9516146,107.592774 81.7067157,108.724253 79.3486255,109.71213 C77.0665258,110.681081 74.7420246,111.486639 72.4401328,112.106554 C70.1323177,112.763742 67.6238356,113.289391 64.984176,113.668911 C62.3369317,114.002417 59.7516646,114.171734 57.3008255,114.171734 L57.2108215,114.171734 C54.8270881,114.167544 52.3330529,113.997071 49.7983498,113.66501 C48.2413385,113.441806 46.628779,113.150846 45.0052399,112.800726 C43.1691873,112.38509 41.3367464,111.868397 39.5585536,111.264879 C38.1403767,110.806047 36.7405474,110.27982 35.3982888,109.700283 C34.360209,109.278435 33.3173618,108.798727 32.298713,108.274522 C30.5840142,107.424902 28.9866961,106.532374 27.5510385,105.622438 C25.9621719,104.653992 24.3668042,103.562603 22.8089261,102.37861 C19.0609749,99.4452458 15.6486967,96.0242995 12.6665018,92.2108318 C11.4503643,90.6193647 10.3440231,89.0150399 9.37817771,87.4416314 C8.84263228,86.6050132 8.32514543,85.7223818 7.84066969,84.8177911 C7.78728851,84.7207081 7.73397956,84.6234085 7.68095955,84.5260366 C7.54068045,84.2955368 7.38552108,84.0034933 7.21930986,83.6580687 C6.53503391,82.3804598 5.86773304,80.9603326 5.23568252,79.4369103 C5.01139489,78.9323534 4.80003719,78.410388 4.58925738,77.8406758 C4.43662621,77.4990073 4.35334001,77.2687242 4.26868136,77.0077415 C4.21652816,76.8683292 4.16459167,76.7287003 4.11352199,76.588999 C4.06382476,76.4591939 4.01333295,76.3314114 3.95915719,76.1982112 C3.82769068,75.8389898 3.69846344,75.4786849 3.56981408,75.11838 C3.44672675,74.8090726 3.30904809,74.3858515 3.17136943,73.8945858 L3.16768548,73.8870012 L3.16486834,73.8765272 L3.16010087,73.8602022 L3.15757267,73.8519675 L3.15331085,73.8381707 C2.89232816,73.0351415 2.64174722,72.1578554 2.40864699,71.2306554 C2.40077345,71.2190979 2.39795631,71.2154139 2.36465627,71.1844254 C2.08843214,70.0114119 1.83727333,68.8226513 1.61833103,67.6511547 L1.60930173,67.6065138 L1.59124315,67.4933949 L1.54609668,67.2309675 L1.51424134,67.0459031 L1.49192093,66.9149422 L1.47386234,66.8238547 L1.46988945,66.8018233 L1.46006558,66.7366679 L1.42474298,66.5419241 L1.40278374,66.4298886 L1.40018331,66.3952161 L1.40162799,66.3796857 L1.38949262,66.3523089 L1.38783123,66.3232707 L1.36919477,66.2430906 L1.36074336,66.1460799 L1.35250864,66.0938544 C1.33134398,65.9646272 1.31133506,65.8322939 1.29183179,65.7019109 L1.29074828,65.6937484 L1.285114,65.6573423 L1.27240075,65.5772344 L1.2661886,65.5320879 L1.25036928,65.454725 L1.24336255,65.3827796 L1.2283378,65.304622 L1.21201284,65.181318 L1.19142605,65.075278 L1.19395425,65.0602532 L1.17560673,64.9804343 L1.1711282,64.9014099 L1.16686638,64.8802452 L1.15473101,64.8311981 L1.15306962,64.7792616 L1.14404032,64.7326705 L1.12930452,64.6658537 L1.13161602,64.6537183 L1.12677631,64.6229465 L1.11695244,64.56422 L1.10503378,64.5134392 L1.10792315,64.4812949 L1.09463203,64.4124556 L1.08386911,64.3689705 C1.02687622,63.8819666 0.964537977,63.3339968 0.898515786,62.7408806 L0.893170445,62.6816485 L0.890642243,62.6520324 L0.888114041,62.6218384 L0.884430089,62.5789312 L0.87879581,62.5139926 L0.872294719,62.4400968 L0.863843301,62.3438807 L0.861820739,62.3207657 C0.810751058,61.7439745 0.780268164,61.3983331 0.748123881,61.0030668 C0.712584584,60.4308263 0.68325744,59.8836512 0.660937028,59.3763494 C0.649957407,59.0823556 0.642300567,58.7922624 0.636666288,58.5721644 L0.636088413,58.5572119 L0.633849148,58.4858444 L0.627636995,58.2809878 L0.62705912,58.2666131 L0.626481245,58.2586673 L0.624819855,58.1802208 L0.623158465,58.099824 L0.628792744,58.0795262 L0.61326236,58.0349576 C0.605894457,57.1511704 0.602499443,56.5688171 0.602499443,56.1458128 C0.609000534,55.5961816 0.645117706,54.771121 0.678417739,54.040904 C0.757442112,52.8196379 0.856764335,51.7242763 0.982307626,50.6924087 L0.985991577,50.6650319 L0.988519779,50.6506573 L0.991336919,50.6325987 L0.99617662,50.6091947 L0.999282697,50.5939533 L1.00152196,50.581529 L1.00347229,50.5665765 L1.00520591,50.5592086 L1.00773411,50.544545 C1.03850595,50.368221 1.05230271,50.2878241 1.09008127,50.141044 C1.10221664,50.1320147 1.10618953,50.1204572 1.10958454,50.0821007 L1.11435201,50.0640421 L1.11919171,50.0451167 L1.12482599,50.0231575 L1.12930452,50.0061824 L1.14627959,49.9432663 L1.15191387,49.9212348 L1.15444207,49.911411 L1.15754815,49.8998535 L1.15978741,49.8913298 L1.16180997,49.8840342 L1.16968351,49.8586077 C1.18889785,49.844522 1.21027922,49.814328 1.24249573,49.754518 C1.27016149,49.6444328 1.28901465,49.5453996 1.30035544,49.451206 L1.31444114,49.3950076 L1.33531687,49.3117937 C1.34152902,49.2860783 1.34550191,49.2604351 1.34658542,49.237898 L1.35026938,49.2195504 L1.35337545,49.2065482 L1.35677047,49.193835 L1.36153793,49.174115 C1.39765511,48.9977188 1.40639546,48.9579899 1.43377228,48.8916787 C1.44142912,48.860618 1.44395732,48.8388754 1.44424626,48.8086815 C1.4445352,48.8061533 1.44482413,48.8010969 1.44532977,48.7880947 L1.44793021,48.763535 L1.45103629,48.7503161 L1.50261161,48.4889723 L1.51337453,48.4466429 L1.5190088,48.4241058 L1.54132922,48.2993571 C1.5593878,48.2017685 1.57744639,48.1049745 1.59550497,48.0090473 L1.60113925,47.9737969 L1.63241672,47.8202989 L1.67676861,47.5993341 L1.71086322,47.4181703 L1.73173895,47.3188481 L1.77269582,47.1021451 L1.8212373,46.8504806 C2.08135318,45.6904693 2.28902692,44.8248129 2.43855201,44.2774211 C2.44729236,44.2514167 2.45379345,44.2296742 2.45863316,44.2087984 L2.47466918,44.1467491 L2.48088133,44.1224784 L2.50146812,44.0406369 L2.50406856,44.0305241 L2.55174323,43.8375139 L2.55961677,43.8064531 L2.56445647,43.7858663 L2.56806819,43.7706249 L2.58193718,43.7155823 L2.58872721,43.6868331 L2.59688969,43.6546888 L2.60252397,43.6326573 L2.60758037,43.6126484 L2.61155326,43.593434 L2.61776542,43.5697412 L2.62282182,43.5505268 L2.69563404,43.2571109 L2.71737658,43.1712965 C2.81893807,42.7652673 2.90836418,42.4729349 2.95835035,42.3346784 L2.96846316,42.2991391 L2.97698681,42.2698119 L2.97951501,42.2615772 L2.98486035,42.2418572 L2.98854431,42.2294329 L2.99807924,42.1967108 L3.02942894,42.0872035 C3.21962197,41.3704943 3.4453543,40.6439613 3.73992596,39.8005531 C4.16574742,38.4692741 4.67752775,37.1072956 5.26082008,35.7526127 C6.18260255,33.5319845 7.29688954,31.3110673 8.57254806,29.1513326 C9.70995005,27.1716782 11.0872423,25.1180558 12.665635,23.0472416 C14.0679925,21.2687598 15.6190806,19.504147 17.275703,17.8020892 C18.9554405,16.1172953 20.8086848,14.4764922 22.7835718,12.925693 C24.2908859,11.7778893 25.7832474,10.7420488 27.2194829,9.84699305 C27.6221171,9.57553638 28.0735818,9.29844544 28.5611636,9.02366599 L28.6539847,8.96804555 L28.666698,8.96046094 L28.726797,8.92434377 L28.7809727,8.89191055 L28.849812,8.85066474 L28.8873739,8.82812762 L28.8946696,8.82357686 L28.9226243,8.80638508 L28.9765111,8.77308505 L28.9874907,8.76629502 L29.0408719,8.73357286 L29.0839958,8.70677392 L29.1046548,8.69377174 L29.1110837,8.68958215 L29.1314537,8.6768689 L29.1559412,8.66162746 L29.1760223,8.64920315 L29.1974759,8.63569533 L29.2284645,8.61619205 L29.2405998,8.60860745 L29.280112,8.5834699 L29.2950645,8.57386273 L29.3097281,8.56425556 L29.3252585,8.55443169 L29.3441839,8.54200738 C29.3890414,8.51347482 29.4398222,8.4810416 29.4762283,8.45482053 C29.5916588,8.37045081 29.690692,8.31511931 29.770511,8.29027069 C29.9265372,8.19918318 30.0834302,8.10997377 30.2406121,8.02083659 L30.2635104,8.00783441 C30.297605,7.99035369 30.331194,7.96608295 30.3633383,7.93560006 C30.5208091,7.82869323 30.738379,7.70907316 31.0286888,7.56966087 C31.0495645,7.5575255 31.0730407,7.54170618 31.1001286,7.52169727 C31.2045072,7.46549895 31.3088858,7.40995074 31.4135534,7.35433029 C31.4381131,7.33966672 31.4626727,7.3236307 31.4883882,7.30441636 C31.965496,7.03382651 32.5032807,6.76041951 33.1804777,6.44381638 C33.7137839,6.17098726 34.2879747,5.90400913 34.987492,5.60380319 C35.0027335,5.59621858 35.0185528,5.58661142 35.0413789,5.5707921 C35.2281769,5.47370914 35.4336114,5.38428302 35.7073073,5.28019333 C36.8362579,4.78950543 38.1057042,4.30690777 39.4801071,3.84590819 C39.4843689,3.84453573 39.4888475,3.84280211 39.4933982,3.84056284 C40.1102073,3.62212619 40.8147811,3.40123356 41.5876163,3.18424159 C42.3881173,2.93842812 43.1288083,2.73277694 43.9891193,2.51744636 L44.0266812,2.51015069 L44.0551415,2.50422747 L44.1039719,2.49433137 L44.1559084,2.48364069 L44.2136959,2.47229989 L44.2213528,2.4706385 L44.2574699,2.4632706 L44.2983546,2.45510812 L44.3683496,2.44015561 L44.4448458,2.42462523 L44.5594095,2.40179917 L44.594082,2.39414233 L44.6787406,2.37695056 L44.724176,2.36792127 L44.7631103,2.35975879 L44.9025226,2.33180409 L44.9566984,2.32053554 L45.0929324,2.29344766 L45.2236043,2.26693765 L45.2436132,2.26296476 C45.70808,2.16841001 46.0506153,2.09985961 46.388672,2.03383742 L46.5771314,2.00198208 L46.6527608,1.98782415 L46.7334466,1.97316057 L46.7642184,1.9675263 L46.781988,1.96413128 L46.8172384,1.95763019 L46.8305295,1.95510199 L46.8438206,1.95257379 C47.0189889,1.92071844 47.1942294,1.88936873 47.3697589,1.85917478 C47.5213065,1.83410946 47.6781273,1.80954978 47.8163838,1.78809618 L47.9103607,1.77314367 L47.9304419,1.7700376 L47.9606358,1.76548683 L47.9953083,1.75876904 C48.0088884,1.76014149 48.0226851,1.76071937 48.0364819,1.76071937 C48.0949195,1.76071937 48.136093,1.75566296 48.1626031,1.74490005 L48.3773558,1.7130447 L48.7292093,1.66053033 C49.3031834,1.59255781 50.0170031,1.50984949 50.9120589,1.40771013 C50.9284561,1.40944375 50.9453589,1.41023833 50.9583611,1.41023833 C51.1552719,1.40402617 51.2664406,1.39449124 51.3195328,1.37896086 C51.3389639,1.38148906 51.3584672,1.38315045 51.3778982,1.38315045 C51.385555,1.38315045 51.3914782,1.38286151 51.4027468,1.381778 C51.531974,1.37050944 51.6614902,1.35887971 51.7938235,1.34703328 L51.8025639,1.3462387 C51.8084871,1.34674434 51.8144103,1.34674434 51.8203335,1.34674434 C51.8282793,1.34674434 51.8373086,1.3462387 51.8479993,1.34508295 L51.8479993,1.34508295 Z M57.3885902,0.0702912405 L57.3877234,0.0702912405 L57.3803555,0.0702912405 L57.3789831,0.0702912405 C57.2441215,0.0702912405 57.1094767,0.0702912405 56.9751931,0.071663693 C56.9689809,0.071663693 56.9630577,0.0719526304 56.9571345,0.0719526304 C56.9481052,0.0722415678 56.9393648,0.0722415678 56.9303355,0.0722415678 L56.9162498,0.0722415678 C56.7790768,0.0733973173 56.641976,0.0747697699 56.5048752,0.0770090345 C56.5003245,0.0770090345 56.4961349,0.0772979719 56.4918731,0.0772979719 C56.4814713,0.0775869093 56.4709973,0.0775869093 56.4605234,0.0778758467 L56.4458598,0.0778758467 C56.2969126,0.0804040487 56.1476042,0.0832211881 55.998368,0.0869051397 C55.9941062,0.0869051397 55.9902055,0.0871940771 55.9862327,0.0871940771 C55.9828376,0.0871940771 55.9794426,0.0874830145 55.9763366,0.0874830145 C55.8398136,0.0908780286 55.7032185,0.0945619802 55.5664066,0.0987515722 C55.5547769,0.0990405096 55.5432194,0.0999073217 55.5319509,0.100701899 C54.4428014,0.137396946 53.3556023,0.203708075 52.2698479,0.300502096 C52.2605296,0.301657846 52.2512114,0.303030298 52.2418932,0.304186048 C52.1117991,0.31603248 51.981994,0.32816785 51.8524778,0.341386735 C51.8115932,0.347093248 51.7709975,0.35243859 51.7303296,0.358072868 C51.6225559,0.369341426 51.5147823,0.381187859 51.4072253,0.394190041 C51.3542053,0.397585055 51.3034246,0.405169661 51.2548831,0.418171843 L51.2439035,0.419833233 C51.2325627,0.42293931 51.221872,0.426334324 51.2111813,0.430018275 C51.0796426,0.445259722 50.948754,0.462162559 50.818082,0.481954769 C50.8048631,0.485638721 50.7921499,0.489539375 50.7794366,0.494090139 C49.8180698,0.617394165 48.8612536,0.771758959 47.9072546,0.941292965 C47.8863789,0.947216181 47.8666589,0.954006209 47.8471557,0.96216869 C47.2803328,1.06575274 46.7125708,1.16926456 46.1505154,1.29343539 C45.3674951,1.46643665 44.5838969,1.64138823 43.8085335,1.8461726 C43.0097661,2.05753029 42.2103486,2.26354264 41.4163487,2.49295892 C40.7126417,2.69637083 40.0131243,2.91394068 39.3170019,3.14212897 C39.3023384,3.14472941 39.2879637,3.14870229 39.274167,3.15346976 C37.7355032,3.65968805 36.2222659,4.23135065 34.7273039,4.85379399 C34.6748618,4.86340116 34.6248756,4.88174868 34.5777788,4.9091255 C33.9652316,5.16902467 33.356585,5.43874771 32.7522003,5.71692217 C32.185883,5.97768816 31.6271503,6.25253984 31.0693567,6.52955855 C31.0307114,6.54118828 30.9928606,6.55693536 30.9553709,6.5761497 C30.8577101,6.62577469 30.7603382,6.67576086 30.6633275,6.72596373 C30.6272103,6.73701558 30.5918877,6.75167916 30.5580821,6.77053232 C30.3376951,6.88509599 30.1184638,7.00139329 29.8986547,7.1164626 C29.8545918,7.1288869 29.8114679,7.14665655 29.7697164,7.16897696 C29.5103951,7.30694456 29.2555524,7.45675859 28.9900911,7.58179624 C28.8597081,7.64976876 28.729903,7.71860809 28.6000979,7.78773636 C28.4062932,7.89074253 28.2183394,8.00812334 28.0293021,8.12015881 C27.5922121,8.3786133 27.1596729,8.6455192 26.7301674,8.91668693 C26.7256889,8.91921513 26.7211381,8.9221045 26.7169486,8.92492164 C26.6432695,8.97144056 26.5699517,9.01803171 26.4965616,9.06483957 C26.4883991,9.06989597 26.4802366,9.07531355 26.4722908,9.08094783 C23.619901,10.9102104 20.9305442,12.982397 18.4317415,15.2713589 C17.1405526,16.4536184 15.911124,17.7021891 14.733632,18.9976398 C13.5220453,20.3305801 12.3831987,21.7286759 11.2988889,23.1669339 C9.27459366,25.852029 7.50456328,28.7258724 5.98511385,31.7249701 C4.41567825,34.8228844 3.1454373,38.0719852 2.16348362,41.402133 C2.03620671,41.8335887 1.91745345,42.2672837 1.80202297,42.7023512 C1.69114325,43.1199379 1.58250279,43.5389694 1.48599771,43.960529 C1.47812417,43.9901451 1.47270659,44.0200501 1.46988945,44.0499551 C1.12027522,45.5522128 0.824620052,47.0671837 0.62821487,48.5970348 C0.623158465,48.6236171 0.619763451,48.6498382 0.618029827,48.6757703 C0.616657374,48.6873278 0.615212688,48.6986686 0.613840235,48.7102261 C0.609867346,48.7420814 0.612106611,48.7753814 0.619474514,48.8089704 C0.610445221,48.8761484 0.601415928,48.9429651 0.592386635,49.0101431 C0.586174481,49.0409149 0.581912655,49.0713978 0.580251265,49.1013028 C0.579095515,49.1100432 0.578012,49.1184946 0.576856251,49.1272349 L0.579384453,49.1272349 C0.578806578,49.160246 0.581623717,49.1927515 0.588124808,49.2248958 C0.582201592,49.2748097 0.576278376,49.3250848 0.57035516,49.3749987 C0.550346246,49.4808221 0.543845155,49.587151 0.550924121,49.694419 C0.551429761,49.754229 0.565298756,49.8115109 0.589569495,49.8631584 C0.585596606,49.8986977 0.581912655,49.934237 0.578012,49.9697763 C0.574905923,49.9867514 0.573172299,50.0033653 0.572594424,50.0203404 C0.572088784,50.0251078 0.571510909,50.0301642 0.571221972,50.0352929 L0.572594424,50.0352929 C0.572883362,50.0755996 0.580251265,50.1151118 0.594048025,50.1520958 C0.466554407,51.2209474 0.35820289,52.2920383 0.269282412,53.3645016 C0.15500768,54.744322 0.0960644546,56.1280431 0.066159436,57.5123421 C0.0666650764,57.6206936 0.0652926239,57.7287562 0.0621865471,57.8366021 C0.0599472824,57.9790482 0.0514958641,58.1165102 0.0491775658,58.2586673 C0.046656163,58.6311799 0.0537351288,59.0036201 0.0613197349,59.3763494 C0.076850119,60.104905 0.111811542,60.8323048 0.147712011,61.5602825 C0.184912698,62.3150592 0.252379576,63.0665131 0.321796781,63.8187615 C0.388613549,64.5433442 0.472983263,65.2656877 0.56919941,65.9869476 C0.568404832,65.9790018 0.567249083,65.9714172 0.566382271,65.9634715 L0.574905923,66.0278323 C0.572883362,66.0143244 0.571221972,66.0007444 0.56919941,65.9869476 C0.572594424,66.0114351 0.575700501,66.0359947 0.579095515,66.0602655 C0.578228703,66.0549201 0.577723063,66.0495748 0.576856251,66.0442294 C0.578012,66.0529698 0.579095515,66.0614212 0.580251265,66.0701616 C0.68210169,66.8297779 0.802877514,67.5851325 0.944818001,68.3381755 C1.13551667,69.3506121 1.35619259,70.35792 1.59550497,71.3598826 C1.59803318,71.3872594 1.60280064,71.4146362 1.61045748,71.4417241 C1.88747619,72.6093201 2.19873398,73.7675978 2.54950396,74.9154737 C2.63719645,75.2027497 2.71990478,75.4919761 2.80651376,75.7797577 C2.87426957,76.0046232 2.94845424,76.2278273 3.02097753,76.4513204 C3.05174936,76.5827869 3.09126154,76.7114363 3.13973079,76.8373407 C3.18827227,76.9781255 3.23710268,77.1183323 3.28679991,77.2586114 C3.38525533,77.5388084 3.48710575,77.8175608 3.58953405,78.0963131 C3.98313899,79.1666094 4.42983618,80.2176191 4.8959644,81.2580104 C5.3222915,82.2102757 5.77996831,83.1485276 6.25852084,84.0754387 C6.26249373,84.0833123 6.26646662,84.0914747 6.27065621,84.0994205 C6.28647553,84.1301924 6.30258379,84.160892 6.31861982,84.1916638 L6.36940056,84.2890357 C6.37279557,84.2955368 6.37619059,84.3017489 6.37987454,84.3078888 C6.47551281,84.4902083 6.57230683,84.6721666 6.66967873,84.8536193 C6.67386832,84.8623597 6.67841908,84.8711 6.68318655,84.8798404 C6.73541198,84.9769233 6.78814305,85.0737174 6.84094636,85.1705114 C6.84347456,85.1752788 6.8462917,85.1804075 6.84910884,85.185175 C6.86124421,85.2074954 6.87366852,85.2300325 6.88609282,85.2526418 C6.88862103,85.2574093 6.89114923,85.2624657 6.89396637,85.2673054 C6.9436636,85.3578873 6.99357753,85.4484691 7.0437804,85.5387621 C7.04775329,85.5457688 7.05172618,85.5528478 7.05620471,85.5598545 C7.5014572,86.3581162 7.96447935,87.1459762 8.44584902,87.92329 C8.44671583,87.9250236 8.44787158,87.926685 8.4489551,87.9284187 C8.46029589,87.9466939 8.47156445,87.9650415 8.48312194,87.983389 C8.48846729,87.9924183 8.49410156,88.0011586 8.49980808,88.0101879 C8.5034198,88.0161111 8.50710375,88.0220344 8.51107664,88.0279576 C9.95352426,90.3302106 11.5542373,92.5274349 13.296313,94.6123348 C14.98024,96.6275285 16.8131865,98.5174679 18.7593242,100.280203 C19.7330432,101.161967 20.7423737,102.005592 21.7773474,102.814834 C22.8352194,103.642206 23.9102109,104.447474 25.0160464,105.209619 C27.1444314,106.677132 29.3819625,107.983562 31.6934615,109.141551 C31.6977233,109.143862 31.7019851,109.145813 31.7061747,109.148052 C31.7279173,109.158815 31.7493709,109.169505 31.7711134,109.180268 C31.815393,109.202517 31.8599616,109.224548 31.9042413,109.24658 C31.9144263,109.251636 31.9249003,109.256692 31.9353021,109.261243 C34.2916586,110.419232 36.7214052,111.420906 39.210673,112.255862 C39.217463,112.258102 39.2241808,112.26063 39.2312598,112.262869 C39.2645598,112.273921 39.2975709,112.284901 39.3308709,112.29588 C39.334266,112.297036 39.337661,112.298192 39.3409837,112.298986 C40.9877101,112.841033 42.656179,113.309184 44.3443678,113.703366 C45.8872212,114.063671 47.4467607,114.350947 49.014246,114.580291 C52.2531617,115.054076 55.5266055,115.247375 58.7988213,115.173407 C62.1775105,115.096984 65.5499154,114.705907 68.863377,114.043084 C72.2914023,113.357147 75.6492158,112.334309 78.8912376,111.028962 C81.4056429,110.016598 83.8426852,108.821336 86.1900125,107.467231 C88.5077236,106.12974 90.7159998,104.613685 92.8271207,102.970932 C94.9399753,101.327312 96.9272866,99.5248481 98.7889823,97.6024032 C100.592891,95.7401296 102.258542,93.7466062 103.797134,91.6608395 C103.822849,91.6320902 103.845964,91.6007405 103.866551,91.5666459 C103.872185,91.5587001 103.87782,91.5511155 103.883815,91.5432419 C103.886632,91.5392691 103.889449,91.5350072 103.892267,91.5308176 C105.135997,89.8253648 106.28539,88.0553344 107.339217,86.2263608 C108.482326,84.2427335 109.49274,82.1834768 110.386062,80.0762565 C110.407515,80.0353718 110.424707,79.9936204 110.437709,79.9510021 C110.896759,78.8562184 111.323447,77.7492993 111.713368,76.6279333 C112.132399,75.4211142 112.506284,74.1981867 112.843474,72.9663022 C113.375914,71.0226927 113.764173,69.0439051 114.102736,67.0580385 C114.109237,67.0402688 114.114004,67.0222102 114.116894,67.0041517 C114.162546,66.7261939 114.206609,66.4482361 114.249732,66.1700617 C114.258473,66.1477413 114.264974,66.1254931 114.268658,66.1028837 C114.289823,65.9606543 114.310987,65.8184971 114.331574,65.6759788 C114.334391,65.6675273 114.336919,65.6590759 114.339231,65.6505523 L114.33952,65.6505523 L114.33952,65.6500466 C114.351655,65.6054058 114.357795,65.5594648 114.358373,65.5120068 C114.440503,64.9034324 114.512449,64.2936301 114.573415,63.6827443 C114.604186,63.3763262 114.630119,63.0696191 114.655256,62.7626232 C114.684583,62.4042686 114.718461,62.0433858 114.715066,61.6838755 C114.717305,61.6322279 114.719834,61.5809415 114.722362,61.5292218 C114.72749,61.4098906 114.733414,61.2905595 114.740709,61.1715173 C114.75205,60.9680331 114.761079,60.7643323 114.770109,60.5608481 C114.789829,60.1195685 114.800014,59.6782889 114.808754,59.2369371 C114.824284,58.4660521 114.821178,57.6946616 114.807887,56.9237767 C114.807598,56.9057181 114.806443,56.8882374 114.804203,56.8706844 C114.801097,56.6681393 114.797413,56.465522 114.792935,56.2629046 C114.79409,56.24853 114.794307,56.2338664 114.79409,56.2192029 C114.780799,55.6481181 114.763897,55.0767445 114.740998,54.5058765 C114.721278,54.0098432 114.689351,53.5148935 114.65634,53.020016 C114.658651,53.0000071 114.659157,52.979637 114.657784,52.959917 C114.602453,52.2302057 114.531085,51.5030948 114.443609,50.7764895 C114.354978,50.0386157 114.237597,49.3039201 114.119422,48.5702359 C114.011648,47.899829 113.881554,47.2339005 113.752038,46.5677554 C113.659722,46.092309 113.558161,45.6188128 113.456022,45.1456056 C113.408058,44.9241351 113.358939,44.7028813 113.311264,44.4816998 C113.276302,44.3199671 113.235635,44.1591734 113.200384,43.997224 C113.208836,43.9343079 113.204935,43.8699471 113.184565,43.8135321 C113.103301,43.4512046 113.02146,43.0889494 112.929794,42.7288612 C112.826499,42.3247823 112.718148,41.9218591 112.607268,41.5198027 C112.425021,40.8592196 112.223848,40.2037652 112.011046,39.5519947 C112.007362,39.527724 112.001727,39.5040311 111.993565,39.4814218 C111.726081,38.6295621 111.433171,37.7878876 111.113751,36.9543755 C110.830736,36.2159238 110.526847,35.4854178 110.21335,34.7593904 C109.514482,33.1414856 108.736229,31.5596257 107.892316,30.0127994 C107.113485,28.5858822 106.266465,27.1968158 105.36852,25.8421329 C104.500841,24.5328854 103.571691,23.2665451 102.603028,22.0309044 C100.480566,19.3240668 98.1019615,16.8218691 95.5308522,14.5388304 C92.9247816,12.2250921 90.0989018,10.1591176 87.1203186,8.35123648 C85.9335806,7.6311323 84.714626,6.96607069 83.480141,6.33178091 C83.413252,6.28865701 83.3415956,6.25817412 83.2628601,6.21808406 C83.066166,6.11731714 82.8683884,6.0185728 82.6708997,5.91982845 C82.2752722,5.72205081 81.8740104,5.53438599 81.4733265,5.3470101 C80.694568,4.98302124 79.9025184,4.64698707 79.1079406,4.31990995 C77.6678045,3.72737163 76.201664,3.20085549 74.7177539,2.73024874 C74.7093025,2.72714266 74.7005621,2.72432552 74.6921107,2.72150838 C74.6658174,2.71327367 74.6398853,2.70511119 74.6136642,2.6969487 L74.4782248,2.65461938 C74.4723016,2.65266905 74.4663784,2.65093543 74.4603829,2.64956297 C73.1111176,2.23248187 71.7482722,1.86401448 70.3730026,1.54488315 C70.3647678,1.54257165 70.3563164,1.54062132 70.3481539,1.53867099 C70.2056356,1.5056599 70.0631172,1.47344338 69.9203822,1.44187697 C69.9181429,1.4412991 69.9158314,1.44072122 69.9135921,1.44043228 C69.9110639,1.43985441 69.9088247,1.43934877 69.9065854,1.43877089 C69.7956334,1.41421122 69.6850427,1.39022942 69.5741629,1.36624761 C69.5626054,1.36371941 69.5513369,1.36148015 69.5399961,1.35945758 C66.9240293,0.80303643 64.2739679,0.424383997 61.6066425,0.226317424 L61.5956629,0.225450612 C61.5183722,0.219816333 61.4410092,0.214182054 61.3640074,0.208836713 C61.355267,0.208258838 61.3465266,0.207969901 61.338003,0.207969901 C61.1150878,0.193017392 60.8924616,0.179148397 60.6698353,0.166507387 L60.6673071,0.166507387 C60.6489596,0.165351638 60.6306121,0.164484826 60.6125535,0.16340131 C60.6072081,0.163112373 60.6021517,0.162823436 60.5968064,0.162534498 C60.4867212,0.156322345 60.3769973,0.150399128 60.2672011,0.14476485 C60.2562215,0.144186975 60.2454585,0.144186975 60.2344789,0.144475912 C60.0702903,0.136602369 59.9063183,0.129234466 59.7421296,0.122733375 C59.733606,0.122444437 59.7251546,0.1221555 59.7169921,0.122444437 C59.613408,0.118254845 59.5098962,0.114570894 59.4063122,0.111175879 C59.3933822,0.110598005 59.380669,0.110886942 59.3682447,0.111464817 C59.2564981,0.107491928 59.1447516,0.104096914 59.033294,0.100990837 C59.017258,0.100485196 59.0017276,0.100701899 58.9861972,0.101568712 C58.7965821,0.0968012449 58.6069669,0.0928283559 58.4173518,0.0900112165 C58.3956092,0.0894333418 58.3741556,0.0903001539 58.352991,0.0925394186 C58.3267699,0.0919615438 58.3002599,0.0916726064 58.2739666,0.0914559034 C58.1746444,0.0885665296 58.0756111,0.0860383276 57.9765778,0.0837990629 C57.7821952,0.0787426588 57.5880292,0.0702912405 57.3939356,0.0702912405 L57.3885902,0.0702912405 Z"/>
    <path fill="#DA3ACB" d="M58.2187651,1.07656622 L58.2186929,1.07656622 C58.0854927,1.07656622 57.9525815,1.07656622 57.8185868,1.07938336 L57.7426685,1.08082805 C57.6218927,1.08306731 57.5053787,1.0847287 57.3888647,1.0847287 C57.187981,1.08501764 56.9884697,1.08617339 56.7886695,1.08783478 C56.6442009,1.0895684 56.50031,1.09151873 56.3575027,1.09404693 C56.2088445,1.09686407 56.0606918,1.09997015 55.9122502,1.1036541 C54.9841112,1.14215501 53.7570663,1.21113881 52.2652827,1.30879964 L52.2539419,1.30988315 L51.8653933,1.34376106 L51.8479126,1.34520575 C51.8372219,1.34628926 51.8281926,1.34686714 51.8203191,1.34686714 C51.8144681,1.34686714 51.8085449,1.34686714 51.8026217,1.34628926 L51.7937369,1.34715608 C51.6614035,1.35900251 51.5318874,1.37056 51.4026601,1.3819008 C51.3913916,1.38298431 51.3854683,1.38327325 51.3778837,1.38327325 C51.3584527,1.38327325 51.3390217,1.38161186 51.3195906,1.37901142 C51.2664984,1.39454181 51.155113,1.40414897 50.9582744,1.41036113 C50.9453445,1.41036113 50.9284417,1.40949431 50.9121167,1.40783292 C50.0169165,1.50997229 49.3030244,1.59268061 48.7291226,1.66065313 L48.3772691,1.7131675 L48.1625164,1.74502284 C48.1361508,1.75564129 48.0949773,1.76084217 48.0365397,1.76084217 C48.0227429,1.76084217 48.0088739,1.76026429 47.9953661,1.7588196 L47.9604769,1.76560963 L47.930283,1.7701604 L47.910274,1.77326647 L47.8162972,1.78821898 C47.6780406,1.80960035 47.5211476,1.83416003 47.3696722,1.85929758 C47.1940705,1.88949153 47.0189022,1.92084124 46.8436617,1.95269658 L46.8303706,1.95522479 L46.8171517,1.95775299 L46.7818291,1.96425408 L46.7640595,1.96764909 L46.7333599,1.97328337 L46.6526019,1.98801918 L46.5769725,2.00210488 L46.3885853,2.03396022 C46.0504564,2.09998241 45.7082101,2.16860504 45.2437432,2.26308756 L45.2234454,2.26698822 L45.0928457,2.29328152 L44.9567562,2.3203694 L44.9025804,2.33192689 L44.7629514,2.35988158 L44.724306,2.36804406 L44.6785817,2.37707336 L44.594212,2.39433737 L44.5594673,2.40163303 L44.4449758,2.42474802 L44.3684797,2.44027841 L44.2982679,2.45523092 L44.257311,2.4633934 L44.2211938,2.4707613 L44.2138259,2.47242269 L44.1560385,2.48369125 L44.103813,2.49445417 L44.0549826,2.50435027 L44.026739,2.50998455 L43.9892494,2.51756916 C43.1287216,2.7328275 42.3880306,2.93833421 41.5876741,3.18407545 C40.8147666,3.40121189 40.1101206,3.62203228 39.493456,3.84039671 C39.488833,3.8427082 39.4843545,3.84436959 39.4801649,3.84574205 C38.1055453,4.3068861 36.8361712,4.78948376 35.7072206,5.28002719 C35.4336691,5.38418911 35.2283069,5.47383193 35.0412922,5.57069819 C35.0183939,5.58651751 35.0026468,5.59612468 34.9874776,5.60370929 C34.2880324,5.90391522 33.7138416,6.17082112 33.1804632,6.44372248 C32.503194,6.76047008 31.9654816,7.03387707 31.4882293,7.30432246 C31.4625861,7.32353679 31.4380264,7.33964505 31.4134667,7.35430862 C31.3087991,7.40985683 31.2044205,7.46540504 31.1000419,7.52160336 C31.0728818,7.54168451 31.0494778,7.5574316 31.0286021,7.56956697 C30.7383645,7.70890702 30.5207224,7.82859933 30.3632516,7.93557839 C30.3311073,7.96598905 30.2975183,7.99025979 30.2634237,8.0077405 L30.2405254,8.02074268 C30.0834157,8.1099521 29.9264505,8.19908928 29.7704965,8.29024902 C29.6906776,8.31509764 29.5915721,8.37050138 29.4760694,8.45479886 C29.4396633,8.48094769 29.3888825,8.51345315 29.3440972,8.54191348 L29.3251718,8.55433778 L29.3096414,8.56423389 L29.2949779,8.57384106 L29.2800253,8.58337599 L29.2405132,8.60851354 L29.2283778,8.61609815 L29.197317,8.63560142 L29.1759357,8.64910924 L29.1558545,8.66153355 L29.1312948,8.676775 L29.110997,8.68948824 L29.1044959,8.69375007 L29.0839091,8.70668002 L29.040713,8.73347896 L28.987404,8.76627335 L28.9764244,8.77299114 L28.9225376,8.80629118 L28.8945829,8.82355519 L28.887215,8.82803372 L28.8497254,8.85064307 L28.780886,8.89181664 L28.7267103,8.92424986 L28.6666113,8.96036703 L28.6538981,8.96802387 L28.5610769,9.02357209 C28.0735673,9.298496 27.6221027,9.57551471 27.2193962,9.84697138 C25.783233,10.7418827 24.2908714,11.7777232 22.7836296,12.9256714 C20.8086704,14.4765427 18.9554983,16.1172736 17.2756886,17.8021397 C15.6191384,19.5041253 14.0681225,21.2689548 12.6656927,23.0473644 C11.0872278,25.1181064 9.71008007,27.1717288 8.57253362,29.1512387 C7.29687509,31.3110456 6.18266033,33.532035 5.26066116,35.752591 C4.6775133,37.1072739 4.1658052,38.4692525 3.73976704,39.8006037 C3.44533985,40.6439396 3.21953529,41.3706171 3.02927003,42.0873263 L2.99799256,42.1967613 L2.98838539,42.2294835 L2.98470144,42.2419078 L2.9793561,42.2617 L2.9768279,42.2697903 L2.96837648,42.2991896 L2.95819143,42.3347289 C2.90834974,42.4729855 2.81892362,42.7653901 2.71721766,43.1713471 L2.69576406,43.2571615 L2.6226629,43.5505774 L2.6176065,43.5697917 L2.61168328,43.5934846 L2.6077104,43.6124822 L2.60236505,43.6327079 L2.59673078,43.6547393 L2.58885723,43.6868836 L2.58177827,43.7157051 L2.56798151,43.7707477 L2.56429755,43.7859169 L2.55945785,43.8065759 L2.55158431,43.8376367 L2.50412635,44.0305746 L2.50138144,44.0407597 L2.48079465,44.1225289 L2.4745825,44.1467997 L2.45847424,44.2089212 C2.45370677,44.229797 2.44720568,44.2515395 2.43846533,44.2773994 C2.2890847,44.8248635 2.0814832,45.6905921 1.82136732,46.8505312 L1.77275361,47.101979 L1.73186897,47.318682 L1.71070431,47.4180042 L1.67689863,47.5991679 L1.63254675,47.8201328 L1.60119704,47.9736308 L1.595635,48.0088811 C1.57757641,48.1048084 1.55951782,48.2016024 1.54145924,48.2992632 L1.51913883,48.4239397 L1.51321561,48.4467657 L1.50252493,48.4890951 L1.45116631,48.75015 L1.44777129,48.7635856 L1.44545979,48.7880008 C1.44488192,48.801003 1.44459298,48.8060594 1.44430405,48.8085876 C1.44408734,48.8388538 1.44134244,48.8605963 1.4339023,48.8917293 C1.40630878,48.9580404 1.39771289,48.9976971 1.36166796,49.1739489 L1.35661155,49.1938856 L1.35350547,49.2065988 L1.35011046,49.219601 L1.34671545,49.2377318 C1.34534299,49.2604856 1.34144234,49.2860566 1.33515795,49.3118442 L1.31428223,49.3951304 L1.30019653,49.4512565 C1.2890002,49.5453056 1.27014704,49.6444834 1.24262576,49.7545685 C1.21019254,49.8142341 1.18902787,49.8444281 1.1695246,49.858586 L1.16165106,49.8840847 L1.15962849,49.8914526 L1.15738923,49.899904 L1.15428315,49.9114615 L1.15175495,49.9213576 L1.14612067,49.9433169 L1.12921784,50.0063052 L1.12466707,50.0232081 L1.11903279,50.0452395 L1.11426533,50.0641649 L1.10942562,50.0821513 C1.10610284,50.12058 1.10234666,50.1320652 1.09028352,50.1410223 C1.05236049,50.2877302 1.03834703,50.3681993 1.00764743,50.5444511 L1.0052637,50.5591147 L1.00360231,50.5666993 L1.00165198,50.5814351 L0.999412718,50.5937872 L0.996234407,50.6090286 L0.99146694,50.6324325 L0.988360864,50.6504911 L0.986121599,50.664938 L0.982437647,50.6923148 C0.856822123,51.7243991 0.75735543,52.8196885 0.678547761,54.0408101 C0.645175494,54.7710993 0.609130556,55.59616 0.602629465,56.1457911 C0.602629465,56.568651 0.605952245,57.1512932 0.613392382,58.0348637 L0.628633829,58.0794323 L0.62299955,58.0998746 L0.624949877,58.1802714 L0.626611267,58.2587179 L0.627189142,58.2665915 L0.627767017,58.2809661 L0.63397917,58.4858227 L0.636218435,58.5571902 L0.63679631,58.5721427 C0.642430588,58.7922408 0.650015195,59.0823339 0.661067049,59.3763277 C0.683242993,59.8835572 0.712642371,60.4308769 0.748253903,61.0030451 C0.780398186,61.3983837 0.81088108,61.744025 0.861950761,62.320744 L0.863901088,62.3439313 L0.872352507,62.4401474 L0.878853598,62.5140431 L0.884487876,62.5789818 L0.888171828,62.6218168 L0.89070003,62.6520107 L0.893300466,62.6816268 L0.898645808,62.7409312 C0.964667999,63.3340474 1.02700624,63.8820171 1.08399914,64.3690211 L1.09476205,64.4122895 L1.10805317,64.4814177 L1.1051638,64.5133453 L1.11708247,64.5641261 L1.12690634,64.6229971 L1.1316738,64.6537689 L1.12921784,64.6659765 L1.14417034,64.7325766 L1.15319964,64.7793844 L1.15486103,64.8311764 L1.1669964,64.8801513 L1.17125822,64.9016049 L1.17573675,64.9804126 L1.19408428,65.0601593 L1.19126714,65.0751118 L1.21214286,65.181513 L1.22846782,65.3047448 L1.24349257,65.3829746 L1.2504993,65.4548478 L1.26631862,65.5319218 L1.27253077,65.577285 L1.28517178,65.6574651 L1.29058936,65.693799 L1.29181734,65.7019615 C1.31146509,65.8322 1.33132953,65.9645333 1.35263866,66.093905 L1.36087338,66.1461304 L1.36925256,66.2432134 L1.38796126,66.3231046 L1.38962265,66.3523595 L1.40154131,66.3796641 L1.40031333,66.3951222 L1.40284153,66.4299392 L1.42487301,66.5418302 L1.4601956,66.7367907 L1.47001947,66.8018738 L1.47399236,66.8239775 L1.49205095,66.9151373 L1.51437136,67.0459537 L1.54622671,67.2310903 L1.59137317,67.4934454 L1.60943176,67.6067089 L1.61846105,67.6512775 C1.83725888,68.8227018 2.08827323,70.0113902 2.36449736,71.1842593 C2.39794186,71.21532 2.40061453,71.2191484 2.40863254,71.2307782 C2.64180501,72.157906 2.89231371,73.0351921 3.15315193,73.8380768 L3.15741376,73.8519458 L3.15994196,73.8601083 L3.16470943,73.8765055 L3.16752656,73.886835 L3.17128275,73.8946363 C3.30888918,74.3858299 3.44671231,74.8090509 3.56965516,75.1183584 C3.69837676,75.478591 3.827604,75.8389682 3.95907051,76.1981173 C4.01324627,76.3313897 4.06373807,76.4591 4.1134353,76.5889774 C4.16443275,76.7286064 4.21636924,76.8683076 4.26859468,77.0076476 C4.35332556,77.2686303 4.43646729,77.4989856 4.5891707,77.8406541 C4.79995051,78.4102941 5.01145267,78.9324762 5.23559584,79.4368886 C5.86779083,80.960311 6.53516393,82.3805104 7.21922317,83.6581192 C7.38536217,84.0034716 7.54073824,84.2955151 7.68087287,84.5260871 C7.73389288,84.623459 7.78720182,84.7208309 7.840583,84.8178416 C8.32520322,85.7222879 8.84247336,86.6050638 9.37809102,87.4417542 C10.3439364,89.0148738 11.4503499,90.6194152 12.6664873,92.2106656 C15.64861,96.0243501 19.0611049,99.4452964 22.8090561,102.378661 C24.3667175,103.562582 25.9620852,104.654043 27.5508796,105.622416 C28.9866817,106.532425 30.5841442,107.424735 32.2986986,108.274573 C33.3174196,108.798633 34.360339,109.278269 35.3983466,109.700334 C36.7406774,110.279798 38.1404345,110.80617 39.5586114,111.265002 C41.336732,111.868448 43.1692451,112.385068 45.0052976,112.80056 C46.628909,113.150896 48.2414685,113.441712 49.7982631,113.665133 C52.3331829,113.996905 54.8270737,114.167378 57.2108793,114.171568 L57.300811,114.171568 C59.7517223,114.171568 62.3368451,114.002467 64.984306,113.668817 C67.623749,113.28937 70.1323033,112.763793 72.4400461,112.106749 C74.7421547,111.486689 77.0665836,110.680987 79.3486833,109.71218 C81.7067734,108.724159 83.9515279,107.592753 86.0206085,106.349238 C88.0078475,105.187493 90.0006486,103.848413 91.943897,102.369343 C93.9530952,100.791022 95.8302492,99.1293434 97.5231333,97.430536 C99.1695707,95.7461034 100.739801,93.9544749 102.190555,92.1054202 C102.496974,91.699102 102.756006,91.3543275 102.982027,91.0504376 C103.002542,91.0127313 103.024212,90.982754 103.046532,90.9613004 C104.339672,89.1708999 105.482058,87.3987748 106.44198,85.693972 C107.643165,83.6131895 108.671204,81.5455536 109.497637,79.5483462 L109.500888,79.5415562 L109.508256,79.5255202 L109.521619,79.4947483 C109.646584,79.2268312 109.755875,78.9606476 109.855703,78.6811729 C109.864732,78.658997 109.873978,78.6344373 109.883585,78.6089386 L109.888425,78.5974533 L109.892037,78.5869793 L109.895143,78.5796837 L109.899405,78.5686318 L109.902222,78.560975 L109.906484,78.5500676 L109.910673,78.5395936 L109.916019,78.5257246 L109.920858,78.5142393 C109.935811,78.4758107 109.961454,78.4115221 109.982908,78.364642 C110.87883,76.1125919 111.598645,73.9297422 112.122561,71.8769866 L112.17168,71.695245 L112.175942,71.6794979 L112.17847,71.6704686 L112.183238,71.65241 L112.189161,71.6309564 L112.191978,71.6204825 L112.202452,71.5809703 L112.207798,71.5600945 L112.210615,71.5499817 L112.216249,71.5285281 L112.223906,71.4991288 C112.294768,71.2758524 112.397918,70.8941661 112.530613,70.3648329 L112.53603,70.3428736 L112.540726,70.3245261 L112.545854,70.3050228 L112.556545,70.2624046 L112.566152,70.224626 C112.61845,70.0059726 112.666413,69.7974321 112.710115,69.6060833 L112.716038,69.5815959 L112.722828,69.5527744 L112.735831,69.4960704 L112.742259,69.4698493 L112.760607,69.3911139 L112.777004,69.3199631 L112.797302,69.2314038 L112.806909,69.1876297 L112.824101,69.1146008 L112.843026,69.0316036 L112.861085,68.9520735 L112.876904,68.8815006 L112.881672,68.8620696 L112.898069,68.7878126 C113.058068,67.912838 113.16837,67.3050583 113.245372,66.8730246 L113.257796,66.7953727 L113.266825,66.7321677 L113.27022,66.7068134 L113.281489,66.6263444 L113.286618,66.5902272 L113.290518,66.5623447 L113.30352,66.4844761 L113.316811,66.3944721 L113.331475,66.3043959 L113.337109,66.2635112 L113.361958,66.1001172 L113.376622,66.0070071 L113.377199,65.9922713 C113.37691,65.9829531 113.37691,65.9733459 113.37691,65.963522 L113.385651,65.8986556 L113.395764,65.8244709 C113.409055,65.7291216 113.422346,65.6334111 113.435276,65.5377728 L113.435565,65.5097459 L113.445461,65.4353445 L113.45449,65.3690334 C113.459258,65.3326273 113.464097,65.2965101 113.469154,65.2603929 L113.471682,65.2409619 L113.481,65.1701 C113.481,65.126326 113.481,65.1043667 113.481578,65.0990214 L113.512061,64.924431 L113.527013,64.8188244 C113.535465,64.7522243 113.543916,64.6870689 113.552657,64.6216246 L113.554679,64.6066721 L113.556341,64.5945367 C113.63876,63.8978365 113.688385,63.4703536 113.733242,63.0696697 C113.746534,62.9384921 113.758669,62.8069534 113.770804,62.675198 L113.776728,62.6097536 L113.777811,62.5981961 L113.778389,62.590756 L113.779545,62.5801376 L113.780411,62.5719751 L113.780917,62.564246 L113.781784,62.5524718 L113.78294,62.5394696 C113.79652,62.2184602 113.828086,61.9211436 113.876628,61.6557547 C113.924663,60.9241652 113.972699,60.1329824 114.023336,59.2369876 C114.04869,57.9630627 114.061692,57.206408 114.06032,56.923755 C114.060031,56.9107528 114.060536,56.8978229 114.061692,56.8848929 C114.059164,56.6748354 114.05548,56.4646335 114.050423,56.2547205 C114.049268,56.2428018 114.048401,56.2309554 114.048184,56.2191812 C113.979995,54.8362547 113.915345,53.7756378 113.855752,53.0668022 C113.846506,53.0415202 113.841883,53.0085813 113.840727,52.9598953 C113.732954,51.853193 113.603726,50.6829243 113.456729,49.4815227 L113.443222,49.3962862 L113.35654,48.8080097 L113.343899,48.7258792 L113.342455,48.7042089 L113.311394,48.5122823 L113.304387,48.4719033 L113.295358,48.4087705 L113.285462,48.3488882 L113.277299,48.3017914 L113.26827,48.2442206 L113.252162,48.1451874 L113.245372,48.1053862 L113.241977,48.0755534 L113.234681,48.0374137 L113.229047,48.0044026 L113.218284,47.9363579 L113.207015,47.8663628 L113.207882,47.8581281 C113.179783,47.7822098 113.164975,47.6891719 113.162447,47.573308 C113.004398,46.7493309 112.911288,46.2707784 112.8202,45.8066005 L112.816805,45.7891197 L112.811966,45.7651379 L112.778015,45.7185468 C112.778088,45.7184023 112.785456,45.7180411 112.785456,45.7178967 L112.789717,45.663432 L112.759379,45.6096896 L112.749194,45.5949538 L112.742476,45.5731391 L112.756345,45.5363718 L112.726657,45.4899973 L112.736553,45.4598756 L112.735831,45.4322821 L112.709682,45.3960204 L112.716761,45.3846796 L112.717772,45.3609145 L112.69249,45.3260976 L112.701303,45.3033438 L112.682594,45.2738722 C112.639759,45.0662707 112.587678,44.8654592 112.528085,44.6772887 L112.538848,44.6016594 L112.522234,44.5232851 L112.479182,44.4643419 C112.452672,44.3137333 112.425801,44.2145555 112.397052,44.1613188 C112.385277,44.1379149 112.365557,44.0939241 112.336447,44.0265295 C112.139103,43.2520329 111.952883,42.5690571 111.685543,41.7537481 C111.488344,41.0755398 111.276625,40.4177017 111.05631,39.7985811 C111.045258,39.7754661 111.036229,39.7517732 111.027488,39.7269246 C110.532105,38.2954566 110.046907,37.0291163 109.500454,35.7415391 C108.499286,33.3463928 107.357478,31.0773675 106.106451,28.9974518 C104.949691,27.0160638 103.628019,25.0439939 102.178131,23.1362849 C100.631377,21.1607478 99.0081991,19.3181941 97.353527,17.6599103 C95.6951709,16.0102946 93.8799941,14.4090759 91.9585605,12.900895 C89.0494668,10.6760772 86.0354165,8.77154646 82.9999127,7.24025059 C82.9483374,7.21626879 82.862523,7.17393946 82.7646454,7.12431447 L82.7341625,7.10878409 C82.6023348,7.04305083 82.4702905,6.97782322 82.3374515,6.91353465 L82.2011453,6.84751246 L82.1864817,6.84014456 C81.8937882,6.67920644 81.6166972,6.54672865 81.3393173,6.43527106 C80.7415781,6.14156621 80.0870627,5.84916159 79.3384982,5.54137105 C77.6068965,4.80783128 75.929904,4.19275584 74.3542562,3.71311979 C73.0055688,3.27834127 71.4934873,2.85757622 69.8601965,2.46252659 L69.8128108,2.4518359 L69.642121,2.41405734 L69.4694087,2.37533973 C67.9468532,2.06552663 66.4431508,1.8015101 65.0001253,1.59073028 C63.8074641,1.45175141 62.5843199,1.32693046 61.3643541,1.21959022 L61.3559027,1.21908458 C61.0223967,1.19734205 60.6662814,1.17588845 60.2672589,1.1532791 L60.2577239,1.15277345 L60.2481168,1.15219558 C60.0793773,1.14345522 59.9106379,1.13550945 59.7421874,1.12792484 C59.7348195,1.12792484 59.7275238,1.12734697 59.7204449,1.12676909 L59.6837498,1.1251077 L59.4063699,1.11412808 C59.3928621,1.11355021 59.3801489,1.11297233 59.3680135,1.11181658 L59.3595621,1.11152764 L59.2481045,1.10791593 L59.0333518,1.10054802 C59.0204218,1.09997015 59.0082865,1.09939227 58.996729,1.09830876 C58.8034299,1.09296342 58.6104197,1.08783478 58.4174095,1.08335625 C58.399062,1.08277838 58.3812924,1.08162263 58.363595,1.07938336 C58.3107194,1.07851655 58.2644894,1.07772197 58.2187651,1.07656622"/>
    <path fill="#FFAFBE" d="M58.9006212,2.84979658 C58.6046048,2.85232478 58.3554686,3.0658495 58.3082273,3.35745955 L57.3907789,8.82588836 L52.7902458,36.248357 L39.4523908,19.461312 L32.0957562,10.2033251 C31.9797479,10.0548113 31.8054464,9.96964696 31.6175649,9.96964696 C31.5134752,9.96964696 31.410469,9.99695155 31.3197426,10.0487436 C31.0601324,10.1975463 30.9467967,10.518628 31.0561595,10.7957189 L41.5684237,38.5988625 L42.852967,41.9961882 L27.7372803,36.0477622 L11.9189702,29.8242678 C11.8496975,29.79783 11.777102,29.7844667 11.7033507,29.7844667 C11.4896093,29.7844667 11.2897368,29.8988859 11.181602,30.0830834 C11.0318602,30.3381429 11.0878418,30.6614638 11.3147299,30.8517291 L24.8502181,41.9568205 L37.2022187,52.0909379 C27.3597114,53.5492048 17.5169874,55.0089887 7.67411896,56.4687725 L3.65962304,57.0642002 C3.32655047,57.0642002 3.05545498,57.335368 3.05545498,57.6687295 C3.05545498,58.0019465 3.32655047,58.273042 3.65969527,58.273042 C14.8446779,59.9394883 26.0296604,61.6056457 37.2147153,63.2718753 L12.8135203,83.1325638 L11.3147299,84.3526019 C11.0879141,84.5427949 11.0319325,84.8661881 11.181602,85.1215365 C11.2897368,85.3057341 11.4896093,85.4201533 11.7033507,85.4201533 C11.777102,85.4201533 11.8496975,85.4067177 11.9189702,85.3802799 C22.2265222,81.2386516 32.5342187,77.0970232 42.8417707,72.9556838 L36.8588889,88.9209185 L31.0561595,104.408684 C30.9149414,104.695744 31.022715,105.044708 31.3013951,105.202973 C31.3917603,105.253754 31.4941164,105.280625 31.5973392,105.280625 C31.8053019,105.280625 31.9962173,105.176102 32.1079638,105.000934 L42.7966242,91.8064639 L52.863997,79.3789784 L55.6869152,96.5368744 L58.3082273,112.462814 C58.3754053,112.733404 58.6168847,112.922296 58.8957093,112.922296 L58.9488737,112.922296 C59.2495853,112.91854 59.4987216,112.699959 59.5412676,112.402426 C61.0876604,101.746704 62.63427,91.091055 64.1809518,80.4353334 L64.3710726,79.1249302 L85.4639345,104.868167 C85.5786427,104.99985 85.7443482,105.075407 85.9187219,105.075407 C86.0243286,105.075407 86.1287072,105.04738 86.2205893,104.994144 C86.4702312,104.85047 86.5841447,104.548458 86.4914681,104.276062 L75.3545213,74.9766562 L74.5860201,72.9547447 L86.1229284,77.5815712 L105.664775,85.4163971 C105.734047,85.4429071 105.806643,85.4563427 105.880466,85.4563427 C106.094208,85.4563427 106.293719,85.3419235 106.400987,85.1576537 C106.551668,84.9028831 106.496264,84.5796344 106.269376,84.3889358 L102.332388,81.1639612 L80.5626898,63.330963 L113.694778,59.2149056 C114.02785,59.2149056 114.298874,58.9437379 114.298874,58.6103041 C114.298874,58.2771593 114.02785,58.0060638 113.694633,58.0060638 L85.1851822,52.9151317 L80.5623286,52.0896376 L92.8207135,41.9584097 L106.257241,30.8517291 C106.484129,30.6611027 106.539532,30.337854 106.388852,30.0830834 C106.281584,29.8988859 106.082072,29.7844667 105.868259,29.7844667 C105.794435,29.7844667 105.721984,29.79783 105.652711,29.8242678 L74.7177756,41.9951769 L85.6781816,12.6882587 L86.4310802,10.6749431 C86.540154,10.3978522 86.4268183,10.0767705 86.1675693,9.92796775 C86.0767707,9.87624796 85.9737645,9.84894337 85.8696026,9.84894337 C85.6816488,9.84894337 85.5073474,9.93410767 85.3914112,10.0827659 L74.7970889,23.5001509 L64.8647221,36.0790397 L61.9936236,18.587132 L59.4927261,3.35745955 C59.445846,3.0658495 59.1968542,2.85232478 58.9006212,2.84979658"/>
  </g>
</svg>
