<svg xmlns="http://www.w3.org/2000/svg" width="116" height="116">
    <g fill="none" fill-rule="evenodd">
        <path fill="#FFF" d="m51.98 1.427.017-.002.389-.033.011-.001c1.486-.103 2.714-.172 3.648-.205a75.878 75.878 0 0 1 .876-.016l.6-.003c.117 0 .234-.001.355-.004l.076-.001c.134-.003.267-.003.4-.003l.145.003a.552.552 0 0 0 .053.004c.194.004.387.01.58.015l.037.002.214.007.112.004h.008a.844.844 0 0 0 .039.003l.277.01.037.002.022.001.506.025h.019c.399.023.755.045 1.089.066h.008a92.22 92.22 0 0 1 3.636.37 72.74 72.74 0 0 1 4.457.782l.172.038.17.038.048.01c1.61.384 3.123.799 4.495 1.235a54.42 54.42 0 0 1 4.986 1.822c.73.303 1.385.594 2 .891.262.11.54.242.848.404l.015.007.136.066.397.194.03.016c.098.05.184.092.236.115 3.052 1.541 6.062 3.44 8.946 5.643a60.718 60.718 0 0 1 5.396 4.745 60.374 60.374 0 0 1 4.826 5.459 59.136 59.136 0 0 1 3.929 5.829 53.296 53.296 0 0 1 3.394 6.723 68.564 68.564 0 0 1 1.528 3.972.726.726 0 0 0 .028.072c.198.558.41 1.214.629 1.949.242.749.436 1.447.652 2.266l.06.134c.03.066.056.167.083.308l.03.04.015.077.003.09c.08.27.13.494.155.602l.007.009.002.011.001.03.011.017.004.017v.013l.002.024.012.015.005.023.006.035-.006.019.018.025.005.025-.007.027.007.022.01.015.016.04.008.038-.005.038.02.029.005.02.003.018c.095.475.2 1.018.342 1.76.002.094.017.187.045.284v.008l.011.07.011.068.005.034.008.037.003.03.007.04.016.098.01.057.008.047.009.06.01.063.006.04.031.192.002.021.012.082.087.587.013.085c.147 1.164.277 2.33.384 3.467.001.048.006.08.015.107a76.171 76.171 0 0 1 .195 3.177c.005.21.009.42.011.629l-.001.038c.001.381-.012 1.135-.037 2.306a84.36 84.36 0 0 1-.146 2.412 9.24 9.24 0 0 0-.094.88l-.002.014v.011l-.001.008v.008l-.002.01v.008l-.002.012-.006.065-.037.393c-.045.4-.095.826-.177 1.52l-.002.012-.002.015-.025.197-.015.105-.03.174-.001.071-.01.07-.002.02-.015.108-.009.066-.01.075v.028l-.04.285-.01.074-.009.065v.043l-.014.093-.025.163-.006.04-.014.09-.013.09-.013.078-.005.028-.005.036-.011.08-.004.025-.008.063-.012.078c-.097.56-.214 1.197-.348 1.894l-.017.074c-.09.402-.188.84-.308 1.359l-.01.037-.01.043-.006.02-.004.017-.005.022c-.123.485-.224.866-.301 1.131l-.008.03-.005.02-.003.011-.006.02-.01.04-.003.01-.006.022-.005.018-.002.009-.004.016-.05.18a54.643 54.643 0 0 1-2.201 6.617l-.005.012-.005.014-.005.01-.004.011-.003.008-.004.01-.003.008-.004.01-.004.012-.028.072c-.093.25-.202.515-.335.81l-.013.031-.007.016-.004.007a54.787 54.787 0 0 1-3.056 6.127 56.24 56.24 0 0 1-3.396 5.236.368.368 0 0 0-.064.09c-.226.302-.486.646-.792 1.051a63.862 63.862 0 0 1-4.668 5.308 60.17 60.17 0 0 1-5.58 4.924 59.146 59.146 0 0 1-5.911 3.967 53.152 53.152 0 0 1-6.673 3.353 55.702 55.702 0 0 1-6.91 2.387 57.13 57.13 0 0 1-7.443 1.543c-2.604.332-5.19.501-7.685.501h-.09a58.035 58.035 0 0 1-7.414-.5 66.471 66.471 0 0 1-4.78-.863 54.098 54.098 0 0 1-5.448-1.52c-1.4-.456-2.8-.98-4.16-1.56a45.078 45.078 0 0 1-3.101-1.422 54.811 54.811 0 0 1-4.749-2.643 57.624 57.624 0 0 1-4.729-3.234A58.532 58.532 0 0 1 12.82 91.938a57.4 57.4 0 0 1-3.29-4.74 45.637 45.637 0 0 1-1.537-2.616 93.63 93.63 0 0 1-.16-.29 14.15 14.15 0 0 1-.461-.866 51.37 51.37 0 0 1-1.984-4.208 35.55 35.55 0 0 1-.647-1.591 11.067 11.067 0 0 1-.32-.83 141.598 141.598 0 0 1-.7-1.883 15.46 15.46 0 0 1-.398-1.221l-.004-.008-.003-.01-.004-.016-.003-.008-.004-.014a44.155 44.155 0 0 1-.737-2.59c-.018-.031-.02-.036-.041-.056a70.196 70.196 0 0 1-.75-3.514l-.006-.038-.02-.113-.045-.261-.032-.185-.023-.135-.017-.091-.003-.017-.01-.065-.035-.195-.02-.111-.005-.035-.004-.024-.004-.018-.006-.04-.013-.07-.014-.096-.117-.76-.012-.079-.02-.128-.016-.1-.002-.023-.012-.072-.01-.079-.005-.029-.006-.04-.008-.055-.008-.046v-.01l-.01-.054v-.013l-.006-.031-.01-.057v-.011l-.008-.04-.003-.033-.012-.073v-.008l-.006-.03a293.53 293.53 0 0 1-.185-1.624l-.005-.059-.003-.03-.003-.03-.003-.042-.006-.065-.006-.073-.009-.096-.002-.023c-.05-.575-.081-.92-.114-1.314a71.874 71.874 0 0 1-.087-1.622 67.008 67.008 0 0 1-.024-.801v-.015l-.003-.071-.006-.205v-.014L.79 58.12l-.002-.078-.002-.078-.003-.034-.006-.033a65.319 65.319 0 0 1-.011-1.883c.006-.617.042-1.407.076-2.098.072-1.196.17-2.288.3-3.338l.003-.025c.04-.23.06-.357.09-.496.019-.015.026-.035.029-.074l.006-.024.001-.013.005-.021.004-.017c.008-.035.019-.072.031-.115l.002-.007.003-.011a.33.33 0 0 0 .077-.118c.028-.106.047-.205.059-.303l.014-.055.021-.083a.329.329 0 0 0 .019-.088 2.67 2.67 0 0 1 .078-.331.364.364 0 0 0 .025-.137v-.018l.051-.253.007-.036.01-.037.022-.124c.098-.504.192-.981.281-1.43a68.426 68.426 0 0 1 .628-2.634l.016-.061.006-.025.022-.081c.028-.106.055-.214.082-.324l.008-.029.008-.032.006-.022.005-.02.005-.02.006-.023.005-.019.074-.292.022-.086c.085-.338.177-.653.235-.834l.01-.035.008-.03.003-.008.005-.02.004-.012.01-.032.03-.11c.19-.699.417-1.423.711-2.28.453-1.38.965-2.737 1.522-4.034a54.778 54.778 0 0 1 3.312-6.581 57.08 57.08 0 0 1 4.094-6.07 64.151 64.151 0 0 1 4.611-5.23 59.9 59.9 0 0 1 5.509-4.86 58.978 58.978 0 0 1 4.423-3.07c.39-.257.842-.533 1.341-.82l.093-.056.013-.008.06-.036.054-.032.07-.041.037-.023.007-.004.028-.017.054-.034.011-.006.053-.033.043-.027.021-.013.007-.004.02-.012.024-.016.02-.012.02-.012c.103-.063.21-.13.29-.182.103-.075.199-.13.285-.164.156-.09.313-.18.47-.268l.023-.013a.437.437 0 0 0 .1-.072 7.31 7.31 0 0 1 .666-.365.788.788 0 0 0 .071-.048l.314-.167a.885.885 0 0 0 .074-.05 28.077 28.077 0 0 1 1.693-.858 34.102 34.102 0 0 1 1.807-.837.438.438 0 0 0 .054-.033 8.83 8.83 0 0 1 .666-.29A50.592 50.592 0 0 1 39.637 3.9c.65-.223 1.356-.443 2.095-.653a44.04 44.04 0 0 1 2.4-.653l.036-.007.03-.006.049-.01.052-.01.056-.012.008-.001.037-.008.041-.008.07-.014.077-.016.114-.023.035-.007c.764-.157 1.26-.258 1.782-.36l.189-.032.075-.013.084-.015.03-.006.017-.003.034-.007.015-.002.012-.003c.175-.032.35-.063.526-.093.207-.034.425-.068.593-.093l.032-.006a.42.42 0 0 0 .167-.015l.567-.083c.574-.067 1.288-.15 2.184-.252a2.003 2.003 0 0 0 .408-.03.371.371 0 0 0 .082.005l.392-.035h.008a.21.21 0 0 0 .046-.002ZM57.522.113h-.01l-.404.001h-.018l-.027.001h-.014l-.411.005h-.059l-.448.01h-.022a71.54 71.54 0 0 0-.445.013 59.278 59.278 0 0 0-3.262.2c-.01 0-.019.002-.028.003l-.39.037-.122.017a22.05 22.05 0 0 0-.323.036.788.788 0 0 0-.152.024l-.011.002a.58.58 0 0 0-.033.01 11.55 11.55 0 0 0-.393.051.603.603 0 0 0-.039.013 60.28 60.28 0 0 0-2.873.445.514.514 0 0 0-.06.021c-.567.103-1.135.207-1.697.33a58.97 58.97 0 0 0-2.342.551c-.8.211-1.599.416-2.393.645-.704.203-1.404.42-2.1.647a.275.275 0 0 0-.043.012 63.396 63.396 0 0 0-4.547 1.695.46.46 0 0 0-.15.055c-.613.259-1.221.528-1.826.805-.566.26-1.125.534-1.683.81a.68.68 0 0 0-.114.047c-.098.05-.195.099-.292.15a.532.532 0 0 0-.106.043l-.66.345a.65.65 0 0 0-.128.053c-.26.137-.514.287-.78.411l-.39.206c-.194.102-.382.22-.57.33a52.34 52.34 0 0 0-1.558.959 59.288 59.288 0 0 0-8.042 6.17 57.227 57.227 0 0 0-7.135 7.872 56.795 56.795 0 0 0-9.499 19.474c-.11.417-.22.834-.316 1.255a.544.544 0 0 0-.016.089 45.532 45.532 0 0 0-.852 4.611l-.004.034a.29.29 0 0 0 .006.099l-.027.2a.636.636 0 0 0-.013.091c0 .009-.002.018-.003.026h.003a.463.463 0 0 0 .008.098l-.018.15c-.02.105-.026.21-.019.318 0 .06.014.116.039.168l-.012.106a.34.34 0 0 0-.005.05l-.002.015h.002c0 .04.007.08.021.117A89.126 89.126 0 0 0 .39 53.24a67.618 67.618 0 0 0-.207 4.46c-.002.142-.01.28-.013.421-.002.372.005.743.012 1.114.016.727.05 1.452.087 2.178.037.752.104 1.501.174 2.25.067.723.151 1.443.247 2.162l-.003-.023.009.064-.006-.04.01.073-.002-.017.003.026c.102.758.223 1.51.365 2.261.19 1.01.411 2.014.65 3.013a.45.45 0 0 0 .016.081c.277 1.164.588 2.319.939 3.463.088.286.17.575.257.862.068.224.142.446.215.67.03.13.07.259.118.384a51.507 51.507 0 0 0 .45 1.255 49.19 49.19 0 0 0 1.307 3.152c.426.95.884 1.884 1.363 2.808l.012.024.048.092.05.097a65.39 65.39 0 0 0 .48.893l.038.068.007.015a54.801 54.801 0 0 0 1.553 2.647c0 .002.002.004.003.005l.034.055a.482.482 0 0 0 .028.044 59.558 59.558 0 0 0 4.786 6.565 56.71 56.71 0 0 0 5.464 5.65 54.77 54.77 0 0 0 3.019 2.527 66.858 66.858 0 0 0 3.24 2.387 55.77 55.77 0 0 0 6.678 3.92l.013.006.065.032.133.066.03.015a59.257 59.257 0 0 0 7.278 2.985l.02.007.1.033.01.003a56.71 56.71 0 0 0 9.675 2.274 58.69 58.69 0 0 0 9.787.592 58.265 58.265 0 0 0 10.067-1.127 56.791 56.791 0 0 0 10.03-3.005 57.973 57.973 0 0 0 7.3-3.55 58.211 58.211 0 0 0 6.638-4.483 57.198 57.198 0 0 0 5.964-5.352 57.961 57.961 0 0 0 5.009-5.923.625.625 0 0 0 .07-.094.968.968 0 0 1 .025-.035 58.701 58.701 0 0 0 3.448-5.29 56.143 56.143 0 0 0 3.047-6.131.723.723 0 0 0 .052-.125 56.718 56.718 0 0 0 1.276-3.313 56.784 56.784 0 0 0 1.13-3.65c.532-1.938.92-3.91 1.26-5.89a.289.289 0 0 0 .014-.054c.045-.277.09-.554.132-.831a.326.326 0 0 0 .02-.067l.062-.426a.545.545 0 0 0 .027-.163 52.809 52.809 0 0 0 .297-2.74c.03-.358.063-.718.06-1.076l.007-.154c.005-.12.011-.238.019-.357l.029-.609a61.494 61.494 0 0 0 .038-3.626.472.472 0 0 0-.004-.052 89.148 89.148 0 0 0-.01-.65c-.013-.57-.03-1.139-.053-1.708-.02-.494-.052-.988-.085-1.481a.326.326 0 0 0 .002-.06 49.37 49.37 0 0 0-.215-2.177 55.19 55.19 0 0 0-.324-2.199c-.108-.668-.238-1.332-.367-1.996a69.3 69.3 0 0 0-.296-1.418c-.048-.22-.098-.441-.145-.662-.035-.161-.076-.321-.111-.483a.39.39 0 0 0-.016-.183 38.67 38.67 0 0 0-.577-2.287 44.107 44.107 0 0 0-.597-1.961.37.37 0 0 0-.017-.07c-.268-.85-.56-1.689-.88-2.52a57.382 57.382 0 0 0-3.222-6.92 56.69 56.69 0 0 0-2.525-4.157 58.993 58.993 0 0 0-2.766-3.8 57.346 57.346 0 0 0-7.073-7.468 57.957 57.957 0 0 0-8.413-6.169 58.91 58.91 0 0 0-3.64-2.013c-.067-.043-.14-.073-.218-.113-.197-.1-.394-.2-.592-.298a55.315 55.315 0 0 0-3.564-1.595 56.28 56.28 0 0 0-4.39-1.584l-.026-.009-.079-.024-.135-.043A59.387 59.387 0 0 0 61.74.27l-.012-.001a67.443 67.443 0 0 0-.257-.018 67.618 67.618 0 0 0-.669-.041H60.8l-.055-.003-.016-.001a64.91 64.91 0 0 0-.362-.018 59.255 59.255 0 0 0-.492-.022h-.026a37.323 37.323 0 0 0-1.364-.03h-.079c-.1-.004-.198-.006-.297-.008-.195-.006-.389-.014-.583-.014h-.005Z"/>
        <path fill="#DA3ACB" d="M58.352 1.16c-.133 0-.266 0-.4.002l-.076.002-.354.003a87.377 87.377 0 0 0-1.032.01 33.03 33.03 0 0 0-.445.01c-.934.032-2.162.1-3.648.204h-.011l-.389.035-.017.001a.279.279 0 0 1-.028.002h-.027a225.364 225.364 0 0 1-.415.036.37.37 0 0 1-.059-.005 2.003 2.003 0 0 1-.407.03c-.896.101-1.61.184-2.184.252l-.566.082a.418.418 0 0 1-.168.015l-.033.006a32.344 32.344 0 0 0-1.119.187l-.011.002-.015.002-.034.007-.017.003-.03.006-.084.015-.075.013-.189.033c-.523.1-1.018.202-1.782.359l-.035.007-.114.023-.076.016-.07.014-.043.008-.035.008-.009.001-.056.012-.052.01-.049.01-.03.006-.036.007c-.836.204-1.577.405-2.4.653a40.695 40.695 0 0 0-2.108.658 50.709 50.709 0 0 0-3.774 1.43 8.474 8.474 0 0 0-.666.29.44.44 0 0 1-.054.033c-.685.296-1.26.562-1.807.837-.647.304-1.184.577-1.693.858a.858.858 0 0 1-.075.05c-.104.055-.209.11-.313.167a.809.809 0 0 1-.072.048c-.262.129-.48.248-.665.364a.437.437 0 0 1-.1.073l-.023.012c-.157.09-.314.178-.47.27a1.307 1.307 0 0 0-.286.163c-.079.052-.186.118-.29.182l-.019.012-.02.012-.024.015-.02.013-.007.004-.02.013-.044.027-.053.033-.011.006-.054.034-.028.017-.007.004-.038.023-.069.04-.054.033-.06.036-.013.008-.093.055c-.5.288-.95.564-1.342.82a58.968 58.968 0 0 0-4.422 3.07 59.883 59.883 0 0 0-5.509 4.861 64.063 64.063 0 0 0-4.61 5.23 57.094 57.094 0 0 0-4.095 6.07 54.811 54.811 0 0 0-3.312 6.58 48.83 48.83 0 0 0-1.522 4.036 35.47 35.47 0 0 0-.71 2.28l-.032.109-.01.032-.003.013-.005.02-.003.007-.008.03-.01.035c-.058.181-.15.495-.235.834l-.022.086-.074.292-.005.02-.006.023-.005.019-.006.02-.005.022-.008.032-.008.029-.082.324-.022.081-.006.025-.016.062a68.04 68.04 0 0 0-.628 2.633c-.089.449-.183.926-.281 1.43l-.023.124-.01.037-.006.036-.05.253v.018l-.002.04a.383.383 0 0 1-.024.097 2.535 2.535 0 0 0-.078.33.345.345 0 0 1-.019.089l-.021.083-.015.056a2.237 2.237 0 0 1-.058.302.327.327 0 0 1-.077.118l-.003.011-.002.007c-.012.043-.023.08-.03.115l-.005.017-.005.021-.001.013-.006.025c-.003.038-.01.058-.028.073-.03.14-.052.266-.09.496l-.005.024a53.66 53.66 0 0 0-.3 3.338 60.86 60.86 0 0 0-.075 2.099c-.005.723-.002 1.321.01 1.883l.007.033.003.034.002.078.002.078v.008l.001.014.006.205.003.07v.016c.006.22.013.508.024.801.023.529.052 1.074.088 1.622.032.394.062.739.113 1.314l.002.023.009.096.006.073.006.065.004.043.002.03.003.03.005.059c.066.59.128 1.137.185 1.623l.006.03v.008l.012.073.004.033.007.04v.011l.01.057.005.031v.013l.01.054.001.01.008.047.008.053.007.041.004.029.01.08.013.071.001.023.017.1.019.128.012.078.117.761.014.097.013.069.006.04.004.017.004.025.006.035.019.111.034.195.011.065.003.017.017.09.023.136.032.185.045.261.02.113.007.039c.218 1.17.47 2.352.749 3.513.02.02.023.024.04.055.227.898.476 1.77.738 2.59l.004.015.002.008.005.016.003.01.004.008c.14.488.278.91.398 1.22.129.36.258.718.39 1.076a19.792 19.792 0 0 1 .31.807c.096.28.184.516.32.83.202.535.414 1.056.646 1.592a51.456 51.456 0 0 0 1.985 4.208c.155.315.31.606.461.865l.16.291c.48.884.998 1.764 1.538 2.616a57.52 57.52 0 0 0 3.289 4.74 58.53 58.53 0 0 0 10.145 10.136 57.712 57.712 0 0 0 4.728 3.234 54.833 54.833 0 0 0 4.749 2.644 45.35 45.35 0 0 0 3.1 1.42c1.36.58 2.76 1.105 4.161 1.56a54.22 54.22 0 0 0 5.448 1.521 66.53 66.53 0 0 0 4.78.862c2.5.328 4.995.497 7.414.5h.09c2.495 0 5.08-.168 7.685-.5 2.616-.37 5.12-.89 7.443-1.543a55.771 55.771 0 0 0 6.91-2.387 53.195 53.195 0 0 0 6.673-3.353 59.158 59.158 0 0 0 5.91-3.967 60.143 60.143 0 0 0 5.58-4.924 63.828 63.828 0 0 0 4.669-5.308c.307-.405.566-.749.792-1.052a.368.368 0 0 1 .064-.089 56.215 56.215 0 0 0 3.396-5.236 54.857 54.857 0 0 0 3.057-6.127l.003-.007.007-.016.014-.03a13.095 13.095 0 0 0 .362-.883l.004-.012.004-.01.003-.007.004-.011.003-.008.004-.011.005-.01.005-.014.005-.012c.015-.038.04-.102.062-.149a54.678 54.678 0 0 0 2.14-6.467l.049-.181.004-.016.002-.01.005-.017.006-.022.003-.01.01-.04.006-.02.003-.01.005-.022.008-.029c.077-.265.178-.646.3-1.13l.006-.023.005-.018.005-.02.01-.042.01-.037c.12-.52.218-.957.308-1.359l.017-.074c.134-.697.251-1.334.348-1.894l.011-.078.01-.063.003-.025.01-.08.006-.036.005-.028.012-.078.014-.09.014-.09.006-.04.025-.163.014-.093v-.043l.009-.065.01-.074.04-.285v-.028l.01-.074.009-.067.015-.108.002-.02.01-.07v-.07l.03-.175.015-.105.026-.197.002-.015.002-.012c.082-.694.132-1.12.177-1.52l.037-.393.006-.065.001-.012v-.007l.002-.01v-.009l.001-.008.001-.011.001-.013c.023-.34.054-.637.095-.881.056-.743.104-1.532.146-2.412.025-1.17.038-1.925.037-2.306l.001-.038a52.062 52.062 0 0 0-.013-.664 75.92 75.92 0 0 0-.193-3.143.342.342 0 0 1-.015-.106 112.66 112.66 0 0 0-.384-3.468l-.013-.085-.087-.586-.012-.082-.002-.022-.031-.19-.007-.041-.01-.063-.009-.06-.008-.047-.009-.057-.016-.099-.007-.04-.004-.03-.007-.036-.005-.034-.01-.068-.012-.07v-.008a1.12 1.12 0 0 1-.045-.284c-.142-.742-.247-1.285-.342-1.76l-.003-.018-.005-.02-.02-.029.005-.037-.008-.04-.016-.039-.01-.015-.007-.022.007-.027-.005-.025-.018-.025.006-.02-.006-.035-.005-.022-.012-.015-.003-.024v-.013l-.003-.017-.01-.018-.002-.029-.002-.012-.007-.008a9.967 9.967 0 0 0-.155-.603l-.003-.09-.016-.076-.03-.04a1.55 1.55 0 0 0-.081-.308 2.767 2.767 0 0 1-.061-.134 41.494 41.494 0 0 0-.652-2.266 42.53 42.53 0 0 0-.628-1.949.735.735 0 0 1-.03-.072 68.552 68.552 0 0 0-1.527-3.972 53.327 53.327 0 0 0-3.394-6.724 59.128 59.128 0 0 0-3.93-5.828 60.358 60.358 0 0 0-4.825-5.46 60.697 60.697 0 0 0-5.396-4.744c-2.884-2.203-5.894-4.102-8.946-5.643a8.66 8.66 0 0 1-.236-.115l-.03-.016-.397-.194-.136-.066-.015-.007a10.837 10.837 0 0 0-.847-.404 38.683 38.683 0 0 0-2.001-.891 54.484 54.484 0 0 0-4.986-1.822 63.56 63.56 0 0 0-4.495-1.234l-.047-.011-.17-.038-.174-.038c-1.5-.31-2.999-.574-4.455-.782a91.56 91.56 0 0 0-3.637-.37h-.008c-.334-.021-.69-.043-1.09-.065h-.009l-.01-.001a75.241 75.241 0 0 0-.527-.026l-.037-.001-.277-.011a.749.749 0 0 1-.039-.003h-.008l-.112-.003-.214-.008a16.38 16.38 0 0 1-.815-.024"/>
        <path fill="#E45AC7" d="M57.755 13.968c-1.327 0-2.688.06-4.045.18a47.461 47.461 0 0 0-3.323.435 44.68 44.68 0 0 0-3.432.718.291.291 0 0 0-.212.233c-.869.214-1.753.462-2.627.736a43.63 43.63 0 0 0-3.938 1.454 44.768 44.768 0 0 0-7.405 4.006 44.85 44.85 0 0 0-13.989 15.078 44.052 44.052 0 0 0-5.305 15.57 45.482 45.482 0 0 0-.39 4.126 44.54 44.54 0 0 0 1.12 12.3 44.16 44.16 0 0 0 6.577 14.885 45.12 45.12 0 0 0 5.277 6.363 45.221 45.221 0 0 0 6.325 5.272 44.576 44.576 0 0 0 15.342 6.745 45.567 45.567 0 0 0 10.066 1.136c2.205 0 4.48-.172 6.762-.512a44.322 44.322 0 0 0 11.887-3.552 44.413 44.413 0 0 0 3.745-1.94 45.269 45.269 0 0 0 6.734-4.78 44.924 44.924 0 0 0 10.474-13.108 44.185 44.185 0 0 0 4.829-15.712 44.76 44.76 0 0 0-1.27-16.664 44.455 44.455 0 0 0-7.276-14.924 45.212 45.212 0 0 0-5.65-6.253 45.215 45.215 0 0 0-6.59-5.013 44.96 44.96 0 0 0-7.53-3.764 44.316 44.316 0 0 0-6.62-1.988 45.31 45.31 0 0 0-9.536-1.027"/>
        <path fill="#E45AC7" d="M57.799 26.104a33.4 33.4 0 0 0-2.913.13 34.317 34.317 0 0 0-2.393.313c-.793.132-1.625.306-2.471.517a.21.21 0 0 0-.153.168 31.71 31.71 0 0 0-1.892.53 32.052 32.052 0 0 0-8.167 3.932 32.298 32.298 0 0 0-10.074 10.858 31.718 31.718 0 0 0-3.82 11.213 32.42 32.42 0 0 0-.29 5.888 31.788 31.788 0 0 0 5.551 16.658 32.486 32.486 0 0 0 3.8 4.581 32.556 32.556 0 0 0 4.555 3.797 32.096 32.096 0 0 0 11.048 4.857 32.82 32.82 0 0 0 7.248.818c1.588 0 3.227-.124 4.87-.37a31.907 31.907 0 0 0 8.56-2.557c.876-.4 1.783-.87 2.696-1.396a32.61 32.61 0 0 0 4.85-3.443 32.36 32.36 0 0 0 7.542-9.44 31.808 31.808 0 0 0 3.477-11.314 32.229 32.229 0 0 0-.914-12 32.009 32.009 0 0 0-5.24-10.746 32.565 32.565 0 0 0-4.068-4.503 32.562 32.562 0 0 0-4.746-3.609 32.372 32.372 0 0 0-5.422-2.71 31.915 31.915 0 0 0-4.766-1.433 32.636 32.636 0 0 0-6.868-.739"/>
        <path fill="#FFB671" d="M79.079 13.344a.225.225 0 0 0-.117.03.238.238 0 0 0-.086.327c.021.036.054.07.089.09-.04.157-.077.316-.113.475l-.035.146c-.024.1-.049.202-.068.303l-.05.278-.052.28c-.018.096-.03.195-.043.29l-.006.047a.253.253 0 0 0-.007.058l-.003.018-.003.018a3.407 3.407 0 0 0-.033.814.95.95 0 0 0 .067.28c.04.1.094.187.14.259.05.074.104.147.157.217l.044.058c.095.126.205.253.337.388.097.1.208.188.316.273l.027.021c.131.104.266.198.4.279.126.076.232.139.35.191.22.097.45.15.665.192.287.057.528.099.77.118.103.008.214.011.351.011.076 0 .153 0 .229-.002.176-.002.353-.026.517-.052.166-.025.318-.056.466-.092.261-.065.52-.149.772-.23l.094-.031c.304-.1.632-.185 1-.264.327-.069.665-.14 1.006-.192.202-.024.403-.043.6-.057a4.397 4.397 0 0 1 .637.008c.108.016.25.04.386.09.053.025.1.051.145.08.046.04.087.083.126.129.048.067.088.136.125.211.052.13.096.25.134.372.02.065.034.135.046.202l.008.042c.012.06.021.12.031.181.014.147.022.282.022.412a2.685 2.685 0 0 1-.127.78 8.028 8.028 0 0 1-.157.433c-.128.288-.27.562-.378.768l-.158.295c-.085.158-.173.32-.256.483a13.38 13.38 0 0 0-.397.873 6.196 6.196 0 0 0-.306.867c-.036.142-.066.29-.094.455a4.494 4.494 0 0 0-.057.44 3.608 3.608 0 0 0-.001.334l.001.054c.004.145.012.297.025.464a2.463 2.463 0 0 0 .154.683l.023.058c.018.044.035.09.056.133.05.105.096.199.153.29.048.079.111.157.192.242.056.057.12.106.184.153l.029.022c.058.044.117.086.177.127.055.038.115.068.173.098l.032.016c.154.078.318.135.472.184.123.04.258.077.426.117l.15.037c.134.033.272.068.41.091l.017.003c.22.036.446.074.67.074h.032c.055-.001.113-.01.168-.018l.025-.004a3.448 3.448 0 0 0 .396-.083l.045-.012c.111-.027.203-.052.288-.077l.136-.041.137-.04.05-.016.077-.023c.089-.027.172-.06.27-.102a.321.321 0 0 0 .132-.145c.108-.033.214-.076.315-.118l.009-.003.094-.038c.073-.03.147-.06.22-.092a.722.722 0 0 0 .226-.132.445.445 0 0 0 .126-.198.41.41 0 0 0-.043-.31 3.977 3.977 0 0 0-.185-.245 3.087 3.087 0 0 1-.317-.548 2.38 2.38 0 0 1-.065-.18l-.011-.035a.887.887 0 0 1-.023-.083c-.007-.028-.012-.057-.018-.086l-.019-.093-.005-.014-.008-.02a.258.258 0 0 0-.052-.104.26.26 0 0 0-.076-.086.351.351 0 0 0-.101-.069.813.813 0 0 0-.285-.072l-.018-.002-.085-.01-.085-.011a5.413 5.413 0 0 1-.444-.077 3.691 3.691 0 0 1-.5-.139.871.871 0 0 1-.108-.064 1.889 1.889 0 0 1-.22-.22 2.042 2.042 0 0 1-.169-.294 1.71 1.71 0 0 1-.092-.291c-.002-.042 0-.086.003-.133a2.065 2.065 0 0 1 .145-.478c.053-.123.11-.245.166-.364.058-.123.118-.25.173-.378.114-.264.236-.537.362-.813l.142-.303c.077-.16.155-.326.227-.491.144-.334.242-.618.308-.893.06-.25.129-.579.116-.913a4.036 4.036 0 0 0-.046-.497 7.61 7.61 0 0 0-.086-.446 5.454 5.454 0 0 0-.287-.846c-.116-.286-.235-.58-.396-.844a4.196 4.196 0 0 0-.568-.744 4.99 4.99 0 0 0-.703-.632 5.23 5.23 0 0 0-.356-.223 3.632 3.632 0 0 0-.46-.208c-.303-.118-.629-.156-.916-.19a5.63 5.63 0 0 0-.867-.034c-.364.01-.658.022-.927.039-.307.019-.633.042-.957.091a4.63 4.63 0 0 0-.455.087c-.13.034-.264.074-.424.127a4.15 4.15 0 0 0-.626.27l-.161.087a6.23 6.23 0 0 1-.388.199 1.528 1.528 0 0 1-.35.093 1.658 1.658 0 0 1-.25.004 1.102 1.102 0 0 1-.162-.047 1.244 1.244 0 0 1-.163-.096.748.748 0 0 1-.067-.066.827.827 0 0 1-.042-.075 1.133 1.133 0 0 1-.043-.168 1.823 1.823 0 0 1 .005-.35c.024-.131.05-.237.08-.334.022-.065.037-.129.048-.194a.403.403 0 0 0-.032-.27.395.395 0 0 0-.234-.167c-.039-.013-.082-.017-.123-.022a6.363 6.363 0 0 1-.247-.041l-.2-.04-.199-.041c-.19-.039-.384-.072-.572-.105l-.166-.029a304.4 304.4 0 0 1-.903-.162.39.39 0 0 0-.07-.007m-38.656 68.21a.287.287 0 0 0-.214.099l-.225.066-.224.067a6.546 6.546 0 0 0-.638.217 7.14 7.14 0 0 0-.585.274 7.591 7.591 0 0 0-.59.35c-.31.199-.631.404-.926.638a1.29 1.29 0 0 0-.352.428c-.08.16-.107.34-.13.527-.02.167-.035.314-.045.45-.02.263-.028.608.074.936a1.928 1.928 0 0 0 .411.72c.042.048.087.094.13.138l.052.052c.174.178.365.354.57.523.24.198.5.383.75.561.152.108.309.22.46.334.107.085.213.174.314.263.09.079.179.173.273.29.05.069.092.14.129.22.026.07.045.14.059.21.005.068.005.136 0 .205a1.25 1.25 0 0 1-.057.205 1.168 1.168 0 0 1-.142.24 1.46 1.46 0 0 1-.155.156c-.138.098-.29.175-.419.237a4.148 4.148 0 0 1-.773.206l-.28.052-.177.033c-.081.015-.163.028-.245.041l-.203.034a4.002 4.002 0 0 0-.409.095c-.163.048-.32.116-.472.182l-.008.003c-.246.107-.487.264-.781.51a4.21 4.21 0 0 0-.65.707 2.81 2.81 0 0 0-.275.43c-.09.18-.156.376-.192.567l-.016.086-.03.157c-.008.045-.014.09-.02.136a2.662 2.662 0 0 0-.035.705c.027.257.102.48.222.665.067.102.146.187.243.26.068.05.146.098.246.148.174.087.368.16.612.226.147.04.298.073.444.103l.015.004c.265.055.539.096.803.135l.375.058.082.013c.174.028.354.057.53.09l.024.005c.191.037.389.075.572.144.076.037.154.084.24.145.023.02.046.043.068.067.025.038.048.08.07.126.073.197.108.409.14.596.011.113.014.23.008.368l-.004.123-.004.128-.003.087-.016.426a.307.307 0 0 0 .17.277c.002.05.017.097.042.141a.328.328 0 0 0 .193.148l.046.006.04.006a.325.325 0 0 0 .163-.044l.19-.081.037-.016.151-.066a4.14 4.14 0 0 1 .238-.088c.092-.03.187-.047.267-.06l.144-.016c.105-.012.214-.023.32-.04.114-.016.23-.051.332-.102a.496.496 0 0 0 .212-.188l.01-.013a.387.387 0 0 0 .05-.155.893.893 0 0 0 .014-.195l-.01-.167a9.178 9.178 0 0 1-.02-.729v-.26c.001-.539.003-1.096-.044-1.641a3.323 3.323 0 0 0-.063-.443.858.858 0 0 0-.458-.597 2.666 2.666 0 0 0-.656-.206c-.106-.021-.215-.038-.32-.055a10.106 10.106 0 0 1-.252-.042 3.071 3.071 0 0 1-.548-.146 1.407 1.407 0 0 1-.152-.086.94.94 0 0 1-.06-.059.967.967 0 0 1-.053-.085 1.058 1.058 0 0 1-.02-.082 1.258 1.258 0 0 1 .003-.204c.023-.128.05-.239.085-.336a.814.814 0 0 1 .042-.07 1.02 1.02 0 0 1 .104-.104c.155-.109.325-.187.456-.244.257-.103.524-.193.782-.28l.056-.018c.316-.106.613-.272.875-.419.071-.04.142-.08.212-.122.078-.046.152-.105.223-.162l.011-.01c.13-.104.248-.2.35-.312.1-.11.201-.237.31-.39.103-.147.18-.294.232-.448.055-.164.075-.34.094-.51l.002-.024c.03-.264.052-.503.026-.744a5.8 5.8 0 0 0-.08-.558 3.417 3.417 0 0 0-.343-.91 2.358 2.358 0 0 0-.303-.408 2.88 2.88 0 0 0-.4-.345 4.054 4.054 0 0 0-.395-.27c-.101-.059-.207-.115-.31-.17a4.392 4.392 0 0 1-.54-.318 1.817 1.817 0 0 1-.217-.204 2.374 2.374 0 0 1-.186-.328 1.033 1.033 0 0 1-.04-.152 1.43 1.43 0 0 1-.005-.257c.013-.082.026-.145.042-.202.024-.086.055-.178.091-.273a1.06 1.06 0 0 1 .069-.12 2.21 2.21 0 0 1 .285-.275c.071-.05.15-.099.252-.158l.01-.006c.144-.082.308-.176.349-.353.034-.15-.034-.286-.1-.418a8.951 8.951 0 0 1-.162-.356 7.95 7.95 0 0 1-.19-.496.296.296 0 0 0-.274-.209m31.221 12.7a.213.213 0 0 0-.2.14.24.24 0 0 0-.15.076 2.54 2.54 0 0 1-.247.23l-.081.07c-.064.056-.126.117-.186.176l-.06.059a21.168 21.168 0 0 0-.98 1.033 7.24 7.24 0 0 0-.257.303 39.333 39.333 0 0 0-.415.54l-.081.108a5.38 5.38 0 0 0-.468.699 1.179 1.179 0 0 0-.151.494.802.802 0 0 0 .027.255 1.158 1.158 0 0 0 .422.65c.08.062.173.101.264.14l.055.023a6.996 6.996 0 0 0 1.115.377c.09.024.18.047.27.073l.075.021.286.083c.129.037.278.081.42.137.193.089.387.201.591.345a1.9 1.9 0 0 1 .257.243c.048.067.09.139.127.221.067.167.117.352.148.552.022.194.019.401-.01.634-.047.31-.14.627-.292.996a3.403 3.403 0 0 1-.379.681 1.26 1.26 0 0 1-.18.18 3.964 3.964 0 0 1-.223.156.177.177 0 0 0-.083.17.261.261 0 0 0-.11.149.275.275 0 0 0 .033.213c.036.058.09.097.15.11l.073.015c.122.025.248.05.37.087.115.035.227.078.332.12l.027.011.117.05-.024-.01.076.033.048.02.03.013c.11.047.223.095.34.13.11.033.231.064.38.099a2.46 2.46 0 0 0 .466.056.718.718 0 0 0 .329-.075c.064-.03.121-.082.172-.128a.942.942 0 0 0 .069-.072l.008-.009c.077-.086.152-.176.225-.263l.018-.022c.04-.049.083-.096.125-.143l.105-.119.007-.009c.172-.202.35-.411.486-.643.12-.206.22-.428.31-.638.114-.269.206-.507.282-.728.095-.279.156-.497.196-.707.047-.243.053-.51.019-.795a5.889 5.889 0 0 0-.07-.42 2.807 2.807 0 0 0-.128-.482 2.852 2.852 0 0 0-.213-.43 2.664 2.664 0 0 0-.353-.492 3.49 3.49 0 0 0-.613-.49c-.198-.129-.416-.224-.626-.317l-.023-.01a8.794 8.794 0 0 1-.396-.182 2.585 2.585 0 0 1-.373-.229 4.177 4.177 0 0 1-.58-.547.649.649 0 0 1-.04-.063.271.271 0 0 1-.006-.025.743.743 0 0 1 0-.123.945.945 0 0 1 .041-.153c.025-.053.053-.101.086-.149a1.27 1.27 0 0 1 .15-.142c.12-.09.217-.153.312-.205l.082-.042c.035-.02.07-.038.106-.057a1.27 1.27 0 0 0 .17-.112c.03-.023.051-.053.073-.082l.016-.021a.293.293 0 0 0 .03-.082.213.213 0 0 0 0-.112c-.026-.162-.175-.26-.307-.345l-.015-.01-.199-.13a6.14 6.14 0 0 1-.314-.227l-.047-.036-.252-.197a3.593 3.593 0 0 1-.58-.565l-.017-.023c-.04-.054-.074-.087-.13-.102a.213.213 0 0 0-.057-.008m17.17-16.734a6.88 6.88 0 0 0-.403.012c-.276.017-.571.035-.865.058-.332.027-.656.055-.98.108a3.02 3.02 0 0 0-.465.11c-.05.016-.101.036-.15.055l-.048.02c-.122.047-.238.11-.35.17l-.033.017a10.21 10.21 0 0 0-.634.378 12.636 12.636 0 0 1-1.485.812c-.126.05-.263.1-.406.127a1.068 1.068 0 0 1-.114 0 .571.571 0 0 1-.067-.019.983.983 0 0 1-.125-.078 1.394 1.394 0 0 1-.168-.165c-.07-.098-.127-.208-.183-.314a1.515 1.515 0 0 0-.217-.338.579.579 0 0 0-.433-.2.653.653 0 0 0-.239.06l-.017.006a2.46 2.46 0 0 0-.2.088l-.209.105-.154.078-.674.338-.866.435a.175.175 0 0 0-.089.11.206.206 0 0 0 .018.16.19.19 0 0 0 .168.095.221.221 0 0 0 .051-.006c.153.282.312.574.465.862l.113.218c.102.198.207.401.328.59.036.054.078.106.118.156l.033.04c.096.12.232.2.33.247.137.065.3.136.467.168.343.066.688.094 1.01.113a9.391 9.391 0 0 0 .878.012c.2-.008.363-.022.512-.042a4.927 4.927 0 0 0 .862-.211c.152-.052.31-.115.512-.204l.321-.144c.162-.074.33-.15.497-.22l.013-.006.02-.008c.104-.04.209-.078.314-.115.098-.034.194-.066.29-.093.117-.031.245-.057.404-.08.167-.02.348-.03.552-.03.204 0 .406.01.594.02.204.011.475.028.75.06.152.026.313.059.47.114.019.01.038.02.057.032a.56.56 0 0 1 .04.04c.039.059.073.122.105.193.1.253.17.525.216.834.031.267.034.533.008.79a2.13 2.13 0 0 1-.13.435 4.823 4.823 0 0 1-.287.513l-.043.072c-.1.163-.198.329-.296.494a4.544 4.544 0 0 0-.487 1.085.31.31 0 0 0 .03.238.315.315 0 0 0 .248.16.302.302 0 0 0-.031.135c0 .084.034.168.094.227l.033.026.033.025a.32.32 0 0 0 .163.044l.014.001c.055.006.11.01.165.017.055.008.12.02.183.038.08.022.159.048.24.08.114.05.209.093.302.141.134.07.271.142.418.187a1.06 1.06 0 0 0 .266.044c.058 0 .114-.008.172-.018a.986.986 0 0 0 .215-.087.8.8 0 0 0 .32-.41l.014-.035.007-.015a2.2 2.2 0 0 0 .027-.067l.05-.134.023-.064c.053-.145.097-.268.138-.393a5.52 5.52 0 0 0 .111-.39c.065-.254.132-.516.222-.77.086-.243.168-.493.247-.734l.029-.09a7.22 7.22 0 0 0 .186-.758l.006-.026a13.248 13.248 0 0 0 .181-1.093c.006-.05.008-.1.01-.15l.003-.045a3.824 3.824 0 0 0-.003-.392l-.001-.023c-.008-.156-.015-.318-.04-.475a9.606 9.606 0 0 0-.076-.43 2.158 2.158 0 0 0-.114-.38 4.837 4.837 0 0 0-.108-.243l-.015-.034A2.41 2.41 0 0 0 91.71 79c-.19-.18-.39-.363-.597-.543l-.065-.056a10.737 10.737 0 0 0-.253-.216l-.13-.108-.073-.059a3.774 3.774 0 0 0-.18-.137 1.44 1.44 0 0 0-.315-.164 2.827 2.827 0 0 0-.874-.182 6.056 6.056 0 0 0-.409-.014M50.497 21.069c-.051 0-.102.001-.154.004a.39.39 0 0 0-.12.024.317.317 0 0 0-.067-.007.303.303 0 0 0-.272.154 4.91 4.91 0 0 0-.307.775 9.924 9.924 0 0 1-.225.623 3.91 3.91 0 0 1-.183.363 2.473 2.473 0 0 1-.175.258c-.07.082-.141.154-.217.22a.852.852 0 0 1-.174.102 1.708 1.708 0 0 1-.272.07c-.1.01-.203.014-.312.015h-.014a4.26 4.26 0 0 1-.305-.015l-.04-.002-.081-.006c-.22-.017-.45-.033-.674-.04l-.107-.004c-.21-.006-.426-.012-.638-.025-.21-.012-.437-.034-.692-.065a14.2 14.2 0 0 1-.409-.072 4.924 4.924 0 0 1-.192-.042c-.07-.016-.144-.033-.216-.046a5.393 5.393 0 0 0-.523-.071 1.912 1.912 0 0 0-.473.012c-.107.016-.21.038-.307.066l-.013.003c-.087.025-.176.05-.263.082-.12.045-.228.101-.357.17-.13.07-.253.155-.361.231-.236.164-.472.36-.722.598a3.47 3.47 0 0 0-.732 1.043l-.01.023c-.066.142-.134.288-.188.438a4.73 4.73 0 0 0-.204.848c-.05.299-.092.593-.125.874-.017.152-.036.305-.055.457l-.043.313c-.039.279-.078.527-.17.768-.019.04-.04.077-.061.11a.916.916 0 0 1-.022.023.655.655 0 0 1-.049.027 1.204 1.204 0 0 1-.19.05 2.387 2.387 0 0 1-.237.01c-.217 0-.435-.024-.647-.048a9.459 9.459 0 0 1-.398-.068c-.143-.028-.29-.065-.408-.094-.24-.06-.478-.133-.71-.205l-.118-.037c-.145-.045-.29-.086-.414-.12l-.123-.034-.125-.034a2.66 2.66 0 0 0-.504-.103c-.16-.02-.325-.026-.485-.032a8.882 8.882 0 0 0-.313-.006 5.25 5.25 0 0 0-.613.033c-.3.035-.599.106-.91.217a2.99 2.99 0 0 0-.8.428c-.208.158-.41.333-.604.503l-.185.16c-.117.1-.23.21-.339.315l-.105.102a51.1 51.1 0 0 0-.745.728.23.23 0 0 0 .047.357.202.202 0 0 0-.058.154c.003.048.023.09.056.117.233.188.456.385.672.575l.1.09c.065.06.132.12.2.176.115.094.243.169.378.223a.64.64 0 0 0 .255.052.426.426 0 0 0 .246-.103 1.49 1.49 0 0 0 .09-.08c.066-.064.13-.132.193-.197l.075-.078c.038-.04.076-.078.115-.116a6.164 6.164 0 0 0 .295-.314 5.661 5.661 0 0 1 .27-.295c.052-.055.111-.103.172-.151.132-.098.27-.18.424-.249.202-.074.423-.13.674-.173a5.752 5.752 0 0 1 .687-.039c.066 0 .127.008.2.017.107.017.235.04.365.076.115.033.23.07.343.108l.025.008c.219.072.457.148.727.232.183.057.368.12.547.18.301.103.612.208.924.29.108.03.219.052.326.073l.064.013a5.01 5.01 0 0 0 .686.083h.02c.074-.001.15-.01.223-.02l.017-.002c.17-.02.312-.04.454-.073.067-.016.13-.04.177-.059.083-.034.164-.067.244-.105.104-.049.211-.11.317-.184.127-.088.252-.186.371-.289.107-.092.2-.199.28-.292.074-.087.14-.183.206-.276l.204-.295a2.55 2.55 0 0 0 .218-.377l.005-.011c.044-.096.088-.19.13-.287v-.002l.008-.016v-.002l.002-.003-.001.002v-.004l.006-.01.006-.013.004-.01.07-.162c.073-.171.148-.348.218-.524a4.47 4.47 0 0 0 .2-.715c.049-.22.098-.448.17-.67.063-.2.139-.406.231-.629.054-.122.113-.251.181-.393.062-.127.13-.261.214-.383.061-.074.126-.14.2-.201a2.12 2.12 0 0 1 .33-.201c.147-.052.31-.076.453-.098l.227-.032.114-.016c.073-.01.146-.017.219-.025a6.08 6.08 0 0 0 .522-.074l.23-.047c.152-.032.309-.065.465-.09.122-.016.244-.028.362-.036a3.298 3.298 0 0 1 .433-.002c.263.013.53.048.788.082l.053.006-.032-.005c.293.04.539.064.772.075l.057.003c.114.006.231.012.347.012.168 0 .306-.013.435-.04.054-.011.109-.027.167-.048.089-.032.191-.073.28-.136.088-.062.157-.138.23-.218a3.476 3.476 0 0 0 .285-.362 1.64 1.64 0 0 0 .1-.17c.048-.087.093-.175.138-.263l.038-.074c.105-.203.206-.413.303-.615l.04-.085.15-.313c.062-.133.125-.265.189-.397l.199-.414.131-.273.067-.137c.031-.062.062-.124.091-.187l.008-.016c.02-.043.042-.088.053-.136a.386.386 0 0 0-.001-.189l-.004-.008-.003-.008a.323.323 0 0 0-.084-.143.438.438 0 0 0-.162-.115l-.01-.004a1.416 1.416 0 0 0-.149-.056c-.122-.036-.247-.06-.369-.085l-.127-.025a3.336 3.336 0 0 0-.514-.068l-.066-.003c-.057-.002-.115-.004-.173-.01a3.671 3.671 0 0 0-.558-.042"/>
        <path fill="#FFFC85" d="M17.611 29.865a.401.401 0 0 0-.186.042.945.945 0 0 0-.273.251c-.073.089-.146.177-.22.264l-.581.687a.292.292 0 0 0-.082.198c0 .073.03.146.082.198l.01.01a.29.29 0 0 0-.072.084.33.33 0 0 0 .117.444c.537.329 1.104.627 1.652.916.198.104.4.207.596.306l.211.107c.123.063.25.122.374.18l.078.036c.21.098.427.19.643.274.349.135.73.255 1.24.39a.328.328 0 0 0 .4-.227.32.32 0 0 0-.004-.184.314.314 0 0 0 .188-.293 10.046 10.046 0 0 0-.16-1.089l-.021-.107-.022-.108a1.05 1.05 0 0 0-.104-.296.448.448 0 0 0-.11-.122 1.2 1.2 0 0 0-.134-.093 4.35 4.35 0 0 0-.286-.154l-.115-.058c-.173-.09-.345-.183-.517-.275l-.292-.155-.19-.1-.254-.133c-.105-.057-.21-.12-.312-.181l-.075-.045-.2-.12c-.36-.218-.732-.443-1.132-.596a.706.706 0 0 0-.249-.05m61.6 4.592h-.023a.347.347 0 0 0-.281.157c-.033.046-.06.098-.086.147l-.02.04c-.026.047-.05.095-.073.143l-.029.057c-.053.106-.104.213-.155.32l-.034.07-.389.818-.505 1.077a.269.269 0 0 0-.026.198.259.259 0 0 0 .193.182.318.318 0 0 0-.073.505c.07.07.151.086.228.093l.122.013c.077.012.153.027.229.041.084.016.169.028.252.039l.011.001.01.001.033.005.008.001h.006v.001h.008v.001h.002l.01.002h.009l.014.003.012.001.012.002a2.87 2.87 0 0 0 .408.025.969.969 0 0 0 .415-.087.92.92 0 0 0 .269-.222l.135-.156.135-.155c.04-.046.078-.094.117-.141.049-.06.098-.12.15-.178.122-.137.25-.273.375-.405.08-.084.16-.169.238-.254a8.21 8.21 0 0 1 .153-.16.53.53 0 0 0 .137-.222c.037-.118-.01-.247-.066-.33a2.205 2.205 0 0 0-.304-.335 40.293 40.293 0 0 0-.51-.478l-.116-.107-.093-.086-.285-.263a2.821 2.821 0 0 0-.354-.278.504.504 0 0 0-.27-.086M60.52 11.743c-.063 0-.137.042-.177.064a.493.493 0 0 0-.073.05 2.08 2.08 0 0 1-.23.124c-.163.078-.33.15-.47.21-.071.029-.13.052-.195.069a.234.234 0 0 0-.206-.115.245.245 0 0 0-.173.07c-.04.04-.08.111-.072.173l.011.085.018.042.018.042c.002.005.006.01.009.014.118.354.23.717.34 1.068l.078.253.382 1.232.137.445c.033.105.13.179.237.179a.245.245 0 0 0 .064-.009.53.53 0 0 0 .078.007.283.283 0 0 0 .15-.042c.073-.045.14-.083.205-.114.167-.062.342-.106.512-.148a9.125 9.125 0 0 0 1.104-.342c.159-.061.335-.138.426-.285a.355.355 0 0 0 .055-.173.504.504 0 0 0-.017-.149 1.987 1.987 0 0 0-.07-.154.674.674 0 0 0-.038-.06l-.013-.02a23.553 23.553 0 0 0-.249-.371c-.117-.171-.236-.341-.354-.511l-.165-.236a21.363 21.363 0 0 1-.101-.148c-.062-.09-.123-.18-.187-.268l-.216-.298a8.337 8.337 0 0 0-.199-.261 1.82 1.82 0 0 0-.262-.28.75.75 0 0 0-.129-.086 1.436 1.436 0 0 0-.102-.041l-.109-.015h-.017m27.737 80.27c-.038 0-.077.001-.116.004a.333.333 0 0 0-.227.093.32.32 0 0 0-.037.406.297.297 0 0 0-.086.133c-.111.338-.23.68-.346 1.012-.097.28-.198.57-.294.858l-.02.058c-.047.144-.097.293-.141.442-.026.09-.044.185-.058.308a.345.345 0 0 0 .041.162.297.297 0 0 0 .118.108c.05.027.105.04.176.04.044 0 .088-.005.13-.01l.093-.007.047-.004c.136-.01.283-.018.464-.024l.047-.001c.081-.003.163-.006.244-.006a2.553 2.553 0 0 1 .328.018c.074.014.135.03.191.048a.486.486 0 0 0 .22.069.373.373 0 0 0 .172-.046.254.254 0 0 0 .082-.071.305.305 0 0 0 .08-.135c.04-.103.058-.217.075-.327.015-.092.027-.185.038-.277l.02-.16c.017-.13.033-.262.048-.393.039-.334.083-.696.136-1.107l.033-.21.027-.172c.006-.039.01-.078.014-.117.006-.048-.008-.1-.019-.144a.465.465 0 0 0-.209-.263 1.717 1.717 0 0 0-.33-.148c-.103-.038-.215-.055-.323-.072l-.016-.002a12.836 12.836 0 0 0-.292-.041 2.375 2.375 0 0 0-.31-.022m-61.28-12.097c-.045 0-.076.017-.114.047l-.302.234a88.54 88.54 0 0 0-1.128.882l-.125.1-.45.36-.095.076-.186.15-.08.066c-.113.092-.23.186-.328.297a.182.182 0 0 0-.053.125c0 .049.02.098.053.125l.02.018c.024.022.05.044.076.06.032.019.066.037.104.055.06.03.117.065.179.111.163.131.312.273.423.382l.05.049a4.51 4.51 0 0 1 .474.52l.023.029a15.168 15.168 0 0 1 .294.399l.019.027c.03.044.06.09.1.123l.046.035a.23.23 0 0 0 .115.031l.029.002a.35.35 0 0 0 .122-.024.973.973 0 0 0 .254-.16l.032-.025a12.528 12.528 0 0 0 .365-.295c.089-.071.179-.14.269-.209l.01-.008.115-.087c.15-.113.304-.23.46-.34.028-.019.057-.035.086-.052a.683.683 0 0 0 .254-.223l.01-.015a.417.417 0 0 0 .045-.089l.009-.023a.5.5 0 0 0 .03-.149l.001-.013a.607.607 0 0 0-.007-.141l-.002-.013-.005-.042c-.004-.035-.008-.07-.014-.105a1.501 1.501 0 0 0-.042-.183 7.387 7.387 0 0 0-.453-1.123 16.976 16.976 0 0 1-.11-.231 4.85 4.85 0 0 0-.1-.198l-.061-.12a.287.287 0 0 0-.256-.144.282.282 0 0 0-.076.01l.015-.012.019-.014c.032-.026.047-.077.047-.114a.161.161 0 0 0-.161-.161m40.054-6.695h-.087c-.066.002-.134.012-.199.021l-.043.007c-.078.01-.154.024-.23.037-.161.03-.303.057-.433.083l-.114.023a7.832 7.832 0 0 0-.512.115c-.22.06-.496.153-.68.35a.317.317 0 0 0-.05.379.314.314 0 0 0 .168.137l-.039.365-.038.367-.009.082a3.436 3.436 0 0 0-.03.484c.002.06.012.124.03.204.01.041.038.144.102.203.023.024.05.045.077.064l.024.012.012.006a.235.235 0 0 0 .119.032.425.425 0 0 0 .041.002.968.968 0 0 0 .152-.016l.023-.004.01-.002c.17-.02.344-.042.518-.047h.058c.154 0 .31.016.46.032l.061.006c.208.03.427.065.633.14l.081.032.03.006a.296.296 0 0 0 .155 0c.092-.014.174-.077.237-.182a.83.83 0 0 0 .076-.254c.015-.103.018-.208.021-.31l.002-.06c.006-.153.007-.305.007-.433 0-.248-.004-.5-.008-.744l-.002-.132-.001-.079c-.002-.121-.004-.243-.008-.365a.97.97 0 0 0-.03-.228.435.435 0 0 0-.195-.247.531.531 0 0 0-.268-.083 1.918 1.918 0 0 0-.12-.003"/>
        <path fill="#43D5FA" d="m75.34 24.98-.084.003c-.15.008-.308.027-.466.057a1.273 1.273 0 0 0-.441.191 1.85 1.85 0 0 0-.193.142 2.73 2.73 0 0 0-.377.314c-.072.073-.14.164-.207.277a.873.873 0 0 0-.079.172c-.025.08-.034.162-.042.235a1.141 1.141 0 0 0 .044.335c.028.094.076.196.148.31.146.232.369.397.547.515.444.295.88.454 1.298.472h.035c.125 0 .254-.028.352-.053.116-.03.23-.077.336-.123.134-.057.245-.107.353-.178a.85.85 0 0 0 .25-.243c.066-.1.106-.209.137-.301a2.409 2.409 0 0 0 .112-.597c.004-.067-.005-.134-.013-.199a1.585 1.585 0 0 0-.06-.296 1.397 1.397 0 0 0-.751-.834 2.25 2.25 0 0 0-.9-.199M36.125 35.807c-.142 0-.29.023-.428.066a.338.338 0 0 0-.227.234 3.515 3.515 0 0 0-.29.152c-.071.042-.14.09-.205.138l-.043.03c-.218.154-.316.425-.37.616-.03.108-.046.22-.06.33l-.003.023c-.016.119-.003.238.013.34.016.109.045.208.09.302.05.107.116.2.201.305.132.163.32.283.485.378.087.05.181.09.272.127l.034.014a3.654 3.654 0 0 0 1.274.269 1.218 1.218 0 0 0 .726-.222.926.926 0 0 0 .22-.183c.146-.177.216-.404.26-.583.05-.203.093-.42.065-.638a1.719 1.719 0 0 0-.041-.234.96.96 0 0 0-.033-.094l-.01-.025a3.869 3.869 0 0 0-.123-.287 2.015 2.015 0 0 0-.264-.42 1.376 1.376 0 0 0-.464-.376 3.078 3.078 0 0 0-.48-.179 2.362 2.362 0 0 0-.6-.083m15.395-23.9a1.19 1.19 0 0 0-.44.075 1.708 1.708 0 0 0-.397.215.351.351 0 0 0-.15.192.32.32 0 0 0-.01.064l-.003.007c-.095.241-.17.441-.234.63a5.874 5.874 0 0 0-.195.745l-.02.092a2.28 2.28 0 0 0-.05.26 1.83 1.83 0 0 0-.008.17c0 .053.01.105.018.157l.007.044c.006.04.021.079.036.117l.008.02.069.165a1.2 1.2 0 0 0 .214.322 1.276 1.276 0 0 0 .234.172c.096.054.208.087.305.111.113.029.231.044.346.06l.07.008a6.369 6.369 0 0 0 .85.064 2.812 2.812 0 0 0 .468-.037c.038-.006.077-.021.114-.035l.024-.01c.058-.02.115-.046.17-.07l.01-.005c.112-.05.214-.134.3-.209.109-.093.2-.209.267-.3.264-.355.37-.836.296-1.355a1.661 1.661 0 0 0-.437-.898 2.346 2.346 0 0 0-.518-.404 2.734 2.734 0 0 0-.599-.268 2.296 2.296 0 0 0-.37-.07 3.195 3.195 0 0 0-.342-.03h-.033m9.408 75.927a.88.88 0 0 0-.095.005.483.483 0 0 0-.156.037 1.046 1.046 0 0 0-.185.1c-.164.001-.34.03-.505.082a4.858 4.858 0 0 0-.643.262 1.01 1.01 0 0 0-.23.149l-.03.034a.726.726 0 0 0-.069.096c-.02.031-.035.067-.05.101l-.01.025a3.45 3.45 0 0 0-.126.324l-.04.124-.02.061-.015.045c-.03.093-.062.19-.083.287a1.272 1.272 0 0 0-.03.306c.003.118.038.24.111.383.045.088.111.167.176.242l.009.01c.054.064.118.12.18.174l.032.029c.08.07.168.136.252.198l.013.01a1.5 1.5 0 0 0 .287.168c.134.06.283.115.469.171a1.661 1.661 0 0 0 .526.08 1.04 1.04 0 0 0 .317-.052 1.2 1.2 0 0 0 .306-.174c.104-.076.207-.159.307-.246.043-.039.1-.09.153-.15.036-.04.068-.083.1-.124l.037-.05c.043-.055.086-.115.134-.184.059-.086.1-.184.136-.277.032-.085.057-.161.075-.233a4.06 4.06 0 0 0 .086-.447 1.285 1.285 0 0 0-.188-.855 1.389 1.389 0 0 0-.357-.368 2.12 2.12 0 0 0-.325-.183 2.761 2.761 0 0 0-.27-.114.827.827 0 0 0-.279-.046m-34.338.591a.282.282 0 0 0-.113.024 1.245 1.245 0 0 0-.133-.012 1.02 1.02 0 0 0-.253.037 1.734 1.734 0 0 0-.561.279l-.062.043c-.163.112-.343.252-.447.45-.092.173-.137.387-.142.674-.003.2.022.414.078.655.045.197.129.388.204.549l.02.04.04.088a1.1 1.1 0 0 0 .152.232c.03.037.08.08.137.117.038.024.076.046.123.068.1.047.211.09.343.13.108.032.192.055.271.073a1.733 1.733 0 0 0 .313.043.9.9 0 0 0 .155-.019l.014-.002c.072-.013.132-.026.189-.042.1-.028.195-.075.288-.12.09-.044.172-.093.251-.14l.017-.01c.076-.045.143-.086.204-.125.163-.106.334-.222.459-.38.063-.08.116-.156.163-.233.054-.09.09-.192.125-.29l.011-.033c.103-.286.142-.53.12-.742a1.16 1.16 0 0 0-.176-.52c-.065-.1-.14-.194-.223-.278a1.016 1.016 0 0 0-.1-.087l-.034-.026a1.488 1.488 0 0 0-.134-.098 1.77 1.77 0 0 0-.337-.176 1.44 1.44 0 0 0-.282-.093 4.379 4.379 0 0 0-.67-.075h-.01m74.463-11.695c-.062 0-.125.011-.187.022l-.036.006a2.054 2.054 0 0 0-.608.228c-.05.016-.095.033-.136.052a1.373 1.373 0 0 0-.224.136 1.72 1.72 0 0 0-.211.183 1.897 1.897 0 0 0-.211.267c-.135.193-.239.41-.339.618l-.04.085-.02.041c-.022.044-.045.09-.062.137a.56.56 0 0 0-.02.293c.038.215.163.398.28.549.123.156.262.294.414.41.156.12.338.204.555.258a3.406 3.406 0 0 0 .763.08c.214 0 .423-.036.605-.105a.99.99 0 0 0 .245-.131c.07-.05.128-.1.179-.152a2.083 2.083 0 0 0 .395-.577 2.97 2.97 0 0 0 .246-1.003 1.066 1.066 0 0 0-.018-.24l-.004-.027a1.37 1.37 0 0 0-.282-.629c-.175-.212-.446-.352-.852-.44a4.697 4.697 0 0 0-.166-.033 1.758 1.758 0 0 0-.245-.027l-.02-.001M84.68 35.16l-.065.001c-.15.012-.27.033-.38.067-.13.04-.222.08-.3.127a1.015 1.015 0 0 0-.107.079.824.824 0 0 0-.192.202c-.084.115-.14.24-.188.359a.669.669 0 0 0-.039.144 1.84 1.84 0 0 0-.019.478.317.317 0 0 0 .054.168c-.02.12-.03.24-.027.358.003.163.03.338.082.55.05.201.111.383.188.555.07.157.163.299.27.41.061.063.14.115.2.152a.886.886 0 0 0 .486.135c.14 0 .276-.024.403-.05.12-.025.238-.065.352-.103.062-.02.123-.043.184-.066.053-.02.106-.043.158-.065l.022-.009c.082-.035.16-.085.23-.133.082-.056.142-.103.195-.152.067-.063.123-.136.176-.206a2.01 2.01 0 0 0 .26-.52c.025-.07.048-.143.068-.21.027-.092.045-.193.052-.302a.667.667 0 0 0-.014-.145l-.004-.025a2.804 2.804 0 0 0-.18-.612 1.234 1.234 0 0 0-.366-.512 4.895 4.895 0 0 0-.368-.265c-.193-.13-.453-.29-.75-.363-.08-.019-.162-.029-.242-.039h-.007a1.129 1.129 0 0 0-.132-.009M58.515 6.998a.768.768 0 0 0-.175.02.462.462 0 0 0-.11.047l-.02.01a1.02 1.02 0 0 0-.318.32 2.713 2.713 0 0 0-.247.534.846.846 0 0 0-.056.301c0 .04.008.081.015.12l.006.033c.01.064.028.126.046.184l.01.032c.023.08.048.162.078.242.08.21.208.384.37.506.151.114.333.184.507.247.211.076.403.125.585.15.087.012.187.026.284.026h.016a1.594 1.594 0 0 0 .312-.029 1.037 1.037 0 0 0 .532-.325c.125-.144.19-.328.238-.49a1.17 1.17 0 0 0 .057-.426.913.913 0 0 0-.151-.437 1.551 1.551 0 0 0-.402-.391c-.095-.067-.199-.124-.299-.18l-.126-.07a4.06 4.06 0 0 1-.067-.04 1.457 1.457 0 0 0-.508-.207.485.485 0 0 0-.092-.01.325.325 0 0 0-.132-.086 1.158 1.158 0 0 0-.22-.069.736.736 0 0 0-.133-.012"/>
        <path fill="#68E7C0" d="M70.634 76.512a.333.333 0 0 0-.187.144c-.195.278-.383.561-.57.844-.124.185-.24.373-.357.561-.263.424-.534.847-.755 1.296a.29.29 0 0 0-.028.213.278.278 0 0 0 .342.193.3.3 0 0 0 .165-.127c.292-.395.544-.818.803-1.234.117-.19.234-.378.357-.564.193-.29.385-.58.584-.866a.303.303 0 0 0 .032-.242.316.316 0 0 0-.386-.218"/>
        <path fill="#68E7C0" d="M68.763 76.972a.325.325 0 0 0-.227.399c.025.088.079.14.15.193.43.318.858.637 1.285.957.17.132.34.263.507.397.224.178.444.361.674.531a.315.315 0 0 0 .379-.049.314.314 0 0 0 0-.44c-.165-.158-.343-.3-.521-.443-.194-.155-.39-.307-.586-.46-.463-.36-.938-.704-1.41-1.052a.272.272 0 0 0-.159-.045.357.357 0 0 0-.092.012"/>
        <path fill="#68E7C0" d="M69.369 76.041a.32.32 0 0 0-.222.389c.155.642.308 1.285.464 1.927.125.52.243 1.04.39 1.554a.296.296 0 0 0 .283.215c.152 0 .306-.134.294-.293a2.816 2.816 0 0 0-.07-.444l-.098-.412-.186-.781-.465-1.934a.317.317 0 0 0-.39-.22"/>
        <path fill="#68E7C0" d="M71.807 77.016c-.512.201-1.04.363-1.565.528a17.89 17.89 0 0 1-.686.195c-.385.104-.77.205-1.157.301a.3.3 0 0 0-.208.366c.044.158.21.247.367.207.387-.096.772-.196 1.157-.3.23-.062.459-.123.686-.193.27-.083.538-.167.806-.253.282-.09.561-.183.834-.3a.302.302 0 0 0-.159-.565.203.203 0 0 0-.075.014m-48.014-.928.01-.014-.044.057.02-.026.008-.01-.005.007.028-.037-.017.023m-.007.008-.04.051.042-.054-.002.003m-.677.873-.003.004.039-.05-.036.046m1.415-2.79a862.39 862.39 0 0 1-1.387 1.78c-.42.537-.848 1.07-1.262 1.614-.045.06-.089.118-.132.178-.075.105-.04.264.045.35.107.106.305.118.41 0 .085-.096.163-.198.242-.299l-.047.06a161.203 161.203 0 0 0 .704-.91l-.006.008.009-.01.023-.031-.034.044-.01.012c.225-.29.45-.578.673-.867l-.009.011 1.191-1.532.045-.059a.291.291 0 0 0-.045-.35.291.291 0 0 0-.205-.085c-.069 0-.16.029-.205.085"/>
        <path fill="#68E7C0" d="m24.968 76.823.032.025-.032-.025Zm-2.588-2.116a.303.303 0 0 0 .108.41c.286.18.572.361.855.547l.64.421c.062.04.12.087.178.13l.358.263c.137.1.271.205.405.308l-.004-.003c.166.135.333.267.482.42a.31.31 0 0 0 .435 0 .31.31 0 0 0 0-.433c-.197-.209-.433-.38-.662-.553-.234-.177-.47-.35-.708-.523-.07-.05-.139-.103-.211-.15l-.409-.268c-.35-.23-.701-.455-1.055-.677a.275.275 0 0 0-.147-.041.31.31 0 0 0-.265.149Z"/>
        <path fill="#68E7C0" d="M22.999 73.719a.304.304 0 0 0-.14.18 7.608 7.608 0 0 1-.01.08.3.3 0 0 0 .041.152c.437.979.875 1.957 1.296 2.942.048.117.091.234.125.357a.27.27 0 0 0 .452.119c.045-.045.087-.124.079-.19-.01-.072-.018-.143-.03-.214-.014-.076-.046-.15-.07-.223-.021-.059-.044-.116-.067-.174-.043-.11-.084-.222-.13-.331-.104-.247-.204-.495-.312-.74l-.82-1.85c-.03-.068-.113-.12-.181-.139a.303.303 0 0 0-.233.03"/>
        <path fill="#68E7C0" d="M25.55 74.539a2.44 2.44 0 0 1-.05.025c-.177.067-.36.118-.541.173-.173.053-.346.104-.517.163-.875.303-1.79.642-2.425 1.346-.09.1-.099.25 0 .349.092.091.26.1.35 0 .12-.133.253-.252.392-.364.142-.105.292-.197.447-.282.17-.094.347-.18.526-.257.37-.152.752-.28 1.138-.388.139-.04.278-.078.418-.114.073-.018.145-.036.217-.057a2.19 2.19 0 0 0 .323-.118c.063-.027.11-.102.128-.164a.276.276 0 0 0-.407-.312m13.192-60.47a105.515 105.515 0 0 1-.837 3.438c-.051.192-.1.386-.169.572a.23.23 0 0 0 .024.184.242.242 0 0 0 .143.11.242.242 0 0 0 .184-.024.253.253 0 0 0 .11-.143c.092-.243.152-.5.214-.752l.185-.755c.136-.56.267-1.119.398-1.679l.192-.828a.233.233 0 0 0-.16-.283.221.221 0 0 0-.059-.007c-.1 0-.201.066-.225.168"/>
        <path fill="#68E7C0" d="M36.498 15.972a.33.33 0 0 0 .095.23.342.342 0 0 0 .23.094c.68.045 1.362.09 2.042.137l.857.059c.285.02.571.033.854.067a.305.305 0 0 0 .293-.222c.042-.15-.05-.339-.212-.372-.297-.06-.603-.082-.905-.108-.289-.025-.578-.047-.868-.07-.686-.052-1.374-.093-2.06-.139h-.018c-.17 0-.308.162-.308.324"/>
        <path fill="#68E7C0" d="M37.34 14.942a.284.284 0 0 0 0 .4c.332.333.662.666.992 1l.443.445.207.206c.08.08.164.156.241.238.086.09.233.105.339.044a.28.28 0 0 0 .1-.381c-.065-.105-.154-.186-.24-.272a12.973 12.973 0 0 1-.204-.202l-.467-.465-1.01-1.013a.284.284 0 0 0-.4 0"/>
        <path fill="#68E7C0" d="M40.337 14.802a.318.318 0 0 0-.136.077c-.113.08-.236.147-.355.215-.115.066-.23.13-.345.194l-.822.45a59.48 59.48 0 0 1-1.864.956c-.157.08-.2.298-.116.442a.327.327 0 0 0 .194.148.34.34 0 0 0 .25-.032 62.369 62.369 0 0 0 2.707-1.42c.115-.062.229-.128.343-.194a2.57 2.57 0 0 0 .452-.307c.13-.116.118-.331 0-.448a.319.319 0 0 0-.224-.093l-.084.012m28.12 15.183c-.06.016-.135.063-.161.123-.265.606-.53 1.212-.8 1.816-.244.547-.484 1.097-.75 1.633-.053.106-.106.21-.173.309-.065.095-.037.237.041.315a.263.263 0 0 0 .185.076.252.252 0 0 0 .184-.076c.067-.08.125-.16.178-.25.016-.025.029-.052.043-.078.031-.058.063-.116.092-.175.06-.126.123-.251.18-.378.12-.264.24-.528.356-.793.257-.584.512-1.168.767-1.752l.163-.375.027-.064a.27.27 0 0 0-.332-.331"/>
        <path fill="#68E7C0" d="M66.219 31.155a.325.325 0 0 0-.227.399c.02.073.076.162.15.193.563.245 1.125.492 1.69.731.257.109.513.218.77.325l.348.145c.126.05.252.104.383.14a.308.308 0 0 0 .345-.139.306.306 0 0 0-.11-.416c-.111-.061-.229-.11-.346-.16-.115-.05-.23-.1-.345-.148l-.716-.306c-.565-.24-1.128-.487-1.691-.731l-.078-.033a.333.333 0 0 0-.173 0"/>
        <path fill="#68E7C0" d="M66.59 30.566a.326.326 0 0 0 0 .458c.322.326.644.652.969.976.133.133.265.266.4.398.156.155.316.308.47.467.09.094.24.11.352.046.13-.077.192-.265.104-.397a4.396 4.396 0 0 0-.446-.537c-.133-.144-.273-.282-.41-.422-.324-.332-.653-.66-.98-.989a.321.321 0 0 0-.23-.094.326.326 0 0 0-.23.094"/>
        <path fill="#68E7C0" d="M69.512 30.334c-.122.084-.25.16-.377.238l-.426.264-.743.459-1.833 1.134a.328.328 0 0 0-.116.444c.088.149.294.21.445.116l1.843-1.141.745-.46.42-.26c.17-.106.342-.207.496-.334a.31.31 0 0 0 .095-.228.322.322 0 0 0-.324-.323.344.344 0 0 0-.225.091m7.349-21.412-.018.044.018-.044m.115-1.15a8.262 8.262 0 0 0-.39.68 8.898 8.898 0 0 0-.299.69l-.22.55c-.126.318-.243.64-.373.957a2.117 2.117 0 0 1-.084.165.209.209 0 0 0 .074.283.208.208 0 0 0 .16.02c.057-.015.09-.05.124-.094.045-.058.089-.118.12-.184l.06-.122c.04-.084.07-.174.105-.261.055-.14.102-.285.155-.426.133-.36.27-.718.418-1.072 0 .003-.002.005-.003.008a6.12 6.12 0 0 1 .522-.979.214.214 0 0 0-.182-.32.222.222 0 0 0-.187.104"/>
        <path fill="#68E7C0" d="m77.301 9.913.011.001a.422.422 0 0 1-.011-.001m-2.653-1.134a.3.3 0 0 0 .107.407c.225.142.45.28.679.415l.334.196c.055.032.11.068.166.097l.577.293c.167.084.332.167.506.236.047.02.095.037.143.053.042.012.085.02.128.022a.296.296 0 0 0 .129-.006.405.405 0 0 0 .3-.212.29.29 0 0 0-.046-.35.296.296 0 0 0-.363-.038c-.05-.016-.1-.036-.15-.056-.204-.09-.403-.197-.603-.298-.122-.06-.248-.118-.366-.187l-.524-.306c-.206-.12-.407-.246-.609-.372a.27.27 0 0 0-.145-.042.309.309 0 0 0-.263.148"/>
        <path fill="#68E7C0" d="M76.906 10.967a.235.235 0 0 1 .018.041l-.018-.04Zm-.006-.008.042.054a10.784 10.784 0 0 1-.041-.054Zm-.016-.02a.297.297 0 0 1 .007.008l.01.012a.141.141 0 0 1 .003.005l-.02-.026Zm-1.564-2.75a.325.325 0 0 0-.15.194c-.021.076-.016.182.033.25l.902 1.238.366.504.15.206c.066.09.13.182.197.272a.264.264 0 0 0 .132.241.455.455 0 0 0 .201.067.295.295 0 0 0 .223-.085.36.36 0 0 0 .058-.072l.038-.089a.308.308 0 0 0 0-.163.678.678 0 0 0-.055-.14c-.04-.084-.099-.161-.152-.237l-.117-.164c-.14-.198-.283-.394-.424-.59-.318-.44-.638-.878-.957-1.316a.35.35 0 0 0-.195-.149.325.325 0 0 0-.25.033Z"/>
        <path fill="#68E7C0" d="M77.698 8.792a1.976 1.976 0 0 1-.096.048c-.344.144-.69.284-1.035.426l-.674.28c-.228.094-.456.193-.68.298-.277.13-.54.286-.8.449a.308.308 0 0 0-.11.417.31.31 0 0 0 .42.11c.208-.132.42-.258.64-.371.237-.122.484-.224.729-.328.276-.114.552-.228.829-.34l.46-.19.279-.116c.117-.049.236-.093.344-.16a.306.306 0 0 0 .11-.414.3.3 0 0 0-.262-.148.323.323 0 0 0-.154.04m29.94 61.172a64.45 64.45 0 0 0-2.268 3.002.282.282 0 0 0-.03.224.293.293 0 0 0 .36.203l.069-.03a.293.293 0 0 0 .105-.104c.232-.301.458-.607.685-.913.192-.258.38-.519.577-.773.212-.272.424-.544.634-.816.097-.124.196-.246.294-.369l.047-.06a.298.298 0 0 0-.047-.364.303.303 0 0 0-.213-.088c-.072 0-.166.03-.213.088"/>
        <path fill="#68E7C0" d="M107.653 72.157a.438.438 0 0 1-.029.004l.029-.004m-.04-.01.024.003a.518.518 0 0 1-.025-.003m.116-.013-.01.004.01-.004m-.134-.008.017.008-.017-.008m-2.261-1.851a.326.326 0 0 0-.117.443c.165.263.352.512.556.747.207.237.451.439.694.638.122.1.249.195.376.288.113.082.226.167.346.239.07.042.148.07.223.1a.64.64 0 0 0 .238.039 7.46 7.46 0 0 0 .132-.019.476.476 0 0 0 .121-.043.809.809 0 0 0 .219-.161.302.302 0 0 0 0-.424.303.303 0 0 0-.212-.087 6.675 6.675 0 0 0-.08.01.297.297 0 0 0-.128.073.396.396 0 0 1-.028.017l-.01.002h-.01a.442.442 0 0 1-.028-.007 1.876 1.876 0 0 1-.28-.172c-.11-.08-.218-.157-.325-.238a9.653 9.653 0 0 1-.474-.398 4.192 4.192 0 0 1-.768-.931.337.337 0 0 0-.285-.16.316.316 0 0 0-.16.044"/>
        <path fill="#68E7C0" d="M106.11 70.097a.273.273 0 0 0-.163.125.26.26 0 0 0-.027.208c.234.63.466 1.259.702 1.888l.3.802c.05.13.098.26.149.389l.083.21c.033.083.069.169.12.243.063.092.167.144.28.113a.25.25 0 0 0 .174-.304c-.04-.137-.09-.27-.139-.405l-.144-.39-.299-.802-.703-1.888a.287.287 0 0 0-.124-.162.274.274 0 0 0-.21-.027"/>
        <path fill="#68E7C0" d="M108.456 71.118c-.069.02-.14.03-.21.041-.464.056-.93.095-1.395.135-.234.02-.47.026-.703.04-.377.02-.754.038-1.132.055a.33.33 0 0 0-.325.324c0 .17.148.332.325.324.398-.018.796-.037 1.194-.06.246-.013.492-.022.737-.044.275-.024.55-.047.826-.076.126-.013.251-.027.377-.044.098-.013.196-.025.294-.04.105-.018.21-.043.305-.09.02-.01.04-.02.057-.035l.064-.05c.027-.031.051-.064.074-.098.079-.115.045-.284-.05-.378a.33.33 0 0 0-.23-.091.278.278 0 0 0-.208.087"/>
        <path fill="#FFAFBE" d="M56.951 75.778c-.063.037-.135.112-.146.189-.03.212-.074.422-.116.632l-.066.33c-.008.042-.014.085-.026.127l-.307 1.089c-.011.042-.028.082-.042.123l-.123.356-.145.42c-.12.337-.237.674-.365 1.008-.014.037-.03.074-.046.111a.316.316 0 0 0 .389.387c.071-.019.158-.074.19-.144.155-.36.282-.73.412-1.099.116-.327.227-.656.34-.984.011-.033.02-.068.029-.102l.09-.32.18-.638c.034-.123.053-.25.078-.375l.113-.566c.013-.062.019-.125.028-.187l.01-.084a.318.318 0 0 0-.232-.305.316.316 0 0 0-.245.032m20.575-1.46a.326.326 0 0 0-.117.443l.935 1.285.252.348.189.26c.106.148.198.302.273.467.017.042.034.084.049.126a.34.34 0 0 0 .149.194.329.329 0 0 0 .25.033c.163-.045.286-.232.227-.399a3.3 3.3 0 0 0-.19-.44c-.07-.134-.16-.257-.249-.38l-.346-.477-.978-1.344a.347.347 0 0 0-.194-.15.322.322 0 0 0-.25.033m-26.89 23.3c-.136.643-.27 1.286-.427 1.924a48.1 48.1 0 0 1-.204.79c-.068.258-.142.514-.201.774a.264.264 0 0 0 .182.32c.067.019.14.01.201-.026.053-.03.11-.092.12-.155.042-.263.101-.522.16-.781l.179-.777c.146-.649.28-1.3.417-1.951a.23.23 0 0 0-.023-.17.222.222 0 0 0-.188-.109c-.096 0-.195.063-.216.162M18.823 76.706l-.024.019.025-.02-.001.001m.055-.042-.03.023-.038.03.068-.053m.664-1.222-.614.377c-.087.054-.169.119-.252.177-.09.064-.181.126-.268.193l.065-.05c-.17.13-.34.26-.509.392l.048-.037c-.18.14-.355.285-.53.432-.177.15-.357.297-.523.46a.322.322 0 0 0 0 .452.32.32 0 0 0 .453 0c.162-.142.325-.281.49-.42.168-.141.335-.285.51-.419l-.067.05.459-.353.002-.001.02-.016-.02.015.45-.315c.077-.054.162-.1.242-.149l.372-.228a.327.327 0 0 0 .117-.443.334.334 0 0 0-.286-.16.305.305 0 0 0-.16.043m10.27-54.55a.326.326 0 0 0-.227.4.342.342 0 0 0 .15.193c.05.034.097.07.145.106.372.307.735.626 1.098.944l1.288 1.133c.066.059.14.095.23.095a.327.327 0 0 0 .23-.095c.12-.119.133-.34 0-.458-.466-.41-.93-.82-1.397-1.228-.2-.176-.402-.35-.603-.525a7.919 7.919 0 0 0-.663-.532.285.285 0 0 0-.16-.044.344.344 0 0 0-.09.012M41.973 8.085c.007.796.021 1.592.033 2.388a.328.328 0 0 0 .326.324.327.327 0 0 0 .325-.324c-.013-.796-.026-1.592-.034-2.388a.328.328 0 0 0-.325-.324.327.327 0 0 0-.325.324m54.118 23.43c-.407.306-.82.602-1.23.905-.516.382-1.023.776-1.524 1.177-.063.051-.095.152-.095.23a.325.325 0 0 0 .325.324c.093 0 .16-.04.23-.095.342-.274.688-.544 1.035-.812l.776-.574c.27-.198.543-.394.811-.595l.066-.051a.324.324 0 0 0-.236-.553.267.267 0 0 0-.158.044m-43.32 5.357a.326.326 0 0 0 0 .458c.187.183.357.383.531.578.16.18.318.363.477.544l1.153 1.322c.116.134.34.119.46 0a.325.325 0 0 0 .094-.229.338.338 0 0 0-.095-.229l-1.144-1.313c-.158-.18-.314-.362-.473-.54-.178-.2-.352-.405-.544-.59a.333.333 0 0 0-.232-.094.321.321 0 0 0-.228.093m20.411-.167-.009.004c-.427.169-.86.323-1.292.481-.536.196-1.076.382-1.614.571a.343.343 0 0 0-.194.15.325.325 0 0 0 .367.475c.545-.191 1.09-.38 1.632-.578l.693-.254c.25-.093.5-.185.743-.293.073-.033.129-.12.149-.193a.321.321 0 0 0-.226-.396 6.993 6.993 0 0 0-.086-.011.321.321 0 0 0-.163.044m-2.017-18.376a.348.348 0 0 0-.096.23c-.04.377-.086.755-.118 1.134-.026.31-.056.621-.06.934a.302.302 0 0 0 .515.213l.046-.061a.297.297 0 0 0 .042-.152c.081-.689.152-1.379.226-2.068.008-.081-.04-.174-.096-.23a.327.327 0 0 0-.46 0m-15.952 8.03a.327.327 0 0 0 .117.443c.684.395 1.365.795 2.056 1.178.15.083.344.037.433-.114a.318.318 0 0 0-.114-.43c-.676-.408-1.363-.798-2.047-1.193a.327.327 0 0 0-.445.116M81.48 90.622a80.87 80.87 0 0 1-.303 1.174c-.064.238-.124.476-.196.711l-.254.822c-.083.269-.16.542-.261.805a.316.316 0 0 0 .144.355.316.316 0 0 0 .243.031c.071-.02.156-.074.188-.144.118-.264.204-.541.292-.817.091-.284.179-.57.267-.855.072-.233.132-.47.195-.705.108-.4.212-.802.312-1.205a.328.328 0 0 0-.31-.41.326.326 0 0 0-.317.238m5.454 9.519c-.452.271-.904.542-1.355.816l-.523.32a4.39 4.39 0 0 0-.586.412c-.106.093-.117.267-.05.384a.321.321 0 0 0 .436.114c.338-.243.697-.455 1.052-.67.45-.274.902-.546 1.355-.817a.327.327 0 0 0 .116-.443.332.332 0 0 0-.284-.16.31.31 0 0 0-.16.044m-48 2.28a.288.288 0 0 0-.2.352c.017.064.066.144.13.17l.373.157-.07-.029c.468.196.935.393 1.396.603.23.105.461.209.69.318.1.047.2.092.297.142.139.072.281.14.411.226a.3.3 0 0 0 .168.124.295.295 0 0 0 .332-.43.5.5 0 0 0-.071-.101 1.527 1.527 0 0 0-.262-.183c-.063-.036-.128-.066-.193-.099-.11-.055-.222-.107-.334-.159a75.18 75.18 0 0 0-.768-.346c-.578-.259-1.163-.5-1.747-.745a.289.289 0 0 0-.153 0M36.89 74.597a.327.327 0 0 0-.117.443l.92 1.676c.264.482.536.962.789 1.451.08.155.294.199.438.115a.322.322 0 0 0 .148-.191.337.337 0 0 0-.033-.247c-.126-.264-.269-.52-.409-.776-.123-.227-.248-.453-.372-.68l-.92-1.675a.32.32 0 0 0-.281-.16.323.323 0 0 0-.163.044M19.807 86.16a.214.214 0 0 0-.148.26c.12.52.236 1.043.344 1.567.094.461.18.924.276 1.385.028.13.178.203.3.17a.245.245 0 0 0 .17-.298c-.12-.455-.22-.915-.323-1.373a168.35 168.35 0 0 0-.358-1.564c-.022-.094-.114-.155-.207-.155a.203.203 0 0 0-.054.008m80.61-50.78a.325.325 0 0 0-.095.229c0 .089.036.164.095.229.23.254.448.518.668.78.146.193.292.384.434.58.175.238.354.476.496.736a.328.328 0 0 0 .444.116.327.327 0 0 0 .117-.443 4.851 4.851 0 0 0-.346-.533c-.122-.167-.244-.334-.37-.5-.13-.172-.258-.346-.397-.512-.193-.23-.385-.46-.586-.683a.297.297 0 0 0-.224-.094.338.338 0 0 0-.236.094"/>
    </g>
</svg>
