<svg viewBox="0 0 115 116" xmlns="http://www.w3.org/2000/svg"><g fill="none" fill-rule="evenodd"><path d="M51.866 1.38h.018l.39-.035h.01a73.814 73.814 0 013.652-.206 75.635 75.635 0 01.877-.016c.2-.002.4-.003.601-.003.117 0 .234-.002.355-.004l.075-.001c.135-.003.268-.003.401-.003l.145.003a.55.55 0 00.054.004l.58.015.037.002.215.007.111.004h.009a.834.834 0 00.038.002l.278.011.037.002.021.001.507.024.01.001h.01c.399.023.755.045 1.09.066l.008.001c1.255.095 2.48.22 3.64.37a63.3 63.3 0 014.44.786l.174.038.17.038.048.011c1.542.357 3.056.767 4.5 1.22a57.668 57.668 0 014.99 1.83c.67.284 1.326.576 2.004.895.25.112.527.244.848.405l.015.008.136.066c.133.064.265.13.397.195l.03.016c.099.05.185.092.236.116a57.76 57.76 0 018.936 5.668 59.66 59.66 0 015.402 4.765 58.74 58.74 0 014.83 5.483 59.185 59.185 0 013.933 5.834 55.95 55.95 0 013.4 6.753 75.946 75.946 0 011.528 3.99.587.587 0 00.028.072c.198.581.41 1.24.63 1.958.221.71.421 1.423.652 2.276.02.055.04.1.061.135.027.09.054.196.082.325l.01.013.017.068.021.11c.084.32.145.59.238 1l.008.035.004.018.004.018.005.02.003.013c.115.548.223 1.107.34 1.761.011.093.026.187.046.285l.001.009c.038.234.073.445.104.646l.03.192.002.022c.035.229.075.494.112.757.147 1.126.276 2.298.384 3.483a.393.393 0 00.015.107 56.057 56.057 0 01.195 3.192c.005.21.01.42.011.63v.04c0 .689-.012 1.468-.038 2.316a50.132 50.132 0 01-.144 2.422 15.5 15.5 0 00-.097.884v.013l-.002.012v.016l-.002.01v.008l-.002.012-.006.065-.037.395c-.04.38-.095.85-.178 1.527v.012l-.003.015-.026.198-.014.105-.022.158a.41.41 0 00-.01.088l-.009.071-.003.02-.014.109-.01.066-.009.075v.028l-.04.287-.01.074-.009.065.001.043c-.035.24-.072.477-.108.701l-.003.026-.009.063-.01.077c-.103.634-.22 1.268-.348 1.883-.089.411-.197.895-.322 1.439l-.009.038-.009.042-.009.035-.002.013-.002.012c-.083.338-.18.72-.292 1.136l-.007.03-.006.02-.003.011-.005.021-.01.04-.003.01-.007.021-.004.019-.003.009-.004.015-.049.182a57.424 57.424 0 01-2.14 6.496c-.023.047-.048.112-.063.15l-.005.012-.006.013-.004.01-.004.012-.003.008-.004.01-.003.008-.004.01-.005.012-.028.072c-.088.224-.197.49-.334.815l-.014.03-.007.017-.003.006a58.606 58.606 0 01-3.06 6.154 56.524 56.524 0 01-3.399 5.24.362.362 0 00-.065.089c-.248.334-.515.69-.793 1.056a60.568 60.568 0 01-4.672 5.332 58.786 58.786 0 01-5.587 4.945 59.43 59.43 0 01-5.896 3.985 55.736 55.736 0 01-6.68 3.367 57.436 57.436 0 01-6.918 2.398 56.495 56.495 0 01-7.43 1.529 59.35 59.35 0 01-7.694.504h-.09a57.395 57.395 0 01-7.422-.502 60.905 60.905 0 01-4.765-.858 55.612 55.612 0 01-5.453-1.516 55.193 55.193 0 01-7.27-2.994 57.886 57.886 0 01-4.753-2.656 56.751 56.751 0 01-4.714-3.248 58.418 58.418 0 01-10.155-10.18 59.096 59.096 0 01-3.292-4.741A56.618 56.618 0 017.25 83.66a59.406 59.406 0 01-2.954-6.658l-.156-.42c-.05-.13-.1-.258-.154-.391-.132-.36-.261-.72-.39-1.081a25.704 25.704 0 01-.397-1.218l-.002-.008-.002-.007-.003-.01-.005-.017-.003-.008-.004-.014c-.256-.824-.505-1.7-.74-2.602a.224.224 0 00-.022-.055 56.442 56.442 0 01-.749-3.51c-.062-.348-.129-.736-.211-1.216l-.006-.035-.005-.026-.003-.017-.006-.04-.013-.07-.015-.096a68.963 68.963 0 01-.269-1.78 81.58 81.58 0 01-.185-1.63 93.29 93.29 0 01-.151-1.74 61.362 61.362 0 01-.087-1.629 67.586 67.586 0 01-.025-.805v-.015l-.002-.071-.007-.205v-.023l-.002-.078-.003-.08-.004-.033-.005-.033a58.332 58.332 0 01-.01-1.891c.006-.706.042-1.458.075-2.108.068-1.216.165-2.31.297-3.343.04-.27.057-.38.077-.492a.196.196 0 00.046-.105c.009-.053.018-.108.035-.178a.397.397 0 00.078-.14 1.43 1.43 0 00.066-.308l.009-.051.019-.083a.306.306 0 00.036-.102c.021-.125.04-.23.06-.32a.343.343 0 00.035-.098.347.347 0 00.01-.07l.051-.261.002-.016.013-.057.02-.107.002-.008c.104-.536.199-1.019.282-1.435.193-.91.39-1.774.59-2.567a.543.543 0 00.021-.07c.043-.161.084-.324.128-.493l.007-.029c.044-.172.088-.344.134-.516.073-.286.158-.582.232-.838l.01-.035.008-.03.003-.008.005-.02.004-.012.01-.033.03-.11c.19-.678.416-1.406.711-2.289a53.938 53.938 0 011.523-4.053 57.46 57.46 0 017.414-12.687 60.728 60.728 0 014.616-5.252 58.35 58.35 0 015.515-4.882 59.54 59.54 0 015.75-3.908l.093-.055.013-.008.06-.036.055-.033.069-.04.037-.023.007-.005c.253-.152.44-.266.606-.37.089-.064.18-.12.271-.164l.471-.27.023-.013a.436.436 0 00.1-.072c.199-.115.417-.235.666-.366a.78.78 0 00.072-.049l.314-.167a.883.883 0 00.074-.05c.502-.272 1.041-.546 1.695-.862.551-.273 1.126-.54 1.81-.84a.449.449 0 00.053-.034c.204-.093.41-.183.666-.29a57.987 57.987 0 013.791-1.442c.67-.226 1.376-.446 2.097-.656.927-.271 1.667-.467 2.402-.636.932-.2 1.648-.353 2.371-.484l.189-.033.076-.013.084-.015.03-.006.018-.003.033-.006.015-.003.01-.002.527-.094c.21-.036.428-.069.594-.094l.033-.005a.422.422 0 00.168-.015l.567-.083c.665-.082 1.38-.165 2.185-.254a.467.467 0 00.047.003c.148-.007.263-.017.361-.032a.37.37 0 00.084.003c.13-.01.259-.022.391-.034l.009-.001h.017l.028-.001zM57.414 0h-.01L57 .001h-.018l-.027.001h-.014l-.412.005h-.059l-.448.01H56a65.412 65.412 0 00-.445.014 59.25 59.25 0 00-3.266.2c-.01 0-.019.002-.028.003-.13.012-.26.024-.39.038l-.123.016-.323.036a.775.775 0 00-.153.024l-.01.002a.537.537 0 00-.033.01c-.132.016-.263.032-.394.052a.6.6 0 00-.039.012c-.962.124-1.92.278-2.876.448a.524.524 0 00-.06.021c-.567.104-1.136.207-1.699.332a58.89 58.89 0 00-2.345.553c-.8.212-1.6.418-2.395.648-.704.204-1.405.421-2.102.65a.274.274 0 00-.043.011 63.342 63.342 0 00-4.552 1.703.465.465 0 00-.15.055c-.614.26-1.223.53-1.828.809-.567.261-1.127.536-1.685.814a.674.674 0 00-.114.046l-.293.15a.53.53 0 00-.105.045l-.66.346a.647.647 0 00-.13.053c-.259.138-.514.288-.78.413l-.39.206c-.195.104-.383.221-.572.333a52.196 52.196 0 00-1.56.962 59.378 59.378 0 00-8.05 6.199 57.387 57.387 0 00-7.142 7.905 57.07 57.07 0 00-5.32 8.57 57.317 57.317 0 00-3.827 9.689c-.128.432-.246.866-.362 1.302-.111.418-.22.838-.316 1.26a.549.549 0 00-.017.09 45.872 45.872 0 00-.853 4.63c0 .013-.002.024-.004.035a.293.293 0 00.006.1l-.027.2a.642.642 0 00-.012.092l-.004.026h.003c0 .033.002.066.009.098l-.018.15c-.02.106-.027.213-.02.32 0 .06.015.117.039.169l-.012.107a.342.342 0 00-.005.05l-.001.015h.001c0 .04.008.08.021.117a89.789 89.789 0 00-.325 3.217 68.148 68.148 0 00-.207 4.477c-.002.143-.01.28-.014.423-.002.373.005.746.013 1.12.016.729.05 1.457.087 2.186.037.756.104 1.508.174 2.261.067.726.151 1.45.248 2.171l-.003-.023.008.064-.005-.04.01.073-.003-.016.004.026c.102.76.223 1.517.365 2.27.19 1.014.412 2.023.651 3.026a.454.454 0 00.015.082c.278 1.17.59 2.329.94 3.478.088.288.171.578.258.866.068.225.142.448.214.672.031.132.07.26.12.387a50.19 50.19 0 00.45 1.26 49.798 49.798 0 001.308 3.166c.427.954.885 1.893 1.364 2.821l.012.024.048.092.051.098a68.39 68.39 0 00.48.897l.038.068.007.014.15.272.013.021c.446.8.91 1.589 1.391 2.367l.004.005.034.055.016.027a59.824 59.824 0 004.803 6.61 56.918 56.918 0 005.47 5.676 54.879 54.879 0 003.022 2.538A67.792 67.792 0 0025 105.275a55.93 55.93 0 006.686 3.937l.013.006.065.032.133.067.031.014a59.125 59.125 0 007.285 2.999l.02.007c.034.01.067.022.1.033l.01.003a58.368 58.368 0 005.01 1.406 58.488 58.488 0 0014.473 1.472 58.053 58.053 0 0010.077-1.132 56.64 56.64 0 0010.041-3.018 57.829 57.829 0 007.308-3.566 58.223 58.223 0 006.646-4.502 57.423 57.423 0 005.97-5.376 58.27 58.27 0 005.014-5.949.637.637 0 00.07-.094l.016-.024.01-.012a59.042 59.042 0 003.45-5.311 56.313 56.313 0 003.051-6.158.762.762 0 00.052-.126 57.267 57.267 0 001.277-3.327 56.61 56.61 0 001.131-3.666c.534-1.946.922-3.928 1.261-5.916a.267.267 0 00.015-.054c.045-.278.09-.557.133-.835a.415.415 0 00.02-.068l.062-.427.007-.025v-.001a.492.492 0 00.02-.138 51.293 51.293 0 00.297-2.753c.03-.359.063-.72.06-1.08l.007-.155c.005-.12.011-.24.018-.358a53.33 53.33 0 00.068-1.937 59.62 59.62 0 00-.004-2.37l-.01-.608v-.044c-.014-.572-.03-1.144-.053-1.715-.02-.497-.052-.993-.085-1.488a.303.303 0 00.001-.06 50.035 50.035 0 00-.214-2.187 56.688 56.688 0 00-.325-2.209c-.108-.671-.238-1.338-.368-2.005-.092-.476-.194-.95-.296-1.424l-.145-.665c-.035-.161-.076-.322-.11-.485a.404.404 0 00-.017-.184 37 37 0 00-.578-2.296 45.198 45.198 0 00-.597-1.97.409.409 0 00-.017-.071 44.15 44.15 0 00-.88-2.53c-.285-.74-.589-1.471-.903-2.198a57.041 57.041 0 00-4.851-8.929 59.26 59.26 0 00-2.769-3.816 57.499 57.499 0 00-7.08-7.502 58.039 58.039 0 00-8.422-6.195 58.92 58.92 0 00-3.645-2.022c-.067-.044-.139-.074-.218-.114-.196-.101-.395-.2-.592-.299a55.309 55.309 0 00-3.567-1.602 56.224 56.224 0 00-4.397-1.592l-.025-.008-.079-.025-.136-.042a59.09 59.09 0 00-4.11-1.111l-.025-.007a45.854 45.854 0 00-.428-.097l-.007-.001-.007-.002a74.428 74.428 0 00-.367-.08A59.277 59.277 0 0061.637.157h-.01a50.805 50.805 0 00-.928-.06h-.002l-.055-.003h-.016a75.368 75.368 0 00-.362-.019 56.098 56.098 0 00-.494-.021h-.025a34.388 34.388 0 00-.731-.022l-.57-.011c-.022 0-.043 0-.064.002h-.08c-.099-.004-.198-.006-.297-.008-.195-.006-.39-.014-.584-.014h-.005z" fill="#FFF"/><path d="M58.245 1.112c-.133 0-.266 0-.4.003l-.077.001c-.12.002-.237.004-.354.004a91.515 91.515 0 00-1.033.01c-.148.002-.297.005-.445.009a73.569 73.569 0 00-3.652.205l-.011.001-.39.034-.017.002a.267.267 0 01-.028.002l-.017-.001h-.009a175.522 175.522 0 01-.417.037.369.369 0 01-.058-.005 3.347 3.347 0 01-.361.032c-.014 0-.03 0-.047-.002-.806.088-1.52.171-2.186.253l-.567.083a.424.424 0 01-.167.015l-.033.005c-.166.025-.384.059-.594.094-.175.03-.35.062-.526.094l-.01.002-.017.003-.032.006-.018.003-.03.006-.085.015-.075.014-.189.032c-.723.131-1.439.284-2.371.484a41.23 41.23 0 00-2.402.635 54.518 54.518 0 00-2.11.662c-1.307.447-2.578.93-3.778 1.436a22.85 22.85 0 00-.666.291.454.454 0 01-.054.033c-.683.3-1.258.568-1.81.841-.653.316-1.192.59-1.694.862a.882.882 0 01-.075.05l-.313.167a.81.81 0 01-.072.048c-.25.132-.467.252-.666.367a.437.437 0 01-.1.072l-.023.013c-.157.09-.315.179-.47.27-.092.044-.183.1-.272.165-.166.103-.353.217-.606.369l-.007.005-.038.022-.069.041-.054.033-.06.036-.013.008-.093.055a59.514 59.514 0 00-5.75 3.907 58.302 58.302 0 00-5.515 4.883 60.681 60.681 0 00-4.616 5.252 57.45 57.45 0 00-7.414 12.687 54.017 54.017 0 00-1.523 4.053c-.295.883-.52 1.61-.71 2.29l-.032.11-.01.032-.003.013-.006.02-.002.008-.008.029-.01.035c-.074.256-.159.552-.232.838-.046.172-.09.344-.134.516l-.007.03-.128.493a.542.542 0 01-.021.069 70.692 70.692 0 00-.59 2.567c-.083.416-.179.9-.282 1.435l-.002.008-.02.107-.013.057-.002.016-.051.261a.343.343 0 01-.01.07.336.336 0 01-.035.099c-.02.09-.039.194-.06.319a.306.306 0 01-.037.101l-.018.084-.009.05c-.01.102-.031.203-.066.31a.4.4 0 01-.078.139c-.017.07-.026.125-.035.178a.198.198 0 01-.046.105c-.02.112-.037.223-.077.492a46.437 46.437 0 00-.297 3.343c-.033.65-.07 1.402-.076 2.108-.006.722-.003 1.323.01 1.891l.006.034.004.033.003.079.001.078v.008l.001.014.007.206.002.071v.015a61.407 61.407 0 00.112 2.434c.038.517.086 1.048.15 1.74.058.557.12 1.106.186 1.63.11.766.182 1.268.269 1.78l.015.097.013.07.006.04.004.016.004.026.006.035c.082.48.149.868.211 1.217.214 1.183.466 2.363.749 3.509a.237.237 0 01.023.055c.234.902.482 1.778.739 2.602l.004.014.002.008.005.016.003.01.003.008.002.007c.138.46.276.881.397 1.219.128.36.258.721.39 1.08a19.772 19.772 0 01.31.811 74.752 74.752 0 00.968 2.432 59.544 59.544 0 002.448 5.096l.16.293c.487.885 1.005 1.769 1.54 2.627a59.108 59.108 0 003.292 4.74 58.417 58.417 0 0010.155 10.18 56.73 56.73 0 004.714 3.249 57.92 57.92 0 004.754 2.656 55.177 55.177 0 007.269 2.994 55.886 55.886 0 005.453 1.516c1.572.348 3.175.637 4.765.858a57.4 57.4 0 007.422.502h.09c2.56 0 5.148-.17 7.693-.504 2.58-.357 5.08-.872 7.431-1.53a57.433 57.433 0 006.917-2.397 55.743 55.743 0 006.68-3.367 59.406 59.406 0 005.897-3.985 58.76 58.76 0 005.587-4.945 60.48 60.48 0 004.672-5.332c.278-.367.545-.722.793-1.056a.36.36 0 01.065-.09 56.77 56.77 0 003.4-5.24 58.598 58.598 0 003.06-6.153l.002-.006.007-.017.014-.03c.137-.325.246-.591.334-.815.01-.022.02-.047.028-.072l.005-.012.004-.01.003-.008.004-.01.003-.008.004-.011.004-.01.006-.015.005-.011a2.11 2.11 0 01.062-.15 57.425 57.425 0 002.141-6.496l.05-.182.003-.016.003-.009.005-.018.006-.021.003-.01.01-.04.005-.021.003-.01.006-.022.007-.03c.111-.415.21-.797.292-1.135l.001-.012.003-.013.008-.035.01-.042.01-.038c.124-.544.232-1.028.321-1.439a46.96 46.96 0 00.348-1.882l.01-.078.008-.064.004-.025c.036-.224.073-.461.108-.7v-.044l.007-.065.01-.074.04-.287v-.028l.01-.075.01-.066a73.6 73.6 0 01.014-.11l.002-.019.01-.07a.41.41 0 01.01-.089l.022-.158.014-.105.026-.198.002-.015.001-.012a90.4 90.4 0 00.177-1.527c.014-.131.026-.263.038-.395l.006-.065.001-.012.001-.007.001-.011.001-.008v-.008l.001-.012.001-.013c.03-.357.063-.655.097-.884.064-.763.112-1.555.144-2.422.026-.848.038-1.627.038-2.317v-.038c-.002-.21-.006-.421-.01-.631l-.003-.036a56.066 56.066 0 00-.193-3.156.392.392 0 01-.015-.108 90.69 90.69 0 00-.384-3.482 63.982 63.982 0 00-.112-.757l-.003-.022-.029-.192a53.793 53.793 0 00-.105-.646v-.009a3.882 3.882 0 01-.046-.285 58.662 58.662 0 00-.34-1.76l-.003-.014-.005-.02-.004-.018-.004-.018-.009-.035c-.092-.41-.153-.68-.237-1l-.02-.11-.018-.068-.01-.013a4.232 4.232 0 00-.082-.325.653.653 0 01-.06-.135 70.343 70.343 0 00-1.281-4.233.465.465 0 01-.03-.073 76.816 76.816 0 00-1.529-3.99 56.135 56.135 0 00-3.399-6.753 59.357 59.357 0 00-3.933-5.834 58.701 58.701 0 00-4.83-5.483 59.603 59.603 0 00-5.402-4.765 57.773 57.773 0 00-8.936-5.668 8.74 8.74 0 01-.235-.116l-.03-.016a37.142 37.142 0 00-.398-.195l-.137-.067-.014-.007c-.321-.16-.599-.293-.848-.405a57.159 57.159 0 00-2.004-.895 57.7 57.7 0 00-4.99-1.83 61.346 61.346 0 00-4.5-1.22l-.048-.01-.17-.039-.173-.038a63.296 63.296 0 00-4.44-.786 69.782 69.782 0 00-3.641-.37h-.009c-.334-.022-.69-.044-1.09-.066h-.01l-.009-.001a74.62 74.62 0 00-.528-.026l-.037-.002-.278-.01a.733.733 0 01-.038-.003h-.009l-.111-.004-.215-.007a13.677 13.677 0 01-.816-.024z" fill="#FFAFBE"/><path d="M35.113 72.205c-.368.131-.64.444-.865.726a7.463 7.463 0 00-.445.643l-.297.467-.004.007c-.041.065-.08.132-.116.197l-.008.014-.012.021-.005.009-.01.017-.007.015-.046.08c-.125.218-.25.436-.373.654l-.042.075c-.145.254-.29.509-.436.762a23.475 23.475 0 00-.841 1.632l-.009.018-.006.011c-.068.014-.137.027-.204.042l-.74.161-.146.032-.148.032c-.13.027-.258.055-.387.084l-.42.098-.421.099-.224.052-.222.052-.067.015-.133.03-1.202.32-.319.085c-.09.024-.18.05-.269.078l-.019.005-.013.005-.014.004-.156.047-.48.142-.255.072-.046.012-.03.01c-.035.194-.06.376-.08.55-.034.295-.046.593-.054.872-.005.166-.007.332-.01.498l-.005.323c-.005.205-.004.414-.003.615v.25c.001.143.098.253.232.26.008.047.02.091.04.132a.328.328 0 00.434.14c.035-.017.073-.035.116-.052.182-.052.374-.072.56-.092l.099-.01c.111-.013.222-.035.328-.056.116-.023.236-.04.338-.054.128-.017.256-.048.38-.078.09-.022.184-.044.277-.062.236-.043.478-.063.713-.082l.018-.002a23.35 23.35 0 011.396-.056c.145-.002.291-.004.437-.008.607-.014 1.22-.085 1.814-.153l.032-.004c.514-.058 1.036-.11 1.542-.159l.402-.04a57.38 57.38 0 001.805-.204c.277-.036.554-.074.831-.112l.944-.126c.108-.013.215-.028.322-.042.206-.027.42-.056.629-.08l.52-.06.52-.06c.105-.013.212-.022.318-.032l.167-.015.337-.032.305-.03c.24-.022.485-.04.722-.058l.283-.022.27-.017c.195-.012.396-.025.594-.032l.392-.011c.321-.01.653-.02.978-.036.223-.01.447-.033.666-.065.093-.014.191-.035.301-.065.138-.038.238-.077.324-.127a.624.624 0 00.209-.198.492.492 0 00.062-.277 2.198 2.198 0 00-.031-.302 6.73 6.73 0 00-.062-.334l-.012-.062a4.214 4.214 0 00-.104-.41c-.157-.512-.344-1.117-.541-1.728-.082-.253-.171-.507-.257-.752l-.037-.105-.045-.127-.016.089-.029.143c-.256.003-.512.006-.768.007H44.2a159.81 159.81 0 00-2.159.02l-.033.001h-.022l-.836.022c-.364.009-.76.028-1.021.04l-.015.001-.113.005-.204.01-.035.001c-.15.007-.299.016-.449.025l-.225.014-.056.003c-.175.01-.363.02-.544.035l-.388.028-.004-.008-.004-.011-.007-.017-.006-.018-.007-.018-.006-.014a19.66 19.66 0 01-.172-.453l-.008-.02-.006-.016-.007-.02-.006-.017a16.876 16.876 0 00-.296-.769 6.585 6.585 0 00-.374-.74c-.067-.111-.137-.23-.211-.344a2.727 2.727 0 00-.276-.355 17.23 17.23 0 00-.23-.246l-.02-.021c-.084-.089-.168-.177-.25-.267-.055-.06-.111-.12-.168-.179l-.021-.023-.059-.061a2.432 2.432 0 01-.204-.254c-.05-.075-.106-.16-.173-.233a1.474 1.474 0 00-.157-.154.223.223 0 00-.02-.127.23.23 0 00-.126-.107.19.19 0 00-.063-.01.318.318 0 00-.106.022z" fill="#DA3ACB"/><path d="M51.558 76.27l-.861.012-.118.001c-.146.002-.293.003-.44.008l-.45.013-.469.013-.105.003c-.137.004-.278.008-.418.015l-.908.046-.151.008c-.135.008-.27.015-.405.02l-.446.016-.462.018-.136.005c-.138.005-.281.01-.422.012l-.414.005-.305.003v.005l-.769.007H44.2a159.81 159.81 0 00-2.159.02l-.033.001h-.022l-.836.022c-.364.009-.76.028-1.021.04l-.015.001-.113.005-.204.01-.035.001c-.15.007-.299.016-.449.025l-.225.014-.056.003c-.175.01-.363.02-.544.035l-.388.028c-.39.03-.78.063-1.17.096l-.146.012c-.137.01-.273.022-.41.036-.32.03-.642.062-.963.094-.138.013-.277.033-.413.052l-.154.02-.243.033-.243.032-.066.009c-.05.006-.101.012-.152.02l-.408.068-.393.065-.148.024c-.136.022-.276.045-.413.072l-.887.172-.12.023-.177.035-.003.005a10.03 10.03 0 00-.204.042l-.74.161-.146.032-.148.032c-.13.027-.258.055-.387.084l-.42.098-.421.099-.224.052-.222.052-.067.015a2.8 2.8 0 00-.133.03l-1.202.32-.319.085c-.09.024-.18.05-.269.078l-.019.005-.013.005-.014.004-.156.047-.48.142-.255.072-.03.008-.198.059c-.121.036-.241.074-.362.113l-.171.054-.821.263c-.384.123-.772.25-1.147.375l-.15.049-.302.1-.303.1c-.155.05-.312.1-.468.148l-.255.08-.716.226c-.146.046-.292.089-.439.133l-.215.064c-.461.139-.923.279-1.384.42l-.024.008-.63.193c-.165.05-.328.103-.492.156l-.259.084-.168.053a19.38 19.38 0 00-.368.119l-.912.308c-.324.11-.652.224-.97.335l-.332.116c-.042.015-.084.031-.125.048l-.059.022-.266.103-.195.074-.028.01c-.181.07-.369.142-.55.218l-.191.079-.594.247-.106.046-.037.017-.246.11-.258.116-.307.137c-.04.018-.08.039-.119.059l-.054.028-.86.432c-.075.038-.15.08-.224.12l-.082.045c-.222.12-.452.253-.683.394a9.691 9.691 0 00-.645.437c-.16.116-.327.242-.525.396a.047.047 0 00-.018.035.067.067 0 00.018.05.055.055 0 00.04.017.075.075 0 00.045-.017l.13-.101-.012.008c.03-.02.057-.042.086-.063 0 .02.002.034.004.047.002.022.006.042.01.062a.068.068 0 00-.02-.002.125.125 0 00-.107.061c-.014.025-.024.066-.012.096l.076.19a12.789 12.789 0 00.292.686 6.782 6.782 0 00.102.21c.072.151.155.297.226.422.079.138.16.274.241.41.067.112.143.232.238.378l.021.031.112.172c.034.053.065.107.097.16l.024.041c.067.114.147.23.259.379l.074.101.075.102c.046.06.094.118.142.177l.007.01a6.302 6.302 0 01.257.364c.047.07.093.14.142.208.087.12.156.222.218.32.07.109.142.217.215.324.065.097.136.19.205.281l.039.052.072.095.071.095.058.079.065.089.092.124.02.028.05.065.058.079c.076.104.144.199.217.293l.078.103c.027.037.055.074.084.11l-.008-.012c.102.136.203.277.3.412.075.105.15.21.226.313.065.087.127.175.19.263.114.16.232.326.36.48l.075.089.05.06.065.078.065.078.127.15a21.924 21.924 0 01.457.557l.127.158.146.183c.086.113.176.226.263.335l.038.048c.055.068.114.133.17.197.043.047.085.094.125.142l.023.027c.042.05.084.1.128.148l.021.023c.055.06.11.12.162.182.131.153.234.267.334.37l.115.117c.06.06.121.122.18.185.043.045.087.089.131.132l.024.024c.05.05.098.105.145.157l.037.043.053.06c.047.053.094.107.143.159.068.072.136.143.205.213l.042.042a13.738 13.738 0 01.371.386c.073.077.15.154.223.229l.107.108.065.067.226.235c.132.14.268.279.4.413l.2.207c.13.133.265.265.393.389l.09.087.163.156c.05.048.103.094.155.138l.094.082c.091.08.187.156.277.226l.029.022c.12.094.243.19.361.29.062.053.117.1.169.148l.066.062.101.095c.153.139.306.278.457.42.137.127.288.242.435.353l.038.029.18.14c.05.039.104.078.157.117l.072.053.2.153.01.006.115.09.2.154.076.059c.05.04.096.075.142.109l.069.052c.102.083.2.173.296.26l.084.076a5.604 5.604 0 00.342.286c.159.124.326.248.51.38a195.908 195.908 0 01.337.24l.038.027.056.042.066.048a16.252 16.252 0 01.552.406c.091.067.186.133.288.202.038.026.076.05.113.077l.143.097c.062.04.123.083.184.124.08.055.159.109.24.162l.083.053c.045.028.089.056.132.085l.147.096.085.056.168.106.055.034c.101.063.186.113.269.158.109.06.218.119.328.176l.086.044.212.11c.05.029.1.055.149.082.126.068.256.138.38.21.084.049.162.095.242.14l.13.077.129.076.5.29.111.07.123.075c.067.039.134.08.2.12.071.044.142.088.214.13l.092.053.186.109.081.048c.054.032.106.064.16.094l.164.09.053.03.09.05.163.09.145.079a8.03 8.03 0 00.51.26c.143.069.285.144.421.218l.133.07c.068.036.136.07.205.105a9.136 9.136 0 01.431.227l.141.077c.233.127.415.222.588.31.146.073.307.147.509.23l.37.159c.147.063.294.13.437.197l.06.028.145.068.243.112c.166.076.331.146.471.204 0 0 .004 0 .004.002l.005.002.007.002.004.002.154.066.051.02c.09.04.18.08.272.117l.195.085.08.035c.124.054.247.103.362.147a12.13 12.13 0 001.08.375l.225.063c.08.022.16.044.24.068.22.064.443.126.66.185l.117.033c.138.038.276.074.414.11l.391.106c.086.024.173.045.26.067l.153.039c.108.028.216.053.325.079l.115.026c.302.072.606.15.902.234.12.033.261.074.402.122.094.032.188.06.283.09l.178.058c.33.107.601.19.854.262.218.062.436.125.653.19l.043.014.345.102.2.055.254.07c.188.057.38.107.567.156l.277.073c.098.026.199.049.296.072l.15.035c.07.018.142.034.213.05l.196.045c.111.027.223.05.336.074l.094.02c.094.02.188.039.283.057.06.01.12.023.18.035.125.025.25.048.377.07l.065.013.073.014.284.05.075.013.13.022.048.008.178.028c.112.019.225.033.335.046l.112.014-.03-.006c.071.012.142.02.213.029l.144.018a15.04 15.04 0 011.21.228c.171.037.349.075.525.108.161.03.296.054.423.072.139.02.278.037.417.054l.08.009.232.026.19.022.101.012.1.013c.048.006.097.01.145.015l.12.012.072.008c.047.006.094.012.141.016l.237.018.285.02a9.186 9.186 0 00.846.041c.105.003.214.005.321.01l.167.01c.104.005.209.012.313.016.181.007.36.01.512.012.3.005.603.005.898.005h.102c.166 0 .334-.007.497-.014l.017-.001c.08-.004.16-.007.24-.014a261.997 261.997 0 00.269-.022l.234-.016.303-.02c.203-.016.391-.027.574-.036.149-.007.3-.01.447-.013h.027a13.516 13.516 0 001.551-.131h-.014c.236-.03.475-.067.705-.103.203-.031.413-.064.62-.093h-.014c.123-.015.246-.033.368-.051l.33-.048.19-.028.17-.025h-.011l.013-.001h.004l.001-.001.003-.001c.07-.008.136-.017.203-.027l.104-.014.138-.018.005-.001h.001v-.001l.004-.001.043-.004.35-.047.002-.001h.002l.004-.001.008-.001.101-.013.233-.031c.342-.044.622-.084.884-.125l.263-.04c.21-.03.425-.06.635-.106.032-.006.063-.014.095-.021.034-.008.069-.017.104-.024.051-.011.104-.02.155-.03l.059-.011.042-.008c.115-.021.229-.043.343-.066a5.03 5.03 0 00.329-.084l.02-.006.116-.031.06-.017c.067-.018.136-.032.202-.046l.057-.012.331-.07.436-.093.379-.08c.099-.022.197-.046.296-.07l.078-.018c.095-.023.193-.042.288-.061l.099-.02.116-.023c.104-.021.208-.042.312-.061.147-.026.28-.053.408-.08.117-.025.232-.056.35-.087.071-.02.145-.035.217-.05l.113-.025c.134-.031.254-.06.366-.09.095-.024.19-.05.284-.075l.054-.015.112-.03a10.388 10.388 0 00.586-.172c.065-.02.13-.037.195-.054l.169-.045.18-.054.126-.037c.085-.025.17-.047.255-.07l.084-.022.06-.016a12.08 12.08 0 01.624-.154l.025-.006c.131-.03.25-.054.36-.076.14-.027.278-.054.417-.085a5.964 5.964 0 00.742-.216.252.252 0 00.164.066.197.197 0 00.077-.015c.072-.03.146-.056.218-.082l.113-.04.152-.06c.064-.025.13-.051.195-.074.215-.076.443-.16.657-.273.205-.11.404-.227.625-.358.08-.048.163-.094.244-.14.12-.066.242-.134.359-.21.124-.08.259-.16.41-.24l.082-.044c.108-.058.22-.118.332-.173.273-.13.555-.252.827-.371.655-.287 1.331-.583 1.946-.971.23-.145.44-.273.64-.39.134-.078.27-.153.405-.23.08-.044.162-.088.242-.134l.057-.032a6.29 6.29 0 00.285-.167l.122-.077a1350.37 1350.37 0 00.891-.556c.102-.063.203-.13.303-.196.1-.066.201-.132.304-.196l.1-.061c.072-.044.148-.09.22-.14.075-.052.152-.103.228-.154l.076-.051a20.179 20.179 0 01.612-.392c.131-.083.26-.174.385-.262l.23-.16c.279-.19.558-.376.838-.564l.373-.251.1-.068c.167-.112.34-.228.506-.346.207-.146.404-.297.605-.452.104-.08.207-.162.31-.243l.213-.168.302-.234.298-.231.14-.11a21.243 21.243 0 011.049-.782c.105-.076.211-.15.317-.223a18.632 18.632 0 00.702-.507c.12-.094.235-.193.343-.285.205-.17.389-.313.562-.441.086-.062.17-.127.252-.192.103-.08.209-.163.317-.24.105-.074.215-.146.32-.216.077-.051.153-.101.229-.153.22-.15.41-.289.583-.423.176-.136.345-.282.502-.419l.058-.05c.128-.112.26-.227.384-.348a3.5 3.5 0 00.437-.496c.106-.153.2-.318.29-.477l.047-.083a.235.235 0 00.018-.186.122.122 0 00.008-.022l.004-.03.004-.028a.22.22 0 00-.03-.111c-.026-.057-.056-.114-.085-.169a3.835 3.835 0 00-.198-.36 2.863 2.863 0 00-.13-.192l-.07-.1a8.752 8.752 0 01-.273-.432c-.05-.085-.1-.174-.147-.26-.04-.072-.08-.145-.122-.217a3.571 3.571 0 00-.331-.475c-.122-.149-.252-.297-.377-.44L95.768 94c-.15-.172-.282-.328-.401-.476-.074-.098-.146-.2-.216-.299l-.015-.02-.126-.182-.098-.135-.08-.112c-.05-.07-.102-.14-.153-.209l-.072-.097-.13-.178a20.456 20.456 0 00-.359-.488l-.172-.23-.215-.295-.179-.245c-.127-.172-.26-.344-.39-.51a22.658 22.658 0 00-1.387-1.638c-.049-.054-.1-.11-.152-.163l-.094-.095-.142-.143a50.347 50.347 0 00-.547-.537 37.88 37.88 0 00-.954-.88l-.068-.06-.076-.07-.165-.148-.315-.268a9.629 9.629 0 00-.417-.33 20.555 20.555 0 01-.142-.109 2.863 2.863 0 00-.167-.116l-.075-.05-.07-.05c-.058-.04-.115-.08-.173-.117l-.117-.075a26.237 26.237 0 00-.505-.32c-.184-.111-.392-.238-.597-.359a52.29 52.29 0 00-1.275-.728l-.215-.118-.071-.039c-.079-.043-.16-.083-.24-.124a7.104 7.104 0 01-.113-.057l-.135-.07-.145-.074a6.949 6.949 0 00-.212-.103l-.104-.05-.207-.1-.11-.053-.24-.111-.13-.06c-.448-.206-.86-.385-1.26-.546l-.16-.064-.463-.185-.224-.09-.508-.2-.313-.12-.43-.165a22.91 22.91 0 00-.49-.178l-.225-.081a60.16 60.16 0 00-.801-.282l-.474-.165-.188-.066c-.142-.05-.289-.103-.434-.15l-.353-.117-.453-.15a8.188 8.188 0 00-.185-.057l-.084-.026-.476-.148c-.197-.061-.4-.118-.596-.174l-.021-.006-.169-.047c-.137-.04-.275-.078-.413-.115l-.43-.115-.432-.115c-.283-.076-.566-.15-.85-.225l-.406-.108c-.514-.136-1.028-.27-1.543-.405-.181-.047-.345-.09-.512-.13l-.81-.193c-.274-.066-.55-.13-.825-.193-.153-.035-.307-.07-.46-.107l-1.499-.351-.234-.055-.224-.053-.048-.011a4.463 4.463 0 00-.127-.03l-.735-.154-.132-.027c-.17-.036-.323-.068-.478-.096l-.434-.078-.533-.097c-.127-.023-.257-.042-.383-.06l-.137-.02-.393-.06-.395-.061-.148-.02-.066-.008-.443-.059-.023-.003-.212-.028c-.15-.02-.3-.041-.45-.059l-.475-.056c-.319-.038-.638-.075-.956-.114l-.204-.025c-.427-.051-.87-.105-1.305-.154l-1.543-.173c-.454-.051-.951-.11-1.519-.179l-.087-.01a22.512 22.512 0 00-.407-.048l-.124-.012-.874-.09c-.133-.015-.27-.025-.401-.034l-.089-.007-.295-.021-.566-.042c-.04-.003-.08-.003-.121-.003h-.055l-.234-.004-.238-.003-.236-.004-.236-.004h-.061l-.103-.002h-.033z" fill="#3C8076"/><path d="M87.772 20.774c-.048 0-.096 0-.145.002l-.506.02c-.1.004-.201.014-.3.024l-.105.01c-.51.049-1.014.13-1.573.222l-.115.02c-.23.037-.468.077-.7.127a1.42 1.42 0 00-.157.043l-.064.023a4.317 4.317 0 00-.246.089 1.549 1.549 0 00-.196.102l-.02.012c-.058.033-.113.07-.165.104l-.05.034-.148.1a3.31 3.31 0 00-.32.25c-.053.047-.102.106-.145.158a8.424 8.424 0 00-.35.482c-.07.106-.137.216-.204.321l-.032.052c-.139.222-.272.449-.395.673l-.092.166c-.088.162-.179.328-.273.49a63.4 63.4 0 01-.474.794c-.13.216-.273.43-.41.636l-.018.026a24.83 24.83 0 01-.249.37l-.007.009c-.085.123-.173.25-.27.369a.68.68 0 01-.063.058.535.535 0 01-.04.02.44.44 0 01-.026.006.346.346 0 01-.028-.01.925.925 0 01-.15-.104 1.709 1.709 0 01-.223-.286l-.06-.088a11.635 11.635 0 00-.242-.337l-.026-.034c-.07-.092-.14-.187-.216-.277l-.076-.093c-.109-.133-.22-.27-.342-.394a1.657 1.657 0 00-.42-.325 2.512 2.512 0 00-.505-.215 4.591 4.591 0 00-.65-.134l-.084-.014a4.242 4.242 0 00-.552-.056c-.137 0-.28.029-.438.088a2.38 2.38 0 00-.512.263 3.656 3.656 0 00-.456.387l-.042.041c-.075.072-.152.147-.223.226-.112.125-.199.265-.276.398a3.087 3.087 0 00-.116.217 4.47 4.47 0 00-.192.469l-.027.074a6.436 6.436 0 00-.051.147l-.016.048c-.02.057-.038.115-.06.172a3.57 3.57 0 01-.392-.272c-.106-.081-.217-.166-.333-.237a2.092 2.092 0 00-.408-.194 2.295 2.295 0 00-.693-.105 3.178 3.178 0 00-.764.117l-.054.015a4.733 4.733 0 00-.407.142c-.052.02-.103.047-.152.073l-.025.014c-.12.063-.231.137-.334.208a3.541 3.541 0 00-.159.114l-.02.015a1.47 1.47 0 00-.125.104 4.797 4.797 0 00-.566.647l-.02.029c-.066.09-.134.184-.19.281a6.505 6.505 0 00-.212.411c-.117.246-.216.49-.296.697l-.019.047a3.215 3.215 0 00-.208.711.768.768 0 00.013.307c.02.074.064.132.13.167.088.047.186.06.27.068a.83.83 0 00.078.003c.043 0 .085-.003.128-.005l.063-.004.214-.008.128-.003.255-.008.118-.005c.091-.004.183-.008.274-.01.078-.003.157-.004.236-.004.163 0 .33.004.491.009l.087.002c.217.006.438.016.651.025l.147.007.081.003a.155.155 0 00.13.035l.177-.03.15.001H72.782c.177 0 .325.003.476.007l.186.008c.1.005.203.01.304.01.095 0 .169-.066.174-.154a.157.157 0 00-.017-.083 152.98 152.98 0 013.188-.2 84.427 84.427 0 012.037-.074c.373-.01.76-.022 1.139-.037l.301-.012c1-.04 2.033-.083 3.05-.115l.1-.003.27-.008.14-.003c.096-.003.191-.005.286-.005h.848l.857-.008h.045l.199.002.081.001.131.002c.097 0 .194 0 .291.004.59.019 1.114.041 1.606.068.576.03 1.152.065 1.728.1l1.591.098.029.001a13.529 13.529 0 001.112.035h.099c.036 0 .083 0 .13-.005a.305.305 0 00.074-.015 3.46 3.46 0 00.051-.018c.025-.016.048-.032.07-.049l.011-.01.011-.012a.455.455 0 00.095-.137.912.912 0 00.04-.087c.096-.22.129-.463.16-.698l.009-.064a4.229 4.229 0 00.033-.927 9.896 9.896 0 00-.046-.524c-.008-.088-.018-.176-.028-.263l-.012-.102-.002-.021c-.008-.072-.016-.147-.03-.22a2.382 2.382 0 00-.059-.24l-.004-.016c-.018-.062-.039-.125-.06-.187l-.018-.054c-.04-.124-.082-.246-.125-.369l-.004-.01c-.043-.124-.086-.248-.137-.367a8.31 8.31 0 01-.043-.102c-.035-.086-.072-.174-.114-.258l-.114-.228-.114-.227c-.038-.076-.081-.15-.123-.223a8.758 8.758 0 01-.057-.097c-.086-.152-.174-.31-.267-.464a9.244 9.244 0 00-.655-.961 6.325 6.325 0 00-.216-.256 4.38 4.38 0 00-.31-.337l-.034-.035-.08-.081-.08-.08a5.189 5.189 0 00-.784-.635 3.664 3.664 0 00-.52-.273c-.3-.13-.642-.217-1.074-.274a6.155 6.155 0 00-.543-.043 6.974 6.974 0 00-.292-.007zM28.81 22.82a3.55 3.55 0 00-.888.124 6.243 6.243 0 00-.404.123l-.03.01a9.288 9.288 0 00-.292.101 4.515 4.515 0 00-.36.151c-.044.021-.088.044-.132.068l-.027.014-.014.007c-.048.026-.098.052-.146.081l-.28.171a6.15 6.15 0 00-.179.116l-.053.035-.038.025a1.076 1.076 0 00-.079.053l-.043.033-.043.033-.073.056c-.05.037-.102.076-.15.117a36.721 36.721 0 00-1.701 1.507c-.233.22-.502.477-.754.742l-.107.114-.108.113a3.526 3.526 0 00-.18.207 4.56 4.56 0 00-.319.426l-.024.036c-.075.109-.148.218-.22.328l-.068.101-.177.264-.129.19-.026.039c-.088.13-.179.266-.264.401l-.088.14-.187.296-.249.389-.039.062-.024.037c-.085.134-.173.272-.251.413l-.074.134-.074.134c-.034.062-.066.126-.099.19a14.56 14.56 0 00-.284.572l-.045.096-.065.138a5.973 5.973 0 00-.079.176c-.039.09-.069.184-.098.275l-.008.027c-.04.125-.074.253-.108.378l-.017.065-.021.076a7.757 7.757 0 00-.16.7v.007l-.004.01-.002.008-.002.012-.008.04c-.026.134-.054.272-.077.409-.023.14-.045.29-.07.486-.02.155-.033.299-.039.438a4.831 4.831 0 00.061.876c.02.123.048.247.074.368l.011.052c.028.133.066.278.116.443l.019.064c.013.045.026.09.04.133l.05.144.014.036.008.024c.011.036.023.073.037.109.02.053.05.097.083.141.013.015.029.028.046.038v.01c.006.027.029.043.058.043h.008l.043-.004.15-.014.027-.002.567-.036c.03-.002.062-.002.094-.002h.04l.256-.004.131-.002a221.344 221.344 0 011.603-.017c.193 0 .386.002.578.003h.155c.348.003.663.005.98.012.448.01.809.022 1.138.037l.619.03c.118.005.239.006.355.008l.137.002.623.015.134.003c.116.004.232.007.348.008l.284.004c.242.004.493.007.74.007h.11c.496-.002 1-.011 1.486-.02l.698-.01c.78-.012 1.606-.026 2.527-.044l.14-.003a341.809 341.809 0 002.614-.058h.012l.133-.003c.09-.003.179-.006.268-.006l.336-.003.336-.002.344-.002h.056l.062-.001h.032l.301.005c.26.005.527.01.79.02a108.506 108.506 0 011.72.084l.18.012c.125.007.25.015.376.026l.149.012c.32.027.65.055.973.093l.333.038.328.037a15.94 15.94 0 00.558.055c.169.016.32.03.462.04l.387.028.05.004.126.008.456.02c.626.027 1.274.054 1.911.086.71.035 1.426.077 2.12.119a1971.66 1971.66 0 013.351.204l.101.007a23.945 23.945 0 00.282.017 1.25 1.25 0 00.113-.004.248.248 0 00.096-.022.222.222 0 00.078-.037.32.32 0 00.099-.087.77.77 0 00.065-.113 2.392 2.392 0 00.152-.435l.004-.023.026-.126.01-.046.017-.092.022-.146.022-.147c.01-.057.017-.115.024-.174l.013-.093a2.435 2.435 0 00.026-.674l-.003-.034a3.327 3.327 0 00-.017-.182l-.048-.37a5.604 5.604 0 00-.297-1.239 6.07 6.07 0 00-.51-1.097l-.08-.138-.08-.138a4.073 4.073 0 00-.581-.809 2.26 2.26 0 00-.053-.06l-.023-.025-.02-.022c-.024-.027-.048-.054-.073-.079l-.107-.104a1.381 1.381 0 00-.094-.081l-.036-.03a1.955 1.955 0 00-.168-.125 1.888 1.888 0 00-.34-.172 3.123 3.123 0 00-.349-.118 2.049 2.049 0 00-.317-.06 1.128 1.128 0 00-.13-.006 1.41 1.41 0 00-.52.092 2.296 2.296 0 00-.292.129c-.059.03-.116.064-.174.097l-.026.015c-.033.019-.065.037-.097.058a5.483 5.483 0 00-.87.659 5.484 5.484 0 00-.422.422c-.111.129-.218.265-.32.397l-.082.104c-.13.165-.247.32-.357.474l-.029.041-.142.202c-.055.077-.114.152-.172.225l-.03.038-.067.076-.074.083a2.335 2.335 0 01-.102.107l-.035.034a4.604 4.604 0 01-.147.143l-.08.073c-.082.077-.16.14-.237.196a1.775 1.775 0 01-.226.119c-.032.01-.065.018-.101.026l-.008-.002-.04-.025a.216.216 0 01-.014-.017 1.334 1.334 0 01-.084-.193 3.527 3.527 0 01-.126-.593l-.014-.099a6.638 6.638 0 00-.038-.222l-.018-.097-.024-.135-.028-.158a.465.465 0 00-.01-.044l-.005-.016a53.687 53.687 0 00-.05-.201l-.032-.125-.04-.163a.457.457 0 00-.013-.038l-.007-.02-.032-.095-.032-.097-.046-.138-.046-.138a5.538 5.538 0 00-.27-.667c-.14-.29-.323-.558-.5-.817l-.033-.048c-.03-.043-.06-.085-.092-.127l-.047-.063a1.756 1.756 0 00-.063-.079l-.03-.038a1.688 1.688 0 00-.312-.296c-.033-.024-.072-.04-.11-.057l-.029-.013c-.05-.022-.107-.033-.162-.043a2.38 2.38 0 00-.2-.025.82.82 0 00-.09.007l-.027.003a.766.766 0 00-.133.03l-.022.006c-.041.012-.082.027-.122.041l-.04.015a2.01 2.01 0 00-.194.08 1.625 1.625 0 00-.193.116l-.028.018a2.501 2.501 0 00-.346.263c-.07.062-.134.134-.19.198a4.56 4.56 0 00-.217.257c-.061.079-.114.155-.162.232-.038.062-.073.127-.108.189l-.01.018a50.66 50.66 0 00-.293.54l-.023.044a1.811 1.811 0 00-.073.154 1.673 1.673 0 00-.049.11l-.06.158-.062.157-.03.077-.029.078-.038-.055-.034-.05-.013-.018a8.944 8.944 0 01-.1-.17l-.094-.16c-.038-.064-.076-.126-.117-.188l-.03-.046-.031-.046-.023-.036a1.369 1.369 0 00-.176-.222 2.229 2.229 0 00-.223-.192 2.25 2.25 0 00-.252-.17 3.55 3.55 0 00-.514-.247 1.233 1.233 0 00-.263-.068l-.019-.003a1.13 1.13 0 00-.172-.018.469.469 0 00-.075.006 1.214 1.214 0 00-.235.07.925.925 0 00-.13.067l-.015.01a5.745 5.745 0 00-.145.087 1.58 1.58 0 00-.198.142 1.146 1.146 0 00-.177.223 1.75 1.75 0 00-.099.194l-.024.051a30.225 30.225 0 00-.255.564c-.06.138-.117.277-.175.419l-.032.077-.019.047-.01-.084-.013-.09a117.236 117.236 0 00-.136-.885l-.06-.367a2.683 2.683 0 00-.028-.146l-.13-.573-.023-.105c-.008-.035-.018-.068-.028-.102l-.007-.023-.057-.192-.057-.192-.081-.274c-.014-.047-.031-.093-.048-.138l-.021-.055-.027-.075-.104-.286a1.757 1.757 0 00-.07-.192l-.131-.3-.131-.3c-.019-.042-.039-.082-.059-.123l-.003-.007-.183-.368-.02-.041a2.783 2.783 0 00-.058-.114l-.178-.323c-.068-.126-.14-.25-.21-.373l-.05-.088a7.175 7.175 0 00-.15-.253 7.95 7.95 0 00-.731-.943c-.09-.1-.187-.196-.27-.278a5.848 5.848 0 00-.278-.262l-.105-.09-.106-.093a88.688 88.688 0 01-.23-.2 2.698 2.698 0 00-.145-.113l-.064-.049-.047-.037a2.534 2.534 0 00-.126-.096l-.29-.201c-.048-.033-.1-.064-.149-.093a4.825 4.825 0 01-.07-.043l-.096-.06a5.653 5.653 0 00-.77-.392l-.285-.116-.083-.034a6.21 6.21 0 00-1.375-.374l-.08-.012a6.636 6.636 0 01-.077-.013c-.059-.01-.12-.02-.18-.027l-.166-.017-.163-.018a11.62 11.62 0 00-.313-.025 1.53 1.53 0 00-.088-.003z" fill="#FFF"/><path d="M35.113 72.205c-.368.131-.64.444-.865.726a7.463 7.463 0 00-.446.643l-.296.467-.004.007c-.041.065-.08.132-.116.197l-.008.014-.012.021-.005.009-.01.017-.007.015a4.24 4.24 0 01-.046.08c-.125.218-.25.436-.373.654l-.042.075c-.145.254-.29.509-.436.762a23.542 23.542 0 00-.842 1.632l-.008.018-.006.011h-.004c-.244.522-.455 1.06-.659 1.58l-.03.075a19.54 19.54 0 00-.55 1.528l-.041.139c-.154.513-.313 1.043-.428 1.575a15.98 15.98 0 00-.308 1.772c-.03.283-.06.586-.085.89l-.002.02c-.025.293-.05.596-.024.893l.01.114c.008.1.017.203.032.304.007.042.012.085.018.127.014.1.029.204.051.304l.108.485c.022.1.05.202.077.3l.042.153c.074.283.16.555.255.81l.172.454c.045.114.094.228.143.338l.036.082c.116.267.254.529.386.772.162.297.304.53.447.732l.053.075c.066.095.134.192.207.284l.168.212c.095.119.206.24.36.39.18.177.38.342.573.5a10.866 10.866 0 00.35.276c.02-.309.04-.592.061-.883a41.154 41.154 0 01.282-2.766l.002-.019c.015-.129.03-.257.047-.386l.026-.2.023-.179c.053-.419.106-.837.157-1.256l.036-.281c.02-.147.042-.317.06-.484.025-.233.049-.466.072-.7l.008-.078.083-.813.014-.142.075-.736c.05-.498.106-1.004.162-1.493l.006-.053.007-.06.03-.272.007-.068.045-.414.026-.224.065-.557.019-.16a119.547 119.547 0 00.099-.872l.002-.017c.02-.18.042-.365.06-.548l.046-.492.047-.49.008-.093c.017-.166.03-.315.04-.465l.068-1.095.025-.411c.011-.166.017-.335.023-.498v-.02l.008-.202a.159.159 0 01.158-.15l.01.001c.006 0 .013.001.018.003a.19.19 0 01.15-.07.204.204 0 01.175.108.56.56 0 01.047.115c.024.069.046.139.068.207l.004.016.028.088c.046.146.084.296.121.44l.002.009.06.231a9.416 9.416 0 01.12.49l.007.027.001.008.038.17c.064.274.105.519.126.748.026.28.046.565.062.807l.01.12c.017.199.034.405.035.607l.001.058v.016c.001.099.002.2-.001.3l-.015.37c-.03.613-.05 1.155-.061 1.656l-.003.13v.065c-.003.164-.006.349-.018.529l-.003.053a36.858 36.858 0 01-.127 1.588c-.028.28-.072.556-.106.764-.038.227-.07.464-.1.674l-.016.112c-.037.27-.07.513-.084.761-.03.52-.06 1.063-.089 1.656-.013.276-.023.546-.032.8-.006.18-.008.362-.01.54v.013l-.004.234c-.007.396-.032.798-.056 1.187v.02l-.022.359c-.038.655-.066 1.183-.09 1.663-.012.262-.023.497-.027.734l-.002.086v.034a3.234 3.234 0 00.27.011c.394 0 .787-.063 1.17-.188a5.534 5.534 0 001.108-.507c.055-.033.108-.071.16-.107l.053-.037c.072-.05.132-.111.185-.17.07-.077.144-.164.223-.266.222-.284.417-.612.613-1.03.087-.186.165-.38.24-.566l.031-.078a5.38 5.38 0 00.253-.776l.033-.14a10.886 10.886 0 00.098-.426c.025-.114.052-.231.072-.348l.026-.151.052-.303a2.092 2.092 0 00.023-.178l.02-.153.02-.152c.032-.255.055-.516.077-.782.046-.546.097-1.164.093-1.771v-.095c0-.102-.001-.208-.005-.312-.003-.052-.004-.104-.006-.157-.004-.123-.008-.251-.019-.376l-.044-.51a7.6 7.6 0 00-.032-.29l-.012-.104a17.727 17.727 0 00-.113-.83 40.948 40.948 0 00-.52-2.632l-.025-.102a40.326 40.326 0 00-.177-.74l-.087-.343c-.044-.173-.089-.345-.131-.518-.074-.293-.14-.557-.215-.82-.062-.219-.147-.434-.23-.642l-.078-.198a59.445 59.445 0 00-.084-.215H38.1l-.004-.008-.004-.011-.007-.017-.006-.018-.008-.018-.005-.014c-.06-.152-.118-.302-.173-.453l-.007-.02-.006-.016-.007-.02-.006-.017a16.876 16.876 0 00-.297-.769 6.576 6.576 0 00-.374-.74c-.066-.111-.136-.23-.21-.344a2.727 2.727 0 00-.276-.355 17.23 17.23 0 00-.23-.246l-.02-.021c-.084-.089-.168-.177-.25-.267-.056-.06-.111-.12-.168-.179l-.021-.023-.059-.061a2.432 2.432 0 01-.204-.254c-.05-.075-.106-.16-.173-.233a1.474 1.474 0 00-.157-.154.223.223 0 00-.02-.127.23.23 0 00-.126-.107.19.19 0 00-.063-.01.318.318 0 00-.106.022zM46.45 72.156l-.012.003-.011.003a.323.323 0 00-.241.395 98.134 98.134 0 00-.788 2.348c-.08.25-.16.522-.213.802l-.095.517.004.009-.018.097-.029.143c-.047.267-.095.545-.146.847-.09.537-.135 1.089-.178 1.623-.01.128-.015.25-.02.394-.004.118-.008.252 0 .383v.017c.004.07.008.141.017.211.009.067.02.137.035.214.008.049.018.097.028.145l.009.04c.01.05.025.1.04.147l.015.053c.034.122.08.243.122.36l.017.043c.043.118.09.244.15.364a1.617 1.617 0 00.562.68c.067.047.14.083.211.118.074.036.147.064.218.09l.056.022c.116.045.236.081.356.107.142.03.257.044.362.044a.985.985 0 00.283-.04c.172-.05.324-.123.453-.214a2.42 2.42 0 00.427-.412 3.805 3.805 0 00.357-.498l.028-.052.01-.018.018-.035c.019-.035.039-.07.054-.107l.008-.018c.05-.113.1-.23.145-.347l.016-.041a3.98 3.98 0 00.116-.33l.029-.101.028-.102c.013-.045.022-.094.03-.14l.013-.07c.026-.126.044-.256.063-.381l.01-.067c.016-.111.032-.23.043-.348.015-.164.026-.31.035-.448.006-.105.004-.213.002-.317l-.001-.074a4.026 4.026 0 00-.023-.411 10.823 10.823 0 00-.218-1.155c-.06-.24-.143-.478-.223-.708l-.019-.054a15.434 15.434 0 00-.286-.772 8.477 8.477 0 00-.216-.47l-.109-.226-.124-.27-.029-.066-.043-.095a5.866 5.866 0 00-.114-.246c-.077-.152-.179-.353-.292-.551a5.605 5.605 0 00-.333-.524l-.033-.048a6.187 6.187 0 01-.09-.139l-.019-.032c-.04-.066-.083-.134-.138-.19a.346.346 0 00-.242-.11.276.276 0 00-.067.008zM44.93 86.719c-.04.02-.061.05-.08.09l-.068.151a.3.3 0 00-.041.094l-.09.208-.013.03-.04.092c-.031.07-.064.144-.091.218l-.166.449-.037.098c-.028.073-.056.146-.08.22a112.415 112.415 0 00-.795 2.387c-.025.075-.05.15-.072.224l-.072.245-.055.19c-.13.44-.25.924-.369 1.482l-.04.192-.043.197-.01.052c-.026.116-.052.235-.072.354-.05.294-.092.555-.128.8-.08.532-.13 1.068-.18 1.586-.006.071-.01.143-.014.215l-.005.098-.014.214-.013.213-.001.08v.04l-.003.148-.002.147v.013c-.002.099-.003.193.002.29.01.166.018.328.026.49.005.094.018.189.03.28l.013.102.012.109c.009.079.017.16.032.239l.092.492c.037.202.083.406.128.603l.02.093.051.225c.009.037.02.073.033.109l.016.05.002.008c.039.125.078.255.126.38l.076.193.02.055.014.036c.011.029.022.059.035.087l.089.195.088.194a1.804 1.804 0 00.089.17l.025.049c.018.037.036.073.057.108l.02.036c.058.099.118.203.182.3.146.225.304.462.486.682.054.065.113.13.178.199l.006-.07c.021-.211.045-.422.07-.636.02-.18.041-.357.06-.536l.034-.331c.03-.284.065-.606.09-.923l.019-.232a92.613 92.613 0 01.154-1.724c.022-.23.041-.46.056-.656l.04-.489.012-.154c.01-.124.022-.248.034-.372l.004-.037.018-.193c.006-.062.014-.123.021-.184l.01-.09.013-.11.025-.214.088-.68c.077-.602.145-1.214.21-1.807l.006-.052.06-.535.043-.392.044-.394c.011-.097.025-.193.04-.298l.007-.041.011-.083.06-.426.064-.455c.036-.257.075-.516.113-.768l.01-.064.023-.153a.237.237 0 01.075-.154.224.224 0 01.372.18l-.027.174-.045.3a.128.128 0 01.008.065l-.014.076a4.237 4.237 0 00-.069.478l-.005.05c-.02.184-.04.38-.069.573-.024.16-.053.325-.08.47l-.015.086a8.03 8.03 0 00-.032.199l-.044.386-.003.027-.078.703-.031.282c-.025.231-.05.462-.077.692l-.004.058-.003.057-.006.114-.027.486c-.027.497-.047.925-.062 1.308-.017.39-.023.804-.022 1.262 0 .189.008.379.015.542l.026.651.013.338.014.352c.007.182.02.366.032.544l.001.012.002.028.022.263a72.355 72.355 0 01.083 1.043l.013.17.008.114c.008.095.016.193.02.29.019.519.032.918.042 1.294.003.114.004.229.006.344l.002.168c.086.028.176.054.27.072.08.015.16.023.237.023.085 0 .17-.01.25-.03.194-.045.381-.14.522-.217a3.88 3.88 0 00.862-.657c.256-.256.483-.537.675-.837.235-.368.415-.776.59-1.17l.053-.12c.039-.087.074-.177.108-.266l.052-.132c.032-.083.061-.168.09-.251l.041-.122c.037-.104.07-.21.102-.313l.003-.007.027-.087a3.49 3.49 0 00.068-.227l.128-.52.026-.104c.026-.1.052-.202.072-.304l.114-.583.06-.315v.004c.017-.092.032-.186.046-.277l.02-.124c.014-.085.032-.199.044-.318l.013-.13.015-.143.005-.042c.004-.032.008-.064.009-.096l.01-.235.01-.234c.005-.093.004-.188.004-.28v-.048-.097c0-.085 0-.172-.005-.258l-.016-.253-.016-.238a5.457 5.457 0 00-.033-.317c-.005-.037-.01-.073-.013-.11l-.002-.017-.02-.16a1.154 1.154 0 00-.018-.105c-.004-.018-.008-.035-.01-.053l-.02-.111c-.017-.088-.032-.175-.05-.261a25.098 25.098 0 00-.184-.802 5.717 5.717 0 00-.24-.76 6.283 6.283 0 00-.32-.685 10.809 10.809 0 00-.326-.54l-.07-.114-.071-.113c-.109-.173-.22-.353-.335-.527a10.662 10.662 0 00-.901-1.215c-.098-.114-.203-.225-.305-.333l-.07-.074a9.328 9.328 0 00-.405-.415l-.106-.1a9.688 9.688 0 00-.527-.476 76.864 76.864 0 01-.218-.187 18.422 18.422 0 01-.123-.112c-.097-.088-.197-.18-.3-.266-.06-.051-.12-.1-.182-.15a.937.937 0 00-.242-.16.173.173 0 00-.11-.137.167.167 0 00-.123.009zM78.238 76.503a.181.181 0 00-.04.004c-.04.009-.096.038-.119.08a9.11 9.11 0 00-.226.456l-.151.329-.083.179a6.289 6.289 0 01-.037.079c-.025.053-.05.107-.073.162l-.07.17-.086.215-.197.486-.07.173c-.06.143-.121.29-.174.438-.154.424-.222.878-.289 1.316l-.026.167c-.03.196-.055.396-.079.59l-.024.193-.018.14c-.024.186-.049.379-.069.569l-.021.2c-.02.182-.04.37-.057.556l-.074.874a17.1 17.1 0 00-.024.344l-.005.085c-.006.083-.012.17-.012.254l-.002.15c-.003.211-.005.429.001.643.007.245.016.53.031.812l.023.425c.005.09.013.179.021.268l.011.122.02.234.02.255c.006.064.014.127.022.19l.008.07.025.21c.02.183.042.373.07.558l.083.53c.03.193.068.387.112.577.182.781.531 1.46 1.012 1.964.115.122.248.23.373.33.163.128.317.206.472.24a.804.804 0 00.145.017c.033 0 .066-.004.098-.008l.022-.003c.085-.011.172-.043.248-.071.16-.06.319-.14.473-.24.164-.108.317-.234.464-.357l.052-.043.027-.022c.071-.058.144-.119.214-.181.144-.13.273-.283.39-.43.14-.173.258-.355.367-.527l.05-.078c.047-.072.095-.146.139-.22l.181-.312.066-.113c.043-.073.082-.147.122-.221l.049-.09.008-.015c.053-.098.108-.199.156-.302l.208-.452c.034-.073.06-.148.086-.22l.033-.093.07-.19.02-.051.01-.028a.874.874 0 00.025-.07l.136-.461c.07-.237.13-.487.176-.742a6.691 6.691 0 00.102-1.08l.003-.23.003-.228c.003-.265.001-.53-.001-.753a3.442 3.442 0 00-.045-.487 6.442 6.442 0 00-.072-.39l-.044-.203-.055-.26a18.147 18.147 0 00-.188-.807c-.02-.084-.042-.17-.066-.254l-.131-.45a7.529 7.529 0 00-.12-.376 4.86 4.86 0 00-.372-.85 6.695 6.695 0 00-.183-.31 15.092 15.092 0 01-.07-.113c-.049-.08-.102-.16-.153-.236l-.054-.08a19.792 19.792 0 00-.965-1.278 3.107 3.107 0 00-.496-.476 11.421 11.421 0 01-.467-.386l.048.043-.05-.044c-.098-.086-.199-.17-.296-.25a31.843 31.843 0 01-.154-.13 3.044 3.044 0 01-.11-.106c-.016-.018-.034-.035-.052-.051l-.006-.006-.054-.047a.22.22 0 00-.079-.049.16.16 0 00.001-.076.192.192 0 00-.187-.151zM70.796 85.307a.19.19 0 00-.085.02.197.197 0 00-.092.107c-.158.356-.314.713-.469 1.07l-.105.242-.105.243-.015.034c-.02.045-.038.089-.056.134l-.349.905c-.07.182-.128.364-.186.54l-.033.103-.133.404c-.022.067-.04.137-.059.204l-.026.097-.025.09-.093.33a6.8 6.8 0 00-.06.236l-.029.114-.028.108c-.019.075-.039.15-.055.226l-.102.464c-.044.2-.08.406-.114.604l-.03.166c-.042.239-.077.48-.11.709a15.5 15.5 0 00-.097.773c-.025.271-.05.543-.072.815l-.007.118v.017a3.49 3.49 0 01-.004.064c-.004.045-.007.092-.006.138v.123c.001.104.001.211.01.316l.008.093c.019.212.037.431.066.646l.008.057.024.171c.013.089.028.162.048.231.029.101.068.201.105.294.093.23.222.44.346.635.076.119.16.229.24.33.09.115.212.211.36.286.162.081.338.145.521.188.122.029.251.043.383.043.209 0 .43-.035.678-.107.153-.044.314-.108.478-.188.153-.076.298-.174.439-.27l.03-.02c.065-.044.14-.096.21-.156.064-.055.122-.12.175-.18.116-.131.218-.279.323-.464.174-.31.31-.648.401-1.005.062-.239.098-.476.125-.676l.016-.106c.012-.083.024-.168.031-.252.047-.595.081-1.184.105-1.63l.007-.115.012-.228c.006-.144.009-.282.008-.422 0-.221-.015-.446-.03-.664l-.007-.115c-.017-.25-.052-.504-.087-.75l-.006-.044c-.031-.224-.067-.478-.12-.725a6.34 6.34 0 00-.205-.727 12.29 12.29 0 00-.27-.73c-.093-.228-.208-.45-.31-.647a10.272 10.272 0 01-.38-.806c-.038-.09-.075-.179-.116-.267a3.961 3.961 0 00-.205-.383 10.298 10.298 0 01-.063-.107 3.349 3.349 0 00-.197-.313 1.954 1.954 0 00-.132-.163.68.68 0 00-.274-.188.25.25 0 00-.115-.012.185.185 0 00-.095-.027zM63.555 74.172a.285.285 0 00-.19.073l-.01.009a.29.29 0 00-.092.19.304.304 0 00.055.187c.013.056.022.114.03.17.007.042.013.083.021.124l-.33 1.11-.06.199c-.072.242-.151.504-.243.8-.044.14-.084.28-.123.427-.041.155-.07.322-.093.456-.052.302-.09.607-.12.864-.037.308-.07.636-.044.966.008.102.027.204.046.302l.002.015.005.029a7.745 7.745 0 00.14.608c.045.157.094.297.15.425.052.117.127.238.234.381.062.082.127.151.193.205.129.105.293.163.437.209.145.045.26.066.37.066h.013a1.242 1.242 0 00.875-.405c.058-.06.108-.122.15-.182a1.986 1.986 0 00.299-.689c.038-.154.07-.313.101-.467l.007-.035c.03-.153.053-.307.066-.459.02-.226-.024-.454-.066-.674l-.018-.092a11.17 11.17 0 00-.059-.288l-.025-.12a16.57 16.57 0 00-.108-.48 7.869 7.869 0 00-.121-.433l-.014-.044c-.036-.12-.075-.24-.114-.36l-.023-.07a22.055 22.055 0 00-.172-.51l-.01-.026a17.417 17.417 0 00-.158-.448l.025.076c-.07-.201-.15-.428-.256-.637-.05-.099-.103-.196-.156-.292a2.242 2.242 0 01-.117-.26 3.696 3.696 0 01-.093-.34l-.016-.087-.012-.067a4.51 4.51 0 00.02-.066.225.225 0 00-.139-.281.201.201 0 00-.057-.011.276.276 0 00-.108-.052.286.286 0 00-.092-.016z" fill="#7EBC89"/><path d="M78.826 79.755a.23.23 0 00-.074.152l-.126 1.045c-.024.201-.049.403-.066.604a84.122 84.122 0 00-.121 1.537c-.034.475-.045.951-.06 1.427-.007.238-.015.475-.02.712-.006.223-.005.446 0 .67.007.242.007.486.019.73.011.237.022.474.022.712 0 .242-.003.484.007.726.01.243.022.486.03.73.01.233.013.467.02.7.008.25.026.501.04.752.026.457.056.914.08 1.372.013.262.025.523.041.785.017.265.04.53.062.797.045.659.084 1.318.133 1.977l-.001-.013c.02.294.045.587.07.881.015.223.031.446.045.67.014.237.033.474.046.71.027.488.06.975.112 1.46.024.227.052.453.079.68.027.235.047.472.074.707.027.24.053.48.077.72.025.236.05.47.071.707.01.125.024.25.04.374.013.105.134.17.23.15.05-.01.094-.04.122-.082.032-.048.033-.094.028-.148l-.023-.293c-.009-.121-.016-.241-.028-.361a37.54 37.54 0 01-.038-.38c-.02-.227-.043-.453-.068-.68-.026-.236-.045-.473-.072-.71-.027-.234-.055-.468-.078-.702l-.03-.32c-.033-.464-.056-.928-.083-1.391-.028-.481-.056-.962-.094-1.442l-.018-.221c-.065-.913-.1-1.828-.167-2.74a20 20 0 01-.045-.766c-.008-.223-.022-.446-.033-.67-.024-.474-.053-.948-.077-1.423a25.13 25.13 0 01-.03-.746c-.005-.235-.01-.47-.021-.703-.012-.242-.026-.483-.025-.724 0-.24.006-.48-.007-.719a31.559 31.559 0 01-.03-.733c-.007-.23-.016-.461-.017-.691-.003-.466.012-.932.024-1.397a30.99 30.99 0 01.071-1.533c.031-.48.071-.96.123-1.44.046-.428.1-.854.152-1.281.014-.12-.093-.226-.207-.233h-.013a.22.22 0 00-.146.055z" fill="#000"/><path d="M77.521 80.54c-.078.04-.12.145-.073.225.205.354.406.712.62 1.062.057.094.113.191.187.273.082.092.209.112.325.086a.63.63 0 00.193-.087c.08-.05.154-.108.23-.166.07-.053.14-.104.211-.155.09-.066.182-.131.27-.2.088-.07.174-.144.265-.21l.17-.103a.181.181 0 00.083-.097.17.17 0 00-.01-.131.171.171 0 00-.227-.075 1.364 1.364 0 00-.34.226c-.085.073-.173.142-.261.21-.09.07-.182.135-.272.204-.087.066-.172.136-.26.2a.743.743 0 01-.108.06.406.406 0 01-.03.007.774.774 0 01-.042-.056c-.114-.177-.22-.36-.325-.542l-.381-.658a.177.177 0 00-.151-.091.162.162 0 00-.074.018zM77.398 82.809c-.069.062-.084.184-.015.253.177.173.353.347.531.519.154.149.31.299.478.431a.54.54 0 00.16.09c.067.023.139.014.208.005.06-.008.121-.042.174-.072.038-.021.074-.046.111-.068.082-.05.162-.105.242-.159.161-.106.326-.207.49-.308l.242-.145c.099-.059.2-.11.304-.162a.19.19 0 00.099-.208c-.02-.095-.126-.174-.225-.146a1.373 1.373 0 00-.233.092c-.05.024-.097.055-.144.084l-.282.18c-.2.127-.397.26-.59.397l-.07.046c-.06.039-.12.08-.185.11a.58.58 0 01-.039.008c-.055-.034-.105-.077-.155-.119-.292-.26-.568-.538-.848-.813a.187.187 0 00-.133-.06.18.18 0 00-.12.045zM77.416 85.346a.19.19 0 00-.146.225c.011.054.04.085.08.119l.562.488c.156.136.31.272.472.4.075.06.15.117.237.16a.39.39 0 00.163.042c.042 0 .08-.008.119-.024.04-.018.074-.043.11-.068.071-.052.136-.112.203-.17l.159-.136c.153-.131.314-.254.476-.372l.095-.067c.13-.082.265-.153.396-.232.071-.044.115-.118.097-.203a.187.187 0 00-.078-.116c-.038-.025-.097-.042-.141-.027-.057.02-.111.04-.165.064-.029.013-.056.029-.084.043a1.962 1.962 0 00-.155.092 4.595 4.595 0 00-.327.234c-.114.09-.227.181-.34.273-.126.104-.244.22-.374.32-.117-.07-.219-.162-.322-.247-.083-.07-.166-.14-.248-.212l-.645-.558a.161.161 0 00-.103-.032.205.205 0 00-.041.004zM77.168 87.409a.196.196 0 00.054.268c.38.28.763.555 1.15.824.077.052.153.104.231.152.088.055.176.106.273.143.062.024.136.03.202.021a.364.364 0 00.168-.076c.054-.04.104-.084.155-.126.041-.034.085-.065.128-.097.079-.06.16-.118.24-.176a5.63 5.63 0 01.414-.257c.17-.095.354-.166.526-.26a.198.198 0 00.085-.262.197.197 0 00-.11-.096.205.205 0 00-.152.01c-.141.06-.288.112-.426.182a3.624 3.624 0 00-.377.227 9.744 9.744 0 00-.384.277c-.06.045-.119.092-.178.138-.053.041-.101.087-.154.128a.624.624 0 01-.064-.024 3.565 3.565 0 01-.354-.223c-.113-.078-.227-.156-.34-.236a47.198 47.198 0 01-.819-.59.172.172 0 00-.103-.034.201.201 0 00-.165.087zM70.821 88.05c-.01.49-.022.98-.036 1.47-.008.28-.015.562-.028.843l-.052 1.151c-.015.34-.039.68-.058 1.02-.004.062-.01.123-.016.185l-.03.356c-.012.15-.026.3-.04.45-.03.323-.06.646-.086.969-.056.694-.103 1.389-.15 2.084l-.066.985c-.01.148-.029.297-.045.445l-.06.565-.046.435-.066.562c-.04.33-.07.66-.099.993-.029.319-.052.639-.073.958-.006.087-.01.174-.013.26l-.003.264c-.001.16-.002.322-.005.483-.001.09-.002.182-.001.273l.003.12c.003.087.009.176.029.26.021.09.109.15.2.132a.169.169 0 00.106-.072c.028-.041.03-.082.025-.13v-.012c-.006-.087-.006-.175-.006-.262l.001-.24.003-.51c.001-.165 0-.33.01-.496l.03-.465c.025-.348.052-.697.083-1.044.03-.33.067-.66.103-.988.036-.332.062-.666.095-.998.008-.071.015-.142.021-.214.008-.083.018-.165.023-.249l.03-.558c.035-.66.073-1.321.115-1.981.021-.336.045-.671.071-1.006.024-.314.053-.627.076-.941l.044-.592c.012-.153.017-.308.024-.461.017-.309.032-.617.045-.925l.031-.728c.005-.11.011-.22.014-.331l.033-1.214c.007-.277.012-.554.017-.83a.129.129 0 00-.119-.135h-.007c-.064 0-.125.053-.127.12z" fill="#000"/><path d="M69.998 88.768a.204.204 0 00-.088.271c.083.16.165.323.262.476.054.087.111.172.173.254.062.081.144.15.235.194a.41.41 0 00.319.005c.091-.032.177-.07.262-.116.065-.036.129-.075.191-.115l.441-.28a.193.193 0 00.09-.104.183.183 0 00-.114-.231c-.05-.018-.093-.008-.141.01a.841.841 0 00-.144.066c-.03.018-.058.037-.087.056l-.208.134c-.06.04-.124.078-.186.115-.064.038-.13.068-.199.094a.469.469 0 01-.056.015.399.399 0 01-.023-.016 1.1 1.1 0 01-.113-.134 6.92 6.92 0 01-.342-.606.205.205 0 00-.272-.088zM69.538 90.702a.15.15 0 00-.05.103c-.002.036.01.083.037.108.306.276.61.555.922.826.068.059.137.12.212.17a.392.392 0 00.21.068.425.425 0 00.079-.008c.037-.007.075-.024.11-.04.022-.01.043-.02.064-.032.144-.076.282-.162.423-.241.062-.035.128-.063.194-.09.075-.032.149-.066.223-.1a.166.166 0 00.087-.182c-.018-.084-.11-.152-.197-.128-.11.03-.213.073-.318.118-.075.033-.145.077-.215.119-.073.044-.145.09-.218.135-.074.044-.146.092-.225.126a.364.364 0 01-.015.004h-.004a.464.464 0 01-.022-.008c-.086-.05-.163-.118-.238-.182l-.21-.181-.638-.572c-.03-.028-.06-.048-.103-.05h-.008a.15.15 0 00-.1.037zM69.383 92.654a.207.207 0 00-.017.29c.084.09.17.178.258.266a6.992 6.992 0 00.426.382 1.413 1.413 0 00.383.24c.064.027.133.039.202.052.173.032.337-.043.492-.109.085-.036.168-.077.25-.12l.469-.241a.207.207 0 00.108-.225c-.025-.113-.133-.176-.244-.158-.174.028-.329.114-.481.2a3.839 3.839 0 01-.437.216.59.59 0 01-.064.014.629.629 0 01-.074-.004.88.88 0 01-.125-.044c-.132-.073-.247-.166-.364-.26-.06-.053-.121-.104-.177-.16-.106-.107-.212-.213-.315-.322a.215.215 0 00-.156-.068.2.2 0 00-.134.05zM69.265 94.376a.177.177 0 00-.014.246c.165.19.33.379.496.567.073.082.145.165.22.246.102.11.2.23.318.325a.428.428 0 00.161.08c.074.018.144.018.22.01a.514.514 0 00.17-.063c.042-.022.081-.05.121-.077.095-.06.19-.122.284-.183a4.496 4.496 0 01.507-.282c.069-.03.138-.057.209-.083.08-.028.159-.056.238-.086a.203.203 0 00.076-.067c.03-.045.04-.101.03-.153a.202.202 0 00-.086-.126c-.04-.027-.104-.045-.153-.03-.243.079-.48.168-.698.302-.203.125-.397.263-.593.398-.054.036-.107.072-.166.098a.282.282 0 01-.023.005.458.458 0 01-.062-.007.535.535 0 01-.052-.036c-.047-.044-.09-.093-.133-.14l-.11-.118c-.075-.082-.147-.167-.221-.25-.166-.186-.329-.374-.492-.562a.173.173 0 00-.13-.057.174.174 0 00-.117.043zM63.385 76.321c.01.902.025 1.805.028 2.707 0 .382.002.764.006 1.147.001.186.006.373.014.56l.014.305c.004.09.012.18.016.271.008.19.014.378.012.568-.001.187-.005.374-.012.56-.015.392-.035.783-.057 1.174-.01.182-.02.364-.02.546l-.005.57c-.005.38 0 .762.013 1.142.006.195.014.389.022.583.01.231.021.463.047.693a.18.18 0 00.166.143.182.182 0 00.132-.045c.032-.028.063-.08.06-.125-.03-.402-.048-.804-.064-1.207a22.385 22.385 0 01-.02-1.087c.002-.19.004-.381.004-.572 0-.104 0-.207.003-.311l.012-.292c.017-.373.037-.747.047-1.121.006-.182.01-.364.011-.546 0-.202-.004-.403-.014-.604-.01-.182-.024-.364-.032-.546a16.668 16.668 0 01-.02-.557c-.008-.73-.01-1.458-.019-2.187l-.02-1.75a.17.17 0 00-.04-.117.163.163 0 00-.112-.054h-.009c-.08 0-.164.066-.163.152z" fill="#000"/><path d="M62.919 77.56a.147.147 0 00-.072.084c-.012.033-.013.083.007.113.051.075.1.151.153.225.083.119.168.25.302.315a.305.305 0 00.103.026.298.298 0 00.155-.043c.033-.017.066-.036.097-.057.058-.038.115-.078.172-.118.065-.043.13-.085.195-.13l-.007.006.021-.014c.036-.024.063-.047.077-.089a.158.158 0 00-.008-.12.157.157 0 00-.209-.068c-.058.03-.11.067-.164.104l.024-.016c-.052.035-.103.07-.154.109l-.111.082a.986.986 0 01-.083.05.424.424 0 01-.018-.014c-.069-.067-.122-.146-.178-.225l.021.031a40.604 40.604 0 01-.126-.186c-.022-.033-.044-.06-.083-.073a.146.146 0 00-.114.008zM62.858 79.062a.166.166 0 00-.073.222c.021.041.053.063.094.082.099.044.198.089.298.132.038.017.078.032.117.047.11.045.227.063.346.06.23-.007.45-.091.65-.202a.176.176 0 00.075-.233.176.176 0 00-.098-.085.187.187 0 00-.135.01c-.102.04-.201.086-.303.125-.066.02-.13.036-.199.044a.73.73 0 01-.134-.006c-.089-.022-.174-.058-.257-.093-.085-.036-.17-.074-.253-.112a.12.12 0 00-.05-.01.18.18 0 00-.078.019zM46.704 75.34c-.034.976-.065 1.953-.087 2.929-.009.375-.02.75-.031 1.124-.005.178-.004.356-.003.534 0 .198.004.396.007.594.004.194.005.388.005.582 0 .188-.008.377-.007.566 0 .196.01.392.018.587.01.197.012.394.015.592.006.307.019.615.037.923l.032.468a43.91 43.91 0 00.083 1.125c.014.213.02.427.043.639a.19.19 0 00.173.148.188.188 0 00.135-.047c.034-.03.065-.082.063-.13-.008-.167-.018-.335-.028-.502-.01-.17-.029-.339-.043-.508-.01-.14-.02-.28-.032-.42l-.045-.648c-.025-.38-.044-.759-.054-1.139a24.16 24.16 0 00-.02-.538c-.01-.194-.022-.39-.02-.584.002-.38-.002-.76-.012-1.139-.01-.391-.02-.783-.01-1.175.02-.768.031-1.537.055-2.305l.054-1.656a.167.167 0 00-.154-.174h-.01a.166.166 0 00-.164.154z" fill="#000"/><path d="M45.917 76.323c-.058.052-.057.135-.011.193.092.117.183.234.277.35.037.044.073.088.112.13.041.046.083.088.132.126.07.052.16.077.245.08a.8.8 0 00.267-.048 5.528 5.528 0 00.58-.243.155.155 0 00-.02-.284.165.165 0 00-.12.008c-.19.074-.367.174-.557.247a.756.756 0 01-.135.032c-.018 0-.037 0-.055-.002a.375.375 0 01-.032-.01.43.43 0 01-.043-.03c-.08-.076-.15-.164-.22-.25-.077-.094-.151-.191-.227-.287a.124.124 0 00-.1-.046.141.141 0 00-.093.034zM45.72 78.32a.162.162 0 00.044.221c.107.07.213.141.32.21l.122.082.104.068a.887.887 0 00.097.05c.042.018.09.023.133.03a.467.467 0 00.243-.042c.043-.017.084-.042.125-.065l.17-.097c.107-.061.213-.124.319-.187a.165.165 0 00.077-.089.157.157 0 00-.22-.19 8.258 8.258 0 00-.3.17 5.336 5.336 0 01-.114.066c-.069.038-.136.079-.208.109a.372.372 0 01-.035.008.547.547 0 01-.044-.003.408.408 0 01-.044-.015c-.094-.053-.181-.118-.271-.176l-.296-.195a.16.16 0 00-.222.045zM45.686 79.306c-.059.052-.07.152-.013.21l.499.512c.085.088.165.186.265.258.049.036.107.049.165.06a.402.402 0 00.203-.03l.14-.05c.165-.056.331-.112.498-.166.179-.058.36-.108.54-.162a.19.19 0 00.112-.076.182.182 0 00.027-.138c-.02-.093-.119-.163-.214-.139-.116.03-.23.062-.342.1-.109.037-.217.077-.324.117-.192.073-.382.149-.572.222a.312.312 0 01-.03.007h-.025a.287.287 0 01-.012-.005.36.36 0 01-.033-.023c-.05-.047-.097-.096-.145-.145a24.006 24.006 0 00-.167-.168c-.123-.122-.242-.247-.362-.371a.16.16 0 00-.114-.05.144.144 0 00-.096.037zM45.947 89.71a.224.224 0 00-.15.057.235.235 0 00-.074.154l-.023.153-.01.064c-.038.252-.077.511-.113.768l-.064.455-.06.426a8.194 8.194 0 01-.012.083l-.006.041c-.015.106-.03.2-.04.298l-.044.394-.044.392-.059.535-.006.052c-.065.593-.133 1.205-.21 1.806l-.088.681-.025.215-.012.109-.011.09a7.987 7.987 0 00-.04.377l-.003.037c-.012.124-.024.248-.034.373l-.012.153-.04.49c-.015.195-.034.424-.056.655-.022.216-.042.432-.063.649-.034.369-.066.76-.091 1.075l-.019.232c-.026.317-.06.639-.09.923l-.035.33c-.018.18-.039.358-.06.537a39.53 39.53 0 00-.13 1.325l-.014.16v.009c-.01.123-.02.25-.034.376l-.014.133c-.041.39-.083.789-.117 1.182-.037.43-.064.865-.086 1.234-.01.184-.015.379-.013.596V107.618a9.68 9.68 0 00.012.634l.003.059c.005.086.01.182.02.276a.567.567 0 00.119.317c.09.118.23.178.364.229a1.347 1.347 0 00.438.082c.05 0 .1-.005.142-.008a.445.445 0 00.228-.085c.11-.086.172-.22.221-.33.062-.133.104-.278.144-.42.056-.193.073-.388.089-.575.018-.222.031-.405.036-.59l.007-.293c.008-.321.017-.653.022-.98.003-.223.003-.451 0-.675l-.007-.28a19.26 19.26 0 01-.007-.287 262.482 262.482 0 00-.015-.913c-.001-.116-.003-.231-.006-.345-.01-.376-.023-.775-.042-1.294a7 7 0 00-.019-.29l-.009-.113-.012-.171-.025-.34a69.654 69.654 0 00-.058-.702l-.022-.264-.002-.028-.001-.012a19.156 19.156 0 01-.032-.544l-.014-.352-.013-.338-.027-.65a13.464 13.464 0 01-.014-.543c-.002-.458.005-.87.021-1.262a109.47 109.47 0 01.09-1.794l.006-.114.003-.057.003-.058c.027-.23.052-.46.077-.691l.032-.283.078-.703.003-.027.043-.386.033-.198.015-.086c.026-.146.056-.311.08-.47.028-.193.05-.39.069-.575l.005-.049c.008-.077.016-.155.027-.232.01-.081.026-.163.042-.246l.014-.076a.126.126 0 00-.008-.065l.045-.3.026-.174a.225.225 0 00-.21-.236h-.012z" fill="#000"/><path d="M46.563 90.587a2.21 2.21 0 00-.176.129l-.095.077a2.395 2.395 0 01-.582.365.994.994 0 01-.167.037.55.55 0 01-.066 0 .522.522 0 01-.038-.015c-.095-.054-.181-.123-.27-.188a21.853 21.853 0 00-.324-.23.184.184 0 00-.253.05.185.185 0 00.05.254c.143.1.285.2.425.304.097.072.193.149.31.185.104.032.22.02.325.004.078-.012.153-.038.226-.068.074-.03.147-.07.217-.108.073-.04.144-.08.214-.124.154-.098.302-.203.45-.31a.221.221 0 00-.152-.385.172.172 0 00-.094.023zM46.338 92.52a2.533 2.533 0 00-.53.199 7.709 7.709 0 01-.569.247.418.418 0 01-.022.006.29.29 0 01-.018-.002.654.654 0 01-.052-.019 1.492 1.492 0 01-.22-.161l-.165-.152a.237.237 0 00-.154-.075.223.223 0 00-.236.21.216.216 0 00.056.162c.133.124.265.254.412.36.061.044.13.077.198.107.093.04.2.04.297.02.046-.009.095-.032.14-.047.04-.014.078-.03.117-.045l.125-.05c.115-.046.23-.094.344-.143a6.315 6.315 0 01.377-.148l.059-.02a.242.242 0 00.126-.265.244.244 0 00-.285-.185zM43.557 94.782c-.029.044-.04.1-.028.15.01.054.041.092.083.124a213.64 213.64 0 00.894.691l.12.095c.06.049.12.104.188.144a.35.35 0 00.221.046.511.511 0 00.178-.06c.091-.045.176-.104.264-.155l.307-.18c.18-.105.362-.203.548-.296l.277-.14a.2.2 0 00-.026-.367.209.209 0 00-.155.012c-.232.1-.455.22-.674.346-.094.054-.187.11-.28.165l-.2.12c-.09.053-.178.114-.274.157-.053-.036-.102-.08-.152-.12a110.901 110.901 0 00-.389-.302c-.21-.161-.419-.323-.627-.485a.167.167 0 00-.104-.034.21.21 0 00-.17.089zM43.53 97.505a.22.22 0 00-.108.124c-.017.05-.018.123.012.17.33.504.661 1.006.99 1.51l.184.292c.04.065.076.138.125.197a.392.392 0 00.089.086c.04.023.079.043.122.058l.044.009a.591.591 0 00.083.015c.052.006.11-.006.16-.015.083-.015.165-.05.243-.081a3.43 3.43 0 00.235-.107 79.19 79.19 0 00.66-.35c.293-.157.587-.315.88-.474l.48-.26c.163-.088.327-.173.486-.267a.271.271 0 00.129-.148.262.262 0 00-.014-.202c-.062-.121-.227-.186-.35-.115-.22.127-.438.26-.656.389-.206.12-.414.239-.621.358-.183.104-.368.203-.551.306l-.368.205c-.19.105-.381.212-.584.289a.936.936 0 01-.103.024.224.224 0 01-.026-.002c-.083-.127-.16-.26-.243-.386a303.765 303.765 0 01-1.003-1.529.238.238 0 00-.126-.108.22.22 0 00-.169.012zM35.023 75.095a.19.19 0 00-.15.07.108.108 0 00-.019-.004h-.009a.159.159 0 00-.158.149l-.007.201v.021c-.007.163-.013.332-.024.498l-.025.412-.068 1.094c-.01.15-.023.3-.04.465l-.008.092-.047.492-.046.49c-.018.184-.04.37-.06.55l-.002.016-.029.25-.07.623-.019.16c-.02.185-.042.37-.065.556l-.026.224-.045.414-.007.068-.03.272-.007.06-.006.053c-.056.49-.113.995-.162 1.493l-.075.736-.014.142-.083.813-.008.078c-.023.234-.046.467-.072.7-.018.167-.04.338-.06.484l-.035.28-.158 1.257-.023.179-.026.2-.047.386-.002.02-.037.304a40.798 40.798 0 00-.244 2.462c-.037.499-.068.978-.108 1.6l-.009.138c-.028.444-.06.948-.083 1.439l-.004.079c-.006.107-.01.21-.011.312v.389c0 .1-.002.198-.003.297-.002.154-.005.329-.003.497l.005.3.001.039c.003.143.006.286.006.43.001.18-.005.362-.01.538-.004.077-.006.149-.008.22a7.292 7.292 0 00-.004.386l.01.395c.004.143.016.286.036.426.011.076.028.175.065.259a.688.688 0 00.357.355.895.895 0 00.358.069h.042c.051-.002.102-.006.154-.01h.027l.026-.002.075-.005a8.96 8.96 0 00.494-.042.98.98 0 00.336-.097.549.549 0 00.16-.15c.045-.058.076-.13.106-.2l.003-.007c.075-.174.11-.358.144-.548.052-.296.06-.603.066-.9l.005-.18a3.8 3.8 0 00-.001-.212l-.002-.084c-.001-.101-.004-.201-.007-.302a26.462 26.462 0 00-.03-.673c-.004-.067-.012-.134-.019-.201a10.492 10.492 0 01-.04-.437 75.675 75.675 0 01-.077-1.6c-.005-.135-.006-.27-.008-.405-.001-.107.001-.218.003-.315l.002-.086c.004-.237.015-.472.028-.733a199.41 199.41 0 01.11-2.022l.001-.02c.024-.39.048-.792.055-1.188l.004-.234v-.014a29.931 29.931 0 01.043-1.338c.03-.594.058-1.136.089-1.657.015-.248.047-.491.084-.76l.016-.113c.03-.21.062-.447.1-.674.034-.208.078-.483.107-.764a35.262 35.262 0 00.126-1.588l.003-.053c.012-.18.015-.365.017-.528l.001-.066.003-.13c.011-.501.03-1.043.06-1.656.006-.123.012-.247.016-.37.003-.1.002-.201.001-.3V79.286c-.002-.202-.02-.408-.036-.607l-.01-.12a32.055 32.055 0 00-.062-.807 5.466 5.466 0 00-.126-.748 9.668 9.668 0 01-.038-.17l-.002-.008-.005-.027a7.532 7.532 0 00-.12-.49c-.021-.076-.04-.153-.06-.23l-.003-.01c-.037-.144-.075-.294-.121-.44l-.028-.088-.005-.015a6.107 6.107 0 00-.067-.208.563.563 0 00-.047-.115.205.205 0 00-.112-.097.2.2 0 00-.063-.01z" fill="#000"/><path d="M36.85 77.925c-.066.023-.13.047-.19.08-.047.024-.092.05-.138.074-.09.05-.184.093-.277.137a9.693 9.693 0 01-.287.128c-.092.04-.185.08-.278.116l-.31.119c-.096.034-.194.067-.286.11l-.272.133c-.1.05-.198.107-.3.15a.434.434 0 01-.037.008l-.004-.001a.515.515 0 01-.046-.032c-.11-.107-.204-.233-.3-.353l-.285-.355c-.071-.089-.213-.09-.294-.018-.088.079-.089.206-.018.295.165.205.327.411.497.612a.76.76 0 00.293.232.45.45 0 00.21.026.66.66 0 00.192-.06c.104-.045.205-.101.307-.152l.142-.07c.046-.022.093-.045.14-.064.112-.042.223-.083.335-.123.213-.076.424-.161.631-.25.243-.104.49-.207.715-.347a.212.212 0 00.11-.232.212.212 0 00-.089-.131.23.23 0 00-.119-.038.126.126 0 00-.042.006zM32.92 81.007a.223.223 0 00-.032.17c.012.06.047.101.094.138l.68.533c.089.07.18.141.269.213.126.1.254.215.42.237.114.015.233.008.349.001.078-.004.155-.009.233-.016l.11-.01c.076-.008.15-.026.224-.045.073-.02.145-.044.216-.066a5.63 5.63 0 00.308-.102c.108-.04.211-.091.313-.144.109-.055.217-.112.324-.17.14-.073.275-.156.41-.237a.236.236 0 00.111-.128.225.225 0 00-.012-.174c-.053-.104-.196-.16-.302-.098-.147.087-.293.177-.444.258-.204.11-.407.223-.625.305-.11.038-.223.072-.335.107-.092.028-.185.05-.28.063-.048.006-.096.01-.144.014-.133.009-.268.02-.4.007-.09-.055-.171-.126-.253-.192l-.259-.203-.666-.523a.187.187 0 00-.117-.038.237.237 0 00-.192.1zM32.195 83.362a.238.238 0 00-.079.163.253.253 0 00.06.171c.263.356.524.713.793 1.065.118.154.235.308.356.46.055.068.11.136.172.199.062.064.135.12.205.177.068.063.131.129.194.196a.249.249 0 00.347.02.25.25 0 00.02-.346c-.108-.132-.246-.237-.376-.346a2.771 2.771 0 01-.283-.322 23.53 23.53 0 01-.303-.388c-.259-.342-.515-.685-.77-1.03a.229.229 0 00-.178-.08.238.238 0 00-.158.06zM37.543 84.229c-.11.048-.21.123-.312.188l-.258.168-.53.343c-.326.212-.653.424-.978.638-.195.128-.389.257-.582.386-.04.027-.071.053-.088.1a.178.178 0 00.11.224c.04.014.1.015.137-.01.729-.486 1.466-.96 2.207-1.426l.202-.127c.085-.053.17-.11.262-.15.094-.04.127-.164.082-.252a.188.188 0 00-.164-.102.222.222 0 00-.088.02zM31.606 86.7a.19.19 0 00-.016.266c.166.188.328.378.491.569.12.14.233.283.349.425.216.267.43.537.631.814.022.033.044.065.063.1l.083.148a.952.952 0 00.157.214.75.75 0 00.318.166c.113.035.226.073.337.112.05.018.098.035.146.054.042.017.084.035.127.05.04.013.085.017.127.022.056.007.118-.004.173-.015.086-.015.173-.048.255-.08.07-.026.141-.054.21-.086.065-.03.13-.06.195-.092.104-.048.204-.098.305-.152.112-.06.227-.117.337-.181l.41-.236c.26-.151.518-.305.776-.46.138-.084.272-.174.408-.261.162-.106.32-.218.471-.337.12-.095.12-.286.023-.395a.282.282 0 00-.394-.023 5.812 5.812 0 01-.39.314c-.12.086-.24.17-.361.254-.346.225-.696.441-1.049.654-.173.105-.35.201-.527.3-.072.04-.145.075-.218.11-.14.07-.278.138-.423.194a1.143 1.143 0 01-.165.044.514.514 0 01-.033-.003c-.065-.021-.128-.048-.193-.071a6.255 6.255 0 00-.187-.064c-.054-.017-.107-.035-.161-.051-.066-.02-.132-.035-.196-.06a.584.584 0 01-.043-.03.9.9 0 01-.07-.085c-.043-.066-.083-.134-.128-.2a4.976 4.976 0 00-.21-.278c-.14-.178-.283-.353-.426-.53a34.95 34.95 0 00-.937-1.104.188.188 0 00-.14-.063.187.187 0 00-.125.047z" fill="#000"/><path d="M16.182 81.4a.293.293 0 00.016.226.298.298 0 00.149.136l.049.06c.132.21.243.431.355.653.06.118.12.236.178.355.143.294.29.587.428.884.38.827.762 1.654 1.137 2.484l.048.105c.069.15.267.206.41.133a.31.31 0 00.134-.41 542.08 542.08 0 00-1.176-2.571c-.134-.292-.278-.58-.417-.87a20.97 20.97 0 00-.167-.336c-.11-.222-.218-.447-.35-.657a1.69 1.69 0 00-.165-.23.55.55 0 00-.139-.105l-.07-.034a.597.597 0 00-.148-.02.294.294 0 00-.272.197zM18.705 79.742a.422.422 0 00-.045.09.282.282 0 00.066.289c.035.143.059.289.083.433.024.146.049.293.071.44.046.3.093.601.138.903l.098.662c.013.091.028.183.04.274l.139 1.155c.05.414.094.83.138 1.245.008.068.063.136.117.172a.28.28 0 00.384-.076c.045-.067.049-.134.04-.212-.05-.476-.102-.952-.158-1.428l-.119-1.002c-.016-.142-.04-.283-.06-.424l-.09-.62c-.038-.272-.077-.545-.117-.817l-.07-.458c-.012-.083-.027-.167-.04-.25a2.352 2.352 0 00-.038-.184.801.801 0 00-.052-.145.312.312 0 00-.123-.127.29.29 0 00-.159-.048.299.299 0 00-.243.128zM21.86 79.578a.271.271 0 00-.167.114.286.286 0 00-.04.206l.003.027c.008.145.003.292.001.437-.002.143-.007.286-.012.429a1070.928 1070.928 0 01-.11 2.992.25.25 0 00.232.261.249.249 0 00.261-.232c.03-.73.056-1.46.089-2.191.011-.273.022-.545.037-.818l.024-.458c.009-.185.029-.375.002-.56-.018-.127-.145-.212-.267-.212a.253.253 0 00-.053.005zM23.952 80.769a2.187 2.187 0 01-.028.187c-.088.407-.186.81-.284 1.215-.13.536-.262 1.07-.394 1.606a.24.24 0 00.012.176.228.228 0 00.306.1.22.22 0 00.112-.13c.136-.55.272-1.101.41-1.652l.177-.702.081-.333c.035-.145.07-.29.09-.439.017-.13-.102-.248-.227-.255h-.014c-.128 0-.23.1-.24.227zM23.262 90.73a.277.277 0 00-.092.19c-.004.065.017.153.069.199.225.2.407.444.594.68.16.203.315.412.462.625.079.117.155.235.224.357.077.136.143.279.206.421.059.135.237.183.363.119.137-.07.179-.23.12-.364a5.024 5.024 0 00-.256-.509 5.496 5.496 0 00-.162-.255c-.059-.09-.119-.18-.182-.266l-.308-.422c-.083-.113-.17-.223-.254-.335-.042-.055-.088-.107-.132-.16a1.861 1.861 0 00-.316-.304.237.237 0 00-.146-.047c-.07 0-.14.026-.19.07zM25.257 88.682a.27.27 0 00-.117.36c.014.026.026.053.037.08.04.122.072.247.107.37l.065.229c.06.214.12.428.178.643.152.558.304 1.115.454 1.674.038.139.168.235.315.204.136-.029.242-.175.205-.315l-.45-1.678-.182-.677-.081-.295-.04-.148a2.576 2.576 0 00-.093-.27c-.017-.042-.051-.08-.077-.116a.266.266 0 00-.32-.06zM27.002 88.716c-.048.042-.091.115-.088.182.015.37.04.74.06 1.11.022.422.046.845.07 1.267.003.066.013.12.059.172a.24.24 0 00.336.02c.043-.038.083-.104.08-.164-.022-.422-.046-.844-.06-1.267-.012-.369-.025-.738-.017-1.107a.268.268 0 00-.249-.28h-.015a.266.266 0 00-.176.067zM53.877 75.225a1.676 1.676 0 00-.107.007.39.39 0 00-.167.083c-.035.04-.07.077-.096.123-.029.05-.05.103-.07.156a.304.304 0 00.237.396l.032.152c.027.13.052.261.078.392l.132.667c.05.252.095.506.151.756.07.313.139.626.213.938a.303.303 0 00.355.23.302.302 0 00.231-.355l-.126-.554c-.03-.132-.062-.264-.088-.397-.054-.275-.109-.55-.162-.826l-.176-.919-.077-.39a1.666 1.666 0 00-.071-.243c-.038-.107-.164-.216-.282-.216h-.007zM55.585 75.386c-.028.26-.04.52-.055.782l-.04.719c-.033.581-.07 1.162-.106 1.744a.274.274 0 00.255.286.274.274 0 00.286-.254c.037-.581.072-1.163.11-1.744l.047-.706c.017-.264.038-.53.041-.795.002-.147-.1-.276-.253-.285h-.016a.275.275 0 00-.269.253zM57.61 75.769c-.248.824-.467 1.657-.686 2.489a.273.273 0 00.014.202c.03.06.084.107.149.128.127.044.293-.025.33-.162.22-.831.434-1.666.717-2.479a.28.28 0 00-.172-.351.275.275 0 00-.351.173zM61.103 98.281c-.46 1.26-.942 2.51-1.426 3.762-.107.277-.21.554-.32.83-.048.117.009.259.11.327a.284.284 0 00.216.04.273.273 0 00.177-.12c.036-.065.076-.132.105-.202l.049-.118c.026-.064.054-.128.079-.193l.206-.54.35-.91a159.68 159.68 0 001.007-2.688.294.294 0 00-.275-.385.299.299 0 00-.278.197zM57.094 99.14c-.097.087-.118.257-.02.354l.041.046c.056.097.095.202.136.307.026.068.05.137.073.206l-.009-.024c.088.255.174.51.259.768.08.24.152.482.228.723.032.105.06.212.09.318l.137.479c.027.094.046.19.068.286l.095.408c.01.04.015.083.022.125.02.118.147.193.261.169a.223.223 0 00.17-.261c-.027-.156-.065-.31-.1-.465-.026-.11-.047-.221-.077-.33l-.228-.817c-.064-.231-.135-.461-.206-.69l-.245-.798c-.027-.088-.053-.175-.083-.262-.062-.183-.113-.385-.259-.521a.264.264 0 00-.172-.083l-.015-.001a.254.254 0 00-.166.063zM54.631 100l-.009.009c-.09.09-.126.223-.065.343a.288.288 0 00.092.105l.023.03c.178.274.33.566.485.852.137.253.27.507.405.76.117.22.222.446.33.67l.237.493c.106.218.204.44.305.66.067.146.257.2.396.129a.299.299 0 00.13-.396c-.177-.387-.357-.77-.54-1.153-.115-.24-.228-.48-.352-.714a93.086 93.086 0 00-.43-.817c-.063-.117-.125-.234-.19-.35a36.094 36.094 0 01-.124-.218c-.049-.088-.108-.17-.164-.253a.564.564 0 00-.175-.174.284.284 0 00-.144-.048l-.017-.001a.283.283 0 00-.193.073zM58.69 98.533a.268.268 0 00-.085.175c-.039.278-.052.56-.068.839l-.07 1.155a.272.272 0 00.253.285.272.272 0 00.284-.253l.073-1.155c.017-.28.039-.56.035-.84a.268.268 0 00-.064-.184.256.256 0 00-.358-.022zM63.775 100.11a.311.311 0 00-.182.124 9.501 9.501 0 00-.503.717c-.18.275-.358.55-.535.828-.05.078-.103.154-.149.235l-.257.455-.287.508c-.131.232-.253.469-.378.705a.311.311 0 00-.044.225.296.296 0 00.351.228c.07-.014.15-.06.185-.125.123-.23.242-.463.37-.69l.282-.496.267-.47c.047-.084.102-.164.155-.245.173-.268.347-.536.523-.802.166-.251.33-.504.506-.75.093-.128.048-.318-.08-.404a.296.296 0 00-.224-.042zM88.686 84.318c-.053.187-.09.377-.128.567l-.107.528-.213 1.032c-.18.865-.364 1.73-.547 2.595a8.63 8.63 0 00-.017.086.324.324 0 00.22.327.329.329 0 00.253-.018c.067-.034.144-.107.16-.185.183-.865.367-1.73.547-2.595l.213-1.032c.08-.394.17-.788.223-1.187.018-.135-.086-.27-.21-.312a.304.304 0 00-.096-.016c-.13 0-.261.08-.298.21zM90.688 85.733c-.083.13-.15.27-.223.406l-.2.38-.345.659-.468.891c-.13.245-.25.495-.374.742-.192.384-.382.769-.57 1.154-.028.057-.013.14.013.193a.249.249 0 00.333.108l.053-.036a.25.25 0 00.07-.105l.247-.507c.137-.276.278-.55.417-.825.105-.207.21-.415.32-.62.288-.536.575-1.073.87-1.605.1-.18.206-.357.304-.538a.284.284 0 00.04-.204.267.267 0 00-.261-.212.266.266 0 00-.226.119zM92.197 87.419c-.117.098-.224.212-.33.322-.098.103-.197.204-.294.307l-.661.699a56.047 56.047 0 00-1.418 1.566l-.177.202-.045.052a.269.269 0 00.023.33.273.273 0 00.186.09c.064.004.151-.017.196-.068a52.795 52.795 0 012.195-2.379c.202-.207.404-.415.619-.61.03-.026.06-.052.092-.077.124-.098.124-.297.024-.41a.284.284 0 00-.214-.096.305.305 0 00-.196.072zM92.567 89.408c-.312.21-.61.44-.904.674-.223.177-.445.353-.663.536a6.717 6.717 0 00-.798.794 4.07 4.07 0 00-.229.291c-.071.1-.037.246.062.312.105.07.24.037.312-.062l.09-.125c.034-.045.071-.087.108-.13l-.007.008.008-.01.03-.034-.024.028c.222-.252.46-.486.717-.702.16-.133.321-.261.487-.386.204-.154.409-.306.616-.455.141-.096.284-.19.43-.277a.272.272 0 00.128-.148.26.26 0 00-.253-.344c-.04 0-.08.01-.11.03zM85.624 98.79l-.047.054a.277.277 0 00-.046.134c-.04.166-.103.33-.163.49-.056.145-.109.29-.167.436-.15.373-.297.746-.447 1.118-.067.165.042.359.203.413a.33.33 0 00.252-.017.343.343 0 00.161-.186c.15-.372.298-.746.445-1.12.057-.143.102-.293.153-.44.026-.073.041-.15.061-.224a2.073 2.073 0 00.059-.288c.006-.05.003-.096 0-.145a.302.302 0 00-.069-.202.283.283 0 00-.209-.094.283.283 0 00-.186.07zM87.662 99.014c-.28.29-.527.614-.778.93-.27.34-.537.682-.806 1.024a.26.26 0 00-.04.204.268.268 0 00.114.167c.06.04.134.054.205.04a.285.285 0 00.167-.114l.8-1.013c.24-.302.484-.602.7-.923a.245.245 0 00-.02-.295.258.258 0 00-.19-.082.208.208 0 00-.152.062zM89.171 99.18c-.072.016-.117.057-.163.112l-.021.025c-.211.226-.437.439-.661.652-.156.148-.311.295-.464.445-.174.17-.342.343-.495.53-.154.189-.292.39-.41.602a.263.263 0 00-.036.19c.013.063.051.12.105.155.055.037.124.05.19.037a.242.242 0 00.155-.106c.135-.241.297-.47.477-.68.181-.201.38-.386.579-.57l.321-.294c.244-.22.492-.437.697-.694a.264.264 0 00-.219-.409.247.247 0 00-.055.006z" fill="#7EBC89"/><path d="M53.988 105.447c-.035 0-.07 0-.106.003l-.083.006a.318.318 0 00-.187.123.268.268 0 00-.187-.091h-.015c-.056 0-.137.018-.183.069a2.51 2.51 0 00-.261.326 2.198 2.198 0 00-.221.459 1.1 1.1 0 00-.05.216l.01.116c.004.04.02.078.035.115l.015.037a1.078 1.078 0 00.138.203c.05.06.116.11.18.158l.01.008c.114.085.256.156.411.205.095.029.195.046.292.062l.014.003c.06.009.121.014.19.014l.062-.001c.157-.006.294-.038.421-.098a.91.91 0 00.309-.268 1.23 1.23 0 00.155-.271l.016-.032c.024-.052.044-.102.061-.156.099-.3.065-.605-.09-.817a.765.765 0 00-.157-.163.928.928 0 00-.196-.114 1.18 1.18 0 00-.222-.072 1.611 1.611 0 00-.36-.04zM56.873 107.807h-.008a1.195 1.195 0 00-.395.063 1.59 1.59 0 00-.248.11c-.055.03-.11.07-.17.12a.293.293 0 00.061.473 4.445 4.445 0 00-.063.334c-.016.11-.023.224-.03.333l-.001.04a1.947 1.947 0 000 .184v.015a.87.87 0 00.015.137.53.53 0 00.058.14.719.719 0 00.188.205 1.02 1.02 0 00.576.204c.034.003.069.004.103.004a3.853 3.853 0 00.483-.043c.095-.016.194-.044.311-.091a.765.765 0 00.383-.35 1.565 1.565 0 00.185-.529 1.15 1.15 0 00-.02-.478.893.893 0 00-.23-.405 1.323 1.323 0 00-.278-.205 1.838 1.838 0 00-.355-.165 1.859 1.859 0 00-.176-.046l-.017-.004a1.695 1.695 0 00-.372-.046zM69.33 80.384c-.03 0-.059.001-.088.004a1.694 1.694 0 00-.181.028l-.011.003a.214.214 0 00-.111-.031.192.192 0 00-.093.023c-.16.087-.286.183-.389.295a2.016 2.016 0 00-.474.903.794.794 0 00-.005.233l.006.02.005.02a.531.531 0 00.11.2l.006.007a1.001 1.001 0 00.182.15c.073.045.153.081.23.117.13.058.28.089.458.095l.075.001c.112 0 .228-.009.345-.027.05-.008.107-.023.171-.044.093-.032.183-.064.266-.115.08-.05.14-.1.185-.16.054-.068.093-.145.124-.21.08-.17.12-.35.116-.532a1.317 1.317 0 00-.117-.5.734.734 0 00-.321-.335 1.4 1.4 0 00-.24-.106.77.77 0 00-.25-.04zM73.394 81.516a.677.677 0 00-.177.027c-.09.025-.171.066-.24.102a.234.234 0 00-.12.255c-.047.052-.086.1-.12.149-.082.119-.137.257-.185.39-.051.139-.083.274-.097.4a.644.644 0 00.083.378c.059.106.167.191.322.253.055.021.114.032.171.042l.034.006c.057.01.115.015.178.016h.011c.143 0 .305-.029.467-.083a.815.815 0 00.337-.2c.085-.087.155-.194.22-.338a.853.853 0 00.058-.21.952.952 0 00-.075-.562 1.053 1.053 0 00-.422-.498.954.954 0 00-.445-.127zM51.893 80.758a.75.75 0 00-.217.034.308.308 0 00-.078.034.12.12 0 00-.04.016c-.126.08-.24.159-.348.24a2.85 2.85 0 00-.338.318 3.153 3.153 0 00-.275.322.87.87 0 00-.123.273.296.296 0 00-.01.072l.006.078c.003.033.018.071.03.102l.003.007a.78.78 0 00.044.092c.035.06.08.117.123.17.104.125.25.202.377.262a1.666 1.666 0 00.624.143c.066 0 .132-.006.196-.018.068-.012.134-.036.193-.057.061-.023.107-.043.15-.065a.825.825 0 00.15-.102.772.772 0 00.14-.178c.032-.05.06-.105.085-.158l.011-.024a1.116 1.116 0 00.105-.614 1.403 1.403 0 00-.028-.166c-.008-.036-.02-.072-.033-.107l-.01-.029a1.105 1.105 0 00-.222-.411.837.837 0 00-.32-.202.576.576 0 00-.195-.032zM18.04 88.456H18a.902.902 0 00-.168.023.971.971 0 00-.178.067.226.226 0 00-.126.207.14.14 0 00-.093.043 1.51 1.51 0 00-.252.337 2.332 2.332 0 00-.183.438.825.825 0 00-.04.19c-.003.079.03.158.059.228.022.052.054.1.086.145l.025.036c.021.032.043.063.066.094.03.04.068.073.102.102.094.081.211.15.358.208a.94.94 0 00.443.06.772.772 0 00.201-.044.645.645 0 00.182-.103c.024-.018.046-.046.066-.07l.007-.01c.021-.025.04-.051.06-.078a1.286 1.286 0 00.211-.714 1.847 1.847 0 00-.13-.675c-.08-.194-.188-.326-.33-.402a.693.693 0 00-.327-.082z" fill="#F2E24D"/><path d="M35.895 69.282l-.174.001-.538.007a3.697 3.697 0 00-.213.012l-.056.005c-.118.008-.229.02-.338.033a3.763 3.763 0 00-.492.098l-.27.073-.27.074c-.161.043-.33.102-.454.145l-.013.004-.017.006c-.219.075-.445.164-.672.264-.182.08-.379.178-.484.23l-.012.006-.07.035-.045.022-.01.005c-.082.04-.184.09-.276.143l-.26.147-.259.147c-.088.049-.179.112-.24.153l-.101.07-.124.082-.123.082-.031.02c-.036.023-.07.046-.103.07l-.227.176-.226.176-.062.048-.009.006a3.476 3.476 0 00-.19.155l-.05.045-.414.37c-.173.156-.334.32-.488.48l-.009.009-.015.016-.014.014-.04.041-.044.045-.063.064c-.068.07-.132.142-.203.224l-.275.313-.144.165c-.212.243-.394.479-.554.72a4.012 4.012 0 00-.31.556c-.077.167-.134.34-.19.51l-.016.048-.028.084c-.06.178-.123.358-.188.541l-.015.042c-.106.296-.239.665-.343 1.021a18.665 18.665 0 00-.463 1.945l.02-.005.062-.017.254-.072.481-.142.156-.047.013-.004.014-.005.02-.005c.088-.027.178-.054.268-.078l.319-.085 1.202-.32.133-.03.066-.015.222-.052.224-.052.421-.099.421-.098c.128-.03.257-.057.387-.084l.148-.032.146-.032.74-.16c.067-.016.135-.03.204-.043l.006-.011.008-.018c.218-.458.51-1.057.842-1.632.146-.253.29-.508.436-.762l.042-.075.373-.654.046-.08.008-.015.01-.017.004-.009.012-.021.008-.014c.037-.065.075-.132.116-.197l.004-.007.296-.467c.138-.215.285-.442.446-.643.226-.283.497-.595.864-.726a.314.314 0 01.107-.023c.023 0 .043.004.063.01a.228.228 0 01.125.108.226.226 0 01.02.127c.055.045.103.092.158.154.067.073.123.158.173.233.07.099.135.18.204.254l.059.061.021.023.168.179c.082.09.166.178.25.267l.02.02.23.246c.099.107.189.224.275.356.075.115.145.233.211.344.144.245.266.487.374.74.108.255.204.516.297.77l.006.016.007.02.006.016.007.02c.055.151.113.3.173.453l.005.014.008.018.006.018.007.017.004.01.003.01.39-.029c.18-.015.367-.026.543-.035l.056-.004.225-.013c.15-.009.3-.018.45-.025l.034-.001.204-.01.113-.005h.015c.261-.013.656-.032 1.02-.041l.837-.022h.055c.156-.005.312-.006.468-.007l.212-.002c.52-.007 1.052-.01 1.48-.012h.078l.768-.007.029-.143.018-.097-.035-.1c-.077-.22-.153-.439-.231-.657l-.138-.387-.05-.139a8.06 8.06 0 00-.105-.28l-.01-.028-.004-.007-.04-.107-.013-.03a9.473 9.473 0 00-.363-.807l-.043-.086-.004-.009-.004-.008a7.645 7.645 0 00-.37-.693 5.519 5.519 0 00-.293-.432c-.099-.13-.204-.253-.275-.335l-.182-.208a4.267 4.267 0 00-.44-.429c-.07-.06-.145-.12-.207-.169l-.007-.005-.006-.005-.01-.008-.012-.01-.032-.026-.017-.013-.013-.011-.007-.005a2.007 2.007 0 00-.115-.09l-.139-.1-.056-.04L41.86 71l-.034-.025-.01-.007a1.433 1.433 0 00-.12-.084l-.293-.183-.113-.07a1.694 1.694 0 00-.103-.059l-.018-.009a4.153 4.153 0 01-.062-.033l-.126-.07-.124-.068a1.83 1.83 0 00-.133-.065l-.028-.013-.028-.013a89.535 89.535 0 01-.296-.14 5.058 5.058 0 00-.296-.127l-.044-.019-.075-.03a7.218 7.218 0 00-.398-.153l-.114-.042-.153-.055a6.17 6.17 0 00-.506-.155 6.954 6.954 0 00-1.233-.218l-.253-.021-.278-.024c-.1-.008-.21-.012-.288-.014l-.032-.001a15.156 15.156 0 00-.807-.02z" fill="#DA3ACB"/></g></svg>