<svg xmlns="http://www.w3.org/2000/svg" width="892" height="516">
    <defs>
        <linearGradient id="a" x1="49.972%" x2="49.972%" y1="99.913%" y2="-.087%">
            <stop offset="0%" stop-color="gray" stop-opacity=".25"/>
            <stop offset="54%" stop-color="gray" stop-opacity=".12"/>
            <stop offset="100%" stop-color="gray" stop-opacity=".1"/>
        </linearGradient>
        <linearGradient id="b" x1="50%" x2="48.01%" y1="0%" y2="100%">
            <stop offset="0%" stop-color="#2A415C"/>
            <stop offset="100%" stop-color="#1B2D48"/>
        </linearGradient>
        <linearGradient id="c" x1="50%" x2="47.963%" y1="0%" y2="100%">
            <stop offset="0%" stop-color="#2A415C"/>
            <stop offset="100%" stop-color="#1B2D48"/>
        </linearGradient>
    </defs>
    <g fill="none" fill-rule="evenodd">
        <g fill-rule="nonzero" transform="translate(168 108)">
            <path fill="url(#a)" d="M54.833 12.074a30.764 30.764 0 0 0-9.082-7.996A30.516 30.516 0 0 0 10.896 7.14 30.494 30.494 0 0 0 1.84 40.925 30.509 30.509 0 0 0 30.492 61c.649 0 1.297 0 1.928-.071a30.5 30.5 0 0 0 25.796-17.704 30.483 30.483 0 0 0-3.374-31.098l-.009-.053Z"/>
            <path fill="#000" d="M22.795 12.303a29.21 29.21 0 0 0-4.132 2.316 6.654 6.654 0 0 0-2.212 2.107 2.87 2.87 0 0 0-.051 3.007c.675.981 1.972 1.126 3.117 1.199a7.524 7.524 0 0 0 3.569-.382 7.723 7.723 0 0 0 2.083-1.607l2.383-2.298c.853-.8 1.707-1.899 1.374-3.025-.4-.818-1.161-1.364-2.023-1.454a8.042 8.042 0 0 0-5.978 1.118" opacity=".1"/>
            <ellipse cx="1.739" cy="1.484" fill="#000" opacity=".1" rx="1.487" ry="1.394" transform="translate(11 40)"/>
            <circle cx="5.843" cy="6.087" r="5.443" fill="#000" opacity=".1" transform="translate(38 26)"/>
            <path fill="#000" d="M53.296 13.437c-.045 3.91-3.192 7.098-7.153 7.242-3.96.144-7.337-2.806-7.672-6.703-.336-3.896 2.488-7.367 6.416-7.884a28.223 28.223 0 0 1 8.409 7.345Zm.177 33.729C48.425 54.073 40.382 58.4 31.616 58.923c0-.386-.053-.773-.053-1.167.004-4.984 2.93-9.54 7.562-11.779 4.633-2.239 10.183-1.779 14.348 1.19Z" opacity=".1"/>
        </g>
        <path fill="#16253C" fill-rule="nonzero" d="M297.037 223.348h28.198v39.819h-28.198V317h-49.39v-53.833H145.621l-2.222-31.104L247.135 68.172h49.902v155.176Zm-104.419 0h55.03v-87.842l-3.248 5.64-51.782 82.202Zm326.587-9.229c0 34.408-7.12 60.726-21.362 78.955-14.242 18.23-35.091 27.344-62.55 27.344-27.115 0-47.85-8.944-62.206-26.831-14.356-17.888-21.704-43.522-22.046-76.904v-45.801c0-34.75 7.206-61.125 21.619-79.126 14.412-18.002 35.176-27.002 62.292-27.002s47.852 8.915 62.207 26.746c14.356 17.83 21.704 43.436 22.046 76.818v45.801Zm-49.39-50.244c0-20.622-2.82-35.632-8.459-45.032-5.64-9.4-14.44-14.099-26.404-14.099-11.621 0-20.194 4.472-25.72 13.416-5.526 8.943-8.46 22.928-8.801 41.955v60.498c0 20.28 2.762 35.348 8.288 45.203 5.526 9.855 14.384 14.783 26.575 14.783 12.077 0 20.793-4.729 26.147-14.185 5.355-9.456 8.147-23.926 8.374-43.408v-59.131Zm228.833 59.473h28.199v39.819h-28.199V317h-49.39v-53.833H547.233l-2.221-31.104L648.746 68.172h49.902v155.176Zm-104.419 0h55.03v-87.842l-3.247 5.64-51.783 82.202Z"/>
        <g fill-rule="nonzero" transform="translate(229 157)">
            <path fill="url(#b)" d="M172 203.546C172 265.402 135.511 287 90.5 287S9 265.402 9 203.546C9 141.69 90.5 63 90.5 63S172 141.69 172 203.546Z"/>
            <path fill="#121F30" d="m88.079 278.221.842-51.691L124 162.58l-34.947 55.841.379-23.243 24.177-46.267-24.077 40.116.682-41.802 25.888-36.834-25.781 30.261L90.747 64l-2.676 101.472.22-4.185-26.321-40.148 25.899 48.183-2.452 46.687-.074-1.24L55 172.521l30.252 46.626-.307 5.839-.055.088.025.479L78.693 344h8.313l.997-61.18 30.178-46.512z"/>
            <path fill="url(#c)" d="M415 171.29C415 246.679 370.005 273 314.5 273S214 246.678 214 171.29C214 95.905 314.5 0 314.5 0S415 95.904 415 171.29Z"/>
            <path fill="#121F32" d="m311.269 261.655 1.026-63.137L355 120.408l-42.544 68.206.462-28.389 29.432-56.512-29.31 48.999.829-51.059 31.517-44.99L314 93.624 314.518 0l-3.258 123.941.268-5.113-32.043-49.036 31.53 58.851-2.987 57.024-.088-1.513L271 132.55l36.828 56.951-.374 7.131-.066.108.03.585L299.843 342h10.121l1.214-74.728 36.738-56.811z"/>
            <ellipse cx="204" cy="347" fill="#121F32" rx="204" ry="12"/>
            <path fill="#0C1420" d="M199 174h18v169h-18z"/>
            <path fill="#155775" d="M291.112 211H181v-30h110.112L323 196z"/>
            <path fill="#000" opacity=".1" d="M291.112 210.463H181V213h110.112L323 197.269 320.429 196z"/>
            <path fill="#155775" d="M125.888 252H236v-30H125.888L94 237z"/>
            <path fill="#000" opacity=".1" d="M96.571 236 94 237.269 125.888 253H236v-2.537H125.888z"/>
            <circle cx="207.5" cy="196.5" r="5.5" fill="#0C1420"/>
            <circle cx="207.5" cy="236.5" r="5.5" fill="#0C1420"/>
            <path fill="#1C2E49" d="M171 329.725c0 11.322-6.715 15.275-15 15.275a25.718 25.718 0 0 1-1.714-.059c-7.477-.53-13.286-4.686-13.286-15.216 0-10.897 13.894-24.647 14.938-25.665l.002-.001.06-.059s15 14.403 15 25.725Z"/>
            <path fill="#0C1420" d="m156.753 342.274 5.235-7.684-5.248 8.528-.014.882a22.243 22.243 0 0 1-1.088-.052l.565-11.33-.005-.087.01-.017.053-1.07-5.261-8.549 5.278 7.747.012.227.426-8.56-4.504-8.834 4.56 7.332.443-17.747.002-.06v.059l-.074 13.994 4.484-5.548-4.503 6.753-.118 7.664 4.186-7.355-4.204 8.483-.066 4.26L163 321.073l-6.1 11.724-.147 9.477Z"/>
        </g>
        <circle cx="80" cy="89" r="3" fill="#FFF" fill-rule="nonzero"/>
        <circle cx="716" cy="194" r="3" fill="#FFF" fill-rule="nonzero" opacity=".448"/>
        <path fill="#FFF" fill-rule="nonzero" d="M540.922 46h-.844v2.078H538v.844h2.078V51h.844v-2.078H543v-.844h-2.078zM892 169.078h-2.078V167h-.844v2.078H887v.844h2.078V172h.844v-2.078H892z"/>
        <path fill="#FFFD86" fill-rule="nonzero" d="M728 300.078h-2.078V298h-.844v2.078H723v.844h2.078V303h.844v-2.078H728zm-723 59H2.922V357h-.844v2.078H0v.844h2.078V362h.844v-2.078H5z"/>
        <path fill="#FFFD86" fill-rule="nonzero" opacity=".398" d="M647 432.078h-2.078V430h-.844v2.078H642v.844h2.078V435h.844v-2.078H647z"/>
        <path fill="#FFFD86" fill-rule="nonzero" d="M771 99.078h-2.078V97h-.844v2.078H766v.844h2.078V102h.844v-2.078H771z"/>
        <path fill="#FFF" fill-rule="nonzero" d="M305 2.078h-2.078V0h-.844v2.078H300v.844h2.078V5h.844V2.922H305zm-131 307h-2.078V307h-.844v2.078H169v.844h2.078V312h.844v-2.078H174z"/>
        <path fill="#FFFD86" fill-rule="nonzero" opacity=".49" d="M227 207.078h-2.078V205h-.844v2.078H222v.844h2.078V210h.844v-2.078H227z"/>
        <circle cx="1.809" cy="1.819" r="1.116" fill="#000" fill-rule="nonzero" opacity=".1" transform="translate(162 375)"/>
        <path d="m733 397 23 12.115L738.043 429"/>
        <circle cx="855" cy="283" r="2" fill="#FFF" fill-rule="nonzero"/>
    </g>
</svg>
