<svg xmlns="http://www.w3.org/2000/svg" width="274" height="308">
    <g fill="rgba(255, 255, 255, .10)" fill-rule="evenodd">
        <path d="M136.56 126.525c-2.77-3.839-8.492.314-5.904 4.26.675 1.029 1.411 2.034 2.11 2.986 8.53 11.638 12.946 25.779 16.748 39.75.933 3.424 1.836 7.086.759 10.479 1.518-9.082.531-18.424-1.768-27.36-2.3-8.935-5.874-17.426-9.57-25.84a23.02 23.02 0 0 0-2.375-4.275Z" opacity=".5"/>
        <path d="M81.7 152.003c-5.752-.186-6.48 9.08-.759 9.563 1.518.13 3.036.17 4.463.21 17.606.508 34.255 7.258 50.252 14.588 3.924 1.79 8.045 3.806 10.344 7.636-7.21-8.87-16.695-15.402-26.811-20.16-10.116-4.757-20.862-7.95-31.623-10.878a26.15 26.15 0 0 0-5.866-.96Z"/>
        <path d="M84.39 174.007c-3.7.137-2.865 5.303.866 5.303.975 0 1.943 0 2.872-.075 11.33-.447 22.933 2.613 34.186 5.977 2.763.826 5.674 1.765 7.686 3.788-5.86-4.614-12.848-7.818-19.976-10.038-7.129-2.22-14.45-3.515-21.742-4.682a20.234 20.234 0 0 0-3.893-.273Z" opacity=".2"/>
        <path d="M157.64 267.239c1.093 3.423 6.172 1.387 5.248-2.103-.249-.91-.538-1.813-.803-2.67-3.384-10.441-3.215-22.038-2.669-33.367.137-2.774.354-5.727 1.913-8.099-3.215 6.6-4.717 13.901-5.168 21.098-.45 7.197.113 14.35.804 21.442.097 1.25.323 2.488.675 3.699Z" opacity=".5"/>
        <path d="M89.821 125.032c-2.307-.387-2.483 2.866-.176 3.362.6.124 1.21.225 1.786.318 7.066 1.17 13.819 4.509 20.323 7.995 1.602.86 3.277 1.805 4.246 3.293a38.624 38.624 0 0 0-10.999-8.7 97.317 97.317 0 0 0-12.817-5.625 13.157 13.157 0 0 0-2.363-.643Z" opacity=".2"/>
        <path d="M57.518 207.722c-5.624 3.075-.87 11.52 4.908 8.716 1.539-.736 2.985-1.553 4.393-2.33 17.18-9.468 37.137-12.959 56.771-15.649 4.816-.654 9.955-1.234 14.41.818-12.148-3.639-25.081-3.941-37.583-2.396-12.502 1.545-24.666 4.906-36.706 8.389a31.877 31.877 0 0 0-6.193 2.452Z"/>
        <path d="M72.272 239.094c-3.964 3.743 2.228 8.165 6.39 4.583 1.087-.94 2.122-1.933 3.111-2.872 12.084-11.456 28.064-19.643 43.97-27.166 3.904-1.848 19.967-3.735 24.257-3.635-11.2 1.016-34.09 4.582-44.264 9.233-10.172 4.651-19.605 10.463-28.887 16.367a31.217 31.217 0 0 0-4.577 3.49Z" opacity=".5"/>
        <path d="M102.12 285.93c-1.162 5.37 6.458 5.454 7.871.085.373-1.411.669-2.822.958-4.172 3.51-16.46 12.118-32.437 21.022-47.83 2.188-3.782 14.435-14.62 18.029-17.013-8.7 7.31-25.642 23.447-31.416 33.188-5.774 9.741-10.287 19.942-14.633 30.197a32.004 32.004 0 0 0-1.83 5.546zm54.138-186.459c-2.963-5.45-11.422-.97-8.74 4.615.703 1.494 1.498 2.898 2.243 4.257 9.104 16.638 12.258 35.882 14.6 54.805.571 4.637 1.068 9.588-1.026 13.852 3.824-11.642 4.329-24.083 3.004-36.128-1.324-12.045-4.436-23.785-7.73-35.412a28.964 28.964 0 0 0-2.35-5.989zm-43.791 8.316a.882.882 0 0 0 .457.13c.3 0 .51-.288.63-.546.674-1.393.284-3.201 1.318-4.371a14.955 14.955 0 0 1 2.502 4.012l3.934-1.163a5.4 5.4 0 0 1-.75 4.306 6.141 6.141 0 0 1 1.858 1.206c.536.527.72 1.296.48 1.995a10.35 10.35 0 0 1-2.78.266 16.92 16.92 0 0 1-.292 4.952.92.92 0 0 1-.337.624c-.292.18-.667 0-.959-.15a8.852 8.852 0 0 1-3.236-3.288l-1.461 3.345a1.507 1.507 0 0 1-.652.84 1.08 1.08 0 0 1-1.229-.402 2.789 2.789 0 0 1-.434-1.27l-.547-3.187a.742.742 0 0 0-.18-.452.897.897 0 0 0-.585-.158 120.615 120.615 0 0 0-4.158-.043c-.24-.718.495-1.364 1.207-1.658.711-.294 1.55-.524 1.91-1.184.75-1.342-1.154-3.216-.352-4.378.929-1.342 2.442 0 3.656.574z"/>
        <path d="M191.443 126.525c2.769-3.839 8.489.314 5.902 4.26-.675 1.029-1.419 2.034-2.117 2.986-8.519 11.638-12.896 25.779-16.742 39.75-.933 3.424-1.836 7.086-.759 10.479-1.517-9.082-.531-18.424 1.768-27.36 2.298-8.935 5.871-17.426 9.566-25.84a22.979 22.979 0 0 1 2.382-4.275Z" opacity=".5"/>
        <path d="M247.3 152.003c5.752-.186 6.48 9.08.759 9.563-1.518.13-3.036.17-4.463.21-17.606.508-34.255 7.258-50.252 14.588-3.931 1.79-8.052 3.806-10.344 7.636 7.21-8.87 16.695-15.402 26.811-20.16 10.116-4.757 20.854-7.918 31.615-10.853 1.92-.55 3.888-.88 5.874-.984Z"/>
        <path d="M243.604 174.007c3.708.136 2.872 5.303-.859 5.303-.975 0-1.95 0-2.88-.075-11.323-.447-22.925 2.613-34.18 5.977-2.762.826-5.68 1.765-7.685 3.788 5.86-4.614 12.84-7.818 19.977-10.038 7.136-2.22 14.45-3.515 21.742-4.682a20.203 20.203 0 0 1 3.885-.273Z" opacity=".5"/>
        <path d="M239.177 125.032c2.308-.387 2.484 2.866.185 3.362a41.73 41.73 0 0 1-1.787.318c-7.067 1.17-13.83 4.509-20.336 7.995-1.603.86-3.27 1.805-4.239 3.293a38.632 38.632 0 0 1 11.001-8.7 97.353 97.353 0 0 1 12.82-5.625 13.139 13.139 0 0 1 2.356-.643zM182.493 277.73c-.807 2.33-5.723 1.169-5.078-1.193.174-.622.398-1.235.596-1.815 2.483-7.127 1.59-14.85.323-22.386-.31-1.855-.708-3.817-2.334-5.337 3.346 4.342 5.45 9.051 6.207 13.894.746 4.765.966 9.559.658 14.344 0 .837-.125 1.672-.372 2.493z" opacity=".2"/>
        <path d="M238.608 260.995c1.672 2.793-2.437 2.61-4.236-.19a49.476 49.476 0 0 1-1.33-2.2c-5.09-8.54-12.834-16.992-20.636-25.158-1.918-2.002-3.99-4.113-6.406-5.447a100.407 100.407 0 0 1 16.78 14.148c5.008 5.132 9.43 10.55 13.762 15.923a26.306 26.306 0 0 1 2.066 2.924Z" opacity=".5"/>
        <path d="M86.392 260.995c-1.672 2.793 2.437 2.61 4.236-.19.475-.733.914-1.466 1.33-2.2 5.09-8.54 12.841-16.992 20.636-25.158 1.918-2.002 3.99-4.113 6.406-5.447a100.407 100.407 0 0 0-16.78 14.148c-5.008 5.132-9.43 10.55-13.762 15.923a26.306 26.306 0 0 0-2.066 2.924zm54.131 16.736c.806 2.33 5.72 1.169 5.075-1.193-.174-.622-.397-1.235-.596-1.815-2.481-7.127-1.588-14.85-.322-22.386.31-1.855.707-3.817 2.32-5.337-3.339 4.343-5.441 9.052-6.204 13.894a64.739 64.739 0 0 0-.658 14.344 8.68 8.68 0 0 0 .385 2.493zm80.656-132.7c2.307-.386 2.483 2.867.176 3.363-.6.124-1.21.225-1.786.318-7.066 1.17-13.819 4.509-20.323 7.995-1.602.86-3.277 1.805-4.246 3.293a38.63 38.63 0 0 1 10.999-8.67 98.36 98.36 0 0 1 12.817-5.624 13.148 13.148 0 0 1 2.363-.674zm-20.467-43.748c1.903-1.213 3.26 1.787 1.404 3.093-.49.347-.99.661-1.473.96-5.837 3.7-10.609 9.329-15.096 15.004-1.097 1.393-2.24 2.897-2.547 4.66a38.532 38.532 0 0 1 6.559-12.17 94.723 94.723 0 0 1 9.297-10.012 12.337 12.337 0 0 1 1.856-1.535z" opacity=".2"/>
        <path d="M271.482 207.722c5.624 3.075.87 11.52-4.908 8.716-1.539-.736-2.985-1.553-4.393-2.33-17.18-9.468-37.145-12.959-56.771-15.649-4.824-.654-9.955-1.234-14.41.818 12.148-3.639 25.073-3.941 37.583-2.396 12.51 1.545 24.62 4.906 36.706 8.389a31.877 31.877 0 0 1 6.193 2.452Z"/>
        <path d="M256.732 239.094c3.965 3.743-2.266 8.165-6.389 4.583-1.087-.94-2.122-1.933-3.111-2.872-12.083-11.456-28.063-19.643-43.968-27.166-3.904-1.848-19.975-3.735-24.264-3.635 11.207 1.016 34.097 4.582 44.27 9.233 10.172 4.651 19.59 10.486 28.863 16.382a30.886 30.886 0 0 1 4.599 3.475Z" opacity=".5"/>
        <path d="M210.978 293.36c.486 5.402-7.093 4.533-7.823-.9-.198-1.42-.312-2.841-.434-4.194-1.444-16.526-8.005-33.249-14.938-49.375-1.696-3.96-12.499-16.08-15.783-18.891 7.732 8.222 22.541 26.108 27.072 36.34 4.531 10.231 7.732 20.81 10.773 31.344.551 1.853.93 3.753 1.133 5.675zm1.525-185.573a.886.886 0 0 1-.464.13c-.292 0-.5-.288-.628-.546-.665-1.393-.284-3.201-1.308-4.371a14.768 14.768 0 0 0-2.497 4.012l-3.925-1.163a5.437 5.437 0 0 0 .748 4.306c-.687.29-1.313.7-1.847 1.206a1.917 1.917 0 0 0-.478 1.995c.907.214 1.84.303 2.773.266a16.701 16.701 0 0 0 .292 4.952c.02.243.141.468.336.624.292.18.666 0 .957-.15a8.901 8.901 0 0 0 3.23-3.288l1.495 3.345c.099.348.331.648.65.84a1.08 1.08 0 0 0 1.226-.402c.24-.388.388-.822.434-1.27l.546-3.187a.743.743 0 0 1 .179-.452.87.87 0 0 1 .576-.158c1.39-.036 2.773-.05 4.156-.043.24-.718-.5-1.364-1.203-1.658-.703-.294-1.555-.524-1.907-1.184-.747-1.342 1.144-3.216.352-4.378-1.01-1.342-2.52 0-3.693.574z"/>
        <path d="M225.512 273.799a1.096 1.096 0 0 1-.464.13c-.3 0-.51-.288-.629-.547-.673-1.393-.284-3.204-1.317-4.382a15.316 15.316 0 0 0-2.499 4.023l-3.913-1.185a5.43 5.43 0 0 0 .748 4.31 6.14 6.14 0 0 0-1.855 1.207 1.92 1.92 0 0 0-.48 1.997c.91.21 1.843.3 2.777.266a16.913 16.913 0 0 0 .292 4.95.936.936 0 0 0 .336.632.981.981 0 0 0 .958-.15 8.91 8.91 0 0 0 3.232-3.291l1.497 3.348c.106.345.337.643.65.84.46.148.963-.02 1.228-.41.247-.385.395-.82.434-1.271l.546-3.183a.586.586 0 0 1 .218-.481.64.64 0 0 1 .53-.13c1.384-.042 2.769-.05 4.153-.042.24-.719-.494-1.365-1.205-1.66-.71-.294-1.549-.524-1.908-1.185-.748-1.35 1.152-3.226.352-4.382-.965-1.33-2.477.014-3.681.596Z" opacity=".2"/>
        <path d="M260.502 163.789a.962.962 0 0 1-.456.136.833.833 0 0 1-.628-.546c-.673-1.4-.284-3.202-1.316-4.379a14.815 14.815 0 0 0-2.497 4.02l-3.925-1.17a5.454 5.454 0 0 0 .748 4.308 6.05 6.05 0 0 0-1.847 1.206 1.911 1.911 0 0 0-.478 1.988c.907.214 1.84.304 2.774.266a16.698 16.698 0 0 0 .291 4.954.936.936 0 0 0 .337.631.988.988 0 0 0 .956-.157 8.94 8.94 0 0 0 3.23-3.281l1.495 3.345c.105.344.336.64.65.833a1.07 1.07 0 0 0 1.227-.402 2.92 2.92 0 0 0 .433-1.27l.546-3.188a.744.744 0 0 1 .18-.446.854.854 0 0 1 .583-.165c1.383 0 2.766-.05 4.149 0 .239-.718-.494-1.364-1.204-1.665-.71-.302-1.547-.517-1.906-1.178-.748-1.35 1.151-3.223.351-4.379-.972-1.378-2.482-.057-3.693.539zM124.884 290.04a1.357 1.357 0 0 1-.654.19c-.426 0-.714-.424-.89-.803-.95-2.051-.402-4.701-1.861-6.427a21.981 21.981 0 0 0-3.535 5.905l-5.556-1.719a8.179 8.179 0 0 0 1.057 6.344 8.697 8.697 0 0 0-2.623 1.772 2.899 2.899 0 0 0-.676 2.93c1.282.312 2.602.444 3.922.393a25.683 25.683 0 0 0 .418 7.275 1.029 1.029 0 0 0 1.832.697 12.83 12.83 0 0 0 4.56-4.83l2.068 4.92c.147.507.473.943.92 1.227a1.47 1.47 0 0 0 1.732-.59 4.296 4.296 0 0 0 .616-1.87l.76-4.679c.014-.24.101-.47.25-.658.234-.18.528-.264.822-.235 1.96-.06 3.93-.076 5.89-.06.335-1.038-.707-2.007-1.71-2.446-1.003-.439-2.197-.757-2.698-1.734-1.026-1.983 1.626-4.731.501-6.434-1.292-1.991-3.435-.015-5.145.832zM69.899 167.042a1.357 1.357 0 0 1-.653.189c-.418 0-.715-.417-.89-.803-.95-2.044-.402-4.702-1.862-6.428a22.1 22.1 0 0 0-3.534 5.906l-5.563-1.719a8.212 8.212 0 0 0 1.048 6.345 8.674 8.674 0 0 0-2.622 1.78 2.892 2.892 0 0 0-.676 2.93c1.283.31 2.603.44 3.922.386a25.972 25.972 0 0 0 .418 7.276c.03.359.203.691.479.924.457.18.976.096 1.352-.22a12.892 12.892 0 0 0 4.56-4.83l2.068 4.914c.15.507.475.945.92 1.234a1.523 1.523 0 0 0 1.733-.598 4.19 4.19 0 0 0 .615-1.863l.76-4.687c.013-.241.104-.472.259-.659.234-.178.527-.262.82-.234 1.961-.05 3.922-.07 5.883-.06.335-1.038-.707-2.007-1.71-2.446-1.003-.44-2.196-.758-2.69-1.734-1.026-1.977 1.618-4.733.494-6.436-1.277-1.992-3.413-.046-5.13.833z"/>
        <path d="M239.037 243.658a.7.7 0 0 1-.355.104c-.232 0-.386-.222-.479-.415-.516-1.066-.216-2.444-1.002-3.347a11.255 11.255 0 0 0-1.906 3.073l-3.001-.896a4.171 4.171 0 0 0 .563 3.303 4.418 4.418 0 0 0-1.404.918c-.417.4-.56.991-.37 1.526a8.122 8.122 0 0 0 2.113.2 12.934 12.934 0 0 0 .232 3.777.66.66 0 0 0 .254.481c.216.133.51 0 .772-.111a6.87 6.87 0 0 0 2.461-2.51l1.119 2.554c.078.263.254.49.494.637a.788.788 0 0 0 .933-.31c.188-.295.301-.627.332-.971l.416-2.429a.615.615 0 0 1 .14-.348.66.66 0 0 1 .447-.119c1.057 0 2.114-.037 3.17 0 .178-.54-.385-1.044-.925-1.273-.54-.23-1.18-.393-1.45-.896-.556-1.03.871-2.459.27-3.348-.78-1.066-1.937-.066-2.824.4zm-75.979 44.003a.855.855 0 0 1-.356.103c-.224 0-.379-.222-.48-.422-.51-1.067-.216-2.445-1.005-3.342-.8.92-1.445 1.956-1.912 3.068l-3.002-.89a4.116 4.116 0 0 0 .565 3.298 4.656 4.656 0 0 0-1.416.926 1.438 1.438 0 0 0-.371 1.52 8.228 8.228 0 0 0 2.128.207 12.664 12.664 0 0 0 .224 3.779.73.73 0 0 0 .255.481c.25.093.532.048.735-.118a6.8 6.8 0 0 0 2.476-2.512l1.115 2.556c.081.266.26.495.503.645a.831.831 0 0 0 .936-.311c.185-.296.299-.628.333-.97l.417-2.439a.564.564 0 0 1 .14-.34.639.639 0 0 1 .44-.12c1.06 0 2.12-.044 3.18-.036.187-.534-.378-1.038-.92-1.267-.542-.23-1.184-.4-1.462-.904-.55-1.03.882-2.46.27-3.342-.711-1.038-1.864-.008-2.793.43z" opacity=".2"/>
        <path d="M90.06 131.658a.8.8 0 0 1-.356.104c-.232 0-.387-.222-.48-.415-.518-1.066-.217-2.444-1.006-3.347a11.246 11.246 0 0 0-1.912 3.073l-3.01-.896a4.132 4.132 0 0 0 .572 3.303 4.38 4.38 0 0 0-1.416.918 1.436 1.436 0 0 0-.371 1.518 7.872 7.872 0 0 0 2.12.208 12.895 12.895 0 0 0 .232 3.777.69.69 0 0 0 .256.481c.217.133.51 0 .735-.111a6.88 6.88 0 0 0 2.469-2.51l1.122 2.554c.079.263.255.49.495.637a.792.792 0 0 0 .937-.31c.188-.295.302-.627.333-.971l.418-2.429a.614.614 0 0 1 .139-.348.664.664 0 0 1 .449-.119c1.06 0 2.12-.037 3.18 0 .179-.54-.386-1.044-.928-1.273-.542-.23-1.184-.393-1.455-.896-.557-1.03.874-2.459.27-3.348-.711-1.066-1.872-.014-2.793.4zm39.028 89.01a.726.726 0 0 1-.348.105c-.233 0-.388-.223-.488-.416-.511-1.07-.217-2.451-1-3.357a11.498 11.498 0 0 0-1.92 3.082l-3.043-.899a4.18 4.18 0 0 0 .565 3.313 4.56 4.56 0 0 0-1.417.92 1.442 1.442 0 0 0-.364 1.486 7.827 7.827 0 0 0 2.122.208 13.23 13.23 0 0 0 .225 3.787c.013.19.108.365.263.483.217.134.51 0 .728-.111a6.847 6.847 0 0 0 2.478-2.518l1.123 2.562c.078.264.255.49.495.64a.791.791 0 0 0 .937-.313c.186-.296.3-.628.333-.973l.418-2.436a.616.616 0 0 1 .14-.349.639.639 0 0 1 .441-.119h3.19c.179-.542-.387-1.047-.929-1.277-.542-.23-1.185-.394-1.456-.899-.557-1.032.876-2.465.271-3.356-.712-1.048-1.873.007-2.764.438zm-28.031-36.008a.72.72 0 0 1-.349.096c-.232 0-.386-.215-.487-.415-.511-1.066-.217-2.445-1.006-3.341a11.4 11.4 0 0 0-1.912 3.067l-3.003-.889a4.142 4.142 0 0 0 .565 3.297 4.737 4.737 0 0 0-1.417.919c-.415.4-.556.993-.363 1.526a7.83 7.83 0 0 0 2.12.2 12.955 12.955 0 0 0 .225 3.786.73.73 0 0 0 .263.482c.217.133.503 0 .728-.119a6.837 6.837 0 0 0 2.476-2.511l1.123 2.556c.076.263.253.49.495.637.348.127.741 0 .937-.304a2.28 2.28 0 0 0 .332-.97l.418-2.438a.593.593 0 0 1 .14-.34.647.647 0 0 1 .44-.127c1.061 0 2.122-.037 3.182 0 .186-.54-.38-1.037-.921-1.267-.542-.23-1.184-.4-1.455-.904-.558-1.03.874-2.46.263-3.348-.704-1.06-1.865-.038-2.794.407zm122.011 7.998a.727.727 0 0 1-.348.104c-.232 0-.387-.222-.48-.422-.518-1.06-.224-2.444-1.006-3.34a11.247 11.247 0 0 0-1.91 3.073l-3.026-.896a4.14 4.14 0 0 0 .564 3.296 4.71 4.71 0 0 0-1.416.925c-.412.4-.552.987-.363 1.518a8.145 8.145 0 0 0 2.12.208 13.165 13.165 0 0 0 .224 3.777.688.688 0 0 0 .263.481c.217.133.511 0 .728-.119a6.73 6.73 0 0 0 2.476-2.51l1.122 2.555c.079.265.255.493.495.644a.791.791 0 0 0 .937-.31 2.25 2.25 0 0 0 .332-.971l.418-2.429a.614.614 0 0 1 .14-.348.64.64 0 0 1 .44-.119c1.06 0 2.128-.037 3.189 0 .178-.54-.387-1.044-.929-1.273-.542-.23-1.184-.4-1.455-.904-.557-1.03.875-2.458.271-3.34-.696-1.066-1.818-.037-2.786.4z" opacity=".5"/>
        <path d="M163.058 188.658a.799.799 0 0 1-.356.104c-.224 0-.379-.222-.48-.415-.51-1.066-.216-2.444-1.005-3.347-.8.923-1.445 1.96-1.912 3.073l-3.002-.896a4.133 4.133 0 0 0 .565 3.303 4.47 4.47 0 0 0-1.416.918 1.436 1.436 0 0 0-.371 1.518 7.926 7.926 0 0 0 2.128.208 12.635 12.635 0 0 0 .224 3.777c.014.186.106.36.255.481a.802.802 0 0 0 .735-.111 6.895 6.895 0 0 0 2.476-2.51l1.115 2.554c.082.264.26.49.503.637a.791.791 0 0 0 .936-.31c.186-.296.3-.628.333-.971l.417-2.429a.564.564 0 0 1 .14-.348.64.64 0 0 1 .44-.119c1.06 0 2.12-.037 3.18 0 .187-.54-.378-1.044-.92-1.273-.542-.23-1.184-.393-1.462-.896-.55-1.03.882-2.459.27-3.348-.711-1.066-1.864-.037-2.793.4Z" opacity=".2"/>
        <path d="M145.081 192.662a.798.798 0 0 1-.355.104c-.225 0-.387-.223-.48-.415-.51-1.068-.217-2.454-1.006-3.351a11.46 11.46 0 0 0-1.935 3.061l-3.01-.897a4.14 4.14 0 0 0 .573 3.307c-.53.215-1.01.527-1.416.919a1.439 1.439 0 0 0-.371 1.52 7.918 7.918 0 0 0 2.128.207 12.659 12.659 0 0 0 .224 3.78.69.69 0 0 0 .255.482.801.801 0 0 0 .735-.111 6.899 6.899 0 0 0 2.476-2.513l1.115 2.557c.08.262.256.488.495.638.352.13.75-.001.944-.311.187-.295.298-.628.325-.972l.418-2.43a.673.673 0 0 1 .139-.35.663.663 0 0 1 .449-.118c1.06 0 2.12-.037 3.18 0 .186-.541-.38-1.045-.92-1.275-.543-.23-1.192-.393-1.463-.897-.55-1.03.882-2.46.27-3.35-.688-1.053-1.841-.023-2.77.415Z" opacity=".3"/>
        <path d="M129.06 146.658a.8.8 0 0 1-.356.104c-.232 0-.387-.222-.48-.422-.51-1.06-.217-2.444-1.006-3.34a11.321 11.321 0 0 0-1.912 3.066l-3.01-.889a4.111 4.111 0 0 0 .572 3.296c-.53.219-1.01.533-1.416.925a1.436 1.436 0 0 0-.371 1.518 8.164 8.164 0 0 0 2.12.208 12.91 12.91 0 0 0 .232 3.777c.014.186.106.36.256.481.216.133.51 0 .735-.119a6.796 6.796 0 0 0 2.469-2.51l1.122 2.555c.079.265.255.493.495.644a.791.791 0 0 0 .937-.31c.188-.295.302-.627.332-.971l.418-2.429a.614.614 0 0 1 .14-.348.664.664 0 0 1 .448-.119c1.06 0 2.121-.044 3.181-.037.178-.533-.379-1.036-.928-1.266-.55-.23-1.185-.4-1.455-.903-.558-1.03.874-2.459.27-3.34-.727-1.037-1.888-.008-2.793.43Z" opacity=".2"/>
        <path d="M162.033 208.66a.724.724 0 0 1-.355.097c-.224 0-.378-.215-.479-.415-.509-1.067-.216-2.445-1.003-3.342a11.408 11.408 0 0 0-1.906 3.068l-2.994-.89a4.125 4.125 0 0 0 .563 3.298 4.722 4.722 0 0 0-1.412.919 1.44 1.44 0 0 0-.363 1.526c.692.163 1.404.23 2.115.2a12.996 12.996 0 0 0 .224 3.787c.018.185.11.357.254.481.26.109.56.062.772-.118a6.836 6.836 0 0 0 2.47-2.512l1.11 2.556c.085.264.262.492.502.645a.828.828 0 0 0 .934-.311 2.25 2.25 0 0 0 .332-.97l.417-2.439a.616.616 0 0 1 .138-.34.643.643 0 0 1 .44-.127c1.058 0 2.115-.037 3.172 0 .185-.54-.378-1.037-.918-1.267-.54-.23-1.181-.4-1.451-.904-.556-1.03.872-2.46.262-3.342-.74-1.067-1.898-.044-2.824.4Z" opacity=".3"/>
        <path d="M40.436 14.775c-1.45-1.951-4.448.16-3.093 2.167.354.523.74 1.034 1.105 1.518 4.468 5.918 6.782 13.108 8.774 20.212.488 1.74.962 3.603.397 5.328.795-4.618.278-9.368-.926-13.912-1.205-4.543-3.077-8.86-5.013-13.139a11.61 11.61 0 0 0-1.244-2.174Z" opacity=".5"/>
        <path d="M13.384 28.001c-2.918-.092-3.287 4.54-.385 4.782.77.065 1.54.085 2.264.105 8.93.254 17.376 3.629 25.49 7.294 1.99.895 4.08 1.903 5.247 3.818-3.657-4.435-8.469-7.701-13.6-10.08-5.131-2.379-10.582-3.975-16.04-5.439a13.44 13.44 0 0 0-2.976-.48Z"/>
        <path d="M15.195 38.004c-1.85.073-1.432 2.828.433 2.828.488 0 .971 0 1.436-.04 5.665-.239 11.466 1.394 17.093 3.188 1.382.44 2.837.941 3.843 2.02-2.93-2.46-6.424-4.17-9.988-5.354-3.564-1.184-7.225-1.874-10.87-2.497a9.497 9.497 0 0 0-1.947-.145Z" opacity=".2"/>
        <path d="M50.937 85.12c.625 1.71 3.527.693 3-1.052-.143-.455-.309-.906-.46-1.335-1.934-5.22-1.837-11.02-1.525-16.683.078-1.388.202-2.864 1.093-4.05-1.837 3.3-2.696 6.95-2.953 10.55-.257 3.598.065 7.174.46 10.72a8.15 8.15 0 0 0 .385 1.85Z" opacity=".5"/>
        <path d="M17.91 14.017c-1.153-.207-1.241 1.529-.088 1.793.3.066.605.12.894.17 3.532.624 6.909 2.405 10.161 4.264.801.459 1.638.963 2.123 1.756a19.568 19.568 0 0 0-5.5-4.64 47.153 47.153 0 0 0-6.408-3 6.257 6.257 0 0 0-1.182-.343Z" opacity=".2"/>
        <path d="M1.274 56.14c-2.846 1.61-.44 6.035 2.484 4.566.778-.386 1.51-.814 2.223-1.22 8.693-4.96 18.792-6.789 28.727-8.198 2.437-.342 5.038-.647 7.292.428-6.147-1.905-12.692-2.064-19.018-1.254-6.326.809-12.481 2.57-18.574 4.394a15.819 15.819 0 0 0-3.134 1.284Z"/>
        <path d="M8.644 71.963c-2.007 1.924 1.128 4.199 3.235 2.356.551-.483 1.075-.993 1.576-1.476 6.118-5.892 14.21-10.103 22.263-13.971 1.977-.951 10.11-1.921 12.282-1.87-5.67.522-17.261 2.357-22.412 4.749-5.15 2.392-9.927 5.38-14.626 8.417-.825.524-1.6 1.125-2.318 1.795Z" opacity=".5"/>
        <path d="M24.06 94.938c-.581 2.72 3.229 2.764 3.936.042.186-.715.334-1.43.478-2.115 1.755-8.342 6.06-16.44 10.511-24.242C40.08 66.706 46.203 61.213 48 60c-4.35 3.705-12.82 11.884-15.708 16.821-2.887 4.938-5.144 10.108-7.316 15.306a16.378 16.378 0 0 0-.916 2.81zM50.63 1.236C49.147-1.49 44.917.75 46.258 3.543c.352.747.749 1.449 1.121 2.128 4.553 8.32 6.13 17.941 7.3 27.403.286 2.318.534 4.794-.513 6.926 1.912-5.821 2.165-12.041 1.503-18.064-.662-6.023-2.218-11.892-3.866-17.706a14.482 14.482 0 0 0-1.175-2.994zM28.423 5.534a.467.467 0 0 0 .242.069c.158 0 .27-.152.333-.29.357-.736.15-1.694.698-2.313a7.917 7.917 0 0 1 1.325 2.124l2.082-.616a2.86 2.86 0 0 1-.397 2.28c.367.153.7.37.984.638.284.28.381.687.254 1.057-.481.113-.977.16-1.472.14.078.877.026 1.76-.154 2.622a.488.488 0 0 1-.179.33c-.154.095-.353 0-.507-.08a4.686 4.686 0 0 1-1.714-1.74l-.773 1.771a.798.798 0 0 1-.345.445.572.572 0 0 1-.651-.213 1.476 1.476 0 0 1-.23-.673l-.29-1.687a.393.393 0 0 0-.095-.239.475.475 0 0 0-.31-.084 63.855 63.855 0 0 0-2.2-.022c-.127-.38.261-.722.638-.878.377-.156.821-.277 1.012-.627.396-.71-.611-1.702-.187-2.318.492-.71 1.293 0 1.936.304z"/>
        <path d="M68.565 14.775c1.45-1.951 4.447.16 3.092 2.167-.354.523-.743 1.034-1.109 1.518-4.462 5.918-6.755 13.108-8.77 20.212-.489 1.74-.961 3.603-.397 5.328-.795-4.618-.278-9.368.926-13.912 1.204-4.543 3.075-8.86 5.01-13.139.336-.766.754-1.495 1.248-2.174Z" opacity=".5"/>
        <path d="M96.616 28.001c2.918-.092 3.287 4.54.385 4.782-.77.065-1.54.085-2.264.105-8.93.254-17.376 3.629-25.49 7.294-1.994.895-4.084 1.903-5.247 3.818 3.657-4.435 8.469-7.701 13.6-10.08 5.131-2.379 10.578-3.96 16.036-5.427.974-.275 1.973-.44 2.98-.492Z"/>
        <path d="M94.802 38.004c1.854.073 1.436 2.828-.43 2.828-.487 0-.975 0-1.44-.04-5.66-.239-11.462 1.394-17.09 3.188-1.38.44-2.84.941-3.842 2.02 2.93-2.46 6.42-4.17 9.989-5.354 3.568-1.184 7.225-1.875 10.87-2.497a9.483 9.483 0 0 1 1.943-.145Z" opacity=".5"/>
        <path d="M92.089 14.017c1.154-.207 1.242 1.529.092 1.793-.3.066-.605.12-.894.17-3.533.624-6.914 2.405-10.168 4.264-.8.459-1.634.963-2.119 1.756a19.572 19.572 0 0 1 5.5-4.64 47.17 47.17 0 0 1 6.41-3 6.21 6.21 0 0 1 1.179-.343zM64.71 90.365c-.46 1.165-3.27.585-2.901-.596.1-.31.227-.617.34-.907 1.42-3.564.908-7.426.185-11.193C62.156 76.74 61.929 75.76 61 75c1.912 2.17 3.114 4.526 3.547 6.947.426 2.382.552 4.78.376 7.172 0 .418-.072.836-.213 1.246z" opacity=".2"/>
        <path d="M92.798 82.97c.861 1.435-1.256 1.341-2.182-.099a25.437 25.437 0 0 1-.685-1.13C87.309 77.347 83.32 73 79.3 68.8c-.988-1.03-2.056-2.115-3.3-2.801a51.703 51.703 0 0 1 8.644 7.276c2.58 2.64 4.858 5.425 7.09 8.189.389.477.744.98 1.064 1.504Z" opacity=".5"/>
        <path d="M15.202 82.97c-.861 1.435 1.256 1.341 2.182-.099.245-.377.47-.754.685-1.13C20.691 77.347 24.684 73 28.7 68.8c.988-1.03 2.056-2.115 3.3-2.801a51.703 51.703 0 0 0-8.644 7.276c-2.58 2.64-4.858 5.425-7.09 8.189-.389.477-.744.98-1.064 1.504zm27.097 7.395c.46 1.165 3.268.585 2.9-.596-.1-.31-.227-.617-.34-.907-1.419-3.564-.908-7.426-.185-11.193.177-.928.404-1.909 1.326-2.669-1.908 2.172-3.11 4.526-3.545 6.947a28.377 28.377 0 0 0-.376 7.172c.003.419.076.836.22 1.246zm40.79-66.348c1.154-.207 1.242 1.529.089 1.793-.3.066-.605.12-.894.17-3.532.624-6.909 2.405-10.161 4.264-.801.459-1.638.963-2.123 1.756a19.565 19.565 0 0 1 5.5-4.624 47.659 47.659 0 0 1 6.408-3 6.26 6.26 0 0 1 1.182-.359zM72.857 2.141c.951-.606 1.63.894.702 1.547-.245.173-.495.33-.736.48-2.92 1.85-5.305 4.664-7.549 7.502-.548.697-1.12 1.448-1.273 2.33a19.266 19.266 0 0 1 3.28-6.085 47.361 47.361 0 0 1 4.648-5.006c.284-.286.595-.543.928-.768z" opacity=".2"/>
        <path d="M108.726 56.14c2.846 1.61.44 6.035-2.484 4.566-.778-.386-1.51-.814-2.223-1.22-8.693-4.96-18.796-6.789-28.727-8.198-2.441-.342-5.038-.647-7.292.428 6.147-1.905 12.688-2.064 19.018-1.254 6.33.809 12.458 2.57 18.574 4.394 1.081.312 2.131.742 3.134 1.284Z"/>
        <path d="M101.358 71.963c2.007 1.924-1.147 4.199-3.235 2.356-.55-.483-1.074-.993-1.575-1.476-6.118-5.892-14.21-10.103-22.262-13.971-1.977-.951-10.114-1.921-12.286-1.87 5.674.522 17.264 2.357 22.415 4.749 5.15 2.392 9.919 5.392 14.614 8.425.829.52 1.609 1.118 2.329 1.787Z" opacity=".5"/>
        <path d="M78.988 99.156c.25 2.736-3.637 2.296-4.011-.456-.102-.72-.16-1.439-.222-2.124-.741-8.37-4.106-16.84-7.661-25.008-.87-2.005-6.41-8.144-8.094-9.568 3.965 4.164 11.56 13.223 13.883 18.406 2.324 5.182 3.965 10.54 5.525 15.876.282.938.477 1.9.58 2.874zm.572-93.622a.47.47 0 0 1-.245.069c-.155 0-.265-.152-.333-.29-.352-.736-.15-1.694-.692-2.313-.555.637-1 1.354-1.322 2.124l-2.078-.616a2.88 2.88 0 0 0 .396 2.28c-.364.154-.695.37-.978.638-.283.28-.38.687-.253 1.057.48.113.974.16 1.468.14-.08.877-.027 1.76.155 2.622.01.129.074.248.178.33.154.095.352 0 .506-.08a4.712 4.712 0 0 0 1.71-1.74l.792 1.771a.763.763 0 0 0 .344.445.57.57 0 0 0 .649-.213 1.59 1.59 0 0 0 .23-.673l.288-1.687a.394.394 0 0 1 .095-.239.46.46 0 0 1 .305-.084 70.946 70.946 0 0 1 2.2-.022c.127-.38-.264-.722-.636-.878-.373-.156-.824-.277-1.01-.627-.395-.71.606-1.702.186-2.318-.534-.71-1.333 0-1.955.304z"/>
        <path d="M85.565 88.54a.58.58 0 0 1-.246.07c-.158 0-.269-.153-.332-.29-.357-.738-.15-1.696-.698-2.32a8.109 8.109 0 0 0-1.323 2.13l-2.071-.628a2.874 2.874 0 0 0 .396 2.282c-.366.153-.699.37-.982.64a1.014 1.014 0 0 0-.254 1.057c.48.111.975.158 1.47.14a8.954 8.954 0 0 0 .154 2.62c.012.13.076.25.178.335a.52.52 0 0 0 .507-.08 4.717 4.717 0 0 0 1.712-1.741l.792 1.772a.81.81 0 0 0 .344.445.575.575 0 0 0 .65-.217c.13-.204.21-.434.23-.673l.289-1.685a.31.31 0 0 1 .115-.255.339.339 0 0 1 .281-.068c.733-.023 1.466-.027 2.199-.023.126-.38-.262-.723-.638-.879-.377-.155-.82-.277-1.01-.627-.396-.715.61-1.708.186-2.32-.511-.704-1.311.008-1.949.316Z" opacity=".2"/>
        <path d="M103.56 33.535a.51.51 0 0 1-.242.072.441.441 0 0 1-.332-.289c-.356-.74-.15-1.695-.697-2.318a7.85 7.85 0 0 0-1.321 2.128l-2.078-.62a2.89 2.89 0 0 0 .395 2.281c-.364.153-.696.37-.977.639-.282.278-.38.684-.253 1.053.48.113.974.16 1.468.14a8.84 8.84 0 0 0 .154 2.623c.012.13.076.25.178.334.172.063.366.03.507-.083a4.733 4.733 0 0 0 1.71-1.737l.791 1.77a.787.787 0 0 0 .345.442.566.566 0 0 0 .649-.213c.128-.205.207-.435.23-.673l.288-1.687a.394.394 0 0 1 .095-.236.452.452 0 0 1 .309-.087c.732 0 1.464-.027 2.197 0 .126-.38-.262-.723-.638-.882-.376-.16-.819-.274-1.009-.623-.396-.715.61-1.707.186-2.319-.514-.73-1.314-.03-1.955.285zM35.442 96.661a.66.66 0 0 1-.327.098c-.213 0-.357-.22-.445-.417-.475-1.067-.201-2.444-.93-3.342a11.532 11.532 0 0 0-1.768 3.07l-2.778-.893a4.397 4.397 0 0 0 .528 3.299 4.344 4.344 0 0 0-1.31.92 1.55 1.55 0 0 0-.34 1.524 6.86 6.86 0 0 0 1.962.205 13.88 13.88 0 0 0 .209 3.783.533.533 0 0 0 .329.531c.21.083.448.015.587-.169a6.571 6.571 0 0 0 2.28-2.511l1.034 2.559c.073.263.237.49.46.637a.72.72 0 0 0 .866-.307 2.28 2.28 0 0 0 .308-.972l.38-2.433a.623.623 0 0 1 .125-.342.564.564 0 0 1 .41-.122c.981-.032 1.966-.04 2.946-.032.167-.54-.353-1.043-.855-1.271-.502-.229-1.098-.394-1.35-.902-.512-1.031.814-2.46.252-3.346-.646-1.035-1.718-.008-2.573.433zm-27.992-62a.66.66 0 0 1-.327.1c-.21 0-.357-.217-.445-.418-.475-1.063-.201-2.445-.93-3.343a11.594 11.594 0 0 0-1.768 3.071l-2.782-.894a4.415 4.415 0 0 0 .525 3.3 4.333 4.333 0 0 0-1.311.925c-.378.403-.509.99-.339 1.524a6.854 6.854 0 0 0 1.961.2 14.035 14.035 0 0 0 .21 3.784c.015.187.1.36.239.48a.65.65 0 0 0 .676-.114 6.603 6.603 0 0 0 2.28-2.512l1.034 2.556c.075.264.238.491.46.641a.746.746 0 0 0 .866-.31c.175-.294.28-.626.308-.97l.38-2.436a.599.599 0 0 1 .13-.343.57.57 0 0 1 .41-.122 91.58 91.58 0 0 1 2.941-.031c.167-.54-.353-1.044-.855-1.272-.502-.229-1.098-.394-1.345-.902-.513-1.027.81-2.46.247-3.346-.639-1.036-1.706-.024-2.565.433z"/>
        <path d="M92.327 73.97a.377.377 0 0 1-.19.056c-.125 0-.208-.12-.258-.224-.279-.574-.117-1.316-.54-1.802a6.059 6.059 0 0 0-1.026 1.655l-1.616-.483A2.246 2.246 0 0 0 89 74.951c-.283.116-.54.284-.756.494a.775.775 0 0 0-.2.822c.373.085.756.121 1.139.107a6.964 6.964 0 0 0 .124 2.034.354.354 0 0 0 .137.26c.117.071.275 0 .416-.06a3.699 3.699 0 0 0 1.325-1.352l.602 1.375a.609.609 0 0 0 .266.343c.188.068.4-.002.503-.167.1-.159.162-.338.179-.523l.224-1.308a.331.331 0 0 1 .075-.187.355.355 0 0 1 .24-.064c.57 0 1.139-.02 1.708 0 .096-.29-.208-.562-.498-.686-.291-.123-.636-.21-.781-.482-.3-.554.469-1.324.145-1.802-.42-.575-1.043-.036-1.52.215zm-37.987 22a.46.46 0 0 1-.192.056c-.12 0-.204-.12-.258-.228-.275-.574-.117-1.316-.542-1.799a6.14 6.14 0 0 0-1.029 1.652l-1.616-.479a2.216 2.216 0 0 0 .304 1.776c-.284.12-.543.288-.763.498a.774.774 0 0 0-.2.818c.375.087.76.125 1.146.112a6.819 6.819 0 0 0 .121 2.035c.01.1.06.192.138.26.134.05.286.025.395-.065a3.657 3.657 0 0 0 1.334-1.352l.6 1.376c.044.143.14.267.27.347a.448.448 0 0 0 .505-.167c.1-.16.16-.338.179-.523l.225-1.313a.304.304 0 0 1 .075-.183.344.344 0 0 1 .237-.064c.571 0 1.142-.024 1.713-.02.1-.287-.205-.558-.496-.682-.292-.124-.638-.216-.788-.487-.296-.555.475-1.325.146-1.8-.383-.558-1.004-.003-1.504.232z" opacity=".2"/>
        <path d="M17.34 16.97a.43.43 0 0 1-.192.056c-.125 0-.208-.12-.258-.224-.28-.574-.117-1.316-.542-1.802a6.056 6.056 0 0 0-1.03 1.655l-1.62-.483a2.225 2.225 0 0 0 .308 1.779 2.358 2.358 0 0 0-.762.494.773.773 0 0 0-.2.818c.373.088.757.126 1.141.111a6.943 6.943 0 0 0 .125 2.034.37.37 0 0 0 .138.26c.117.071.275 0 .396-.06a3.704 3.704 0 0 0 1.33-1.352l.603 1.375a.61.61 0 0 0 .267.343c.188.068.4-.002.504-.167.102-.159.163-.338.18-.523l.225-1.308a.33.33 0 0 1 .075-.187.357.357 0 0 1 .241-.064c.571 0 1.142-.02 1.713 0 .096-.29-.208-.562-.5-.686-.292-.123-.638-.21-.784-.482-.3-.554.471-1.324.146-1.802-.383-.575-1.008-.008-1.504.215zm20.015 45.005a.391.391 0 0 1-.188.056c-.125 0-.208-.12-.262-.223-.275-.576-.117-1.32-.538-1.808a6.191 6.191 0 0 0-1.034 1.66l-1.639-.484a2.25 2.25 0 0 0 .304 1.783 2.455 2.455 0 0 0-.763.496.777.777 0 0 0-.196.8c.374.09.758.127 1.143.112a7.124 7.124 0 0 0 .12 2.04.36.36 0 0 0 .143.26c.116.071.275 0 .392-.06.56-.333 1.02-.8 1.334-1.356l.604 1.38a.61.61 0 0 0 .267.343.426.426 0 0 0 .505-.168c.1-.16.161-.338.18-.524l.224-1.311a.332.332 0 0 1 .075-.188.344.344 0 0 1 .238-.064h1.718c.096-.292-.209-.564-.5-.688-.292-.124-.638-.212-.784-.484-.3-.556.47-1.328.146-1.807-.384-.564-1.01.004-1.489.235zM23.338 43.971a.388.388 0 0 1-.187.052c-.125 0-.209-.116-.263-.224-.275-.574-.117-1.316-.542-1.799a6.139 6.139 0 0 0-1.029 1.652l-1.617-.48a2.23 2.23 0 0 0 .304 1.776 2.55 2.55 0 0 0-.763.495.774.774 0 0 0-.195.822 4.21 4.21 0 0 0 1.142.107 6.98 6.98 0 0 0 .12 2.039c.012.1.062.193.142.26.117.071.271 0 .392-.065a3.682 3.682 0 0 0 1.333-1.352l.605 1.376a.597.597 0 0 0 .267.343c.187.07.399 0 .504-.163.099-.16.16-.338.179-.523l.225-1.312a.32.32 0 0 1 .075-.184.348.348 0 0 1 .238-.068c.57 0 1.142-.02 1.713 0 .1-.29-.205-.558-.496-.682-.292-.123-.638-.215-.784-.486-.3-.555.471-1.325.142-1.804-.38-.57-1.005-.02-1.505.22zm61.007 3.999a.391.391 0 0 1-.188.056c-.125 0-.208-.12-.258-.228-.28-.57-.121-1.316-.542-1.798a6.056 6.056 0 0 0-1.03 1.655l-1.628-.483a2.229 2.229 0 0 0 .304 1.775c-.284.12-.543.289-.763.498a.773.773 0 0 0-.195.818c.373.087.757.124 1.141.111a7.09 7.09 0 0 0 .121 2.034.37.37 0 0 0 .142.26c.116.071.275 0 .391-.065a3.623 3.623 0 0 0 1.334-1.351l.604 1.375a.62.62 0 0 0 .267.347c.188.068.4-.002.504-.167.1-.16.16-.338.179-.523l.225-1.308a.33.33 0 0 1 .075-.187.344.344 0 0 1 .237-.064c.571 0 1.146-.02 1.717 0 .096-.29-.208-.562-.5-.686-.292-.123-.637-.215-.783-.486-.3-.554.47-1.324.146-1.798-.375-.575-.98-.02-1.5.215z" opacity=".5"/>
        <path d="M54.34 45.97a.43.43 0 0 1-.193.056c-.12 0-.204-.12-.258-.224-.275-.574-.117-1.316-.542-1.802a6.159 6.159 0 0 0-1.029 1.655l-1.616-.483a2.225 2.225 0 0 0 .304 1.779 2.404 2.404 0 0 0-.763.494.773.773 0 0 0-.2.818c.375.088.76.126 1.146.111a6.803 6.803 0 0 0 .121 2.034.37.37 0 0 0 .138.26.432.432 0 0 0 .395-.06 3.713 3.713 0 0 0 1.334-1.352l.6 1.375c.044.142.14.264.27.343.189.068.4-.002.505-.167.1-.16.161-.338.179-.523l.225-1.308a.303.303 0 0 1 .075-.187.344.344 0 0 1 .237-.064c.571 0 1.142-.02 1.713 0 .1-.29-.205-.562-.496-.686-.292-.123-.638-.21-.788-.482-.296-.554.475-1.324.146-1.802-.383-.575-1.004-.02-1.504.215Z" opacity=".2"/>
        <path d="M45.352 47.972a.43.43 0 0 1-.192.056c-.12 0-.208-.12-.258-.224-.275-.575-.117-1.321-.542-1.804a6.17 6.17 0 0 0-1.042 1.648l-1.62-.483a2.23 2.23 0 0 0 .308 1.78 2.404 2.404 0 0 0-.763.496.775.775 0 0 0-.2.818c.375.089.76.126 1.146.112a6.816 6.816 0 0 0 .121 2.035.37.37 0 0 0 .138.26.432.432 0 0 0 .395-.06 3.72 3.72 0 0 0 1.334-1.353l.6 1.377a.626.626 0 0 0 .266.343c.19.07.404 0 .509-.168.1-.158.16-.337.175-.523l.225-1.309a.362.362 0 0 1 .075-.187.357.357 0 0 1 .241-.064c.571 0 1.142-.02 1.713 0 .1-.292-.205-.563-.496-.687-.292-.123-.642-.211-.788-.483-.296-.554.475-1.325.146-1.804-.37-.567-.991-.012-1.491.224Z" opacity=".3"/>
        <path d="M37.34 24.97a.43.43 0 0 1-.192.056c-.125 0-.208-.12-.258-.228-.275-.57-.117-1.316-.542-1.798a6.096 6.096 0 0 0-1.03 1.65l-1.62-.478a2.214 2.214 0 0 0 .308 1.775 2.437 2.437 0 0 0-.763.498.773.773 0 0 0-.2.818c.374.086.758.124 1.142.111a6.951 6.951 0 0 0 .125 2.034.37.37 0 0 0 .138.26c.116.071.275 0 .396-.065a3.66 3.66 0 0 0 1.329-1.351l.604 1.375a.62.62 0 0 0 .267.347c.188.068.4-.002.504-.167.101-.159.163-.338.18-.523l.224-1.308a.33.33 0 0 1 .075-.187.357.357 0 0 1 .242-.064c.571 0 1.142-.024 1.713-.02.096-.287-.204-.558-.5-.682-.296-.123-.638-.215-.784-.486-.3-.554.471-1.324.146-1.798-.392-.559-1.017-.004-1.504.23Z" opacity=".2"/>
        <path d="M53.325 55.971a.39.39 0 0 1-.19.052c-.121 0-.204-.116-.258-.224-.275-.574-.117-1.316-.54-1.799a6.143 6.143 0 0 0-1.027 1.652l-1.612-.479A2.221 2.221 0 0 0 50 56.949c-.283.119-.54.286-.76.494a.775.775 0 0 0-.196.822c.373.088.756.124 1.139.108a6.98 6.98 0 0 0 .12 2.039c.01.1.06.192.138.26.14.058.301.033.415-.065a3.68 3.68 0 0 0 1.33-1.352l.598 1.376a.645.645 0 0 0 .27.347.446.446 0 0 0 .503-.167c.1-.16.16-.338.179-.523l.224-1.313a.332.332 0 0 1 .075-.183.346.346 0 0 1 .237-.068c.57 0 1.138-.02 1.708 0 .1-.291-.204-.558-.495-.682-.29-.124-.636-.216-.781-.487-.3-.555.47-1.325.141-1.8-.399-.574-1.022-.023-1.52.216Z" opacity=".3"/>
    </g>
</svg>
