<svg xmlns="http://www.w3.org/2000/svg" width="1226" height="623">
    <g opacity=".1">
        <path d="M284.814 58.462a40.335 40.335 0 0 0-2.649-10.115 4.581 4.581 0 0 0-2.334-2.867 4.822 4.822 0 0 0-2.316-.025l-11.89 1.814a4.565 4.565 0 0 0-2.712 1.051c-1.549 1.624-.024 4.24-.071 6.48-.053 2.52-2.298 4.566-4.733 5.242-2.484.501-5.048.47-7.52-.093l-16.625-2.576a27.416 27.416 0 0 0 12.578-8.37c2.188-2.586 3.351-7.412.19-8.636a7.782 7.782 0 0 0-2.888-.231c-7.533.058-13.46-6.214-20.512-8.856-9.258-3.244-19.558-.182-25.524 7.589l8.857.426a3.94 3.94 0 0 1 2.359.627c1.94 1.59-.472 4.646-.199 7.136.356 3.236 4.663 3.927 7.91 4.254 3.248.327 7.367 2.958 5.805 5.816-16.32 5.607-32.929-10.96-50.07-8.92-4.337.516-8.434 2.216-12.67 3.284-25.872 6.53-52.62-10.89-79.051-7.201a100.595 100.595 0 0 0-17.256 4.539c-3.598 1.178-7.35 2.45-9.964 5.183-2.613 2.732-3.608 7.404-1.132 10.26a58.052 58.052 0 0 1-20.292-1.923 11.333 11.333 0 0 1 5.845 9.992 120.635 120.635 0 0 0-30.843 9.38 51.822 51.822 0 0 0 6.383 8.48L0 98.848c4.558 1.145 6.914 7.343 4.264 11.214 4.726-2.096 7.654-7.52 12.708-8.62 3.31-.72 6.68.63 9.82 1.899 3.14 1.269 6.593 2.5 9.844 1.547 3.251-.953 5.65-5.157 3.583-7.836a168.635 168.635 0 0 1 42.731-6.658 5.371 5.371 0 0 1 3.236.612c1.884 1.304 1.388 4.12 1.287 6.404-.102 2.284 1.684 5.286 3.73 4.257-2.408 2.083-.349 6.004 1.962 8.194 2.31 2.19 5.096 5.213 3.681 8.062-.369.744-.995 1.34-1.35 2.09-1.05 2.214.616 4.797 2.58 6.267 1.963 1.471 4.369 2.5 5.733 4.536 1.364 2.037.745 5.602-1.695 5.887l-6.933-8.78a17.986 17.986 0 0 0-4.684 8.852c7.353 5.994 8.459 18.195 2.303 25.407-3.145 3.686-7.618 5.926-11.523 8.8-3.904 2.875-7.516 6.969-7.506 11.809.017 8.361-.669 16.13 2.473 23.882a367.476 367.476 0 0 0 20.027 41.67c1.98 3.534 4.541 7.408 8.555 8.016a491.497 491.497 0 0 1-13.698-37.52c2.644.01 5.7.22 7.25 2.356 1.283 1.77 1.008 4.175 1.406 6.322a19.556 19.556 0 0 0 2.505 5.87l24.22 43.031c2.009 3.568 4.312 7.397 8.15 8.841 2.453.924 5.292.75 7.55 2.08 1.77 1.042 2.962 2.892 4.767 3.874 5.102 2.776 12.198-2.548 16.966.766 1.363.948 2.23 2.453 3.487 3.538 4.404 3.804 11.628 1.26 16.712 4.097 3.276 1.829 4.974 5.486 6.722 8.8 4.378 8.302 11.46 16.435 20.842 17.096 2.947.208 5.957-.35 8.838.304 2.88.654 5.716 3.161 5.254 6.071-.793 4.99 1.679 10.452 1.015 15.46-1.21 9.122-14.182 13.13-15.297 22.264-.244 2 .138 4.064-.34 6.021-.584 2.4-2.39 4.353-3.033 6.737-1.216 4.52 2.03 9.017 5.596 12.057 3.566 3.04 7.82 5.662 9.77 9.918 2.06 4.498 1.049 9.743 1.719 14.643 1.463 10.698 10.728 18.629 20.262 23.743 2.905 1.558 6.025 3.066 7.905 5.769 2.454 3.527 2.21 8.178 3.029 12.393 2.007 10.323 10.72 18.829 10.968 29.341.176 7.472-3.989 14.25-6.477 21.301a49.558 49.558 0 0 0 4.068 41.198c1.86 3.134 4.086 6.088 5.403 9.486 2.35 6.063 1.587 12.955 3.753 19.085 2.864 8.105 10.733 14.8 9.98 23.36 3.572 7.4 11.46 11.035 19.393 13.237l14.217 3.947c2.722.755 5.567 1.517 8.339.97 2.771-.547 5.417-2.843 5.345-5.66-6.972-1.568-14.167-3.236-19.914-7.473-5.747-4.237-9.684-11.782-7.503-18.57 1.01-3.147 3.162-6.782 1.117-9.383-1.171-1.489-3.312-1.878-4.633-3.236-2.06-2.12-1.352-5.68.129-8.235 1.48-2.555 3.621-4.839 4.219-7.73a8.057 8.057 0 0 0-3.79-8.39 20.108 20.108 0 0 0 7.036-4.504c1.85-2.107 2.705-5.357 1.25-7.753 4.322.547 9.426.815 12.264-2.483 2.266-2.634 2.11-6.57 1.215-9.924-.896-3.354-2.409-6.611-2.456-10.081 9.972.471 19.966.133 29.883-1.01a19.335 19.335 0 0 0-9.085-11.349c4.491-.758 8.583-6.12 10.002-10.438 1.419-4.317 1.057-9.02.18-13.478a7.213 7.213 0 0 1-.134-3.53c.505-1.608 2.089-2.59 3.554-3.428l22.294-12.77a12.984 12.984 0 0 0 3.565-2.625c2.336-2.736 1.99-6.867.794-10.257-1.196-3.39-3.112-6.577-3.573-10.141-1.378-10.66 10.063-18.308 13.925-28.342 1.515-3.937 1.824-8.217 2.117-12.425.315-4.52.338-9.768-3.14-12.68-3.336-2.792-8.547-2.17-12.037-4.766-3.2-2.38-4.303-7.004-7.798-8.927-3.175-1.746-7.155-.636-10.685-1.457-6.216-1.446-10.128-8.591-16.476-9.253-3.582-.373-7.635 1.373-10.571-.707-2.587-1.833-2.69-5.518-3.183-8.644-1.767-9.952-9.564-17.753-19.536-19.547-3.693-.591-7.713-.367-10.855-2.39-3.181-2.05-4.64-5.888-7.139-8.726-4.027-4.575-10.37-6.2-16.312-7.593l-24.17-5.667c-4.29-1.006-9.821-1.54-12.123 2.21a17.292 17.292 0 0 0-1.435 4.498 13.962 13.962 0 0 1-13.135 9.86 15.528 15.528 0 0 0-9.16-7.069c-2.451-.68-5.075-.757-7.412-1.759a10.391 10.391 0 0 1-5.37-6.231 10.359 10.359 0 0 1 .853-8.172 12.9 12.9 0 0 0-2.215-15.547c-4.11-3.68-10.056-4.57-15.567-4.201-1.444-3.141.97-6.685 3.57-8.968 2.602-2.283 5.76-4.527 6.326-7.936.891-5.362-5.97-9.435-11.178-7.836-5.209 1.599-8.533 6.644-10.73 11.618-1.262 2.854-2.334 5.86-4.323 8.266-1.988 2.406-5.191 4.129-8.22 3.357-4.29-1.094-5.946-6.176-6.896-10.488-1.273-5.786-2.554-11.652-2.287-17.57.267-5.917 2.267-11.993 6.642-15.999 7.13-6.528 18.067-5.888 27.689-4.847-2.273-2.554-1.712-6.859.72-9.263a10.581 10.581 0 0 1 9.573-2.346c2.9.602 5.511 2.16 7.415 4.422 2.734 3.325 3.512 7.814 5.579 11.588 2.066 3.774 6.714 6.993 10.517 4.968 3.286-1.749 3.807-6.292 2.99-9.916-.818-3.624-2.555-7.147-2.259-10.85.566-7.064 7.908-11.316 14.388-14.226 6.48-2.91 13.899-6.822 14.926-13.835.035-1.373.294-2.731.768-4.02a7.9 7.9 0 0 1 2.902-2.722c18.91-12.464 38.136-25.08 59.75-31.89 1.124-.355 1.256.039 2.402-.239 1.604-.924.541-3.482-.996-4.512-1.538-1.03-3.594-1.82-3.984-3.627-.286-1.327.498-2.63.702-3.974.5-3.3-3.458-6.346-6.531-5.027-1.737-2.293 1.699-4.958 4.477-5.72a121.88 121.88 0 0 1 25.542-4.162 4.611 4.611 0 0 1 2.907.493c1.45 1.003 1.265 3.302.237 4.732-1.028 1.43-2.628 2.33-3.91 3.54a10.622 10.622 0 0 0-2.767 10.703c4.51 2.288 9.413 4.643 14.407 3.837 4.995-.806 9.428-6.403 7.08-10.873-2.186-4.162-8.753-5.101-9.882-9.663-1.322-5.342 6.26-10.092 4.551-15.324-.748-2.291-3.038-3.64-4.795-5.295a14.339 14.339 0 0 1-3.152-15.93 18.205 18.205 0 0 1-15.939-4.975c-3.812-3.837-6.854-9.89-12.268-9.718-4.968.157-9.247 5.938-13.892 4.174-1.143-.434-2.348-1.317-3.455-.8a2.846 2.846 0 0 0-1.289 2.134c-1.18 5.63.85 12.043-2.226 16.907-3.347 5.293-11.09 6.027-15.148 10.8-2.203 2.59-3.056 6.082-5.08 8.814-2.026 2.731-6.323 4.468-8.753 2.088a12.01 12.01 0 0 0-3.277-14.63 32.225 32.225 0 0 0-7.239-3.512 42.963 42.963 0 0 1-8.087-4.495 7.953 7.953 0 0 1-2.968-3.168 7.201 7.201 0 0 1 .203-5.01 20.526 20.526 0 0 1 16.345-13.51c3.235-.44 7-.285 9.142-2.744 1.133-1.3 1.727-3.267 3.371-3.796a4.985 4.985 0 0 1 3.113.383l12.076 4.239a8.496 8.496 0 0 0 4.302.71 2.91 2.91 0 0 0 2.522-3.057c-.386-2-3.471-2.96-3.19-4.978a3.321 3.321 0 0 1 1.01-1.694 43.235 43.235 0 0 1 34.243-13.486c1.524 2.497-.887 5.453-2.893 7.584-2.005 2.132-3.617 5.94-1.192 7.58.994.506 2.1.755 3.216.722a28.13 28.13 0 0 1 8.558 2.59 164.742 164.742 0 0 1 12.279 5.944c-.355-2.638-.693-5.418.31-7.886 1.003-2.467 3.853-4.402 6.342-3.441 2.4.926 3.63 4.094 6.186 4.384 3.41.388 4.755-4.636 3.33-7.75-1.424-3.114-4.243-5.721-4.478-9.136-.16-2.304.72-5.16-1.125-6.555a5.03 5.03 0 0 0-2.177-.762l-46.068-8.454c-2.735-.502-6.688-.118-6.809 2.654-.068 1.547 1.318 3.077.704 4.5-.655 1.518-2.806 1.379-4.374 1.916-2.431.833-3.652 3.713-3.418 6.267a17.412 17.412 0 0 0 2.885 7.062c-2.996-1.25-7.533-1.48-10.53-2.73zm-33.682-36.818c-6.54-1.678-13.737-.007-18.01 4.181-.834.851-1.535 2.024-.837 2.946 1.001 1.32 3.55.799 5.43.326 2.763-.765 5.77-.82 8.578-.158 1.765.47 3.344 1.3 5.117 1.752 1.758.57 3.78.34 5.254-.596 1.217-.961 1.293-2.457 1.295-3.804.171-.913-.199-1.837-1.006-2.515a6.302 6.302 0 0 0-2.326-.533c-1.834-.263-3.493-1.014-4.689-2.124m12.783-7.115c-1.23-.05-2.405.373-3.102 1.115-.696.74-.814 1.693-.309 2.513 1.857.37 3.797.462 5.704.272 1.944-.22 3.517-1.273 3.986-2.668-2.245.298-4.562-.025-6.498-.906m59.611-5.746A78.584 78.584 0 0 0 306 13.454c4.972 1.7 8.11 6.092 7.732 10.819a5.032 5.032 0 0 0 .074 2.675c.591 1.276 2.306 1.755 3.814 2.083a28.083 28.083 0 0 0 8.366.95c2.874-.134 5.479-1.55 6.924-3.765.41-1.035.891-2.046 1.44-3.029 3.614-4.896 14.35 1.024 18.23-3.708 1.366-1.667 1.24-4.177 3.023-5.498a7.314 7.314 0 0 1 3.108-1.055 243.768 243.768 0 0 1 23.608-2.992c3.755-.29 8.65-1.49 8.681-4.843-14.144-2.472-28.809-.716-41.716 4.993-4.65 2.072-10.8 6.43-15.28 3.684-1.676-1.03-1.593-3.799-3.902-4.956-2.36-1.182-5.484-.701-7.989-.228z"/>
        <path d="m364.284 13.77 6.466 1.21a8.495 8.495 0 0 0-6.415 2.503 8.041 8.041 0 0 0-2.305 6.346c6.055 1.971 12.657.053 19.036.315 6.378.262 13.8 4.702 12.71 10.832-.329 1.854-1.427 3.706-.856 5.503.4 1.259 1.54 2.153 2.184 3.312 1.34 2.417.269 5.474-1.424 7.671s-3.968 3.95-5.454 6.285c-3.695 5.807-1.596 13.315.606 19.802a17.29 17.29 0 0 0 3.444 6.704c3.262 3.379 8.577 3.673 13.337 3.74 3.464.05 7.433-.117 9.624-2.733 2.86-3.415.86-8.742 2.743-12.75 1.71-3.64 6.068-5.202 10.016-6.31 7.233-2.028 14.603-3.753 21.441-6.818 8.49-3.805 16.426-9.736 25.758-10.226 2.618-.137 5.301.164 7.823-.535 2.522-.7 4.918-2.824 4.727-5.372-.163-2.177-2.054-3.776-3.53-5.417-1.478-1.642-2.638-4.166-1.28-5.902l24.461-4.452c-1.734-4.605-3.085-10.67.9-13.666 1.437-1.082 3.362-1.514 4.586-2.821 2.086-2.229 1.037-6.067-1.371-7.962-2.408-1.895-5.664-2.335-8.749-2.585-10.726-.868-21.513-.294-32.26.28l-63.02 3.366c-4.229.226-9.111-.119-12.99 1.287-3.283 1.19-5.618 3.375-9.373 4.142-6.933 1.417-14.562.458-20.835 4.251zm116.432 51.827a2.799 2.799 0 0 0-1.937.416c-.374.39-.596.888-.63 1.413-.43 2.318.081 4.704 1.432 6.68 1.401 1.974 3.824 3.073 6.329 2.87 2.996-.361 5.204-2.78 7.959-3.96 4.246-1.817 22.277-4.65 9.804-11.026-4.299-2.197-7.076-.257-10.464 1.19a24.962 24.962 0 0 1-12.493 2.417zm105.04-58.41a7 7 0 0 0-3.41 2.957 2.977 2.977 0 0 0 1.123 3.957 4.485 4.485 0 0 0 1.672.264l5.826.173c2.476.074 5.568.6 6.233 2.976.494 1.764-.611 4.032.722 5.293a3.772 3.772 0 0 0 1.983.77 13.57 13.57 0 0 0 5.87.189c4.24-1.133 2.013-3.711 3.348-6.006 2.043-3.512 1.69-1.386 5.29-3.4 2.658-1.486 6.094-4.182 3.875-7.97-3.86-6.59-26.839-2.033-32.533.797zm113.02.388-3.48.403c-7.847.91-15.739 1.827-23.296 3.874a43.665 43.665 0 0 0 10.202 2.174c1.926.082 3.84.318 5.715.705 3.338.863 6.701 3.092 9.926 1.95 2-.707 2.652-2.516 4.309-3.474 1.144-.662 5.482-1.733 5.967-2.4 3.92-5.4-6.33-3.581-9.344-3.232zm14.132 16.33a56.85 56.85 0 0 0-11.157 8.462c-1.42 1.383-2.872 3.103-2.743 5.117.171 2.678 2.926 4.232 5.312 5.278L713.985 47c1.173-1.712.1-4.074-1.112-5.756-1.212-1.682-2.652-3.628-2.117-5.652.611-2.31 3.33-3.097 5.61-3.495 3.716-.648 13.738-.596 12.534-6.797-1.419-7.307-12.262-3.555-15.992-1.396zm-.219 440.248c-.962 3.042-1.053 6.626.611 9.282 1.868 2.98 5.606 4.091 8.84 3.336 3.22-.936 6.09-2.952 8.207-5.763a31.284 31.284 0 0 0 4.72-7.905 66.223 66.223 0 0 0 3.499-13.981l3.138-17.994c.701-4.022.674-16.351-6.094-12.334-1.85 1.097-6.13 9.762-8.068 12.219-3.492 4.428-3.954 8.725-5.793 14.09-2.303 6.72-6.93 12.32-9.06 19.05zm378.501 85.604a56.145 56.145 0 0 1-6.762-2.757c-2.18 5.132-3.338 10.54-3.428 16l15.934-7.722c2.397-1.161 5.114-2.775 5.062-5.134.044-.593-.294-1.16-.88-1.476a2.483 2.483 0 0 0-1.118-.113c-2.363.17-4.517 1.165-6.746 1.857s-4.835 1.058-6.88.03m90.455 8.38a35.717 35.717 0 0 0-5.311 1.917c-3.8 1.944-6.386 5.638-9.806 8.199-3.273 2.45-7.213 3.796-11.08 5.105-1.138 1.011-.615 3.048.62 3.936a7.647 7.647 0 0 0 4.374.989c4.018.09 8.251.128 11.77-1.824a37.155 37.155 0 0 0 5.542-4.423c4.115-3.452 9.057-5.73 13.948-7.931a15.991 15.991 0 0 0 4.862-2.923c3.073-3.046 3.29-7.744-1.143-8.78-3.58-.838-10.366 4.626-13.776 5.735zm38.466-27.52c.422-3.843-1.206-7.64-4.414-10.302-.048 3.794-.18 7.836-2.629 10.973-1.745 2.236-4.48 3.746-6.392 5.875-1.912 2.13-2.76 5.505-.518 7.373 1.433.95 3.179 1.474 4.98 1.495 4.464.458 9.63.713 12.76-2.097 1.71-1.534 2.54-3.805 4.625-4.933a5.675 5.675 0 0 0 2.028-1.265c.861-1.192-.506-2.763-2.045-3.192-1.54-.43-3.236-.228-4.782-.636-1.547-.408-2.966-1.923-2.173-3.15m-67.666-147.053a18.26 18.26 0 0 1-6.451.376c-3.58-.65-6.368-3.32-9.258-5.51a41.114 41.114 0 0 0-23.86-8.249c-7.855-.146-15.783 1.96-23.498.49.504 2.774 2.903 4.854 5.463 6.091s5.384 1.859 7.956 3.07a18.886 18.886 0 0 1 9.202 9.472c.828 1.913 1.35 3.995 2.604 5.665 2.564 3.414 7.426 4.164 11.716 3.885 5.593-.364 11.435-1.956 16.639.106 3.98 1.577 6.83 5.025 10.154 7.705 3.323 2.68 8.005 4.67 11.822 2.736-8.137-2.606-13.616-10.145-13.523-18.607 3.743.341 14.525.21 13.944-6.084-.492-5.334-9.696-1.722-12.91-1.146zm-53.911 46.329c.673-3.7 4.352-6.966 3.206-10.546-.793-2.476-3.656-3.699-6.25-3.76-2.592-.06-5.14.713-7.732.786a37.59 37.59 0 0 0-5.064.072c-5.147.849-8.319 6.257-13.17 8.18-2.948 1.17-6.262.946-9.329 1.754-6.962 1.835-11.368 8.431-16.235 13.75a57.906 57.906 0 0 1-29.408 17.194c-3.959.919-8.215 1.507-11.361 4.085-4.167 3.413-5.193 9.265-6.12 14.58A241.308 241.308 0 0 1 982 519.847l16.533 2.116c3.143.403 6.4.797 9.429-.137a27.35 27.35 0 0 0 6.202-3.312 61.813 61.813 0 0 1 24.189-8.754c4.33-.596 8.868-.705 12.931.908 4.063 1.614 7.549 5.273 7.89 9.64a10.138 10.138 0 0 1 10.15 2.476 17.707 17.707 0 0 1 4.847 9.7c.435 2.267.87 4.984 2.97 5.936 1.712.776 3.676-.06 5.55-.21 6.356-.51 11.63 6.92 17.878 5.64 6.7-1.372 8.345-11.432 14.882-13.447 3.754-1.158 9.02.25 10.818-3.252 1.584-3.086-1.577-6.647-1.251-10.102.401-4.255 5.407-6.06 9.266-7.876 13.305-6.26 19.618-24.212 13.171-37.453-3.82-7.845-11.336-14.02-12.724-22.638-1.068-6.631 1.54-14.363-2.677-19.583-2.146-2.655-5.777-4.12-7.054-7.288-.803-1.994-.48-4.257-.913-6.364-.432-2.106-2.265-4.31-4.34-3.764-6.023 1.585-7.945 20.24-11.17 24.772-4.902 6.89-14.965 2.351-13.421-6.137zm-113.084-37.1c-2.18-.486-4.562-.965-6.652-.27-2.09.694-3.31 3.133-1.633 4.343 13.121-.406 26.323-.81 39.333.607 14.99 1.632 29.825 5.675 44.88 4.485a279.182 279.182 0 0 0-26.18-4.829l-14.74-2.238a141.487 141.487 0 0 0-11.968-1.47c-8.408-.552-14.773 1.214-23.04-.628zm16.785-47.496c-1.028-.093-2.3-.173-2.832.782-.508.912.073 2.117-.2 3.14-.373 1.398-2.067 1.755-3.401 1.564-1.335-.19-2.778-.645-3.96.05-1.232.909-1.76 2.587-1.298 4.12a10.76 10.76 0 0 0 2.289 3.942 38.935 38.935 0 0 0 5.938 6.437c4.255 3.393 10.019 5.029 12.699 9.955.378.955.959 1.8 1.696 2.466 1.286.88 2.964.21 4.349-.473l4.855-2.397a5.519 5.519 0 0 0 2.27-1.668c1.109-1.626.427-3.938-.504-5.69-.93-1.752-2.122-3.565-1.923-5.574.357-3.581 4.618-4.951 6.37-8.015 1.767-3.089.617-7.069.82-10.693.239-4.238 2.703-9.751-1.262-12.918-3.37-2.691-6.592-.205-9.011 2.767-5.103 6.265-7.515 13.051-16.895 12.205zm30.052-55.184c1.68 3.04 5.185 4.855 7.019 7.815 1.986 3.21 1.76 7.355 3.916 10.466 2.211 3.19 6.662 4.885 7.902 8.515 1.354 3.962-1.718 8.779.73 12.241.924 1.145 2.313 1.87 3.83 2.002 1.517.132 3.023-.343 4.151-1.31 2.148-2.207 2.04-5.63-.241-7.713-1.45-1.25-3.532-1.789-4.743-3.247a6.61 6.61 0 0 1-1.228-2.825 17.5 17.5 0 0 1 .308-8.863c.324-.733.406-1.54.236-2.318-.545-1.497-2.69-1.603-4.196-2.297-3.42-1.577-3.336-6.134-2.739-9.684-.398 2.363-9.31-1.656-10.243-2.994-1.854-2.66-.845-7.789-1.212-10.727-4.002 1.822-5.545 7.222-3.49 10.94zm-90.504 47.976c-1.707-1.799-4.277-3.68-6.565-2.596-1.745.828-2.225 3.102-1.541 4.825a10.805 10.805 0 0 0 3.723 4.178c4.767 3.702 9.901 7.043 14.06 11.346 7.444 7.701 11.387 18.092 19.482 25.187 1.627 1.644 3.781 2.742 6.134 3.125 2.358.207 5.007-1.215 5.278-3.43.223-1.825-1.128-3.458-2.449-4.81-3.144-3.22-6.587-6.184-9.556-9.55-1.37-1.292-2.232-2.986-2.442-4.802-.015-1.811 1.74-3.708 3.604-3.259-2.267-.546-3.95-4.102-7.277-4.77-2.781-.56-3.454 1.062-6.764-.275-6.313-2.549-11.266-10.51-15.687-15.17zm142.445-179.793a52.343 52.343 0 0 1-5.24-1.819c-4.605-1.343-10.698 1.946-10.084 6.58.408 3.08 3.356 5.156 4.985 7.827 2.415 3.96 1.77 8.984.502 13.42a10.348 10.348 0 0 1-1.742 3.818 13.303 13.303 0 0 1-4.127 2.885 54.813 54.813 0 0 0-16.149 13.334 3.81 3.81 0 0 0-.975 1.786c-.22 1.565 1.399 2.705 2.314 4.01 2.032 2.899.563 6.8.764 10.302a2.884 2.884 0 0 0 1.263 2.556c1.225.605 2.677-.423 3.34-1.592 2.204-3.88.544-10.107 4.678-11.978.782-.353 1.73-.503 2.251-1.17.828-1.06.03-2.627.449-3.893.63-1.9 3.304-1.986 5.356-1.901 3.536.143 7.07-.314 10.444-1.352a7 7 0 0 0 3.457-1.945c1.236-1.5 1.126-3.63.88-5.536a73.579 73.579 0 0 0-9.122-27.05c3.631.451 7.582.842 10.715-.998 1.754-1.03 3.858-4.109 2.988-6.205-1.376-3.315-3.862-.525-6.948-1.079zm-460.225 55.72c.424 2.266.841 4.653.096 6.836-.746 2.182-3.09 4.006-5.305 3.337-1.718-.519-2.711-2.24-3.931-3.553-6.786-7.3-22.096-3.074-26.288-12.105-1.711-3.686-.549-8.102-1.716-11.993-1.514-4.625-5.975-7.645-10.848-7.343a22.351 22.351 0 0 0-6.243 1.857 157.865 157.865 0 0 1-41.361 10.308 34.092 34.092 0 0 0-7.947 1.44c-5.828 2.106-9.81 7.49-12.643 12.983-2.834 5.493-4.926 11.44-8.725 16.321-3.993 5.13-9.588 8.722-14.807 12.607a15.077 15.077 0 0 0-4.884 5.101c-1.132 2.315-1.068 5.007-.98 7.58l1.067 31.252c.137 4.02.31 8.183 2.115 11.78 2.254 4.492 6.708 7.434 9.798 11.402a22.28 22.28 0 0 1 4.65 14.262c-.066 2.07-.272 4.516 1.345 5.816a5.93 5.93 0 0 0 3.306.947l42.425 3.46c7.463.609 15.734 1.61 20.606 7.275 2.3 2.674 4.147 6.52 7.669 6.806 1.51.123 2.98-.495 4.492-.614 3.812-.3 7.161 2.582 9.275 5.758a25.477 25.477 0 0 1 4.118 16.393c-.347 3.623-1.474 7.145-1.717 10.776-.925 13.816 10.83 25.82 11.058 39.666.134 8.144-3.746 15.753-7.529 22.973 6.105 9.216 1.106 21.488 3.537 32.262 2.306 10.221 10.858 18.223 12.99 28.482.975 4.696 1.032 10.476 5.188 12.895a11.863 11.863 0 0 0 5.87 1.171 77.622 77.622 0 0 0 35.244-7.995c5.14-2.541 10.465-6.335 11.363-11.981.723-4.554-1.594-9.647.764-13.613 2.78-4.675 9.9-4.304 13.99-7.898 6.635-5.831 1.461-16.95 4.15-25.349 2.416-7.549 10.733-11.56 14.856-18.334a32.508 32.508 0 0 0 3.453-9.324 132.563 132.563 0 0 0 3.513-23.78c.11-4.871.47-9.733 1.08-14.567 4.445-27.52 31.747-45.946 40.612-72.383.846-2.525 1.244-5.888-1.01-7.317a6.476 6.476 0 0 0-4.293-.447l-19.557 2.457c-2.43.305-5.004.59-7.235-.415-2.23-1.006-3.83-3.818-2.646-5.954 3.322-5.995-3.511-13.571-6.547-19.715a290.754 290.754 0 0 0-29.074-46.984 4.768 4.768 0 0 1-1.274-2.758l5.55.185c-1.873-6.7-4.966-14.03-11.497-16.481-3.68-1.381-7.757-.904-11.684-.69-11.248.612-23.306-1.08-34.439-2.795z"/>
        <path d="M653.01 60.75c2.963 3.14 6.284 6.47 10.571 7.018 7.573.966 13.017-6.848 16.484-13.636.266 3.598 3.355 6.33 6.966 6.164a13.77 13.77 0 0 0 5.24-2.045 103.397 103.397 0 0 1 48.906-12.616 5.271 5.271 0 0 1 4.033-5.795c3.476-.687 6.608 2.312 8.285 5.427 1.677 3.116 2.722 6.727 5.386 9.06 2.665 2.332 7.823 2.23 8.875-1.147 1.01-3.242-2.374-6.007-5.186-7.919-2.812-1.911-5.776-5.449-3.882-8.27 14.365-3.173 28.82-6.359 43.52-6.99a18.257 18.257 0 0 0 7.325-1.259c2.242-1.098 4.024-3.59 3.42-6.008a16.606 16.606 0 0 1-17.311-6.516c20.397-1.68 42.09-3.112 60.167 6.466 2.169 4.647-8.886 8.514-5.928 12.705.943 1.337 2.833 1.494 4.471 1.524 12.562.233 25.196.46 37.615-1.432 4.539-.691 9.123-1.668 13.68-1.107 7.59.934 14.08 5.988 21.548 7.636 3.039.67 6.447.693 9.008-1.07 2.562-1.765 3.664-5.782 1.564-8.075 7.03-6.876 18.699-5.172 27.974-1.88 9.274 3.292 18.06 8.601 27.877 9.335 7.04.526 14.177-1.363 21.132-.162 4.371.754 8.44 2.695 12.711 3.887 8.08 2.255 16.627 1.779 25.016 1.888a175.594 175.594 0 0 1 62.464 12.386 18.58 18.58 0 0 1 6.944 4.094c1.85 1.978 2.795 5.051 1.55 7.456l-20.55-2.997c1.936 3.804 6.945 4.452 11.013 5.765 4.068 1.312 8.286 5.795 5.842 9.296-4.408-1.4-8.403 2.997-10.63 7.044-2.226 4.046-4.94 8.892-9.559 9.139-4.136.22-9.14-3.294-11.835-.156a80.531 80.531 0 0 1 9.51 15.173c2.664 5.539 4.56 12.517.96 17.5a4.544 4.544 0 0 1-2.43 1.88c-2.94.743-4.85-2.847-6.959-5.023-2.657-2.741-6.676-3.518-10.274-4.804-3.599-1.286-7.39-3.815-7.67-7.62-.176-2.366 1.076-4.566 1.999-6.754a25.975 25.975 0 0 0 1.98-11.671c-.201-3.211-1.103-6.55-3.414-8.794-2.31-2.243-6.3-2.955-8.78-.9-1.157.958-2.085 2.492-3.588 2.55-2.655.1-4.695-4.52-6.831-2.943a7.233 7.233 0 0 1-.987 4.845c-6.375 5.534-16.17 3.193-24.39 5.148a45.828 45.828 0 0 0-11.127 4.85 7.156 7.156 0 0 0-3.181 2.664c-1.026 1.99.105 4.538 1.914 5.861a15.214 15.214 0 0 0 6.31 2.15c10.02 1.894 20.187 4.825 28.098 11.249 7.912 6.423 13.1 17.04 10.596 26.908l-19.761-18.844a291.192 291.192 0 0 1 1.278 23.801 10.68 10.68 0 0 1-.627 4.579c-1.408 3.105-5.227 4.15-8.572 4.835a6.715 6.715 0 0 0-4.507 3.14 6.69 6.69 0 0 0-.649 5.446c1.19 3.867 4.153 6.882 6.867 9.886 2.714 3.004 5.385 6.418 5.74 10.448.356 4.029-2.69 8.57-6.734 8.29-3.065-.212-5.339-2.95-6.646-5.725-1.308-2.775-2.085-5.866-4.05-8.224-5.946-7.136-19.3-4.079-24.627-11.686a12.003 12.003 0 0 0-2.49 11.44c2.477-1.549 5.87-.11 7.731 2.14 1.862 2.249 2.74 5.132 4.202 7.659 1.973 3.409 5.113 6.431 5.388 10.358a33.79 33.79 0 0 0 .076 4.455c.489 2.38 2.504 4.088 3.901 6.077 3.252 4.628 3.091 10.986.996 16.237-2.096 5.251-5.861 9.639-9.59 13.893-6.514 7.43-13.16 14.817-20.882 20.987-2.204 1.76-4.555 3.492-5.928 5.954-1.372 2.461-1.443 5.916.666 7.789-1.509.075-4.215.816-5.724.891-.53-6.04-.645-12.11-.345-18.167-5.954-2.853-12.366 4.788-11.598 11.336.769 6.547 5.514 11.801 8.893 17.466 2.47 4.142 4.306 8.972 3.482 13.722-.825 4.75-5.074 9.131-9.886 8.713-7.654-.667-10.856-11.633-18.436-12.888a3.103 3.103 0 0 0-1.995.198c-1.125.616-1.32 2.118-1.384 3.398-.31 6.279-.578 12.807 1.878 18.596 3.593 8.469 12.875 15.582 10.928 24.571-10.49-4.866-15.943-16.605-18.42-27.88-2.475-11.277-2.888-23.114-7.327-33.774-3.37 4.311-10.454.747-13.534-3.775-2.92-4.288-4.717-9.248-7.55-13.594-2.832-4.345-7.171-8.236-12.36-8.475-5.44-.25-10.16 3.475-14.309 6.996-3.412 2.894-6.915 5.903-8.91 9.905-2.902 5.823-2.143 12.688-2.283 19.19-.15 7.03-1.644 14.446-6.444 19.592-4.801 5.146-13.662 6.939-18.958 2.3-2.764-2.42-4.103-6.038-5.295-9.51A464.889 464.889 0 0 1 827.32 260.9c-.89 3.944-4.36 9.028-7.676 6.705a6.862 6.862 0 0 1-1.769-2.274c-6.184-10.461-17.638-16.736-29.21-20.498-11.573-3.763-23.75-5.517-35.193-9.652a89.214 89.214 0 0 1-18.257-9.075 14.304 14.304 0 0 0-.877 14.657c2.539 4.485 8.283 7.08 13.2 5.513 2.542-.81 4.688-2.57 7.21-3.44 2.52-.87 5.905-.443 7.007 1.981 1.056 2.32-.54 5.128.252 7.55 1.205 3.69 6.782 3.975 8.732 7.333 1.45 2.498.257 5.816-1.815 7.832-2.071 2.016-4.835 3.122-7.364 4.525-8.206 4.554-14.04 12.327-21.212 18.375-7.171 6.048-17.289 10.463-25.835 6.584 2.037-10.295-10.25-17.853-12.511-28.1-.744-3.374-.359-6.957-1.42-10.244-1.539-4.759-5.77-8.031-9.24-11.638a45.622 45.622 0 0 1-12.554-33.23c.187-4.236.967-8.54 0-12.668s-4.392-8.124-8.636-7.937c-9.693.427-21.904 1.147-26.99-7.1-1.815-2.942-2.605-7.253.02-9.508 1.85-1.59 4.583-1.44 7.014-1.202l21.84 2.144c5.109.502 10.63.916 15.014-1.75 4.383-2.664 6.283-9.739 2.224-12.874-2.966-2.29-8.28-2.167-9.141-5.81-.718-3.033 2.647-6.475.83-9.01-1.304-1.818-4.233-1.313-6.008.05-1.775 1.362-3.063 3.355-5.05 4.387-3.485 1.81-7.65.087-11.399-1.084-3.749-1.17-8.776-1.27-10.594 2.206-2.034 3.886 1.804 8.98-.215 12.874-2.668 5.149-11.706 2.218-15.454 6.647-4.3 5.082 2.927 12.66 1.476 19.154a11.969 11.969 0 0 1-11.77-.66 11.401 11.401 0 0 1-4.941-10.624c.359-2.92 1.884-5.902.862-8.662-.827-2.232-3.072-3.56-5.158-4.711l-21.224-11.704c-1.97 3.647.52 8.17 3.636 10.91 3.115 2.74 7.018 4.803 9.064 8.41 2.688 5.185.864 11.563-4.162 14.552a2.558 2.558 0 0 1-2.103.366 2.93 2.93 0 0 1-1.365-1.831c-3.745-9.564-9.367-18.993-18.356-23.989-8.988-4.995-21.904-3.968-27.799 4.448-1.4 1.998-2.34 4.277-3.56 6.39-6.479 11.228-20.37 16.545-33.349 16.198a6.634 6.634 0 0 1-3.638-.854c-2.098-1.445-2.003-4.513-1.682-7.037l1.362-10.71c.274-2.15.67-4.528 2.376-5.87 2.404-1.893 5.873-.699 8.935-.743a11.32 11.32 0 0 0 10.277-7.915 12.718 12.718 0 0 0-3.552-12.665c-1.404-1.315-3.287-2.968-2.546-4.74a3.928 3.928 0 0 1 2.754-1.852c5.5-1.594 11.312-2.011 16.72-3.892 5.408-1.88 10.653-5.729 11.934-11.3.393-1.707.571-3.775 2.108-4.621a6.332 6.332 0 0 1 2.436-.497c6.078-.863 10.49-6.214 10.167-12.332 2.592-1.807 6.224-.478 8.731 1.445 2.508 1.922 4.722 4.462 7.773 5.29 5.686 1.545 11.18-3.479 17.073-3.502 2.478-.01 5.044.864 7.375.026 2.363-.85 3.775-3.198 5.589-4.932 1.813-1.735 4.996-2.793 6.671-.924l-1.426-10.544a20.804 20.804 0 0 0 16.903-3.05L621.4 83.984a4.01 4.01 0 0 1-1.724-.92c-1.34-1.44-.009-3.684 1.081-5.321 2.607-3.916 3.045-10.368-1.242-12.317-2.927-1.331-6.286.266-9.094 1.83l-13.455 7.486c-.427 2.552 2.7 3.998 4.638 5.717a7.75 7.75 0 0 1 2.12 8.514 7.775 7.775 0 0 1-7.19 5.046 9.654 9.654 0 0 1 1.73 8.198l-9.053.65a3.928 3.928 0 0 1-2.936-.572c-.968-.858-.836-2.362-1.06-3.635-.542-3.072-3.556-5.225-6.632-5.777-3.076-.552-6.223.156-9.27.855a5.542 5.542 0 0 1-3.983-.092 3.972 3.972 0 0 1-1.576-1.985c-1.336-3.232-.088-7.03 2.057-9.793 2.145-2.763 5.08-4.783 7.718-7.084a44.88 44.88 0 0 0 13.375-20.703c4.983-2.083 10.142-4.914 15.125-6.998a46.366 46.366 0 0 1 24.879-4.81l16.876.321c4.997.095 10.128.217 14.749 2.118 4.62 1.901 8.68 6.013 8.998 10.99a3.37 3.37 0 0 1-1.082 3.084 3.993 3.993 0 0 1-2.133.48c-4.66.163-6.647 1.322-11.307 1.486Z"/>
        <path d="M518.38 110.42c1.277-1.007 1.77-2.524 1.279-3.93-3.11-.999-6.63-.445-9.087 1.43a13.29 13.29 0 0 0-2.434 2.68c-2.107 2.862-3.97 6.281-2.75 9.48.201.706.735 1.313 1.48 1.687.548.183 1.138.26 1.726.225 2.32-.003 4.64-.122 6.943-.356 1.415-.144 3.058-.477 3.605-1.573.719-1.44-1.021-3.072-.514-4.574a5.101 5.101 0 0 1 1.482-1.767c.646-.502.97-1.229.873-1.96-.204-.705-1.5-1.105-1.967-.493m15.309-12.802a14.493 14.493 0 0 0-5.28-.375 2.09 2.09 0 0 0-1.125.289 2.14 2.14 0 0 0-.693 1.133c-.774 2.802.49 5.805 2.904 6.898.634.165 1.241.44 1.8.817 1.494 1.307.542 3.98.824 6.09.318 2.367 2.349 4.355 1.976 6.713-.293 1.858-2.051 3.329-1.768 5.189.296 1.948 2.487 2.533 4.232 2.689 1.012.2 2.053.065 2.999-.388.947-.731 1.621-1.833 1.892-3.092.714-2.4 1.015-4.934.884-7.463a7.807 7.807 0 0 0-.745-3.293 17.927 17.927 0 0 0-1.743-2.252c-3.344-4.391.177-10.94-6.157-12.955z"/>
    </g>
</svg>
