<svg xmlns="http://www.w3.org/2000/svg" width="185" height="131">
  <g fill="none">
    <path fill="#68E7C0" d="M38.18 8.14a2.7 2.7 0 0 0-.74.1h-.02a2.13 2.13 0 0 0-.41.1 1.3 1.3 0 0 0-.43.28 2.94 2.94 0 0 0-.64.86c-.14.28-.28.6-.43 1.02a6.32 6.32 0 0 0-.29 1.1c-.07.42-.06.8.02 1.14a2.9 2.9 0 0 0 .59 1.12c.2.27.45.5.69.64a3 3 0 0 0 .4.2l.06.02a2.52 2.52 0 0 0 1.1.25 9.02 9.02 0 0 0 .78-.05 2.92 2.92 0 0 0 1.4-.47c.18-.13.35-.28.51-.43l.03-.03c.28-.26.5-.52.66-.78a2.12 2.12 0 0 0 .17-.36l.02-.07c.05-.13.1-.26.13-.39a3.69 3.69 0 0 0 .14-.89v-.07a2.45 2.45 0 0 0-.34-1.44 3.01 3.01 0 0 0-.55-.73 4.2 4.2 0 0 0-.35-.28l-.09-.07a2.85 2.85 0 0 0-.57-.33 4.98 4.98 0 0 0-.72-.27 5.73 5.73 0 0 0-.76-.15 2.77 2.77 0 0 0-.36-.02m.06 10.78a3.18 3.18 0 0 0-.67.08 3.07 3.07 0 0 0-.37.11 2.01 2.01 0 0 0-.43.22 3.07 3.07 0 0 0-.44.37.56.56 0 0 0-.16.35.5.5 0 0 0-.42.37l-.17.6-.18.59-.2.77a7.28 7.28 0 0 0-.12.78 1.52 1.52 0 0 0 .8 1.42 3.97 3.97 0 0 0 1.49.4 3.54 3.54 0 0 0 .93-.04 5.85 5.85 0 0 0 .37-.08 2.67 2.67 0 0 0 1.03-.53c.13-.12.24-.3.33-.46.1-.19.18-.4.25-.58a3.86 3.86 0 0 0 .2-1.02v-.03l.01-.03v-.06c.02-.04.02-.09.02-.13v-.13l.02-.12a3.15 3.15 0 0 0-.04-.55 3.84 3.84 0 0 0-.28-1 3.3 3.3 0 0 0-.22-.44 1.4 1.4 0 0 0-.4-.42 2.85 2.85 0 0 0-.54-.28 2.11 2.11 0 0 0-.81-.15m.19 51.99c-.13 0-.26 0-.38.03a2.81 2.81 0 0 0-.62.2 1.73 1.73 0 0 0-.36.22c-.1.01-.24.06-.31.15a9.64 9.64 0 0 0-1.36 2.23c-.13.33-.2.69-.25 1.16-.04.38.17.74.63 1.08.31.24.67.4 1 .55.35.14.75.25 1.2.33a6.26 6.26 0 0 0 1.2.1c.2 0 .42-.03.65-.08.08-.02.17-.07.25-.1l.07-.04a1.19 1.19 0 0 0 .16-.1l.03-.02a2.53 2.53 0 0 0 .85-.89c.12-.23.2-.49.27-.74v-.03a4.4 4.4 0 0 0 .17-1.14 2.47 2.47 0 0 0-.4-1.17 4.6 4.6 0 0 0-.32-.45l-.02-.01a2.31 2.31 0 0 0-.28-.31 6.62 6.62 0 0 0-.63-.5 2.76 2.76 0 0 0-.84-.39 2.08 2.08 0 0 0-.28-.05h-.03a2.74 2.74 0 0 0-.4-.04m1.26-10.04a1.56 1.56 0 0 0-.71.16 2.7 2.7 0 0 0-.15.08.53.53 0 0 0-.25.33.57.57 0 0 0 .16.58c-.29.14-.6.3-.87.52-.32.26-.57.59-.78.87a6.88 6.88 0 0 0-.62.96c-.22.44-.29.83-.19 1.18a.84.84 0 0 0 .28.43 3.44 3.44 0 0 0 2 .6 3.98 3.98 0 0 0 1.6-.34 2.88 2.88 0 0 0 1.49-1.58c.15-.34.24-.67.27-1.01a2.81 2.81 0 0 0 0-.58c0-.1-.02-.18-.03-.27l-.01-.06a2.38 2.38 0 0 0-.14-.47 2.3 2.3 0 0 0-.22-.45 1.74 1.74 0 0 0-.45-.46 2.7 2.7 0 0 0-.94-.44 1.87 1.87 0 0 0-.44-.05m-1.02-9.04a.45.45 0 0 0-.11.01l-.2.06a5.6 5.6 0 0 0-.67.19l-.26.1c-.08.02-.16.06-.24.1a.91.91 0 0 0-.18.14l-.03.03-.02.03a.85.85 0 0 0-.1.16 1.4 1.4 0 0 0-.1.21v.03a8.8 8.8 0 0 0-.2.53l-.1.36a32.73 32.73 0 0 1-.07.24 5.78 5.78 0 0 0-.19.77 4.25 4.25 0 0 0-.03.3v.08l.02.2c.06.19.14.35.26.52a2.55 2.55 0 0 0 .87.78c.14.1.3.16.45.23l.05.02c.14.06.28.13.43.17.12.03.26.05.43.05a2.06 2.06 0 0 0 .38-.03l.08-.02a2.62 2.62 0 0 0 .83-.25 2.2 2.2 0 0 0 .78-.72l.04-.06c.05-.06.08-.14.12-.2l.14-.37.13-.45.03-.12a3.5 3.5 0 0 0 .07-.37c.02-.18.05-.38.05-.58a1.85 1.85 0 0 0-.3-1.05 7.22 7.22 0 0 0-.12-.17 2.1 2.1 0 0 0-.48-.38 4.84 4.84 0 0 0-.29-.15 3.13 3.13 0 0 0-.77-.26.83.83 0 0 0-.16-.02.52.52 0 0 0-.2.04.44.44 0 0 0-.34-.15m-.03-10.57a2.58 2.58 0 0 0-.78.12c-.17.06-.33.14-.45.21a.54.54 0 0 0-.25.33.6.6 0 0 0 .05.45.56.56 0 0 0 .1.12.79.79 0 0 0-.39.18 2.4 2.4 0 0 0-.58.81 7.49 7.49 0 0 0-.32.75l-.03.09a6.99 6.99 0 0 0-.15.44c-.1.35-.04.7.01.99a2.6 2.6 0 0 0 .52.85 2 2 0 0 0 .81.45 3.7 3.7 0 0 0 .45.15 1.99 1.99 0 0 0 .59.04 5.32 5.32 0 0 0 1.99-.63 3.12 3.12 0 0 0 .75-.57c.12-.13.22-.3.3-.43a4.2 4.2 0 0 0 .11-.22l.02-.05c.05-.1.1-.2.13-.3l.01-.03a1.82 1.82 0 0 0 .12-.46 4.3 4.3 0 0 0-.64-2.27 2.6 2.6 0 0 0-.25-.32 1.43 1.43 0 0 0-.4-.29 4.42 4.42 0 0 0-.68-.25 4.18 4.18 0 0 0-.73-.15 4.1 4.1 0 0 0-.3-.01m.55-11.17c-.13 0-.27.02-.4.05h-.03c-.13.02-.26.14-.32.25a.56.56 0 0 0-.03.49 1.79 1.79 0 0 0-.46-.07h-.02l-.16.02-.04.01a.74.74 0 0 0-.36.19c-.17.14-.42.39-.56.7a2.17 2.17 0 0 0-.19.87c0 .29.04.6.13.96a2.73 2.73 0 0 0 .77 1.28h.01l.24.18a2.33 2.33 0 0 0 .8.27 3.9 3.9 0 0 0 1 .03c.38-.03.65-.08.9-.17.17-.06.3-.13.4-.2.17-.13.28-.3.37-.45a2.53 2.53 0 0 0 .31-.79c.07-.32.06-.66 0-1.09a2.77 2.77 0 0 0-.1-.4 5 5 0 0 0-.2-.48 4.63 4.63 0 0 0-.38-.72 2.68 2.68 0 0 0-.25-.31 2.37 2.37 0 0 0-.34-.29 1.45 1.45 0 0 0-.26-.15 1.99 1.99 0 0 0-.4-.13 2.38 2.38 0 0 0-.43-.05"/>
    <path fill="#D1D1D1" d="M80.1 113.61a.94.94 0 0 1 .48-.11l.25.04c.27.06.54.14.8.21l.13.04.07.02c.44.12.88.25 1.1.66a1.05 1.05 0 0 1-.05 1.04l-.09.14-.07.1a42 42 0 0 0-.56.95l-.04.05-.57.97c-.21.34-.44.59-.71.76a1.4 1.4 0 0 1-.7.22.81.81 0 0 1-.13-.01 8.06 8.06 0 0 1-.84-.2 6.75 6.75 0 0 1-1.12-.4c-.17-.08-.33-.15-.47-.26l-.07-.05a1.78 1.78 0 0 1-.24-.2 1.42 1.42 0 0 1-.23-.3 1.5 1.5 0 0 1-.1-.28l-.02-.11v-.12a.93.93 0 0 1 .05-.46c.08-.17.16-.35.27-.52a3.77 3.77 0 0 1 .44-.56l.4-.41.98-.9a.84.84 0 0 1 .84-.17.92.92 0 0 1 .2-.14m-5.74-2.97c.15-.08.34-.13.51-.13.11 0 .21.02.3.06.22.09.48.2.73.34a3.61 3.61 0 0 1 .93.77l.03.05a2 2 0 0 1 .2.28 1.9 1.9 0 0 1 .14.42c.05.2.01.39-.04.6a1.47 1.47 0 0 1-.21.41l-.02.03-.06.07-.14.19a5.4 5.4 0 0 0-.33.5 7.91 7.91 0 0 1-.26.4c-.1.16-.23.34-.37.48a3.96 3.96 0 0 1-.3.26c-.14.12-.34.27-.57.37a1.4 1.4 0 0 1-.76.1 6.33 6.33 0 0 1-1.17-.27 3.96 3.96 0 0 1-.58-.25l-.03-.02a2.38 2.38 0 0 1-.3-.17l-.04-.03a2.01 2.01 0 0 1-.33-.27c-.3-.34-.58-.9-.4-1.45.14-.47.44-.88.72-1.2l.73-.87.12-.14a.77.77 0 0 1 .55-.22h.03a.8.8 0 0 1 .46.17c.1-.2.26-.38.46-.48m9.95-3.75c.18-.17.45-.28.67-.28a11.76 11.76 0 0 1 2.36.54c.11.04.22.1.32.16l.27.22.22.31c.16.26.14.64.06.89-.06.18-.13.34-.21.48a6.79 6.79 0 0 1-.44.59l-.04.06-1 1.26-.1.12c-.29.36-.58.73-.95 1-.1.07-.19.14-.3.2l-.3.11a2.68 2.68 0 0 1-.34.03.9.9 0 0 1-.36-.07 8.05 8.05 0 0 1-.39-.18l-.35-.14c-.24-.1-.5-.2-.73-.32a3.11 3.11 0 0 1-.61-.41 1.42 1.42 0 0 1-.28-.33 1.71 1.71 0 0 1-.15-.35v-.02a1.06 1.06 0 0 1 0-.45v-.05c.02-.11.03-.22.08-.32.1-.21.21-.44.36-.66l.05-.09.14-.21.21-.32.1-.15.52-.76.23-.33a.84.84 0 0 1 .69-.37l.11.01a1.05 1.05 0 0 1 .16-.17m-6.18 2.98a2 2 0 0 1-.38-.16 5.59 5.59 0 0 0-.16-.09 8.16 8.16 0 0 0-.52-.18l-.16-.05-.16-.05c-.29-.1-.6-.2-.86-.36-.38-.22-.6-.47-.68-.75-.07-.27-.05-.57.07-.94l.25-.8.05-.14a.66.66 0 0 1 .56-.44.93.93 0 0 1 .88-.55c.38.02.77.1 1.15.18l.34.07.17.04c.24.04.49.1.72.17.29.1.61.22.85.5.16.2.24.43.25.7a.83.83 0 0 1-.04.31v.05l-.02.05a6.24 6.24 0 0 1-.65 1.4l-.06.1-.24.38a2.7 2.7 0 0 1-.3.35.67.67 0 0 1-.26.15l-.1.04-.1.03a2.05 2.05 0 0 1-.32.04.91.91 0 0 1-.28-.05m-7.06-6.42c.1 0 .21.01.32.05a16.03 16.03 0 0 1 1.33.49l.08.03c.1.04.22.1.32.17.13.1.25.18.35.3.14.19.22.33.25.54.03.22.03.4-.03.6a2.99 2.99 0 0 1-.07.2 8.67 8.67 0 0 0-.09.23l-.25.73-.1.3-.06.18-.12.36-.03.07-.08.2-.03.09a2.01 2.01 0 0 1-.5.84c-.1.07-.19.15-.3.21a.9.9 0 0 1-.32.15c-.11.03-.23.04-.34.05l-.06-.01-.06-.01h-.02a2.2 2.2 0 0 1-.35-.09l-.22-.07-.27-.1c-.34-.12-.72-.25-1.08-.42a3.73 3.73 0 0 1-.64-.36 1.95 1.95 0 0 1-.44-.4 1.39 1.39 0 0 1-.28-.78c-.02-.34.15-.65.31-.95l.07-.12.25-.46.65-1.22a.71.71 0 0 1 .45-.32.72.72 0 0 1 .43.03c.2-.32.55-.51.93-.51m6.24-4.75-2.63.14h-.11l-.89.04h-.42l-.66.02h-.2l-2.55-.04h-.18a25.7 25.7 0 0 0-2.2.09c-.47.04-.91.1-1.37.16a4.71 4.71 0 0 0-1.2.36l-.05.04-.06.04a3.18 3.18 0 0 0-.33.24 3.08 3.08 0 0 0-.2.18c-.5.48-1.02.95-1.52 1.4l-.08.08-1.16 1.03c-.74.65-1.51 1.32-2.22 2.03-1.92 1.93-3.68 4.08-5.38 6.15l-.49.6-.1.12a75.1 75.1 0 0 1-1.46 1.69l-.27.3c-.6.68-1.23 1.38-1.81 2.1a1.11 1.11 0 0 0-.7-.06 1.16 1.16 0 0 0-.88 1.4l.06.13.05.14c.1.18.23.33.4.44l.3.23.23.16.25.22a16.89 16.89 0 0 0 1.43 1.18c.62.44 1.3.81 1.94 1.15l.84.43c.37.2.76.39 1.13.6l.23.11c.26.14.53.28.8.44.3.18.63.4 1.02.7a43.16 43.16 0 0 0 1.92 1.35c.46.3.94.56 1.4.82a60.74 60.74 0 0 1 2.06 1.22c.87.53 1.76 1.08 2.69 1.54l.58.29c.22.11.46.2.68.3l.11.04.85.33a4.67 4.67 0 0 0 1.27.25 5.43 5.43 0 0 0 3.11-1.1l.58-.44.3-.23.92-.69 1.58-1.13.3-.22a467.01 467.01 0 0 1 2.5-1.8 153.17 153.17 0 0 1 2.24-1.5l1.78-1.21a52.1 52.1 0 0 0 2.04-1.5l.28-.2a70.33 70.33 0 0 0 1.52-1.16 173.04 173.04 0 0 0 3.84-3.13l1.9-1.6c.33-.26.64-.54.95-.8l.7-.6a122.83 122.83 0 0 1 3.58-2.93l.33-.27.6-.46 1.12-.9.94-.77.18-.15c.28-.23.58-.5.95-.89.21-.22.41-.47.6-.7l.03-.02a3.6 3.6 0 0 0 .58-1c.07-.2.08-.42.03-.62a1.27 1.27 0 0 0-.32-.68 1.7 1.7 0 0 0-.83-.46 41.8 41.8 0 0 0-.68-.18c-.52-.13-1.06-.2-1.58-.3h-.06l-1.23-.18c-.45-.06-.91-.12-1.37-.2l-1.07-.23c-.2-.05-.4-.12-.6-.19l-.41-.14c-.74-.22-1.52-.3-2.28-.39l-.2-.02-.73-.08c-.53-.06-1.07-.12-1.6-.2a30.76 30.76 0 0 0-2.17-.18l-.25-.01a42.3 42.3 0 0 1-2.31-.21 36.33 36.33 0 0 1-1.55-.23 73.78 73.78 0 0 0-.8-.12c-.74-.11-1.48-.15-2.3-.17a27.64 27.64 0 0 0-2.26.01"/>
    <path fill="#777" d="m82.35 104.39.08.01-.08-.01m-14.03-2.82a.82.82 0 0 0 .78.84 58.57 58.57 0 0 1 2.88.18c.79.06 1.57.17 2.35.3.74.14 1.48.26 2.23.39.53.1 1.06.23 1.59.35l.87.19.88.16c.9.16 1.81.3 2.72.45l2.4.4 1.17.19 1.23.16c.82.1 1.65.14 2.47.24.24.02.52-.1.7-.26a.96.96 0 0 0 .05-1.35l-.2-.16a.96.96 0 0 0-.47-.15c-.48-.08-.95-.14-1.43-.2a34.46 34.46 0 0 1-1.45-.22l.13.02-1.14-.19a60.05 60.05 0 0 0-1.74-.3l-1.63-.25c-1.05-.18-2.1-.31-3.16-.48-.78-.15-1.57-.31-2.35-.43a60.1 60.1 0 0 0-2.3-.28 39.53 39.53 0 0 0-2.28-.21l-2.51-.14c-.32 0-.63-.02-.95-.03h-.03a.82.82 0 0 0-.81.78m2.75 1.88c-.38 0-.74.2-.93.51a.7.7 0 0 0-.43-.03.71.71 0 0 0-.45.32l-.65 1.22-.25.46-.07.12c-.16.3-.33.61-.31.95.01.28.1.53.28.77.13.18.3.31.44.41.2.14.4.26.64.36.36.17.74.3 1.08.42l.27.1.22.07c.12.04.22.06.35.08h.02l.06.01.05.01a1.51 1.51 0 0 0 .35-.04.89.89 0 0 0 .33-.15 1.89 1.89 0 0 0 .48-.44c.14-.18.23-.4.31-.61l.03-.09.08-.2.03-.07.12-.36.06-.18.1-.3a37.23 37.23 0 0 1 .34-.96 3.21 3.21 0 0 0 .07-.2c.06-.2.06-.38.03-.6-.03-.2-.11-.35-.25-.53a1.62 1.62 0 0 0-.35-.31 1.77 1.77 0 0 0-.32-.17 4.7 4.7 0 0 0-.34-.14 17.47 17.47 0 0 0-1.07-.38 1.06 1.06 0 0 0-.32-.05m5.92 1.91a.93.93 0 0 0-.85.55.66.66 0 0 0-.56.44l-.05.14a78.91 78.91 0 0 0-.25.8c-.12.37-.14.67-.07.94.08.28.3.53.68.75.27.16.57.26.87.36l.15.05.16.05a7.44 7.44 0 0 1 .68.27c.13.07.26.12.38.16a.92.92 0 0 0 .28.04c.12 0 .23-.01.33-.03l.1-.03.09-.04a.67.67 0 0 0 .26-.16c.12-.1.21-.23.3-.34l.24-.38.06-.1c.3-.5.51-.95.65-1.4l.01-.05.01-.05a.82.82 0 0 0 .04-.3 1.08 1.08 0 0 0-.25-.7 1.76 1.76 0 0 0-.85-.51 6.1 6.1 0 0 0-.71-.17l-.18-.04-.34-.07a7.25 7.25 0 0 0-1.15-.18h-.03m-2.12 5.15c-.17 0-.36.05-.51.13-.2.1-.37.28-.46.48a.8.8 0 0 0-.46-.17h-.03a.77.77 0 0 0-.55.22l-.12.14c-.25.29-.5.57-.73.86-.28.33-.58.73-.72 1.2-.18.56.1 1.12.4 1.46.1.1.21.19.33.27l.04.03c.1.07.2.12.3.17l.03.02c.2.1.39.18.58.25a6.42 6.42 0 0 0 1.17.27 1.4 1.4 0 0 0 .76-.1 3.93 3.93 0 0 0 .87-.63c.14-.14.26-.32.37-.47a8.56 8.56 0 0 0 .26-.4c.1-.18.2-.35.33-.51l.14-.19.06-.07.02-.03c.07-.1.18-.3.21-.4.05-.22.1-.4.04-.61a1.93 1.93 0 0 0-.14-.42 2 2 0 0 0-.2-.28l-.03-.05a1.62 1.62 0 0 0-.16-.2 3.63 3.63 0 0 0-.77-.57 6.75 6.75 0 0 0-.73-.35.78.78 0 0 0-.3-.05m5.67 3a.95.95 0 0 0-.64.24.84.84 0 0 0-.84.17l-.97.9a8.9 8.9 0 0 0-.4.4c-.2.2-.34.39-.45.57-.1.16-.19.34-.27.52a.93.93 0 0 0-.06.46l.01.12.01.1.11.28a1.73 1.73 0 0 0 .47.5l.07.06c.14.1.3.18.47.25l.12.06a6.8 6.8 0 0 0 1.96.55c.22 0 .5-.08.7-.21.28-.18.51-.42.72-.76l.58-.97.03-.05a37.15 37.15 0 0 1 .63-1.05l.1-.14c.2-.32.21-.72.04-1.04-.22-.41-.66-.54-1.1-.66l-.07-.02-.12-.04c-.27-.07-.54-.15-.8-.2l-.26-.05h-.04m4.44-6.9a1.07 1.07 0 0 0-.83.46.84.84 0 0 0-.8.36l-.22.33-.52.76-.1.15-.22.32-.14.21-.05.09a5.56 5.56 0 0 0-.36.66c-.04.1-.06.21-.08.32v.05a.97.97 0 0 0 0 .45v.02c.05.12.09.24.15.35.08.12.17.23.28.33a3.1 3.1 0 0 0 .61.41c.24.13.49.22.73.32l.35.14.39.18a.9.9 0 0 0 .36.07 2.8 2.8 0 0 0 .34-.03l.3-.12c.1-.05.2-.12.3-.19.37-.27.66-.64.95-1l.1-.12 1-1.26.04-.06c.15-.19.3-.39.44-.6.08-.13.15-.29.21-.47.08-.25.1-.63-.06-.89a3.24 3.24 0 0 0-.22-.31 6.81 6.81 0 0 0-.27-.23 2.34 2.34 0 0 0-.32-.16 3.48 3.48 0 0 0-.33-.12 11.8 11.8 0 0 0-1.95-.4.7.7 0 0 0-.08-.01"/>
    <path fill="#E4E4E4" d="M38.27 110.86a8.75 8.75 0 0 1-1.35-.15l-.6-.12-.21-.04a3.53 3.53 0 0 1-.72-.17 6.73 6.73 0 0 1-1.27-.67 6.49 6.49 0 0 1-1.03-.87 6.5 6.5 0 0 1-.81-1.08 4.04 4.04 0 0 1-.36-.67v-.01a6.22 6.22 0 0 1-.28-.81 4.21 4.21 0 0 1-.04-1.66l.01-.1c.05-.32.1-.64.19-.96.08-.3.2-.56.35-.75.18-.24.38-.46.57-.68.39-.44.8-.87 1.2-1.3a1.14 1.14 0 0 1 .35-1.02l.02-.02.13-.14a3.6 3.6 0 0 1 1.37-.78 3.74 3.74 0 0 1 .9-.1l.36.01a6 6 0 0 1 2.34.8c.76.44 1.38.97 1.85 1.57a12.3 12.3 0 0 1 1.3 2.02c.33.63.72 1.47.96 2.37.05.21.09.4.11.6v.07c.03.15.05.33.03.49a5.76 5.76 0 0 1-.26 1.13 3.1 3.1 0 0 1-.87 1.48 6.65 6.65 0 0 1-.47.37 5.4 5.4 0 0 1-2.42 1.07c-.45.08-.86.12-1.25.12h-.1M4.34 76.04a91.89 91.89 0 0 0-3.28.1c-.32 0-.53.08-.7.25a.99.99 0 0 0-.07 1.4c.1.1.22.18.35.24l.09.47a164.64 164.64 0 0 1 1.08 6.87l.22 1.51.12.84c.1.62.18 1.24.27 1.87l.08.53.12.88.23 1.58.23 1.43.15.92.4 2.4.41 2.29.22 1.12.03.14.2.89c.3 1.4.63 2.81.94 4.18l.12.53A71.9 71.9 0 0 0 6.8 111l.3 1.03.32 1.08a40.44 40.44 0 0 0 1.17 3.35l.14.37a131.57 131.57 0 0 0 .84 2.23l.22.57.02.05.05.14c.23.65.43 1.32.62 1.96l.04.1c.22.73.51 1.42.9 2.23l.27.62a16.15 16.15 0 0 0 1.62 2.89l.03.04.26.37a1 1 0 0 0 .73.32c.17 0 .33-.04.47-.12a1 1 0 0 0 .36-.32 40.13 40.13 0 0 0 2.25.32l1.07.08h.13c.74.06 1.5.1 2.23.15l.24.01c.65.04 1.31.08 1.97.08h1a38.76 38.76 0 0 1 4.81.27l.78.12.44.08a32.41 32.41 0 0 0 2.24.24l.13.02c.9.07 1.8.12 2.69.16l.6.04H36c.43.03.87.05 1.3.1l1.44.23.57.12c.5.1 1.02.2 1.53.27a15.78 15.78 0 0 0 2.14.18c.65 0 1.28-.07 1.93-.14l.37-.04 1.38-.14a29.26 29.26 0 0 1 2.3-.04h.72l.4-.01h.07c.31 0 .63.02.95.05.44.03.9.09 1.32.14.35.03.7.08 1.05.1l1.87.2.5.06c.7.07 1.42.11 2.1.15l.25.02.26.01c.66.04 1.34.08 2 .1h1.26l1.13.02.7.01a49.78 49.78 0 0 0 1.69.01 25.89 25.89 0 0 0 2.46-.15 15.45 15.45 0 0 0 2.19-.44c.71-.19 1.47-.41 2.21-.73a8.41 8.41 0 0 0 .93-.46c.23-.13.43-.25.63-.4.2-.13.37-.3.53-.5.12-.15.2-.33.28-.5l.03-.06c.04-.09.06-.18.08-.27l.05-.19.07-.12.04-.02a1.36 1.36 0 0 0 .54-.47.82.82 0 0 0 .12-.24c.12-.39.04-.78-.04-1.16a6.87 6.87 0 0 1-.05-.28l-.03-.18a4.46 4.46 0 0 0-.15-.65l-.03-.13c-.18-.64-.3-1.3-.4-1.94l-.03-.11a26.5 26.5 0 0 0-.45-2.12 95.06 95.06 0 0 0-.58-2.13c-.2-.7-.34-1.43-.48-2.13-.14-.74-.3-1.5-.5-2.23-.4-1.31-.85-2.63-1.3-3.9l-.24-.71a55.68 55.68 0 0 1-1.32-4.37 65.83 65.83 0 0 1-1.18-5.41 64.98 64.98 0 0 0-.3-1.63l-.5-2.5-.23-1.31-.16-.95a52 52 0 0 0-.47-2.3 129.53 129.53 0 0 1-.78-3.57 84.9 84.9 0 0 1-.65-3.68c.07-.1.13-.2.16-.32a1.16 1.16 0 0 0-.08-.9 1.19 1.19 0 0 0-.67-.55 9.15 9.15 0 0 0-1.04-.3l-.41-.11-.63-.16a21.6 21.6 0 0 0-2.45-.5 18.23 18.23 0 0 0-2.2-.2l-.14-.01a59.58 59.58 0 0 0-1.76-.04h-.35a31.11 31.11 0 0 0-1.48.06l-.69.03h-.33l-.61.02h-.12l-.75-.03-.33-.02a273.6 273.6 0 0 0-4.44-.17 43.39 43.39 0 0 0-1.19-.01 20.4 20.4 0 0 0-2.77.17l-.59.07-1.36.06h-.16c-.47 0-.93-.02-1.4-.07-.43-.04-.87-.1-1.28-.16l-.22-.03-.37-.05a42.04 42.04 0 0 1-1-.14 39.82 39.82 0 0 0-.76-.14l-.2-.04c-1.48-.27-3-.54-4.52-.63l-.56-.03c-.55-.03-1.12-.06-1.68-.12a31.12 31.12 0 0 1-2.35-.29l-.4-.07-.33-.05c-1.06-.2-2.04-.39-3-.55a37.54 37.54 0 0 1-2.53-.57c-.23-.06-.47-.13-.71-.18a33.54 33.54 0 0 0-2.59-.44 15.1 15.1 0 0 0-.78-.08 28.4 28.4 0 0 0-2.1-.1l-.65-.02-.77-.03-3.8-.11-.9-.03c-1.1-.03-2.24-.06-3.36-.06h-.52"/>
    <path fill="#FFF" d="M36.68 98.75c-.3 0-.6.04-.89.11a3.6 3.6 0 0 0-1.37.78 1.28 1.28 0 0 0-.13.14l-.01.02a1.15 1.15 0 0 0-.36 1.03 46.72 46.72 0 0 0-1.77 1.97c-.15.2-.27.45-.35.76-.08.3-.13.63-.18.95l-.02.1a4.21 4.21 0 0 0 .04 1.66c.07.27.18.54.28.8v.02a6.5 6.5 0 0 0 2.2 2.62c.37.25.81.48 1.27.67.23.09.48.13.72.18l.2.03.6.12a8.68 8.68 0 0 0 1.47.15 6.83 6.83 0 0 0 2.52-.52c.42-.16.79-.42 1.14-.67a3.11 3.11 0 0 0 1.35-1.84 5.67 5.67 0 0 0 .25-1.14c.02-.16 0-.34-.02-.5v-.06a4.38 4.38 0 0 0-.12-.6c-.24-.9-.63-1.74-.95-2.37a12.31 12.31 0 0 0-1.31-2.03 6.45 6.45 0 0 0-1.85-1.56 5.98 5.98 0 0 0-2.34-.8 3.32 3.32 0 0 0-.37-.02"/>
    <path fill="#FFB671" d="m80.1 65.5.3-.03a.93.93 0 0 1 .4.08l.2.1c.11.06.22.15.32.25.18.22.32.45.42.71.1.27.2.57.12.87a1.33 1.33 0 0 1-.23.44l-.02.03c-.05.06-.1.13-.16.18a.75.75 0 0 1-.21.15l-.03.01a1.5 1.5 0 0 1-.52.12 2.1 2.1 0 0 1-.47-.03 2.27 2.27 0 0 1-.5-.16 1.19 1.19 0 0 1-.46-.3 1 1 0 0 1-.24-.46 1.14 1.14 0 0 1 .04-.53c.04-.13.1-.24.14-.34l.03-.05.06-.12.45-.76a.27.27 0 0 1 .26-.13.28.28 0 0 1 .1-.03zm4.6-.24a3.97 3.97 0 0 1-1-.9l-.05-.09c-.16-.2-.3-.4-.4-.65l-.02-.07a2.06 2.06 0 0 1-.15-.44 8.39 8.39 0 0 1-.06-.57c-.05-.65.06-1.32.2-1.95l.04-.2a16.6 16.6 0 0 1 .48-1.78c.13-.3.27-.6.45-.9a1.5 1.5 0 0 1 .8-1.26c.36-.18.68-.28.97-.31a2.19 2.19 0 0 1 .56-.03l.56.1a2.91 2.91 0 0 1 1.65 1.3c.3.52.55 1.1.7 1.72.16.6.21 1.22.24 1.7a7.73 7.73 0 0 1-.04 1.37 5.16 5.16 0 0 1-.2 1 5.23 5.23 0 0 1-.46 1c-.17.28-.37.6-.65.8l-.12.1c-.13.09-.26.2-.41.26a4.17 4.17 0 0 1-.52.2 3.4 3.4 0 0 1-.89.12h-.05a2.88 2.88 0 0 1-1.63-.52zm60.47-13.53v-.03c-.03-1.8-.06-3.68.07-5.5l.02-.35.01-.11.07-.94.18-1.73c.06-.61.15-1.25.22-1.8l.12-.85.38-2.13.09-.46.08-.4.4-2 .17-.84v-.06l.02-.06v-.03a85.64 85.64 0 0 0 .62-3.26l.1-.55.02-.14.02-.11c.25-1.4.51-2.89.79-4.34.44-2.32.88-4.7 1.34-7.27l-.01.08-.05.42-.04.45a138.76 138.76 0 0 1-.7 6.12 245.61 245.61 0 0 1-.96 6.27l-.27 1.6v.02l-.01.03v.05l-.03.16a214.27 214.27 0 0 0-.66 4.12l-.33 2.4a50.66 50.66 0 0 1-.1.75l-.02.12-.01.11-.02.1v.06l-.16 1.18v.05c-.17 1.36-.35 2.9-.6 4.39-.05.32-.12.64-.2.96v.02l-.07.34c-.11.56-.2 1.13-.28 1.64v.02l-.01.02v.02l-.02.1a24.16 24.16 0 0 0-.17 1.37v-.01zM152.33.02c-.27 0-.53.1-.73.28l-.09.1-.08.1c-.13.2-.2.45-.24.67l-.01.04-.04.15-.16.67-.37 1.65-.1.5-.06.25-.02.08-.03.15-.43 1.91-.66 2.77-.08.31-.8 3.31-.22.95-.01.04a60.51 60.51 0 0 0-.4 1.68 420.34 420.34 0 0 0-.71 3.42l-.38 1.77-.01.04-.02.1a169.6 169.6 0 0 0-.57 2.64l-.13.6-.21 1-.44 2.19-.07.38-.13.65-.4 2.1-.19 1a86.97 86.97 0 0 1-.42 2v.04l-.01.04-.02.09-.03.13-.15.69-.32 1.55-.05.25-.02.1-.03.1-.05.24-.13.64c-.08.39-.15.77-.2 1.12l-.11.59-.05.23c-.07.39-.16.85-.22 1.3l-.12.86-.14 1.04v.04c-.06.38-.1.8-.12 1.02l-.05.49a53.3 53.3 0 0 0-.25 6v.6a4.82 4.82 0 0 0-.21-.06c-.84-.2-1.74-.33-2.53-.43a17.1 17.1 0 0 0-2.05-.1h-.9c-.67.01-1.35.04-2.01.07h-.25l-.9.04c-1.07.04-2.15.06-3.11.07-1.17.01-2.3.13-3.37.26l-.22.02-.13.02h-.07a18.87 18.87 0 0 0-1.45.22c.1.1.18.21.24.36l.02.04.1.26a3.18 3.18 0 0 1 .04 1.1v.13c-.03.4-.04.8-.05 1.2v.08l-.01.42-.02.78c0 .9.02 1.75.1 2.56l.01.22.04.43.02.2.02.4v.2c.01.13.02.28.01.42v.01l-.02.41a4.98 4.98 0 0 1-.01.25v.03a.9.9 0 0 1-.04.21 3.78 3.78 0 0 1-.1.23c-.04.09-.15.16-.24.19a.43.43 0 0 1-.12.01.36.36 0 0 1-.2-.06 2.42 2.42 0 0 1-.14-.1.52.52 0 0 1-.09-.13 1.2 1.2 0 0 1-.1-.24 16.5 16.5 0 0 1-.13-.48 30.47 30.47 0 0 1-.18-.68 16.22 16.22 0 0 0-.2-.73 9.78 9.78 0 0 0-.22-.65 14.56 14.56 0 0 0-.56-1.13l-.59-1.1-.18-.37a26.96 26.96 0 0 0-.41-.81l-.35-.64-.19-.31a38.95 38.95 0 0 0-.73-1.13.45.45 0 0 1-.24-.53v-.02c-.81.2-1.61.44-2.48.7l-.38.11-.41.12-1.7.51a.59.59 0 0 1 .13.02.48.48 0 0 1 .29.24c.13.25.2.52.26.79l.11.47.05.2.27 1.24.1.56.12.6.28 1.28a66.06 66.06 0 0 1 .58 3.02l.1.58.01.1.1.51c.04.19.09.39.16.58.06.16-.04.34-.17.41a.36.36 0 0 1-.18.05.36.36 0 0 1-.26-.1 3.82 3.82 0 0 1-.28-.35l-.08-.1-.16-.22-.04-.05-.42-.6-.05-.06a54.88 54.88 0 0 0-.85-1.18l-.1-.13-.3-.37a58.06 58.06 0 0 1-.84-1.1c-.24-.3-.46-.63-.67-.94l-.01-.02-.5-.7-.2-.28a17.92 17.92 0 0 1-.33-.49l-.06-.1-.23-.33a3.26 3.26 0 0 0-.47-.45 25.9 25.9 0 0 1-.34-.26 2.25 2.25 0 0 0-.38-.23 1.04 1.04 0 0 0-.15-.04.69.69 0 0 1-.13.01.42.42 0 0 1-.21-.06.44.44 0 0 1-.18-.19.33.33 0 0 1-.13-.18.3.3 0 0 1 0-.17 30.12 30.12 0 0 0-1.38.69c-.4.2-.79.43-1.26.7l-.18.1-.02.02-.02.01-.03.02c-.28.16-.58.33-.87.52a.74.74 0 0 1 .18.08l.03.02a.7.7 0 0 1 .15.12l.02.02c.04.05.09.1.12.16.06.09.1.19.14.3.1.3.15.64.2.97l.01.1c.06.4.1.82.15 1.22.04.33.07.67.12 1v.05c.05.27.1.55.18.81.04.16.08.33.14.5l.1.31.03.08.04.1a55.3 55.3 0 0 0 .58 1.73l.31 1 .03.1.1.3.21.74.02.06c.02.12.06.24.07.37.07.4-.01.65-.24.78a.46.46 0 0 1-.47 0 .85.85 0 0 1-.19-.19l-.14-.17a4.94 4.94 0 0 1-.33-.47 5.34 5.34 0 0 0-.27-.4 15.3 15.3 0 0 0-.35-.41l-.15-.17-.09-.11-.4-.46-.08-.08-.45-.5-.13-.14-.42-.46a11.95 11.95 0 0 0-.8-.72l-.02-.03a31.4 31.4 0 0 0-.9-.75 192.1 192.1 0 0 0-2.2-1.73.23.23 0 0 1-.07-.13.4.4 0 0 1-.46-.2l-.14.1-.65.5-.05.03-1.55 1.17.11-.06.2-.13a8.45 8.45 0 0 1 .38-.23c.13-.07.32-.16.52-.16.1 0 .18.02.26.06.23.11.3.35.33.55l.05.46.03.24c.1.66.26 1.32.42 1.96l.05.18c.1.38.16.74.23 1.15l.2 1.15c.18.91.4 1.82.6 2.67.1.39.18.78.27 1.18l.05.22.06.25c.06.22.12.46.15.69l.01.09a2.24 2.24 0 0 1 .01.67l-.04.1a.44.44 0 0 1-.18.21.54.54 0 0 1-.25.07.59.59 0 0 1-.26-.06.84.84 0 0 1-.22-.16l-.02-.02c-.34-.3-.55-.7-.77-1.09l-.02-.03-.19-.36c-.14-.28-.3-.56-.46-.83l-.16-.26c-.17-.3-.35-.6-.56-.9a29.48 29.48 0 0 0-.74-.99l-.14-.17-.58-.72-.1-.13a7.75 7.75 0 0 0-.29-.32l-.12-.14a7.2 7.2 0 0 0-.28-.3l-.5-.5-.3-.29-.15-.13a27.66 27.66 0 0 0-.97-.84.42.42 0 0 1-.08-.5 44.97 44.97 0 0 0-.43-2.14 39.52 39.52 0 0 0-.35-1.43v-.03l-.02-.06a50.5 50.5 0 0 1-.34-1.36c-.08-.36-.16-.74-.22-1.13a3.09 3.09 0 0 1 0-.28l.14-.4.28-.5a4 4 0 0 1 .39-.54 125.28 125.28 0 0 1 2.94-3.26l.06-.07.6-.64a54.87 54.87 0 0 1 1.36-1.41l.03-.03.8-.81a66.15 66.15 0 0 1 2.23-2.19l1.66-1.56.24-.24.42-.39.09-.07.1-.1c.3-.28.77-.7 1.2-1.13a246.07 246.07 0 0 0 2.82-2.85l.11-.11a14.4 14.4 0 0 0 1.17-1.3c.1-.13.19-.25.26-.39l.08-.18.08-.17a3.77 3.77 0 0 0 .1-.57 1.5 1.5 0 0 0-.19-.78c-.16-.3-.5-.65-.88-.73l-.09-.02c-.18-.04-.38-.09-.56-.09a1.01 1.01 0 0 0-.3.05c-.22.06-.44.14-.64.23a10.26 10.26 0 0 1-.2.09h-.03l-.12.06-.74.31-.85.37-.07.03-.52.22c-.86.37-1.75.73-2.47 1.02l-.12.05-.45.18c-1.13.46-2.33.91-3.13 1.22l-.08.03-.08.03-.09.03-2.19.85-.54.2-1.2.48a17.41 17.41 0 0 0-.87.37l-.44.2-.8.34-.83.36c-.5.21-.99.47-1.47.7l-.21.12a26.39 26.39 0 0 0-2.07 1.17c-.66.41-1.27.86-1.87 1.29l-.02.02-.03.01-.23.18c-.37.26-.7.52-1.18.9l-.59.48-.05.04-.02.02a48.44 48.44 0 0 1-.97.78l.02-.21.02-.3.04-.98.12-3.02.02-.4v-.04c.08-1.91.16-3.9.07-5.83a37.02 37.02 0 0 0-.07-.99V39l-.03-.4-.04-.52v-.1l-.06-.8-.07-.73c-.06-.8-.14-1.77-.26-2.7l-.04-.34c-.07-.53-.14-1.13-.24-1.71a11.2 11.2 0 0 0-.2-.95 3.79 3.79 0 0 0-.39-.98c-.17-.3-.35-.46-.62-.68a1.83 1.83 0 0 0-.57-.3 1.45 1.45 0 0 0-.5-.07c-.13 0-.28.02-.41.05a2.1 2.1 0 0 0-.87.46c-.47.44-.78 1-1.02 1.49-.26.51-.48 1.06-.7 1.74-.28.82-.52 1.68-.73 2.44l-.02.06-.13.46-.37 1.38-.06.22-.05.18-.24.96-.2.9a40.4 40.4 0 0 0-.46 2.05l-.4 2.15-.34 1.76a88.98 88.98 0 0 0-.58 3.57l-.05.27-.03.23-.13.86-.05.33-.05.33c-.04.22-.05.44-.07.7v.1l-.03.24-.18 2.03c-.5.06-1.02.49-1 1.08.02 1.05.02 2.1.02 3.12v.5l.2-.6.31-.9a1.22 1.22 0 0 1 .24-.4 1.41 1.41 0 0 1 .75-1.14 6.59 6.59 0 0 1 .86-.3c.24-.07.47-.1.7-.1h.03c.35 0 .6.05.8.13l.07.03c.24.1.5.2.7.36l.05.04c.13.1.26.2.4.33l.24.24a4.16 4.16 0 0 1 .85 1.45c.16.42.25.96.26 1.55 0 .3 0 .6-.04.91l-.01.12a9.69 9.69 0 0 1-.18 1.2 5.02 5.02 0 0 1-.32.92v.02c-.16.35-.32.7-.51 1.04a5 5 0 0 1-1.57 1.8c-.3.2-.62.32-.96.4a3.29 3.29 0 0 1-1.22-.06 4.58 4.58 0 0 1-1.12-.44 2.97 2.97 0 0 1-.22-.13 72.73 72.73 0 0 1 .2 3.65l.02.95v.04a9.04 9.04 0 0 1-.02.91 3.03 3.03 0 0 1-.17.24l-.17.2-.04.05-.05.05c-.27.32-.65.75-.97 1.16A19.04 19.04 0 0 0 71 73.7l-.42.65-.07.12-.53.82c-.26.4-.58.8-.88 1.16-.7.8-1.5 1.55-2.25 2.26l-.02.02-.02.02-.02.01-.52.5a98.81 98.81 0 0 0-1.23 1.2v.05c.07.28.14.56.19.84.11.63.21 1.27.3 1.9.1.65.14 1.3.22 1.93l.18 1.32c.09.55.2 1.1.33 1.65.1.47.24.93.4 1.39l.08.28a61.58 61.58 0 0 0 1.48-1.14l.67-.53.12-.1.13-.1.02-.01.01-.02c.66-.52 1.35-1.06 1.99-1.62l.62-.57.03-.02.04-.05.02-.01.65-.6a43.71 43.71 0 0 1 1.49-1.25l.05-.04.02-.01.05-.05a36.2 36.2 0 0 1 1.45-1.1l.03-.03c.24-.17.45-.35.64-.5l.02-.02.03-.02.04-.03.04-.03.5-.4a7.46 7.46 0 0 1 1.15-.64l.23-.05.22.01c.23.05.45.13.66.2h.03a10.03 10.03 0 0 0 2.89.56 52.8 52.8 0 0 0 1.85.14l-.2.2-.96 1-.07.07-.04.04-.08.08-.07.08-.04.04-1.03 1.08-.32.36c-.85.92-1.72 1.87-2.5 2.87a24.84 24.84 0 0 0-1.18 1.66l-.12.19a26.72 26.72 0 0 1-1.59 2.28l-.03.04-.03.03-.04.07-.42.54a13.76 13.76 0 0 0-1.4 2.4v.02l-.02.03-.01.03-.02.03c-.35.7-.8 1.36-1.16 1.85l-.36.49-.04.05-.07.1-.33.45a7.6 7.6 0 0 0-.74 1.4l-.4 1.05-.12.32a2.79 2.79 0 0 0-.2.89c-.02.31.08.7.25.96.13.23.3.42.53.57.17.12.37.2.54.26.15.05.33.08.51.08s.4-.03.6-.08c.29-.07.57-.22.79-.33a1.28 1.28 0 0 0 .34.86c.26.28.65.45 1.03.45a2.42 2.42 0 0 0 .81-.21l.4-.27a.44.44 0 0 0 .01.06c.09.17.2.32.32.48l.34.3.4.17c.12.04.26.07.4.07a1.72 1.72 0 0 0 1.1-.41l.12-.14.22-.25c.15-.19.27-.42.36-.58l.03-.06.06-.1c.3-.54.56-1.12.8-1.68l.04-.09.35-.77a15.72 15.72 0 0 0 1.34-3.7v-.03c.17-.74.33-1.49.63-2.18a13.53 13.53 0 0 1 2.14-2.94 4.91 4.91 0 0 1 1.5-1.05c.28-.14.58-.27.82-.37l.03-.01.16-.06a64 64 0 0 1 1.8-.71 23.79 23.79 0 0 0 1.87-.75 29.09 29.09 0 0 0 1.32-.66h.03l.02-.02.33-.17c1-.52 2.04-1.03 2.95-1.48l.1-.04.15-.08.1-.05a78.03 78.03 0 0 1 3.73-1.73l.37-.15.09-.03.03-.02.09-.03a11.92 11.92 0 0 0 1.1-.48l.85-.44.09-.05.1-.05.82-.43a30.21 30.21 0 0 1 1.7-.78l.05-.02.05-.01c.44-.2.88-.38 1.3-.58a76.43 76.43 0 0 0 3.34-1.67l.75-.4 1.09-.57 1.04-.6.1-.07.6-.35.2-.12.55-.2a52.86 52.86 0 0 0 2.71-1.13l.87-.39.06-.03a133.66 133.66 0 0 1 2.47-1.1l.06-.02.1-.04.05-.03 1.72-.73.26-.1.1-.05.06-.02 1.02-.41.4-.15.19-.07.18-.06.13-.05.06-.02.12-.05.1-.04 1.67-.61.8-.34.03-.01a41 41 0 0 1 .48-.21c.3-.12.61-.26.9-.4l.1-.04.12-.05.06-.03h.03l.1-.05.37-.17.23-.1.72-.32c.32-.15.66-.33.95-.49l.06-.03c.64-.08 1.28-.14 1.93-.2a37.04 37.04 0 0 1 2.56-.06h2.54a41.72 41.72 0 0 1 2.5.1h.1l.35.03c.74.05 1.47.1 2.16.18.64.06 1.3.09 1.88.11l.15.01.62.03h.12c.94.04 2.23.1 3.42.2a45.79 45.79 0 0 1 4.1.45h.06c.5.1 1.12.21 1.71.36a113 113 0 0 1 1.24.3l.82.22c.97.24 1.94.44 2.88.64l.06.01.08.02h.02l.31.07a84.27 84.27 0 0 1 4.25 1h.03l.06.02.26.06 1.19.3.1.02.12.03.15.04.25.06c.5.12.98.25 1.48.4h.03l.04.01.36.1 1.64.48.1.02.03.01.11.03.08.03h.03l.2.06a82.05 82.05 0 0 0 1.47.44l.04.02h.03a10.1 10.1 0 0 0 1.94.46 2.83 2.83 0 0 0 .62.01h.14a2.51 2.51 0 0 0 .58-.08c.3-.07.53-.24.77-.42l.1-.07c.2-.16.36-.43.44-.74h.15l.1-.01h.03c.46-.04.94-.08 1.41-.17a1.8 1.8 0 0 0 1.1-.74 1.7 1.7 0 0 0 .24-1.1l.03.01c.47-.04.93-.08 1.37-.15a6.32 6.32 0 0 0 1.35-.38c.12-.05.26-.1.4-.19.13-.07.26-.16.4-.27l.3-.35a1.52 1.52 0 0 0 .06-1.56c-.37-.78-1.2-.94-1.88-1a.71.71 0 0 0-.02-.2 1.56 1.56 0 0 0-.37-.7c-.23-.25-.64-.5-1.02-.5a2.88 2.88 0 0 0-.85.15 9.92 9.92 0 0 0-.5.18l-.04.01-.37.14c-.29.1-.58.2-.86.32-.33.12-.66.26-.95.38l-.05.02-.04.02-.06.03-.36.14h-.03c-.28.12-.6.24-.88.42a1.54 1.54 0 0 0-.63.6h-.1l-.2-.03h-.07l-.12-.01a14.63 14.63 0 0 1-.78-.1l-1.18-.3a7.2 7.2 0 0 1-.83-.35l-.43-.22a22.45 22.45 0 0 0-1.4-.65c-.5-.2-1.02-.37-1.48-.52l-.32-.1a38.6 38.6 0 0 1-1.8-.6l-.26-.1-.18-.07h-.02c-.36-.14-.84-.33-1.32-.48-.74-.25-1.52-.47-2.14-.64l-.03-.01-.1-.03a92.76 92.76 0 0 1-2.02-.59c-1.01-.3-2.05-.62-3.12-.85l-.66-.14h-.05l-.02-.01h-.03c-.76-.17-1.56-.33-2.32-.54-.98-.26-1.9-.58-3-.98a44.03 44.03 0 0 0-2.64-.86l.25-.06a42.71 42.71 0 0 0 1.16-.29l.45-.11.03-.01h.02l.03-.01c1.15-.3 2.33-.61 3.51-.83l.59-.11c.46-.09.93-.17 1.36-.28l.3-.08.31-.07.31-.08.25-.06.23-.05.15-.04.15-.04a157.45 157.45 0 0 0 5.23-1.38l.06-.02.07-.02h.02a102 102 0 0 1 2.04-.56 74.76 74.76 0 0 0 2.13-.42 24.8 24.8 0 0 1 2.24-.35 31.67 31.67 0 0 1 6.7.3c.26.05.52.1.77.17h.02l.06.01.07.02.85.2h.07c.45.1.9.2 1.35.21h.22a7.75 7.75 0 0 0 1.14-.09 9.48 9.48 0 0 0 .86-.17c.57-.15 1.27-.55 1.47-1.22.09-.27.11-.5.1-.7.48-.16.86-.42 1.13-.78a1.36 1.36 0 0 0 .24-.44 1.7 1.7 0 0 0 0-.9c-.12-.52-.52-.92-1.12-1.14a4.09 4.09 0 0 0-.54-.15l.06-.09c.12-.22.24-.5.26-.82a1.8 1.8 0 0 0-.06-.44 1.38 1.38 0 0 0-.32-.6 1.13 1.13 0 0 0-.46-.37 1.17 1.17 0 0 0 0-.54c-.12-.5-.52-.93-.97-1.05a1.84 1.84 0 0 0-.48-.06 1.4 1.4 0 0 0-.71.19c-.33.18-.53.44-.75.72-.14.17-.27.36-.4.54l-.08.1c-.32.43-.6.8-.88 1.14a18.2 18.2 0 0 1-.86.94 7.98 7.98 0 0 0-.16.16l-.05.06-.03.03-.02.02c-.1.1-.2.22-.32.32l-.09.01h-.06l-.06.01-.07.01a4.22 4.22 0 0 0-.53.1l-.07.02-.07.02-.08.01-.18.05a42.18 42.18 0 0 0-2.04-.36l-.47-.06-.12-.02a30.28 30.28 0 0 1-1.31-.2h-.07l-1.02-.16-.66-.1-.37-.05h-.08l-.09-.02h-.07c-.54-.09-1.1-.16-1.64-.23-.59-.07-1.2-.1-1.98-.1h-.92c-.67.01-1.34.03-1.98.06h-.3l-.82.03c-1.33.03-2.36.1-3.33.2a85.89 85.89 0 0 0-3.27.44l-1.18.2h-.1c-.7.13-1.66.3-2.57.4h-.15l-.14.01h-.08l-.02.01a15.12 15.12 0 0 0-.6.05c-.32.04-.65.12-.89.18l-1.47.34a.14.14 0 0 0 .02-.07v-.04a49.7 49.7 0 0 0 .1-1.1v-.01a27.42 27.42 0 0 1 .36-2.99l.02-.1v-.02l.01-.05a34.77 34.77 0 0 0 .44-2.68l.01-.06.01-.08.02-.18c.09-.71.15-1.46.2-2.06v-.05l.07-.78.12-1.42.16-1.77c.07-.86.16-1.8.3-2.94l.08-.8.02-.18.03-.28.02-.1.2-1.85.32-2.32v-.02l.11-.79a234.32 234.32 0 0 0 1.13-9.38c.08-.85.18-1.84.23-2.8.08-1.5.12-2.98.16-4.42v-.08l.01-.38.05-1.58.04-.97v-.13l.02-.43v-.03l.05-.9.15-1.67.1-.85.01-.06.01-.06.06-.46.08-.68.02-.12.01-.12.2-1.55.08-.78V3.4l.01-.04c.05-.46.1-.94.17-1.42l.03-.12.08-.47.01-.03a.97.97 0 0 0 0-.48c-.15-.49-.53-.8-1-.82h-.04z"/>
    <path fill="#FFB671" d="M111.48 54.65h.03l.16-.06a7.97 7.97 0 0 0 .71-.25l.56-.25.11-.05c-.54.2-1.06.4-1.56.61m38.04-43.03.2-.69c-.04.37-.1.74-.16 1.1l-.23 1.23c-.1.5-.23 1-.34 1.5l-.22 1a1.31 1.31 0 0 0-.41.01c.36-1.39.76-2.77 1.16-4.15M151.3.1c-.15.02-.47.2-.57.3-.12.15-.25.29-.35.45-.11.18-.2.4-.28.59-.19.4-.3.85-.44 1.27l-.44 1.42a111.07 111.07 0 0 0-.86 2.91c-.26.95-.5 1.91-.8 2.85-.6 1.94-1.22 3.88-1.74 5.84a117 117 0 0 0-1.38 6.17c-.4 2-.83 3.98-1.2 5.98-.2 1.1-.41 2.2-.57 3.3a114.83 114.83 0 0 0-.38 3.13l-.35 3.19-.31 2.96-.36 3.18c-.12 1-.24 2-.31 3l-.22 2.85a115.44 115.44 0 0 0-.24 3.01 120.92 120.92 0 0 0-.2 4.21l-.02.72c0 .49 0 1.03.26 1.47.27.47.77.7 1.31.6l.02-.01c.2-.05.37-.14.52-.28.2-.18.4-.51.37-.8.04-.3.04-.59.06-.88l.04-.74.09-1.51c.06-1.06.12-2.12.2-3.18l.27-3c.1-1.04.15-2.08.24-3.12.09-.98.22-1.95.32-2.93.1-1.05.24-2.1.34-3.16a404.93 404.93 0 0 1 .9-8.34c.1-.68.2-1.36.32-2.03.26-1.41.52-2.82.8-4.23l-.12 1.68a61.9 61.9 0 0 1-.3 3.05 140.95 140.95 0 0 1-.9 5.97 32.88 32.88 0 0 0-.33 2.92l-.2 3.1c-.05 1.08-.09 2.15-.16 3.22a28.45 28.45 0 0 1-.33 2.8 35.04 35.04 0 0 0-.26 1.5l-.2 1.4c-.07.42-.12.86-.16 1.3a13.13 13.13 0 0 0-.09 1.59c0 .26.05.5.17.74a1.46 1.46 0 0 0 1.97.6c.35-.18.57-.48.7-.84.1-.24.13-.49.17-.74.34-1.8.7-3.6 1.02-5.41l.5-2.76c.18-.95.34-1.9.5-2.85l1.25-6.26c.2-.94.37-1.89.56-2.83.1-.56.24-1.11.32-1.67l.21-1.53c.1-.77.21-1.53.29-2.3.08-.74.16-1.49.18-2.23a11.4 11.4 0 0 0-.2-2.44 30.77 30.77 0 0 1-.3-2.11 12.65 12.65 0 0 1-.05-.94 6.41 6.41 0 0 1 .07-.95l.13-.5c.13-.25.18-.47.22-.77l.05-.39c.02-.23.06-.46.1-.68l.15-.94.26-1.27c.12-.57.21-1.14.31-1.71.18-1 .32-2.01.4-3.03.13-2.01.18-4.03.26-6.04.02-.5.03-.99.1-1.48l.1-.7a2.45 2.45 0 0 0 .04-.47c-.01-.53-.3-1.03-.83-1.2a1 1 0 0 0-.31-.05l-.33.03M74.78 51.9l-1.52.65a4.24 4.24 0 0 0-1 .64c-.21.18-.38.4-.54.62-.08.1-.15.22-.22.33a10.4 10.4 0 0 0-1.29 2.75 26.12 26.12 0 0 0-1.24 6.15l-.12 1.59c-.03.46-.07.93-.08 1.4-.02.5-.04.99-.02 1.48a6.75 6.75 0 0 0 .23 1.73c.46 1.9 1.15 3.76 2.14 5.46.23.4.5.8.81 1.14.17.18.37.34.56.49.4.3.83.48 1.33.36.39-.1.76-.4.86-.8.05-.15.08-.31.08-.48a7.71 7.71 0 0 0-.06-.65 7.38 7.38 0 0 0-.23-1.2 42.41 42.41 0 0 1-.4-1.6c-.14-.57-.27-1.13-.38-1.7a18.33 18.33 0 0 1-.19-1.42c-.02-.41-.04-.82-.03-1.23 0-.53.02-1.06.04-1.59a36.7 36.7 0 0 1 .05-1.04 3.18 3.18 0 0 1-.34-.22 2.58 2.58 0 0 1-.5-.45l-.03-.05c-.15-.2-.31-.4-.4-.63a3.38 3.38 0 0 1-.27-.9 2.87 2.87 0 0 1 0-.78l.12-.59.02-.07.08-.32.16-.6.04-.14c.24-.82.52-1.65.8-2.44l.3-.9c.06-.16.14-.3.24-.42a1.41 1.41 0 0 1 .7-1.1 1.05 1.05 0 0 0-.7-.34l.03-.04.16-.15c.25-.16.52-.28.79-.4l1.12-.47c.27-.11.48-.4.57-.67a1.17 1.17 0 0 0-1.1-1.53c-.2 0-.38.06-.58.14"/>
    <path fill="#FFB671" d="M73.67 66a.86.86 0 0 0-.27.39c-.11.29-.17.6-.16.92 0 .2.02.39.03.58l.05.52a88.99 88.99 0 0 0-.12 1.16 7.81 7.81 0 0 0 0 1.74c.02.18.17.36.32.46a.8.8 0 0 0 .57.1c.26-.04.45-.2.57-.42.08-.14.1-.24.13-.38l.07-.38c.04-.22.08-.44.1-.66a6.82 6.82 0 0 0 .03-1.05l-.05-1.04-.02-.5v-.22a2.09 2.09 0 0 1 0-.1l.25-1.54v.06-.08a.5.5 0 0 0 .01-.03v-.02a3.61 3.61 0 0 1-.5-.09 4.84 4.84 0 0 1-.85-.3l-.16.89"/>
    <path fill="#FFF" d="M76.13 54.95h-.04a2.68 2.68 0 0 0-.7.1c-.3.08-.58.18-.86.3a1.4 1.4 0 0 0-.75 1.13 1.24 1.24 0 0 0-.23.41l-.31.9c-.28.8-.56 1.63-.8 2.45l-.04.15-.16.59-.08.33-.02.06a6.26 6.26 0 0 0-.12.6 2.84 2.84 0 0 0 0 .78c.04.3.14.58.27.9.09.22.25.43.4.62l.03.05a3.3 3.3 0 0 0 .83.67 4.6 4.6 0 0 0 1.91.53c.16 0 .3 0 .44-.04.34-.06.67-.2.96-.39a5.01 5.01 0 0 0 1.57-1.8c.2-.34.35-.7.5-1.04l.02-.02c.14-.33.25-.63.31-.91.1-.4.14-.81.18-1.21l.01-.12c.04-.3.05-.6.04-.9 0-.6-.1-1.14-.26-1.57a4.21 4.21 0 0 0-.37-.81 4.86 4.86 0 0 0-.48-.63 3.58 3.58 0 0 0-.24-.24 7.03 7.03 0 0 0-.4-.33l-.05-.04c-.2-.17-.46-.27-.7-.36l-.07-.03a2.2 2.2 0 0 0-.8-.13m10.24 1.15c-.13 0-.26.02-.4.04-.3.03-.61.13-.97.31a1.5 1.5 0 0 0-.8 1.26 7.33 7.33 0 0 0-.45.9c-.12.3-.2.6-.28.9l-.2.87-.04.2a6.83 6.83 0 0 0-.14 2.52c.03.15.1.31.15.45l.03.07c.1.24.24.44.39.65l.06.09a4 4 0 0 0 .99.9 2.89 2.89 0 0 0 1.63.52h.05a3.41 3.41 0 0 0 .9-.13c.18-.05.36-.13.51-.2.15-.06.28-.16.41-.26l.12-.09c.28-.2.48-.52.66-.8a5.17 5.17 0 0 0 .65-2 9.06 9.06 0 0 0-.2-3.07 6.65 6.65 0 0 0-.7-1.72 2.92 2.92 0 0 0-1.65-1.3 44.49 44.49 0 0 0-.55-.1 2.08 2.08 0 0 0-.17 0"/>
    <path fill="#000" d="M85.22 60.7a1.33 1.33 0 0 0 .86 2.32c.36 0 .7-.1.97-.35a1.34 1.34 0 0 0 .43-.93c.03-.7-.56-1.4-1.3-1.4-.36 0-.69.11-.96.36m-11.26.12a1.34 1.34 0 0 0-.43.93c-.03.7.56 1.4 1.3 1.4a1.34 1.34 0 0 0 1.4-1.28c.02-.72-.56-1.4-1.3-1.4-.36 0-.7.1-.97.35m6.45 4.65-.32.03a.28.28 0 0 0-.09.04.27.27 0 0 0-.26.12 34.7 34.7 0 0 0-.51.88l-.03.05c-.05.1-.1.21-.14.34a1.13 1.13 0 0 0-.04.53 1 1 0 0 0 .24.46c.12.14.28.22.46.3a2.24 2.24 0 0 0 .97.19 1.46 1.46 0 0 0 .51-.12h.03a.78.78 0 0 0 .22-.16c.06-.05.11-.12.16-.18l.02-.03a1.33 1.33 0 0 0 .23-.44c.08-.3-.02-.6-.12-.87a2.4 2.4 0 0 0-.42-.7 1.13 1.13 0 0 0-.32-.26 3.43 3.43 0 0 0-.2-.1.94.94 0 0 0-.4-.08"/>
    <path fill="#000" d="m79.89 67.86-.11.5-.07.38-.04.3-.06.48-.07.71-.01.34-.01.32v1.4c.01.47.02.95.07 1.42 0 .06.01.12.06.17a.24.24 0 0 0 .33 0c.04-.03.08-.1.07-.15l-.05-.87-.02-.75a22.61 22.61 0 0 1 0-1.4l.01-.52.03-.39c0-.06 0-.13.02-.19l.07-.62.04-.25.04-.23.11-.52a.23.23 0 0 0-.01-.17.22.22 0 0 0-.19-.11c-.1 0-.19.05-.21.15"/>
    <path fill="#000" d="m80.74 71.02-.03-.05.03.05m1.65 1.93.02.03a2.17 2.17 0 0 1-.02-.03m-1.3-2.37.02.02-.01-.02m-1.32-2.74a.27.27 0 0 0-.2.33c.08.4.2.8.36 1.2l.24.6a6.38 6.38 0 0 0 .27.59c.08.17.19.32.3.47h-.01l.38.52c.13.17.26.35.41.5l.23.24.23.2c.15.14.27.29.39.45a7.7 7.7 0 0 1 .28.45.3.3 0 0 0 .4.13c.14-.08.2-.26.12-.4a5.65 5.65 0 0 0-.5-.72 3 3 0 0 0-.26-.29l-.28-.24a7.8 7.8 0 0 1-1-1.23c-.18-.26-.3-.54-.43-.82-.12-.25-.22-.52-.32-.78a7.2 7.2 0 0 1-.28-1 .27.27 0 0 0-.33-.2m13.5-1.42a1.55 1.55 0 0 0-.45.08l-.29.1-.4.14-.96.36-.76.3c-.24.09-.48.18-.7.28l-1.19.51c-.47.2-.94.42-1.4.64-.14.06-.19.24-.12.37s.23.17.37.11l1.26-.57 1.15-.5 1.5-.6-.05.02.87-.32.5-.18c.24-.08.47-.17.72-.22a.26.26 0 0 0 .13-.44.26.26 0 0 0-.17-.08h-.01m.1 2.84a3.9 3.9 0 0 0-.3.02l-.23.02-.1.02-.25.04-.67.14-.7.17-.51.13-.82.23c-.04 0-.07.02-.1.03l-.35.12c-.62.21-1.24.42-1.85.65l-.2.07a.16.16 0 0 0-.12.08.2.2 0 0 0 .06.27c.04.03.1.04.15.03l1.06-.38a296.65 296.65 0 0 1 1.28-.43l.14-.05.75-.2.52-.15.78-.16c.1-.03.2-.04.31-.06l.3-.06c.23-.04.46-.08.69-.1l.14-.02a.23.23 0 0 0 .15-.05.21.21 0 0 0 .07-.15c0-.1-.08-.22-.2-.22m-22.66-.05a.29.29 0 0 0-.04.22c.02.06.06.14.13.17l.3.14.2.08.14.04.26.08.8.22 1.9.5a.3.3 0 0 0 .38-.19c.05-.15-.04-.34-.2-.38l-1.87-.5c-.56-.15-1.12-.3-1.67-.5a.25.25 0 0 0-.08-.01.3.3 0 0 0-.25.13m.33 2.33c-.15 0-.28.1-.29.26a.28.28 0 0 0 .27.29l1.11.03 1.14.05a.29.29 0 0 0 .3-.27.29.29 0 0 0-.27-.3c-.64-.02-1.29-.06-1.93-.06h-.33"/>
    <path fill="#E57F3E" d="m96.57 65.76-.07-.05.07.05m3.47-3.46c-.2 0-.4.09-.52.16a7.21 7.21 0 0 0-.38.23l-.2.12-.57.37-.02.02a9.6 9.6 0 0 1-.53.35l-.14.09-.39.24a8.5 8.5 0 0 1-.39.24l-.12.08-.14.08a2.29 2.29 0 0 0-.99.96.43.43 0 0 0-.31.41c0 .1.04.23.12.3.33.28.66.56.97.85l.14.13.31.29.5.5.28.3.13.14.28.32.1.13c.2.24.4.48.58.72l.14.17.75 1c.2.29.38.59.56.89l.15.26c.17.27.32.55.46.83l.2.36.02.03c.2.4.43.8.76 1.1h.02c.07.07.14.13.22.17a.59.59 0 0 0 .26.06.54.54 0 0 0 .25-.07.45.45 0 0 0 .18-.2l.04-.1.03-.19a2.24 2.24 0 0 0-.04-.5l-.01-.08c-.03-.23-.1-.47-.15-.7l-.06-.24-.05-.22-.27-1.18a51.97 51.97 0 0 1-.6-2.67 74.83 74.83 0 0 1-.2-1.15 15.96 15.96 0 0 0-.23-1.15l-.05-.18c-.16-.64-.32-1.3-.42-1.96l-.02-.24a6.6 6.6 0 0 0-.06-.46c-.03-.2-.1-.44-.33-.55a.55.55 0 0 0-.26-.06M73.28 95.83c-.05.2.06.42.26.46l.8.2c.3.06.58.12.87.15.16.02.31-.12.35-.26.05-.18-.06-.4-.25-.45-.53-.1-1.04-.24-1.57-.36a.43.43 0 0 0-.09 0c-.17 0-.32.1-.37.26M81 98.05h.01a.35.35 0 0 1-.01 0m-2.3-2.24a.49.49 0 0 0-.23.54.48.48 0 0 0 .13.22l.04.05.74 1c.14.19.3.37.46.55.15.16.3.33.45.47l.21.16c.07.05.15.07.23.1l.2.08c.1.04.25 0 .34-.05a.45.45 0 0 0 .17-.61.48.48 0 0 0-.27-.2l-.2-.09a.36.36 0 0 1-.01 0c-.2-.18-.36-.37-.53-.57a6.3 6.3 0 0 1-.21-.25c-.29-.4-.56-.83-.86-1.23a.52.52 0 0 0-.29-.22.49.49 0 0 0-.37.05m-2.47-4.61a.41.41 0 0 0-.15.56l.07.09a.42.42 0 0 0 .18.1l2.93 1.23-.07-.03.52.22c.1.05.2.08.33.04a.42.42 0 0 0 .25-.19c.1-.19.05-.47-.15-.57-.27-.13-.56-.24-.84-.35l-.86-.36-1.89-.79a.26.26 0 0 0-.1-.01.47.47 0 0 0-.22.06m5.4-.91c-.22.13-.32.45-.17.67.47.73.97 1.45 1.55 2.08.19.2.51.19.7 0a.5.5 0 0 0 0-.68l-.4-.45c-.34-.47-.68-.95-1-1.44a.52.52 0 0 0-.43-.25.49.49 0 0 0-.24.07m-.68-5.35a.39.39 0 0 0 .13.52l1.14.68 1.06.59c.18.09.4.05.5-.13a.36.36 0 0 0-.14-.49l-2.17-1.31a.37.37 0 0 0-.19-.05.4.4 0 0 0-.33.19m7.13-.54a.48.48 0 0 0-.28.21c-.07.12-.07.23-.05.37l.28 1.96c.1.75.23 1.5.36 2.25.02.11.12.22.21.27a.46.46 0 0 0 .62-.16.48.48 0 0 0 .05-.35L88.97 87c-.1-.76-.18-1.52-.3-2.28 0-.11-.11-.22-.2-.28a.47.47 0 0 0-.38-.05m-22.51-4.26c-.1.17-.05.43.14.53.36.19.7.4 1.02.64l.35.26.47.4c.08.06.16.1.27.1a.37.37 0 0 0 .37-.37.39.39 0 0 0-.1-.26 2.67 2.67 0 0 0-.31-.3 8.04 8.04 0 0 0-.33-.26l-.43-.32c-.29-.21-.6-.4-.92-.56a.43.43 0 0 0-.2-.05.38.38 0 0 0-.33.19m1.73 4.16a.43.43 0 0 0-.2.49.88.88 0 0 0 .05.1l.48 1.34.6 1.67c.04.1.1.2.2.26a.44.44 0 0 0 .33.04c.22-.06.39-.31.3-.53l-.6-1.7-.28-.78-.1-.3c-.06-.18-.12-.38-.25-.52a.43.43 0 0 0-.53-.07m1.91-8.17a.4.4 0 0 0-.12.29c0 .11.05.2.12.28.42.48.84.94 1.23 1.43l.13.18c.12.18.35.25.54.14a.4.4 0 0 0 .18-.23c.04-.11.01-.2-.04-.3-.07-.18-.2-.33-.32-.47-.1-.13-.2-.26-.32-.38l-.82-.94a.36.36 0 0 0-.28-.12.43.43 0 0 0-.3.12M71 80.31a.41.41 0 0 0-.28.5c.18.6.38 1.18.58 1.76l.7 2.04a.47.47 0 0 0 .21.27.46.46 0 0 0 .35.04c.22-.06.4-.32.31-.55l-.7-2.04c-.1-.27-.18-.55-.29-.82-.13-.34-.25-.69-.42-1.01a.4.4 0 0 0-.35-.2.4.4 0 0 0-.1 0m4.28-1.12.01.03a2.75 2.75 0 0 1-.01-.03m.07-.97a.53.53 0 0 0-.24.3l-.02.14a.51.51 0 0 0 .07.27l.15.34 1 2.4.06.13a.52.52 0 0 0 .9 0 .5.5 0 0 0 .05-.4c-.42-1-.82-2-1.25-3-.05-.11-.2-.2-.31-.24a.53.53 0 0 0-.4.06m74.82-74.26a.55.55 0 0 0-.54.54c0 .29.25.55.54.54.33-.01.65-.03.98-.06.14-.02.26-.05.36-.15a.51.51 0 0 0 .15-.36c0-.3-.23-.5-.51-.51a8.45 8.45 0 0 0-.39-.01l-.59.01m-.6 2.5a.57.57 0 0 0-.2.77c.06.11.2.24.34.26.52.07 1.04.16 1.56.18a.53.53 0 0 0 .51-.4c.08-.26-.09-.58-.37-.64-.46-.1-.93-.17-1.4-.23l-.15-.02a.57.57 0 0 0-.3.08m-.94 3.68a.49.49 0 0 0 .5.49l1.56.08a.5.5 0 0 0 .5-.49.49.49 0 0 0-.5-.49l-1.56-.08h-.02a.5.5 0 0 0-.48.49m-.8 3a.45.45 0 0 0 0 .64.49.49 0 0 0 .32.14l1.57.16c.49.04.97.1 1.46.1a.4.4 0 0 0 .39-.3c.05-.2-.07-.45-.29-.5-.5-.1-1.02-.15-1.53-.2l-1.6-.17a.34.34 0 0 0-.03 0 .46.46 0 0 0-.3.13m-.36 3.44a.57.57 0 0 0 0 .8l.12.09a.57.57 0 0 0 .29.08l1.58.2c.48.06.95.12 1.43.13a.5.5 0 0 0 .48-.37.5.5 0 0 0-.35-.62c-.43-.1-.86-.16-1.3-.23-.43-.07-.87-.12-1.31-.18l.15.02-.68-.09a.3.3 0 0 0-.04 0 .58.58 0 0 0-.37.17m1 3.3-1.46.16a.48.48 0 0 0-.32.13.44.44 0 0 0 0 .62c.08.07.2.14.32.13.93-.1 1.86-.2 2.8-.28a.46.46 0 0 0 .3-.12.43.43 0 0 0 .12-.3.43.43 0 0 0-.43-.43c-.45 0-.9.06-1.34.1m-.46 3.46c-.62.02-1.24.06-1.86.1a.45.45 0 0 0-.3.13.43.43 0 0 0-.13.3c0 .22.2.44.43.43a41.08 41.08 0 0 1 1.86-.09c.54-.01 1.08-.02 1.62 0 .24.02.44-.2.44-.43a.43.43 0 0 0-.13-.3.46.46 0 0 0-.31-.13 7.85 7.85 0 0 0-.69-.03l-.93.02m-3.5 5.5a.57.57 0 0 0-.2.78c.07.11.2.23.34.26a137.42 137.42 0 0 0 2.78.5l.82.14.15.02a.57.57 0 0 0 .54-.4.56.56 0 0 0-.39-.7l-.77-.15-.85-.15a143.17 143.17 0 0 1-1.97-.36.88.88 0 0 0-.16-.01.54.54 0 0 0-.28.07m2.77 4.28-.9.01-1.57.05a.55.55 0 0 0-.55.54c0 .28.25.54.55.53l1.51-.04.93-.02h1.21c.28 0 .56 0 .84.02a.52.52 0 0 0 .45-.78c-.06-.1-.19-.22-.31-.23a10.42 10.42 0 0 0-1.5-.09h-.66m-3.68 3.69c0 .12.05.24.14.33.1.09.2.13.33.14l2.86.15 1.16.06 1.28.06c.18.01.36-.14.41-.31.06-.22-.07-.48-.3-.53-.45-.1-.91-.11-1.37-.15l-1.16-.06-2.88-.16h-.02c-.25 0-.45.23-.45.47m-.11 3.1a.5.5 0 0 0 .5.49l1.6.12c.53.04 1.05.06 1.56.12a.48.48 0 0 0 .46-.35.47.47 0 0 0-.05-.36.5.5 0 0 0-.28-.22 2.82 2.82 0 0 0-.58-.1l-.33-.03-.74-.05-1.64-.12a.38.38 0 0 0-.03 0c-.26 0-.47.25-.47.5m-.33 3.53a.56.56 0 0 0-.56.55.56.56 0 0 0 .56.55l2.03-.02.84-.02c.34-.01.7-.04 1.05 0a.47.47 0 0 0 .45-.34.47.47 0 0 0-.05-.36.51.51 0 0 0-.28-.22c-.22-.09-.45-.1-.68-.13-.13-.02-.26-.02-.4-.03h-.94c-.68 0-1.36 0-2.03.02m-.79 3.35a.59.59 0 0 0 .41.72l2.25.61.8.21c.38.1.77.19 1.16.2.3.01.56-.26.56-.56a.56.56 0 0 0-.16-.39.6.6 0 0 0-.4-.16h-.01c-.3-.05-.58-.13-.86-.2l-.8-.22-2.23-.61a.6.6 0 0 0-.72.4m-18.1 3.79h-.18a4.84 4.84 0 0 0-.4.06 9.38 9.38 0 0 0-.83.18l-.76.17-.13.03c-.2.04-.41.08-.6.15a3.54 3.54 0 0 0-.81.42.48.48 0 0 0-.21.26.45.45 0 0 0 .24.53l.64 1 .1.13.18.3.35.65.41.81.18.37.59 1.1c.22.41.4.78.56 1.13a10.75 10.75 0 0 1 .42 1.38l.18.69a16.52 16.52 0 0 0 .14.47.7.7 0 0 0 .1.25.52.52 0 0 0 .08.12l.14.1a.36.36 0 0 0 .2.06.5.5 0 0 0 .12-.01c.09-.03.2-.1.25-.2a3.74 3.74 0 0 0 .09-.21.91.91 0 0 0 .04-.22v-.03l.02-.24.01-.41v-.44a10.13 10.13 0 0 1 0-.2l-.03-.4a14.05 14.05 0 0 1-.02-.2c0-.15-.02-.29-.04-.43l-.02-.22a25.42 25.42 0 0 1-.09-2.56l.02-.78.01-.41v-.1c.01-.39.02-.8.05-1.19v-.13a2.7 2.7 0 0 0-.05-1.1 1.74 1.74 0 0 0-.09-.26l-.02-.04a.92.92 0 0 0-.52-.53.97.97 0 0 0-.33-.05m-8.88 2.7h-.05l-.19.03-.23.06-.44.13a9.84 9.84 0 0 0-.72.25c-.27.1-.54.23-.8.35l-.56.25a8.3 8.3 0 0 1-.7.25l-.17.06-1.07.35a.33.33 0 0 0-.23.4.33.33 0 0 0 .13.17c.04.08.1.15.18.2a.42.42 0 0 0 .22.05.65.65 0 0 0 .12-.01l.15.04c.13.07.26.14.39.23.1.1.22.18.33.27.2.15.34.3.47.44.08.1.15.22.23.34l.06.1.34.48.2.29.49.7h.01a22.16 22.16 0 0 0 1.52 2.05l.28.37.1.13c.34.45.62.83.86 1.18l.05.07.42.6.04.04.16.22.08.1.28.35a.36.36 0 0 0 .26.1.37.37 0 0 0 .19-.05c.13-.07.22-.25.16-.4a3.53 3.53 0 0 1-.15-.59l-.1-.51-.02-.1a41.03 41.03 0 0 1-.1-.58l-.1-.55a67.26 67.26 0 0 0-.48-2.47l-.28-1.28-.11-.6-.1-.55a58.56 58.56 0 0 0-.28-1.24l-.05-.21-.1-.47a3.22 3.22 0 0 0-.27-.79.48.48 0 0 0-.29-.24.55.55 0 0 0-.13-.02m-9.08 4h-.05a1.2 1.2 0 0 0-.37.09 2.91 2.91 0 0 0-.51.25l-.26.17-.5.32a18.33 18.33 0 0 1-1.05.65l-.33.2-.2.12c-.25.14-.5.3-.75.46a3.41 3.41 0 0 0-.44.37c-.15.14-.27.3-.38.47a2.18 2.18 0 0 0-.22.34.4.4 0 0 0 .45.59.23.23 0 0 0 .08.13 200.9 200.9 0 0 1 3.09 2.47l.03.03c.27.23.55.47.8.72l.4.46.14.15.45.49.08.08.4.46.1.1.14.18.35.4.27.41a4.88 4.88 0 0 0 .47.64.87.87 0 0 0 .2.19.46.46 0 0 0 .47 0c.22-.12.3-.38.24-.78a4.6 4.6 0 0 0-.08-.37l-.02-.06a10.08 10.08 0 0 0-.21-.74l-.1-.3-.03-.1-.31-1a37.44 37.44 0 0 0-.33-.97 54.92 54.92 0 0 1-.25-.75l-.04-.11-.03-.08a11.14 11.14 0 0 1-.24-.8 9.64 9.64 0 0 1-.17-.82l-.01-.05c-.05-.33-.08-.67-.12-1l-.14-1.21-.02-.11a4.52 4.52 0 0 0-.2-.97 1.49 1.49 0 0 0-.13-.3 1.37 1.37 0 0 0-.13-.16l-.02-.02a.64.64 0 0 0-.15-.12l-.03-.02a.73.73 0 0 0-.18-.08.47.47 0 0 0-.16-.02m46.1-1.53c-.09.1-.18.26-.16.4.09.67.11 1.34.15 2l.15 2.38c0 .16.06.3.17.41.11.11.26.17.42.17.3 0 .6-.26.58-.58l-.14-2.37-.07-1.08c-.03-.36-.04-.73-.13-1.08a.58.58 0 0 0-.96-.25m2.2-3.1c-.27.15-.38.52-.21.78.61.94 1.22 1.9 1.9 2.8.08.11.17.2.3.24a.53.53 0 0 0 .6-.77c-.55-.97-1.19-1.9-1.8-2.85a.6.6 0 0 0-.5-.28.58.58 0 0 0-.3.08m5.5 2.03a.56.56 0 0 0-.25.31c-.22.6-.37 1.22-.53 1.84l-.53 2.06a.58.58 0 0 0 .4.7c.3.09.64-.1.72-.4l.53-2.06c.15-.62.31-1.23.43-1.86a.55.55 0 0 0-.05-.4.53.53 0 0 0-.72-.2m1.7-2.07a.53.53 0 0 0 .19.72c.25.15.5.3.75.47a2 2 0 0 1 .2.2l.1.15a.54.54 0 0 0 .73.19.53.53 0 0 0 .19-.73 2.25 2.25 0 0 0-.4-.5 3.08 3.08 0 0 0-.45-.33l-.59-.36a.5.5 0 0 0-.26-.07.54.54 0 0 0-.46.26m5.04 2.24a.51.51 0 0 0-.32.24c-.38.85-.69 1.73-1.01 2.6a.53.53 0 0 0 .06.43.56.56 0 0 0 1.01-.14c.31-.82.61-1.65.9-2.49.09-.22-.04-.47-.24-.59a.53.53 0 0 0-.4-.05m2.9-2.33a.43.43 0 0 0-.2.26c-.04.12-.01.22.04.33l.83 1.87c.04.1.15.17.25.2a.42.42 0 0 0 .52-.3 8.29 8.29 0 0 1 .02-.1.41.41 0 0 0-.06-.22l-.82-1.89c-.04-.1-.16-.17-.26-.2a.43.43 0 0 0-.33.05m-18.84 15.39c-.1.42-.1.85-.1 1.28l.05 1.08a.55.55 0 0 0 .55.55c.28 0 .56-.25.54-.55l-.05-1.05c-.02-.39-.05-.79-.02-1.18.02-.21-.16-.42-.36-.47a.5.5 0 0 0-.61.34m5.8-2.24c-.22.91-.47 1.82-.58 2.75a.44.44 0 0 0 .32.42c.23.06.5-.07.55-.3l.31-1.27.34-1.34a.49.49 0 0 0-.46-.61.48.48 0 0 0-.48.35m3.85 3.39-.1.08a.5.5 0 0 0-.13.22c-.2.48-.35.97-.51 1.47l-.52 1.63c-.1.28.1.6.38.67a.56.56 0 0 0 .68-.38l.51-1.6c.16-.5.32-1 .44-1.53a.5.5 0 0 0-.36-.61.5.5 0 0 0-.39.05m5.12-2.04a.47.47 0 0 0-.33.58l.49 1.58c.08.23.3.38.55.31a.45.45 0 0 0 .32-.55 52.71 52.71 0 0 0-.46-1.6.48.48 0 0 0-.57-.32m2.71 4.98c-.34.57-.63 1.16-.93 1.75a.6.6 0 0 0-.06.45.6.6 0 0 0 .27.35c.26.15.66.07.8-.21l.91-1.76a.58.58 0 0 0-.2-.78.58.58 0 0 0-.79.2"/>
    <path fill="#000" d="M82.93 60.1a.52.52 0 0 0 0 .74c.11.1.23.14.37.15.63.06 1.25.12 1.87.2l.75.1.93.11.94.09c.3.03.6.06.9.05.28 0 .56-.05.84-.07a.56.56 0 0 0 .37-.15.53.53 0 0 0 .16-.38c0-.27-.24-.54-.53-.52-.31.02-.63.05-.94.05-.35 0-.7-.06-1.05-.1-.33-.04-.67-.05-1-.09a72.73 72.73 0 0 1-.85-.09c-.8-.1-1.59-.16-2.39-.24a.3.3 0 0 0-.03 0 .53.53 0 0 0-.34.15m-10.65-.55a.42.42 0 0 0 .3.51 25.04 25.04 0 0 0 1.52.32c.48.08.97.14 1.45.24.23.04.46.1.68.15l.64.18.67.14c.23.05.45.1.68.13.47.09.96.14 1.43.25a.5.5 0 0 0 .6-.34.49.49 0 0 0-.34-.6c-.46-.1-.93-.15-1.4-.23l-.68-.12a7.85 7.85 0 0 1-.67-.12l-.64-.17a15.33 15.33 0 0 0-.7-.14c-.5-.08-1-.13-1.52-.2a18.78 18.78 0 0 1-1.5-.3.45.45 0 0 0-.1 0 .42.42 0 0 0-.42.3"/>
  </g>
</svg>
