<svg xmlns="http://www.w3.org/2000/svg" viewBox="0 0 200 171">
    <defs>
        <linearGradient id="a" x1="50%" x2="50%" y1="100%" y2="0%">
            <stop offset="0%"/>
            <stop offset="54%"/>
            <stop offset="100%"/>
        </linearGradient>
    </defs>
    <g fill="none">
        <path stroke="#E0E0E0" d="M148.6 74s5.6-20.701-5.6-42M66.108 75C68.217 65.176 68.846 44.695 41 36"/>
        <path fill="#F2EFE9" d="M17 78h172v93H17z"/>
        <circle cx="50.5" cy="92.5" r="8.5" fill="url(#a)"/>
        <circle cx="50.5" cy="92.5" r="7.5" fill="#155775"/>
        <path fill="#155775" d="M67 89h43v5H67z"/>
        <path fill="#FFF" d="M50 117h106v5H50zM50 107h106v5H50zM50 126h106v5H50zM50 136h106v5H50zM50 145h106v5H50zM50 155h106v5H50z"/>
        <path stroke="#BDBDBD" d="M33.973 74c.182-5.16-.45-12.875-4.973-18"/>
        <path stroke="#E0E0E0" d="M130.973 74c.182-4.874-.45-12.16-4.973-17"/>
        <path stroke="#BDBDBD" d="M171.027 72c-.182-4.874.45-12.16 4.973-17"/>
        <path fill="#7BC0A6" opacity=".7" d="M0 25h24v13H0zM131 16h24v13h-24zM110 39h24v13h-24z"/>
        <path fill="#568B77" d="M18 28h39v21H18zM161 29h39v21h-39zM73 0h39v21H73z"/>
        <path stroke="#BDBDBD" d="M90.8 74c1.46-4.818 2.41-12.516-2.218-20.462-5.715-9.813-.577-19.374 2.345-23.538"/>
    </g>
</svg>
