<svg xmlns="http://www.w3.org/2000/svg" viewBox="0 0 183 120">
    <path fill="#1A688B" d="M169.701 98.468c-.57.501-1.155.988-1.751 1.46-.1.081-.204.159-.306.242a61.522 61.522 0 0 1-6.688 4.506l-.435.252a6.88 6.88 0 0 1-.319.182c-2.43 1.399-4.95 2.687-7.501 3.907l-.028.014-.192.09a153.533 153.533 0 0 1-6.265 2.825l-.05.019c-.956.401-1.912.792-2.867 1.172-.39.16-.782.307-1.174.458-.737.28-1.476.557-2.221.823l-.093.034-.159.056-.199.073a110.21 110.21 0 0 1-5.91 1.919l-.035.01c-1.391.404-2.792.778-4.202 1.122l-.193.048c-2.07.499-4.173.928-6.29 1.27l-.487.079c-1.548.242-3.106.44-4.676.594-8.82.85-17.746.159-26.512-1.026-17.702-2.396-35.169-6.886-51.1-13.924a148.844 148.844 0 0 1-8.994-4.337c-.024-.012-.044-.025-.068-.036a130.056 130.056 0 0 1-5.206-2.883c-.502-.29-1-.585-1.495-.882a133.178 133.178 0 0 1-4.209-2.635l-.373-.248-.143-.096-.602-.407C11.473 88.066 4.8 81.906 1.647 74.198c-3.644-8.895-1.313-20.173 7.712-25.43 3.102-1.811 6.707-2.795 10.35-3.606l.373-.083c.616-.135 1.233-.265 1.846-.395 2.148-.455 4.307-.906 6.446-1.41 1.115-.261 2.218-.536 3.316-.833l.449-.124a53.77 53.77 0 0 0 7.74-2.72h.016c.27-.118.535-.242.797-.37.168-.079.337-.158.506-.246 2.707-1.343 5.573-3.207 7.779-5.427a18.686 18.686 0 0 0 .895-.967c1.546-1.799 2.616-3.795 2.82-5.914a7.605 7.605 0 0 0-.095-2.133c-.25-1.333-.492-2.637-.67-3.91-.334-2.39-.447-4.676.015-6.879.47-2.246 1.535-4.408 3.569-6.504.307-.318.637-.636.992-.953a20.913 20.913 0 0 1 5.515-3.476c.248-.106.498-.211.75-.317C68.354.245 75.066-.225 81.337.086a101.544 101.544 0 0 1 18.757 2.732 120.831 120.831 0 0 1 14.332 4.42c12.163 4.564 23.643 10.9 34.368 17.893l.319.206a217.428 217.428 0 0 1 3.884 2.587l.568.387c.28.19.56.381.836.573l.854.59c.04.023.078.05.114.08l.727.502c.42.292.837.586 1.256.882l.898.635c.186.134.374.265.56.4l.956.696.214.159c.044.032.089.063.132.098l.027.018c2.59 1.895 5.116 3.86 7.484 5.942l.306.27.032.029c.258.228.516.46.769.694 3.093 2.808 5.863 5.826 8.128 9.162 10.402 15.407 7.314 36.74-7.157 49.427Z" opacity=".1"/>
    <circle cx="125" cy="47" fill="#E6E8EC" r="1"/>
    <path fill="#1A688B" d="M76 81.11s1.471-1.904 3-.724c0 0-.428 1.636-2.327 1.614L76 81.11zm-.891.89s-.692 1.82 1.412 3c0 0 1.176-.77-.158-2.563L75.11 82zM73 80.348s.064-1.698 4-1.283c0 0 .062 1.093-1.292 1.661-1.354.569-2 .157-2.708-.378z"/>
    <path fill="#1A688B" d="M72.75 80s-1.675.565-.02 4c0 0 1.117-.272 1.251-1.667.134-1.394-.475-1.848-1.23-2.333zm-1.745-2.586s-.27-2.533 2.984-2.41c0 0 .31 2.29-2.39 2.996l-.594-.586zM67 74.326s.476-2.942 5-2.209c0 0 .136 2.533-4.236 2.883L67 74.326zm-2-3.875s.83-3.103 5-2.326c0 0-.87 2.787-4.706 2.875L65 70.45zm-2-2.976s.84-3.14 5-2.346c0 0-1.25 2.999-4.703 2.867L63 67.475zm-2-3.055s.519-4.082 4-3.327c0 0-.866 3.733-3.722 3.907L61 64.42zm0-3.872s.623-3.238 4-2.414c0 0-1.174 3.079-3.744 2.854l-.256-.44zm-1-3.367s1.174-4.183 4-4.181c0 0-1.196 4.416-3.732 5L60 57.181zm0-3.02s1.058-5.467 3-5.148c0 0-.72 4.175-2.91 5.987l-.09-.838zm-1-4.328s1.04-4.56 3-4.833c0 0-.667 4.467-2.92 6L59 49.833zm-1-3.503s1.52-4.18 3-4.33c0 0-.575 4.08-2.827 5L58 46.33zm0-3.641s1.11-4.283 3-4.689c0 0-.082 3.479-2.791 5L58 42.689zm-1-4.54s.892-3.566 2-4.149c0 0-.075 4.164-1.707 5L57 38.15z"/>
    <path fill="#1A688B" d="M56.7 34.81 56 28s3.723 5.052 1.01 8l-.31-1.19zm-2.604-6.827S52.38 23.252 52 23c0 0 3.145 2.98 2.995 7l-.899-2.017zm15.29 50.02s-2.59-.21-2.373 2.99c0 0 2.343.25 2.987-2.418l-.615-.572zM66.43 75s-2.756.11-2.4 3.99c0 0 2.33.366 2.969-3.284L66.431 75zm-1.711-3.768s-2.982-1.374-4.72 2.564c0 0 2.749 1.135 5-1.951l-.28-.613zm-1.99-2.942s-3.086-1.549-4.73 2.513c0 0 3.197 1.1 5-1.893l-.27-.62zm-.905-2.913s-3.359-3.28-5.825.284c0 0 3.408 2.67 6 .469l-.175-.753zm-.967-5.039s-3.404-3.258-5.858.394c0 0 3.783 2.632 6 .311l-.142-.705zm-.864-3.048S57.612 54.372 55 55.124c0 0 2.472 3.093 5 2.864l-.006-.698zm-.089-3.144S57.278 49.148 55 50.127c0 0 1.902 3.845 5 4.873l-.095-.854zm-1.176-5.162S56.212 45.536 54 46.053c0 0 2.083 3.514 5 3.947l-.27-1.016zm.271-2.72S57.288 41.98 56 42c0 0 .891 4.295 2.915 5l.085-.735z"/>
    <path fill="#1A688B" d="M58 42.664S56.237 38.952 55 39c0 0 .947 3.2 2.956 4l.044-.336zm0-4.655S56.307 34.365 55 34c0 0 .94 4.486 2.864 5l.136-.991z"/>
    <path fill="#1A688B" d="M56.483 34.037 53 29s1.033 5.061 4 6l-.517-.963Z"/>
    <path fill="#1A688B" d="M53.274 28.817S49.158 26.406 49 26c0 0 2.194 3.505 6 4l-1.726-1.183zM53.9 28S49.165 23.954 48 24c0 0 3.77.028 6 3.77l-.1.23z"/>
    <path fill="#444053" d="m58 39.97-.162.03C56.755 32.839 55.396 28.636 54 28.168l.047-.168c1.476.491 2.842 4.633 3.953 11.97zm1 14.998-.238.032a55.343 55.343 0 0 1-.186-1.957c-.43-5.705-.971-10.937-1.576-14.852l.132-.191c.599 3.921 1.253 9.309 1.685 15.014.048.66.111 1.318.183 1.954zM79.877 85c-.046-.019-4.58-1.815-9.39-6.331a36.381 36.381 0 0 1-7.035-9.086C61.146 65.362 59.636 60.12 59 55l.269.113c1.424 11.493 7.05 19.175 11.44 23.302 4.763 4.476 9.247 6.254 9.291 6.274l-.123.311z"/>
    <g opacity=".7">
        <path fill="#1A688B" d="M82.762 79.516s2.164-.68 3.752.607c0 0-.853.885-3.13.193l-.622-.8zm-.243.003s-1.134 1.883-.125 3.621c0 0 1.082-.62.824-2.881l-.7-.74zm-1.74-2.533s.626-1.689 4.542-.065c0 0-.296 1.12-1.88 1.28-1.585.16-2.107-.46-2.662-1.215zm-.246-.069s-1.879.085-1.372 4.13c0 0 1.208.05 1.822-1.349.614-1.399.148-2.066-.45-2.78zm-1.623-3.041s.572-2.895 4.667-1.53c0 0-.433 2.64-4.122 2.4l-.545-.87zm-1.852-3.915s1.485-3.065 5.383-1.034c0 0-.772 2.781-4.924 1.974l-.46-.94zm-1.078-3.827s1.85-2.89 5.72-.882c0 0-1.784 2.561-5.61 1.53l-.11-.648zm-.998-3.724s1.86-3.007 5.577-1.005c0 0-2.21 2.742-5.471 1.626l-.106-.621zm-.365-3.388s1.85-3.786 5.323-1.95c0 0-2.108 3.335-5.215 2.599l-.108-.649zm-.106-4.005s2.002-3.782 5.435-1.65c0 0-2.552 3.404-5.329 2.27l-.106-.62zm.262-3.636s2.51-3.65 5.394-2.794c0 0-2.606 3.868-5.383 3.66l-.01-.866zm.502-3.485s2.86-4.436 5.127-3.453c0 0-2.08 3.416-5.257 4.225l.13-.772zm.885-4.09s2.54-3.655 4.925-3.214c0 0-2.074 3.707-5.171 4.272l.246-1.059zm.777-3.817s2.888-3.572 4.461-3.264c0 0-1.882 3.762-4.493 3.963l.032-.7zm.796-3.538s2.313-4.09 3.961-4.055c0 0-1.224 3.522-3.9 4.421l-.061-.366zm.714-4.713s2.117-3.19 3.52-3.4c0 0-1.413 4.04-3.47 4.323l-.05-.923zm.367-3.124 1.514-6.194s1.021 5.23-1.648 7.321l.134-1.127zm-.075-6.562s-.411-4.913-.746-5.267c0 0 2.478 3.756 1.094 7.412l-.348-2.145zm.063 51.77s-2.86-1.133-3.899 2.881c0 0 2.559 1.103 4.374-1.968l-.475-.914zm-1.853-4.005s-3.42-.89-4.299 3.26c0 0 2.734 1.228 4.758-2.315l-.46-.945zm-1.077-3.427s-2.713-2.187-5.72.882c0 0 2.542 1.894 5.83-.234l-.11-.648zm-.969-3.967s-2.762-2.294-5.624.727c0 0 3.006 1.937 5.73-.105l-.106-.622zm-.27-3.303s-2.274-3.572-5.515-1.385c0 0 2.478 3.096 5.479 2.04l.035-.655z"/>
        <path fill="#1A688B" d="M74.713 54.966s-2.274-3.64-5.552-1.281c0 0 2.796 3.226 5.485 1.91l.067-.63zm.407-3.619s-1.364-4.162-4.384-4.09c0 0 1.395 4.4 4.122 4.92l.262-.83zm.23-3.456s-1.122-5.094-3.603-4.897c0 0 .747 3.885 3.452 5.666l.151-.769zm1.037-4.273s-1.459-4.162-3.885-4.322c0 0 .996 4.092 3.833 5.4l.052-1.078zm.832-3.642s-.782-4.444-2.323-4.878c0 0-.198 4.162 2.007 5.51l.316-.632zm.623-3.592s-.98-4.55-2.57-4.963c0 0 .11 3.703 2.4 5.3l.17-.337zm.875-4.313s-.645-3.722-1.85-4.436c0 0-.356 4.244 1.424 5.27l.426-.834z"/>
        <path fill="#1A688B" d="m78.66 28.451-2.085-6.044s-.53 5.298 2.323 7.155l-.239-1.111zm-.85-6.194s-3.35-3.762-3.365-4.236c0 0 1.025 4.322 4.71 5.99l-1.345-1.754zm.097-1.28s-3.497-5.537-4.71-5.843c0 0 3.85 1.172 4.879 5.642l-.169.202z"/>
        <path fill="#444053" d="m78.488 32.7-.178-.024c.989-6.84.804-11.083-.522-11.943l.103-.141c1.404.911 1.611 5.096.597 12.108Z"/>
        <path fill="#444053" d="m75.305 48.85-.266-.046c.121-.633.258-1.281.409-1.912 1.305-5.538 2.355-10.664 2.912-14.568l.2-.138c-.565 3.905-1.54 9.212-2.85 14.756-.148.64-.286 1.279-.405 1.908Z"/>
        <path fill="#444053" d="M86.72 83.912c-.04-.03-4.067-3.154-7.5-9.015a36.032 36.032 0 0 1-4.238-11.001c-.99-4.822-.841-10.406.15-15.597l.237.19c-2.229 11.668 1.01 20.87 4.15 26.227 3.4 5.808 7.38 8.898 7.42 8.929l-.218.267Z"/>
    </g>
    <path fill="#7EBC89" d="m129.997 42.588-6.505-6.548a3.452 3.452 0 0 0-4.906-.033L77.74 76.549 60.469 59.125a3.442 3.442 0 0 0-4.87-.035l-6.575 6.512a3.496 3.496 0 0 0-.033 4.91l26.228 26.462a3.488 3.488 0 0 0 4.905.035l49.836-49.512a3.46 3.46 0 0 0 .037-4.909Z"/>
    <path fill="#1A688B" d="M119.79 96.15s-5.273-.273-4.656 2.902c-.065.33.125.659.47.815 0 0 0-.236.54-.156.189.028.381.036.573.024.259-.015.505-.102.7-.248 0 0 1.481-.526 2.059-2.608 0 0 .426-.454.408-.57l-.89.327s.306.55.066 1.008c0 0-.029-.99-.2-.965-.034 0-.462.19-.462.19s.518.96.128 1.66c0 0 .15-1.185-.292-1.59l-.625.314s.61.993.196 1.802c0 0 .107-1.242-.33-1.725l-.566.38s.574.977.224 1.65c0 0-.045-1.446-.345-1.556 0 0-.497.377-.572.532 0 0 .393.71.15 1.085 0 0-.15-.965-.273-.968 0 0-.495.637-.546 1.074.023-.404.17-.796.425-1.136a1.589 1.589 0 0 0-.756.338s.075-.445.879-.492c0 0 .408-.483.517-.513 0 0-.798-.057-1.283.128 0 0 .426-.427 1.428-.233l.56-.392s-1.05-.125-1.496.012c0 0 .517-.377 1.648-.103l.61-.312s-.896-.166-1.43-.107c0 0 .563-.26 1.61.022l.436-.169s-.657-.11-.85-.127c-.193-.016-.202-.064-.202-.064.416-.059.843-.018 1.233.119 0 0 .93-.298.914-.348ZM110.886 71.06s-2.329 4.527.782 5.645a.708.708 0 0 0 .921.014s-.209-.132.072-.56c.1-.154.183-.32.249-.496.088-.238.106-.5.053-.751 0 0 .109-1.59-1.541-3.194 0 0-.242-.617-.352-.663l-.057.96s.616.02.935.473c0 0-.9-.494-.95-.33-.01.033-.011.513-.011.513s1.074.042 1.548.758c0 0-1.008-.754-1.55-.576l.037.72s1.136-.02 1.703.772c0 0-1.078-.748-1.685-.616l.118.703s1.11 0 1.576.667c0 0-1.321-.718-1.538-.514 0 0 .15.637.252.786 0 0 .796.024 1.038.438 0 0-.929-.374-.982-.268 0 0 .381.773.75 1.05a2.54 2.54 0 0 1-.856-.976 1.68 1.68 0 0 0 0 .857s-.376-.305-.094-1.029c0 0-.276-.615-.26-.728 0 0-.366.677-.391 1.2 0 0-.217-.602.353-1.389l-.132-.703s-.526.868-.58 1.334c0 0-.136-.653.56-1.514l-.043-.704s-.504.706-.66 1.21c0 0-.013-.636.654-1.414l.021-.475s-.36.525-.45.686c-.09.16-.136.145-.136.145.11-.399.315-.755.593-1.028 0 0 .105-.991.053-1.003ZM95.867 38.11s-2.328 4.529.781 5.645a.705.705 0 0 0 .922.014s-.209-.132.073-.561c.1-.154.182-.32.248-.495.088-.238.106-.501.052-.751 0 0 .111-1.59-1.54-3.194 0 0-.242-.615-.353-.662l-.057.959s.618.02.936.473c0 0-.9-.494-.95-.331-.01.034-.01.514-.01.514s1.073.041 1.547.758c0 0-1.009-.754-1.55-.576l.038.72s1.135-.02 1.702.771c0 0-1.079-.745-1.686-.615l.118.703s1.11 0 1.578.668c0 0-1.322-.72-1.54-.514 0 0 .15.636.254.785 0 0 .794.024 1.036.437 0 0-.928-.373-.98-.267 0 0 .38.775.75 1.049a2.54 2.54 0 0 1-.858-.974c-.071.277-.071.57 0 .847 0 0-.376-.305-.094-1.037 0 0-.276-.615-.26-.729 0 0-.365.678-.391 1.2 0 0-.216-.601.356-1.388l-.134-.703s-.526.867-.579 1.334c0 0-.138-.653.558-1.514l-.042-.705s-.504.707-.66 1.21c0 0-.014-.635.654-1.412l.021-.476s-.36.524-.45.685c-.09.161-.136.146-.136.146.112-.4.32-.756.6-1.029 0 0 .097-.965.046-.985ZM42.812 7.086s-10.052 6.578-3.398 11.79c0 0 .753 1.234 2.271.922 0 0-.393-.46.712-1.024a5.662 5.662 0 0 0 1.081-.727c.443-.375.738-.87.84-1.41 0 0 1.778-2.998-.798-7.737 0 0-.016-1.44-.25-1.638l-1.044 1.82s1.511.64 1.875 1.835c0 0-1.776-1.846-2.045-1.566-.054.055-.508.987-.508.987s2.624 1.124 3.122 2.985c0 0-1.788-2.456-3.305-2.634l-.59 1.442s2.837 1.067 3.495 3.166c0 0-1.97-2.507-3.6-2.843l-.37 1.49s2.745 1.088 3.28 2.837c0 0-2.61-2.69-3.338-2.492 0 0-.247 1.385-.117 1.781 0 0 1.952.823 2.16 1.864 0 0-1.95-1.632-2.179-1.475 0 0 .212 1.88.88 2.783 0 0-1.094-1.267-1.205-2.738 0 0-.746.783-.788 1.662 0 0-.647-.963.743-2.12 0 0-.1-1.472.048-1.675 0 0-1.551.966-2.11 1.969 0 0 .034-1.385 2.192-2.367l.334-1.502s-2.123 1.18-2.696 2.036c0 0 .277-1.41 2.814-2.415l.564-1.418s-1.913.892-2.783 1.723c0 0 .569-1.253 2.957-2.125l.499-.909s-1.392.674-1.765.9c-.374.225-.479.156-.479.156a5.435 5.435 0 0 1 2.446-1.436s1.172-1.823 1.055-1.897ZM33.884 28.496S21.989 23.35 20.43 32.627c0 0-.813 1.447.318 2.642 0 0 .243-.642 1.393.02.41.234.846.417 1.299.544.61.173 1.259.138 1.848-.101 0 0 3.91-.218 7.202-5.482 0 0 1.41-.897 1.481-1.234l-2.359.164s.181 1.775-.795 2.84c0 0 .867-2.755.45-2.832-.085-.017-1.246.14-1.246.14s.3 3.088-1.273 4.685c0 0 1.46-3.14.824-4.629l-1.738.345s.477 3.249-1.244 5.137c0 0 1.414-3.338.868-5.033l-1.667.576s.402 3.176-1.037 4.745c0 0 1.256-4.027.665-4.582 0 0-1.499.625-1.82.982 0 0 .238 2.29-.678 3.117 0 0 .563-2.782.285-2.896 0 0-1.742 1.348-2.274 2.512 0 0 .664-1.777 2.054-2.782 0 0-1.168-.205-2.068.3 0 0 .603-1.18 2.49-.62 0 0 1.398-.997 1.678-.983 0 0-1.785-.818-3.075-.716 0 0 1.382-.819 3.511.548l1.66-.619s-2.306-1.216-3.462-1.21c0 0 1.536-.613 3.894 1.09l1.702-.362s-1.909-1.203-3.197-1.481c0 0 1.544-.252 3.687 1.399l1.165-.1s-1.41-.854-1.836-1.062c-.426-.208-.407-.342-.407-.342a5.49 5.49 0 0 1 2.731 1.352s2.414-.051 2.425-.203ZM26.919 16.246S22.62 5.354 16.44 10.35c0 0-1.309.416-1.297 1.903 0 0 .509-.26.83.9.12.412.283.806.486 1.176.272.501.685.891 1.178 1.111 0 0 2.49 2.35 7.46 1.047 0 0 1.36.318 1.593.148l-1.52-1.4s-.891 1.263-2.088 1.323c0 0 2.08-1.226 1.872-1.541-.043-.064-.834-.7-.834-.7s-1.562 2.183-3.405 2.216c0 0 2.657-1.098 3.111-2.462l-1.248-.889s-1.568 2.406-3.675 2.532c0 0 2.74-1.253 3.368-2.697l-1.334-.68s-1.55 2.31-3.303 2.397c0 0 3.034-1.799 2.987-2.533 0 0-1.26-.551-1.66-.52 0 0-1.146 1.628-2.17 1.581 0 0 1.913-1.438 1.807-1.689 0 0-1.816-.238-2.794.178 0 0 1.405-.725 2.814-.487 0 0-.592-.876-1.42-1.12 0 0 1.034-.379 1.86 1.182 0 0 1.408.25 1.572.434 0 0-.616-1.67-1.46-2.421 0 0 1.298.355 1.819 2.59l1.354.66s-.709-2.255-1.413-2.985c0 0 1.276.583 1.744 3.182l1.23.851s-.476-1.99-1.098-2.992c0 0 1.077.822 1.444 3.252l.762.676s-.373-1.448-.514-1.853c-.141-.405-.052-.48-.052-.48.511.763.82 1.666.89 2.61 0 0 1.492 1.491 1.583 1.397ZM107.872 20.83s-.977-3.75-4.063-2.611c-.352.027-.642.232-.718.508 0 0 .242-.046.287.344.017.139.055.275.111.406.078.178.225.33.42.436 0 0 .888.92 3.143.862 0 0 .564.198.68.16l-.546-.55s-.49.335-1.011.269c0 0 1-.239.938-.354-.015-.024-.305-.281-.305-.281s-.853.579-1.658.457c0 0 1.24-.157 1.548-.556l-.468-.369s-.866.648-1.788.537c0 0 1.29-.2 1.678-.612l-.522-.312s-.859.617-1.626.521c0 0 1.46-.352 1.5-.587 0 0-.5-.264-.677-.283 0 0-.625.432-1.067.345 0 0 .938-.317.92-.405 0 0-.767-.205-1.225-.144.418-.072.851-.056 1.258.046a1.209 1.209 0 0 0-.523-.454s.478-.047.71.5c0 0 .588.178.645.25 0 0-.132-.572-.435-.875 0 0 .534.203.577.948l.532.305s-.123-.762-.368-1.045c0 0 .504.276.495 1.125l.469.358s-.044-.664-.231-1.024c0 0 .398.336.359 1.125l.275.269s-.042-.484-.07-.625c-.028-.142.015-.156.015-.156.16.278.22.586.174.89 0 0 .52.604.567.582ZM90.931 108.845s-.975-3.75-4.062-2.611c-.353.027-.644.232-.72.509 0 0 .242-.047.287.343.017.139.055.275.112.407.078.177.225.33.42.434 0 0 .887.92 3.143.863 0 0 .564.197.678.16l-.544-.55s-.489.335-1.012.269c0 0 1-.239.937-.354-.012-.024-.304-.281-.304-.281s-.853.578-1.658.457c0 0 1.24-.157 1.548-.556l-.469-.375s-.856.65-1.78.535c0 0 1.288-.2 1.677-.611l-.522-.313s-.857.618-1.625.521c0 0 1.461-.35 1.5-.587 0 0-.501-.264-.676-.282 0 0-.625.432-1.069.345 0 0 .938-.318.92-.406 0 0-.767-.204-1.225-.143a3.052 3.052 0 0 1 1.26.046 1.219 1.219 0 0 0-.524-.455s.477-.046.708.5c0 0 .59.179.647.25 0 0-.131-.571-.434-.875 0 0 .534.204.575.949l.534.305s-.125-.763-.37-1.045c0 0 .506.276.497 1.125l.468.357s-.043-.663-.232-1.023c0 0 .4.336.36 1.124l.276.27s-.044-.485-.072-.626c-.028-.141.015-.155.015-.155.16.278.22.586.174.889 0 0 .519.609.562.59Z" opacity=".5"/>
</svg>
