<svg xmlns="http://www.w3.org/2000/svg" viewBox="0 0 150 122">
    <defs>
        <linearGradient id="a" x1="50%" x2="50%" y1="100%" y2="0%">
            <stop offset="0%"/>
            <stop offset="55%"/>
            <stop offset="100%"/>
        </linearGradient>
    </defs>
    <g fill="none">
        <path fill="#F0F0F0" d="M128.384 117.216H99.336L49.86 122 0 117.216V0l49.653 3.588L100.378 0 150 6.777l-1.273 90.015z"/>
        <path fill="#FFF" d="M126.96 115.532H98.687l-48.157 4.633L2 115.532V2l48.329 3.475L99.701 2 148 8.564l-1.239 87.186z"/>
        <g transform="translate(3 3)">
            <path fill="#5B937A" d="M94.713 110.529 48.535 115 2 110.529V1l46.344 3.353L95.686 1 142 7.333v86.058l-17.014 17.138z"/>
            <path fill="#FFF" d="M111.316 111.049 64.725 83.288 89.062.269h-9.661l-9.95 33.29L.786.269v11.13l65.469 32.748-21.31 71.461h9.676l6.908-21.732 30.189 17.173z"/>
            <path fill="#000" opacity=".1" d="m49.294 114.817 46.1-4.471V.817l-46.1 3.354"/>
            <path fill="#FFF" d="m124.294 112.596.321-20.642 19.633.804z"/>
            <path fill="#000" d="M93 40.648C93 50.4 74.5 78 74.5 78S56 50.4 56 40.648C56 30.896 64.283 23 74.5 23S93 30.901 93 40.648Z"/>
            <ellipse cx="75.44" cy="40.005" fill="url(#a)" rx="5.505" ry="5.161"/>
            <path fill="#155775" d="M90.151 41.208c0 8.696-15.822 33.333-15.822 33.333S58.506 49.904 58.506 41.208a15.747 15.747 0 0 1 7.776-14.021 15.876 15.876 0 0 1 16.081 0 15.747 15.747 0 0 1 7.776 14.02h.012Z"/>
            <circle cx="75.096" cy="40.693" r="4.472" fill="#FFF"/>
        </g>
    </g>
</svg>
