<svg width="100%" height="100%" viewBox="0 0 800 150" style="fill: white" version="1.1" xmlns="http://www.w3.org/2000/svg">
    <g id="logo" transform="matrix(0.407778,0,0,0.407778,22.5,24.5386)">
        <path d="M220.71,162.804L220.056,163.027L218.827,163.43C218.396,163.567 217.965,163.702 217.532,163.832L216.43,164.156L215.055,164.538L213.822,164.858L212.537,165.171L211.21,165.472L210.259,165.674L209.474,165.832L208.407,166.034L207.056,166.269L206.257,166.398L205.502,166.512C204.975,166.589 204.446,166.661 203.918,166.729L202.987,166.842L202.146,166.935L201.087,167.04L200.232,167.116L199.666,167.161L198.667,167.23L197.45,167.3L196.42,167.344L195.366,167.377L194.555,167.393L193.634,167.402L192.843,167.402L191.986,167.393L190.713,167.364L189.365,167.312L188.362,167.26L188.209,167.251C187.819,167.228 187.429,167.201 187.039,167.172L185.718,167.064L184.351,166.93L183.699,166.858L182.865,166.759C182.104,166.665 181.343,166.56 180.584,166.444L179.967,166.348L179.116,166.208L178.054,166.02L176.876,165.795L175.911,165.598L175.2,165.446L166.124,178.027C151.298,172.436 141.968,164.94 136.659,159.477L136.405,159.214L124.642,170.976L124.642,183.441L31.161,276.922L0,245.761L93.481,152.281L105.946,152.281L117.748,140.479L117.239,140.001C111.744,134.775 103.979,125.373 98.233,110.137L111.243,100.711C105.738,74.039 113.292,45.221 133.99,24.523L134.435,24.082L135.215,23.323L136.144,22.444L137.082,21.582L137.527,21.182L138.139,20.642L138.54,20.294L139.253,19.685L139.846,19.189L140.256,18.851C140.866,18.353 141.48,17.864 142.1,17.386L142.811,16.843L143.597,16.257L143.761,16.136C176.52,-7.883 222.79,-5.087 252.4,24.523C285.097,57.221 285.098,110.235 252.4,142.932C249.859,145.473 247.196,147.815 244.43,149.959C244.013,150.282 243.594,150.601 243.172,150.915L242.246,151.596L241.199,152.341L240.064,153.123L239.524,153.485L238.927,153.878L238.097,154.413L237.305,154.91L236.728,155.265L235.702,155.879L235.121,156.219L234.556,156.542L233.99,156.861C233.663,157.043 233.336,157.223 233.007,157.4C232.569,157.637 232.128,157.87 231.686,158.098L230.471,158.713L229.411,159.23L228.318,159.743L227.816,159.973L226.555,160.531L225.283,161.07L224.005,161.585L223.846,161.647C223.41,161.818 222.972,161.986 222.533,162.149L221.661,162.468L220.71,162.804ZM249.974,164.504L250.358,165.51L230.56,217.479L178.59,237.275L126.621,217.479L102.705,226.588L139.642,189.654L139.641,181.3L139.779,181.394C145.876,185.449 152.879,189.064 160.832,192.062L171.574,196.113L181.929,181.756L182.811,181.854C206.514,184.373 230.376,178.291 249.974,164.504ZM126.62,9.601L127.572,9.962C126.147,11.232 124.75,12.55 123.383,13.917L122.674,14.633C102.002,35.727 92.221,64.438 94.943,93.038L95.032,93.932L80.157,104.711L84.198,115.429L84.521,116.276C87.556,124.143 91.19,131.046 95.253,137.046L95.413,137.28L87.268,137.281L32.288,192.26L42.479,165.509L22.681,113.54L42.479,61.571L22.681,9.601L74.651,29.4L126.62,9.601ZM237.443,39.481C213.005,15.043 173.385,15.043 148.947,39.481C124.51,63.918 124.51,103.539 148.947,127.976C173.384,152.413 213.005,152.413 237.443,127.976C261.88,103.539 261.88,63.918 237.443,39.481Z"/>
    </g>
    <g id="wordmark" transform="matrix(14.1311,0,0,10.3636,-1067.78,-225.545)">
        <path d="M89.505,29.125C89.505,29.764 89.355,30.313 89.055,30.772C88.754,31.23 88.335,31.459 87.799,31.459C87.258,31.459 86.844,31.23 86.555,30.772C86.267,30.313 86.122,29.769 86.122,29.139C86.122,28.481 86.275,27.928 86.581,27.479C86.887,27.029 87.299,26.805 87.819,26.805C88.349,26.805 88.762,27.033 89.06,27.489C89.357,27.945 89.505,28.491 89.505,29.125ZM88.767,29.153C88.767,28.671 88.685,28.296 88.522,28.027C88.359,27.759 88.123,27.624 87.814,27.624C87.484,27.624 87.243,27.767 87.09,28.052C86.938,28.337 86.861,28.692 86.861,29.118C86.861,29.53 86.936,29.887 87.085,30.188C87.235,30.489 87.484,30.64 87.834,30.64C88.157,30.64 88.393,30.502 88.542,30.226C88.692,29.951 88.767,29.593 88.767,29.153Z"/>
        <path d="M92.476,29.75C92.476,30.213 92.387,30.614 92.208,30.952C92.03,31.29 91.768,31.459 91.421,31.459C91.099,31.459 90.864,31.304 90.718,30.994L90.718,32.175L91.126,32.175L91.126,32.87L89.755,32.87L89.755,32.175L90.061,32.175L90.061,28.931L89.73,28.931L89.73,28.257L90.718,28.257L90.718,28.854C90.779,28.673 90.871,28.518 90.993,28.389C91.116,28.259 91.282,28.194 91.493,28.194C91.785,28.194 92.022,28.331 92.203,28.604C92.385,28.877 92.476,29.259 92.476,29.75ZM91.793,29.841C91.793,29.535 91.743,29.302 91.643,29.142C91.543,28.983 91.414,28.903 91.258,28.903C91.088,28.903 90.958,28.988 90.868,29.16C90.778,29.331 90.73,29.549 90.723,29.813L90.718,29.924C90.718,30.179 90.767,30.38 90.866,30.528C90.964,30.677 91.095,30.751 91.258,30.751C91.414,30.751 91.543,30.677 91.643,30.528C91.743,30.38 91.793,30.151 91.793,29.841Z"/>
        <path d="M94.998,30.403C94.981,30.681 94.881,30.927 94.697,31.14C94.514,31.353 94.258,31.459 93.928,31.459C93.585,31.459 93.302,31.327 93.08,31.063C92.857,30.799 92.746,30.406 92.746,29.882C92.746,29.401 92.847,28.999 93.049,28.677C93.251,28.355 93.534,28.194 93.897,28.194C94.217,28.194 94.476,28.319 94.674,28.569C94.873,28.819 94.974,29.148 94.978,29.556C94.978,29.709 94.966,29.859 94.942,30.007L93.434,30.007C93.471,30.503 93.651,30.751 93.974,30.751C94.151,30.751 94.27,30.693 94.333,30.577C94.396,30.461 94.434,30.357 94.448,30.264L94.998,30.403ZM94.3,29.486C94.314,29.329 94.289,29.181 94.226,29.042C94.163,28.903 94.054,28.833 93.897,28.833C93.762,28.833 93.656,28.893 93.582,29.014C93.507,29.134 93.459,29.292 93.439,29.486L94.3,29.486Z"/>
        <path d="M98.111,31.39L96.842,31.39L96.842,30.716L97.148,30.716L97.148,29.625C97.148,29.357 97.115,29.164 97.049,29.049C96.983,28.933 96.885,28.875 96.756,28.875C96.6,28.875 96.479,28.941 96.394,29.073C96.309,29.205 96.265,29.377 96.262,29.591L96.262,30.716L96.567,30.716L96.567,31.39L95.299,31.39L95.299,30.716L95.604,30.716L95.604,28.937L95.273,28.937L95.273,28.257L96.262,28.257L96.262,28.736C96.414,28.375 96.661,28.194 97,28.194C97.218,28.194 97.406,28.282 97.566,28.458C97.726,28.634 97.805,28.907 97.805,29.278L97.805,30.716L98.111,30.716L98.111,31.39Z"/>
        <path d="M100.903,30.021C100.903,30.489 100.788,30.846 100.557,31.091C100.326,31.337 100.008,31.459 99.604,31.459C99.38,31.459 99.156,31.42 98.934,31.341C98.711,31.263 98.536,31.144 98.407,30.987L98.509,29.868L99.054,29.938L99.049,30.487C99.164,30.57 99.263,30.62 99.344,30.636C99.426,30.652 99.495,30.66 99.553,30.66C99.733,30.66 99.881,30.629 99.996,30.567C100.112,30.504 100.17,30.359 100.17,30.132C100.17,29.882 100.102,29.714 99.966,29.629C99.83,29.543 99.67,29.477 99.487,29.431C99.327,29.394 99.167,29.339 99.005,29.267C98.844,29.196 98.709,29.078 98.6,28.913C98.492,28.749 98.437,28.504 98.437,28.18C98.437,27.675 98.563,27.32 98.814,27.114C99.066,26.908 99.341,26.805 99.64,26.805C99.857,26.805 100.064,26.85 100.261,26.94C100.458,27.03 100.609,27.152 100.715,27.305L100.745,28.284L100.2,28.354L100.154,27.826C100.069,27.747 99.984,27.694 99.897,27.666C99.81,27.638 99.726,27.624 99.645,27.624C99.509,27.624 99.396,27.657 99.306,27.722C99.216,27.787 99.171,27.9 99.171,28.062C99.171,28.252 99.229,28.384 99.344,28.458C99.46,28.532 99.592,28.592 99.742,28.639C99.877,28.676 100.036,28.728 100.218,28.795C100.4,28.862 100.559,28.987 100.697,29.17C100.834,29.353 100.903,29.637 100.903,30.021Z"/>
        <path d="M103.181,30.417C103.147,30.779 103.055,31.043 102.906,31.209C102.756,31.376 102.563,31.459 102.325,31.459C102.07,31.459 101.864,31.373 101.706,31.199C101.548,31.025 101.469,30.776 101.469,30.452L101.469,28.896L101.143,28.896L101.143,28.257L101.469,28.257L101.469,27.305L102.126,27.305L102.126,28.257L102.951,28.257L102.951,28.896L102.126,28.896L102.126,30.299C102.126,30.572 102.218,30.709 102.401,30.709C102.442,30.709 102.497,30.685 102.567,30.636C102.636,30.587 102.681,30.447 102.702,30.216L103.181,30.417Z"/>
        <path d="M104.791,28.215C104.855,28.215 104.928,28.228 105.007,28.253C105.087,28.279 105.166,28.324 105.244,28.389L105.346,29.486L104.847,29.563L104.76,29.028C104.692,28.972 104.633,28.944 104.582,28.944C104.507,28.944 104.442,28.984 104.386,29.063C104.33,29.141 104.302,29.257 104.302,29.41L104.302,30.716L104.709,30.716L104.709,31.39L103.339,31.39L103.339,30.716L103.644,30.716L103.644,28.937L103.313,28.937L103.313,28.257L104.251,28.257L104.251,28.854C104.288,28.673 104.348,28.522 104.432,28.399C104.515,28.276 104.635,28.215 104.791,28.215Z"/>
        <path d="M107.848,30.403C107.831,30.681 107.731,30.927 107.547,31.14C107.364,31.353 107.107,31.459 106.778,31.459C106.435,31.459 106.152,31.327 105.93,31.063C105.707,30.799 105.596,30.406 105.596,29.882C105.596,29.401 105.697,28.999 105.899,28.677C106.101,28.355 106.384,28.194 106.747,28.194C107.067,28.194 107.326,28.319 107.524,28.569C107.723,28.819 107.824,29.148 107.828,29.556C107.828,29.709 107.816,29.859 107.792,30.007L106.284,30.007C106.321,30.503 106.501,30.751 106.824,30.751C107,30.751 107.12,30.693 107.183,30.577C107.246,30.461 107.284,30.357 107.298,30.264L107.848,30.403ZM107.15,29.486C107.163,29.329 107.139,29.181 107.076,29.042C107.013,28.903 106.904,28.833 106.747,28.833C106.611,28.833 106.506,28.893 106.431,29.014C106.357,29.134 106.309,29.292 106.289,29.486L107.15,29.486Z"/>
        <path d="M110.36,30.403C110.343,30.681 110.243,30.927 110.059,31.14C109.876,31.353 109.619,31.459 109.29,31.459C108.947,31.459 108.664,31.327 108.441,31.063C108.219,30.799 108.108,30.406 108.108,29.882C108.108,29.401 108.209,28.999 108.411,28.677C108.613,28.355 108.896,28.194 109.259,28.194C109.579,28.194 109.838,28.319 110.036,28.569C110.235,28.819 110.336,29.148 110.339,29.556C110.339,29.709 110.328,29.859 110.304,30.007L108.796,30.007C108.833,30.503 109.013,30.751 109.336,30.751C109.512,30.751 109.632,30.693 109.695,30.577C109.758,30.461 109.796,30.357 109.81,30.264L110.36,30.403ZM109.662,29.486C109.675,29.329 109.651,29.181 109.588,29.042C109.525,28.903 109.416,28.833 109.259,28.833C109.123,28.833 109.018,28.893 108.943,29.014C108.869,29.134 108.821,29.292 108.801,29.486L109.662,29.486Z"/>
        <path d="M112.581,30.417C112.547,30.779 112.456,31.043 112.306,31.209C112.157,31.376 111.963,31.459 111.725,31.459C111.471,31.459 111.264,31.373 111.106,31.199C110.948,31.025 110.869,30.776 110.869,30.452L110.869,28.896L110.543,28.896L110.543,28.257L110.869,28.257L110.869,27.305L111.527,27.305L111.527,28.257L112.352,28.257L112.352,28.896L111.527,28.896L111.527,30.299C111.527,30.572 111.618,30.709 111.802,30.709C111.842,30.709 111.898,30.685 111.967,30.636C112.037,30.587 112.082,30.447 112.102,30.216L112.581,30.417Z"/>
        <path d="M117.019,27.666L116.612,27.666L116.612,30.598L116.968,30.598L116.968,31.39L115.638,31.39L115.638,30.598L115.929,30.598L115.929,28.875L115.908,28.875L115.037,31.022L114.752,31.022L113.814,28.792L113.794,28.792L113.794,30.598L114.11,30.598L114.11,31.39L112.8,31.39L112.8,30.598L113.157,30.598L113.157,27.666L112.749,27.666L112.749,26.874L113.728,26.874L114.905,29.674L114.925,29.674L116.031,26.874L117.019,26.874L117.019,27.666Z"/>
        <path d="M117.534,28.479C117.734,28.368 117.901,28.293 118.036,28.253C118.17,28.214 118.33,28.194 118.517,28.194C118.765,28.194 118.979,28.282 119.159,28.458C119.339,28.634 119.429,28.9 119.429,29.257L119.429,30.619C119.429,30.781 119.482,30.862 119.587,30.862C119.618,30.862 119.65,30.855 119.684,30.841L119.689,31.313C119.557,31.411 119.419,31.459 119.276,31.459C118.974,31.459 118.806,31.253 118.772,30.841L118.772,30.834C118.707,30.992 118.615,31.135 118.494,31.265C118.374,31.395 118.22,31.459 118.033,31.459C117.867,31.459 117.707,31.392 117.554,31.258C117.401,31.124 117.325,30.892 117.325,30.563C117.325,30.179 117.438,29.924 117.664,29.799C117.89,29.674 118.133,29.611 118.395,29.611C118.541,29.611 118.667,29.621 118.772,29.639L118.772,29.535C118.772,29.373 118.756,29.215 118.723,29.063C118.691,28.91 118.582,28.833 118.395,28.833C118.327,28.833 118.265,28.839 118.209,28.851C118.153,28.862 118.098,28.887 118.043,28.924L117.957,29.368L117.432,29.292L117.534,28.479ZM118.772,30.112L118.772,30.07C118.718,30.061 118.662,30.051 118.606,30.042C118.55,30.033 118.495,30.028 118.441,30.028C118.325,30.028 118.223,30.057 118.135,30.115C118.047,30.173 118.002,30.288 118.002,30.459C118.002,30.561 118.023,30.647 118.064,30.716C118.104,30.785 118.174,30.82 118.273,30.82C118.388,30.82 118.496,30.763 118.596,30.65C118.696,30.537 118.755,30.357 118.772,30.112Z"/>
        <path d="M122.614,29.75C122.614,30.213 122.524,30.614 122.346,30.952C122.168,31.29 121.905,31.459 121.559,31.459C121.236,31.459 121.002,31.304 120.856,30.994L120.856,32.175L121.263,32.175L121.263,32.87L119.893,32.87L119.893,32.175L120.198,32.175L120.198,28.931L119.867,28.931L119.867,28.257L120.856,28.257L120.856,28.854C120.917,28.673 121.009,28.518 121.131,28.389C121.253,28.259 121.42,28.194 121.63,28.194C121.922,28.194 122.159,28.331 122.341,28.604C122.523,28.877 122.614,29.259 122.614,29.75ZM121.931,29.841C121.931,29.535 121.881,29.302 121.781,29.142C121.68,28.983 121.552,28.903 121.396,28.903C121.226,28.903 121.096,28.988 121.006,29.16C120.916,29.331 120.868,29.549 120.861,29.813L120.856,29.924C120.856,30.179 120.905,30.38 121.004,30.528C121.102,30.677 121.233,30.751 121.396,30.751C121.552,30.751 121.68,30.677 121.781,30.528C121.881,30.38 121.931,30.151 121.931,29.841Z"/>
        <path d="M127.306,27.666L127.011,27.666L127.011,29.521C127.011,29.841 126.967,30.149 126.878,30.445C126.79,30.741 126.642,30.985 126.435,31.175C126.228,31.364 125.947,31.459 125.594,31.459C125.092,31.459 124.737,31.271 124.529,30.893C124.322,30.516 124.219,30.084 124.219,29.597L124.219,27.666L123.923,27.666L123.923,26.874L125.289,26.874L125.289,27.666L124.901,27.666L124.901,29.57C124.901,29.88 124.956,30.136 125.067,30.337C125.177,30.539 125.365,30.64 125.63,30.64C125.891,30.64 126.081,30.538 126.198,30.334C126.315,30.13 126.374,29.859 126.374,29.521L126.374,27.666L125.987,27.666L125.987,26.874L127.306,26.874L127.306,27.666Z"/>
        <path d="M130.175,30.021C130.175,30.489 130.059,30.846 129.828,31.091C129.597,31.337 129.28,31.459 128.875,31.459C128.651,31.459 128.428,31.42 128.205,31.341C127.983,31.263 127.807,31.144 127.678,30.987L127.78,29.868L128.325,29.938L128.32,30.487C128.436,30.57 128.534,30.62 128.616,30.636C128.697,30.652 128.767,30.66 128.825,30.66C129.005,30.66 129.152,30.629 129.268,30.567C129.383,30.504 129.441,30.359 129.441,30.132C129.441,29.882 129.373,29.714 129.237,29.629C129.101,29.543 128.942,29.477 128.758,29.431C128.599,29.394 128.438,29.339 128.277,29.267C128.115,29.196 127.98,29.078 127.872,28.913C127.763,28.749 127.709,28.504 127.709,28.18C127.709,27.675 127.834,27.32 128.086,27.114C128.337,26.908 128.612,26.805 128.911,26.805C129.129,26.805 129.336,26.85 129.533,26.94C129.73,27.03 129.881,27.152 129.986,27.305L130.017,28.284L129.472,28.354L129.426,27.826C129.341,27.747 129.255,27.694 129.168,27.666C129.082,27.638 128.998,27.624 128.916,27.624C128.78,27.624 128.667,27.657 128.577,27.722C128.487,27.787 128.442,27.9 128.442,28.062C128.442,28.252 128.5,28.384 128.616,28.458C128.731,28.532 128.864,28.592 129.013,28.639C129.149,28.676 129.308,28.728 129.489,28.795C129.671,28.862 129.831,28.987 129.968,29.17C130.106,29.353 130.175,29.637 130.175,30.021Z"/>
    </g>
</svg>