<svg xmlns="http://www.w3.org/2000/svg" width="115" height="116">
    <g fill="none" fill-rule="evenodd">
        <path fill="#FFF" d="m51.867 1.376.018-.002.389-.034h.011a75.777 75.777 0 0 1 3.652-.206 75.483 75.483 0 0 1 .877-.016c.2-.002.4-.003.601-.003.117 0 .234-.002.354-.004l.076-.002c.135-.002.268-.002.401-.002l.145.002a.552.552 0 0 0 .054.004l.58.015c.012.002.024.002.037.003l.215.007.111.004h.009a.825.825 0 0 0 .038.002l.278.011.037.002.021.001.507.024.01.001h.01c.399.023.755.045 1.09.066l.008.001c1.268.097 2.493.221 3.64.37 1.474.207 2.968.471 4.442.786l.173.038.171.038.048.011c1.547.359 3.062.77 4.5 1.221a57.21 57.21 0 0 1 4.99 1.83c.679.288 1.334.58 2.003.895.253.113.53.245.848.406l.015.007.137.066.397.196.03.015c.098.05.184.092.236.116a57.718 57.718 0 0 1 8.937 5.668 59.742 59.742 0 0 1 5.402 4.765 58.784 58.784 0 0 1 4.83 5.484 59.242 59.242 0 0 1 3.934 5.836 55.62 55.62 0 0 1 3.398 6.752 74.98 74.98 0 0 1 1.53 3.99.58.58 0 0 0 .028.072 69.516 69.516 0 0 1 1.282 4.234c.02.056.04.102.06.135.028.085.055.19.083.324l.012.014.016.07.02.108c.082.31.143.58.22.922l.004.012.007.033.008.033.008.035.004.018.004.018.005.02.003.015c.113.536.22 1.096.34 1.761.01.086.025.18.046.285v.009l.012.07c.034.206.065.396.093.576l.03.193.002.021c.035.229.075.494.112.757.147 1.13.277 2.302.385 3.483 0 .046.005.079.015.107a57.24 57.24 0 0 1 .192 3.156l.003.036c.005.21.008.42.01.63v.04c0 .658-.012 1.437-.037 2.316a52.578 52.578 0 0 1-.145 2.422 14.21 14.21 0 0 0-.096.884l-.001.013-.001.012-.001.008v.008l-.002.01v.008l-.001.012-.006.065-.038.395c-.04.372-.09.8-.177 1.527l-.002.012-.002.015-.025.198-.014.105-.023.16a.34.34 0 0 0-.01.086l-.01.071-.001.02-.015.109-.01.066-.01.075v.028a9.88 9.88 0 0 1-.04.287l-.01.074-.008.065v.043a70.2 70.2 0 0 1-.106.701l-.004.025-.008.064-.011.078a45.792 45.792 0 0 1-.348 1.884c-.081.374-.183.83-.322 1.439l-.01.037-.01.043-.007.033-.002.013-.002.014c-.094.378-.192.76-.293 1.136l-.007.03-.006.02-.003.01-.005.022-.011.04-.002.01-.006.021-.005.018-.003.01-.004.015-.05.182a57.256 57.256 0 0 1-2.14 6.496 2.817 2.817 0 0 0-.063.15l-.004.011-.006.014-.004.01-.004.012-.003.007-.004.011-.003.008-.004.01-.005.012-.028.072c-.091.233-.2.5-.334.814l-.014.031-.007.016-.003.007a58.338 58.338 0 0 1-3.06 6.154 56.695 56.695 0 0 1-3.4 5.24.36.36 0 0 0-.064.09c-.252.339-.52.694-.793 1.056a60.809 60.809 0 0 1-4.673 5.332 58.93 58.93 0 0 1-5.586 4.946 59.69 59.69 0 0 1-5.899 3.985 55.481 55.481 0 0 1-6.68 3.367 57.407 57.407 0 0 1-6.917 2.398 56.752 56.752 0 0 1-7.433 1.53c-2.55.335-5.139.504-7.693.504h-.09a57.428 57.428 0 0 1-7.422-.502 61.146 61.146 0 0 1-4.766-.858 55.813 55.813 0 0 1-5.454-1.517 54.96 54.96 0 0 1-7.269-2.994 57.943 57.943 0 0 1-4.754-2.656 56.95 56.95 0 0 1-4.715-3.248A58.416 58.416 0 0 1 12.7 92.193a58.96 58.96 0 0 1-3.292-4.742 55.039 55.039 0 0 1-1.7-2.92 58.733 58.733 0 0 1-3.096-6.694 57.871 57.871 0 0 1-.476-1.253c-.049-.13-.1-.258-.154-.391-.131-.36-.26-.72-.39-1.082-.12-.334-.259-.758-.399-1.225l-.002-.008-.003-.01-.005-.016-.002-.009-.004-.013a55.638 55.638 0 0 1-.74-2.602.196.196 0 0 0-.024-.056 57.651 57.651 0 0 1-.749-3.51c-.062-.35-.129-.737-.211-1.217l-.006-.035-.005-.026-.003-.017-.006-.04-.013-.07-.015-.096c-.084-.497-.15-.952-.269-1.78a88.907 88.907 0 0 1-.186-1.63c-.067-.737-.11-1.222-.15-1.74a62.961 62.961 0 0 1-.087-1.629 69.042 69.042 0 0 1-.025-.805v-.015l-.003-.071-.006-.206v-.022l-.003-.078-.002-.08-.004-.033-.005-.033a58.16 58.16 0 0 1-.01-1.891A51.95 51.95 0 0 1 .73 54.04c.068-1.212.165-2.305.297-3.343.038-.257.057-.378.079-.496a.183.183 0 0 0 .044-.102c.01-.054.02-.11.036-.18a.385.385 0 0 0 .079-.138c.035-.11.056-.21.064-.307l.009-.053.02-.083a.297.297 0 0 0 .035-.1c.027-.152.045-.245.062-.32a.346.346 0 0 0 .033-.1.312.312 0 0 0 .01-.068l.05-.261.003-.017.013-.056.022-.115c.091-.47.186-.954.282-1.435.197-.928.396-1.792.592-2.569a.554.554 0 0 0 .02-.069c.043-.162.085-.324.128-.494l.007-.028.009-.033.126-.484c.086-.336.19-.697.231-.837l.01-.036.008-.03.003-.007.006-.02.003-.013.01-.032.031-.11c.192-.687.417-1.414.71-2.29a53.7 53.7 0 0 1 1.524-4.053A57.505 57.505 0 0 1 12.7 23.072a60.866 60.866 0 0 1 4.616-5.251 58.463 58.463 0 0 1 5.514-4.883 59.486 59.486 0 0 1 5.753-3.907l.093-.056.012-.007.06-.036.055-.033.069-.041.037-.023.008-.004c.309-.187.467-.284.604-.37a1.71 1.71 0 0 1 .273-.164c.156-.091.313-.18.47-.27l.023-.013a.435.435 0 0 0 .1-.072c.203-.119.421-.238.666-.367a.795.795 0 0 0 .072-.048l.314-.167a.865.865 0 0 0 .075-.05 38.88 38.88 0 0 1 1.694-.862 41.532 41.532 0 0 1 1.81-.841.43.43 0 0 0 .053-.033c.206-.095.412-.185.667-.291a57.339 57.339 0 0 1 3.79-1.442 52.304 52.304 0 0 1 2.098-.656 41.584 41.584 0 0 1 2.401-.637c.937-.2 1.656-.353 2.373-.484l.189-.033.076-.013.084-.015.03-.006.018-.003.032-.006.016-.003.01-.002.527-.095c.21-.035.428-.068.594-.093l.032-.005a.42.42 0 0 0 .168-.015l.568-.083c.653-.08 1.368-.163 2.185-.254a.467.467 0 0 0 .047.003c.154-.007.269-.017.361-.032a.371.371 0 0 0 .084.003c.129-.01.259-.023.391-.034l.009-.001h.017l.028-.001ZM57.415 0h-.01l-.404.001h-.018l-.027.001h-.014a48.93 48.93 0 0 0-.412.005h-.059l-.448.01H56c-.137.004-.274.007-.41.012a59.23 59.23 0 0 0-3.3.202l-.03.003c-.13.012-.26.024-.39.038l-.122.016c-.108.012-.216.023-.323.036a.78.78 0 0 0-.153.024l-.01.002a.539.539 0 0 0-.034.01 11.37 11.37 0 0 0-.393.052.54.54 0 0 0-.039.012 60.17 60.17 0 0 0-2.876.448.526.526 0 0 0-.06.021c-.567.104-1.136.207-1.699.332-.784.173-1.568.348-2.345.553-.8.212-1.6.418-2.395.648-.705.204-1.405.421-2.102.65a.272.272 0 0 0-.043.011 63.373 63.373 0 0 0-4.553 1.703.462.462 0 0 0-.15.055c-.613.26-1.222.53-1.827.809-.567.261-1.127.536-1.685.814a.685.685 0 0 0-.114.046l-.293.15a.539.539 0 0 0-.105.045l-.66.346a.644.644 0 0 0-.13.053c-.26.138-.514.288-.78.413l-.39.206c-.195.104-.383.221-.572.333a52.314 52.314 0 0 0-1.56.962 59.372 59.372 0 0 0-8.05 6.199 57.387 57.387 0 0 0-3.703 3.73 58.958 58.958 0 0 0-3.439 4.175 57.077 57.077 0 0 0-5.32 8.57 57.316 57.316 0 0 0-3.827 9.689 48.19 48.19 0 0 0-.362 1.302c-.111.418-.22.838-.316 1.26a.55.55 0 0 0-.017.09 45.874 45.874 0 0 0-.853 4.63c0 .013-.002.024-.004.035a.293.293 0 0 0 .006.1l-.027.2a.642.642 0 0 0-.012.092l-.004.026h.003c0 .033.002.066.009.098l-.018.15c-.02.106-.027.213-.02.32 0 .06.015.117.039.169l-.012.107a.344.344 0 0 0-.005.05l-.001.015h.001c0 .04.008.08.021.117a89.805 89.805 0 0 0-.325 3.217 68.138 68.138 0 0 0-.207 4.477c-.002.143-.01.28-.014.423-.002.373.005.746.013 1.12.016.729.05 1.457.087 2.186.037.756.104 1.508.174 2.261.067.726.151 1.45.248 2.171l-.003-.023.008.064-.005-.04.01.073-.003-.016.004.026c.102.76.223 1.517.365 2.27.19 1.014.412 2.023.651 3.026a.453.453 0 0 0 .015.082c.278 1.17.59 2.329.94 3.478.088.288.171.578.258.866.068.225.142.448.214.672.031.132.07.26.12.387a48.952 48.952 0 0 0 .45 1.26 49.787 49.787 0 0 0 1.308 3.166 56.31 56.31 0 0 0 1.364 2.821l.012.024.048.092.051.098a65.132 65.132 0 0 0 .48.897l.038.068.007.014a55.13 55.13 0 0 0 1.554 2.66l.003.005.035.055.016.027a59.82 59.82 0 0 0 4.803 6.61 56.872 56.872 0 0 0 5.47 5.676 54.475 54.475 0 0 0 3.022 2.538A67.12 67.12 0 0 0 25 105.275a55.915 55.915 0 0 0 6.686 3.937l.012.006c.022.01.044.022.065.033l.134.066.03.015a59.282 59.282 0 0 0 7.286 2.998l.02.007c.034.01.067.022.1.033l.01.003a56.635 56.635 0 0 0 9.686 2.285c3.243.474 6.52.667 9.797.593a58.15 58.15 0 0 0 10.077-1.131 56.725 56.725 0 0 0 10.041-3.018 57.978 57.978 0 0 0 7.308-3.567 58.222 58.222 0 0 0 6.646-4.502 57.253 57.253 0 0 0 5.97-5.376 58.084 58.084 0 0 0 5.014-5.949.643.643 0 0 0 .07-.094.177.177 0 0 1 .017-.024.694.694 0 0 0 6.562-11.607 56.58 56.58 0 0 0 1.277-3.327c.42-1.208.794-2.433 1.132-3.666.533-1.946.922-3.928 1.26-5.916a.349.349 0 0 0 .015-.054c.046-.278.09-.557.133-.835a.331.331 0 0 0 .019-.068l.063-.427.008-.025v-.001a.577.577 0 0 0 .019-.138 53.669 53.669 0 0 0 .297-2.753c.029-.359.063-.72.06-1.08l.007-.155c.005-.12.01-.24.019-.358l.029-.612a63.866 63.866 0 0 0 .038-3.642.314.314 0 0 0-.004-.053l-.011-.608a98.15 98.15 0 0 0-.052-1.76c-.02-.496-.052-.992-.085-1.487a.401.401 0 0 0 .002-.06 50.055 50.055 0 0 0-.215-2.187 56.714 56.714 0 0 0-.324-2.209c-.108-.671-.24-1.338-.368-2.005-.093-.476-.194-.95-.297-1.424l-.145-.664c-.035-.162-.075-.323-.111-.486a.391.391 0 0 0-.015-.184c-.082-.362-.164-.725-.256-1.086a63.244 63.244 0 0 0-.322-1.21 45.16 45.16 0 0 0-.597-1.97.413.413 0 0 0-.018-.071 43.366 43.366 0 0 0-.881-2.53 57.875 57.875 0 0 0-5.752-11.127 59.649 59.649 0 0 0-2.77-3.816 57.575 57.575 0 0 0-7.08-7.502 58.038 58.038 0 0 0-8.422-6.195A58.92 58.92 0 0 0 83.54 6.27c-.067-.044-.139-.074-.218-.114-.197-.101-.395-.2-.592-.299a55.207 55.207 0 0 0-3.567-1.602 56.167 56.167 0 0 0-4.397-1.592l-.025-.008-.079-.025-.136-.042a59.055 59.055 0 0 0-4.11-1.111l-.025-.007a43.437 43.437 0 0 0-.435-.098l-.007-.002a67.058 67.058 0 0 0-.367-.08A59.276 59.276 0 0 0 61.638.157h-.01a86.11 86.11 0 0 0-.259-.018A65.336 65.336 0 0 0 60.7.096h-.002c-.019 0-.037-.002-.055-.003h-.016a64.785 64.785 0 0 0-.363-.019 56.195 56.195 0 0 0-.493-.021h-.025a40.795 40.795 0 0 0-1.365-.03L58.3.02l-.297-.007C57.809.009 57.614 0 57.42 0h-.005Z"/>
        <path fill="#FFB671" d="M58.246 1.107c-.133 0-.266 0-.4.003l-.077.001c-.12.002-.237.004-.354.004a83.293 83.293 0 0 0-1.033.01c-.148.002-.297.005-.445.009-1.112.033-2.34.102-3.652.205l-.011.002-.39.033-.017.002a.283.283 0 0 1-.028.001h-.026l-.391.036a86.673 86.673 0 0 0-3.244.363.424.424 0 0 1-.168.014l-.033.005c-.166.025-.384.059-.594.094-.175.03-.35.062-.526.094l-.01.002-.017.003-.032.006-.018.003-.03.006-.085.015-.075.014-.189.032c-.717.13-1.436.283-2.373.484a41.71 41.71 0 0 0-2.401.637 52.628 52.628 0 0 0-2.11.662 57.436 57.436 0 0 0-3.778 1.436c-.255.106-.46.196-.667.29a.438.438 0 0 1-.054.034c-.68.299-1.255.566-1.809.84a39.15 39.15 0 0 0-1.694.863.881.881 0 0 1-.075.05c-.105.055-.21.11-.314.167a.796.796 0 0 1-.072.048c-.245.129-.463.248-.666.367a.439.439 0 0 1-.1.072l-.023.013a44 44 0 0 0-.47.27 1.66 1.66 0 0 0-.273.164c-.137.086-.296.183-.604.37l-.008.004-.037.023-.07.041-.054.033-.06.036-.012.007-.093.056c-.508.301-.96.578-1.344.824a59.444 59.444 0 0 0-4.409 3.083 58.455 58.455 0 0 0-5.514 4.883 60.77 60.77 0 0 0-4.616 5.252A57.453 57.453 0 0 0 5.286 35.76a53.672 53.672 0 0 0-1.522 4.053 46.766 46.766 0 0 0-.711 2.29l-.031.11-.01.032-.003.013-.006.02-.003.008-.008.03-.01.035c-.04.14-.146.501-.232.838l-.126.484-.008.032-.007.029-.127.493a.543.543 0 0 1-.021.069 70.467 70.467 0 0 0-.591 2.569c-.097.481-.192.964-.283 1.435l-.022.115-.013.056-.002.017-.051.261a.336.336 0 0 1-.01.069.354.354 0 0 1-.033.098 6.76 6.76 0 0 0-.062.32.295.295 0 0 1-.035.1l-.02.084-.009.053c-.008.096-.03.197-.064.307a.39.39 0 0 1-.079.138 2.925 2.925 0 0 0-.036.18.184.184 0 0 1-.044.102c-.022.118-.04.239-.079.496a46.903 46.903 0 0 0-.297 3.343c-.033.653-.07 1.409-.076 2.108-.006.726-.003 1.327.01 1.891l.006.034.004.033.002.079.002.078v.008l.001.015.007.205.002.071v.015a59.588 59.588 0 0 0 .112 2.434c.04.518.083 1.003.15 1.74.06.566.122 1.114.186 1.63.12.828.186 1.283.269 1.78l.015.097.013.07.006.04.003.017.005.025.006.035c.082.48.149.868.211 1.217.213 1.175.464 2.356.749 3.51a.203.203 0 0 1 .024.055c.236.911.485 1.787.74 2.602l.004.014.002.008.005.017.003.01.002.008c.14.467.278.89.4 1.225.128.361.257.722.39 1.082a19.907 19.907 0 0 1 .309.81c.113.306.202.54.321.834a58.77 58.77 0 0 0 3.256 6.986c.489.89 1.007 1.774 1.54 2.628a58.973 58.973 0 0 0 3.291 4.742 58.418 58.418 0 0 0 10.156 10.18 56.93 56.93 0 0 0 4.715 3.249 56.372 56.372 0 0 0 7.857 4.083 54.978 54.978 0 0 0 4.166 1.567c1.835.61 3.67 1.12 5.454 1.517 1.578.349 3.182.637 4.766.858 2.483.329 4.98.498 7.422.502h.09c2.554 0 5.143-.17 7.693-.503a56.742 56.742 0 0 0 7.433-1.531 57.392 57.392 0 0 0 6.917-2.398 55.49 55.49 0 0 0 6.68-3.367 59.687 59.687 0 0 0 5.899-3.985 58.905 58.905 0 0 0 5.586-4.946 60.748 60.748 0 0 0 4.673-5.332c.274-.362.54-.717.793-1.056a.365.365 0 0 1 .065-.09 56.733 56.733 0 0 0 3.399-5.24 58.341 58.341 0 0 0 3.06-6.154l.003-.007.007-.016.014-.03c.133-.316.243-.582.334-.815l.028-.072.005-.012.004-.01.003-.008.004-.01.003-.008.004-.012.004-.01.006-.014.005-.011a2.09 2.09 0 0 1 .062-.15 57.24 57.24 0 0 0 2.14-6.496l.05-.182.004-.016.003-.009.005-.018.006-.021.003-.01.01-.04.005-.021.003-.01.006-.022.007-.03c.1-.375.199-.757.293-1.135l.002-.014.002-.013.009-.033.009-.043.009-.038c.139-.607.24-1.064.322-1.438a44.21 44.21 0 0 0 .348-1.884l.01-.078.009-.063.003-.026c.036-.224.073-.461.108-.7l-.001-.044.009-.065.01-.074.04-.287v-.028l.01-.075.009-.066.015-.11.002-.019.009-.07a.386.386 0 0 1 .01-.087l.023-.16.014-.105.025-.198.002-.015.002-.012c.087-.727.137-1.155.177-1.527l.038-.395.006-.065V62.6l.002-.011v-.008l.002-.008v-.012l.002-.013c.029-.35.06-.648.096-.884a52.64 52.64 0 0 0 .144-2.422c.026-.879.039-1.658.037-2.316l.002-.04c-.003-.21-.006-.42-.011-.63l-.003-.036a57.24 57.24 0 0 0-.192-3.156.334.334 0 0 1-.015-.107 92.515 92.515 0 0 0-.385-3.483c-.037-.263-.077-.529-.111-.757l-.003-.022-.03-.192c-.028-.18-.06-.37-.093-.576l-.011-.07-.001-.009a3.562 3.562 0 0 1-.046-.285 57.669 57.669 0 0 0-.34-1.761l-.003-.014-.005-.021-.004-.018-.004-.018-.008-.035-.008-.033-.007-.033-.003-.012c-.078-.342-.14-.612-.221-.922l-.02-.109-.016-.069-.012-.014a3.729 3.729 0 0 0-.082-.324.764.764 0 0 1-.061-.135 60.88 60.88 0 0 0-.653-2.276 65.884 65.884 0 0 0-.63-1.958.58.58 0 0 1-.027-.071 75.61 75.61 0 0 0-1.53-3.99 55.916 55.916 0 0 0-3.398-6.754 59.25 59.25 0 0 0-3.933-5.835 58.772 58.772 0 0 0-4.83-5.484 59.744 59.744 0 0 0-5.403-4.765 57.735 57.735 0 0 0-8.937-5.668 8.575 8.575 0 0 1-.236-.116l-.03-.015a38.311 38.311 0 0 0-.397-.196l-.137-.066-.015-.007c-.318-.16-.595-.293-.848-.406a55.102 55.102 0 0 0-2.003-.895 57.351 57.351 0 0 0-9.49-3.05l-.048-.012-.17-.038-.174-.038a63.971 63.971 0 0 0-4.442-.786 70.592 70.592 0 0 0-3.64-.37h-.009c-.334-.022-.69-.044-1.09-.066h-.01l-.009-.001a74.904 74.904 0 0 0-.528-.026l-.037-.002-.278-.01a.844.844 0 0 1-.038-.003h-.009l-.111-.004-.215-.007a.598.598 0 0 1-.67-.021l-.146-.003Z"/>
        <path fill="#F7B06D" d="M62.61 1.103c-.07 0-.14.002-.21.004-.359.014-.72.043-1.068.07l-.242.02-.023.001-.016.001c-.33.026-.671.052-1.007.062a16.9 16.9 0 0 0-.672.04 2.213 2.213 0 0 0 .04 1.59c.013.213.02.425.027.66l.005.148.016.56.001.06c.005.215.01.43.019.646.032.865.085 1.764.132 2.557l.017.298c.113 1.946.157 3.904.185 5.563l.042 2.551v.038l.048 2.926c.014.755.042 1.551.087 2.436l.033.673c.032.65.065 1.32.106 1.983l.063 1.022.003.059c.21 3.4.426 6.918.71 10.372.123 1.503.29 3.066.435 4.445l.037.351.07.665c.08.766.158 1.545.234 2.3l.001.016.04.39c.078.786.143 1.574.205 2.337l.034.407c.062.753.112 1.52.16 2.262l.003.039.03.458c.047.72.075 1.454.103 2.163v.01l.011.279.012.293c.072 1.776.054 3.532.025 5.479-.013.85-.047 1.712-.081 2.546l-.005.129c-.005.12-.008.243-.012.364a11.86 11.86 0 0 1-.035.751l-.134 1.536-.061.697-.062.697c-.024.276-.06.556-.096.827a2591.46 2591.46 0 0 0-.372 3.081l-.096.803a163.16 163.16 0 0 0-.512 4.648c-.19 2.102-.32 3.801-.405 5.348l-.048.81-.043.717A34.98 34.98 0 0 0 60 78.869l-.202-.764-.003-.011c-.15-.57-.305-1.16-.472-1.737l-.396-1.374-.39-1.355a82.142 82.142 0 0 0-.554-1.816l-.034-.108-.249-.802-.727-2.373-.082-.267-.645-2.105c-.97-3.163-2.022-6.553-3.14-9.916l-.079-.236a231.616 231.616 0 0 0-1.446-4.259l-1.92-5.426a205.076 205.076 0 0 1-1.14-3.358l-.012-.038-.026-.077a505.568 505.568 0 0 0-2.816-8.26l-.227-.655-.039-.114a61.302 61.302 0 0 0-.59-1.665l-.583-1.556c-.038-.1-.074-.2-.11-.301l-.01-.025c-.075-.207-.152-.421-.238-.627-.117-.278-.232-.557-.347-.836l-.025-.06a89.159 89.159 0 0 0-.77-1.825l-.652-1.492c-.453-1.04-.922-2.116-1.397-3.168-.445-.985-.8-1.79-1.12-2.532-.329-.763-.658-1.54-.976-2.293l-.036-.085-.046-.109a83.753 83.753 0 0 0-.942-2.122l-.142-.315-.017-.037c-.118-.261-.24-.531-.367-.794l-.155-.33-.024-.052a17.336 17.336 0 0 0-.397-.813l-.219-.413-.133-.252a13.39 13.39 0 0 1-.076-.145l-.007-.015c-.053-.102-.107-.207-.166-.306l-.162-.272-.015-.026a13.43 13.43 0 0 0-.49-.792c-.49-.715-1.022-1.468-1.682-2.125-.284-.283-.602-.6-.931-.89l-.092-.077-.019-.016-.04-.032-.042-.035-.047-.039-.014-.01a9.056 9.056 0 0 0-1.098.342c-.362.16-.719.337-1.05.506-.549.278-1.139.573-1.753.877-.1.05-.207.105-.327.17l.057.435c.115.41.326.771.625 1.073.243.214.511.407.77.594l.151.109c.367.3.655.555.906.8.3.293.565.617.81.925l.121.166.007.01c.154.21.313.427.456.649.076.116.152.232.23.348.155.234.315.477.463.723.486.809.968 1.627 1.432 2.43.704 1.217 1.362 2.475 1.998 3.691l.086.165.313.596c.39.744.808 1.52 1.144 2.143l.087.162c.278.516.55 1.056.788 1.533l.053.104.268.53c.254.5.514 1.03.724 1.454.115.235.23.469.347.703.122.246.24.501.352.747l.011.025.015.032.161.349.258.55.267.573.92 2.202c.075.177.145.36.212.538l.003.007.096.249.662 1.709a263.16 263.16 0 0 1 1.619 4.251c.647 1.757 1.317 3.594 1.993 5.46.473 1.306.98 2.626 1.469 3.902l.009.022.17.445a543.48 543.48 0 0 1 1.998 5.28 178.936 178.936 0 0 1 1.552 4.315 679.777 679.777 0 0 1 3.316 9.925l.228.7.555 1.704c.093.289.188.577.283.865.18.542.383 1.156.562 1.751l.839 2.787c.171.57.33 1.148.482 1.708.076.28.152.56.23.84.102.364.19.737.277 1.098l.003.015.028.118.082.339.101.415.08.327c.045.182.08.37.113.553l.052.277.083.406c.05.241.11.542.162.829l-.25-.51a9.06 9.06 0 0 0-.275-.506l-.026-.047-.115-.204-.163-.296a46.964 46.964 0 0 0-.796-1.41c-1.301-2.184-2.776-4.66-4.388-6.98a82.88 82.88 0 0 1-.421-.611l-.006-.01c-.277-.402-.563-.818-.854-1.22l-.376-.521-.99-1.367c-.527-.73-1.056-1.458-1.584-2.187l-.777-1.07-.596-.826-.043-.06c-.473-.656-1.01-1.4-1.542-2.113-.9-1.209-1.784-2.391-2.671-3.573-1.59-2.117-3.14-4.317-4.639-6.445l-.013-.018-.166-.237c-.216-.306-.43-.612-.644-.919l-.037-.052a133.713 133.713 0 0 0-1.537-2.168l-.745-1.022-.746-1.022c-.27-.37-.555-.734-.83-1.086a70.68 70.68 0 0 1-.402-.515l-.236-.305-.008-.011a93.974 93.974 0 0 0-1.085-1.391l-.78-.974-.746-.934-.02-.024c-.73-.914-1.56-1.95-2.4-2.96l-.951-1.145-.109-.131-.026-.033c-.1-.123-.19-.234-.286-.34l-1.62-1.816c-.782-.877-1.614-1.78-2.348-2.575l-.245-.267-.301-.326a333.904 333.904 0 0 1-1.287-1.404l-.05-.055c-.345-.382-.7-.776-1.078-1.14l-.305-.298-.015-.014c-.382-.372-.776-.757-1.185-1.113l-.006-.005c-.541-.472-1.1-.96-1.669-1.427a198.47 198.47 0 0 0-1.19-.967c-.363-.293-.737-.596-1.106-.899l-.15-.122c-.756-.62-1.538-1.262-2.348-1.85l-.006.007-.01.019c-.053.09-.103.183-.154.274l-.01.018c-.1.185-.205.374-.318.554-.108.172-.22.345-.33.512l-.016.025-.247.379c-.06.092-.118.186-.176.28-.128.203-.26.413-.4.617-.076.109-.15.22-.223.33l-.026.039a15.71 15.71 0 0 1-.837 1.165c.035.025.07.046.105.067.291.216.585.439.87.654l.171.13c.953.758 1.907 1.546 2.83 2.308l.038.032.165.136c.438.362.876.74 1.299 1.105l.022.019.318.274c.365.314.721.651 1.066.978l.02.018c.141.135.284.27.427.403.358.335.696.693 1.023 1.04.136.144.272.288.409.43.335.348.673.693 1.01 1.039l.385.395.369.378.01.01c.734.753 1.494 1.532 2.235 2.304l.687.716.91.95c.131.136.258.28.381.42.061.07.123.14.185.208l.989 1.1c.573.637 1.152 1.3 1.664 1.884l.026.03c.247.282.494.565.742.846l.106.12.016.018c.888 1.01 1.808 2.055 2.695 3.097l.351.41c.262.303.558.648.837.992l.808 1 .843 1.043c.553.685 1.1 1.395 1.63 2.082l.014.018.084.11.52.674.628.81c.6.777 1.217 1.575 1.84 2.36l.079.1 1.546 1.947c.267.336.547.671.818.996l.01.012.374.45c.876 1.06 1.773 2.158 2.565 3.126l.19.234c.49.598.973 1.214 1.44 1.808.265.338.53.676.797 1.012l.062.077c.856 1.077 1.712 2.155 2.57 3.231l1.269 1.593.275.355.008.011a120.23 120.23 0 0 1 2.268 2.998l.017.023c.273.369.552.744.813 1.122l1.41 2.042c.258.373.511.752.792 1.173l.385.576c.292.435.57.889.84 1.328l.003.007.176.287-.011-.012-.2-.157-1.75-1.38a29.03 29.03 0 0 0-1.24-.907l-.01-.008-.332-.234c-1.06-.752-2.144-1.5-3.193-2.223l-.054-.037a474.657 474.657 0 0 1-6.461-4.508l-.165-.118c-.332-.237-.708-.506-1.085-.76l-.575-.388-1.519-1.024a858.06 858.06 0 0 1-1.45-.98c-.461-.313-.923-.626-1.385-.937-2.33-1.572-4.748-3.188-6.88-4.613a75.915 75.915 0 0 0-.959-.627l-.052-.034-.169-.11-.178-.114a64.33 64.33 0 0 1-.462-.304c-.334-.22-.679-.449-1.03-.662l-.045-.028c-1.135-.69-2.309-1.405-3.47-2.105a278.23 278.23 0 0 1-2.907-1.784l-.054-.034c-1.184-.733-2.408-1.491-3.635-2.22l-1.013-.602a5.709 5.709 0 0 0-.404-.211l-.022-.011a12.566 12.566 0 0 1-.137-.069l-.478-.24-.717-.363c-.263-.133-.54-.247-.807-.358l-.207-.086-.308-.13-.091-.039-.015-.006c-.473-.2-.963-.408-1.453-.592-.76-.287-1.394-.528-1.991-.76a42.613 42.613 0 0 1-1.085-.44l-.214-.097-.053-.024c-.252-.114-.51-.23-.759-.354-.456-.227-.865-.433-1.25-.63-.22-.112-.44-.227-.66-.342l-.03-.016-.299-.156c-.172-.09-.344-.178-.517-.266a6.667 6.667 0 0 0-.2-.097l-.008-.004-.02-.01-.107-.05c-.241-.116-.49-.234-.75-.29a2.498 2.498 0 0 0-.647-.088 2.411 2.411 0 0 0-1.513.53c-.06.378-.131.78-.22 1.23-.083.43-.15.804-.203 1.146-.019.179-.034.364-.048.528l-.004.053-.026.299c.205.303.47.553.789.74l.149.067.024.011c.2.09.401.181.61.24l.031.008.012.004c.054.015.111.03.165.05.089.033.177.067.265.102l.672.293A59.332 59.332 0 0 0 6.94 57.64c.525.203 1.07.384 1.596.56l.147.048c.668.223 1.337.443 2.005.663.522.172 1.057.377 1.53.557l.01.004.352.134 1.06.48.541.245c.141.064.28.14.413.215l.021.012.167.09.582.31.613.328c.704.375 1.433.781 2.075 1.14l.91.505c1.25.691 2.54 1.396 3.831 2.095.478.258.945.515 1.383.756l1.208.666.133.073.012.006c.104.057.213.115.317.177l.333.199.35.209c.866.515 1.761 1.049 2.637 1.587 1.187.73 2.43 1.489 3.693 2.256 1.239.75 2.488 1.532 3.696 2.288l.065.04c.784.49 1.618 1.012 2.446 1.524l.758.468 1.23.759c.36.223.721.462 1.07.693l.021.014c.18.12.36.238.54.356.958.624 1.939 1.249 2.888 1.852l.084.054.428.272c.575.366 1.164.73 1.734 1.082l.014.009.048.03c.358.22.715.441 1.071.664l.059.036 1.876 1.173c.4.25.792.511 1.173.764l.103.068.468.31.192.121.015.01c.121.076.247.155.363.242l.648.48.862.641.664.494.861.742.012.01.145.125a79.607 79.607 0 0 0-3.374-.779c-.422-.088-.859-.18-1.286-.283l-2.19-.528a35.366 35.366 0 0 1-1.209-.322l-.029-.008-.313-.088-.387-.105-.07-.02a24.544 24.544 0 0 1-1.15-.329l-2.307-.743a37.08 37.08 0 0 1-1.142-.397l-.11-.04-.279-.1a118.33 118.33 0 0 0-.385-.136l-.031-.01c-.379-.135-.77-.273-1.152-.418a86.466 86.466 0 0 0-.623-.234l-.032-.012c-.406-.15-.865-.322-1.3-.498l-1.362-.548-.953-.383-1.75-.777-.342-.153-.33-.146a9.53 9.53 0 0 1-.46-.225 2273.346 2273.346 0 0 0-4.033-1.997c-.381-.189-.77-.373-1.144-.551l-.37-.176-.042-.02-.963-.46c-.208-.099-.429-.19-.623-.269l-.039-.015-.23-.096-1.278-.539-.689-.29a1.48 1.48 0 0 0-.138-.048l-.016-.006-.053-.016-.278-.095-.278-.095-1.259-.428c-.429-.147-.871-.261-1.299-.373l-.104-.027-.236-.061c-.6-.16-1.1-.291-1.631-.413-.19-.043-.379-.088-.569-.133-.42-.099-.849-.2-1.274-.285l-.324-.065-.574-.115-1.168-.235c-.435-.087-.877-.17-1.305-.25a48.612 48.612 0 0 1-1.799-.362l-.022-.005-.56-.12a72.904 72.904 0 0 1-3.727-.891l-.027-.008-.008-.002a22.43 22.43 0 0 1-1.168-.332 24.08 24.08 0 0 1-1.263-.447l-.025-.01-.024-.012a5.465 5.465 0 0 0-.136-.057l-.023-.01-.16-.07-.043-.02a3.222 3.222 0 0 0-.377-.149 2.745 2.745 0 0 0-.794-.1c-.62 0-1.234.314-1.64.842.214.96.46 2.078.677 3.182.243.151.528.241.804.328l.024.008.11.035a20.932 20.932 0 0 0 .58.18c.184.056.394.12.597.175a60.36 60.36 0 0 0 1.75.455c1.386.335 2.751.626 3.786.841 1.137.238 2.3.449 3.423.653l.028.005.244.044c1.145.208 2.34.446 3.876.771.547.116 1.108.25 1.634.376l.385.09c.425.1.861.202 1.282.331l1.05.32 1.027.314c.158.049.315.111.467.172l.028.011.2.078.994.373.261.097c.68.255 1.358.545 2.015.825l.015.006.399.17-.027-.014 1.27.55 2.103.904 1.142.49.057.025.162.07c.193.084.412.18.63.262l1.084.414 1.151.439c.389.148.79.282 1.177.41l.018.007.318.106.414.14.02.007c.386.132.785.268 1.182.388l.83.251 1.2.362c.461.14.935.272 1.352.389.228.063.455.127.682.192.508.145 1.013.276 1.439.386l.659.168.658.169.17.045.031.009c.129.034.274.074.415.104l1.444.308.717.153a52.71 52.71 0 0 0 1.54.297c1.287.236 2.568.462 4.098.727.36.063.722.143 1.072.22l.028.007.396.087.642.138.669.145.151.032.041.008c.127.026.255.052.38.084l.908.224.288.07 1.022.254.02.061.048.14c.093.273.242.467.455.591a.993.993 0 0 0 .602.13c.203.198.407.404.603.603l.012.013.206.208c.19.193.45.3.73.3.282 0 .543-.107.736-.3a1.044 1.044 0 0 0 0-1.467c-.19-.192-.38-.382-.58-.58a.991.991 0 0 0-.222-.894 1.35 1.35 0 0 0 .16-.068c.548-.27 1.09-.572 1.612-.864l.325-.182c.397-.22.77-.435 1.14-.659a452.64 452.64 0 0 1 3.217-1.92c.34-.202.716-.42 1.217-.708l.382-.22c.318-.185.645-.375.973-.55l1.797-.961c.322-.172.653-.339.974-.5l.03-.015.484-.245a140.23 140.23 0 0 1 5.762-2.797 366.706 366.706 0 0 1 7.807-3.444l.168-.072c1.445-.62 2.94-1.263 4.41-1.916 1.99-.883 4.004-1.795 5.952-2.677l.287-.13c.38-.172.78-.342 1.135-.492.195-.083.384-.163.573-.245l1.267-.542.166-.071.92-.396.146-.062.029-.013c.625-.27 1.272-.547 1.909-.817.752-.318 1.504-.638 2.255-.957l.87-.37a73.523 73.523 0 0 1 4.337-1.671c.03-.01.062-.021.094-.03.025-.401.037-.71.039-1.005.002-.392.006-.774.016-1.148.006-.188.02-.382.033-.554v-.012c.012-.156.024-.317.03-.476.012-.323 0-.653-.012-.972l-.006-.171-.016-.377a2.06 2.06 0 0 0-.215-.011 1.06 1.06 0 0 0-.164 0l-.15.018h-.01c-.197.024-.402.048-.6.088-.083.017-.163.048-.241.078l-.053.02a25.1 25.1 0 0 0-.992.409l-.02.008-.17.074.18-.074c-.945.397-2.045.865-3.132 1.368a904.708 904.708 0 0 0-9.365 4.409l-.067.031-.019.009c-.338.16-.688.326-1.028.498l-.517.263-.113.058c-.33.168-.659.336-.99.502l-.434.218c-.788.397-1.682.848-2.563 1.282-.947.467-1.93.948-2.796 1.372l-.179.087c-.96.47-1.952.955-2.924 1.436a294.563 294.563 0 0 0-5.965 3.007l-.079.041c-.934.488-1.993 1.041-3.01 1.593a229.91 229.91 0 0 0-3.142 1.744l-.015.008c-.833.469-1.693.953-2.527 1.446l-.511.303-1.114.66c-.358.21-.715.436-1.06.655a76.35 76.35 0 0 1-.533.336c-.4.249-.8.5-1.2.752l-.067.042-.098.062a.787.787 0 0 0 .058-.051l.007-.007a962.23 962.23 0 0 1 5-4.728c.792-.742 1.504-1.411 2.203-2.094.88-.858 1.746-1.715 2.558-2.519.355-.352.723-.702 1.08-1.042l.02-.02.013-.012c.283-.27.575-.548.859-.826l1.187-1.16 1.127-1.102.5-.491.11-.11.008-.008c.561-.555 1.142-1.13 1.737-1.667l.324-.294.17-.154c.619-.56 1.319-1.196 2.008-1.79a466.189 466.189 0 0 0 6.42-5.643c1.096-.976 2.225-1.983 3.356-2.949.913-.78 1.808-1.542 2.712-2.292.53-.44 1.091-.889 1.586-1.285l.167-.134c.207-.166.415-.332.622-.5a342.627 342.627 0 0 0 5.21-4.31l.259-.216c.686-.577 1.463-1.231 2.22-1.844.327-.264.663-.528.987-.783l.019-.015.022-.017c.476-.374.968-.761 1.44-1.156.223-.186.458-.398.74-.668a10.739 10.739 0 0 0-.201-.728 28.517 28.517 0 0 0-.55-1.578c-.065-.138-.132-.281-.216-.415a8.973 8.973 0 0 0-.171-.26l-.094-.14a8.347 8.347 0 0 1-.505-.921 11.095 11.095 0 0 0-.245-.464l-.017-.032-.115-.212c-.392.167-.71.475-.987.746a31.405 31.405 0 0 1-2.281 1.988 88.95 88.95 0 0 0-2.558 2.127c-.527.457-1.048.924-1.553 1.376l-.08.072c-.223.2-.446.4-.67.598l-1.687 1.498-.833.739c-.614.544-1.256 1.093-1.823 1.578l-.7.6a144.616 144.616 0 0 0-4.625 4.168 680.134 680.134 0 0 0-5.042 4.785c-.48.459-.957.92-1.436 1.38l-.124.12-.623.599c-.285.274-.58.55-.864.816l-.02.019a60.6 60.6 0 0 0-1.256 1.197l-.755.748-.774.767-.042.041c-.23.23-.47.466-.698.709l-.698.74-.07.074c-.495.525-1.006 1.068-1.504 1.606l-.476.514c-.601.649-1.223 1.32-1.832 1.992-.899.993-1.759 1.964-2.408 2.7a293.01 293.01 0 0 1-4.363 4.807l-.194.211-.114.123a62.044 62.044 0 0 0 1.425-2.81l.047-.097c.06-.127.122-.253.183-.38.438-.905.86-1.836 1.268-2.737l.503-1.109a402.231 402.231 0 0 0 1.913-4.24l.388-.877.064-.145a124.73 124.73 0 0 1 1.388-3.076l.178-.378.009-.018c.25-.531.51-1.08.777-1.616l.29-.581.024-.047c.228-.455.463-.925.697-1.386l.216-.426.217-.425.022-.044c.544-1.07 1.107-2.176 1.646-3.27.11-.223.222-.447.334-.67l.01-.02c.22-.444.45-.903.665-1.36l.262-.548.043-.09.013-.026c.215-.448.438-.912.643-1.374.286-.639.57-1.28.852-1.92l.155-.35c.1-.172.182-.355.241-.545l.006-.012c.156-.352.312-.704.47-1.056.075-.135.14-.278.19-.425 1.2-2.67 2.502-5.518 3.902-8.254.255-.498.51-.997.763-1.496.393-.772.839-1.647 1.278-2.498a94.95 94.95 0 0 0 2.053-4.197 53.48 53.48 0 0 0 1.862-4.67l.027-.08.01-.027c.241-.695.49-1.413.744-2.116l.167-.467a30.744 30.744 0 0 1 .627-1.66c.22-.47.406-.852.587-1.199.112-.215.223-.443.32-.643.085-.175.182-.372.279-.562-.352-.445-.73-.868-1.152-1.335-.217-.24-.448-.478-.686-.708l-.185-.181-.01-.01c-.108-.107-.22-.219-.337-.323a2.4 2.4 0 0 0-.168-.095 4.56 4.56 0 0 0-.194-.07l-.177-.053-.01-.003a4.048 4.048 0 0 1-.279-.09 9.476 9.476 0 0 1-.222-.085 1.57 1.57 0 0 0-.105.092 8.844 8.844 0 0 0-1.128 1.303l-.078.107c-.186.256-.378.519-.536.794-.212.366-.4.715-.577 1.064-.15.297-.283.604-.394.864-.394.931-.779 1.844-1.149 2.777-.178.447-.354.905-.524 1.347-.106.273-.21.54-.313.809-.115.294-.238.592-.354.871a74.497 74.497 0 0 1-1.836 3.883l-.267.521-.266.522c-.496.97-1.058 2.07-1.59 3.128l-1.08 2.155a83.112 83.112 0 0 0-.823 1.705l-.008.017-.175.37a168.527 168.527 0 0 0-2.797 6.273l-.003.007-.003.008-.007.015-.055.13-.028.066-.008.02-.002.01-.008.014-.015.036-.017.04-.004.012-.004.007-.003.007-.036.085-.197.468-.265.628-.026.061-.061.145-.009.02-.007.018.008-.012-.019.036-.004.011-.006.013-.005.013-.026.061-.007.017.006-.006-.019.036-.004.009-.008.02-.008.018-.006.014-.03.072c-.539 1.276-1.096 2.595-1.696 3.886a886.008 886.008 0 0 1-1.984 4.246l-.332.707-.01.021a530.136 530.136 0 0 0-1.668 3.566c-.23.494-.446 1.004-.655 1.497l-.004.01-.026.06c-.075.178-.15.356-.227.534-.373.864-.72 1.745-1.057 2.596l-.006.015a541.284 541.284 0 0 0-3.19 8.319c-.304.81-.631 1.678-.964 2.53-.329.84-.662 1.653-.944 2.338l-.12.273-.038.087-.004.009c-.206.472-.42.96-.649 1.43l-.401.824.099-1.184.002-.032.025-.302c.079-.954.175-1.877.259-2.654l.132-1.231c.232-1.702.474-3.43.72-5.133a413.523 413.523 0 0 1 .418-2.823c.112-.764.2-1.567.278-2.275.035-.318.07-.635.107-.953.028-.24.044-.483.06-.719l.01-.136.067-.954.066-.943c.046-.66.073-1.331.1-1.981l.03-.735c.032-.724.045-1.452.057-2.157l.002-.145.008-.438c.015-.757.007-1.526 0-2.27l-.004-.466c-.015-1.752-.1-3.522-.182-5.234l-.013-.269a180.94 180.94 0 0 0-.279-4.36v-.017l-.003-.027-.075-1.055c-.052-.73-.1-1.477-.146-2.18l-.034-.522c-.052-.786-.091-1.606-.126-2.33l-.02-.412a296.01 296.01 0 0 1-.146-3.605l-.008-.225a588.047 588.047 0 0 0-.165-4.124l-.008-.197c-.035-.815-.07-1.63-.101-2.444l-.012-.292a181.834 181.834 0 0 1-.158-5.6 428.7 428.7 0 0 0-.109-5.46c-.046-1.766-.18-3.544-.31-5.264-.065-.855-.118-1.7-.157-2.514-.02-.39-.05-.787-.077-1.123a17.527 17.527 0 0 0-.166-1.391 2.256 2.256 0 0 0-.19-.574 7.42 7.42 0 0 0-.855-.054Z"/>
        <path fill="#DA3ACB" d="M87.144 24.971c-.132 0-.266.018-.38.034a.323.323 0 0 0-.236.269c-.293.067-.59.143-.878.215l-.136.035c-.104.026-.209.059-.31.09l-.049.016a7.749 7.749 0 0 0-.61.223 5.88 5.88 0 0 0-1.064.557 6.896 6.896 0 0 0-.681.54l-.046.041c-.17.15-.347.306-.502.478a2.984 2.984 0 0 0-.138.17l-.023.03-.044.056c-.034.04-.068.083-.097.127l-.057.084-.2.297a9.053 9.053 0 0 0-.24.374l-.217.347-.032.05a3.92 3.92 0 0 0-.308.676l-.016.04c-.053.14-.105.281-.156.423a7.77 7.77 0 0 0-.153.47c-.055.184-.08.379-.106.568l-.003.026a7.497 7.497 0 0 0-.048.518l-.03.521c-.006.097-.009.194-.012.29l-.003.112c-.008.259-.007.522-.005.777v.13c.001.09.007.183.013.272l.003.042.016.253.016.253c.007.098.018.197.029.292l.016.149c.013.132.03.263.047.397.036.283.073.575.177.854.12.322.304.637.58.991a4.939 4.939 0 0 0 1.308 1.193c.06.04.122.077.184.115l.06.038.072.045c.066.04.134.083.203.122.163.093.34.165.523.236.173.067.353.121.527.174l.074.022a12.166 12.166 0 0 0 .469.132c.269.076.57.135.946.185a8.036 8.036 0 0 0 2.255-.031l.225-.039.271-.046c.093-.016.187-.036.277-.056l.132-.028c.19-.039.377-.097.57-.178.133-.056.248-.107.353-.156l.127-.06c.12-.057.244-.115.364-.177a6.2 6.2 0 0 0 .946-.598l.2-.154.198-.154c.074-.058.146-.119.217-.178l.102-.085c.028-.023.054-.049.08-.074l.031-.03.085-.081.085-.081c.034-.033.066-.07.097-.104l.05-.056.224-.247a3.05 3.05 0 0 0 .337-.467c.11-.189.196-.393.272-.586a6.6 6.6 0 0 0 .327-1.173c.043-.22.07-.445.094-.663.015-.12.029-.24.035-.36l.014-.25.013-.25c.002-.031.001-.064 0-.097v-.043l-.002-.159-.002-.159a7.252 7.252 0 0 0-.016-.381 7.868 7.868 0 0 0-.074-.782 6.414 6.414 0 0 0-.132-.574l-.017-.065-.013-.054a1.374 1.374 0 0 0-.027-.101l-.069-.21a24.372 24.372 0 0 0-.27-.78 11.297 11.297 0 0 0-.346-.864l-.072-.15-.015-.03a1.238 1.238 0 0 0-.078-.137l-.035-.058a7.721 7.721 0 0 0-.17-.27l-.03-.048a12.04 12.04 0 0 0-1.077-1.43 3.684 3.684 0 0 0-1.414-.984 11.172 11.172 0 0 0-1.39-.416 9.687 9.687 0 0 0-.578-.116l-.107-.02a4.47 4.47 0 0 0-.412-.054 1.381 1.381 0 0 0-.118-.005Z" opacity=".923"/>
        <path fill="#FFFC85" d="M87.033 76.75h-.321l-.025.001h-.025c-.458.002-.978.004-1.473.018a22.854 22.854 0 0 0-2.185.179l-.017.002-.026.003a9.56 9.56 0 0 0-.453.059l-.01.002-.012.002-.442.069c-.504.08-.995.173-1.496.269l-.834.16c-.201.039-.41.084-.593.124l-.019.004-.16.035a4.746 4.746 0 0 0-.198.048l-.017.005-.072.018-.128.031-.01.003h-.007l-.016.006a8.354 8.354 0 0 0-.232.059l-.202.053c-.178.048-.356.095-.534.145l-.036.01-.015.004c-.232.064-.504.14-.758.217l-.076.023-.352.106a5.874 5.874 0 0 0-.237.076l-.124.042c-.472.154-.933.306-1.394.47-.613.217-1.139.406-1.607.577l-.095.034-.06.022-.063.022c-.125.043-.31.109-.478.175l-.184.072-.646.253-.237.092-.236.092-.063.025a5.476 5.476 0 0 0-.173.068l-.549.235-.271.116-.112.047-.063.027c-.126.052-.273.114-.411.178l-.61.28-.33.15c-.148.067-.299.143-.41.198l-.011.006-.105.053-.457.229-.45.224c-.114.057-.242.124-.391.204l-.093.05-.093.049c-.249.13-.497.262-.746.393-.166.087-.33.176-.496.265l-.027.015-.235.127-.118.063c-.12.064-.263.14-.402.22l-.46.266-.46.265-.156.089-.159.092c-.045.026-.09.054-.134.082l-.046.029a26.99 26.99 0 0 0-1.794 1.226c-.477.35-.828.629-1.14.904a9.978 9.978 0 0 0-.508.487c-.19.194-.351.38-.495.569a5.951 5.951 0 0 0-.204.287 2.315 2.315 0 0 0-.159.295 5.8 5.8 0 0 0-.257.647.154.154 0 0 0 .012.126.18.18 0 0 0 .136.096c0 .032.01.063.03.089.012.014.02.03.03.046l.009.015a1.431 1.431 0 0 0 .119.166l.015.02.095.114.123.15c.074.097.148.192.232.282.03.03.064.06.094.085l.044.038.082.069.017.014.018.014.013.012.034.029a4.1 4.1 0 0 1 .231.216l.107.104c.088.084.17.173.251.273.031.042.062.084.092.128l.005.006.048.067c.079.11.164.22.232.307.15.188.318.362.48.525.114.115.227.232.34.35l.037.04.121.126c.129.134.259.265.395.402l.043.043.105.106c.179.18.373.37.516.508l.052.051.023.022.393.388.036.036.143.142c.053.052.103.107.154.161l.023.025.046.049.09.095c.085.086.14.145.191.204l.144.164.025.03a20.948 20.948 0 0 1 .822.98 151.834 151.834 0 0 1 .923 1.184 14.226 14.226 0 0 0 .93 1.04l.123.128c.053.054.11.109.16.155l.024.024.049.046.074.072.024.023.02.02c.058.056.117.114.176.169.423.386.847.77 1.271 1.155.133.12.268.234.387.335l.02.018.035.029.028.024.01.008.012.01.024.02.04.036.244.208.03.027c.064.053.128.103.2.159l.098.076.295.233c.081.063.168.127.233.175l.01.008.024.018.117.086c.227.168.452.33.661.48.194.142.39.28.586.419l.162.116.009.007.012.009c.125.089.266.19.404.282.46.308.95.636 1.446.959.387.25.787.507 1.128.725l.198.126.164.1.093.056.258.157.257.155.062.039.01.006.012.007.01.006.01.006c.04.026.08.05.12.072l.162.09.16.088.12.067.067.037.12.067.47.259a.29.29 0 0 0 .042.02l.025.012.015.005.1.046.1.046.533.245c.193.089.383.165.594.249l.086.035.123.049c.182.073.363.146.545.216l1.659.638c.245.095.432.16.606.215.158.05.328.087.505.108a3.661 3.661 0 0 0 .56.019c.07-.003.14-.008.216-.013l.02-.002h.017l.008-.001.014-.001.108-.008c.034-.002.069-.007.101-.012l.02-.003.032-.005h.008l.28-.037c.109-.016.219-.037.315-.055l.015-.003.009-.001.027-.006c.17-.033.27-.054.386-.083l.246-.062a3.12 3.12 0 0 0 .781-.318c.314-.182.613-.38.903-.572l.018-.011.35-.23.268-.172.03-.02.024-.014c.254-.163.57-.366.86-.567l.144-.097.018-.012a7.4 7.4 0 0 0 .124-.083l.103-.071a6.37 6.37 0 0 1 .198-.135c.09-.058.179-.118.267-.178l.02-.013c.1-.07.201-.137.304-.204l.067-.043.021-.014c.151-.097.338-.218.517-.34.11-.074.22-.146.33-.217l.016-.01.226-.147c.103-.068.205-.14.291-.201.077-.053.155-.105.233-.156l.012-.008.05-.033c.2-.131.4-.262.601-.391.385-.246.765-.524 1.164-.851.193-.158.378-.315.55-.466l.115-.101.012-.011a21.964 21.964 0 0 0 .588-.53c.11-.102.205-.191.304-.277.087-.075.173-.151.258-.228a6.98 6.98 0 0 1 .142-.122l.015-.013.02-.017.107-.091.094-.08.005-.005.015-.013.015-.012.016-.014a9.303 9.303 0 0 0 .725-.679l.008-.008.008-.009.044-.043c.072-.072.143-.146.214-.22l.015-.016c.066-.068.131-.136.199-.203l.124-.124.043-.041.282-.281c.139-.141.301-.298.512-.495a13.684 13.684 0 0 1 .913-.798l.032-.027.01-.008.025-.02c.191-.158.453-.374.685-.581l.071-.065.015-.013.016-.015.017-.015c.327-.295.664-.599.985-.903.157-.151.319-.32.508-.528l.156-.17.01-.011c.089-.095.18-.194.27-.297l.103-.121.025-.03.044-.05a18.92 18.92 0 0 1 .721-.807c.026-.028.05-.055.077-.081a6.758 6.758 0 0 0 .267-.293l.026-.03.048-.055a9.407 9.407 0 0 0 .626-.81c.064-.09.13-.18.197-.27l.114-.154.026-.036a12.221 12.221 0 0 0 .26-.359l.01-.015.01-.014.016-.022.008-.013c.026-.038.05-.075.077-.112a9.33 9.33 0 0 0 .176-.252c.056-.083.114-.164.17-.246l.014-.018a7.53 7.53 0 0 0 .184-.267l.093-.14.007-.01a15.5 15.5 0 0 0 .296-.453l.046-.075.006-.009.025-.041c.083-.134.189-.305.294-.47l.12-.184.037-.056.02-.03.006-.01.032-.047.006-.01.005-.008c.06-.091.118-.181.175-.273.127-.202.252-.405.377-.608l.19-.312.039-.06.006-.01c.157-.257.336-.548.518-.837.156-.246.326-.484.49-.715l.008-.01.007-.01.007-.011c.097-.135.2-.281.309-.438l.015-.023.006-.007c.085-.125.162-.238.244-.348l.159-.215.092-.124.013-.017c.085-.115.17-.233.229-.36a.975.975 0 0 0 .107-.35.69.69 0 0 0-.11-.406c-.072-.12-.17-.24-.241-.327l-.056-.07a2.938 2.938 0 0 0-.321-.326 6.702 6.702 0 0 0-.353-.3c-.072-.056-.146-.11-.22-.165l-.02-.014-.107-.081a8.76 8.76 0 0 1-.348-.304l-.012-.01-.01-.008-.06-.055-.05-.045a15.845 15.845 0 0 1-.222-.205l-.021-.018-.01-.01c-.087-.08-.18-.165-.268-.242a6.998 6.998 0 0 0-.582-.455 4.644 4.644 0 0 0-.196-.129l-.012-.007-.01-.006-.085-.054c-.105-.068-.212-.134-.318-.2a7.606 7.606 0 0 0-.641-.348c-.038-.02-.077-.038-.114-.058l-.026-.013-.02-.01a6.557 6.557 0 0 0-.188-.091l-.207-.097-.211-.098a4.852 4.852 0 0 0-.263-.11l-.12-.049a44.93 44.93 0 0 0-1.156-.449 57.596 57.596 0 0 1-1.038-.407l-.011-.004-.04-.015-.025-.01-.105-.043-.033-.013-.029-.013a.77.77 0 0 0-.049-.02l-.076-.032a9.815 9.815 0 0 0-.133-.056l-.027-.012a.707.707 0 0 0-.056-.024l-.066-.028-.02-.008-.01-.004-.033-.014a.698.698 0 0 0-.066-.028l-.007-.003-.025-.01-.01-.004-.269-.11a7.704 7.704 0 0 0-.667-.235l-.101-.033-.015-.005-.02-.007-.013-.004-.013-.004c-.067-.021-.13-.041-.193-.058a73.433 73.433 0 0 0-1.464-.388l-.135-.034-.078-.02-.013-.004c-.25-.064-.56-.143-.85-.2a37.212 37.212 0 0 0-2.25-.348l-.027-.003-.009-.001-.022-.003a29.987 29.987 0 0 0-.724-.092c-.2-.022-.4-.041-.599-.06l-.014-.002-.061-.006-.06-.006c-.284-.026-.576-.05-.885-.075l-.096-.008h-.011l-.011-.002-.57-.046-.184-.016-.098-.009a28.09 28.09 0 0 0-.482-.04 35.878 35.878 0 0 0-.816-.044l-.175-.008h-.028a19.797 19.797 0 0 0-1.028-.024Z"/>
        <path fill="#F2E24D" d="M29.403 77.93h-.106l-1.314.007c-.408.003-.816.008-1.224.013a43.778 43.778 0 0 0-2.377.096c-.441.031-.887.06-1.317.087-.436.028-.878.046-1.269.063-.211.009-.427.012-.635.015a29.221 29.221 0 0 0-1.838.08 27.12 27.12 0 0 0-.371.028l-.17.014c-.116.01-.232.018-.348.026l-.254.018-.55.04c-.247.018-.495.035-.742.054l-.643.052c-.16.013-.321.03-.478.048l-.159.017c-.125.014-.252.033-.374.05l-.17.025c-.147.02-.294.043-.44.065l-.09.014a70.3 70.3 0 0 0-1.226.199 294.706 294.706 0 0 0-1.509.259c-.232.039-.471.079-.706.124l-.162.03a7.905 7.905 0 0 0-.385.075l-.22.049-.403.089-1.247.274-.073.017c-.33.073-.673.149-1.011.216-.504.101-.92.187-1.308.272-.055.012-.096.069-.092.13a.536.536 0 0 0-.078.03l-.023.013-.024.012-.077.058a.785.785 0 0 0-.087.115l-.009.02-.01.024a.38.38 0 0 0-.03.094c-.013.045-.015.093-.018.14l-.001.013a.632.632 0 0 0 .006.097l.002.02c.014.15.056.293.09.402.036.11.076.22.115.325l.036.1.074.204c.066.186.135.378.212.564.105.256.219.528.353.792.066.131.125.239.183.338.054.094.11.186.165.279l.072.118c.13.218.272.435.394.617l.073.11.104.156.077.117c.05.076.1.152.151.226.063.088.123.18.182.268.065.1.133.202.203.3.06.083.113.164.177.261.067.1.137.2.205.297l.155.225c.078.114.159.232.242.346l.069.096c.038.053.077.107.117.16.045.061.09.124.133.187a18.055 18.055 0 0 0 .364.5c.066.087.136.174.203.258l.04.05.024.03.023.03a31.863 31.863 0 0 1 .324.436c.047.066.095.133.144.198.05.067.1.136.149.205l.11.154c.094.127.188.255.28.383.197.274.36.502.535.734.084.111.159.216.23.32.1.148.209.304.345.49l.077.107c.093.126.188.257.277.388.13.191.257.383.383.575.192.293.402.597.64.93.087.12.186.234.282.344l.075.086c.07.08.14.163.209.245l.193.227.056.064a20.97 20.97 0 0 0 .655.733l.081.088c.09.097.182.197.271.298.108.123.236.268.373.413l.088.094a15.78 15.78 0 0 0 .534.552c.116.115.237.227.354.335.102.095.207.192.308.29.12.118.237.236.348.352.066.07.134.136.202.204.061.06.122.12.182.183l.056.058c.1.104.203.211.31.311l.085.078a19.392 19.392 0 0 1 .431.405c.142.134.29.273.43.414.105.107.22.21.33.308.085.077.174.156.258.238l.196.183.098.09c.084.079.17.156.256.233l.123.11.11.1.277.252c.075.07.15.142.224.214l.144.138c.112.106.232.209.348.307l.058.05.259.226c.063.057.127.113.191.168.152.133.309.263.444.375.16.132.323.27.498.42.28.243.564.47.854.702.14.11.279.223.417.336l.037.03.174.142c.042.033.084.065.127.096l.087.066c.178.137.365.266.546.392.121.084.243.168.362.255a25.992 25.992 0 0 0 .588.412c.106.073.216.149.322.227l.114.084c.11.08.222.165.336.242a17.872 17.872 0 0 1 .223.146l.087.058a7.857 7.857 0 0 0 .366.233l.202.127c.072.045.144.093.215.14l.195.128c.147.093.294.192.436.287.146.098.298.198.448.295.331.21.633.397.925.569.237.14.486.268.728.39l.273.14.295.156c.194.103.395.21.597.307.154.075.315.149.49.227.114.05.227.1.34.153l.226.102.081.036c.305.137.62.278.936.404.13.053.265.099.395.144l.075.025a42.613 42.613 0 0 1 .872.318l.135.05a33.65 33.65 0 0 0 .511.186 53.682 53.682 0 0 0 1.614.563c.15.05.32.105.488.152l.102.028c.137.038.275.076.411.116l.521.15.138.04c.111.032.223.064.335.094l.18.048c.112.03.225.06.337.092.068.018.135.038.202.057.109.03.217.063.326.09.176.048.352.094.529.137.127.032.255.07.378.108l.115.034.116.035c.128.038.255.076.383.11l.077.022a17.519 17.519 0 0 1 .977.291l.077.026c.233.076.473.156.71.23.16.05.323.094.481.138.122.033.244.066.365.102.272.08.554.164.834.235.22.055.444.105.662.152.097.02.194.042.291.064.124.028.252.049.376.069l.044.008.141.023.35.056c.317.048.624.088.915.117.168.017.338.038.503.058.133.017.266.033.4.048.197.022.398.047.592.072l.34.043h.01c.166.024.329.044.491.063l.187.023c.12.015.245.03.367.042l.098.008c.058.005.116.009.173.015l.09.009c.054.006.108.012.163.016l.185.014.438.036c.212.019.427.03.635.04.148.008.295.016.442.027l.27.015c.099.006.197.01.295.018l.09.006.51.037c.4.026.811.03 1.165.032l.792.002h.69c.312 0 .573 0 .844.006.119.003.24.01.357.017l.173.009c.196.01.392.017.582.02.376.008.745.013 1.096.014h.154a3.478 3.478 0 0 0 .723-.065l.14-.023-.04.004.18-.022.224-.03a9.942 9.942 0 0 1 1.16-.077l.323-.008a18.01 18.01 0 0 0 1.766-.161l.007-.001.315-.04.205-.024c.087-.011.175-.02.263-.03a9.53 9.53 0 0 0 .838-.118l.126-.022.131-.022.174-.03c.208-.035.415-.074.623-.113l.434-.08.154-.027c.297-.053.604-.108.902-.182a12.8 12.8 0 0 0 1.047-.302c.328-.111.668-.2.968-.278.18-.047.357-.103.538-.161l.249-.078c.096-.03.193-.06.289-.092a20.661 20.661 0 0 0 1.265-.453c.207-.08.414-.16.622-.238l.101-.038.414-.155c.12-.044.24-.086.36-.127l.11-.038a8.06 8.06 0 0 0 .472-.185l.044-.02c.143-.06.29-.121.432-.19.07-.033.13-.063.184-.092l.062-.035.107-.06c.157-.078.315-.15.505-.231.129-.054.246-.103.366-.15l.173-.064.218-.082c.213-.082.44-.175.712-.293a29.458 29.458 0 0 0 .425-.18l.027-.012c.224-.09.461-.177.724-.268l.209-.07a20.977 20.977 0 0 0 .643-.224c.157-.057.284-.102.402-.14l.138-.044a9.42 9.42 0 0 0 .336-.11c.043-.014.085-.03.127-.043.087-.031.175-.062.264-.091l.18-.057.268-.085c.126-.041.26-.086.393-.136l.132-.054.053-.022.081-.034c.052-.021.103-.041.153-.063a13.765 13.765 0 0 0 .882-.412 6.01 6.01 0 0 0 .38-.196 1.475 1.475 0 0 0 .402-.315c.04-.041.084-.08.127-.117l.062-.054c.028-.025.055-.05.083-.073.039-.033.077-.07.114-.108.019-.02.036-.042.054-.063a.736.736 0 0 0 .046-.065l.015-.024.012-.014a.753.753 0 0 0 .065-.083.118.118 0 0 0 .019-.05.3.3 0 0 0 .086-.06.331.331 0 0 0 0-.462l-.04-.041a1.746 1.746 0 0 1-.187-.21l-.03-.041c-.055-.072-.111-.148-.174-.217l-.012-.013a5.25 5.25 0 0 0-.264-.277 5.297 5.297 0 0 0-.208-.187l-.07-.06-.034-.031-.109-.096a1.922 1.922 0 0 1-.125-.131l-.022-.024a7.894 7.894 0 0 1-.304-.363 8.952 8.952 0 0 0-.243-.295l-.033-.038c-.092-.106-.188-.217-.289-.32l-.2-.207-.173-.18a69.083 69.083 0 0 0-.714-.723l-.048-.048a8.507 8.507 0 0 1-.326-.336c-.085-.094-.174-.188-.26-.28l-.101-.106a7.323 7.323 0 0 0-.248-.25 14.18 14.18 0 0 0-.58-.563l-.43-.4c-.096-.09-.195-.177-.294-.266a16.27 16.27 0 0 1-.303-.274c-.081-.074-.165-.152-.25-.225a38.84 38.84 0 0 0-.372-.319l-.085-.072c-.126-.108-.254-.215-.382-.322a41.344 41.344 0 0 1-.769-.657l-.213-.187a27.82 27.82 0 0 0-.53-.44c-.106-.088-.213-.174-.32-.26l-.149-.12c-.123-.099-.253-.196-.377-.29l-.186-.14a44.568 44.568 0 0 0-2.401-1.726l-.697-.446a30.375 30.375 0 0 0-.34-.213l-.148-.092a17.47 17.47 0 0 1-.488-.314c-1.018-.681-2.034-1.4-3.017-2.095a178.73 178.73 0 0 0-2.325-1.628 83.08 83.08 0 0 0-.969-.657l-.112-.076c-.373-.251-.75-.51-1.115-.76l-.852-.582-.285-.193c-.609-.413-1.218-.826-1.828-1.236-.464-.312-.82-.55-1.154-.77-.284-.188-.58-.37-.865-.545a85.389 85.389 0 0 1-.259-.16l-.086-.049-.027-.014-.177-.098-.17-.093-.16-.09a9.989 9.989 0 0 0-.371-.202l-.353-.179-.352-.178a16.728 16.728 0 0 0-.47-.227l-.64-.3-.637-.3a69.112 69.112 0 0 1-.942-.457l-.232-.113-.008-.004-.46-.224-.191-.094c-.13-.064-.264-.13-.398-.192l-.271-.127-.403-.188a13.207 13.207 0 0 0-.48-.21l-.045-.02a17.307 17.307 0 0 1-.161-.07c-.117-.05-.238-.103-.36-.15l-.764-.292a39.195 39.195 0 0 0-.899-.328l-.202-.072a64.508 64.508 0 0 1-1.195-.438l-.18-.068a18.27 18.27 0 0 0-.87-.316l-.057-.018a15.09 15.09 0 0 0-1.096-.328c-.336-.082-.678-.163-1.01-.241l-.224-.053-.069-.016a52.5 52.5 0 0 0-1.164-.266l-.374-.08-.78-.164c-.498-.1-.905-.184-1.283-.264-.33-.07-.664-.15-.987-.228l-.192-.046a13.84 13.84 0 0 0-.403-.088l-.157-.034-.426-.087-.17-.035-.07-.014c-.143-.03-.29-.06-.437-.087l-.173-.032a12.136 12.136 0 0 0-.442-.078 23.423 23.423 0 0 0-.65-.09 14.6 14.6 0 0 0-.588-.06c-.277-.023-.555-.044-.832-.065l-.473-.036a34.49 34.49 0 0 0-1.257-.07 41.345 41.345 0 0 0-1.236-.027 293.872 293.872 0 0 0-1.25-.012 56.84 56.84 0 0 1-1.05-.026l-.168-.005a36.01 36.01 0 0 1-.18-.006 9.588 9.588 0 0 0-.382-.01l-.175-.001-.349-.002Z"/>
        <path fill="#FFFC85" d="M26.892 94.191c0 .272.227.5.5.5.271 0 .498-.228.498-.5s-.227-.5-.499-.5-.5.228-.5.5zm1.143 3.636c0 .32.266.586.585.586.32 0 .586-.267.586-.586a.591.591 0 0 0-.586-.585.591.591 0 0 0-.585.585zm3.684-.416c0 .284.237.521.522.521a.526.526 0 0 0 .521-.521.526.526 0 0 0-.521-.522.526.526 0 0 0-.522.522zm4.197-.635a.45.45 0 0 0 .446.447.45.45 0 0 0 .446-.447.45.45 0 0 0-.446-.446.45.45 0 0 0-.446.446zm-.081 3.828c0 .288.24.527.527.527a.531.531 0 0 0 .527-.527.532.532 0 0 0-.527-.527.532.532 0 0 0-.527.527zm5.661-2.732c0 .242.202.444.444.444a.448.448 0 0 0 .444-.444.448.448 0 0 0-.444-.444.448.448 0 0 0-.444.444zm2.72-9.426c0 .322.268.59.59.59.322 0 .59-.268.59-.59a.596.596 0 0 0-.59-.59.596.596 0 0 0-.59.59zm.964 3.884c0 .35.292.642.642.642.35 0 .642-.292.642-.642a.648.648 0 0 0-.642-.642.648.648 0 0 0-.642.642zm3.305 3.052a.569.569 0 0 0-.348.267c-.168.33-.333.66-.472 1.004a.956.956 0 0 0 .035.78c.124.222.328.372.552.48.106.052.216.096.328.132.125.04.265.05.395.06.116.01.24-.015.353-.036a1.13 1.13 0 0 0 .303-.121.994.994 0 0 0 .218-.171 1.15 1.15 0 0 0 .194-.27c.102-.19.16-.409.153-.623-.012-.4-.266-.755-.604-.953a56.293 56.293 0 0 0-.184-.077 1.02 1.02 0 0 0-.198-.033.586.586 0 0 0-.725-.44zm3.9-7.51a.55.55 0 0 0 .545.545.55.55 0 0 0 .545-.545.55.55 0 0 0-.545-.545.55.55 0 0 0-.545.545zM23.601 90.72c0 .255.213.469.468.469a.473.473 0 0 0 .468-.469.473.473 0 0 0-.468-.468.473.473 0 0 0-.468.468zm2.055-3.358c0 .43.36.79.79.79.43 0 .79-.36.79-.79 0-.431-.36-.79-.79-.79-.43 0-.79.359-.79.79zm-3.465 6.506a.21.21 0 0 0 .207.207.21.21 0 0 0 .207-.207.21.21 0 0 0-.207-.207.21.21 0 0 0-.207.207zm39.369 5.306a.43.43 0 0 0 .425.426.43.43 0 0 0 .425-.426.43.43 0 0 0-.425-.425.43.43 0 0 0-.425.425zm6.09 2.695c0 .434.363.796.796.796a.803.803 0 0 0 .796-.796.803.803 0 0 0-.796-.796.803.803 0 0 0-.795.796zm-2.3 3.587c0 .256.213.47.47.47a.474.474 0 0 0 .468-.47.474.474 0 0 0-.469-.47.474.474 0 0 0-.47.47zm4.6.226c0 .333.278.61.612.61a.617.617 0 0 0 .611-.61.617.617 0 0 0-.611-.612.617.617 0 0 0-.612.612zm2.749-.976c0 .183.152.336.335.336a.339.339 0 0 0 .336-.336.339.339 0 0 0-.336-.336.339.339 0 0 0-.335.336zm-17.74-5.164c0 .08.066.146.145.146.08 0 .147-.066.147-.146a.148.148 0 0 0-.147-.146.148.148 0 0 0-.146.146zm3.547-5.362a.28.28 0 0 0 .278.277.28.28 0 0 0 .277-.277.28.28 0 0 0-.277-.278.28.28 0 0 0-.278.278zm-41.198-5.186c0 .384.32.705.705.705a.71.71 0 0 0 .704-.705.711.711 0 0 0-.704-.705.711.711 0 0 0-.705.705zm3.628-2.935c0 .394.329.722.722.722a.729.729 0 0 0 .722-.722.729.729 0 0 0-.722-.721.729.729 0 0 0-.722.721zm34.756 16.32c0 .304.254.557.557.557a.562.562 0 0 0 .557-.557.562.562 0 0 0-.557-.556.562.562 0 0 0-.557.556zm3.337-2.586c0 .322.269.59.59.59.322 0 .59-.268.59-.59a.595.595 0 0 0-.59-.59.595.595 0 0 0-.59.59z"/>
        <path fill="#3C8076" d="M25.887 69.65c-.016.01-.031.022-.046.033l-.007.005-.036.026-.052.037-.022.015-.015.01a20.214 20.214 0 0 0-.164.119l-.037.027-.065.049-.056.04-.012.008a7.538 7.538 0 0 0-.48.374c-.094.08-.178.162-.233.217a5.228 5.228 0 0 0-.438.52 3.001 3.001 0 0 0-.13.184l-.027.04c-.019.03-.039.058-.059.087l-.007.01-.006.01-.007.009a4.469 4.469 0 0 0-.095.144l-.052.084-.138.222c-.014.023-.026.047-.038.071a1.398 1.398 0 0 1-.021.04l-.052.099-.051.097c-.032.06-.06.123-.092.2l-.04.089a2.962 2.962 0 0 0-.203.572c-.056.214-.1.44-.14.65a4.413 4.413 0 0 0-.065.988l.003.077a13.579 13.579 0 0 0 .029.568v.01c.01.139.022.282.013.424h-.043l-.019.001a4.987 4.987 0 0 0-.115.009l-.016.001-.075.002-.084.004-.087.003a6.367 6.367 0 0 1-.137-.094l-.017-.013a4.315 4.315 0 0 0-.399-.247 6.757 6.757 0 0 0-.832-.388c-.271-.107-.56-.2-.885-.287a7.06 7.06 0 0 0-.92-.176c-.216-.027-.437-.044-.632-.06l-.066-.004-.106-.009h-.007l-.008-.001a2.855 2.855 0 0 0-.19-.007h-.028l-.062-.001-.187-.006-.194-.006a1.572 1.572 0 0 0-.121.002h-.033l-.016.001a3.19 3.19 0 0 1-.076.003l-.433.011a2.397 2.397 0 0 0-.16.013l-.012.001-.029.003-.233.024-.211.022c-.16.017-.32.043-.476.068l-.012.002-.009.001a19.887 19.887 0 0 0-.74.125l-.082.016c-.169.03-.34.062-.502.112l-.058.018a4.235 4.235 0 0 0-.219.07l-.008.003-.023.008-.009.003a3.762 3.762 0 0 0-.15.057l-.01.003-.01.005-.017.006-.025.01a.346.346 0 0 0-.115.065.53.53 0 0 0-.047.048.216.216 0 0 0-.058.096.189.189 0 0 0 .02.153l.01.016c.037.052.072.1.125.137a.76.76 0 0 0 .187.087c.161.055.326.09.45.115.211.04.425.069.636.087l.208.017.191.015c.06.005.12.007.18.01h.016l.103.004c.215.01.426.017.66.024l.206.005h.023c.12.003.245.006.367.013l.1.006c.213.012.379.022.546.035l.27.024c.12.011.239.022.359.031.22.016.435.034.659.056a22.426 22.426 0 0 0 1.717.084 1.09 1.09 0 0 0-.167.058l-.019.009-.04.017-.217.092c-.174.074-.35.153-.52.23l-.015.006-.014.007-.024.01c-.336.153-.732.34-1.106.584l-.09.058-.032.02a5.21 5.21 0 0 0-.654.469 3.914 3.914 0 0 0-.202.198l-.035.034-.033.034-.052.055-.009.01-.008.009-.029.031-.033.035-.069.075-.05.059-.015.017-.145.172-.034.04a2.17 2.17 0 0 0-.099.125l-.04.055-.069.095a7.61 7.61 0 0 0-.346.53 2.06 2.06 0 0 0-.305.868.39.39 0 0 0 .038.207.52.52 0 0 0 .149.182c.026.02.053.041.081.06a.302.302 0 0 0 .07.034l.024.009a.334.334 0 0 0 .133.02.634.634 0 0 0 .081-.004 1.38 1.38 0 0 0 .21-.044c.08-.023.157-.057.225-.086a3.85 3.85 0 0 0 .567-.318l.17-.11.17-.11c.057-.036.112-.079.16-.117a6.177 6.177 0 0 1 .151-.113l.014-.01c.057-.041.11-.08.16-.122.178-.144.355-.287.53-.432.153-.127.304-.258.463-.402l.474-.426c.115-.103.237-.207.342-.295l.062-.053.109-.093.015-.013c.209-.179.468-.4.725-.603a12.593 12.593 0 0 1 .493-.358c.122-.089.254-.18.368-.259l.136-.093c.103-.072.207-.142.312-.211l.018-.013.05-.033.037-.024.093-.063.14-.096.057-.022-.003-.003a.176.176 0 0 1 .062-.238.14.14 0 0 1 .034-.015.242.242 0 0 1-.009-.254.237.237 0 0 1 .2-.116c.04 0 .08.01.123.032l.123.063.035.02c.027.014.056.029.081.046.09.06.162.118.224.18v.001a14.218 14.218 0 0 1 .745-.167l.039-.007c.17-.036.31-.065.451-.098l.085-.019.093-.021.34-.077.171-.04.136-.031.377-.087a29.076 29.076 0 0 0 .812-.196l.008-.002.007-.002.008-.002c.123-.03.247-.06.369-.093.409-.11.808-.23 1.187-.357.205-.067.407-.162.586-.246l.024-.012c.187-.086.37-.183.526-.266l.162-.086.163-.087c.056-.03.11-.06.165-.093l.01-.005.084-.05c.163-.092.326-.192.483-.29l.023-.014.031-.02c.173-.106.338-.22.493-.329a55.419 55.419 0 0 1 .38-.263l.017-.013a2.45 2.45 0 0 1 .055-.037l.014-.01a.48.48 0 0 0 .066-.048.292.292 0 0 0 .062-.08.196.196 0 0 0 .02-.148c-.016-.055-.067-.12-.134-.133a.714.714 0 0 0-.23-.01l-.08.008-.09.009-.3.03-.588.064-.03.003c-.313.034-.627.066-.94.098l-.397.041-.083.009a5.947 5.947 0 0 0-.236.026l-.042.006-.057.008a13.2 13.2 0 0 0-.81.125l-.008.001-.121.021a2.39 2.39 0 0 0-.186.043l-.054.014-.17.042-.17.042c-.133.033-.269.08-.388.123l-.03.01a6.407 6.407 0 0 0-.85.376l-.018.01a4.617 4.617 0 0 0-.233.126l-.31.18a9.584 9.584 0 0 0-.185.113l-.107.066-.056.034-.016.01c-.042.024-.1.058-.151.094l-.09.061c-.334.23-.679.467-1 .733l-.113.092-.112.092a3.03 3.03 0 0 0-.125.111l-.05.046c.092-.152.173-.31.234-.431l.078-.153.203-.403c.057-.115.117-.229.179-.345l.005-.01a22.917 22.917 0 0 0 .385-.746l.158-.313.015-.03.013-.026.033-.065c.12-.232.235-.46.344-.691.223-.469.396-.85.546-1.2.087-.205.145-.421.19-.605a1.36 1.36 0 0 0 .021-.138l.005-.038a.86.86 0 0 0 .004-.214.627.627 0 0 0-.053-.184l-.01-.022-.006-.01-.006-.011a.894.894 0 0 0-.046-.061.625.625 0 0 0-.059-.048.258.258 0 0 0-.121-.032.3.3 0 0 0-.159.05Z"/>
        <path fill="#000" d="M23.717 75.606a.238.238 0 0 0-.224.298.23.23 0 0 0 .032.072.133.133 0 0 0-.033.014.177.177 0 0 0-.08.104c-.011.039-.01.097.017.135.183.248.364.497.545.747.102.14.201.284.297.423l.051.074c.228.33.452.67.668.999l.061.093.062.095c.201.307.41.624.603.943a19.51 19.51 0 0 1 .607 1.082l.062.121c.113.218.23.443.329.671l.353.82c.089.222.18.443.272.664l.212.514.265.65c.06.146.114.286.168.426l.067.175c.159.408.316.824.448 1.176.069.183.136.366.204.55a86.857 86.857 0 0 0 .367.98l.099.256c.053.139.1.282.147.42.02.063.042.126.063.188.147.426.307.843.43 1.159l.098.246c.122.309.248.627.357.946a16.094 16.094 0 0 1 .46 1.648l.036.16c.046.199.089.393.135.608l.026.12.11.502.047.218c.028.128.055.255.084.382l.012.051c.043.188.087.382.123.576.018.1.038.199.06.298l.012.067c.016.078.032.159.055.236a.47.47 0 0 0 .087.168.287.287 0 0 0 .204.096h.01a.426.426 0 0 0 .19-.046l.07-.035.042-.021.094-.047.188-.095c.23-.112.419-.2.591-.275l.051-.022c.173-.076.351-.154.523-.238.133-.065.27-.133.373-.245a.734.734 0 0 0 .175-.41c.013-.093.016-.174.012-.252a3.914 3.914 0 0 0-.103-.652l-.031-.134a9.76 9.76 0 0 0-.114-.465c-.055-.197-.123-.393-.188-.583l-.014-.04a47.62 47.62 0 0 0-.218-.619l-.202-.564c-.069-.193-.144-.384-.217-.57l-.028-.07a25.3 25.3 0 0 1-.336-.924 72.666 72.666 0 0 0-.103-.294l-.134-.386a28.725 28.725 0 0 0-.756-1.984l-.045-.108a49.494 49.494 0 0 0-.218-.522 9.046 9.046 0 0 0-.268-.585l-.018-.037-.127-.259a23.779 23.779 0 0 0-.158-.321l-.049-.099c-.077-.155-.154-.31-.233-.465a1.66 1.66 0 0 0-.043-.077l-.021-.038-.025-.046a2.831 2.831 0 0 0-.056-.099c-.057-.095-.114-.19-.17-.287-.086-.143-.176-.283-.263-.42l-.106-.164a86.408 86.408 0 0 0-.648-.998l-.026-.04c-.145-.22-.288-.445-.428-.663l-.256-.4-.696-1.08a19.05 19.05 0 0 0-.47-.703c-.08-.116-.161-.236-.246-.352a12.401 12.401 0 0 0-.817-.994l-.148-.166c-.094-.105-.188-.21-.284-.314a39.884 39.884 0 0 1-.402-.44c-.1-.112-.198-.227-.294-.339a12.173 12.173 0 0 0-.418-.472l-.025-.027a16.581 16.581 0 0 0-.33-.344 1.449 1.449 0 0 0-.223-.18.873.873 0 0 0-.117-.066 3.101 3.101 0 0 0-.123-.063.281.281 0 0 0-.122-.032Z"/>
        <path fill="#989482" d="M24.992 77.149c-.11.065-.218.135-.326.203a.244.244 0 0 0-.087.33c.065.11.219.156.33.086.108-.068.22-.132.324-.206a.254.254 0 0 0 .11-.143.24.24 0 0 0-.024-.184.242.242 0 0 0-.327-.086zm.832.854c-.125.079-.25.158-.374.239a.146.146 0 0 0-.052.196c.038.065.132.095.197.052.124-.082.247-.163.37-.246a.147.147 0 0 0 .064-.084.14.14 0 0 0-.014-.107.144.144 0 0 0-.123-.07.128.128 0 0 0-.068.02zm.707.856c-.167.088-.318.206-.472.313a.28.28 0 0 0-.122.159.266.266 0 0 0 .185.325.257.257 0 0 0 .204-.027c.155-.108.31-.218.463-.328a.272.272 0 0 0 .118-.153.257.257 0 0 0-.026-.197.25.25 0 0 0-.219-.124c-.044 0-.09.01-.13.032zm.536.921c-.169.1-.329.214-.489.328a.233.233 0 0 0-.1.131.22.22 0 0 0 .152.27.211.211 0 0 0 .17-.022c.16-.114.318-.231.477-.349a.227.227 0 0 0 .095-.124.209.209 0 0 0-.021-.16.21.21 0 0 0-.284-.074zm1.104 1.84c-.23.144-.457.293-.686.439a.27.27 0 0 0-.096.365c.072.122.243.174.365.096.23-.146.458-.293.688-.437a.272.272 0 0 0 .096-.367.277.277 0 0 0-.236-.133.244.244 0 0 0-.13.037zm.952.686c-.337.255-.672.513-1.008.77l-.048.037a.235.235 0 0 0-.037.284c.03.053.082.092.14.108.055.015.134.012.181-.024.337-.256.674-.51 1.01-.77l.047-.036a.235.235 0 0 0-.285-.369zm.873 1.573c-.19.107-.37.232-.55.352-.205.135-.407.275-.61.413a.277.277 0 0 0-.12.157.265.265 0 0 0 .026.203c.07.117.242.175.36.094l.608-.414c.18-.123.359-.248.542-.366a.258.258 0 0 0 .091-.348.259.259 0 0 0-.348-.091zm.523 1.642c-.37.221-.727.469-1.086.708a.275.275 0 0 0-.122.157.266.266 0 0 0 .027.204c.07.119.24.173.36.094.362-.238.72-.48 1.086-.71a.266.266 0 0 0 .094-.36.268.268 0 0 0-.23-.129.252.252 0 0 0-.13.036zm1.132 2.071c-.052.022-.106.041-.155.069l-.088.048c-.053.03-.103.062-.154.093a8.526 8.526 0 0 0-.258.16c-.093.06-.188.117-.279.18-.132.092-.264.183-.394.277a.265.265 0 0 0-.114.147.248.248 0 0 0 .172.303c.059.017.14.013.19-.024.126-.091.253-.179.38-.267.091-.063.186-.12.28-.179.198-.125.398-.254.608-.36.098-.048.14-.175.113-.276a.245.245 0 0 0-.113-.146.269.269 0 0 0-.128-.035.155.155 0 0 0-.06.01zm.261 1.397c-.038.02-.076.059-.111.086-.05.038-.098.077-.146.115l-.32.254-.7.556c-.052.04-.077.123-.077.186a.263.263 0 0 0 .262.261c.075 0 .128-.031.185-.076l.654-.518c.17-.135.344-.265.512-.402a.258.258 0 0 0 .155-.38c-.031-.053-.092-.109-.155-.12a1.59 1.59 0 0 0-.097-.013.33.33 0 0 0-.162.051zm.692 1.41c-.047.002-.115 0-.157.016-.066.024-.13.052-.191.086-.076.042-.146.098-.216.148l-.23.165c-.216.158-.432.315-.646.474a.325.325 0 0 0-.139.18.302.302 0 0 0 .21.371c.072.02.171.015.233-.03a305.266 305.266 0 0 1 .816-.597c.112-.08.22-.172.342-.235a.457.457 0 0 1 .054-.012c.124-.024.211-.157.211-.277a.29.29 0 0 0-.283-.288h-.004zm.377 1.53a.944.944 0 0 0-.152.083l-.169.113c-.1.067-.196.142-.294.213-.23.166-.453.34-.678.512l-.062.047a.304.304 0 0 0 .134.509c.071.02.173.016.235-.03.395-.3.79-.6 1.182-.903.032-.024.063-.047.097-.067a.27.27 0 0 0 .182-.253.267.267 0 0 0-.078-.189l-.054-.042a.264.264 0 0 0-.135-.036.267.267 0 0 0-.034-.002.43.43 0 0 0-.174.046zm.457 1.15c-.218.129-.428.271-.64.41-.25.165-.497.332-.746.499a.302.302 0 0 0-.131.17.287.287 0 0 0 .029.222c.075.128.262.19.392.103.459-.308.915-.62 1.377-.924.126-.084.18-.244.1-.38a.282.282 0 0 0-.38-.1z"/>
        <path fill="#3C8076" d="M39.523 71.851a.362.362 0 0 0-.141.09c-.064.056-.12.131-.158.18a3.478 3.478 0 0 0-.32.524l-.204.408a4.845 4.845 0 0 0-.09.193l-.014.031-.026.056a20.37 20.37 0 0 0-.548 1.278 13.364 13.364 0 0 0-.321 1.026c-.09.339-.152.689-.192 1.07-.028.28-.039.557-.03.822l-.003-.012a6.103 6.103 0 0 0-.358-.378L36.97 77l-.184-.174a30.54 30.54 0 0 0-.184-.172l-.081-.075-.014-.013-.013-.012c-.053-.049-.125-.116-.196-.175a2.657 2.657 0 0 0-.46-.297 4.055 4.055 0 0 0-.162-.082l-.013-.006-.007-.004-.052-.025a2.91 2.91 0 0 0-.773-.306 6.043 6.043 0 0 0-.475-.095l-.014-.003-.1-.017a6.292 6.292 0 0 0-.367-.053l-.054-.005a2.591 2.591 0 0 0-.319-.022.867.867 0 0 0-.37.069.44.44 0 0 0-.193.169.635.635 0 0 0-.082.206c-.044.2.048.376.133.49.172.228.393.41.607.572l.047.035.01.008c.163.124.365.279.561.418a94.004 94.004 0 0 0 1.683 1.167l.099.066a41.864 41.864 0 0 0 .524.35l.008.006c.107.07.222.146.33.224.072.057.14.113.199.166.087.076.181.155.284.218.093.058.192.104.303.141a5.55 5.55 0 0 1 .08-.62.265.265 0 0 1 .127-.163.284.284 0 0 1 .075-.03.253.253 0 0 1 .178-.075.32.32 0 0 1 .18.064l.037-.007.037-.007c.061-.012.119-.04.175-.066l.024-.011.137-.066.037-.017.113-.054c.074-.03.149-.057.223-.085l.026-.01.041-.016.097-.037c.08-.03.16-.061.242-.09.26-.09.474-.16.675-.22.331-.097.669-.176.996-.253l.03-.008.07-.016.336-.08c.23-.056.462-.13.69-.22l.164-.066.493-.194c.215-.085.465-.18.742-.285l.045-.017.015-.005.029-.011c.18-.067.365-.136.55-.198l.14-.047.06-.02.22-.073.041-.013a2.277 2.277 0 0 0 .342-.132c.055-.025.113-.054.187-.095.245-.13.458-.334.692-.659.088-.122.17-.255.245-.396.1-.186.154-.35.171-.516a.815.815 0 0 0 .006-.118.54.54 0 0 0-.01-.09l-.006-.04a.741.741 0 0 0-.069-.202l-.01-.025a.554.554 0 0 0-.401-.315 1.3 1.3 0 0 0-.262-.026 2.069 2.069 0 0 0-.211.013l-.019.001a2.57 2.57 0 0 0-.117.012l-.038.005c-.136.019-.265.036-.394.056a10.326 10.326 0 0 0-.721.14l-.027.005a7.65 7.65 0 0 0-.329.085l-.027.008a5.52 5.52 0 0 0-.339.103l-.015.005c-.087.028-.19.06-.291.101l-.207.08-.208.082c-.142.055-.283.12-.397.171l-.007.004a6.271 6.271 0 0 0-.498.253c-.161.09-.313.192-.46.29l-.088.058-.015.01-.03.02-.021.014-.11.074-.402.281-.013.009-.015.01-.01.008-.014.01-.01.007c-.05.035-.095.067-.139.1l-.209.161-.198.153-.043.033c-.063.048-.125.095-.18.144l-.377.334-.012.011-.008.007c-.05.046-.109.098-.162.15l-.084.084-.015.015c-.17.17-.314.315-.46.466l-.025.027-.012.012.023-.046.064-.173c.05-.14.108-.298.158-.455.072-.224.135-.475.176-.64l.003-.01.005-.02c.032-.127.064-.241.098-.35l.011-.034a5.04 5.04 0 0 0 .085-.285c.108-.414.172-.833.233-1.239l.03-.2.12-.764.016-.101.003-.02.003-.018c.029-.18.061-.39.086-.593l.016-.127.012-.092.02-.164c.01-.078.02-.143.022-.21a.527.527 0 0 0-.006-.11.298.298 0 0 0-.036-.129l-.006-.007c-.023-.031-.045-.061-.08-.084a.229.229 0 0 0-.137-.044.33.33 0 0 0-.095.016Z"/>
        <path fill="#3C8076" d="M41.834 78.486c-.352.005-.606.01-.826.016-.377.012-.811.029-1.204.077l-.088.01-.023.004-.03.004a8.757 8.757 0 0 0-.308.041c-.174.03-.315.068-.443.119a3.062 3.062 0 0 0-.52.28 1.043 1.043 0 0 1 .226.3c.068.13.123.273.167.388.02.054.042.108.063.161l.068.148.006.014.01.024c.017.035.034.07.05.107l.052.017c.24.078.482.134.708.185l.221.052c.145.036.314.076.473.105.251.044.514.08.803.11.24.025.496.035.692.042.274.009.537.01.78.011h.285l.48-.001c.08-.001.16-.004.239-.007l.024-.001.082-.003c.169-.006.345-.039.48-.066.208-.044.374-.097.524-.166a.617.617 0 0 0 .347-.472.375.375 0 0 0-.004-.116l-.001-.01a.618.618 0 0 0-.105-.241 1.9 1.9 0 0 0-.623-.589 3.268 3.268 0 0 0-.735-.354 3.433 3.433 0 0 0-1.079-.181l-.162-.003a17.697 17.697 0 0 0-.629-.005zm-3.62 1.08-.002.013-.001.011v.012l-.013.169.002-.002a.093.093 0 0 1 .022-.007.22.22 0 0 0 .096.1l.02.011.023.015.012.007.006.004-.027-.065a3.372 3.372 0 0 0-.106-.222l-.026-.049-.005-.009-.002.012z"/>
        <path fill="#000" d="m38.198 79.771.012-.17v-.01l.002-.012.001-.013.002-.013.031.058c.035.068.07.14.106.223l.028.066-.019-.012-.023-.015-.02-.01a.218.218 0 0 1-.096-.1.086.086 0 0 0-.022.006l-.002.002Zm-.106-.891a.252.252 0 0 0-.164.074.286.286 0 0 0-.075.03.266.266 0 0 0-.126.165 5.69 5.69 0 0 0-.093.837c-.009.23-.019.502-.021.78-.006.552-.007 1.106-.008 1.58l-.002.394v.054c0 .34-.002.692 0 1.036 0 .11.007.216.016.353l.003.054.022.34.011.153.005.079.008.116.03.44c.034.464.067.964.1 1.53.008.13.012.26.017.403v.02l.012.293c.012.25.024.517.031.79.005.17.01.342.017.513l.003.085a56.358 56.358 0 0 1 .03 1.167v.027c.002.174.004.33.011.485.006.128.015.256.024.379l.002.018c.008.109.016.217.022.326l.002.043v.009c.012.219.026.467.05.704.028.262.066.526.099.758l.002.016c.014.096.03.191.047.286l.01.056c.015.086.053.16.106.205.068.057.147.08.223.095.076.015.158.022.225.029h.01l.04.004c.25.023.478.036.701.039h.093a9.516 9.516 0 0 0 .27.001h.033a.462.462 0 0 0 .214-.038.354.354 0 0 0 .09-.07.344.344 0 0 0 .057-.088.937.937 0 0 0 .068-.269c.039-.288.038-.583.03-.859l-.003-.139v-.022c-.006-.197-.012-.4-.026-.6l-.059-.741-.01-.127-.002-.031a25.92 25.92 0 0 0-.054-.62c-.03-.3-.054-.551-.072-.798a68.184 68.184 0 0 1-.049-.754l-.02-.373a58.353 58.353 0 0 0-.022-.4l-.007-.126a43.886 43.886 0 0 1-.035-.627c-.015-.324-.03-.571-.047-.803-.038-.5-.116-1.004-.19-1.491l-.002-.008-.001-.01-.101-.634c-.035-.26-.064-.5-.09-.735l-.034-.322-.006-.063-.009-.085-.008-.082a19.44 19.44 0 0 0-.017-.155l-.013-.126v-.008c-.05-.464-.102-.945-.196-1.415a4.231 4.231 0 0 0-.144-.496l-.021-.065c-.045-.135-.107-.267-.166-.394l-.01-.024-.008-.014-.067-.148a10.767 10.767 0 0 1-.063-.16 3.533 3.533 0 0 0-.168-.388 1.03 1.03 0 0 0-.159-.236 1.163 1.163 0 0 0-.104-.097.725.725 0 0 1-.029-.027l-.011-.01a.321.321 0 0 0-.208-.087l-.014-.001Z"/>
        <path fill="#000" d="M38.32 79.462a.207.207 0 0 0-.109.027c-.073.043-.118.14-.09.223.009.064.022.129.036.193v.002l.011.067.024.179.005.04a.401.401 0 0 0 .007.112.168.168 0 0 0 .161.122c.075 0 .14-.05.16-.122a.296.296 0 0 0 .01-.053.256.256 0 0 0 .101-.095.393.393 0 0 0 .034-.24 1.535 1.535 0 0 0-.049-.265.233.233 0 0 0-.013-.036l.003-.019a.173.173 0 0 0-.016-.124.162.162 0 0 0-.137-.08.171.171 0 0 0-.139.07Z"/>
        <path fill="#989482" d="M38.535 80.243c-.13.005-.26.017-.39.027a.24.24 0 0 0-.161.067.228.228 0 0 0-.067.16c0 .118.104.237.228.228.15-.01.3-.022.449-.047a.22.22 0 0 0 .163-.213c0-.115-.097-.222-.215-.222h-.007zm-.424.796a.197.197 0 0 0 0 .278l.04.031a.19.19 0 0 0 .1.027c.138.018.277.034.417.046.083.006.161-.063.182-.14a.19.19 0 0 0-.02-.146c-.022-.038-.066-.079-.112-.087a14.004 14.004 0 0 0-.48-.068.198.198 0 0 0-.127.059zm-.14 1.219a.24.24 0 0 0 .239.238c.217.004.435.005.652.01a.231.231 0 0 0 .23-.23.235.235 0 0 0-.067-.163.248.248 0 0 0-.163-.067c-.216-.021-.435-.021-.652-.027h-.005a.24.24 0 0 0-.233.239zm.091.97a.185.185 0 0 0 0 .262.2.2 0 0 0 .131.054c.215.021.431.04.646.069.046.006.101-.024.132-.055a.189.189 0 0 0 0-.264c-.038-.039-.08-.049-.132-.055-.215-.025-.43-.043-.646-.065h-.01a.186.186 0 0 0-.12.054zm.134 1.441c0 .093.074.159.163.164.271.013.542.027.814.033a.154.154 0 0 0 .153-.153c0-.04-.017-.08-.045-.108a.16.16 0 0 0-.108-.045 33.987 33.987 0 0 0-.822-.054c-.085 0-.155.08-.155.163zm.22.743a.238.238 0 0 0-.235.235c0 .127.107.237.235.236.198-.003.396-.004.594-.008.18-.004.36-.013.541-.01a.219.219 0 0 0 .21-.16.22.22 0 0 0-.152-.267c-.172-.03-.345-.03-.518-.03l-.067-.001h-.049c-.186 0-.373.003-.56.005zm.126 1.398a.179.179 0 0 0-.177.178c0 .096.08.177.177.177a2.35 2.35 0 0 1 .735.09.168.168 0 0 0 .205-.115.168.168 0 0 0-.017-.128.18.18 0 0 0-.1-.077 1.567 1.567 0 0 0-.254-.073 2.615 2.615 0 0 0-.562-.052h-.007zm.154 1.45a.22.22 0 0 0-.218.218c0 .115.1.223.218.218.299-.014.598-.035.897-.04a.208.208 0 0 0 .205-.204.206.206 0 0 0-.06-.146.213.213 0 0 0-.145-.06 3.776 3.776 0 0 0-.263-.008c-.211 0-.423.014-.634.023zm.63 1.247c-.036.002-.071.008-.106.013-.067.008-.133.018-.2.028l-.365.058a.2.2 0 0 0-.123.095.207.207 0 0 0 .073.282c.052.03.102.03.16.02.193-.03.386-.063.58-.092a.519.519 0 0 1 .097-.003c.086.007.166-.064.188-.143a.198.198 0 0 0-.136-.24.46.46 0 0 0-.168-.018zm-.742 1.456c0 .038.015.074.042.1.028.03.062.04.101.043l.338.024c.093.007.186.013.28.024l.058.012a.138.138 0 0 0 .167-.095.137.137 0 0 0-.014-.105.143.143 0 0 0-.08-.062.69.69 0 0 0-.162-.036l-.09-.01-.148-.013c-.117-.01-.233-.017-.349-.025h-.008c-.075 0-.135.072-.135.143zm.96 1.01a3.511 3.511 0 0 0-.315.025c-.066.009-.133.015-.199.029a7.45 7.45 0 0 0-.205.042c-.138.03-.216.187-.18.317a.26.26 0 0 0 .118.154c.062.036.13.04.199.026.214-.046.43-.084.646-.126.103-.02.174-.13.174-.23 0-.123-.103-.238-.229-.238h-.008z"/>
        <path fill="#3C8076" d="M86.245 66.254a.287.287 0 0 0-.08.015l-.075.031a.279.279 0 0 0-.072.052l-.02.016a.444.444 0 0 0-.071.084l-.01.014a1.079 1.079 0 0 0-.099.162 2.144 2.144 0 0 0-.083.189 4.23 4.23 0 0 0-.113.332c-.088.303-.105.626-.11.9l-.003.37c.001.112.005.22.011.334l.004.072v.008c.005.077.009.152.017.227l.046.454c.051.511.121.93.22 1.318a17.99 17.99 0 0 0-1.122-.936 2.046 2.046 0 0 0-.26-.171 2.89 2.89 0 0 0-.436-.178 1.962 1.962 0 0 0-.513-.096c-.067 0-.131.008-.18.016a.542.542 0 0 0-.231.108c-.242.18-.378.501-.364.859.007.167.055.33.096.452.06.173.15.342.221.478a3.946 3.946 0 0 0 .588.823c.091.1.163.176.228.24.087.086.176.171.273.261.074.068.158.132.232.188l.054.04c.174.132.352.254.532.362l.007.004a4.8 4.8 0 0 0 .288.164c.105.054.212.105.292.144.228.11.437.202.64.282.086.034.182.067.31.107.122.039.245.058.338.071l-.006-.006.022.009-.014-.008a.663.663 0 0 0 .152.016.902.902 0 0 0 .246-.04l.002-.005a188.186 188.186 0 0 1 .383-1.108.126.126 0 0 1 .117-.09.123.123 0 0 1 .076.027h.011c.102 0 .182.08.186.19l.005.108c.008.215.017.428.027.642l.01.232.293.061.007.002.008.002.008.001.117.026.147.029.01.002c.051.01.103.02.155.032.104.022.207.043.311.062.407.076.888.159 1.38.196.24.018.475.025.715.031.092.003.185.004.278.005h.057c.036 0 .074-.002.111-.005l.013-.001.045-.003c.044-.003.089-.01.128-.015l.019-.003a8.584 8.584 0 0 0 1.238-.257c.154-.046.314-.106.489-.185.142-.063.265-.145.367-.243a.854.854 0 0 0 .22-.443.744.744 0 0 0 .009-.269.666.666 0 0 0-.074-.2.763.763 0 0 0-.15-.189 2.729 2.729 0 0 0-.222-.179c-.033-.023-.07-.044-.105-.065l-.04-.023a2.78 2.78 0 0 0-.654-.255l-.025-.007a1.153 1.153 0 0 0-.101-.02h-.012l-.048-.009a1.779 1.779 0 0 0-.16-.021l-.07-.008a2.993 2.993 0 0 0-.378-.023c-.088 0-.174.003-.257.01a14.177 14.177 0 0 0-1.076.119l-.034.005a4.007 4.007 0 0 0-.342.064l-.01.002-.025.005-.007.002c-.081.018-.16.035-.237.059l-.09.026c-.08.024-.16.048-.24.074l-.198.064-.198.064a3.65 3.65 0 0 0-.225.082l-.032.012a.912.912 0 0 0 .084-.068l.063-.055a17.9 17.9 0 0 1 .26-.22l.017-.014.23-.194c.085-.073.168-.148.251-.223l.016-.015.226-.202c.041-.035.081-.072.121-.108l.012-.012.101-.091.112-.1.052-.047.099-.089.232-.203a8.051 8.051 0 0 0 .756-.72c.14-.15.25-.295.337-.442.063-.11.125-.218.186-.329a4.16 4.16 0 0 0 .167-.334c.026-.06.06-.138.083-.222a.607.607 0 0 0 .019-.27c-.027-.15-.126-.271-.218-.37a.515.515 0 0 0-.192-.122.426.426 0 0 0-.15-.024.939.939 0 0 0-.115.009 2.01 2.01 0 0 0-.653.206c-.117.057-.23.137-.32.202l-.032.022a6.674 6.674 0 0 0-.732.626l-.013.013-.078.078-.158.156-.017.018-.054.054-.042.042c-.05.05-.105.104-.155.159l-.313.339a4.104 4.104 0 0 0-.137.159l-.03.036-.17.205-.093.11c-.048.058-.092.119-.136.178l-.006.008-.007.01-.016.021-.044.06-.227.3c-.08.105-.15.217-.213.316l-.005.009-.03.048a7.505 7.505 0 0 0-.468.853 6.295 6.295 0 0 0-.034-.483 13.27 13.27 0 0 0-.039-.32l-.039-.33c-.024-.239-.05-.473-.078-.696a21.075 21.075 0 0 1-.031-.273l-.017-.152a.175.175 0 0 0-.006-.058l-.009-.063a9.384 9.384 0 0 0-.022-.158l-.033-.238-.004-.033c-.02-.146-.038-.277-.06-.408a26.77 26.77 0 0 0-.271-1.37c-.048-.212-.1-.438-.164-.663a3.855 3.855 0 0 0-.144-.42c-.053-.13-.12-.278-.246-.38a.408.408 0 0 0-.29-.095Z"/>
        <path fill="#3C8076" d="m87.544 73.775-.05.142c.047.028.1.051.152.073a25.66 25.66 0 0 1-.022-.447l-.08.232Z"/>
        <path fill="#000" d="M87.645 73.99a1.122 1.122 0 0 1-.15-.073l.049-.142.08-.232c.006.149.013.298.021.446Zm.057-1.172a.126.126 0 0 0-.117.09l-.214.62-.169.488-.046.134c-.035.1-.07.2-.102.3l-.19.581c-.048.146-.094.292-.14.437l-.15.466c-.108.326-.222.657-.332.977-.06.176-.11.321-.153.458-.03.094-.057.19-.085.286l-.057.196c-.052.17-.103.322-.157.467-.055.146-.11.292-.167.438-.125.326-.237.66-.332.95-.05.153-.107.305-.161.451-.064.172-.12.339-.168.48l-.107.311c-.069.2-.14.406-.204.61l-.156.498-.085.261-.065.197-.043.13c-.038.119-.077.238-.114.358l-.117.388-.025.084-.02.069-.052.174-.034.125c-.008.032-.015.064-.024.095l-.032.115c-.033.116-.067.235-.09.355a.804.804 0 0 0-.018.253.54.54 0 0 0 .152.305c.055.059.125.104.192.148l.009.006a2.242 2.242 0 0 0 .318.176c.075.036.158.07.262.109.08.029.16.058.239.085.073.025.148.045.23.067a.797.797 0 0 0 .203.031.466.466 0 0 0 .344-.161 1.03 1.03 0 0 0 .17-.268c.028-.057.054-.122.081-.196l.024-.064c.02-.054.04-.11.057-.164l.043-.133.041-.132a48.68 48.68 0 0 0 .429-1.434c.104-.364.185-.665.253-.946l.058-.233a21.194 21.194 0 0 0 .287-1.29l.028-.144c.022-.114.044-.228.064-.342.027-.16.057-.318.086-.476.033-.174.065-.348.095-.523l.027-.15c.018-.103.036-.205.052-.308l.048-.3.037-.225c.053-.334.107-.645.163-.949.027-.145.05-.308.074-.51a54.1 54.1 0 0 0 .059-.537c.033-.289.07-.63.095-.974.021-.289.041-.63.027-.967l-.016-.376-.027-.642a13.35 13.35 0 0 0-.005-.108c-.004-.11-.084-.19-.186-.19h-.01a.12.12 0 0 0-.077-.027Z"/>
        <path fill="#000" d="m87.58 73.52-.007.021v.002a.225.225 0 0 0-.05.08l-.01.03a.427.427 0 0 0-.018.061c-.01.039-.017.079-.025.118l-.022.13-.01.06c-.005.036-.015.07-.006.106.017.053.072.094.131.074a.134.134 0 0 0 .023-.01l.005.002a.143.143 0 0 0 .174-.1 1.134 1.134 0 0 0 .058-.3.516.516 0 0 0-.002-.092.26.26 0 0 0-.04-.132c.014-.052-.024-.108-.074-.122a.106.106 0 0 0-.027-.004.107.107 0 0 0-.1.076Z"/>
        <path fill="#989482" d="M87.253 74.864a.077.077 0 0 0 .053.093l.176.05c.04.01.08-.013.091-.051a.075.075 0 0 0-.052-.091c-.058-.02-.116-.037-.174-.054a.068.068 0 0 0-.02-.003.078.078 0 0 0-.074.056zm-.267.696a.148.148 0 0 0 .102.18c.064.016.127.032.191.044a.148.148 0 0 0 .11-.014.14.14 0 0 0 .065-.085.143.143 0 0 0-.099-.175 4.686 4.686 0 0 0-.19-.052.147.147 0 0 0-.18.102zm-.223.6a.155.155 0 0 0 .107.19l.302.074c.08.018.163-.023.185-.105a.152.152 0 0 0-.105-.184c-.099-.033-.199-.057-.3-.082a.154.154 0 0 0-.19.108zm-.209.742a.161.161 0 0 0 .111.196c.177.05.353.1.532.14.077.017.158-.022.18-.102a.147.147 0 0 0-.015-.113.157.157 0 0 0-.088-.068c-.17-.066-.347-.114-.524-.164a.162.162 0 0 0-.196.111zm-.163 1.107c-.011.042.014.079.052.092.191.066.382.133.574.195.036.012.075-.013.085-.048a.07.07 0 0 0-.007-.053.074.074 0 0 0-.042-.032c-.189-.071-.38-.138-.57-.206a.06.06 0 0 0-.02-.003.078.078 0 0 0-.072.055zm-.333 1.147c-.015.055.018.106.07.123.216.071.432.142.651.207a.09.09 0 0 0 .11-.062.09.09 0 0 0-.01-.068.092.092 0 0 0-.053-.041 21.53 21.53 0 0 0-.646-.228.083.083 0 0 0-.026-.005.104.104 0 0 0-.096.074zm-.52 1.126a.162.162 0 0 0-.074.097c-.023.081.026.182.113.2.181.037.363.074.546.102.043.007.08.008.12-.015a.159.159 0 0 0 .072-.094c.022-.079-.026-.174-.11-.192-.18-.04-.36-.078-.541-.115a.23.23 0 0 0-.046-.004.155.155 0 0 0-.08.02zm-.486 1.327a.152.152 0 0 0-.069.09c-.02.074.025.167.105.183.188.04.377.077.568.104.039.005.071.006.107-.014a.14.14 0 0 0-.033-.254c-.186-.05-.375-.085-.563-.124a.195.195 0 0 0-.04-.005.144.144 0 0 0-.075.02zm-.371 1.314a.154.154 0 0 0 0 .217.16.16 0 0 0 .108.045c.224.02.446.038.67.05a.143.143 0 0 0 .138-.105.145.145 0 0 0-.014-.111.134.134 0 0 0-.086-.066c-.234-.04-.471-.055-.708-.076h-.007a.154.154 0 0 0-.101.046zm-.257.802a.165.165 0 0 0-.098.076c-.043.073-.022.186.059.226.191.094.402.12.61.152a5.1 5.1 0 0 0 .352.043.166.166 0 0 0 .122-.05.172.172 0 0 0 0-.244.18.18 0 0 0-.122-.05 9.137 9.137 0 0 1-.424-.046 3.43 3.43 0 0 1-.175-.03 1.249 1.249 0 0 1-.185-.054l-.012-.006a.195.195 0 0 0-.085-.022.155.155 0 0 0-.042.005z"/>
    </g>
</svg>
