<svg xmlns="http://www.w3.org/2000/svg" viewBox="0 0 32 32" role="img" aria-label="MapRoulette logomark" fill="currentColor">
    <title>MapRoulette logomark</title>
    <path d="M16,0 C24.822375,0 32,7.177625 32,16 C32,24.822375 24.822375,32 16,32 C7.177625,32 0,24.822375 0,16 C0,7.177625 7.177625,0 16,0 Z M16,1.0666875 C7.765875,1.0666875 1.0666875,7.765875 1.0666875,16 C1.0666875,24.234125 7.765875,30.9333125 16,30.9333125 C24.234125,30.9333125 30.9333125,24.234125 30.9333125,16 C30.9333125,7.765875 24.234125,1.0666875 16,1.0666875 Z M15.9989375,2.1334375 C16.293875,2.1334375 16.53225,2.372375 16.53225,2.66675 L16.5316875,4.2800625 C17.210625,4.311 17.873,4.4000625 18.51675,4.541375 L18.934875,2.9824375 C19.011125,2.6986875 19.305,2.530125 19.5881875,2.605875 C19.873,2.682125 20.0415,2.974375 19.96525,3.2591875 L19.547125,4.816 C20.18925,5.02025 20.8063125,5.2794375 21.395125,5.586125 L22.2036875,4.186125 C22.3509375,3.930625 22.677875,3.8431875 22.93225,3.990375 C23.1876875,4.138125 23.2751875,4.4645 23.1274375,4.7194375 L22.318375,6.1210625 C22.8815625,6.4826875 23.413875,6.8890625 23.906125,7.3386875 L25.0506875,6.194125 C25.2586875,5.986125 25.59625,5.986125 25.8048125,6.194125 C26.0128125,6.402625 26.0128125,6.74025 25.8048125,6.94825 L24.66025,8.0928125 C25.1104375,8.5850625 25.51625,9.1168125 25.877875,9.68 L27.28,8.8709375 C27.534375,8.72375 27.8608125,8.8106875 28.0090625,9.066125 C28.15625,9.3215625 28.06875,9.6474375 27.8133125,9.794625 L26.41275,10.6031875 C26.72,11.192 26.9791875,11.8090625 27.1834375,12.4511875 L28.7413125,12.0335625 C29.0255625,11.957875 29.318375,12.125875 29.394125,12.4111875 C29.470375,12.6954375 29.3013125,12.98825 29.0170625,13.064 L27.458125,13.481625 C27.5994375,14.125375 27.6890625,14.7883125 27.72,15.4666875 L29.3333125,15.4666875 C29.62825,15.4666875 29.866625,15.705625 29.866625,16 C29.866625,16.294375 29.62825,16.5333125 29.3333125,16.5333125 L27.7201875,16.533375 C27.68925,17.21125 27.6001875,17.8741875 27.4583125,18.5179375 L29.0166875,18.936625 C29.301,19.012875 29.4700625,19.3056875 29.39325,19.5899375 C29.32925,19.8283125 29.11375,19.985125 28.8785625,19.985125 C28.8331875,19.985125 28.78625,19.97925 28.739875,19.9664375 L27.183625,19.5483125 C26.979375,20.1899375 26.7201875,20.8075 26.4135,21.3963125 L27.8129375,22.205375 C28.067875,22.353125 28.155375,22.679 28.007625,22.9339375 C27.909,23.1051875 27.7298125,23.200625 27.54525,23.200625 C27.455125,23.200625 27.363375,23.17775 27.2785625,23.1291875 L25.8785625,22.3195625 C25.5169375,22.88275 25.1110625,23.4145 24.6609375,23.90675 L25.8049375,25.0518125 C26.012375,25.2603125 26.012375,25.5979375 25.804375,25.8059375 C25.699875,25.9099375 25.563875,25.9621875 25.4273125,25.9621875 C25.29075,25.9621875 25.1536875,25.9099375 25.0496875,25.805375 L23.90675,24.6608125 C23.4145,25.111 22.88225,25.5168125 22.3195625,25.8784375 L23.1275625,27.281125 C23.27525,27.5360625 23.18725,27.8625 22.9318125,28.0096875 C22.8480625,28.0576875 22.7563125,28.080625 22.6661875,28.080625 C22.4816875,28.080625 22.3019375,27.985125 22.2038125,27.8139375 L21.396375,26.413375 C20.808125,26.7200625 20.1905625,26.97925 19.5489375,27.1835 L19.9655,28.741375 C20.0411875,29.026125 19.8726875,29.3184375 19.587875,29.3946875 C19.542,29.4069375 19.495625,29.4128125 19.44975,29.4128125 C19.214,29.4128125 18.9985625,29.2554375 18.9350625,29.0170625 L18.5185625,27.458125 C17.8748125,27.6 17.211375,27.6890625 16.5335,27.72 L16.5324375,29.333875 C16.5324375,29.6283125 16.2935,29.8666875 15.999125,29.8666875 C15.7041875,29.8666875 15.4658125,29.62775 15.4658125,29.3328125 L15.466875,27.72 C14.789,27.6890625 14.1260625,27.6 13.4823125,27.458125 L13.063125,29.0175625 C12.999125,29.2554375 12.783625,29.41225 12.5484375,29.41225 C12.5025625,29.41225 12.455625,29.406375 12.40975,29.394125 C12.1249375,29.3173125 11.956375,29.0250625 12.0331875,28.74025 L12.451875,27.1834375 C11.80975,26.9791875 11.1926875,26.72 10.603875,26.4133125 L9.79425,27.813875 C9.6950625,27.9850625 9.515875,28.08 9.331875,28.08 C9.2411875,28.08 9.1495,28.057125 9.06575,28.0085625 C8.8103125,27.860875 8.723375,27.535 8.8705625,27.2800625 L9.68125,25.8784375 C9.1180625,25.5173125 8.5863125,25.1109375 8.0940625,24.661875 L6.9479375,25.805875 C6.8439375,25.909875 6.7074375,25.961625 6.570875,25.961625 C6.4343125,25.961625 6.2978125,25.909375 6.19325,25.8048125 C5.98525,25.5963125 5.98575,25.2586875 6.1943125,25.0506875 L7.3399375,23.90725 C6.88975,23.415 6.4839375,22.88325 6.1223125,22.3200625 L4.7185625,23.129125 C4.63425,23.177125 4.5430625,23.2000625 4.4529375,23.2000625 C4.267875,23.2000625 4.0886875,23.1040625 3.99,22.932875 C3.8433125,22.678 3.9308125,22.3515625 4.18625,22.204375 L5.5873125,21.3974375 C5.280625,20.808625 5.0214375,20.1915625 4.8171875,19.5499375 L3.2571875,19.9665 C3.2113125,19.97875 3.1654375,19.984625 3.1195625,19.984625 C2.8838125,19.984625 2.668375,19.82725 2.604375,19.588875 C2.528625,19.304125 2.6976875,19.0118125 2.9825,18.9355625 L4.5419375,18.5195625 C4.400625,17.8758125 4.311,17.212875 4.2800625,16.5345 L2.665125,16.5334375 C2.3706875,16.5334375 2.1323125,16.2945 2.1323125,15.9995625 C2.1328125,15.705125 2.37125,15.46675 2.665625,15.46675 L4.28,15.4678125 C4.3109375,14.789375 4.4,14.127 4.5413125,13.48325 L2.9813125,13.0640625 C2.697,12.9878125 2.5285,12.695 2.60475,12.41075 C2.6815,12.1259375 2.974875,11.9585 3.2580625,12.0336875 L4.8159375,12.452875 C5.0201875,11.81075 5.279375,11.1936875 5.5860625,10.604875 L4.185,9.79525 C3.9300625,9.6475 3.843125,9.321625 3.9903125,9.0666875 C4.1375625,8.81125 4.4639375,8.72375 4.718875,8.8715 L6.121,9.6821875 C6.4820625,9.119 6.8885,8.5866875 7.3375625,8.0944375 L6.1935625,6.949375 C5.9855625,6.7408125 5.9855625,6.4031875 6.1935625,6.1946875 C6.402125,5.98725 6.73975,5.9866875 6.94825,6.19525 L8.09225,7.3403125 C8.5845,6.8901875 9.11625,6.4843125 9.6794375,6.1221875 L8.870375,4.7195 C8.7231875,4.4645625 8.8106875,4.138125 9.066125,3.9909375 C9.3210625,3.84375 9.6469375,3.93125 9.794125,4.1866875 L10.602125,5.58725 C11.1909375,5.2805625 11.808,5.021375 12.450125,4.817125 L12.0330625,3.25875 C11.95625,2.9745 12.1253125,2.6816875 12.410125,2.6059375 C12.6949375,2.529125 12.9866875,2.69875 13.0629375,2.983 L13.4805625,4.5419375 C14.1243125,4.400625 14.78725,4.311 15.465125,4.2800625 L15.465625,2.66675 C15.465625,2.372375 15.7045625,2.1334375 15.9989375,2.1334375 Z M16,5.3333125 C10.118375,5.3333125 5.3333125,10.118375 5.3333125,16 C5.3333125,21.881625 10.118375,26.6666875 16,26.6666875 C21.881625,26.6666875 26.6666875,21.881625 26.6666875,16 C26.6666875,10.118375 21.881625,5.3333125 16,5.3333125 Z M22.4174228,9.59551666 L20.1415254,14.2369924 C20.3722943,14.778406 20.5,15.3742894 20.5,16 C20.5,18.4852814 18.4852814,20.5 16,20.5 C15.3491584,20.5 14.7305881,20.3618299 14.1720217,20.1132224 L9.56824269,22.3720824 L11.8446611,17.7302387 C11.622615,17.1975866 11.5,16.6131124 11.5,16 C11.5,13.5147186 13.5147186,11.5 16,11.5 C16.6341094,11.5 17.2375855,11.6311571 17.7847799,11.867823 L22.4174228,9.59551666 Z M16,12.5 C14.0670034,12.5 12.5,14.0670034 12.5,16 C12.5,17.9329966 14.0670034,19.5 16,19.5 C17.9329966,19.5 19.5,17.9329966 19.5,16 C19.5,14.0670034 17.9329966,12.5 16,12.5 Z"/>
</svg>